G04 #@! TF.GenerationSoftware,KiCad,Pcbnew,(5.1.0)-1*
G04 #@! TF.CreationDate,2019-07-01T21:30:59-03:00*
G04 #@! TF.ProjectId,Main,4d61696e-2e6b-4696-9361-645f70636258,1.0*
G04 #@! TF.SameCoordinates,Original*
G04 #@! TF.FileFunction,Soldermask,Bot*
G04 #@! TF.FilePolarity,Negative*
%FSLAX46Y46*%
G04 Gerber Fmt 4.6, Leading zero omitted, Abs format (unit mm)*
G04 Created by KiCad (PCBNEW (5.1.0)-1) date 2019-07-01 21:30:59*
%MOMM*%
%LPD*%
G04 APERTURE LIST*
%ADD10C,0.100000*%
G04 APERTURE END LIST*
D10*
G36*
X49691213Y-97087502D02*
G01*
X49762321Y-97094505D01*
X49899172Y-97136019D01*
X49899175Y-97136020D01*
X50025294Y-97203432D01*
X50135843Y-97294157D01*
X50226568Y-97404706D01*
X50293980Y-97530825D01*
X50293981Y-97530828D01*
X50335495Y-97667679D01*
X50349512Y-97810000D01*
X50335495Y-97952321D01*
X50293981Y-98089172D01*
X50293980Y-98089175D01*
X50226568Y-98215294D01*
X50135843Y-98325843D01*
X50025294Y-98416568D01*
X49899175Y-98483980D01*
X49899172Y-98483981D01*
X49762321Y-98525495D01*
X49691213Y-98532498D01*
X49655660Y-98536000D01*
X49584340Y-98536000D01*
X49548787Y-98532498D01*
X49477679Y-98525495D01*
X49340828Y-98483981D01*
X49340825Y-98483980D01*
X49214706Y-98416568D01*
X49104157Y-98325843D01*
X49013432Y-98215294D01*
X48946020Y-98089175D01*
X48946019Y-98089172D01*
X48904505Y-97952321D01*
X48890488Y-97810000D01*
X48904505Y-97667679D01*
X48946019Y-97530828D01*
X48946020Y-97530825D01*
X49013432Y-97404706D01*
X49104157Y-97294157D01*
X49214706Y-97203432D01*
X49340825Y-97136020D01*
X49340828Y-97136019D01*
X49477679Y-97094505D01*
X49548787Y-97087502D01*
X49584340Y-97084000D01*
X49655660Y-97084000D01*
X49691213Y-97087502D01*
X49691213Y-97087502D01*
G37*
G36*
X30346000Y-98536000D02*
G01*
X28894000Y-98536000D01*
X28894000Y-97084000D01*
X30346000Y-97084000D01*
X30346000Y-98536000D01*
X30346000Y-98536000D01*
G37*
G36*
X65346000Y-97066000D02*
G01*
X63894000Y-97066000D01*
X63894000Y-95614000D01*
X65346000Y-95614000D01*
X65346000Y-97066000D01*
X65346000Y-97066000D01*
G37*
G36*
X50346000Y-96536000D02*
G01*
X48894000Y-96536000D01*
X48894000Y-95084000D01*
X50346000Y-95084000D01*
X50346000Y-96536000D01*
X50346000Y-96536000D01*
G37*
G36*
X76496000Y-94046000D02*
G01*
X75044000Y-94046000D01*
X75044000Y-92594000D01*
X76496000Y-92594000D01*
X76496000Y-94046000D01*
X76496000Y-94046000D01*
G37*
G36*
X87296000Y-86336000D02*
G01*
X85844000Y-86336000D01*
X85844000Y-84884000D01*
X87296000Y-84884000D01*
X87296000Y-86336000D01*
X87296000Y-86336000D01*
G37*
G36*
X50346000Y-76536000D02*
G01*
X48894000Y-76536000D01*
X48894000Y-75084000D01*
X50346000Y-75084000D01*
X50346000Y-76536000D01*
X50346000Y-76536000D01*
G37*
G36*
X49346000Y-73536000D02*
G01*
X47894000Y-73536000D01*
X47894000Y-72084000D01*
X49346000Y-72084000D01*
X49346000Y-73536000D01*
X49346000Y-73536000D01*
G37*
G36*
X29346000Y-73536000D02*
G01*
X27894000Y-73536000D01*
X27894000Y-72084000D01*
X29346000Y-72084000D01*
X29346000Y-73536000D01*
X29346000Y-73536000D01*
G37*
G36*
X76496000Y-73336000D02*
G01*
X75044000Y-73336000D01*
X75044000Y-71884000D01*
X76496000Y-71884000D01*
X76496000Y-73336000D01*
X76496000Y-73336000D01*
G37*
G36*
X68251213Y-67027502D02*
G01*
X68322321Y-67034505D01*
X68459172Y-67076019D01*
X68459175Y-67076020D01*
X68585294Y-67143432D01*
X68695843Y-67234157D01*
X68786568Y-67344706D01*
X68853980Y-67470825D01*
X68853981Y-67470828D01*
X68895495Y-67607679D01*
X68909512Y-67750000D01*
X68895495Y-67892321D01*
X68853981Y-68029172D01*
X68853980Y-68029175D01*
X68786568Y-68155294D01*
X68695843Y-68265843D01*
X68585294Y-68356568D01*
X68459175Y-68423980D01*
X68459172Y-68423981D01*
X68322321Y-68465495D01*
X68251213Y-68472498D01*
X68215660Y-68476000D01*
X68144340Y-68476000D01*
X68108787Y-68472498D01*
X68037679Y-68465495D01*
X67900828Y-68423981D01*
X67900825Y-68423980D01*
X67774706Y-68356568D01*
X67664157Y-68265843D01*
X67573432Y-68155294D01*
X67506020Y-68029175D01*
X67506019Y-68029172D01*
X67464505Y-67892321D01*
X67450488Y-67750000D01*
X67464505Y-67607679D01*
X67506019Y-67470828D01*
X67506020Y-67470825D01*
X67573432Y-67344706D01*
X67664157Y-67234157D01*
X67774706Y-67143432D01*
X67900825Y-67076020D01*
X67900828Y-67076019D01*
X68037679Y-67034505D01*
X68108787Y-67027502D01*
X68144340Y-67024000D01*
X68215660Y-67024000D01*
X68251213Y-67027502D01*
X68251213Y-67027502D01*
G37*
G36*
X68251213Y-65027502D02*
G01*
X68322321Y-65034505D01*
X68459172Y-65076019D01*
X68459175Y-65076020D01*
X68585294Y-65143432D01*
X68695843Y-65234157D01*
X68786568Y-65344706D01*
X68853980Y-65470825D01*
X68853981Y-65470828D01*
X68895495Y-65607679D01*
X68909512Y-65750000D01*
X68895495Y-65892321D01*
X68853981Y-66029172D01*
X68853980Y-66029175D01*
X68786568Y-66155294D01*
X68695843Y-66265843D01*
X68585294Y-66356568D01*
X68459175Y-66423980D01*
X68459172Y-66423981D01*
X68322321Y-66465495D01*
X68251213Y-66472498D01*
X68215660Y-66476000D01*
X68144340Y-66476000D01*
X68108787Y-66472498D01*
X68037679Y-66465495D01*
X67900828Y-66423981D01*
X67900825Y-66423980D01*
X67774706Y-66356568D01*
X67664157Y-66265843D01*
X67573432Y-66155294D01*
X67506020Y-66029175D01*
X67506019Y-66029172D01*
X67464505Y-65892321D01*
X67450488Y-65750000D01*
X67464505Y-65607679D01*
X67506019Y-65470828D01*
X67506020Y-65470825D01*
X67573432Y-65344706D01*
X67664157Y-65234157D01*
X67774706Y-65143432D01*
X67900825Y-65076020D01*
X67900828Y-65076019D01*
X68037679Y-65034505D01*
X68108787Y-65027502D01*
X68144340Y-65024000D01*
X68215660Y-65024000D01*
X68251213Y-65027502D01*
X68251213Y-65027502D01*
G37*
G36*
X68251213Y-63027502D02*
G01*
X68322321Y-63034505D01*
X68459172Y-63076019D01*
X68459175Y-63076020D01*
X68585294Y-63143432D01*
X68695843Y-63234157D01*
X68786568Y-63344706D01*
X68853980Y-63470825D01*
X68853981Y-63470828D01*
X68895495Y-63607679D01*
X68909512Y-63750000D01*
X68895495Y-63892321D01*
X68853981Y-64029172D01*
X68853980Y-64029175D01*
X68786568Y-64155294D01*
X68695843Y-64265843D01*
X68585294Y-64356568D01*
X68459175Y-64423980D01*
X68459172Y-64423981D01*
X68322321Y-64465495D01*
X68251213Y-64472498D01*
X68215660Y-64476000D01*
X68144340Y-64476000D01*
X68108787Y-64472498D01*
X68037679Y-64465495D01*
X67900828Y-64423981D01*
X67900825Y-64423980D01*
X67774706Y-64356568D01*
X67664157Y-64265843D01*
X67573432Y-64155294D01*
X67506020Y-64029175D01*
X67506019Y-64029172D01*
X67464505Y-63892321D01*
X67450488Y-63750000D01*
X67464505Y-63607679D01*
X67506019Y-63470828D01*
X67506020Y-63470825D01*
X67573432Y-63344706D01*
X67664157Y-63234157D01*
X67774706Y-63143432D01*
X67900825Y-63076020D01*
X67900828Y-63076019D01*
X68037679Y-63034505D01*
X68108787Y-63027502D01*
X68144340Y-63024000D01*
X68215660Y-63024000D01*
X68251213Y-63027502D01*
X68251213Y-63027502D01*
G37*
G36*
X68251213Y-61027502D02*
G01*
X68322321Y-61034505D01*
X68459172Y-61076019D01*
X68459175Y-61076020D01*
X68585294Y-61143432D01*
X68695843Y-61234157D01*
X68786568Y-61344706D01*
X68853980Y-61470825D01*
X68853981Y-61470828D01*
X68895495Y-61607679D01*
X68909512Y-61750000D01*
X68895495Y-61892321D01*
X68853981Y-62029172D01*
X68853980Y-62029175D01*
X68786568Y-62155294D01*
X68695843Y-62265843D01*
X68585294Y-62356568D01*
X68459175Y-62423980D01*
X68459172Y-62423981D01*
X68322321Y-62465495D01*
X68251213Y-62472498D01*
X68215660Y-62476000D01*
X68144340Y-62476000D01*
X68108787Y-62472498D01*
X68037679Y-62465495D01*
X67900828Y-62423981D01*
X67900825Y-62423980D01*
X67774706Y-62356568D01*
X67664157Y-62265843D01*
X67573432Y-62155294D01*
X67506020Y-62029175D01*
X67506019Y-62029172D01*
X67464505Y-61892321D01*
X67450488Y-61750000D01*
X67464505Y-61607679D01*
X67506019Y-61470828D01*
X67506020Y-61470825D01*
X67573432Y-61344706D01*
X67664157Y-61234157D01*
X67774706Y-61143432D01*
X67900825Y-61076020D01*
X67900828Y-61076019D01*
X68037679Y-61034505D01*
X68108787Y-61027502D01*
X68144340Y-61024000D01*
X68215660Y-61024000D01*
X68251213Y-61027502D01*
X68251213Y-61027502D01*
G37*
G36*
X120715600Y-60924000D02*
G01*
X119263600Y-60924000D01*
X119263600Y-59472000D01*
X120715600Y-59472000D01*
X120715600Y-60924000D01*
X120715600Y-60924000D01*
G37*
G36*
X95756000Y-60916000D02*
G01*
X94304000Y-60916000D01*
X94304000Y-59464000D01*
X95756000Y-59464000D01*
X95756000Y-60916000D01*
X95756000Y-60916000D01*
G37*
G36*
X68251213Y-59027502D02*
G01*
X68322321Y-59034505D01*
X68459172Y-59076019D01*
X68459175Y-59076020D01*
X68585294Y-59143432D01*
X68695843Y-59234157D01*
X68786568Y-59344706D01*
X68853980Y-59470825D01*
X68853981Y-59470828D01*
X68895495Y-59607679D01*
X68909512Y-59750000D01*
X68895495Y-59892321D01*
X68853981Y-60029172D01*
X68853980Y-60029175D01*
X68786568Y-60155294D01*
X68695843Y-60265843D01*
X68585294Y-60356568D01*
X68459175Y-60423980D01*
X68459172Y-60423981D01*
X68322321Y-60465495D01*
X68251213Y-60472498D01*
X68215660Y-60476000D01*
X68144340Y-60476000D01*
X68108787Y-60472498D01*
X68037679Y-60465495D01*
X67900828Y-60423981D01*
X67900825Y-60423980D01*
X67774706Y-60356568D01*
X67664157Y-60265843D01*
X67573432Y-60155294D01*
X67506020Y-60029175D01*
X67506019Y-60029172D01*
X67464505Y-59892321D01*
X67450488Y-59750000D01*
X67464505Y-59607679D01*
X67506019Y-59470828D01*
X67506020Y-59470825D01*
X67573432Y-59344706D01*
X67664157Y-59234157D01*
X67774706Y-59143432D01*
X67900825Y-59076020D01*
X67900828Y-59076019D01*
X68037679Y-59034505D01*
X68108787Y-59027502D01*
X68144340Y-59024000D01*
X68215660Y-59024000D01*
X68251213Y-59027502D01*
X68251213Y-59027502D01*
G37*
G36*
X68906000Y-58476000D02*
G01*
X67454000Y-58476000D01*
X67454000Y-57024000D01*
X68906000Y-57024000D01*
X68906000Y-58476000D01*
X68906000Y-58476000D01*
G37*
G36*
X57070442Y-56295518D02*
G01*
X57136627Y-56302037D01*
X57306466Y-56353557D01*
X57462991Y-56437222D01*
X57498729Y-56466552D01*
X57600186Y-56549814D01*
X57683448Y-56651271D01*
X57712778Y-56687009D01*
X57796443Y-56843534D01*
X57847963Y-57013373D01*
X57865359Y-57190000D01*
X57847963Y-57366627D01*
X57796443Y-57536466D01*
X57712778Y-57692991D01*
X57683448Y-57728729D01*
X57600186Y-57830186D01*
X57498729Y-57913448D01*
X57462991Y-57942778D01*
X57306466Y-58026443D01*
X57136627Y-58077963D01*
X57070442Y-58084482D01*
X57004260Y-58091000D01*
X56915740Y-58091000D01*
X56849558Y-58084482D01*
X56783373Y-58077963D01*
X56613534Y-58026443D01*
X56457009Y-57942778D01*
X56421271Y-57913448D01*
X56319814Y-57830186D01*
X56236552Y-57728729D01*
X56207222Y-57692991D01*
X56123557Y-57536466D01*
X56072037Y-57366627D01*
X56054641Y-57190000D01*
X56072037Y-57013373D01*
X56123557Y-56843534D01*
X56207222Y-56687009D01*
X56236552Y-56651271D01*
X56319814Y-56549814D01*
X56421271Y-56466552D01*
X56457009Y-56437222D01*
X56613534Y-56353557D01*
X56783373Y-56302037D01*
X56849558Y-56295518D01*
X56915740Y-56289000D01*
X57004260Y-56289000D01*
X57070442Y-56295518D01*
X57070442Y-56295518D01*
G37*
G36*
X41830442Y-56295518D02*
G01*
X41896627Y-56302037D01*
X42066466Y-56353557D01*
X42222991Y-56437222D01*
X42258729Y-56466552D01*
X42360186Y-56549814D01*
X42443448Y-56651271D01*
X42472778Y-56687009D01*
X42556443Y-56843534D01*
X42607963Y-57013373D01*
X42625359Y-57190000D01*
X42607963Y-57366627D01*
X42556443Y-57536466D01*
X42472778Y-57692991D01*
X42443448Y-57728729D01*
X42360186Y-57830186D01*
X42258729Y-57913448D01*
X42222991Y-57942778D01*
X42066466Y-58026443D01*
X41896627Y-58077963D01*
X41830442Y-58084482D01*
X41764260Y-58091000D01*
X41675740Y-58091000D01*
X41609558Y-58084482D01*
X41543373Y-58077963D01*
X41373534Y-58026443D01*
X41217009Y-57942778D01*
X41181271Y-57913448D01*
X41079814Y-57830186D01*
X40996552Y-57728729D01*
X40967222Y-57692991D01*
X40883557Y-57536466D01*
X40832037Y-57366627D01*
X40814641Y-57190000D01*
X40832037Y-57013373D01*
X40883557Y-56843534D01*
X40967222Y-56687009D01*
X40996552Y-56651271D01*
X41079814Y-56549814D01*
X41181271Y-56466552D01*
X41217009Y-56437222D01*
X41373534Y-56353557D01*
X41543373Y-56302037D01*
X41609558Y-56295518D01*
X41675740Y-56289000D01*
X41764260Y-56289000D01*
X41830442Y-56295518D01*
X41830442Y-56295518D01*
G37*
G36*
X41830442Y-53755518D02*
G01*
X41896627Y-53762037D01*
X42066466Y-53813557D01*
X42222991Y-53897222D01*
X42258729Y-53926552D01*
X42360186Y-54009814D01*
X42443448Y-54111271D01*
X42472778Y-54147009D01*
X42556443Y-54303534D01*
X42607963Y-54473373D01*
X42625359Y-54650000D01*
X42607963Y-54826627D01*
X42556443Y-54996466D01*
X42472778Y-55152991D01*
X42443448Y-55188729D01*
X42360186Y-55290186D01*
X42258729Y-55373448D01*
X42222991Y-55402778D01*
X42066466Y-55486443D01*
X41896627Y-55537963D01*
X41830443Y-55544481D01*
X41764260Y-55551000D01*
X41675740Y-55551000D01*
X41609557Y-55544481D01*
X41543373Y-55537963D01*
X41373534Y-55486443D01*
X41217009Y-55402778D01*
X41181271Y-55373448D01*
X41079814Y-55290186D01*
X40996552Y-55188729D01*
X40967222Y-55152991D01*
X40883557Y-54996466D01*
X40832037Y-54826627D01*
X40814641Y-54650000D01*
X40832037Y-54473373D01*
X40883557Y-54303534D01*
X40967222Y-54147009D01*
X40996552Y-54111271D01*
X41079814Y-54009814D01*
X41181271Y-53926552D01*
X41217009Y-53897222D01*
X41373534Y-53813557D01*
X41543373Y-53762037D01*
X41609558Y-53755518D01*
X41675740Y-53749000D01*
X41764260Y-53749000D01*
X41830442Y-53755518D01*
X41830442Y-53755518D01*
G37*
G36*
X57070442Y-53755518D02*
G01*
X57136627Y-53762037D01*
X57306466Y-53813557D01*
X57462991Y-53897222D01*
X57498729Y-53926552D01*
X57600186Y-54009814D01*
X57683448Y-54111271D01*
X57712778Y-54147009D01*
X57796443Y-54303534D01*
X57847963Y-54473373D01*
X57865359Y-54650000D01*
X57847963Y-54826627D01*
X57796443Y-54996466D01*
X57712778Y-55152991D01*
X57683448Y-55188729D01*
X57600186Y-55290186D01*
X57498729Y-55373448D01*
X57462991Y-55402778D01*
X57306466Y-55486443D01*
X57136627Y-55537963D01*
X57070443Y-55544481D01*
X57004260Y-55551000D01*
X56915740Y-55551000D01*
X56849557Y-55544481D01*
X56783373Y-55537963D01*
X56613534Y-55486443D01*
X56457009Y-55402778D01*
X56421271Y-55373448D01*
X56319814Y-55290186D01*
X56236552Y-55188729D01*
X56207222Y-55152991D01*
X56123557Y-54996466D01*
X56072037Y-54826627D01*
X56054641Y-54650000D01*
X56072037Y-54473373D01*
X56123557Y-54303534D01*
X56207222Y-54147009D01*
X56236552Y-54111271D01*
X56319814Y-54009814D01*
X56421271Y-53926552D01*
X56457009Y-53897222D01*
X56613534Y-53813557D01*
X56783373Y-53762037D01*
X56849558Y-53755518D01*
X56915740Y-53749000D01*
X57004260Y-53749000D01*
X57070442Y-53755518D01*
X57070442Y-53755518D01*
G37*
G36*
X42621000Y-53011000D02*
G01*
X40819000Y-53011000D01*
X40819000Y-51209000D01*
X42621000Y-51209000D01*
X42621000Y-53011000D01*
X42621000Y-53011000D01*
G37*
G36*
X57861000Y-53011000D02*
G01*
X56059000Y-53011000D01*
X56059000Y-51209000D01*
X57861000Y-51209000D01*
X57861000Y-53011000D01*
X57861000Y-53011000D01*
G37*
G36*
X103126000Y-50956000D02*
G01*
X101674000Y-50956000D01*
X101674000Y-49504000D01*
X103126000Y-49504000D01*
X103126000Y-50956000D01*
X103126000Y-50956000D01*
G37*
G36*
X106316000Y-50926000D02*
G01*
X104864000Y-50926000D01*
X104864000Y-49474000D01*
X106316000Y-49474000D01*
X106316000Y-50926000D01*
X106316000Y-50926000D01*
G37*
G36*
X46238039Y-42602250D02*
G01*
X46427372Y-42680675D01*
X46561251Y-42736129D01*
X46852134Y-42930491D01*
X47099509Y-43177866D01*
X47293871Y-43468749D01*
X47293871Y-43468750D01*
X47427750Y-43791961D01*
X47496000Y-44135078D01*
X47496000Y-44484922D01*
X47427750Y-44828039D01*
X47349325Y-45017372D01*
X47293871Y-45151251D01*
X47099509Y-45442134D01*
X46852134Y-45689509D01*
X46561251Y-45883871D01*
X46427372Y-45939325D01*
X46238039Y-46017750D01*
X45894922Y-46086000D01*
X45545078Y-46086000D01*
X45201961Y-46017750D01*
X45012628Y-45939325D01*
X44878749Y-45883871D01*
X44587866Y-45689509D01*
X44340491Y-45442134D01*
X44146129Y-45151251D01*
X44090675Y-45017372D01*
X44012250Y-44828039D01*
X43944000Y-44484922D01*
X43944000Y-44135078D01*
X44012250Y-43791961D01*
X44146129Y-43468750D01*
X44146129Y-43468749D01*
X44340491Y-43177866D01*
X44587866Y-42930491D01*
X44878749Y-42736129D01*
X45012628Y-42680675D01*
X45201961Y-42602250D01*
X45545078Y-42534000D01*
X45894922Y-42534000D01*
X46238039Y-42602250D01*
X46238039Y-42602250D01*
G37*
G36*
X28646000Y-30136000D02*
G01*
X27194000Y-30136000D01*
X27194000Y-28684000D01*
X28646000Y-28684000D01*
X28646000Y-30136000D01*
X28646000Y-30136000D01*
G37*
G36*
X101438039Y-26602250D02*
G01*
X101627372Y-26680675D01*
X101761251Y-26736129D01*
X102052134Y-26930491D01*
X102299509Y-27177866D01*
X102493871Y-27468749D01*
X102493871Y-27468750D01*
X102627750Y-27791961D01*
X102696000Y-28135078D01*
X102696000Y-28484922D01*
X102627750Y-28828039D01*
X102597859Y-28900201D01*
X102493871Y-29151251D01*
X102299509Y-29442134D01*
X102052134Y-29689509D01*
X101761251Y-29883871D01*
X101627372Y-29939325D01*
X101438039Y-30017750D01*
X101094922Y-30086000D01*
X100745078Y-30086000D01*
X100401961Y-30017750D01*
X100212628Y-29939325D01*
X100078749Y-29883871D01*
X99787866Y-29689509D01*
X99540491Y-29442134D01*
X99346129Y-29151251D01*
X99242141Y-28900201D01*
X99212250Y-28828039D01*
X99144000Y-28484922D01*
X99144000Y-28135078D01*
X99212250Y-27791961D01*
X99346129Y-27468750D01*
X99346129Y-27468749D01*
X99540491Y-27177866D01*
X99787866Y-26930491D01*
X100078749Y-26736129D01*
X100212628Y-26680675D01*
X100401961Y-26602250D01*
X100745078Y-26534000D01*
X101094922Y-26534000D01*
X101438039Y-26602250D01*
X101438039Y-26602250D01*
G37*
G36*
X120346000Y-30036000D02*
G01*
X118894000Y-30036000D01*
X118894000Y-28584000D01*
X120346000Y-28584000D01*
X120346000Y-30036000D01*
X120346000Y-30036000D01*
G37*
G36*
X37753444Y-27111882D02*
G01*
X37980201Y-27205808D01*
X37980202Y-27205809D01*
X38184279Y-27342168D01*
X38357832Y-27515721D01*
X38448944Y-27652081D01*
X38494192Y-27719799D01*
X38588118Y-27946556D01*
X38636000Y-28187278D01*
X38636000Y-28432722D01*
X38588118Y-28673444D01*
X38494192Y-28900201D01*
X38494191Y-28900202D01*
X38357832Y-29104279D01*
X38184279Y-29277832D01*
X38047919Y-29368944D01*
X37980201Y-29414192D01*
X37753444Y-29508118D01*
X37512722Y-29556000D01*
X37267278Y-29556000D01*
X37026556Y-29508118D01*
X36799799Y-29414192D01*
X36732081Y-29368944D01*
X36595721Y-29277832D01*
X36422168Y-29104279D01*
X36285809Y-28900202D01*
X36285808Y-28900201D01*
X36191882Y-28673444D01*
X36144000Y-28432722D01*
X36144000Y-28187278D01*
X36191882Y-27946556D01*
X36285808Y-27719799D01*
X36331056Y-27652081D01*
X36422168Y-27515721D01*
X36595721Y-27342168D01*
X36799798Y-27205809D01*
X36799799Y-27205808D01*
X37026556Y-27111882D01*
X37267278Y-27064000D01*
X37512722Y-27064000D01*
X37753444Y-27111882D01*
X37753444Y-27111882D01*
G37*
M02*
