G04 #@! TF.GenerationSoftware,KiCad,Pcbnew,(5.1.0)-1*
G04 #@! TF.CreationDate,2019-06-24T09:56:18-03:00*
G04 #@! TF.ProjectId,Main,4d61696e-2e6b-4696-9361-645f70636258,rev?*
G04 #@! TF.SameCoordinates,Original*
G04 #@! TF.FileFunction,Paste,Top*
G04 #@! TF.FilePolarity,Positive*
%FSLAX46Y46*%
G04 Gerber Fmt 4.6, Leading zero omitted, Abs format (unit mm)*
G04 Created by KiCad (PCBNEW (5.1.0)-1) date 2019-06-24 09:56:18*
%MOMM*%
%LPD*%
G04 APERTURE LIST*
%ADD10R,7.340000X6.350000*%
%ADD11C,0.100000*%
%ADD12C,1.250000*%
%ADD13R,3.300000X2.500000*%
%ADD14R,1.200000X1.550000*%
%ADD15R,1.600000X1.550000*%
%ADD16R,0.800000X0.700000*%
%ADD17R,1.450000X0.450000*%
%ADD18R,2.160000X1.120000*%
%ADD19R,1.120000X2.160000*%
%ADD20R,1.550000X0.600000*%
%ADD21R,0.500000X0.350000*%
%ADD22R,1.650000X2.400000*%
%ADD23R,2.000000X0.650000*%
G04 APERTURE END LIST*
D10*
X60970000Y-76900000D03*
X139630000Y-76900000D03*
D11*
G36*
X108649504Y-94576204D02*
G01*
X108673773Y-94579804D01*
X108697571Y-94585765D01*
X108720671Y-94594030D01*
X108742849Y-94604520D01*
X108763893Y-94617133D01*
X108783598Y-94631747D01*
X108801777Y-94648223D01*
X108818253Y-94666402D01*
X108832867Y-94686107D01*
X108845480Y-94707151D01*
X108855970Y-94729329D01*
X108864235Y-94752429D01*
X108870196Y-94776227D01*
X108873796Y-94800496D01*
X108875000Y-94825000D01*
X108875000Y-95575000D01*
X108873796Y-95599504D01*
X108870196Y-95623773D01*
X108864235Y-95647571D01*
X108855970Y-95670671D01*
X108845480Y-95692849D01*
X108832867Y-95713893D01*
X108818253Y-95733598D01*
X108801777Y-95751777D01*
X108783598Y-95768253D01*
X108763893Y-95782867D01*
X108742849Y-95795480D01*
X108720671Y-95805970D01*
X108697571Y-95814235D01*
X108673773Y-95820196D01*
X108649504Y-95823796D01*
X108625000Y-95825000D01*
X107375000Y-95825000D01*
X107350496Y-95823796D01*
X107326227Y-95820196D01*
X107302429Y-95814235D01*
X107279329Y-95805970D01*
X107257151Y-95795480D01*
X107236107Y-95782867D01*
X107216402Y-95768253D01*
X107198223Y-95751777D01*
X107181747Y-95733598D01*
X107167133Y-95713893D01*
X107154520Y-95692849D01*
X107144030Y-95670671D01*
X107135765Y-95647571D01*
X107129804Y-95623773D01*
X107126204Y-95599504D01*
X107125000Y-95575000D01*
X107125000Y-94825000D01*
X107126204Y-94800496D01*
X107129804Y-94776227D01*
X107135765Y-94752429D01*
X107144030Y-94729329D01*
X107154520Y-94707151D01*
X107167133Y-94686107D01*
X107181747Y-94666402D01*
X107198223Y-94648223D01*
X107216402Y-94631747D01*
X107236107Y-94617133D01*
X107257151Y-94604520D01*
X107279329Y-94594030D01*
X107302429Y-94585765D01*
X107326227Y-94579804D01*
X107350496Y-94576204D01*
X107375000Y-94575000D01*
X108625000Y-94575000D01*
X108649504Y-94576204D01*
X108649504Y-94576204D01*
G37*
D12*
X108000000Y-95200000D03*
D11*
G36*
X108649504Y-97376204D02*
G01*
X108673773Y-97379804D01*
X108697571Y-97385765D01*
X108720671Y-97394030D01*
X108742849Y-97404520D01*
X108763893Y-97417133D01*
X108783598Y-97431747D01*
X108801777Y-97448223D01*
X108818253Y-97466402D01*
X108832867Y-97486107D01*
X108845480Y-97507151D01*
X108855970Y-97529329D01*
X108864235Y-97552429D01*
X108870196Y-97576227D01*
X108873796Y-97600496D01*
X108875000Y-97625000D01*
X108875000Y-98375000D01*
X108873796Y-98399504D01*
X108870196Y-98423773D01*
X108864235Y-98447571D01*
X108855970Y-98470671D01*
X108845480Y-98492849D01*
X108832867Y-98513893D01*
X108818253Y-98533598D01*
X108801777Y-98551777D01*
X108783598Y-98568253D01*
X108763893Y-98582867D01*
X108742849Y-98595480D01*
X108720671Y-98605970D01*
X108697571Y-98614235D01*
X108673773Y-98620196D01*
X108649504Y-98623796D01*
X108625000Y-98625000D01*
X107375000Y-98625000D01*
X107350496Y-98623796D01*
X107326227Y-98620196D01*
X107302429Y-98614235D01*
X107279329Y-98605970D01*
X107257151Y-98595480D01*
X107236107Y-98582867D01*
X107216402Y-98568253D01*
X107198223Y-98551777D01*
X107181747Y-98533598D01*
X107167133Y-98513893D01*
X107154520Y-98492849D01*
X107144030Y-98470671D01*
X107135765Y-98447571D01*
X107129804Y-98423773D01*
X107126204Y-98399504D01*
X107125000Y-98375000D01*
X107125000Y-97625000D01*
X107126204Y-97600496D01*
X107129804Y-97576227D01*
X107135765Y-97552429D01*
X107144030Y-97529329D01*
X107154520Y-97507151D01*
X107167133Y-97486107D01*
X107181747Y-97466402D01*
X107198223Y-97448223D01*
X107216402Y-97431747D01*
X107236107Y-97417133D01*
X107257151Y-97404520D01*
X107279329Y-97394030D01*
X107302429Y-97385765D01*
X107326227Y-97379804D01*
X107350496Y-97376204D01*
X107375000Y-97375000D01*
X108625000Y-97375000D01*
X108649504Y-97376204D01*
X108649504Y-97376204D01*
G37*
D12*
X108000000Y-98000000D03*
D11*
G36*
X119899504Y-92226204D02*
G01*
X119923773Y-92229804D01*
X119947571Y-92235765D01*
X119970671Y-92244030D01*
X119992849Y-92254520D01*
X120013893Y-92267133D01*
X120033598Y-92281747D01*
X120051777Y-92298223D01*
X120068253Y-92316402D01*
X120082867Y-92336107D01*
X120095480Y-92357151D01*
X120105970Y-92379329D01*
X120114235Y-92402429D01*
X120120196Y-92426227D01*
X120123796Y-92450496D01*
X120125000Y-92475000D01*
X120125000Y-93725000D01*
X120123796Y-93749504D01*
X120120196Y-93773773D01*
X120114235Y-93797571D01*
X120105970Y-93820671D01*
X120095480Y-93842849D01*
X120082867Y-93863893D01*
X120068253Y-93883598D01*
X120051777Y-93901777D01*
X120033598Y-93918253D01*
X120013893Y-93932867D01*
X119992849Y-93945480D01*
X119970671Y-93955970D01*
X119947571Y-93964235D01*
X119923773Y-93970196D01*
X119899504Y-93973796D01*
X119875000Y-93975000D01*
X119125000Y-93975000D01*
X119100496Y-93973796D01*
X119076227Y-93970196D01*
X119052429Y-93964235D01*
X119029329Y-93955970D01*
X119007151Y-93945480D01*
X118986107Y-93932867D01*
X118966402Y-93918253D01*
X118948223Y-93901777D01*
X118931747Y-93883598D01*
X118917133Y-93863893D01*
X118904520Y-93842849D01*
X118894030Y-93820671D01*
X118885765Y-93797571D01*
X118879804Y-93773773D01*
X118876204Y-93749504D01*
X118875000Y-93725000D01*
X118875000Y-92475000D01*
X118876204Y-92450496D01*
X118879804Y-92426227D01*
X118885765Y-92402429D01*
X118894030Y-92379329D01*
X118904520Y-92357151D01*
X118917133Y-92336107D01*
X118931747Y-92316402D01*
X118948223Y-92298223D01*
X118966402Y-92281747D01*
X118986107Y-92267133D01*
X119007151Y-92254520D01*
X119029329Y-92244030D01*
X119052429Y-92235765D01*
X119076227Y-92229804D01*
X119100496Y-92226204D01*
X119125000Y-92225000D01*
X119875000Y-92225000D01*
X119899504Y-92226204D01*
X119899504Y-92226204D01*
G37*
D12*
X119500000Y-93100000D03*
D11*
G36*
X122699504Y-92226204D02*
G01*
X122723773Y-92229804D01*
X122747571Y-92235765D01*
X122770671Y-92244030D01*
X122792849Y-92254520D01*
X122813893Y-92267133D01*
X122833598Y-92281747D01*
X122851777Y-92298223D01*
X122868253Y-92316402D01*
X122882867Y-92336107D01*
X122895480Y-92357151D01*
X122905970Y-92379329D01*
X122914235Y-92402429D01*
X122920196Y-92426227D01*
X122923796Y-92450496D01*
X122925000Y-92475000D01*
X122925000Y-93725000D01*
X122923796Y-93749504D01*
X122920196Y-93773773D01*
X122914235Y-93797571D01*
X122905970Y-93820671D01*
X122895480Y-93842849D01*
X122882867Y-93863893D01*
X122868253Y-93883598D01*
X122851777Y-93901777D01*
X122833598Y-93918253D01*
X122813893Y-93932867D01*
X122792849Y-93945480D01*
X122770671Y-93955970D01*
X122747571Y-93964235D01*
X122723773Y-93970196D01*
X122699504Y-93973796D01*
X122675000Y-93975000D01*
X121925000Y-93975000D01*
X121900496Y-93973796D01*
X121876227Y-93970196D01*
X121852429Y-93964235D01*
X121829329Y-93955970D01*
X121807151Y-93945480D01*
X121786107Y-93932867D01*
X121766402Y-93918253D01*
X121748223Y-93901777D01*
X121731747Y-93883598D01*
X121717133Y-93863893D01*
X121704520Y-93842849D01*
X121694030Y-93820671D01*
X121685765Y-93797571D01*
X121679804Y-93773773D01*
X121676204Y-93749504D01*
X121675000Y-93725000D01*
X121675000Y-92475000D01*
X121676204Y-92450496D01*
X121679804Y-92426227D01*
X121685765Y-92402429D01*
X121694030Y-92379329D01*
X121704520Y-92357151D01*
X121717133Y-92336107D01*
X121731747Y-92316402D01*
X121748223Y-92298223D01*
X121766402Y-92281747D01*
X121786107Y-92267133D01*
X121807151Y-92254520D01*
X121829329Y-92244030D01*
X121852429Y-92235765D01*
X121876227Y-92229804D01*
X121900496Y-92226204D01*
X121925000Y-92225000D01*
X122675000Y-92225000D01*
X122699504Y-92226204D01*
X122699504Y-92226204D01*
G37*
D12*
X122300000Y-93100000D03*
D11*
G36*
X79449504Y-94076204D02*
G01*
X79473773Y-94079804D01*
X79497571Y-94085765D01*
X79520671Y-94094030D01*
X79542849Y-94104520D01*
X79563893Y-94117133D01*
X79583598Y-94131747D01*
X79601777Y-94148223D01*
X79618253Y-94166402D01*
X79632867Y-94186107D01*
X79645480Y-94207151D01*
X79655970Y-94229329D01*
X79664235Y-94252429D01*
X79670196Y-94276227D01*
X79673796Y-94300496D01*
X79675000Y-94325000D01*
X79675000Y-95075000D01*
X79673796Y-95099504D01*
X79670196Y-95123773D01*
X79664235Y-95147571D01*
X79655970Y-95170671D01*
X79645480Y-95192849D01*
X79632867Y-95213893D01*
X79618253Y-95233598D01*
X79601777Y-95251777D01*
X79583598Y-95268253D01*
X79563893Y-95282867D01*
X79542849Y-95295480D01*
X79520671Y-95305970D01*
X79497571Y-95314235D01*
X79473773Y-95320196D01*
X79449504Y-95323796D01*
X79425000Y-95325000D01*
X78175000Y-95325000D01*
X78150496Y-95323796D01*
X78126227Y-95320196D01*
X78102429Y-95314235D01*
X78079329Y-95305970D01*
X78057151Y-95295480D01*
X78036107Y-95282867D01*
X78016402Y-95268253D01*
X77998223Y-95251777D01*
X77981747Y-95233598D01*
X77967133Y-95213893D01*
X77954520Y-95192849D01*
X77944030Y-95170671D01*
X77935765Y-95147571D01*
X77929804Y-95123773D01*
X77926204Y-95099504D01*
X77925000Y-95075000D01*
X77925000Y-94325000D01*
X77926204Y-94300496D01*
X77929804Y-94276227D01*
X77935765Y-94252429D01*
X77944030Y-94229329D01*
X77954520Y-94207151D01*
X77967133Y-94186107D01*
X77981747Y-94166402D01*
X77998223Y-94148223D01*
X78016402Y-94131747D01*
X78036107Y-94117133D01*
X78057151Y-94104520D01*
X78079329Y-94094030D01*
X78102429Y-94085765D01*
X78126227Y-94079804D01*
X78150496Y-94076204D01*
X78175000Y-94075000D01*
X79425000Y-94075000D01*
X79449504Y-94076204D01*
X79449504Y-94076204D01*
G37*
D12*
X78800000Y-94700000D03*
D11*
G36*
X79449504Y-96876204D02*
G01*
X79473773Y-96879804D01*
X79497571Y-96885765D01*
X79520671Y-96894030D01*
X79542849Y-96904520D01*
X79563893Y-96917133D01*
X79583598Y-96931747D01*
X79601777Y-96948223D01*
X79618253Y-96966402D01*
X79632867Y-96986107D01*
X79645480Y-97007151D01*
X79655970Y-97029329D01*
X79664235Y-97052429D01*
X79670196Y-97076227D01*
X79673796Y-97100496D01*
X79675000Y-97125000D01*
X79675000Y-97875000D01*
X79673796Y-97899504D01*
X79670196Y-97923773D01*
X79664235Y-97947571D01*
X79655970Y-97970671D01*
X79645480Y-97992849D01*
X79632867Y-98013893D01*
X79618253Y-98033598D01*
X79601777Y-98051777D01*
X79583598Y-98068253D01*
X79563893Y-98082867D01*
X79542849Y-98095480D01*
X79520671Y-98105970D01*
X79497571Y-98114235D01*
X79473773Y-98120196D01*
X79449504Y-98123796D01*
X79425000Y-98125000D01*
X78175000Y-98125000D01*
X78150496Y-98123796D01*
X78126227Y-98120196D01*
X78102429Y-98114235D01*
X78079329Y-98105970D01*
X78057151Y-98095480D01*
X78036107Y-98082867D01*
X78016402Y-98068253D01*
X77998223Y-98051777D01*
X77981747Y-98033598D01*
X77967133Y-98013893D01*
X77954520Y-97992849D01*
X77944030Y-97970671D01*
X77935765Y-97947571D01*
X77929804Y-97923773D01*
X77926204Y-97899504D01*
X77925000Y-97875000D01*
X77925000Y-97125000D01*
X77926204Y-97100496D01*
X77929804Y-97076227D01*
X77935765Y-97052429D01*
X77944030Y-97029329D01*
X77954520Y-97007151D01*
X77967133Y-96986107D01*
X77981747Y-96966402D01*
X77998223Y-96948223D01*
X78016402Y-96931747D01*
X78036107Y-96917133D01*
X78057151Y-96904520D01*
X78079329Y-96894030D01*
X78102429Y-96885765D01*
X78126227Y-96879804D01*
X78150496Y-96876204D01*
X78175000Y-96875000D01*
X79425000Y-96875000D01*
X79449504Y-96876204D01*
X79449504Y-96876204D01*
G37*
D12*
X78800000Y-97500000D03*
D11*
G36*
X116754505Y-92399205D02*
G01*
X116778774Y-92402805D01*
X116802572Y-92408766D01*
X116825672Y-92417031D01*
X116847850Y-92427521D01*
X116868894Y-92440134D01*
X116888599Y-92454748D01*
X116906778Y-92471224D01*
X116923254Y-92489403D01*
X116937868Y-92509108D01*
X116950481Y-92530152D01*
X116960971Y-92552330D01*
X116969236Y-92575430D01*
X116975197Y-92599228D01*
X116978797Y-92623497D01*
X116980001Y-92648001D01*
X116980001Y-93398001D01*
X116978797Y-93422505D01*
X116975197Y-93446774D01*
X116969236Y-93470572D01*
X116960971Y-93493672D01*
X116950481Y-93515850D01*
X116937868Y-93536894D01*
X116923254Y-93556599D01*
X116906778Y-93574778D01*
X116888599Y-93591254D01*
X116868894Y-93605868D01*
X116847850Y-93618481D01*
X116825672Y-93628971D01*
X116802572Y-93637236D01*
X116778774Y-93643197D01*
X116754505Y-93646797D01*
X116730001Y-93648001D01*
X115480001Y-93648001D01*
X115455497Y-93646797D01*
X115431228Y-93643197D01*
X115407430Y-93637236D01*
X115384330Y-93628971D01*
X115362152Y-93618481D01*
X115341108Y-93605868D01*
X115321403Y-93591254D01*
X115303224Y-93574778D01*
X115286748Y-93556599D01*
X115272134Y-93536894D01*
X115259521Y-93515850D01*
X115249031Y-93493672D01*
X115240766Y-93470572D01*
X115234805Y-93446774D01*
X115231205Y-93422505D01*
X115230001Y-93398001D01*
X115230001Y-92648001D01*
X115231205Y-92623497D01*
X115234805Y-92599228D01*
X115240766Y-92575430D01*
X115249031Y-92552330D01*
X115259521Y-92530152D01*
X115272134Y-92509108D01*
X115286748Y-92489403D01*
X115303224Y-92471224D01*
X115321403Y-92454748D01*
X115341108Y-92440134D01*
X115362152Y-92427521D01*
X115384330Y-92417031D01*
X115407430Y-92408766D01*
X115431228Y-92402805D01*
X115455497Y-92399205D01*
X115480001Y-92398001D01*
X116730001Y-92398001D01*
X116754505Y-92399205D01*
X116754505Y-92399205D01*
G37*
D12*
X116105001Y-93023001D03*
D11*
G36*
X116754505Y-89599205D02*
G01*
X116778774Y-89602805D01*
X116802572Y-89608766D01*
X116825672Y-89617031D01*
X116847850Y-89627521D01*
X116868894Y-89640134D01*
X116888599Y-89654748D01*
X116906778Y-89671224D01*
X116923254Y-89689403D01*
X116937868Y-89709108D01*
X116950481Y-89730152D01*
X116960971Y-89752330D01*
X116969236Y-89775430D01*
X116975197Y-89799228D01*
X116978797Y-89823497D01*
X116980001Y-89848001D01*
X116980001Y-90598001D01*
X116978797Y-90622505D01*
X116975197Y-90646774D01*
X116969236Y-90670572D01*
X116960971Y-90693672D01*
X116950481Y-90715850D01*
X116937868Y-90736894D01*
X116923254Y-90756599D01*
X116906778Y-90774778D01*
X116888599Y-90791254D01*
X116868894Y-90805868D01*
X116847850Y-90818481D01*
X116825672Y-90828971D01*
X116802572Y-90837236D01*
X116778774Y-90843197D01*
X116754505Y-90846797D01*
X116730001Y-90848001D01*
X115480001Y-90848001D01*
X115455497Y-90846797D01*
X115431228Y-90843197D01*
X115407430Y-90837236D01*
X115384330Y-90828971D01*
X115362152Y-90818481D01*
X115341108Y-90805868D01*
X115321403Y-90791254D01*
X115303224Y-90774778D01*
X115286748Y-90756599D01*
X115272134Y-90736894D01*
X115259521Y-90715850D01*
X115249031Y-90693672D01*
X115240766Y-90670572D01*
X115234805Y-90646774D01*
X115231205Y-90622505D01*
X115230001Y-90598001D01*
X115230001Y-89848001D01*
X115231205Y-89823497D01*
X115234805Y-89799228D01*
X115240766Y-89775430D01*
X115249031Y-89752330D01*
X115259521Y-89730152D01*
X115272134Y-89709108D01*
X115286748Y-89689403D01*
X115303224Y-89671224D01*
X115321403Y-89654748D01*
X115341108Y-89640134D01*
X115362152Y-89627521D01*
X115384330Y-89617031D01*
X115407430Y-89608766D01*
X115431228Y-89602805D01*
X115455497Y-89599205D01*
X115480001Y-89598001D01*
X116730001Y-89598001D01*
X116754505Y-89599205D01*
X116754505Y-89599205D01*
G37*
D12*
X116105001Y-90223001D03*
D11*
G36*
X112649504Y-89599205D02*
G01*
X112673773Y-89602805D01*
X112697571Y-89608766D01*
X112720671Y-89617031D01*
X112742849Y-89627521D01*
X112763893Y-89640134D01*
X112783598Y-89654748D01*
X112801777Y-89671224D01*
X112818253Y-89689403D01*
X112832867Y-89709108D01*
X112845480Y-89730152D01*
X112855970Y-89752330D01*
X112864235Y-89775430D01*
X112870196Y-89799228D01*
X112873796Y-89823497D01*
X112875000Y-89848001D01*
X112875000Y-90598001D01*
X112873796Y-90622505D01*
X112870196Y-90646774D01*
X112864235Y-90670572D01*
X112855970Y-90693672D01*
X112845480Y-90715850D01*
X112832867Y-90736894D01*
X112818253Y-90756599D01*
X112801777Y-90774778D01*
X112783598Y-90791254D01*
X112763893Y-90805868D01*
X112742849Y-90818481D01*
X112720671Y-90828971D01*
X112697571Y-90837236D01*
X112673773Y-90843197D01*
X112649504Y-90846797D01*
X112625000Y-90848001D01*
X111375000Y-90848001D01*
X111350496Y-90846797D01*
X111326227Y-90843197D01*
X111302429Y-90837236D01*
X111279329Y-90828971D01*
X111257151Y-90818481D01*
X111236107Y-90805868D01*
X111216402Y-90791254D01*
X111198223Y-90774778D01*
X111181747Y-90756599D01*
X111167133Y-90736894D01*
X111154520Y-90715850D01*
X111144030Y-90693672D01*
X111135765Y-90670572D01*
X111129804Y-90646774D01*
X111126204Y-90622505D01*
X111125000Y-90598001D01*
X111125000Y-89848001D01*
X111126204Y-89823497D01*
X111129804Y-89799228D01*
X111135765Y-89775430D01*
X111144030Y-89752330D01*
X111154520Y-89730152D01*
X111167133Y-89709108D01*
X111181747Y-89689403D01*
X111198223Y-89671224D01*
X111216402Y-89654748D01*
X111236107Y-89640134D01*
X111257151Y-89627521D01*
X111279329Y-89617031D01*
X111302429Y-89608766D01*
X111326227Y-89602805D01*
X111350496Y-89599205D01*
X111375000Y-89598001D01*
X112625000Y-89598001D01*
X112649504Y-89599205D01*
X112649504Y-89599205D01*
G37*
D12*
X112000000Y-90223001D03*
D11*
G36*
X112649504Y-92399205D02*
G01*
X112673773Y-92402805D01*
X112697571Y-92408766D01*
X112720671Y-92417031D01*
X112742849Y-92427521D01*
X112763893Y-92440134D01*
X112783598Y-92454748D01*
X112801777Y-92471224D01*
X112818253Y-92489403D01*
X112832867Y-92509108D01*
X112845480Y-92530152D01*
X112855970Y-92552330D01*
X112864235Y-92575430D01*
X112870196Y-92599228D01*
X112873796Y-92623497D01*
X112875000Y-92648001D01*
X112875000Y-93398001D01*
X112873796Y-93422505D01*
X112870196Y-93446774D01*
X112864235Y-93470572D01*
X112855970Y-93493672D01*
X112845480Y-93515850D01*
X112832867Y-93536894D01*
X112818253Y-93556599D01*
X112801777Y-93574778D01*
X112783598Y-93591254D01*
X112763893Y-93605868D01*
X112742849Y-93618481D01*
X112720671Y-93628971D01*
X112697571Y-93637236D01*
X112673773Y-93643197D01*
X112649504Y-93646797D01*
X112625000Y-93648001D01*
X111375000Y-93648001D01*
X111350496Y-93646797D01*
X111326227Y-93643197D01*
X111302429Y-93637236D01*
X111279329Y-93628971D01*
X111257151Y-93618481D01*
X111236107Y-93605868D01*
X111216402Y-93591254D01*
X111198223Y-93574778D01*
X111181747Y-93556599D01*
X111167133Y-93536894D01*
X111154520Y-93515850D01*
X111144030Y-93493672D01*
X111135765Y-93470572D01*
X111129804Y-93446774D01*
X111126204Y-93422505D01*
X111125000Y-93398001D01*
X111125000Y-92648001D01*
X111126204Y-92623497D01*
X111129804Y-92599228D01*
X111135765Y-92575430D01*
X111144030Y-92552330D01*
X111154520Y-92530152D01*
X111167133Y-92509108D01*
X111181747Y-92489403D01*
X111198223Y-92471224D01*
X111216402Y-92454748D01*
X111236107Y-92440134D01*
X111257151Y-92427521D01*
X111279329Y-92417031D01*
X111302429Y-92408766D01*
X111326227Y-92402805D01*
X111350496Y-92399205D01*
X111375000Y-92398001D01*
X112625000Y-92398001D01*
X112649504Y-92399205D01*
X112649504Y-92399205D01*
G37*
D12*
X112000000Y-93023001D03*
D11*
G36*
X92536503Y-125261205D02*
G01*
X92560772Y-125264805D01*
X92584570Y-125270766D01*
X92607670Y-125279031D01*
X92629848Y-125289521D01*
X92650892Y-125302134D01*
X92670597Y-125316748D01*
X92688776Y-125333224D01*
X92705252Y-125351403D01*
X92719866Y-125371108D01*
X92732479Y-125392152D01*
X92742969Y-125414330D01*
X92751234Y-125437430D01*
X92757195Y-125461228D01*
X92760795Y-125485497D01*
X92761999Y-125510001D01*
X92761999Y-126260001D01*
X92760795Y-126284505D01*
X92757195Y-126308774D01*
X92751234Y-126332572D01*
X92742969Y-126355672D01*
X92732479Y-126377850D01*
X92719866Y-126398894D01*
X92705252Y-126418599D01*
X92688776Y-126436778D01*
X92670597Y-126453254D01*
X92650892Y-126467868D01*
X92629848Y-126480481D01*
X92607670Y-126490971D01*
X92584570Y-126499236D01*
X92560772Y-126505197D01*
X92536503Y-126508797D01*
X92511999Y-126510001D01*
X91261999Y-126510001D01*
X91237495Y-126508797D01*
X91213226Y-126505197D01*
X91189428Y-126499236D01*
X91166328Y-126490971D01*
X91144150Y-126480481D01*
X91123106Y-126467868D01*
X91103401Y-126453254D01*
X91085222Y-126436778D01*
X91068746Y-126418599D01*
X91054132Y-126398894D01*
X91041519Y-126377850D01*
X91031029Y-126355672D01*
X91022764Y-126332572D01*
X91016803Y-126308774D01*
X91013203Y-126284505D01*
X91011999Y-126260001D01*
X91011999Y-125510001D01*
X91013203Y-125485497D01*
X91016803Y-125461228D01*
X91022764Y-125437430D01*
X91031029Y-125414330D01*
X91041519Y-125392152D01*
X91054132Y-125371108D01*
X91068746Y-125351403D01*
X91085222Y-125333224D01*
X91103401Y-125316748D01*
X91123106Y-125302134D01*
X91144150Y-125289521D01*
X91166328Y-125279031D01*
X91189428Y-125270766D01*
X91213226Y-125264805D01*
X91237495Y-125261205D01*
X91261999Y-125260001D01*
X92511999Y-125260001D01*
X92536503Y-125261205D01*
X92536503Y-125261205D01*
G37*
D12*
X91886999Y-125885001D03*
D11*
G36*
X92536503Y-128061205D02*
G01*
X92560772Y-128064805D01*
X92584570Y-128070766D01*
X92607670Y-128079031D01*
X92629848Y-128089521D01*
X92650892Y-128102134D01*
X92670597Y-128116748D01*
X92688776Y-128133224D01*
X92705252Y-128151403D01*
X92719866Y-128171108D01*
X92732479Y-128192152D01*
X92742969Y-128214330D01*
X92751234Y-128237430D01*
X92757195Y-128261228D01*
X92760795Y-128285497D01*
X92761999Y-128310001D01*
X92761999Y-129060001D01*
X92760795Y-129084505D01*
X92757195Y-129108774D01*
X92751234Y-129132572D01*
X92742969Y-129155672D01*
X92732479Y-129177850D01*
X92719866Y-129198894D01*
X92705252Y-129218599D01*
X92688776Y-129236778D01*
X92670597Y-129253254D01*
X92650892Y-129267868D01*
X92629848Y-129280481D01*
X92607670Y-129290971D01*
X92584570Y-129299236D01*
X92560772Y-129305197D01*
X92536503Y-129308797D01*
X92511999Y-129310001D01*
X91261999Y-129310001D01*
X91237495Y-129308797D01*
X91213226Y-129305197D01*
X91189428Y-129299236D01*
X91166328Y-129290971D01*
X91144150Y-129280481D01*
X91123106Y-129267868D01*
X91103401Y-129253254D01*
X91085222Y-129236778D01*
X91068746Y-129218599D01*
X91054132Y-129198894D01*
X91041519Y-129177850D01*
X91031029Y-129155672D01*
X91022764Y-129132572D01*
X91016803Y-129108774D01*
X91013203Y-129084505D01*
X91011999Y-129060001D01*
X91011999Y-128310001D01*
X91013203Y-128285497D01*
X91016803Y-128261228D01*
X91022764Y-128237430D01*
X91031029Y-128214330D01*
X91041519Y-128192152D01*
X91054132Y-128171108D01*
X91068746Y-128151403D01*
X91085222Y-128133224D01*
X91103401Y-128116748D01*
X91123106Y-128102134D01*
X91144150Y-128089521D01*
X91166328Y-128079031D01*
X91189428Y-128070766D01*
X91213226Y-128064805D01*
X91237495Y-128061205D01*
X91261999Y-128060001D01*
X92511999Y-128060001D01*
X92536503Y-128061205D01*
X92536503Y-128061205D01*
G37*
D12*
X91886999Y-128685001D03*
D11*
G36*
X100249504Y-128176204D02*
G01*
X100273773Y-128179804D01*
X100297571Y-128185765D01*
X100320671Y-128194030D01*
X100342849Y-128204520D01*
X100363893Y-128217133D01*
X100383598Y-128231747D01*
X100401777Y-128248223D01*
X100418253Y-128266402D01*
X100432867Y-128286107D01*
X100445480Y-128307151D01*
X100455970Y-128329329D01*
X100464235Y-128352429D01*
X100470196Y-128376227D01*
X100473796Y-128400496D01*
X100475000Y-128425000D01*
X100475000Y-129175000D01*
X100473796Y-129199504D01*
X100470196Y-129223773D01*
X100464235Y-129247571D01*
X100455970Y-129270671D01*
X100445480Y-129292849D01*
X100432867Y-129313893D01*
X100418253Y-129333598D01*
X100401777Y-129351777D01*
X100383598Y-129368253D01*
X100363893Y-129382867D01*
X100342849Y-129395480D01*
X100320671Y-129405970D01*
X100297571Y-129414235D01*
X100273773Y-129420196D01*
X100249504Y-129423796D01*
X100225000Y-129425000D01*
X98975000Y-129425000D01*
X98950496Y-129423796D01*
X98926227Y-129420196D01*
X98902429Y-129414235D01*
X98879329Y-129405970D01*
X98857151Y-129395480D01*
X98836107Y-129382867D01*
X98816402Y-129368253D01*
X98798223Y-129351777D01*
X98781747Y-129333598D01*
X98767133Y-129313893D01*
X98754520Y-129292849D01*
X98744030Y-129270671D01*
X98735765Y-129247571D01*
X98729804Y-129223773D01*
X98726204Y-129199504D01*
X98725000Y-129175000D01*
X98725000Y-128425000D01*
X98726204Y-128400496D01*
X98729804Y-128376227D01*
X98735765Y-128352429D01*
X98744030Y-128329329D01*
X98754520Y-128307151D01*
X98767133Y-128286107D01*
X98781747Y-128266402D01*
X98798223Y-128248223D01*
X98816402Y-128231747D01*
X98836107Y-128217133D01*
X98857151Y-128204520D01*
X98879329Y-128194030D01*
X98902429Y-128185765D01*
X98926227Y-128179804D01*
X98950496Y-128176204D01*
X98975000Y-128175000D01*
X100225000Y-128175000D01*
X100249504Y-128176204D01*
X100249504Y-128176204D01*
G37*
D12*
X99600000Y-128800000D03*
D11*
G36*
X100249504Y-125376204D02*
G01*
X100273773Y-125379804D01*
X100297571Y-125385765D01*
X100320671Y-125394030D01*
X100342849Y-125404520D01*
X100363893Y-125417133D01*
X100383598Y-125431747D01*
X100401777Y-125448223D01*
X100418253Y-125466402D01*
X100432867Y-125486107D01*
X100445480Y-125507151D01*
X100455970Y-125529329D01*
X100464235Y-125552429D01*
X100470196Y-125576227D01*
X100473796Y-125600496D01*
X100475000Y-125625000D01*
X100475000Y-126375000D01*
X100473796Y-126399504D01*
X100470196Y-126423773D01*
X100464235Y-126447571D01*
X100455970Y-126470671D01*
X100445480Y-126492849D01*
X100432867Y-126513893D01*
X100418253Y-126533598D01*
X100401777Y-126551777D01*
X100383598Y-126568253D01*
X100363893Y-126582867D01*
X100342849Y-126595480D01*
X100320671Y-126605970D01*
X100297571Y-126614235D01*
X100273773Y-126620196D01*
X100249504Y-126623796D01*
X100225000Y-126625000D01*
X98975000Y-126625000D01*
X98950496Y-126623796D01*
X98926227Y-126620196D01*
X98902429Y-126614235D01*
X98879329Y-126605970D01*
X98857151Y-126595480D01*
X98836107Y-126582867D01*
X98816402Y-126568253D01*
X98798223Y-126551777D01*
X98781747Y-126533598D01*
X98767133Y-126513893D01*
X98754520Y-126492849D01*
X98744030Y-126470671D01*
X98735765Y-126447571D01*
X98729804Y-126423773D01*
X98726204Y-126399504D01*
X98725000Y-126375000D01*
X98725000Y-125625000D01*
X98726204Y-125600496D01*
X98729804Y-125576227D01*
X98735765Y-125552429D01*
X98744030Y-125529329D01*
X98754520Y-125507151D01*
X98767133Y-125486107D01*
X98781747Y-125466402D01*
X98798223Y-125448223D01*
X98816402Y-125431747D01*
X98836107Y-125417133D01*
X98857151Y-125404520D01*
X98879329Y-125394030D01*
X98902429Y-125385765D01*
X98926227Y-125379804D01*
X98950496Y-125376204D01*
X98975000Y-125375000D01*
X100225000Y-125375000D01*
X100249504Y-125376204D01*
X100249504Y-125376204D01*
G37*
D12*
X99600000Y-126000000D03*
D11*
G36*
X129799504Y-98126204D02*
G01*
X129823773Y-98129804D01*
X129847571Y-98135765D01*
X129870671Y-98144030D01*
X129892849Y-98154520D01*
X129913893Y-98167133D01*
X129933598Y-98181747D01*
X129951777Y-98198223D01*
X129968253Y-98216402D01*
X129982867Y-98236107D01*
X129995480Y-98257151D01*
X130005970Y-98279329D01*
X130014235Y-98302429D01*
X130020196Y-98326227D01*
X130023796Y-98350496D01*
X130025000Y-98375000D01*
X130025000Y-99625000D01*
X130023796Y-99649504D01*
X130020196Y-99673773D01*
X130014235Y-99697571D01*
X130005970Y-99720671D01*
X129995480Y-99742849D01*
X129982867Y-99763893D01*
X129968253Y-99783598D01*
X129951777Y-99801777D01*
X129933598Y-99818253D01*
X129913893Y-99832867D01*
X129892849Y-99845480D01*
X129870671Y-99855970D01*
X129847571Y-99864235D01*
X129823773Y-99870196D01*
X129799504Y-99873796D01*
X129775000Y-99875000D01*
X129025000Y-99875000D01*
X129000496Y-99873796D01*
X128976227Y-99870196D01*
X128952429Y-99864235D01*
X128929329Y-99855970D01*
X128907151Y-99845480D01*
X128886107Y-99832867D01*
X128866402Y-99818253D01*
X128848223Y-99801777D01*
X128831747Y-99783598D01*
X128817133Y-99763893D01*
X128804520Y-99742849D01*
X128794030Y-99720671D01*
X128785765Y-99697571D01*
X128779804Y-99673773D01*
X128776204Y-99649504D01*
X128775000Y-99625000D01*
X128775000Y-98375000D01*
X128776204Y-98350496D01*
X128779804Y-98326227D01*
X128785765Y-98302429D01*
X128794030Y-98279329D01*
X128804520Y-98257151D01*
X128817133Y-98236107D01*
X128831747Y-98216402D01*
X128848223Y-98198223D01*
X128866402Y-98181747D01*
X128886107Y-98167133D01*
X128907151Y-98154520D01*
X128929329Y-98144030D01*
X128952429Y-98135765D01*
X128976227Y-98129804D01*
X129000496Y-98126204D01*
X129025000Y-98125000D01*
X129775000Y-98125000D01*
X129799504Y-98126204D01*
X129799504Y-98126204D01*
G37*
D12*
X129400000Y-99000000D03*
D11*
G36*
X126999504Y-98126204D02*
G01*
X127023773Y-98129804D01*
X127047571Y-98135765D01*
X127070671Y-98144030D01*
X127092849Y-98154520D01*
X127113893Y-98167133D01*
X127133598Y-98181747D01*
X127151777Y-98198223D01*
X127168253Y-98216402D01*
X127182867Y-98236107D01*
X127195480Y-98257151D01*
X127205970Y-98279329D01*
X127214235Y-98302429D01*
X127220196Y-98326227D01*
X127223796Y-98350496D01*
X127225000Y-98375000D01*
X127225000Y-99625000D01*
X127223796Y-99649504D01*
X127220196Y-99673773D01*
X127214235Y-99697571D01*
X127205970Y-99720671D01*
X127195480Y-99742849D01*
X127182867Y-99763893D01*
X127168253Y-99783598D01*
X127151777Y-99801777D01*
X127133598Y-99818253D01*
X127113893Y-99832867D01*
X127092849Y-99845480D01*
X127070671Y-99855970D01*
X127047571Y-99864235D01*
X127023773Y-99870196D01*
X126999504Y-99873796D01*
X126975000Y-99875000D01*
X126225000Y-99875000D01*
X126200496Y-99873796D01*
X126176227Y-99870196D01*
X126152429Y-99864235D01*
X126129329Y-99855970D01*
X126107151Y-99845480D01*
X126086107Y-99832867D01*
X126066402Y-99818253D01*
X126048223Y-99801777D01*
X126031747Y-99783598D01*
X126017133Y-99763893D01*
X126004520Y-99742849D01*
X125994030Y-99720671D01*
X125985765Y-99697571D01*
X125979804Y-99673773D01*
X125976204Y-99649504D01*
X125975000Y-99625000D01*
X125975000Y-98375000D01*
X125976204Y-98350496D01*
X125979804Y-98326227D01*
X125985765Y-98302429D01*
X125994030Y-98279329D01*
X126004520Y-98257151D01*
X126017133Y-98236107D01*
X126031747Y-98216402D01*
X126048223Y-98198223D01*
X126066402Y-98181747D01*
X126086107Y-98167133D01*
X126107151Y-98154520D01*
X126129329Y-98144030D01*
X126152429Y-98135765D01*
X126176227Y-98129804D01*
X126200496Y-98126204D01*
X126225000Y-98125000D01*
X126975000Y-98125000D01*
X126999504Y-98126204D01*
X126999504Y-98126204D01*
G37*
D12*
X126600000Y-99000000D03*
D13*
X129000000Y-102600000D03*
X129000000Y-109400000D03*
D11*
G36*
X104249504Y-128176204D02*
G01*
X104273773Y-128179804D01*
X104297571Y-128185765D01*
X104320671Y-128194030D01*
X104342849Y-128204520D01*
X104363893Y-128217133D01*
X104383598Y-128231747D01*
X104401777Y-128248223D01*
X104418253Y-128266402D01*
X104432867Y-128286107D01*
X104445480Y-128307151D01*
X104455970Y-128329329D01*
X104464235Y-128352429D01*
X104470196Y-128376227D01*
X104473796Y-128400496D01*
X104475000Y-128425000D01*
X104475000Y-129175000D01*
X104473796Y-129199504D01*
X104470196Y-129223773D01*
X104464235Y-129247571D01*
X104455970Y-129270671D01*
X104445480Y-129292849D01*
X104432867Y-129313893D01*
X104418253Y-129333598D01*
X104401777Y-129351777D01*
X104383598Y-129368253D01*
X104363893Y-129382867D01*
X104342849Y-129395480D01*
X104320671Y-129405970D01*
X104297571Y-129414235D01*
X104273773Y-129420196D01*
X104249504Y-129423796D01*
X104225000Y-129425000D01*
X102975000Y-129425000D01*
X102950496Y-129423796D01*
X102926227Y-129420196D01*
X102902429Y-129414235D01*
X102879329Y-129405970D01*
X102857151Y-129395480D01*
X102836107Y-129382867D01*
X102816402Y-129368253D01*
X102798223Y-129351777D01*
X102781747Y-129333598D01*
X102767133Y-129313893D01*
X102754520Y-129292849D01*
X102744030Y-129270671D01*
X102735765Y-129247571D01*
X102729804Y-129223773D01*
X102726204Y-129199504D01*
X102725000Y-129175000D01*
X102725000Y-128425000D01*
X102726204Y-128400496D01*
X102729804Y-128376227D01*
X102735765Y-128352429D01*
X102744030Y-128329329D01*
X102754520Y-128307151D01*
X102767133Y-128286107D01*
X102781747Y-128266402D01*
X102798223Y-128248223D01*
X102816402Y-128231747D01*
X102836107Y-128217133D01*
X102857151Y-128204520D01*
X102879329Y-128194030D01*
X102902429Y-128185765D01*
X102926227Y-128179804D01*
X102950496Y-128176204D01*
X102975000Y-128175000D01*
X104225000Y-128175000D01*
X104249504Y-128176204D01*
X104249504Y-128176204D01*
G37*
D12*
X103600000Y-128800000D03*
D11*
G36*
X104249504Y-125376204D02*
G01*
X104273773Y-125379804D01*
X104297571Y-125385765D01*
X104320671Y-125394030D01*
X104342849Y-125404520D01*
X104363893Y-125417133D01*
X104383598Y-125431747D01*
X104401777Y-125448223D01*
X104418253Y-125466402D01*
X104432867Y-125486107D01*
X104445480Y-125507151D01*
X104455970Y-125529329D01*
X104464235Y-125552429D01*
X104470196Y-125576227D01*
X104473796Y-125600496D01*
X104475000Y-125625000D01*
X104475000Y-126375000D01*
X104473796Y-126399504D01*
X104470196Y-126423773D01*
X104464235Y-126447571D01*
X104455970Y-126470671D01*
X104445480Y-126492849D01*
X104432867Y-126513893D01*
X104418253Y-126533598D01*
X104401777Y-126551777D01*
X104383598Y-126568253D01*
X104363893Y-126582867D01*
X104342849Y-126595480D01*
X104320671Y-126605970D01*
X104297571Y-126614235D01*
X104273773Y-126620196D01*
X104249504Y-126623796D01*
X104225000Y-126625000D01*
X102975000Y-126625000D01*
X102950496Y-126623796D01*
X102926227Y-126620196D01*
X102902429Y-126614235D01*
X102879329Y-126605970D01*
X102857151Y-126595480D01*
X102836107Y-126582867D01*
X102816402Y-126568253D01*
X102798223Y-126551777D01*
X102781747Y-126533598D01*
X102767133Y-126513893D01*
X102754520Y-126492849D01*
X102744030Y-126470671D01*
X102735765Y-126447571D01*
X102729804Y-126423773D01*
X102726204Y-126399504D01*
X102725000Y-126375000D01*
X102725000Y-125625000D01*
X102726204Y-125600496D01*
X102729804Y-125576227D01*
X102735765Y-125552429D01*
X102744030Y-125529329D01*
X102754520Y-125507151D01*
X102767133Y-125486107D01*
X102781747Y-125466402D01*
X102798223Y-125448223D01*
X102816402Y-125431747D01*
X102836107Y-125417133D01*
X102857151Y-125404520D01*
X102879329Y-125394030D01*
X102902429Y-125385765D01*
X102926227Y-125379804D01*
X102950496Y-125376204D01*
X102975000Y-125375000D01*
X104225000Y-125375000D01*
X104249504Y-125376204D01*
X104249504Y-125376204D01*
G37*
D12*
X103600000Y-126000000D03*
D11*
G36*
X122649504Y-102776204D02*
G01*
X122673773Y-102779804D01*
X122697571Y-102785765D01*
X122720671Y-102794030D01*
X122742849Y-102804520D01*
X122763893Y-102817133D01*
X122783598Y-102831747D01*
X122801777Y-102848223D01*
X122818253Y-102866402D01*
X122832867Y-102886107D01*
X122845480Y-102907151D01*
X122855970Y-102929329D01*
X122864235Y-102952429D01*
X122870196Y-102976227D01*
X122873796Y-103000496D01*
X122875000Y-103025000D01*
X122875000Y-103775000D01*
X122873796Y-103799504D01*
X122870196Y-103823773D01*
X122864235Y-103847571D01*
X122855970Y-103870671D01*
X122845480Y-103892849D01*
X122832867Y-103913893D01*
X122818253Y-103933598D01*
X122801777Y-103951777D01*
X122783598Y-103968253D01*
X122763893Y-103982867D01*
X122742849Y-103995480D01*
X122720671Y-104005970D01*
X122697571Y-104014235D01*
X122673773Y-104020196D01*
X122649504Y-104023796D01*
X122625000Y-104025000D01*
X121375000Y-104025000D01*
X121350496Y-104023796D01*
X121326227Y-104020196D01*
X121302429Y-104014235D01*
X121279329Y-104005970D01*
X121257151Y-103995480D01*
X121236107Y-103982867D01*
X121216402Y-103968253D01*
X121198223Y-103951777D01*
X121181747Y-103933598D01*
X121167133Y-103913893D01*
X121154520Y-103892849D01*
X121144030Y-103870671D01*
X121135765Y-103847571D01*
X121129804Y-103823773D01*
X121126204Y-103799504D01*
X121125000Y-103775000D01*
X121125000Y-103025000D01*
X121126204Y-103000496D01*
X121129804Y-102976227D01*
X121135765Y-102952429D01*
X121144030Y-102929329D01*
X121154520Y-102907151D01*
X121167133Y-102886107D01*
X121181747Y-102866402D01*
X121198223Y-102848223D01*
X121216402Y-102831747D01*
X121236107Y-102817133D01*
X121257151Y-102804520D01*
X121279329Y-102794030D01*
X121302429Y-102785765D01*
X121326227Y-102779804D01*
X121350496Y-102776204D01*
X121375000Y-102775000D01*
X122625000Y-102775000D01*
X122649504Y-102776204D01*
X122649504Y-102776204D01*
G37*
D12*
X122000000Y-103400000D03*
D11*
G36*
X122649504Y-99976204D02*
G01*
X122673773Y-99979804D01*
X122697571Y-99985765D01*
X122720671Y-99994030D01*
X122742849Y-100004520D01*
X122763893Y-100017133D01*
X122783598Y-100031747D01*
X122801777Y-100048223D01*
X122818253Y-100066402D01*
X122832867Y-100086107D01*
X122845480Y-100107151D01*
X122855970Y-100129329D01*
X122864235Y-100152429D01*
X122870196Y-100176227D01*
X122873796Y-100200496D01*
X122875000Y-100225000D01*
X122875000Y-100975000D01*
X122873796Y-100999504D01*
X122870196Y-101023773D01*
X122864235Y-101047571D01*
X122855970Y-101070671D01*
X122845480Y-101092849D01*
X122832867Y-101113893D01*
X122818253Y-101133598D01*
X122801777Y-101151777D01*
X122783598Y-101168253D01*
X122763893Y-101182867D01*
X122742849Y-101195480D01*
X122720671Y-101205970D01*
X122697571Y-101214235D01*
X122673773Y-101220196D01*
X122649504Y-101223796D01*
X122625000Y-101225000D01*
X121375000Y-101225000D01*
X121350496Y-101223796D01*
X121326227Y-101220196D01*
X121302429Y-101214235D01*
X121279329Y-101205970D01*
X121257151Y-101195480D01*
X121236107Y-101182867D01*
X121216402Y-101168253D01*
X121198223Y-101151777D01*
X121181747Y-101133598D01*
X121167133Y-101113893D01*
X121154520Y-101092849D01*
X121144030Y-101070671D01*
X121135765Y-101047571D01*
X121129804Y-101023773D01*
X121126204Y-100999504D01*
X121125000Y-100975000D01*
X121125000Y-100225000D01*
X121126204Y-100200496D01*
X121129804Y-100176227D01*
X121135765Y-100152429D01*
X121144030Y-100129329D01*
X121154520Y-100107151D01*
X121167133Y-100086107D01*
X121181747Y-100066402D01*
X121198223Y-100048223D01*
X121216402Y-100031747D01*
X121236107Y-100017133D01*
X121257151Y-100004520D01*
X121279329Y-99994030D01*
X121302429Y-99985765D01*
X121326227Y-99979804D01*
X121350496Y-99976204D01*
X121375000Y-99975000D01*
X122625000Y-99975000D01*
X122649504Y-99976204D01*
X122649504Y-99976204D01*
G37*
D12*
X122000000Y-100600000D03*
D14*
X67350000Y-108690000D03*
X67350000Y-106510000D03*
D15*
X69350000Y-108690000D03*
X69350000Y-106510000D03*
D16*
X70850000Y-105690000D03*
X70850000Y-106960000D03*
X70850000Y-108240000D03*
X70850000Y-109510000D03*
X65350000Y-109510000D03*
X65350000Y-108240000D03*
X65350000Y-106960000D03*
X65350000Y-105690000D03*
X79850000Y-109510000D03*
X79850000Y-108240000D03*
X79850000Y-106960000D03*
X79850000Y-105690000D03*
X74350000Y-105690000D03*
X74350000Y-106960000D03*
X74350000Y-108240000D03*
X74350000Y-109510000D03*
D15*
X75850000Y-108690000D03*
X75850000Y-106510000D03*
D14*
X77850000Y-108690000D03*
X77850000Y-106510000D03*
D17*
X111050000Y-104025000D03*
X111050000Y-104675000D03*
X111050000Y-105325000D03*
X111050000Y-105975000D03*
X116950000Y-105975000D03*
X116950000Y-105325000D03*
X116950000Y-104675000D03*
X116950000Y-104025000D03*
D11*
G36*
X133649504Y-95576204D02*
G01*
X133673773Y-95579804D01*
X133697571Y-95585765D01*
X133720671Y-95594030D01*
X133742849Y-95604520D01*
X133763893Y-95617133D01*
X133783598Y-95631747D01*
X133801777Y-95648223D01*
X133818253Y-95666402D01*
X133832867Y-95686107D01*
X133845480Y-95707151D01*
X133855970Y-95729329D01*
X133864235Y-95752429D01*
X133870196Y-95776227D01*
X133873796Y-95800496D01*
X133875000Y-95825000D01*
X133875000Y-96575000D01*
X133873796Y-96599504D01*
X133870196Y-96623773D01*
X133864235Y-96647571D01*
X133855970Y-96670671D01*
X133845480Y-96692849D01*
X133832867Y-96713893D01*
X133818253Y-96733598D01*
X133801777Y-96751777D01*
X133783598Y-96768253D01*
X133763893Y-96782867D01*
X133742849Y-96795480D01*
X133720671Y-96805970D01*
X133697571Y-96814235D01*
X133673773Y-96820196D01*
X133649504Y-96823796D01*
X133625000Y-96825000D01*
X132375000Y-96825000D01*
X132350496Y-96823796D01*
X132326227Y-96820196D01*
X132302429Y-96814235D01*
X132279329Y-96805970D01*
X132257151Y-96795480D01*
X132236107Y-96782867D01*
X132216402Y-96768253D01*
X132198223Y-96751777D01*
X132181747Y-96733598D01*
X132167133Y-96713893D01*
X132154520Y-96692849D01*
X132144030Y-96670671D01*
X132135765Y-96647571D01*
X132129804Y-96623773D01*
X132126204Y-96599504D01*
X132125000Y-96575000D01*
X132125000Y-95825000D01*
X132126204Y-95800496D01*
X132129804Y-95776227D01*
X132135765Y-95752429D01*
X132144030Y-95729329D01*
X132154520Y-95707151D01*
X132167133Y-95686107D01*
X132181747Y-95666402D01*
X132198223Y-95648223D01*
X132216402Y-95631747D01*
X132236107Y-95617133D01*
X132257151Y-95604520D01*
X132279329Y-95594030D01*
X132302429Y-95585765D01*
X132326227Y-95579804D01*
X132350496Y-95576204D01*
X132375000Y-95575000D01*
X133625000Y-95575000D01*
X133649504Y-95576204D01*
X133649504Y-95576204D01*
G37*
D12*
X133000000Y-96200000D03*
D11*
G36*
X133649504Y-98376204D02*
G01*
X133673773Y-98379804D01*
X133697571Y-98385765D01*
X133720671Y-98394030D01*
X133742849Y-98404520D01*
X133763893Y-98417133D01*
X133783598Y-98431747D01*
X133801777Y-98448223D01*
X133818253Y-98466402D01*
X133832867Y-98486107D01*
X133845480Y-98507151D01*
X133855970Y-98529329D01*
X133864235Y-98552429D01*
X133870196Y-98576227D01*
X133873796Y-98600496D01*
X133875000Y-98625000D01*
X133875000Y-99375000D01*
X133873796Y-99399504D01*
X133870196Y-99423773D01*
X133864235Y-99447571D01*
X133855970Y-99470671D01*
X133845480Y-99492849D01*
X133832867Y-99513893D01*
X133818253Y-99533598D01*
X133801777Y-99551777D01*
X133783598Y-99568253D01*
X133763893Y-99582867D01*
X133742849Y-99595480D01*
X133720671Y-99605970D01*
X133697571Y-99614235D01*
X133673773Y-99620196D01*
X133649504Y-99623796D01*
X133625000Y-99625000D01*
X132375000Y-99625000D01*
X132350496Y-99623796D01*
X132326227Y-99620196D01*
X132302429Y-99614235D01*
X132279329Y-99605970D01*
X132257151Y-99595480D01*
X132236107Y-99582867D01*
X132216402Y-99568253D01*
X132198223Y-99551777D01*
X132181747Y-99533598D01*
X132167133Y-99513893D01*
X132154520Y-99492849D01*
X132144030Y-99470671D01*
X132135765Y-99447571D01*
X132129804Y-99423773D01*
X132126204Y-99399504D01*
X132125000Y-99375000D01*
X132125000Y-98625000D01*
X132126204Y-98600496D01*
X132129804Y-98576227D01*
X132135765Y-98552429D01*
X132144030Y-98529329D01*
X132154520Y-98507151D01*
X132167133Y-98486107D01*
X132181747Y-98466402D01*
X132198223Y-98448223D01*
X132216402Y-98431747D01*
X132236107Y-98417133D01*
X132257151Y-98404520D01*
X132279329Y-98394030D01*
X132302429Y-98385765D01*
X132326227Y-98379804D01*
X132350496Y-98376204D01*
X132375000Y-98375000D01*
X133625000Y-98375000D01*
X133649504Y-98376204D01*
X133649504Y-98376204D01*
G37*
D12*
X133000000Y-99000000D03*
D11*
G36*
X108649504Y-99976204D02*
G01*
X108673773Y-99979804D01*
X108697571Y-99985765D01*
X108720671Y-99994030D01*
X108742849Y-100004520D01*
X108763893Y-100017133D01*
X108783598Y-100031747D01*
X108801777Y-100048223D01*
X108818253Y-100066402D01*
X108832867Y-100086107D01*
X108845480Y-100107151D01*
X108855970Y-100129329D01*
X108864235Y-100152429D01*
X108870196Y-100176227D01*
X108873796Y-100200496D01*
X108875000Y-100225000D01*
X108875000Y-100975000D01*
X108873796Y-100999504D01*
X108870196Y-101023773D01*
X108864235Y-101047571D01*
X108855970Y-101070671D01*
X108845480Y-101092849D01*
X108832867Y-101113893D01*
X108818253Y-101133598D01*
X108801777Y-101151777D01*
X108783598Y-101168253D01*
X108763893Y-101182867D01*
X108742849Y-101195480D01*
X108720671Y-101205970D01*
X108697571Y-101214235D01*
X108673773Y-101220196D01*
X108649504Y-101223796D01*
X108625000Y-101225000D01*
X107375000Y-101225000D01*
X107350496Y-101223796D01*
X107326227Y-101220196D01*
X107302429Y-101214235D01*
X107279329Y-101205970D01*
X107257151Y-101195480D01*
X107236107Y-101182867D01*
X107216402Y-101168253D01*
X107198223Y-101151777D01*
X107181747Y-101133598D01*
X107167133Y-101113893D01*
X107154520Y-101092849D01*
X107144030Y-101070671D01*
X107135765Y-101047571D01*
X107129804Y-101023773D01*
X107126204Y-100999504D01*
X107125000Y-100975000D01*
X107125000Y-100225000D01*
X107126204Y-100200496D01*
X107129804Y-100176227D01*
X107135765Y-100152429D01*
X107144030Y-100129329D01*
X107154520Y-100107151D01*
X107167133Y-100086107D01*
X107181747Y-100066402D01*
X107198223Y-100048223D01*
X107216402Y-100031747D01*
X107236107Y-100017133D01*
X107257151Y-100004520D01*
X107279329Y-99994030D01*
X107302429Y-99985765D01*
X107326227Y-99979804D01*
X107350496Y-99976204D01*
X107375000Y-99975000D01*
X108625000Y-99975000D01*
X108649504Y-99976204D01*
X108649504Y-99976204D01*
G37*
D12*
X108000000Y-100600000D03*
D11*
G36*
X108649504Y-102776204D02*
G01*
X108673773Y-102779804D01*
X108697571Y-102785765D01*
X108720671Y-102794030D01*
X108742849Y-102804520D01*
X108763893Y-102817133D01*
X108783598Y-102831747D01*
X108801777Y-102848223D01*
X108818253Y-102866402D01*
X108832867Y-102886107D01*
X108845480Y-102907151D01*
X108855970Y-102929329D01*
X108864235Y-102952429D01*
X108870196Y-102976227D01*
X108873796Y-103000496D01*
X108875000Y-103025000D01*
X108875000Y-103775000D01*
X108873796Y-103799504D01*
X108870196Y-103823773D01*
X108864235Y-103847571D01*
X108855970Y-103870671D01*
X108845480Y-103892849D01*
X108832867Y-103913893D01*
X108818253Y-103933598D01*
X108801777Y-103951777D01*
X108783598Y-103968253D01*
X108763893Y-103982867D01*
X108742849Y-103995480D01*
X108720671Y-104005970D01*
X108697571Y-104014235D01*
X108673773Y-104020196D01*
X108649504Y-104023796D01*
X108625000Y-104025000D01*
X107375000Y-104025000D01*
X107350496Y-104023796D01*
X107326227Y-104020196D01*
X107302429Y-104014235D01*
X107279329Y-104005970D01*
X107257151Y-103995480D01*
X107236107Y-103982867D01*
X107216402Y-103968253D01*
X107198223Y-103951777D01*
X107181747Y-103933598D01*
X107167133Y-103913893D01*
X107154520Y-103892849D01*
X107144030Y-103870671D01*
X107135765Y-103847571D01*
X107129804Y-103823773D01*
X107126204Y-103799504D01*
X107125000Y-103775000D01*
X107125000Y-103025000D01*
X107126204Y-103000496D01*
X107129804Y-102976227D01*
X107135765Y-102952429D01*
X107144030Y-102929329D01*
X107154520Y-102907151D01*
X107167133Y-102886107D01*
X107181747Y-102866402D01*
X107198223Y-102848223D01*
X107216402Y-102831747D01*
X107236107Y-102817133D01*
X107257151Y-102804520D01*
X107279329Y-102794030D01*
X107302429Y-102785765D01*
X107326227Y-102779804D01*
X107350496Y-102776204D01*
X107375000Y-102775000D01*
X108625000Y-102775000D01*
X108649504Y-102776204D01*
X108649504Y-102776204D01*
G37*
D12*
X108000000Y-103400000D03*
D11*
G36*
X60849504Y-108376204D02*
G01*
X60873773Y-108379804D01*
X60897571Y-108385765D01*
X60920671Y-108394030D01*
X60942849Y-108404520D01*
X60963893Y-108417133D01*
X60983598Y-108431747D01*
X61001777Y-108448223D01*
X61018253Y-108466402D01*
X61032867Y-108486107D01*
X61045480Y-108507151D01*
X61055970Y-108529329D01*
X61064235Y-108552429D01*
X61070196Y-108576227D01*
X61073796Y-108600496D01*
X61075000Y-108625000D01*
X61075000Y-109375000D01*
X61073796Y-109399504D01*
X61070196Y-109423773D01*
X61064235Y-109447571D01*
X61055970Y-109470671D01*
X61045480Y-109492849D01*
X61032867Y-109513893D01*
X61018253Y-109533598D01*
X61001777Y-109551777D01*
X60983598Y-109568253D01*
X60963893Y-109582867D01*
X60942849Y-109595480D01*
X60920671Y-109605970D01*
X60897571Y-109614235D01*
X60873773Y-109620196D01*
X60849504Y-109623796D01*
X60825000Y-109625000D01*
X59575000Y-109625000D01*
X59550496Y-109623796D01*
X59526227Y-109620196D01*
X59502429Y-109614235D01*
X59479329Y-109605970D01*
X59457151Y-109595480D01*
X59436107Y-109582867D01*
X59416402Y-109568253D01*
X59398223Y-109551777D01*
X59381747Y-109533598D01*
X59367133Y-109513893D01*
X59354520Y-109492849D01*
X59344030Y-109470671D01*
X59335765Y-109447571D01*
X59329804Y-109423773D01*
X59326204Y-109399504D01*
X59325000Y-109375000D01*
X59325000Y-108625000D01*
X59326204Y-108600496D01*
X59329804Y-108576227D01*
X59335765Y-108552429D01*
X59344030Y-108529329D01*
X59354520Y-108507151D01*
X59367133Y-108486107D01*
X59381747Y-108466402D01*
X59398223Y-108448223D01*
X59416402Y-108431747D01*
X59436107Y-108417133D01*
X59457151Y-108404520D01*
X59479329Y-108394030D01*
X59502429Y-108385765D01*
X59526227Y-108379804D01*
X59550496Y-108376204D01*
X59575000Y-108375000D01*
X60825000Y-108375000D01*
X60849504Y-108376204D01*
X60849504Y-108376204D01*
G37*
D12*
X60200000Y-109000000D03*
D11*
G36*
X60849504Y-105576204D02*
G01*
X60873773Y-105579804D01*
X60897571Y-105585765D01*
X60920671Y-105594030D01*
X60942849Y-105604520D01*
X60963893Y-105617133D01*
X60983598Y-105631747D01*
X61001777Y-105648223D01*
X61018253Y-105666402D01*
X61032867Y-105686107D01*
X61045480Y-105707151D01*
X61055970Y-105729329D01*
X61064235Y-105752429D01*
X61070196Y-105776227D01*
X61073796Y-105800496D01*
X61075000Y-105825000D01*
X61075000Y-106575000D01*
X61073796Y-106599504D01*
X61070196Y-106623773D01*
X61064235Y-106647571D01*
X61055970Y-106670671D01*
X61045480Y-106692849D01*
X61032867Y-106713893D01*
X61018253Y-106733598D01*
X61001777Y-106751777D01*
X60983598Y-106768253D01*
X60963893Y-106782867D01*
X60942849Y-106795480D01*
X60920671Y-106805970D01*
X60897571Y-106814235D01*
X60873773Y-106820196D01*
X60849504Y-106823796D01*
X60825000Y-106825000D01*
X59575000Y-106825000D01*
X59550496Y-106823796D01*
X59526227Y-106820196D01*
X59502429Y-106814235D01*
X59479329Y-106805970D01*
X59457151Y-106795480D01*
X59436107Y-106782867D01*
X59416402Y-106768253D01*
X59398223Y-106751777D01*
X59381747Y-106733598D01*
X59367133Y-106713893D01*
X59354520Y-106692849D01*
X59344030Y-106670671D01*
X59335765Y-106647571D01*
X59329804Y-106623773D01*
X59326204Y-106599504D01*
X59325000Y-106575000D01*
X59325000Y-105825000D01*
X59326204Y-105800496D01*
X59329804Y-105776227D01*
X59335765Y-105752429D01*
X59344030Y-105729329D01*
X59354520Y-105707151D01*
X59367133Y-105686107D01*
X59381747Y-105666402D01*
X59398223Y-105648223D01*
X59416402Y-105631747D01*
X59436107Y-105617133D01*
X59457151Y-105604520D01*
X59479329Y-105594030D01*
X59502429Y-105585765D01*
X59526227Y-105579804D01*
X59550496Y-105576204D01*
X59575000Y-105575000D01*
X60825000Y-105575000D01*
X60849504Y-105576204D01*
X60849504Y-105576204D01*
G37*
D12*
X60200000Y-106200000D03*
D11*
G36*
X57149504Y-108376204D02*
G01*
X57173773Y-108379804D01*
X57197571Y-108385765D01*
X57220671Y-108394030D01*
X57242849Y-108404520D01*
X57263893Y-108417133D01*
X57283598Y-108431747D01*
X57301777Y-108448223D01*
X57318253Y-108466402D01*
X57332867Y-108486107D01*
X57345480Y-108507151D01*
X57355970Y-108529329D01*
X57364235Y-108552429D01*
X57370196Y-108576227D01*
X57373796Y-108600496D01*
X57375000Y-108625000D01*
X57375000Y-109375000D01*
X57373796Y-109399504D01*
X57370196Y-109423773D01*
X57364235Y-109447571D01*
X57355970Y-109470671D01*
X57345480Y-109492849D01*
X57332867Y-109513893D01*
X57318253Y-109533598D01*
X57301777Y-109551777D01*
X57283598Y-109568253D01*
X57263893Y-109582867D01*
X57242849Y-109595480D01*
X57220671Y-109605970D01*
X57197571Y-109614235D01*
X57173773Y-109620196D01*
X57149504Y-109623796D01*
X57125000Y-109625000D01*
X55875000Y-109625000D01*
X55850496Y-109623796D01*
X55826227Y-109620196D01*
X55802429Y-109614235D01*
X55779329Y-109605970D01*
X55757151Y-109595480D01*
X55736107Y-109582867D01*
X55716402Y-109568253D01*
X55698223Y-109551777D01*
X55681747Y-109533598D01*
X55667133Y-109513893D01*
X55654520Y-109492849D01*
X55644030Y-109470671D01*
X55635765Y-109447571D01*
X55629804Y-109423773D01*
X55626204Y-109399504D01*
X55625000Y-109375000D01*
X55625000Y-108625000D01*
X55626204Y-108600496D01*
X55629804Y-108576227D01*
X55635765Y-108552429D01*
X55644030Y-108529329D01*
X55654520Y-108507151D01*
X55667133Y-108486107D01*
X55681747Y-108466402D01*
X55698223Y-108448223D01*
X55716402Y-108431747D01*
X55736107Y-108417133D01*
X55757151Y-108404520D01*
X55779329Y-108394030D01*
X55802429Y-108385765D01*
X55826227Y-108379804D01*
X55850496Y-108376204D01*
X55875000Y-108375000D01*
X57125000Y-108375000D01*
X57149504Y-108376204D01*
X57149504Y-108376204D01*
G37*
D12*
X56500000Y-109000000D03*
D11*
G36*
X57149504Y-105576204D02*
G01*
X57173773Y-105579804D01*
X57197571Y-105585765D01*
X57220671Y-105594030D01*
X57242849Y-105604520D01*
X57263893Y-105617133D01*
X57283598Y-105631747D01*
X57301777Y-105648223D01*
X57318253Y-105666402D01*
X57332867Y-105686107D01*
X57345480Y-105707151D01*
X57355970Y-105729329D01*
X57364235Y-105752429D01*
X57370196Y-105776227D01*
X57373796Y-105800496D01*
X57375000Y-105825000D01*
X57375000Y-106575000D01*
X57373796Y-106599504D01*
X57370196Y-106623773D01*
X57364235Y-106647571D01*
X57355970Y-106670671D01*
X57345480Y-106692849D01*
X57332867Y-106713893D01*
X57318253Y-106733598D01*
X57301777Y-106751777D01*
X57283598Y-106768253D01*
X57263893Y-106782867D01*
X57242849Y-106795480D01*
X57220671Y-106805970D01*
X57197571Y-106814235D01*
X57173773Y-106820196D01*
X57149504Y-106823796D01*
X57125000Y-106825000D01*
X55875000Y-106825000D01*
X55850496Y-106823796D01*
X55826227Y-106820196D01*
X55802429Y-106814235D01*
X55779329Y-106805970D01*
X55757151Y-106795480D01*
X55736107Y-106782867D01*
X55716402Y-106768253D01*
X55698223Y-106751777D01*
X55681747Y-106733598D01*
X55667133Y-106713893D01*
X55654520Y-106692849D01*
X55644030Y-106670671D01*
X55635765Y-106647571D01*
X55629804Y-106623773D01*
X55626204Y-106599504D01*
X55625000Y-106575000D01*
X55625000Y-105825000D01*
X55626204Y-105800496D01*
X55629804Y-105776227D01*
X55635765Y-105752429D01*
X55644030Y-105729329D01*
X55654520Y-105707151D01*
X55667133Y-105686107D01*
X55681747Y-105666402D01*
X55698223Y-105648223D01*
X55716402Y-105631747D01*
X55736107Y-105617133D01*
X55757151Y-105604520D01*
X55779329Y-105594030D01*
X55802429Y-105585765D01*
X55826227Y-105579804D01*
X55850496Y-105576204D01*
X55875000Y-105575000D01*
X57125000Y-105575000D01*
X57149504Y-105576204D01*
X57149504Y-105576204D01*
G37*
D12*
X56500000Y-106200000D03*
D11*
G36*
X85249504Y-105576204D02*
G01*
X85273773Y-105579804D01*
X85297571Y-105585765D01*
X85320671Y-105594030D01*
X85342849Y-105604520D01*
X85363893Y-105617133D01*
X85383598Y-105631747D01*
X85401777Y-105648223D01*
X85418253Y-105666402D01*
X85432867Y-105686107D01*
X85445480Y-105707151D01*
X85455970Y-105729329D01*
X85464235Y-105752429D01*
X85470196Y-105776227D01*
X85473796Y-105800496D01*
X85475000Y-105825000D01*
X85475000Y-106575000D01*
X85473796Y-106599504D01*
X85470196Y-106623773D01*
X85464235Y-106647571D01*
X85455970Y-106670671D01*
X85445480Y-106692849D01*
X85432867Y-106713893D01*
X85418253Y-106733598D01*
X85401777Y-106751777D01*
X85383598Y-106768253D01*
X85363893Y-106782867D01*
X85342849Y-106795480D01*
X85320671Y-106805970D01*
X85297571Y-106814235D01*
X85273773Y-106820196D01*
X85249504Y-106823796D01*
X85225000Y-106825000D01*
X83975000Y-106825000D01*
X83950496Y-106823796D01*
X83926227Y-106820196D01*
X83902429Y-106814235D01*
X83879329Y-106805970D01*
X83857151Y-106795480D01*
X83836107Y-106782867D01*
X83816402Y-106768253D01*
X83798223Y-106751777D01*
X83781747Y-106733598D01*
X83767133Y-106713893D01*
X83754520Y-106692849D01*
X83744030Y-106670671D01*
X83735765Y-106647571D01*
X83729804Y-106623773D01*
X83726204Y-106599504D01*
X83725000Y-106575000D01*
X83725000Y-105825000D01*
X83726204Y-105800496D01*
X83729804Y-105776227D01*
X83735765Y-105752429D01*
X83744030Y-105729329D01*
X83754520Y-105707151D01*
X83767133Y-105686107D01*
X83781747Y-105666402D01*
X83798223Y-105648223D01*
X83816402Y-105631747D01*
X83836107Y-105617133D01*
X83857151Y-105604520D01*
X83879329Y-105594030D01*
X83902429Y-105585765D01*
X83926227Y-105579804D01*
X83950496Y-105576204D01*
X83975000Y-105575000D01*
X85225000Y-105575000D01*
X85249504Y-105576204D01*
X85249504Y-105576204D01*
G37*
D12*
X84600000Y-106200000D03*
D11*
G36*
X85249504Y-108376204D02*
G01*
X85273773Y-108379804D01*
X85297571Y-108385765D01*
X85320671Y-108394030D01*
X85342849Y-108404520D01*
X85363893Y-108417133D01*
X85383598Y-108431747D01*
X85401777Y-108448223D01*
X85418253Y-108466402D01*
X85432867Y-108486107D01*
X85445480Y-108507151D01*
X85455970Y-108529329D01*
X85464235Y-108552429D01*
X85470196Y-108576227D01*
X85473796Y-108600496D01*
X85475000Y-108625000D01*
X85475000Y-109375000D01*
X85473796Y-109399504D01*
X85470196Y-109423773D01*
X85464235Y-109447571D01*
X85455970Y-109470671D01*
X85445480Y-109492849D01*
X85432867Y-109513893D01*
X85418253Y-109533598D01*
X85401777Y-109551777D01*
X85383598Y-109568253D01*
X85363893Y-109582867D01*
X85342849Y-109595480D01*
X85320671Y-109605970D01*
X85297571Y-109614235D01*
X85273773Y-109620196D01*
X85249504Y-109623796D01*
X85225000Y-109625000D01*
X83975000Y-109625000D01*
X83950496Y-109623796D01*
X83926227Y-109620196D01*
X83902429Y-109614235D01*
X83879329Y-109605970D01*
X83857151Y-109595480D01*
X83836107Y-109582867D01*
X83816402Y-109568253D01*
X83798223Y-109551777D01*
X83781747Y-109533598D01*
X83767133Y-109513893D01*
X83754520Y-109492849D01*
X83744030Y-109470671D01*
X83735765Y-109447571D01*
X83729804Y-109423773D01*
X83726204Y-109399504D01*
X83725000Y-109375000D01*
X83725000Y-108625000D01*
X83726204Y-108600496D01*
X83729804Y-108576227D01*
X83735765Y-108552429D01*
X83744030Y-108529329D01*
X83754520Y-108507151D01*
X83767133Y-108486107D01*
X83781747Y-108466402D01*
X83798223Y-108448223D01*
X83816402Y-108431747D01*
X83836107Y-108417133D01*
X83857151Y-108404520D01*
X83879329Y-108394030D01*
X83902429Y-108385765D01*
X83926227Y-108379804D01*
X83950496Y-108376204D01*
X83975000Y-108375000D01*
X85225000Y-108375000D01*
X85249504Y-108376204D01*
X85249504Y-108376204D01*
G37*
D12*
X84600000Y-109000000D03*
D11*
G36*
X122649504Y-94976204D02*
G01*
X122673773Y-94979804D01*
X122697571Y-94985765D01*
X122720671Y-94994030D01*
X122742849Y-95004520D01*
X122763893Y-95017133D01*
X122783598Y-95031747D01*
X122801777Y-95048223D01*
X122818253Y-95066402D01*
X122832867Y-95086107D01*
X122845480Y-95107151D01*
X122855970Y-95129329D01*
X122864235Y-95152429D01*
X122870196Y-95176227D01*
X122873796Y-95200496D01*
X122875000Y-95225000D01*
X122875000Y-95975000D01*
X122873796Y-95999504D01*
X122870196Y-96023773D01*
X122864235Y-96047571D01*
X122855970Y-96070671D01*
X122845480Y-96092849D01*
X122832867Y-96113893D01*
X122818253Y-96133598D01*
X122801777Y-96151777D01*
X122783598Y-96168253D01*
X122763893Y-96182867D01*
X122742849Y-96195480D01*
X122720671Y-96205970D01*
X122697571Y-96214235D01*
X122673773Y-96220196D01*
X122649504Y-96223796D01*
X122625000Y-96225000D01*
X121375000Y-96225000D01*
X121350496Y-96223796D01*
X121326227Y-96220196D01*
X121302429Y-96214235D01*
X121279329Y-96205970D01*
X121257151Y-96195480D01*
X121236107Y-96182867D01*
X121216402Y-96168253D01*
X121198223Y-96151777D01*
X121181747Y-96133598D01*
X121167133Y-96113893D01*
X121154520Y-96092849D01*
X121144030Y-96070671D01*
X121135765Y-96047571D01*
X121129804Y-96023773D01*
X121126204Y-95999504D01*
X121125000Y-95975000D01*
X121125000Y-95225000D01*
X121126204Y-95200496D01*
X121129804Y-95176227D01*
X121135765Y-95152429D01*
X121144030Y-95129329D01*
X121154520Y-95107151D01*
X121167133Y-95086107D01*
X121181747Y-95066402D01*
X121198223Y-95048223D01*
X121216402Y-95031747D01*
X121236107Y-95017133D01*
X121257151Y-95004520D01*
X121279329Y-94994030D01*
X121302429Y-94985765D01*
X121326227Y-94979804D01*
X121350496Y-94976204D01*
X121375000Y-94975000D01*
X122625000Y-94975000D01*
X122649504Y-94976204D01*
X122649504Y-94976204D01*
G37*
D12*
X122000000Y-95600000D03*
D11*
G36*
X122649504Y-97776204D02*
G01*
X122673773Y-97779804D01*
X122697571Y-97785765D01*
X122720671Y-97794030D01*
X122742849Y-97804520D01*
X122763893Y-97817133D01*
X122783598Y-97831747D01*
X122801777Y-97848223D01*
X122818253Y-97866402D01*
X122832867Y-97886107D01*
X122845480Y-97907151D01*
X122855970Y-97929329D01*
X122864235Y-97952429D01*
X122870196Y-97976227D01*
X122873796Y-98000496D01*
X122875000Y-98025000D01*
X122875000Y-98775000D01*
X122873796Y-98799504D01*
X122870196Y-98823773D01*
X122864235Y-98847571D01*
X122855970Y-98870671D01*
X122845480Y-98892849D01*
X122832867Y-98913893D01*
X122818253Y-98933598D01*
X122801777Y-98951777D01*
X122783598Y-98968253D01*
X122763893Y-98982867D01*
X122742849Y-98995480D01*
X122720671Y-99005970D01*
X122697571Y-99014235D01*
X122673773Y-99020196D01*
X122649504Y-99023796D01*
X122625000Y-99025000D01*
X121375000Y-99025000D01*
X121350496Y-99023796D01*
X121326227Y-99020196D01*
X121302429Y-99014235D01*
X121279329Y-99005970D01*
X121257151Y-98995480D01*
X121236107Y-98982867D01*
X121216402Y-98968253D01*
X121198223Y-98951777D01*
X121181747Y-98933598D01*
X121167133Y-98913893D01*
X121154520Y-98892849D01*
X121144030Y-98870671D01*
X121135765Y-98847571D01*
X121129804Y-98823773D01*
X121126204Y-98799504D01*
X121125000Y-98775000D01*
X121125000Y-98025000D01*
X121126204Y-98000496D01*
X121129804Y-97976227D01*
X121135765Y-97952429D01*
X121144030Y-97929329D01*
X121154520Y-97907151D01*
X121167133Y-97886107D01*
X121181747Y-97866402D01*
X121198223Y-97848223D01*
X121216402Y-97831747D01*
X121236107Y-97817133D01*
X121257151Y-97804520D01*
X121279329Y-97794030D01*
X121302429Y-97785765D01*
X121326227Y-97779804D01*
X121350496Y-97776204D01*
X121375000Y-97775000D01*
X122625000Y-97775000D01*
X122649504Y-97776204D01*
X122649504Y-97776204D01*
G37*
D12*
X122000000Y-98400000D03*
D11*
G36*
X74449504Y-93876204D02*
G01*
X74473773Y-93879804D01*
X74497571Y-93885765D01*
X74520671Y-93894030D01*
X74542849Y-93904520D01*
X74563893Y-93917133D01*
X74583598Y-93931747D01*
X74601777Y-93948223D01*
X74618253Y-93966402D01*
X74632867Y-93986107D01*
X74645480Y-94007151D01*
X74655970Y-94029329D01*
X74664235Y-94052429D01*
X74670196Y-94076227D01*
X74673796Y-94100496D01*
X74675000Y-94125000D01*
X74675000Y-94875000D01*
X74673796Y-94899504D01*
X74670196Y-94923773D01*
X74664235Y-94947571D01*
X74655970Y-94970671D01*
X74645480Y-94992849D01*
X74632867Y-95013893D01*
X74618253Y-95033598D01*
X74601777Y-95051777D01*
X74583598Y-95068253D01*
X74563893Y-95082867D01*
X74542849Y-95095480D01*
X74520671Y-95105970D01*
X74497571Y-95114235D01*
X74473773Y-95120196D01*
X74449504Y-95123796D01*
X74425000Y-95125000D01*
X73175000Y-95125000D01*
X73150496Y-95123796D01*
X73126227Y-95120196D01*
X73102429Y-95114235D01*
X73079329Y-95105970D01*
X73057151Y-95095480D01*
X73036107Y-95082867D01*
X73016402Y-95068253D01*
X72998223Y-95051777D01*
X72981747Y-95033598D01*
X72967133Y-95013893D01*
X72954520Y-94992849D01*
X72944030Y-94970671D01*
X72935765Y-94947571D01*
X72929804Y-94923773D01*
X72926204Y-94899504D01*
X72925000Y-94875000D01*
X72925000Y-94125000D01*
X72926204Y-94100496D01*
X72929804Y-94076227D01*
X72935765Y-94052429D01*
X72944030Y-94029329D01*
X72954520Y-94007151D01*
X72967133Y-93986107D01*
X72981747Y-93966402D01*
X72998223Y-93948223D01*
X73016402Y-93931747D01*
X73036107Y-93917133D01*
X73057151Y-93904520D01*
X73079329Y-93894030D01*
X73102429Y-93885765D01*
X73126227Y-93879804D01*
X73150496Y-93876204D01*
X73175000Y-93875000D01*
X74425000Y-93875000D01*
X74449504Y-93876204D01*
X74449504Y-93876204D01*
G37*
D12*
X73800000Y-94500000D03*
D11*
G36*
X74449504Y-91076204D02*
G01*
X74473773Y-91079804D01*
X74497571Y-91085765D01*
X74520671Y-91094030D01*
X74542849Y-91104520D01*
X74563893Y-91117133D01*
X74583598Y-91131747D01*
X74601777Y-91148223D01*
X74618253Y-91166402D01*
X74632867Y-91186107D01*
X74645480Y-91207151D01*
X74655970Y-91229329D01*
X74664235Y-91252429D01*
X74670196Y-91276227D01*
X74673796Y-91300496D01*
X74675000Y-91325000D01*
X74675000Y-92075000D01*
X74673796Y-92099504D01*
X74670196Y-92123773D01*
X74664235Y-92147571D01*
X74655970Y-92170671D01*
X74645480Y-92192849D01*
X74632867Y-92213893D01*
X74618253Y-92233598D01*
X74601777Y-92251777D01*
X74583598Y-92268253D01*
X74563893Y-92282867D01*
X74542849Y-92295480D01*
X74520671Y-92305970D01*
X74497571Y-92314235D01*
X74473773Y-92320196D01*
X74449504Y-92323796D01*
X74425000Y-92325000D01*
X73175000Y-92325000D01*
X73150496Y-92323796D01*
X73126227Y-92320196D01*
X73102429Y-92314235D01*
X73079329Y-92305970D01*
X73057151Y-92295480D01*
X73036107Y-92282867D01*
X73016402Y-92268253D01*
X72998223Y-92251777D01*
X72981747Y-92233598D01*
X72967133Y-92213893D01*
X72954520Y-92192849D01*
X72944030Y-92170671D01*
X72935765Y-92147571D01*
X72929804Y-92123773D01*
X72926204Y-92099504D01*
X72925000Y-92075000D01*
X72925000Y-91325000D01*
X72926204Y-91300496D01*
X72929804Y-91276227D01*
X72935765Y-91252429D01*
X72944030Y-91229329D01*
X72954520Y-91207151D01*
X72967133Y-91186107D01*
X72981747Y-91166402D01*
X72998223Y-91148223D01*
X73016402Y-91131747D01*
X73036107Y-91117133D01*
X73057151Y-91104520D01*
X73079329Y-91094030D01*
X73102429Y-91085765D01*
X73126227Y-91079804D01*
X73150496Y-91076204D01*
X73175000Y-91075000D01*
X74425000Y-91075000D01*
X74449504Y-91076204D01*
X74449504Y-91076204D01*
G37*
D12*
X73800000Y-91700000D03*
D11*
G36*
X96249504Y-128176204D02*
G01*
X96273773Y-128179804D01*
X96297571Y-128185765D01*
X96320671Y-128194030D01*
X96342849Y-128204520D01*
X96363893Y-128217133D01*
X96383598Y-128231747D01*
X96401777Y-128248223D01*
X96418253Y-128266402D01*
X96432867Y-128286107D01*
X96445480Y-128307151D01*
X96455970Y-128329329D01*
X96464235Y-128352429D01*
X96470196Y-128376227D01*
X96473796Y-128400496D01*
X96475000Y-128425000D01*
X96475000Y-129175000D01*
X96473796Y-129199504D01*
X96470196Y-129223773D01*
X96464235Y-129247571D01*
X96455970Y-129270671D01*
X96445480Y-129292849D01*
X96432867Y-129313893D01*
X96418253Y-129333598D01*
X96401777Y-129351777D01*
X96383598Y-129368253D01*
X96363893Y-129382867D01*
X96342849Y-129395480D01*
X96320671Y-129405970D01*
X96297571Y-129414235D01*
X96273773Y-129420196D01*
X96249504Y-129423796D01*
X96225000Y-129425000D01*
X94975000Y-129425000D01*
X94950496Y-129423796D01*
X94926227Y-129420196D01*
X94902429Y-129414235D01*
X94879329Y-129405970D01*
X94857151Y-129395480D01*
X94836107Y-129382867D01*
X94816402Y-129368253D01*
X94798223Y-129351777D01*
X94781747Y-129333598D01*
X94767133Y-129313893D01*
X94754520Y-129292849D01*
X94744030Y-129270671D01*
X94735765Y-129247571D01*
X94729804Y-129223773D01*
X94726204Y-129199504D01*
X94725000Y-129175000D01*
X94725000Y-128425000D01*
X94726204Y-128400496D01*
X94729804Y-128376227D01*
X94735765Y-128352429D01*
X94744030Y-128329329D01*
X94754520Y-128307151D01*
X94767133Y-128286107D01*
X94781747Y-128266402D01*
X94798223Y-128248223D01*
X94816402Y-128231747D01*
X94836107Y-128217133D01*
X94857151Y-128204520D01*
X94879329Y-128194030D01*
X94902429Y-128185765D01*
X94926227Y-128179804D01*
X94950496Y-128176204D01*
X94975000Y-128175000D01*
X96225000Y-128175000D01*
X96249504Y-128176204D01*
X96249504Y-128176204D01*
G37*
D12*
X95600000Y-128800000D03*
D11*
G36*
X96249504Y-125376204D02*
G01*
X96273773Y-125379804D01*
X96297571Y-125385765D01*
X96320671Y-125394030D01*
X96342849Y-125404520D01*
X96363893Y-125417133D01*
X96383598Y-125431747D01*
X96401777Y-125448223D01*
X96418253Y-125466402D01*
X96432867Y-125486107D01*
X96445480Y-125507151D01*
X96455970Y-125529329D01*
X96464235Y-125552429D01*
X96470196Y-125576227D01*
X96473796Y-125600496D01*
X96475000Y-125625000D01*
X96475000Y-126375000D01*
X96473796Y-126399504D01*
X96470196Y-126423773D01*
X96464235Y-126447571D01*
X96455970Y-126470671D01*
X96445480Y-126492849D01*
X96432867Y-126513893D01*
X96418253Y-126533598D01*
X96401777Y-126551777D01*
X96383598Y-126568253D01*
X96363893Y-126582867D01*
X96342849Y-126595480D01*
X96320671Y-126605970D01*
X96297571Y-126614235D01*
X96273773Y-126620196D01*
X96249504Y-126623796D01*
X96225000Y-126625000D01*
X94975000Y-126625000D01*
X94950496Y-126623796D01*
X94926227Y-126620196D01*
X94902429Y-126614235D01*
X94879329Y-126605970D01*
X94857151Y-126595480D01*
X94836107Y-126582867D01*
X94816402Y-126568253D01*
X94798223Y-126551777D01*
X94781747Y-126533598D01*
X94767133Y-126513893D01*
X94754520Y-126492849D01*
X94744030Y-126470671D01*
X94735765Y-126447571D01*
X94729804Y-126423773D01*
X94726204Y-126399504D01*
X94725000Y-126375000D01*
X94725000Y-125625000D01*
X94726204Y-125600496D01*
X94729804Y-125576227D01*
X94735765Y-125552429D01*
X94744030Y-125529329D01*
X94754520Y-125507151D01*
X94767133Y-125486107D01*
X94781747Y-125466402D01*
X94798223Y-125448223D01*
X94816402Y-125431747D01*
X94836107Y-125417133D01*
X94857151Y-125404520D01*
X94879329Y-125394030D01*
X94902429Y-125385765D01*
X94926227Y-125379804D01*
X94950496Y-125376204D01*
X94975000Y-125375000D01*
X96225000Y-125375000D01*
X96249504Y-125376204D01*
X96249504Y-125376204D01*
G37*
D12*
X95600000Y-126000000D03*
D11*
G36*
X104249504Y-120376204D02*
G01*
X104273773Y-120379804D01*
X104297571Y-120385765D01*
X104320671Y-120394030D01*
X104342849Y-120404520D01*
X104363893Y-120417133D01*
X104383598Y-120431747D01*
X104401777Y-120448223D01*
X104418253Y-120466402D01*
X104432867Y-120486107D01*
X104445480Y-120507151D01*
X104455970Y-120529329D01*
X104464235Y-120552429D01*
X104470196Y-120576227D01*
X104473796Y-120600496D01*
X104475000Y-120625000D01*
X104475000Y-121375000D01*
X104473796Y-121399504D01*
X104470196Y-121423773D01*
X104464235Y-121447571D01*
X104455970Y-121470671D01*
X104445480Y-121492849D01*
X104432867Y-121513893D01*
X104418253Y-121533598D01*
X104401777Y-121551777D01*
X104383598Y-121568253D01*
X104363893Y-121582867D01*
X104342849Y-121595480D01*
X104320671Y-121605970D01*
X104297571Y-121614235D01*
X104273773Y-121620196D01*
X104249504Y-121623796D01*
X104225000Y-121625000D01*
X102975000Y-121625000D01*
X102950496Y-121623796D01*
X102926227Y-121620196D01*
X102902429Y-121614235D01*
X102879329Y-121605970D01*
X102857151Y-121595480D01*
X102836107Y-121582867D01*
X102816402Y-121568253D01*
X102798223Y-121551777D01*
X102781747Y-121533598D01*
X102767133Y-121513893D01*
X102754520Y-121492849D01*
X102744030Y-121470671D01*
X102735765Y-121447571D01*
X102729804Y-121423773D01*
X102726204Y-121399504D01*
X102725000Y-121375000D01*
X102725000Y-120625000D01*
X102726204Y-120600496D01*
X102729804Y-120576227D01*
X102735765Y-120552429D01*
X102744030Y-120529329D01*
X102754520Y-120507151D01*
X102767133Y-120486107D01*
X102781747Y-120466402D01*
X102798223Y-120448223D01*
X102816402Y-120431747D01*
X102836107Y-120417133D01*
X102857151Y-120404520D01*
X102879329Y-120394030D01*
X102902429Y-120385765D01*
X102926227Y-120379804D01*
X102950496Y-120376204D01*
X102975000Y-120375000D01*
X104225000Y-120375000D01*
X104249504Y-120376204D01*
X104249504Y-120376204D01*
G37*
D12*
X103600000Y-121000000D03*
D11*
G36*
X104249504Y-123176204D02*
G01*
X104273773Y-123179804D01*
X104297571Y-123185765D01*
X104320671Y-123194030D01*
X104342849Y-123204520D01*
X104363893Y-123217133D01*
X104383598Y-123231747D01*
X104401777Y-123248223D01*
X104418253Y-123266402D01*
X104432867Y-123286107D01*
X104445480Y-123307151D01*
X104455970Y-123329329D01*
X104464235Y-123352429D01*
X104470196Y-123376227D01*
X104473796Y-123400496D01*
X104475000Y-123425000D01*
X104475000Y-124175000D01*
X104473796Y-124199504D01*
X104470196Y-124223773D01*
X104464235Y-124247571D01*
X104455970Y-124270671D01*
X104445480Y-124292849D01*
X104432867Y-124313893D01*
X104418253Y-124333598D01*
X104401777Y-124351777D01*
X104383598Y-124368253D01*
X104363893Y-124382867D01*
X104342849Y-124395480D01*
X104320671Y-124405970D01*
X104297571Y-124414235D01*
X104273773Y-124420196D01*
X104249504Y-124423796D01*
X104225000Y-124425000D01*
X102975000Y-124425000D01*
X102950496Y-124423796D01*
X102926227Y-124420196D01*
X102902429Y-124414235D01*
X102879329Y-124405970D01*
X102857151Y-124395480D01*
X102836107Y-124382867D01*
X102816402Y-124368253D01*
X102798223Y-124351777D01*
X102781747Y-124333598D01*
X102767133Y-124313893D01*
X102754520Y-124292849D01*
X102744030Y-124270671D01*
X102735765Y-124247571D01*
X102729804Y-124223773D01*
X102726204Y-124199504D01*
X102725000Y-124175000D01*
X102725000Y-123425000D01*
X102726204Y-123400496D01*
X102729804Y-123376227D01*
X102735765Y-123352429D01*
X102744030Y-123329329D01*
X102754520Y-123307151D01*
X102767133Y-123286107D01*
X102781747Y-123266402D01*
X102798223Y-123248223D01*
X102816402Y-123231747D01*
X102836107Y-123217133D01*
X102857151Y-123204520D01*
X102879329Y-123194030D01*
X102902429Y-123185765D01*
X102926227Y-123179804D01*
X102950496Y-123176204D01*
X102975000Y-123175000D01*
X104225000Y-123175000D01*
X104249504Y-123176204D01*
X104249504Y-123176204D01*
G37*
D12*
X103600000Y-123800000D03*
D18*
X101300000Y-91400000D03*
X94570000Y-91400000D03*
D19*
X56600000Y-122035000D03*
X56600000Y-128765000D03*
X57600000Y-93765000D03*
X57600000Y-87035000D03*
D20*
X111300000Y-95095000D03*
X111300000Y-96365000D03*
X111300000Y-97635000D03*
X111300000Y-98905000D03*
X116700000Y-98905000D03*
X116700000Y-97635000D03*
X116700000Y-96365000D03*
X116700000Y-95095000D03*
D21*
X95200000Y-121425000D03*
X95200000Y-122075000D03*
X95200000Y-122725000D03*
X95200000Y-123375000D03*
X98000000Y-122075000D03*
X98000000Y-123375000D03*
X98000000Y-121425000D03*
X98000000Y-122725000D03*
D22*
X96600000Y-122400000D03*
D23*
X64330000Y-123510000D03*
X64330000Y-124460000D03*
X64330000Y-125410000D03*
X67750000Y-125410000D03*
X67750000Y-124460000D03*
X67750000Y-123510000D03*
M02*
