G04 #@! TF.GenerationSoftware,KiCad,Pcbnew,(5.1.0)-1*
G04 #@! TF.CreationDate,2019-07-01T21:30:59-03:00*
G04 #@! TF.ProjectId,Main,4d61696e-2e6b-4696-9361-645f70636258,1.0*
G04 #@! TF.SameCoordinates,Original*
G04 #@! TF.FileFunction,Legend,Top*
G04 #@! TF.FilePolarity,Positive*
%FSLAX46Y46*%
G04 Gerber Fmt 4.6, Leading zero omitted, Abs format (unit mm)*
G04 Created by KiCad (PCBNEW (5.1.0)-1) date 2019-07-01 21:30:59*
%MOMM*%
%LPD*%
G04 APERTURE LIST*
%ADD10C,0.120000*%
%ADD11C,0.125000*%
%ADD12C,0.062500*%
%ADD13C,0.150000*%
%ADD14C,0.050000*%
%ADD15C,0.300000*%
G04 APERTURE END LIST*
D10*
X64740000Y-47100000D02*
X122440000Y-47020000D01*
X64730000Y-47880000D02*
X64740000Y-47100000D01*
D11*
X66034285Y-47794285D02*
X66105714Y-47818095D01*
X66129523Y-47841904D01*
X66153333Y-47889523D01*
X66153333Y-47960952D01*
X66129523Y-48008571D01*
X66105714Y-48032380D01*
X66058095Y-48056190D01*
X65867619Y-48056190D01*
X65867619Y-47556190D01*
X66034285Y-47556190D01*
X66081904Y-47580000D01*
X66105714Y-47603809D01*
X66129523Y-47651428D01*
X66129523Y-47699047D01*
X66105714Y-47746666D01*
X66081904Y-47770476D01*
X66034285Y-47794285D01*
X65867619Y-47794285D01*
X66581904Y-48056190D02*
X66581904Y-47794285D01*
X66558095Y-47746666D01*
X66510476Y-47722857D01*
X66415238Y-47722857D01*
X66367619Y-47746666D01*
X66581904Y-48032380D02*
X66534285Y-48056190D01*
X66415238Y-48056190D01*
X66367619Y-48032380D01*
X66343809Y-47984761D01*
X66343809Y-47937142D01*
X66367619Y-47889523D01*
X66415238Y-47865714D01*
X66534285Y-47865714D01*
X66581904Y-47841904D01*
X66748571Y-47722857D02*
X66939047Y-47722857D01*
X66820000Y-47556190D02*
X66820000Y-47984761D01*
X66843809Y-48032380D01*
X66891428Y-48056190D01*
X66939047Y-48056190D01*
X67415238Y-47722857D02*
X67605714Y-47722857D01*
X67486666Y-47556190D02*
X67486666Y-47984761D01*
X67510476Y-48032380D01*
X67558095Y-48056190D01*
X67605714Y-48056190D01*
X67843809Y-48056190D02*
X67796190Y-48032380D01*
X67772380Y-48008571D01*
X67748571Y-47960952D01*
X67748571Y-47818095D01*
X67772380Y-47770476D01*
X67796190Y-47746666D01*
X67843809Y-47722857D01*
X67915238Y-47722857D01*
X67962857Y-47746666D01*
X67986666Y-47770476D01*
X68010476Y-47818095D01*
X68010476Y-47960952D01*
X67986666Y-48008571D01*
X67962857Y-48032380D01*
X67915238Y-48056190D01*
X67843809Y-48056190D01*
X68891428Y-48008571D02*
X68867619Y-48032380D01*
X68796190Y-48056190D01*
X68748571Y-48056190D01*
X68677142Y-48032380D01*
X68629523Y-47984761D01*
X68605714Y-47937142D01*
X68581904Y-47841904D01*
X68581904Y-47770476D01*
X68605714Y-47675238D01*
X68629523Y-47627619D01*
X68677142Y-47580000D01*
X68748571Y-47556190D01*
X68796190Y-47556190D01*
X68867619Y-47580000D01*
X68891428Y-47603809D01*
X69105714Y-48056190D02*
X69105714Y-47556190D01*
X69320000Y-48056190D02*
X69320000Y-47794285D01*
X69296190Y-47746666D01*
X69248571Y-47722857D01*
X69177142Y-47722857D01*
X69129523Y-47746666D01*
X69105714Y-47770476D01*
X69772380Y-48056190D02*
X69772380Y-47794285D01*
X69748571Y-47746666D01*
X69700952Y-47722857D01*
X69605714Y-47722857D01*
X69558095Y-47746666D01*
X69772380Y-48032380D02*
X69724761Y-48056190D01*
X69605714Y-48056190D01*
X69558095Y-48032380D01*
X69534285Y-47984761D01*
X69534285Y-47937142D01*
X69558095Y-47889523D01*
X69605714Y-47865714D01*
X69724761Y-47865714D01*
X69772380Y-47841904D01*
X70010476Y-48056190D02*
X70010476Y-47722857D01*
X70010476Y-47818095D02*
X70034285Y-47770476D01*
X70058095Y-47746666D01*
X70105714Y-47722857D01*
X70153333Y-47722857D01*
X70534285Y-47722857D02*
X70534285Y-48127619D01*
X70510476Y-48175238D01*
X70486666Y-48199047D01*
X70439047Y-48222857D01*
X70367619Y-48222857D01*
X70320000Y-48199047D01*
X70534285Y-48032380D02*
X70486666Y-48056190D01*
X70391428Y-48056190D01*
X70343809Y-48032380D01*
X70320000Y-48008571D01*
X70296190Y-47960952D01*
X70296190Y-47818095D01*
X70320000Y-47770476D01*
X70343809Y-47746666D01*
X70391428Y-47722857D01*
X70486666Y-47722857D01*
X70534285Y-47746666D01*
X70962857Y-48032380D02*
X70915238Y-48056190D01*
X70820000Y-48056190D01*
X70772380Y-48032380D01*
X70748571Y-47984761D01*
X70748571Y-47794285D01*
X70772380Y-47746666D01*
X70820000Y-47722857D01*
X70915238Y-47722857D01*
X70962857Y-47746666D01*
X70986666Y-47794285D01*
X70986666Y-47841904D01*
X70748571Y-47889523D01*
X71200952Y-48056190D02*
X71200952Y-47722857D01*
X71200952Y-47818095D02*
X71224761Y-47770476D01*
X71248571Y-47746666D01*
X71296190Y-47722857D01*
X71343809Y-47722857D01*
X27308095Y-79036190D02*
X27593809Y-79036190D01*
X27450952Y-79536190D02*
X27450952Y-79036190D01*
X27760476Y-79536190D02*
X27760476Y-79202857D01*
X27760476Y-79036190D02*
X27736666Y-79060000D01*
X27760476Y-79083809D01*
X27784285Y-79060000D01*
X27760476Y-79036190D01*
X27760476Y-79083809D01*
X27998571Y-79536190D02*
X27998571Y-79202857D01*
X27998571Y-79250476D02*
X28022380Y-79226666D01*
X28070000Y-79202857D01*
X28141428Y-79202857D01*
X28189047Y-79226666D01*
X28212857Y-79274285D01*
X28212857Y-79536190D01*
X28212857Y-79274285D02*
X28236666Y-79226666D01*
X28284285Y-79202857D01*
X28355714Y-79202857D01*
X28403333Y-79226666D01*
X28427142Y-79274285D01*
X28427142Y-79536190D01*
X28855714Y-79512380D02*
X28808095Y-79536190D01*
X28712857Y-79536190D01*
X28665238Y-79512380D01*
X28641428Y-79464761D01*
X28641428Y-79274285D01*
X28665238Y-79226666D01*
X28712857Y-79202857D01*
X28808095Y-79202857D01*
X28855714Y-79226666D01*
X28879523Y-79274285D01*
X28879523Y-79321904D01*
X28641428Y-79369523D01*
X29093809Y-79536190D02*
X29093809Y-79202857D01*
X29093809Y-79298095D02*
X29117619Y-79250476D01*
X29141428Y-79226666D01*
X29189047Y-79202857D01*
X29236666Y-79202857D01*
X29784285Y-79536190D02*
X29784285Y-79036190D01*
X29974761Y-79036190D01*
X30022380Y-79060000D01*
X30046190Y-79083809D01*
X30070000Y-79131428D01*
X30070000Y-79202857D01*
X30046190Y-79250476D01*
X30022380Y-79274285D01*
X29974761Y-79298095D01*
X29784285Y-79298095D01*
X30355714Y-79536190D02*
X30308095Y-79512380D01*
X30284285Y-79488571D01*
X30260476Y-79440952D01*
X30260476Y-79298095D01*
X30284285Y-79250476D01*
X30308095Y-79226666D01*
X30355714Y-79202857D01*
X30427142Y-79202857D01*
X30474761Y-79226666D01*
X30498571Y-79250476D01*
X30522380Y-79298095D01*
X30522380Y-79440952D01*
X30498571Y-79488571D01*
X30474761Y-79512380D01*
X30427142Y-79536190D01*
X30355714Y-79536190D01*
X30689047Y-79202857D02*
X30784285Y-79536190D01*
X30879523Y-79298095D01*
X30974761Y-79536190D01*
X31070000Y-79202857D01*
X31450952Y-79512380D02*
X31403333Y-79536190D01*
X31308095Y-79536190D01*
X31260476Y-79512380D01*
X31236666Y-79464761D01*
X31236666Y-79274285D01*
X31260476Y-79226666D01*
X31308095Y-79202857D01*
X31403333Y-79202857D01*
X31450952Y-79226666D01*
X31474761Y-79274285D01*
X31474761Y-79321904D01*
X31236666Y-79369523D01*
X31689047Y-79536190D02*
X31689047Y-79202857D01*
X31689047Y-79298095D02*
X31712857Y-79250476D01*
X31736666Y-79226666D01*
X31784285Y-79202857D01*
X31831904Y-79202857D01*
D12*
X71523333Y-64288571D02*
X71499523Y-64312380D01*
X71428095Y-64336190D01*
X71380476Y-64336190D01*
X71309047Y-64312380D01*
X71261428Y-64264761D01*
X71237619Y-64217142D01*
X71213809Y-64121904D01*
X71213809Y-64050476D01*
X71237619Y-63955238D01*
X71261428Y-63907619D01*
X71309047Y-63860000D01*
X71380476Y-63836190D01*
X71428095Y-63836190D01*
X71499523Y-63860000D01*
X71523333Y-63883809D01*
X71809047Y-64336190D02*
X71761428Y-64312380D01*
X71737619Y-64288571D01*
X71713809Y-64240952D01*
X71713809Y-64098095D01*
X71737619Y-64050476D01*
X71761428Y-64026666D01*
X71809047Y-64002857D01*
X71880476Y-64002857D01*
X71928095Y-64026666D01*
X71951904Y-64050476D01*
X71975714Y-64098095D01*
X71975714Y-64240952D01*
X71951904Y-64288571D01*
X71928095Y-64312380D01*
X71880476Y-64336190D01*
X71809047Y-64336190D01*
X72190000Y-64336190D02*
X72190000Y-64002857D01*
X72190000Y-64050476D02*
X72213809Y-64026666D01*
X72261428Y-64002857D01*
X72332857Y-64002857D01*
X72380476Y-64026666D01*
X72404285Y-64074285D01*
X72404285Y-64336190D01*
X72404285Y-64074285D02*
X72428095Y-64026666D01*
X72475714Y-64002857D01*
X72547142Y-64002857D01*
X72594761Y-64026666D01*
X72618571Y-64074285D01*
X72618571Y-64336190D01*
X72856666Y-64002857D02*
X72856666Y-64502857D01*
X72856666Y-64026666D02*
X72904285Y-64002857D01*
X72999523Y-64002857D01*
X73047142Y-64026666D01*
X73070952Y-64050476D01*
X73094761Y-64098095D01*
X73094761Y-64240952D01*
X73070952Y-64288571D01*
X73047142Y-64312380D01*
X72999523Y-64336190D01*
X72904285Y-64336190D01*
X72856666Y-64312380D01*
X73690000Y-64336190D02*
X73690000Y-63836190D01*
X73880476Y-63836190D01*
X73928095Y-63860000D01*
X73951904Y-63883809D01*
X73975714Y-63931428D01*
X73975714Y-64002857D01*
X73951904Y-64050476D01*
X73928095Y-64074285D01*
X73880476Y-64098095D01*
X73690000Y-64098095D01*
X74190000Y-64336190D02*
X74190000Y-64002857D01*
X74190000Y-63836190D02*
X74166190Y-63860000D01*
X74190000Y-63883809D01*
X74213809Y-63860000D01*
X74190000Y-63836190D01*
X74190000Y-63883809D01*
X74428095Y-64002857D02*
X74428095Y-64336190D01*
X74428095Y-64050476D02*
X74451904Y-64026666D01*
X74499523Y-64002857D01*
X74570952Y-64002857D01*
X74618571Y-64026666D01*
X74642380Y-64074285D01*
X74642380Y-64336190D01*
D10*
X89430000Y-70740000D02*
X89420000Y-101570000D01*
D12*
X67839523Y-69674285D02*
X67910952Y-69698095D01*
X67934761Y-69721904D01*
X67958571Y-69769523D01*
X67958571Y-69840952D01*
X67934761Y-69888571D01*
X67910952Y-69912380D01*
X67863333Y-69936190D01*
X67672857Y-69936190D01*
X67672857Y-69436190D01*
X67839523Y-69436190D01*
X67887142Y-69460000D01*
X67910952Y-69483809D01*
X67934761Y-69531428D01*
X67934761Y-69579047D01*
X67910952Y-69626666D01*
X67887142Y-69650476D01*
X67839523Y-69674285D01*
X67672857Y-69674285D01*
X68506190Y-69983809D02*
X68458571Y-69960000D01*
X68410952Y-69912380D01*
X68339523Y-69840952D01*
X68291904Y-69817142D01*
X68244285Y-69817142D01*
X68268095Y-69936190D02*
X68220476Y-69912380D01*
X68172857Y-69864761D01*
X68149047Y-69769523D01*
X68149047Y-69602857D01*
X68172857Y-69507619D01*
X68220476Y-69460000D01*
X68268095Y-69436190D01*
X68363333Y-69436190D01*
X68410952Y-69460000D01*
X68458571Y-69507619D01*
X68482380Y-69602857D01*
X68482380Y-69769523D01*
X68458571Y-69864761D01*
X68410952Y-69912380D01*
X68363333Y-69936190D01*
X68268095Y-69936190D01*
X68672857Y-69483809D02*
X68696666Y-69460000D01*
X68744285Y-69436190D01*
X68863333Y-69436190D01*
X68910952Y-69460000D01*
X68934761Y-69483809D01*
X68958571Y-69531428D01*
X68958571Y-69579047D01*
X68934761Y-69650476D01*
X68649047Y-69936190D01*
X68958571Y-69936190D01*
X69196666Y-69936190D02*
X69291904Y-69936190D01*
X69339523Y-69912380D01*
X69363333Y-69888571D01*
X69410952Y-69817142D01*
X69434761Y-69721904D01*
X69434761Y-69531428D01*
X69410952Y-69483809D01*
X69387142Y-69460000D01*
X69339523Y-69436190D01*
X69244285Y-69436190D01*
X69196666Y-69460000D01*
X69172857Y-69483809D01*
X69149047Y-69531428D01*
X69149047Y-69650476D01*
X69172857Y-69698095D01*
X69196666Y-69721904D01*
X69244285Y-69745714D01*
X69339523Y-69745714D01*
X69387142Y-69721904D01*
X69410952Y-69698095D01*
X69434761Y-69650476D01*
X69601428Y-69436190D02*
X69934761Y-69436190D01*
X69720476Y-69936190D01*
X70220476Y-69436190D02*
X70268095Y-69436190D01*
X70315714Y-69460000D01*
X70339523Y-69483809D01*
X70363333Y-69531428D01*
X70387142Y-69626666D01*
X70387142Y-69745714D01*
X70363333Y-69840952D01*
X70339523Y-69888571D01*
X70315714Y-69912380D01*
X70268095Y-69936190D01*
X70220476Y-69936190D01*
X70172857Y-69912380D01*
X70149047Y-69888571D01*
X70125238Y-69840952D01*
X70101428Y-69745714D01*
X70101428Y-69626666D01*
X70125238Y-69531428D01*
X70149047Y-69483809D01*
X70172857Y-69460000D01*
X70220476Y-69436190D01*
X70553809Y-69436190D02*
X70887142Y-69436190D01*
X70672857Y-69936190D01*
X71458571Y-69936190D02*
X71458571Y-69436190D01*
X71649047Y-69436190D01*
X71696666Y-69460000D01*
X71720476Y-69483809D01*
X71744285Y-69531428D01*
X71744285Y-69602857D01*
X71720476Y-69650476D01*
X71696666Y-69674285D01*
X71649047Y-69698095D01*
X71458571Y-69698095D01*
X71958571Y-69936190D02*
X71958571Y-69602857D01*
X71958571Y-69436190D02*
X71934761Y-69460000D01*
X71958571Y-69483809D01*
X71982380Y-69460000D01*
X71958571Y-69436190D01*
X71958571Y-69483809D01*
X72196666Y-69602857D02*
X72196666Y-69936190D01*
X72196666Y-69650476D02*
X72220476Y-69626666D01*
X72268095Y-69602857D01*
X72339523Y-69602857D01*
X72387142Y-69626666D01*
X72410952Y-69674285D01*
X72410952Y-69936190D01*
X72910952Y-69936190D02*
X72625238Y-69936190D01*
X72768095Y-69936190D02*
X72768095Y-69436190D01*
X72720476Y-69507619D01*
X72672857Y-69555238D01*
X72625238Y-69579047D01*
D13*
X100641428Y-92708571D02*
X100974761Y-92708571D01*
X101117619Y-93232380D02*
X100641428Y-93232380D01*
X100641428Y-92232380D01*
X101117619Y-92232380D01*
X101546190Y-93232380D02*
X101546190Y-92232380D01*
X101927142Y-92232380D01*
X102022380Y-92280000D01*
X102070000Y-92327619D01*
X102117619Y-92422857D01*
X102117619Y-92565714D01*
X102070000Y-92660952D01*
X102022380Y-92708571D01*
X101927142Y-92756190D01*
X101546190Y-92756190D01*
X102498571Y-93184761D02*
X102641428Y-93232380D01*
X102879523Y-93232380D01*
X102974761Y-93184761D01*
X103022380Y-93137142D01*
X103070000Y-93041904D01*
X103070000Y-92946666D01*
X103022380Y-92851428D01*
X102974761Y-92803809D01*
X102879523Y-92756190D01*
X102689047Y-92708571D01*
X102593809Y-92660952D01*
X102546190Y-92613333D01*
X102498571Y-92518095D01*
X102498571Y-92422857D01*
X102546190Y-92327619D01*
X102593809Y-92280000D01*
X102689047Y-92232380D01*
X102927142Y-92232380D01*
X103070000Y-92280000D01*
X104260476Y-93232380D02*
X104260476Y-92232380D01*
X104641428Y-92232380D01*
X104736666Y-92280000D01*
X104784285Y-92327619D01*
X104831904Y-92422857D01*
X104831904Y-92565714D01*
X104784285Y-92660952D01*
X104736666Y-92708571D01*
X104641428Y-92756190D01*
X104260476Y-92756190D01*
X105260476Y-93232380D02*
X105260476Y-92565714D01*
X105260476Y-92756190D02*
X105308095Y-92660952D01*
X105355714Y-92613333D01*
X105450952Y-92565714D01*
X105546190Y-92565714D01*
X106022380Y-93232380D02*
X105927142Y-93184761D01*
X105879523Y-93137142D01*
X105831904Y-93041904D01*
X105831904Y-92756190D01*
X105879523Y-92660952D01*
X105927142Y-92613333D01*
X106022380Y-92565714D01*
X106165238Y-92565714D01*
X106260476Y-92613333D01*
X106308095Y-92660952D01*
X106355714Y-92756190D01*
X106355714Y-93041904D01*
X106308095Y-93137142D01*
X106260476Y-93184761D01*
X106165238Y-93232380D01*
X106022380Y-93232380D01*
X106641428Y-92565714D02*
X107022380Y-92565714D01*
X106784285Y-92232380D02*
X106784285Y-93089523D01*
X106831904Y-93184761D01*
X106927142Y-93232380D01*
X107022380Y-93232380D01*
X107498571Y-93232380D02*
X107403333Y-93184761D01*
X107355714Y-93137142D01*
X107308095Y-93041904D01*
X107308095Y-92756190D01*
X107355714Y-92660952D01*
X107403333Y-92613333D01*
X107498571Y-92565714D01*
X107641428Y-92565714D01*
X107736666Y-92613333D01*
X107784285Y-92660952D01*
X107831904Y-92756190D01*
X107831904Y-93041904D01*
X107784285Y-93137142D01*
X107736666Y-93184761D01*
X107641428Y-93232380D01*
X107498571Y-93232380D01*
X108260476Y-93232380D02*
X108260476Y-92232380D01*
X108260476Y-92613333D02*
X108355714Y-92565714D01*
X108546190Y-92565714D01*
X108641428Y-92613333D01*
X108689047Y-92660952D01*
X108736666Y-92756190D01*
X108736666Y-93041904D01*
X108689047Y-93137142D01*
X108641428Y-93184761D01*
X108546190Y-93232380D01*
X108355714Y-93232380D01*
X108260476Y-93184761D01*
X109308095Y-93232380D02*
X109212857Y-93184761D01*
X109165238Y-93137142D01*
X109117619Y-93041904D01*
X109117619Y-92756190D01*
X109165238Y-92660952D01*
X109212857Y-92613333D01*
X109308095Y-92565714D01*
X109450952Y-92565714D01*
X109546190Y-92613333D01*
X109593809Y-92660952D01*
X109641428Y-92756190D01*
X109641428Y-93041904D01*
X109593809Y-93137142D01*
X109546190Y-93184761D01*
X109450952Y-93232380D01*
X109308095Y-93232380D01*
X110498571Y-93232380D02*
X110498571Y-92708571D01*
X110450952Y-92613333D01*
X110355714Y-92565714D01*
X110165238Y-92565714D01*
X110070000Y-92613333D01*
X110498571Y-93184761D02*
X110403333Y-93232380D01*
X110165238Y-93232380D01*
X110070000Y-93184761D01*
X110022380Y-93089523D01*
X110022380Y-92994285D01*
X110070000Y-92899047D01*
X110165238Y-92851428D01*
X110403333Y-92851428D01*
X110498571Y-92803809D01*
X110974761Y-93232380D02*
X110974761Y-92565714D01*
X110974761Y-92756190D02*
X111022380Y-92660952D01*
X111070000Y-92613333D01*
X111165238Y-92565714D01*
X111260476Y-92565714D01*
X112022380Y-93232380D02*
X112022380Y-92232380D01*
X112022380Y-93184761D02*
X111927142Y-93232380D01*
X111736666Y-93232380D01*
X111641428Y-93184761D01*
X111593809Y-93137142D01*
X111546190Y-93041904D01*
X111546190Y-92756190D01*
X111593809Y-92660952D01*
X111641428Y-92613333D01*
X111736666Y-92565714D01*
X111927142Y-92565714D01*
X112022380Y-92613333D01*
X112498571Y-93137142D02*
X112546190Y-93184761D01*
X112498571Y-93232380D01*
X112450952Y-93184761D01*
X112498571Y-93137142D01*
X112498571Y-93232380D01*
X112498571Y-92613333D02*
X112546190Y-92660952D01*
X112498571Y-92708571D01*
X112450952Y-92660952D01*
X112498571Y-92613333D01*
X112498571Y-92708571D01*
D14*
X113446762Y-95072144D02*
X113581449Y-95004800D01*
X113648793Y-95004800D01*
X113749808Y-95038472D01*
X113850823Y-95139487D01*
X113884495Y-95240502D01*
X113884495Y-95307846D01*
X113850823Y-95408861D01*
X113581449Y-95678235D01*
X112874342Y-94971128D01*
X113110045Y-94735426D01*
X113211060Y-94701754D01*
X113278403Y-94701754D01*
X113379419Y-94735426D01*
X113446762Y-94802770D01*
X113480434Y-94903785D01*
X113480434Y-94971128D01*
X113446762Y-95072144D01*
X113211060Y-95307846D01*
X114591602Y-94668083D02*
X114221212Y-94297693D01*
X114120197Y-94264022D01*
X114019182Y-94297693D01*
X113884495Y-94432380D01*
X113850823Y-94533396D01*
X114557930Y-94634411D02*
X114524258Y-94735426D01*
X114355899Y-94903785D01*
X114254884Y-94937457D01*
X114153869Y-94903785D01*
X114086525Y-94836441D01*
X114052854Y-94735426D01*
X114086525Y-94634411D01*
X114254884Y-94466052D01*
X114288556Y-94365037D01*
X115029335Y-94230350D02*
X114928319Y-94264022D01*
X114827304Y-94230350D01*
X114221212Y-93624258D01*
X115399724Y-93859961D02*
X115298709Y-93893632D01*
X115197693Y-93859960D01*
X114591602Y-93253869D01*
X115904800Y-93287541D02*
X115871128Y-93388556D01*
X115736441Y-93523243D01*
X115635426Y-93556915D01*
X115534411Y-93523243D01*
X115265037Y-93253869D01*
X115231365Y-93152854D01*
X115265037Y-93051838D01*
X115399724Y-92917151D01*
X115500739Y-92883480D01*
X115601754Y-92917151D01*
X115669098Y-92984495D01*
X115399724Y-93388556D01*
X115803785Y-92513090D02*
X116275189Y-92984495D01*
X115871128Y-92580434D02*
X115871128Y-92513090D01*
X115904800Y-92412075D01*
X116005815Y-92311060D01*
X116106831Y-92277388D01*
X116207846Y-92311060D01*
X116578235Y-92681449D01*
X115014183Y-96302847D02*
X115014183Y-96370190D01*
X114946839Y-96504877D01*
X114879496Y-96572221D01*
X114744809Y-96639564D01*
X114610122Y-96639564D01*
X114509106Y-96605892D01*
X114340748Y-96504877D01*
X114239732Y-96403862D01*
X114138717Y-96235503D01*
X114105045Y-96134488D01*
X114105045Y-95999801D01*
X114172389Y-95865114D01*
X114239732Y-95797770D01*
X114374419Y-95730427D01*
X114441763Y-95730427D01*
X115384572Y-96067144D02*
X114913167Y-95595740D01*
X115047854Y-95730427D02*
X115014183Y-95629412D01*
X115014183Y-95562068D01*
X115047854Y-95461053D01*
X115115198Y-95393709D01*
X115822305Y-95629412D02*
X115350900Y-95158007D01*
X115115198Y-94922305D02*
X115115198Y-94989648D01*
X115182541Y-94989648D01*
X115182541Y-94922305D01*
X115115198Y-94922305D01*
X115182541Y-94989648D01*
X116091679Y-95292694D02*
X116192694Y-95259022D01*
X116327381Y-95124335D01*
X116361053Y-95023320D01*
X116327381Y-94922305D01*
X116293709Y-94888633D01*
X116192694Y-94854961D01*
X116091679Y-94888633D01*
X115990664Y-94989648D01*
X115889648Y-95023320D01*
X115788633Y-94989648D01*
X115754961Y-94955977D01*
X115721289Y-94854961D01*
X115754961Y-94753946D01*
X115855977Y-94652931D01*
X115956992Y-94619259D01*
X116260038Y-94248870D02*
X116967144Y-94955976D01*
X116293709Y-94282541D02*
X116327381Y-94181526D01*
X116462068Y-94046839D01*
X116563083Y-94013167D01*
X116630427Y-94013167D01*
X116731442Y-94046839D01*
X116933473Y-94248870D01*
X116967144Y-94349885D01*
X116967144Y-94417228D01*
X116933473Y-94518244D01*
X116798786Y-94652931D01*
X116697770Y-94686602D01*
X117472221Y-93979496D02*
X117371205Y-94013167D01*
X117303862Y-94013167D01*
X117202847Y-93979496D01*
X117000816Y-93777465D01*
X116967144Y-93676450D01*
X116967144Y-93609106D01*
X117000816Y-93508091D01*
X117101831Y-93407076D01*
X117202847Y-93373404D01*
X117270190Y-93373404D01*
X117371205Y-93407076D01*
X117573236Y-93609106D01*
X117606908Y-93710122D01*
X117606908Y-93777465D01*
X117573236Y-93878480D01*
X117472221Y-93979496D01*
X116295393Y-97348355D02*
X115958676Y-97685072D01*
X115251569Y-96977966D01*
X116531096Y-97112653D02*
X116059691Y-96641248D01*
X115823989Y-96405546D02*
X115823989Y-96472889D01*
X115891332Y-96472889D01*
X115891332Y-96405546D01*
X115823989Y-96405546D01*
X115891332Y-96472889D01*
X116867813Y-96775935D02*
X116160706Y-96068828D01*
X116901485Y-96338202D01*
X116632111Y-95597424D01*
X117339218Y-96304531D01*
X117978981Y-95664767D02*
X117608592Y-95294378D01*
X117507576Y-95260706D01*
X117406561Y-95294378D01*
X117271874Y-95429065D01*
X117238202Y-95530080D01*
X117945309Y-95631096D02*
X117911637Y-95732111D01*
X117743279Y-95900470D01*
X117642263Y-95934141D01*
X117541248Y-95900470D01*
X117473905Y-95833126D01*
X117440233Y-95732111D01*
X117473905Y-95631096D01*
X117642263Y-95462737D01*
X117675935Y-95361722D01*
X118585072Y-94991332D02*
X118551401Y-95092348D01*
X118416714Y-95227035D01*
X118315698Y-95260706D01*
X118248355Y-95260706D01*
X118147340Y-95227035D01*
X117945309Y-95025004D01*
X117911637Y-94923989D01*
X117911637Y-94856645D01*
X117945309Y-94755630D01*
X118079996Y-94620943D01*
X118181011Y-94587271D01*
X116852661Y-98983119D02*
X116145555Y-98276012D01*
X116313913Y-98107653D01*
X116448600Y-98040310D01*
X116583287Y-98040310D01*
X116684303Y-98073982D01*
X116852661Y-98174997D01*
X116953677Y-98276012D01*
X117054692Y-98444371D01*
X117088364Y-98545386D01*
X117088364Y-98680073D01*
X117021020Y-98814760D01*
X116852661Y-98983119D01*
X117559768Y-98276012D02*
X117088364Y-97804608D01*
X117155707Y-97871951D02*
X117155707Y-97804608D01*
X117189379Y-97703592D01*
X117290394Y-97602577D01*
X117391409Y-97568905D01*
X117492425Y-97602577D01*
X117862814Y-97972966D01*
X117492425Y-97602577D02*
X117458753Y-97501562D01*
X117492425Y-97400547D01*
X117593440Y-97299531D01*
X117694455Y-97265860D01*
X117795470Y-97299531D01*
X118165860Y-97669921D01*
X118502577Y-97333203D02*
X118031173Y-96861799D01*
X117795470Y-96626096D02*
X117795470Y-96693440D01*
X117862814Y-96693440D01*
X117862814Y-96626096D01*
X117795470Y-96626096D01*
X117862814Y-96693440D01*
X118266875Y-96626096D02*
X118536249Y-96356722D01*
X118132188Y-96289379D02*
X118738279Y-96895470D01*
X118839295Y-96929142D01*
X118940310Y-96895470D01*
X119007653Y-96828127D01*
X119243356Y-96592425D02*
X118771951Y-96121020D01*
X118906638Y-96255707D02*
X118872966Y-96154692D01*
X118872966Y-96087348D01*
X118906638Y-95986333D01*
X118973982Y-95918990D01*
X119142340Y-95750631D02*
X119782104Y-96053677D01*
X119479058Y-95413913D02*
X119782104Y-96053677D01*
X119883119Y-96289379D01*
X119883119Y-96356722D01*
X119849447Y-96457738D01*
X117426765Y-100601047D02*
X116719658Y-99893940D01*
X117460437Y-100163314D01*
X117191063Y-99422536D01*
X117898170Y-100129643D01*
X118504261Y-99456208D02*
X118470589Y-99557223D01*
X118335902Y-99691910D01*
X118234887Y-99725582D01*
X118167544Y-99725582D01*
X118066528Y-99691910D01*
X117864498Y-99489879D01*
X117830826Y-99388864D01*
X117830826Y-99321521D01*
X117864498Y-99220505D01*
X117999185Y-99085818D01*
X118100200Y-99052147D01*
X119379727Y-98782773D02*
X119278712Y-98816444D01*
X119144025Y-98816444D01*
X118941994Y-98816444D01*
X118840979Y-98850116D01*
X118773635Y-98917460D01*
X118975666Y-99052147D02*
X118874650Y-99085818D01*
X118739963Y-99085818D01*
X118571605Y-98984803D01*
X118335902Y-98749101D01*
X118234887Y-98580742D01*
X118234887Y-98446055D01*
X118268559Y-98345040D01*
X118403246Y-98210353D01*
X118504261Y-98176681D01*
X118638948Y-98176681D01*
X118807307Y-98277696D01*
X119043009Y-98513399D01*
X119144025Y-98681757D01*
X119144025Y-98816444D01*
X119110353Y-98917460D01*
X118975666Y-99052147D01*
X119413399Y-97671605D02*
X119884803Y-98143009D01*
X119110353Y-97974650D02*
X119480742Y-98345040D01*
X119581757Y-98378712D01*
X119682773Y-98345040D01*
X119783788Y-98244025D01*
X119817460Y-98143009D01*
X119817460Y-98075666D01*
X120524566Y-97503246D02*
X120154177Y-97132857D01*
X120053162Y-97099185D01*
X119952147Y-97132857D01*
X119817460Y-97267544D01*
X119783788Y-97368559D01*
X120490895Y-97469574D02*
X120457223Y-97570589D01*
X120288864Y-97738948D01*
X120187849Y-97772620D01*
X120086834Y-97738948D01*
X120019490Y-97671605D01*
X119985818Y-97570589D01*
X120019490Y-97469574D01*
X120187849Y-97301215D01*
X120221521Y-97200200D01*
X120861284Y-97166528D02*
X120389879Y-96695124D01*
X120154177Y-96459422D02*
X120154177Y-96526765D01*
X120221521Y-96526765D01*
X120221521Y-96459422D01*
X120154177Y-96459422D01*
X120221521Y-96526765D01*
X121501047Y-96526765D02*
X120793940Y-95819658D01*
X121467375Y-96493093D02*
X121433704Y-96594109D01*
X121299017Y-96728796D01*
X121198001Y-96762467D01*
X121130658Y-96762467D01*
X121029643Y-96728796D01*
X120827612Y-96526765D01*
X120793940Y-96425750D01*
X120793940Y-96358406D01*
X120827612Y-96257391D01*
X120962299Y-96122704D01*
X121063314Y-96089032D01*
X119078365Y-100198670D02*
X119718128Y-100501716D01*
X119415083Y-99861953D01*
X120526250Y-99693594D02*
X120122189Y-100097655D01*
X120324220Y-99895624D02*
X119617113Y-99188518D01*
X119650785Y-99356876D01*
X119650785Y-99491563D01*
X119617113Y-99592579D01*
X120761953Y-99323205D02*
X120829296Y-99323205D01*
X120829296Y-99390548D01*
X120761953Y-99390548D01*
X120761953Y-99323205D01*
X120829296Y-99390548D01*
X120593594Y-98212037D02*
X120660937Y-98144693D01*
X120761953Y-98111022D01*
X120829296Y-98111022D01*
X120930311Y-98144693D01*
X121098670Y-98245709D01*
X121267029Y-98414067D01*
X121368044Y-98582426D01*
X121401716Y-98683441D01*
X121401716Y-98750785D01*
X121368044Y-98851800D01*
X121300701Y-98919144D01*
X121199685Y-98952815D01*
X121132342Y-98952815D01*
X121031327Y-98919144D01*
X120862968Y-98818128D01*
X120694609Y-98649770D01*
X120593594Y-98481411D01*
X120559922Y-98380396D01*
X120559922Y-98313052D01*
X120593594Y-98212037D01*
D15*
X27227142Y-55067142D02*
X27298571Y-54852857D01*
X27298571Y-54495714D01*
X27227142Y-54352857D01*
X27155714Y-54281428D01*
X27012857Y-54210000D01*
X26870000Y-54210000D01*
X26727142Y-54281428D01*
X26655714Y-54352857D01*
X26584285Y-54495714D01*
X26512857Y-54781428D01*
X26441428Y-54924285D01*
X26370000Y-54995714D01*
X26227142Y-55067142D01*
X26084285Y-55067142D01*
X25941428Y-54995714D01*
X25870000Y-54924285D01*
X25798571Y-54781428D01*
X25798571Y-54424285D01*
X25870000Y-54210000D01*
X27298571Y-53567142D02*
X25798571Y-53567142D01*
X27298571Y-52924285D02*
X26512857Y-52924285D01*
X26370000Y-52995714D01*
X26298571Y-53138571D01*
X26298571Y-53352857D01*
X26370000Y-53495714D01*
X26441428Y-53567142D01*
X27298571Y-51995714D02*
X27227142Y-52138571D01*
X27155714Y-52210000D01*
X27012857Y-52281428D01*
X26584285Y-52281428D01*
X26441428Y-52210000D01*
X26370000Y-52138571D01*
X26298571Y-51995714D01*
X26298571Y-51781428D01*
X26370000Y-51638571D01*
X26441428Y-51567142D01*
X26584285Y-51495714D01*
X27012857Y-51495714D01*
X27155714Y-51567142D01*
X27227142Y-51638571D01*
X27298571Y-51781428D01*
X27298571Y-51995714D01*
X27298571Y-50852857D02*
X26298571Y-50852857D01*
X26584285Y-50852857D02*
X26441428Y-50781428D01*
X26370000Y-50710000D01*
X26298571Y-50567142D01*
X26298571Y-50424285D01*
X26298571Y-50138571D02*
X26298571Y-49567142D01*
X25798571Y-49924285D02*
X27084285Y-49924285D01*
X27227142Y-49852857D01*
X27298571Y-49710000D01*
X27298571Y-49567142D01*
X27227142Y-47995714D02*
X27298571Y-47781428D01*
X27298571Y-47424285D01*
X27227142Y-47281428D01*
X27155714Y-47210000D01*
X27012857Y-47138571D01*
X26870000Y-47138571D01*
X26727142Y-47210000D01*
X26655714Y-47281428D01*
X26584285Y-47424285D01*
X26512857Y-47710000D01*
X26441428Y-47852857D01*
X26370000Y-47924285D01*
X26227142Y-47995714D01*
X26084285Y-47995714D01*
X25941428Y-47924285D01*
X25870000Y-47852857D01*
X25798571Y-47710000D01*
X25798571Y-47352857D01*
X25870000Y-47138571D01*
X26298571Y-46638571D02*
X27298571Y-46352857D01*
X26584285Y-46067142D01*
X27298571Y-45781428D01*
X26298571Y-45495714D01*
X27298571Y-44924285D02*
X26298571Y-44924285D01*
X25798571Y-44924285D02*
X25870000Y-44995714D01*
X25941428Y-44924285D01*
X25870000Y-44852857D01*
X25798571Y-44924285D01*
X25941428Y-44924285D01*
X26298571Y-44424285D02*
X26298571Y-43852857D01*
X25798571Y-44210000D02*
X27084285Y-44210000D01*
X27227142Y-44138571D01*
X27298571Y-43995714D01*
X27298571Y-43852857D01*
X27227142Y-42710000D02*
X27298571Y-42852857D01*
X27298571Y-43138571D01*
X27227142Y-43281428D01*
X27155714Y-43352857D01*
X27012857Y-43424285D01*
X26584285Y-43424285D01*
X26441428Y-43352857D01*
X26370000Y-43281428D01*
X26298571Y-43138571D01*
X26298571Y-42852857D01*
X26370000Y-42710000D01*
X27298571Y-42067142D02*
X25798571Y-42067142D01*
X27298571Y-41424285D02*
X26512857Y-41424285D01*
X26370000Y-41495714D01*
X26298571Y-41638571D01*
X26298571Y-41852857D01*
X26370000Y-41995714D01*
X26441428Y-42067142D01*
D10*
X116120000Y-70810000D02*
X123020000Y-70810000D01*
D13*
X85217619Y-88462380D02*
X85217619Y-87462380D01*
X85598571Y-87462380D01*
X85693809Y-87510000D01*
X85741428Y-87557619D01*
X85789047Y-87652857D01*
X85789047Y-87795714D01*
X85741428Y-87890952D01*
X85693809Y-87938571D01*
X85598571Y-87986190D01*
X85217619Y-87986190D01*
X86360476Y-88462380D02*
X86265238Y-88414761D01*
X86217619Y-88367142D01*
X86170000Y-88271904D01*
X86170000Y-87986190D01*
X86217619Y-87890952D01*
X86265238Y-87843333D01*
X86360476Y-87795714D01*
X86503333Y-87795714D01*
X86598571Y-87843333D01*
X86646190Y-87890952D01*
X86693809Y-87986190D01*
X86693809Y-88271904D01*
X86646190Y-88367142D01*
X86598571Y-88414761D01*
X86503333Y-88462380D01*
X86360476Y-88462380D01*
X87550952Y-87795714D02*
X87550952Y-88462380D01*
X87122380Y-87795714D02*
X87122380Y-88319523D01*
X87170000Y-88414761D01*
X87265238Y-88462380D01*
X87408095Y-88462380D01*
X87503333Y-88414761D01*
X87550952Y-88367142D01*
X87884285Y-87795714D02*
X88265238Y-87795714D01*
X88027142Y-87462380D02*
X88027142Y-88319523D01*
X88074761Y-88414761D01*
X88170000Y-88462380D01*
X88265238Y-88462380D01*
D10*
X83820000Y-70810000D02*
X117720000Y-70810000D01*
X26720000Y-47810000D02*
X23840000Y-47810000D01*
X64720000Y-47910000D02*
X26720000Y-47810000D01*
X64720000Y-70810000D02*
X64720000Y-47910000D01*
X36820000Y-48410000D02*
X36820000Y-61110000D01*
X62220000Y-61110000D02*
X36820000Y-61110000D01*
X62220000Y-48410000D02*
X62220000Y-61110000D01*
X36820000Y-48410000D02*
X62220000Y-48410000D01*
X23840000Y-70760000D02*
X83820000Y-70810000D01*
D13*
X108886666Y-53767142D02*
X108839047Y-53814761D01*
X108696190Y-53862380D01*
X108600952Y-53862380D01*
X108458095Y-53814761D01*
X108362857Y-53719523D01*
X108315238Y-53624285D01*
X108267619Y-53433809D01*
X108267619Y-53290952D01*
X108315238Y-53100476D01*
X108362857Y-53005238D01*
X108458095Y-52910000D01*
X108600952Y-52862380D01*
X108696190Y-52862380D01*
X108839047Y-52910000D01*
X108886666Y-52957619D01*
X109315238Y-53862380D02*
X109315238Y-52862380D01*
X109743809Y-53862380D02*
X109743809Y-53338571D01*
X109696190Y-53243333D01*
X109600952Y-53195714D01*
X109458095Y-53195714D01*
X109362857Y-53243333D01*
X109315238Y-53290952D01*
X110648571Y-53862380D02*
X110648571Y-53338571D01*
X110600952Y-53243333D01*
X110505714Y-53195714D01*
X110315238Y-53195714D01*
X110220000Y-53243333D01*
X110648571Y-53814761D02*
X110553333Y-53862380D01*
X110315238Y-53862380D01*
X110220000Y-53814761D01*
X110172380Y-53719523D01*
X110172380Y-53624285D01*
X110220000Y-53529047D01*
X110315238Y-53481428D01*
X110553333Y-53481428D01*
X110648571Y-53433809D01*
X111124761Y-53862380D02*
X111124761Y-53195714D01*
X111124761Y-53386190D02*
X111172380Y-53290952D01*
X111220000Y-53243333D01*
X111315238Y-53195714D01*
X111410476Y-53195714D01*
X112172380Y-53195714D02*
X112172380Y-54005238D01*
X112124761Y-54100476D01*
X112077142Y-54148095D01*
X111981904Y-54195714D01*
X111839047Y-54195714D01*
X111743809Y-54148095D01*
X112172380Y-53814761D02*
X112077142Y-53862380D01*
X111886666Y-53862380D01*
X111791428Y-53814761D01*
X111743809Y-53767142D01*
X111696190Y-53671904D01*
X111696190Y-53386190D01*
X111743809Y-53290952D01*
X111791428Y-53243333D01*
X111886666Y-53195714D01*
X112077142Y-53195714D01*
X112172380Y-53243333D01*
X112648571Y-53862380D02*
X112648571Y-53195714D01*
X112648571Y-52862380D02*
X112600952Y-52910000D01*
X112648571Y-52957619D01*
X112696190Y-52910000D01*
X112648571Y-52862380D01*
X112648571Y-52957619D01*
X113124761Y-53195714D02*
X113124761Y-53862380D01*
X113124761Y-53290952D02*
X113172380Y-53243333D01*
X113267619Y-53195714D01*
X113410476Y-53195714D01*
X113505714Y-53243333D01*
X113553333Y-53338571D01*
X113553333Y-53862380D01*
X114458095Y-53195714D02*
X114458095Y-54005238D01*
X114410476Y-54100476D01*
X114362857Y-54148095D01*
X114267619Y-54195714D01*
X114124761Y-54195714D01*
X114029523Y-54148095D01*
X114458095Y-53814761D02*
X114362857Y-53862380D01*
X114172380Y-53862380D01*
X114077142Y-53814761D01*
X114029523Y-53767142D01*
X113981904Y-53671904D01*
X113981904Y-53386190D01*
X114029523Y-53290952D01*
X114077142Y-53243333D01*
X114172380Y-53195714D01*
X114362857Y-53195714D01*
X114458095Y-53243333D01*
X116267619Y-53767142D02*
X116220000Y-53814761D01*
X116077142Y-53862380D01*
X115981904Y-53862380D01*
X115839047Y-53814761D01*
X115743809Y-53719523D01*
X115696190Y-53624285D01*
X115648571Y-53433809D01*
X115648571Y-53290952D01*
X115696190Y-53100476D01*
X115743809Y-53005238D01*
X115839047Y-52910000D01*
X115981904Y-52862380D01*
X116077142Y-52862380D01*
X116220000Y-52910000D01*
X116267619Y-52957619D01*
X116696190Y-53862380D02*
X116696190Y-53195714D01*
X116696190Y-52862380D02*
X116648571Y-52910000D01*
X116696190Y-52957619D01*
X116743809Y-52910000D01*
X116696190Y-52862380D01*
X116696190Y-52957619D01*
X117172380Y-53862380D02*
X117172380Y-53195714D01*
X117172380Y-53386190D02*
X117220000Y-53290952D01*
X117267619Y-53243333D01*
X117362857Y-53195714D01*
X117458095Y-53195714D01*
X118220000Y-53814761D02*
X118124761Y-53862380D01*
X117934285Y-53862380D01*
X117839047Y-53814761D01*
X117791428Y-53767142D01*
X117743809Y-53671904D01*
X117743809Y-53386190D01*
X117791428Y-53290952D01*
X117839047Y-53243333D01*
X117934285Y-53195714D01*
X118124761Y-53195714D01*
X118220000Y-53243333D01*
X119077142Y-53195714D02*
X119077142Y-53862380D01*
X118648571Y-53195714D02*
X118648571Y-53719523D01*
X118696190Y-53814761D01*
X118791428Y-53862380D01*
X118934285Y-53862380D01*
X119029523Y-53814761D01*
X119077142Y-53767142D01*
X119553333Y-53862380D02*
X119553333Y-53195714D01*
X119553333Y-52862380D02*
X119505714Y-52910000D01*
X119553333Y-52957619D01*
X119600952Y-52910000D01*
X119553333Y-52862380D01*
X119553333Y-52957619D01*
X119886666Y-53195714D02*
X120267619Y-53195714D01*
X120029523Y-52862380D02*
X120029523Y-53719523D01*
X120077142Y-53814761D01*
X120172380Y-53862380D01*
X120267619Y-53862380D01*
X63976666Y-73542380D02*
X63500476Y-73542380D01*
X63500476Y-72542380D01*
X64452857Y-73542380D02*
X64357619Y-73494761D01*
X64310000Y-73447142D01*
X64262380Y-73351904D01*
X64262380Y-73066190D01*
X64310000Y-72970952D01*
X64357619Y-72923333D01*
X64452857Y-72875714D01*
X64595714Y-72875714D01*
X64690952Y-72923333D01*
X64738571Y-72970952D01*
X64786190Y-73066190D01*
X64786190Y-73351904D01*
X64738571Y-73447142D01*
X64690952Y-73494761D01*
X64595714Y-73542380D01*
X64452857Y-73542380D01*
X65643333Y-73542380D02*
X65643333Y-73018571D01*
X65595714Y-72923333D01*
X65500476Y-72875714D01*
X65310000Y-72875714D01*
X65214761Y-72923333D01*
X65643333Y-73494761D02*
X65548095Y-73542380D01*
X65310000Y-73542380D01*
X65214761Y-73494761D01*
X65167142Y-73399523D01*
X65167142Y-73304285D01*
X65214761Y-73209047D01*
X65310000Y-73161428D01*
X65548095Y-73161428D01*
X65643333Y-73113809D01*
X66548095Y-73542380D02*
X66548095Y-72542380D01*
X66548095Y-73494761D02*
X66452857Y-73542380D01*
X66262380Y-73542380D01*
X66167142Y-73494761D01*
X66119523Y-73447142D01*
X66071904Y-73351904D01*
X66071904Y-73066190D01*
X66119523Y-72970952D01*
X66167142Y-72923333D01*
X66262380Y-72875714D01*
X66452857Y-72875714D01*
X66548095Y-72923333D01*
X67738571Y-73494761D02*
X67881428Y-73542380D01*
X68119523Y-73542380D01*
X68214761Y-73494761D01*
X68262380Y-73447142D01*
X68310000Y-73351904D01*
X68310000Y-73256666D01*
X68262380Y-73161428D01*
X68214761Y-73113809D01*
X68119523Y-73066190D01*
X67929047Y-73018571D01*
X67833809Y-72970952D01*
X67786190Y-72923333D01*
X67738571Y-72828095D01*
X67738571Y-72732857D01*
X67786190Y-72637619D01*
X67833809Y-72590000D01*
X67929047Y-72542380D01*
X68167142Y-72542380D01*
X68310000Y-72590000D01*
X68643333Y-72875714D02*
X68833809Y-73542380D01*
X69024285Y-73066190D01*
X69214761Y-73542380D01*
X69405238Y-72875714D01*
X69786190Y-73542380D02*
X69786190Y-72875714D01*
X69786190Y-72542380D02*
X69738571Y-72590000D01*
X69786190Y-72637619D01*
X69833809Y-72590000D01*
X69786190Y-72542380D01*
X69786190Y-72637619D01*
X70119523Y-72875714D02*
X70500476Y-72875714D01*
X70262380Y-72542380D02*
X70262380Y-73399523D01*
X70310000Y-73494761D01*
X70405238Y-73542380D01*
X70500476Y-73542380D01*
X71262380Y-73494761D02*
X71167142Y-73542380D01*
X70976666Y-73542380D01*
X70881428Y-73494761D01*
X70833809Y-73447142D01*
X70786190Y-73351904D01*
X70786190Y-73066190D01*
X70833809Y-72970952D01*
X70881428Y-72923333D01*
X70976666Y-72875714D01*
X71167142Y-72875714D01*
X71262380Y-72923333D01*
X71690952Y-73542380D02*
X71690952Y-72542380D01*
X72119523Y-73542380D02*
X72119523Y-73018571D01*
X72071904Y-72923333D01*
X71976666Y-72875714D01*
X71833809Y-72875714D01*
X71738571Y-72923333D01*
X71690952Y-72970952D01*
X62848571Y-69029047D02*
X62896190Y-68886190D01*
X62943809Y-68838571D01*
X63039047Y-68790952D01*
X63181904Y-68790952D01*
X63277142Y-68838571D01*
X63324761Y-68886190D01*
X63372380Y-68981428D01*
X63372380Y-69362380D01*
X62372380Y-69362380D01*
X62372380Y-69029047D01*
X62420000Y-68933809D01*
X62467619Y-68886190D01*
X62562857Y-68838571D01*
X62658095Y-68838571D01*
X62753333Y-68886190D01*
X62800952Y-68933809D01*
X62848571Y-69029047D01*
X62848571Y-69362380D01*
X63372380Y-67933809D02*
X62848571Y-67933809D01*
X62753333Y-67981428D01*
X62705714Y-68076666D01*
X62705714Y-68267142D01*
X62753333Y-68362380D01*
X63324761Y-67933809D02*
X63372380Y-68029047D01*
X63372380Y-68267142D01*
X63324761Y-68362380D01*
X63229523Y-68410000D01*
X63134285Y-68410000D01*
X63039047Y-68362380D01*
X62991428Y-68267142D01*
X62991428Y-68029047D01*
X62943809Y-67933809D01*
X62705714Y-67600476D02*
X62705714Y-67219523D01*
X62372380Y-67457619D02*
X63229523Y-67457619D01*
X63324761Y-67410000D01*
X63372380Y-67314761D01*
X63372380Y-67219523D01*
X62705714Y-67029047D02*
X62705714Y-66648095D01*
X62372380Y-66886190D02*
X63229523Y-66886190D01*
X63324761Y-66838571D01*
X63372380Y-66743333D01*
X63372380Y-66648095D01*
X63324761Y-65933809D02*
X63372380Y-66029047D01*
X63372380Y-66219523D01*
X63324761Y-66314761D01*
X63229523Y-66362380D01*
X62848571Y-66362380D01*
X62753333Y-66314761D01*
X62705714Y-66219523D01*
X62705714Y-66029047D01*
X62753333Y-65933809D01*
X62848571Y-65886190D01*
X62943809Y-65886190D01*
X63039047Y-66362380D01*
X63372380Y-65457619D02*
X62705714Y-65457619D01*
X62896190Y-65457619D02*
X62800952Y-65410000D01*
X62753333Y-65362380D01*
X62705714Y-65267142D01*
X62705714Y-65171904D01*
X62705714Y-64933809D02*
X63372380Y-64695714D01*
X62705714Y-64457619D02*
X63372380Y-64695714D01*
X63610476Y-64790952D01*
X63658095Y-64838571D01*
X63705714Y-64933809D01*
X63372380Y-63314761D02*
X62372380Y-63314761D01*
X62372380Y-62933809D01*
X62420000Y-62838571D01*
X62467619Y-62790952D01*
X62562857Y-62743333D01*
X62705714Y-62743333D01*
X62800952Y-62790952D01*
X62848571Y-62838571D01*
X62896190Y-62933809D01*
X62896190Y-63314761D01*
X63372380Y-62314761D02*
X62705714Y-62314761D01*
X62896190Y-62314761D02*
X62800952Y-62267142D01*
X62753333Y-62219523D01*
X62705714Y-62124285D01*
X62705714Y-62029047D01*
X63372380Y-61552857D02*
X63324761Y-61648095D01*
X63277142Y-61695714D01*
X63181904Y-61743333D01*
X62896190Y-61743333D01*
X62800952Y-61695714D01*
X62753333Y-61648095D01*
X62705714Y-61552857D01*
X62705714Y-61410000D01*
X62753333Y-61314761D01*
X62800952Y-61267142D01*
X62896190Y-61219523D01*
X63181904Y-61219523D01*
X63277142Y-61267142D01*
X63324761Y-61314761D01*
X63372380Y-61410000D01*
X63372380Y-61552857D01*
X62705714Y-60933809D02*
X62705714Y-60552857D01*
X62372380Y-60790952D02*
X63229523Y-60790952D01*
X63324761Y-60743333D01*
X63372380Y-60648095D01*
X63372380Y-60552857D01*
X63324761Y-59838571D02*
X63372380Y-59933809D01*
X63372380Y-60124285D01*
X63324761Y-60219523D01*
X63229523Y-60267142D01*
X62848571Y-60267142D01*
X62753333Y-60219523D01*
X62705714Y-60124285D01*
X62705714Y-59933809D01*
X62753333Y-59838571D01*
X62848571Y-59790952D01*
X62943809Y-59790952D01*
X63039047Y-60267142D01*
X63324761Y-58933809D02*
X63372380Y-59029047D01*
X63372380Y-59219523D01*
X63324761Y-59314761D01*
X63277142Y-59362380D01*
X63181904Y-59410000D01*
X62896190Y-59410000D01*
X62800952Y-59362380D01*
X62753333Y-59314761D01*
X62705714Y-59219523D01*
X62705714Y-59029047D01*
X62753333Y-58933809D01*
X62705714Y-58648095D02*
X62705714Y-58267142D01*
X62372380Y-58505238D02*
X63229523Y-58505238D01*
X63324761Y-58457619D01*
X63372380Y-58362380D01*
X63372380Y-58267142D01*
X63372380Y-57933809D02*
X62705714Y-57933809D01*
X62372380Y-57933809D02*
X62420000Y-57981428D01*
X62467619Y-57933809D01*
X62420000Y-57886190D01*
X62372380Y-57933809D01*
X62467619Y-57933809D01*
X63372380Y-57314761D02*
X63324761Y-57410000D01*
X63277142Y-57457619D01*
X63181904Y-57505238D01*
X62896190Y-57505238D01*
X62800952Y-57457619D01*
X62753333Y-57410000D01*
X62705714Y-57314761D01*
X62705714Y-57171904D01*
X62753333Y-57076666D01*
X62800952Y-57029047D01*
X62896190Y-56981428D01*
X63181904Y-56981428D01*
X63277142Y-57029047D01*
X63324761Y-57076666D01*
X63372380Y-57171904D01*
X63372380Y-57314761D01*
X62705714Y-56552857D02*
X63372380Y-56552857D01*
X62800952Y-56552857D02*
X62753333Y-56505238D01*
X62705714Y-56410000D01*
X62705714Y-56267142D01*
X62753333Y-56171904D01*
X62848571Y-56124285D01*
X63372380Y-56124285D01*
X63277142Y-54314761D02*
X63324761Y-54362380D01*
X63372380Y-54505238D01*
X63372380Y-54600476D01*
X63324761Y-54743333D01*
X63229523Y-54838571D01*
X63134285Y-54886190D01*
X62943809Y-54933809D01*
X62800952Y-54933809D01*
X62610476Y-54886190D01*
X62515238Y-54838571D01*
X62420000Y-54743333D01*
X62372380Y-54600476D01*
X62372380Y-54505238D01*
X62420000Y-54362380D01*
X62467619Y-54314761D01*
X63372380Y-53886190D02*
X62705714Y-53886190D01*
X62372380Y-53886190D02*
X62420000Y-53933809D01*
X62467619Y-53886190D01*
X62420000Y-53838571D01*
X62372380Y-53886190D01*
X62467619Y-53886190D01*
X63372380Y-53410000D02*
X62705714Y-53410000D01*
X62896190Y-53410000D02*
X62800952Y-53362380D01*
X62753333Y-53314761D01*
X62705714Y-53219523D01*
X62705714Y-53124285D01*
X63324761Y-52362380D02*
X63372380Y-52457619D01*
X63372380Y-52648095D01*
X63324761Y-52743333D01*
X63277142Y-52790952D01*
X63181904Y-52838571D01*
X62896190Y-52838571D01*
X62800952Y-52790952D01*
X62753333Y-52743333D01*
X62705714Y-52648095D01*
X62705714Y-52457619D01*
X62753333Y-52362380D01*
X62705714Y-51505238D02*
X63372380Y-51505238D01*
X62705714Y-51933809D02*
X63229523Y-51933809D01*
X63324761Y-51886190D01*
X63372380Y-51790952D01*
X63372380Y-51648095D01*
X63324761Y-51552857D01*
X63277142Y-51505238D01*
X63372380Y-51029047D02*
X62705714Y-51029047D01*
X62372380Y-51029047D02*
X62420000Y-51076666D01*
X62467619Y-51029047D01*
X62420000Y-50981428D01*
X62372380Y-51029047D01*
X62467619Y-51029047D01*
X62705714Y-50695714D02*
X62705714Y-50314761D01*
X62372380Y-50552857D02*
X63229523Y-50552857D01*
X63324761Y-50505238D01*
X63372380Y-50410000D01*
X63372380Y-50314761D01*
X47258095Y-87262380D02*
X47829523Y-87262380D01*
X47543809Y-88262380D02*
X47543809Y-87262380D01*
X48162857Y-88262380D02*
X48162857Y-87595714D01*
X48162857Y-87262380D02*
X48115238Y-87310000D01*
X48162857Y-87357619D01*
X48210476Y-87310000D01*
X48162857Y-87262380D01*
X48162857Y-87357619D01*
X48639047Y-88262380D02*
X48639047Y-87595714D01*
X48639047Y-87690952D02*
X48686666Y-87643333D01*
X48781904Y-87595714D01*
X48924761Y-87595714D01*
X49020000Y-87643333D01*
X49067619Y-87738571D01*
X49067619Y-88262380D01*
X49067619Y-87738571D02*
X49115238Y-87643333D01*
X49210476Y-87595714D01*
X49353333Y-87595714D01*
X49448571Y-87643333D01*
X49496190Y-87738571D01*
X49496190Y-88262380D01*
X50353333Y-88214761D02*
X50258095Y-88262380D01*
X50067619Y-88262380D01*
X49972380Y-88214761D01*
X49924761Y-88119523D01*
X49924761Y-87738571D01*
X49972380Y-87643333D01*
X50067619Y-87595714D01*
X50258095Y-87595714D01*
X50353333Y-87643333D01*
X50400952Y-87738571D01*
X50400952Y-87833809D01*
X49924761Y-87929047D01*
X50829523Y-88262380D02*
X50829523Y-87595714D01*
X50829523Y-87786190D02*
X50877142Y-87690952D01*
X50924761Y-87643333D01*
X51020000Y-87595714D01*
X51115238Y-87595714D01*
X52781904Y-88167142D02*
X52734285Y-88214761D01*
X52591428Y-88262380D01*
X52496190Y-88262380D01*
X52353333Y-88214761D01*
X52258095Y-88119523D01*
X52210476Y-88024285D01*
X52162857Y-87833809D01*
X52162857Y-87690952D01*
X52210476Y-87500476D01*
X52258095Y-87405238D01*
X52353333Y-87310000D01*
X52496190Y-87262380D01*
X52591428Y-87262380D01*
X52734285Y-87310000D01*
X52781904Y-87357619D01*
X53210476Y-88262380D02*
X53210476Y-87595714D01*
X53210476Y-87262380D02*
X53162857Y-87310000D01*
X53210476Y-87357619D01*
X53258095Y-87310000D01*
X53210476Y-87262380D01*
X53210476Y-87357619D01*
X53686666Y-88262380D02*
X53686666Y-87595714D01*
X53686666Y-87786190D02*
X53734285Y-87690952D01*
X53781904Y-87643333D01*
X53877142Y-87595714D01*
X53972380Y-87595714D01*
X54734285Y-88214761D02*
X54639047Y-88262380D01*
X54448571Y-88262380D01*
X54353333Y-88214761D01*
X54305714Y-88167142D01*
X54258095Y-88071904D01*
X54258095Y-87786190D01*
X54305714Y-87690952D01*
X54353333Y-87643333D01*
X54448571Y-87595714D01*
X54639047Y-87595714D01*
X54734285Y-87643333D01*
X55591428Y-87595714D02*
X55591428Y-88262380D01*
X55162857Y-87595714D02*
X55162857Y-88119523D01*
X55210476Y-88214761D01*
X55305714Y-88262380D01*
X55448571Y-88262380D01*
X55543809Y-88214761D01*
X55591428Y-88167142D01*
X56067619Y-88262380D02*
X56067619Y-87595714D01*
X56067619Y-87262380D02*
X56020000Y-87310000D01*
X56067619Y-87357619D01*
X56115238Y-87310000D01*
X56067619Y-87262380D01*
X56067619Y-87357619D01*
X56400952Y-87595714D02*
X56781904Y-87595714D01*
X56543809Y-87262380D02*
X56543809Y-88119523D01*
X56591428Y-88214761D01*
X56686666Y-88262380D01*
X56781904Y-88262380D01*
X113434285Y-29138571D02*
X113577142Y-29186190D01*
X113624761Y-29233809D01*
X113672380Y-29329047D01*
X113672380Y-29471904D01*
X113624761Y-29567142D01*
X113577142Y-29614761D01*
X113481904Y-29662380D01*
X113100952Y-29662380D01*
X113100952Y-28662380D01*
X113434285Y-28662380D01*
X113529523Y-28710000D01*
X113577142Y-28757619D01*
X113624761Y-28852857D01*
X113624761Y-28948095D01*
X113577142Y-29043333D01*
X113529523Y-29090952D01*
X113434285Y-29138571D01*
X113100952Y-29138571D01*
X114529523Y-29662380D02*
X114529523Y-29138571D01*
X114481904Y-29043333D01*
X114386666Y-28995714D01*
X114196190Y-28995714D01*
X114100952Y-29043333D01*
X114529523Y-29614761D02*
X114434285Y-29662380D01*
X114196190Y-29662380D01*
X114100952Y-29614761D01*
X114053333Y-29519523D01*
X114053333Y-29424285D01*
X114100952Y-29329047D01*
X114196190Y-29281428D01*
X114434285Y-29281428D01*
X114529523Y-29233809D01*
X114862857Y-28995714D02*
X115243809Y-28995714D01*
X115005714Y-28662380D02*
X115005714Y-29519523D01*
X115053333Y-29614761D01*
X115148571Y-29662380D01*
X115243809Y-29662380D01*
X115577142Y-29281428D02*
X116339047Y-29281428D01*
X30334285Y-29738571D02*
X30477142Y-29786190D01*
X30524761Y-29833809D01*
X30572380Y-29929047D01*
X30572380Y-30071904D01*
X30524761Y-30167142D01*
X30477142Y-30214761D01*
X30381904Y-30262380D01*
X30000952Y-30262380D01*
X30000952Y-29262380D01*
X30334285Y-29262380D01*
X30429523Y-29310000D01*
X30477142Y-29357619D01*
X30524761Y-29452857D01*
X30524761Y-29548095D01*
X30477142Y-29643333D01*
X30429523Y-29690952D01*
X30334285Y-29738571D01*
X30000952Y-29738571D01*
X31429523Y-30262380D02*
X31429523Y-29738571D01*
X31381904Y-29643333D01*
X31286666Y-29595714D01*
X31096190Y-29595714D01*
X31000952Y-29643333D01*
X31429523Y-30214761D02*
X31334285Y-30262380D01*
X31096190Y-30262380D01*
X31000952Y-30214761D01*
X30953333Y-30119523D01*
X30953333Y-30024285D01*
X31000952Y-29929047D01*
X31096190Y-29881428D01*
X31334285Y-29881428D01*
X31429523Y-29833809D01*
X31762857Y-29595714D02*
X32143809Y-29595714D01*
X31905714Y-29262380D02*
X31905714Y-30119523D01*
X31953333Y-30214761D01*
X32048571Y-30262380D01*
X32143809Y-30262380D01*
X32477142Y-29881428D02*
X33239047Y-29881428D01*
X32858095Y-30262380D02*
X32858095Y-29500476D01*
X63152857Y-98230000D02*
X63057619Y-98182380D01*
X62914761Y-98182380D01*
X62771904Y-98230000D01*
X62676666Y-98325238D01*
X62629047Y-98420476D01*
X62581428Y-98610952D01*
X62581428Y-98753809D01*
X62629047Y-98944285D01*
X62676666Y-99039523D01*
X62771904Y-99134761D01*
X62914761Y-99182380D01*
X63010000Y-99182380D01*
X63152857Y-99134761D01*
X63200476Y-99087142D01*
X63200476Y-98753809D01*
X63010000Y-98753809D01*
X63629047Y-99182380D02*
X63629047Y-98515714D01*
X63629047Y-98706190D02*
X63676666Y-98610952D01*
X63724285Y-98563333D01*
X63819523Y-98515714D01*
X63914761Y-98515714D01*
X64390952Y-99182380D02*
X64295714Y-99134761D01*
X64248095Y-99087142D01*
X64200476Y-98991904D01*
X64200476Y-98706190D01*
X64248095Y-98610952D01*
X64295714Y-98563333D01*
X64390952Y-98515714D01*
X64533809Y-98515714D01*
X64629047Y-98563333D01*
X64676666Y-98610952D01*
X64724285Y-98706190D01*
X64724285Y-98991904D01*
X64676666Y-99087142D01*
X64629047Y-99134761D01*
X64533809Y-99182380D01*
X64390952Y-99182380D01*
X65581428Y-98515714D02*
X65581428Y-99182380D01*
X65152857Y-98515714D02*
X65152857Y-99039523D01*
X65200476Y-99134761D01*
X65295714Y-99182380D01*
X65438571Y-99182380D01*
X65533809Y-99134761D01*
X65581428Y-99087142D01*
X66057619Y-98515714D02*
X66057619Y-99182380D01*
X66057619Y-98610952D02*
X66105238Y-98563333D01*
X66200476Y-98515714D01*
X66343333Y-98515714D01*
X66438571Y-98563333D01*
X66486190Y-98658571D01*
X66486190Y-99182380D01*
X67390952Y-99182380D02*
X67390952Y-98182380D01*
X67390952Y-99134761D02*
X67295714Y-99182380D01*
X67105238Y-99182380D01*
X67010000Y-99134761D01*
X66962380Y-99087142D01*
X66914761Y-98991904D01*
X66914761Y-98706190D01*
X66962380Y-98610952D01*
X67010000Y-98563333D01*
X67105238Y-98515714D01*
X67295714Y-98515714D01*
X67390952Y-98563333D01*
D10*
X50820000Y-51510000D02*
X50820000Y-52510000D01*
X58620000Y-70810000D02*
X58630000Y-101630000D01*
X55630000Y-53380000D02*
X58290000Y-53380000D01*
X55630000Y-53380000D02*
X55630000Y-58520000D01*
X55630000Y-58520000D02*
X58290000Y-58520000D01*
X58290000Y-53380000D02*
X58290000Y-58520000D01*
X58290000Y-50780000D02*
X58290000Y-52110000D01*
X56960000Y-50780000D02*
X58290000Y-50780000D01*
X34680000Y-32870000D02*
X30320000Y-32870000D01*
X34680000Y-46750000D02*
X34680000Y-39750000D01*
X111960000Y-46750000D02*
X34680000Y-46750000D01*
X111960000Y-39750000D02*
X111960000Y-46750000D01*
X34680000Y-25870000D02*
X34680000Y-32870000D01*
X111960000Y-25870000D02*
X34680000Y-25870000D01*
X111960000Y-32870000D02*
X111960000Y-25890000D01*
X117070000Y-30310000D02*
X114570000Y-30310000D01*
X29570000Y-30310000D02*
X32070000Y-30310000D01*
X30820000Y-31560000D02*
X30820000Y-29060000D01*
X81930000Y-55407936D02*
X81930000Y-56612064D01*
X80110000Y-55407936D02*
X80110000Y-56612064D01*
X94522064Y-51600000D02*
X93317936Y-51600000D01*
X94522064Y-53420000D02*
X93317936Y-53420000D01*
X52730000Y-54907936D02*
X52730000Y-56112064D01*
X50910000Y-54907936D02*
X50910000Y-56112064D01*
X88215001Y-50430937D02*
X88215001Y-51635065D01*
X90035001Y-50430937D02*
X90035001Y-51635065D01*
X85930000Y-50430937D02*
X85930000Y-51635065D01*
X84110000Y-50430937D02*
X84110000Y-51635065D01*
X65566999Y-91292937D02*
X65566999Y-92497065D01*
X63746999Y-91292937D02*
X63746999Y-92497065D01*
X71460000Y-91407936D02*
X71460000Y-92612064D01*
X73280000Y-91407936D02*
X73280000Y-92612064D01*
X98735000Y-59545000D02*
X102620000Y-59545000D01*
X98735000Y-57275000D02*
X98735000Y-59545000D01*
X102620000Y-57275000D02*
X98735000Y-57275000D01*
X99264400Y-64389600D02*
X105764400Y-64389600D01*
X99264400Y-64389600D02*
X99264400Y-72789600D01*
X105764400Y-64389600D02*
X105764400Y-72789600D01*
X27560000Y-73870000D02*
X29680000Y-73870000D01*
X27560000Y-73750000D02*
X27560000Y-73870000D01*
X29680000Y-73750000D02*
X29680000Y-73870000D01*
X29680000Y-71750000D02*
X29680000Y-72810000D01*
X28620000Y-71750000D02*
X29680000Y-71750000D01*
X48620000Y-71750000D02*
X49680000Y-71750000D01*
X49680000Y-71750000D02*
X49680000Y-72810000D01*
X49680000Y-73750000D02*
X49680000Y-73870000D01*
X47560000Y-73750000D02*
X47560000Y-73870000D01*
X47560000Y-73870000D02*
X49680000Y-73870000D01*
X48560000Y-76870000D02*
X50680000Y-76870000D01*
X48560000Y-76750000D02*
X48560000Y-76870000D01*
X50680000Y-76750000D02*
X50680000Y-76870000D01*
X50680000Y-74750000D02*
X50680000Y-75810000D01*
X49620000Y-74750000D02*
X50680000Y-74750000D01*
X48560000Y-96810000D02*
X50680000Y-96810000D01*
X48560000Y-96810000D02*
X48560000Y-98870000D01*
X48560000Y-98870000D02*
X50680000Y-98870000D01*
X50680000Y-96810000D02*
X50680000Y-98870000D01*
X50680000Y-94750000D02*
X50680000Y-95810000D01*
X49620000Y-94750000D02*
X50680000Y-94750000D01*
X29620000Y-96750000D02*
X30680000Y-96750000D01*
X30680000Y-96750000D02*
X30680000Y-97810000D01*
X30680000Y-98750000D02*
X30680000Y-98870000D01*
X28560000Y-98750000D02*
X28560000Y-98870000D01*
X28560000Y-98870000D02*
X30680000Y-98870000D01*
X43720000Y-69810000D02*
X38520000Y-69810000D01*
X44120000Y-64210000D02*
X37520000Y-64210000D01*
X37520000Y-64210000D02*
X37520000Y-64610000D01*
X53720000Y-69810000D02*
X53720000Y-69410000D01*
X47120000Y-69810000D02*
X53720000Y-69810000D01*
X47520000Y-64210000D02*
X52720000Y-64210000D01*
X106930000Y-56407936D02*
X106930000Y-57612064D01*
X105110000Y-56407936D02*
X105110000Y-57612064D01*
X81930000Y-60807936D02*
X81930000Y-62012064D01*
X80110000Y-60807936D02*
X80110000Y-62012064D01*
X32310000Y-67612064D02*
X32310000Y-66407936D01*
X34130000Y-67612064D02*
X34130000Y-66407936D01*
X28610000Y-67612064D02*
X28610000Y-66407936D01*
X30430000Y-67612064D02*
X30430000Y-66407936D01*
X58530000Y-67612064D02*
X58530000Y-66407936D01*
X56710000Y-67612064D02*
X56710000Y-66407936D01*
X95930000Y-57012064D02*
X95930000Y-55807936D01*
X94110000Y-57012064D02*
X94110000Y-55807936D01*
X45910000Y-51907936D02*
X45910000Y-53112064D01*
X47730000Y-51907936D02*
X47730000Y-53112064D01*
X74365000Y-52920000D02*
X67545000Y-52920000D01*
X74365000Y-48700000D02*
X67545000Y-48700000D01*
X74365000Y-52920000D02*
X74365000Y-51610000D01*
X74365000Y-50010000D02*
X74365000Y-48700000D01*
X67545000Y-52920000D02*
X67545000Y-51610000D01*
X67545000Y-50010000D02*
X67545000Y-48700000D01*
X74605000Y-53160000D02*
X73222000Y-53160000D01*
X74605000Y-53160000D02*
X74605000Y-51777000D01*
X72765000Y-51445000D02*
X72765000Y-50175000D01*
X72765000Y-50175000D02*
X69145000Y-50175000D01*
X69145000Y-50175000D02*
X69145000Y-51445000D01*
X69145000Y-51445000D02*
X72765000Y-51445000D01*
X72765000Y-51325000D02*
X71558333Y-51325000D01*
X72765000Y-51205000D02*
X71558333Y-51205000D01*
X72765000Y-51085000D02*
X71558333Y-51085000D01*
X72765000Y-50965000D02*
X71558333Y-50965000D01*
X72765000Y-50845000D02*
X71558333Y-50845000D01*
X72765000Y-50725000D02*
X71558333Y-50725000D01*
X72765000Y-50605000D02*
X71558333Y-50605000D01*
X72765000Y-50485000D02*
X71558333Y-50485000D01*
X72765000Y-50365000D02*
X71558333Y-50365000D01*
X72765000Y-50245000D02*
X71558333Y-50245000D01*
X71558333Y-51445000D02*
X71558333Y-50175000D01*
X31730000Y-81400000D02*
X31730000Y-88220000D01*
X27510000Y-81400000D02*
X27510000Y-88220000D01*
X31730000Y-81400000D02*
X30420000Y-81400000D01*
X28820000Y-81400000D02*
X27510000Y-81400000D01*
X31730000Y-88220000D02*
X30420000Y-88220000D01*
X28820000Y-88220000D02*
X27510000Y-88220000D01*
X31970000Y-81160000D02*
X31970000Y-82543000D01*
X31970000Y-81160000D02*
X30587000Y-81160000D01*
X30255000Y-83000000D02*
X28985000Y-83000000D01*
X28985000Y-83000000D02*
X28985000Y-86620000D01*
X28985000Y-86620000D02*
X30255000Y-86620000D01*
X30255000Y-86620000D02*
X30255000Y-83000000D01*
X30135000Y-83000000D02*
X30135000Y-84206667D01*
X30015000Y-83000000D02*
X30015000Y-84206667D01*
X29895000Y-83000000D02*
X29895000Y-84206667D01*
X29775000Y-83000000D02*
X29775000Y-84206667D01*
X29655000Y-83000000D02*
X29655000Y-84206667D01*
X29535000Y-83000000D02*
X29535000Y-84206667D01*
X29415000Y-83000000D02*
X29415000Y-84206667D01*
X29295000Y-83000000D02*
X29295000Y-84206667D01*
X29175000Y-83000000D02*
X29175000Y-84206667D01*
X29055000Y-83000000D02*
X29055000Y-84206667D01*
X30255000Y-84206667D02*
X28985000Y-84206667D01*
X31255000Y-49206667D02*
X29985000Y-49206667D01*
X30055000Y-48000000D02*
X30055000Y-49206667D01*
X30175000Y-48000000D02*
X30175000Y-49206667D01*
X30295000Y-48000000D02*
X30295000Y-49206667D01*
X30415000Y-48000000D02*
X30415000Y-49206667D01*
X30535000Y-48000000D02*
X30535000Y-49206667D01*
X30655000Y-48000000D02*
X30655000Y-49206667D01*
X30775000Y-48000000D02*
X30775000Y-49206667D01*
X30895000Y-48000000D02*
X30895000Y-49206667D01*
X31015000Y-48000000D02*
X31015000Y-49206667D01*
X31135000Y-48000000D02*
X31135000Y-49206667D01*
X31255000Y-51620000D02*
X31255000Y-48000000D01*
X29985000Y-51620000D02*
X31255000Y-51620000D01*
X29985000Y-48000000D02*
X29985000Y-51620000D01*
X31255000Y-48000000D02*
X29985000Y-48000000D01*
X32970000Y-46160000D02*
X31587000Y-46160000D01*
X32970000Y-46160000D02*
X32970000Y-47543000D01*
X29820000Y-53220000D02*
X28510000Y-53220000D01*
X32730000Y-53220000D02*
X31420000Y-53220000D01*
X29820000Y-46400000D02*
X28510000Y-46400000D01*
X32730000Y-46400000D02*
X31420000Y-46400000D01*
X28510000Y-46400000D02*
X28510000Y-53220000D01*
X32730000Y-46400000D02*
X32730000Y-53220000D01*
X26860000Y-28350000D02*
X27920000Y-28350000D01*
X26860000Y-29410000D02*
X26860000Y-28350000D01*
X26860000Y-30410000D02*
X28980000Y-30410000D01*
X28980000Y-30410000D02*
X28980000Y-30470000D01*
X26860000Y-30410000D02*
X26860000Y-30470000D01*
X26860000Y-30470000D02*
X28980000Y-30470000D01*
X118560000Y-30370000D02*
X120680000Y-30370000D01*
X118560000Y-30310000D02*
X118560000Y-30370000D01*
X120680000Y-30310000D02*
X120680000Y-30370000D01*
X118560000Y-30310000D02*
X120680000Y-30310000D01*
X118560000Y-29310000D02*
X118560000Y-28250000D01*
X118560000Y-28250000D02*
X119620000Y-28250000D01*
X63560000Y-97400000D02*
X65680000Y-97400000D01*
X63560000Y-97340000D02*
X63560000Y-97400000D01*
X65680000Y-97340000D02*
X65680000Y-97400000D01*
X63560000Y-97340000D02*
X65680000Y-97340000D01*
X63560000Y-96340000D02*
X63560000Y-95280000D01*
X63560000Y-95280000D02*
X64620000Y-95280000D01*
D13*
X84945000Y-53835000D02*
X84945000Y-53885000D01*
X89095000Y-53835000D02*
X89095000Y-53980000D01*
X89095000Y-58985000D02*
X89095000Y-58840000D01*
X84945000Y-58985000D02*
X84945000Y-58840000D01*
X84945000Y-53835000D02*
X89095000Y-53835000D01*
X84945000Y-58985000D02*
X89095000Y-58985000D01*
X84945000Y-53885000D02*
X83545000Y-53885000D01*
D10*
X41720000Y-50780000D02*
X43050000Y-50780000D01*
X43050000Y-50780000D02*
X43050000Y-52110000D01*
X43050000Y-53380000D02*
X43050000Y-58520000D01*
X40390000Y-58520000D02*
X43050000Y-58520000D01*
X40390000Y-53380000D02*
X40390000Y-58520000D01*
X40390000Y-53380000D02*
X43050000Y-53380000D01*
X85510000Y-86670000D02*
X87630000Y-86670000D01*
X85510000Y-86610000D02*
X85510000Y-86670000D01*
X87630000Y-86610000D02*
X87630000Y-86670000D01*
X85510000Y-86610000D02*
X87630000Y-86610000D01*
X85510000Y-85610000D02*
X85510000Y-84550000D01*
X85510000Y-84550000D02*
X86570000Y-84550000D01*
X38180000Y-85430000D02*
X39940000Y-85430000D01*
X39940000Y-82360000D02*
X37510000Y-82360000D01*
X67120000Y-68810000D02*
X69240000Y-68810000D01*
X67120000Y-58750000D02*
X67120000Y-68810000D01*
X69240000Y-58750000D02*
X69240000Y-68810000D01*
X67120000Y-58750000D02*
X69240000Y-58750000D01*
X67120000Y-57750000D02*
X67120000Y-56690000D01*
X67120000Y-56690000D02*
X68180000Y-56690000D01*
X74710000Y-73670000D02*
X76830000Y-73670000D01*
X74710000Y-73550000D02*
X74710000Y-73670000D01*
X76830000Y-73550000D02*
X76830000Y-73670000D01*
X76830000Y-71550000D02*
X76830000Y-72610000D01*
X75770000Y-71550000D02*
X76830000Y-71550000D01*
X75770000Y-92260000D02*
X76830000Y-92260000D01*
X76830000Y-92260000D02*
X76830000Y-93320000D01*
X76830000Y-94260000D02*
X76830000Y-94380000D01*
X74710000Y-94260000D02*
X74710000Y-94380000D01*
X74710000Y-94380000D02*
X76830000Y-94380000D01*
X118929600Y-61258000D02*
X121049600Y-61258000D01*
X118929600Y-61138000D02*
X118929600Y-61258000D01*
X121049600Y-61138000D02*
X121049600Y-61258000D01*
X121049600Y-59138000D02*
X121049600Y-60198000D01*
X119989600Y-59138000D02*
X121049600Y-59138000D01*
X95030000Y-59130000D02*
X96090000Y-59130000D01*
X96090000Y-59130000D02*
X96090000Y-60190000D01*
X96090000Y-61130000D02*
X96090000Y-61250000D01*
X93970000Y-61130000D02*
X93970000Y-61250000D01*
X93970000Y-61250000D02*
X96090000Y-61250000D01*
X101340000Y-51290000D02*
X103460000Y-51290000D01*
X101340000Y-51230000D02*
X101340000Y-51290000D01*
X103460000Y-51230000D02*
X103460000Y-51290000D01*
X101340000Y-51230000D02*
X103460000Y-51230000D01*
X101340000Y-50230000D02*
X101340000Y-49170000D01*
X101340000Y-49170000D02*
X102400000Y-49170000D01*
X104530000Y-49140000D02*
X105590000Y-49140000D01*
X104530000Y-50200000D02*
X104530000Y-49140000D01*
X104530000Y-51200000D02*
X106650000Y-51200000D01*
X106650000Y-51200000D02*
X106650000Y-51260000D01*
X104530000Y-51200000D02*
X104530000Y-51260000D01*
X104530000Y-51260000D02*
X106650000Y-51260000D01*
X74980000Y-55500000D02*
X74980000Y-62320000D01*
X70760000Y-55500000D02*
X70760000Y-62320000D01*
X74980000Y-55500000D02*
X73670000Y-55500000D01*
X72070000Y-55500000D02*
X70760000Y-55500000D01*
X74980000Y-62320000D02*
X73670000Y-62320000D01*
X72070000Y-62320000D02*
X70760000Y-62320000D01*
X75220000Y-55260000D02*
X75220000Y-56643000D01*
X75220000Y-55260000D02*
X73837000Y-55260000D01*
X73505000Y-57100000D02*
X72235000Y-57100000D01*
X72235000Y-57100000D02*
X72235000Y-60720000D01*
X72235000Y-60720000D02*
X73505000Y-60720000D01*
X73505000Y-60720000D02*
X73505000Y-57100000D01*
X73385000Y-57100000D02*
X73385000Y-58306667D01*
X73265000Y-57100000D02*
X73265000Y-58306667D01*
X73145000Y-57100000D02*
X73145000Y-58306667D01*
X73025000Y-57100000D02*
X73025000Y-58306667D01*
X72905000Y-57100000D02*
X72905000Y-58306667D01*
X72785000Y-57100000D02*
X72785000Y-58306667D01*
X72665000Y-57100000D02*
X72665000Y-58306667D01*
X72545000Y-57100000D02*
X72545000Y-58306667D01*
X72425000Y-57100000D02*
X72425000Y-58306667D01*
X72305000Y-57100000D02*
X72305000Y-58306667D01*
X73505000Y-58306667D02*
X72235000Y-58306667D01*
D13*
X87805000Y-62665000D02*
X87805000Y-62765000D01*
X92455000Y-62665000D02*
X92455000Y-62865000D01*
X92455000Y-65915000D02*
X92455000Y-65715000D01*
X87805000Y-65915000D02*
X87805000Y-65715000D01*
X87805000Y-62665000D02*
X92455000Y-62665000D01*
X87805000Y-65915000D02*
X92455000Y-65915000D01*
X87805000Y-62765000D02*
X86455000Y-62765000D01*
X56626666Y-48792380D02*
X56626666Y-49506666D01*
X56579047Y-49649523D01*
X56483809Y-49744761D01*
X56340952Y-49792380D01*
X56245714Y-49792380D01*
X57007619Y-48792380D02*
X57674285Y-48792380D01*
X57245714Y-49792380D01*
X113434285Y-45238571D02*
X113577142Y-45286190D01*
X113624761Y-45333809D01*
X113672380Y-45429047D01*
X113672380Y-45571904D01*
X113624761Y-45667142D01*
X113577142Y-45714761D01*
X113481904Y-45762380D01*
X113100952Y-45762380D01*
X113100952Y-44762380D01*
X113434285Y-44762380D01*
X113529523Y-44810000D01*
X113577142Y-44857619D01*
X113624761Y-44952857D01*
X113624761Y-45048095D01*
X113577142Y-45143333D01*
X113529523Y-45190952D01*
X113434285Y-45238571D01*
X113100952Y-45238571D01*
X113958095Y-44762380D02*
X114529523Y-44762380D01*
X114243809Y-45762380D02*
X114243809Y-44762380D01*
X115386666Y-45762380D02*
X114815238Y-45762380D01*
X115100952Y-45762380D02*
X115100952Y-44762380D01*
X115005714Y-44905238D01*
X114910476Y-45000476D01*
X114815238Y-45048095D01*
X81453333Y-53167142D02*
X81405714Y-53214761D01*
X81262857Y-53262380D01*
X81167619Y-53262380D01*
X81024761Y-53214761D01*
X80929523Y-53119523D01*
X80881904Y-53024285D01*
X80834285Y-52833809D01*
X80834285Y-52690952D01*
X80881904Y-52500476D01*
X80929523Y-52405238D01*
X81024761Y-52310000D01*
X81167619Y-52262380D01*
X81262857Y-52262380D01*
X81405714Y-52310000D01*
X81453333Y-52357619D01*
X82405714Y-53262380D02*
X81834285Y-53262380D01*
X82120000Y-53262380D02*
X82120000Y-52262380D01*
X82024761Y-52405238D01*
X81929523Y-52500476D01*
X81834285Y-52548095D01*
X96753333Y-50867142D02*
X96705714Y-50914761D01*
X96562857Y-50962380D01*
X96467619Y-50962380D01*
X96324761Y-50914761D01*
X96229523Y-50819523D01*
X96181904Y-50724285D01*
X96134285Y-50533809D01*
X96134285Y-50390952D01*
X96181904Y-50200476D01*
X96229523Y-50105238D01*
X96324761Y-50010000D01*
X96467619Y-49962380D01*
X96562857Y-49962380D01*
X96705714Y-50010000D01*
X96753333Y-50057619D01*
X97134285Y-50057619D02*
X97181904Y-50010000D01*
X97277142Y-49962380D01*
X97515238Y-49962380D01*
X97610476Y-50010000D01*
X97658095Y-50057619D01*
X97705714Y-50152857D01*
X97705714Y-50248095D01*
X97658095Y-50390952D01*
X97086666Y-50962380D01*
X97705714Y-50962380D01*
X53997142Y-55676666D02*
X54044761Y-55724285D01*
X54092380Y-55867142D01*
X54092380Y-55962380D01*
X54044761Y-56105238D01*
X53949523Y-56200476D01*
X53854285Y-56248095D01*
X53663809Y-56295714D01*
X53520952Y-56295714D01*
X53330476Y-56248095D01*
X53235238Y-56200476D01*
X53140000Y-56105238D01*
X53092380Y-55962380D01*
X53092380Y-55867142D01*
X53140000Y-55724285D01*
X53187619Y-55676666D01*
X53092380Y-55343333D02*
X53092380Y-54724285D01*
X53473333Y-55057619D01*
X53473333Y-54914761D01*
X53520952Y-54819523D01*
X53568571Y-54771904D01*
X53663809Y-54724285D01*
X53901904Y-54724285D01*
X53997142Y-54771904D01*
X54044761Y-54819523D01*
X54092380Y-54914761D01*
X54092380Y-55200476D01*
X54044761Y-55295714D01*
X53997142Y-55343333D01*
X90853333Y-50767142D02*
X90805714Y-50814761D01*
X90662857Y-50862380D01*
X90567619Y-50862380D01*
X90424761Y-50814761D01*
X90329523Y-50719523D01*
X90281904Y-50624285D01*
X90234285Y-50433809D01*
X90234285Y-50290952D01*
X90281904Y-50100476D01*
X90329523Y-50005238D01*
X90424761Y-49910000D01*
X90567619Y-49862380D01*
X90662857Y-49862380D01*
X90805714Y-49910000D01*
X90853333Y-49957619D01*
X91710476Y-50195714D02*
X91710476Y-50862380D01*
X91472380Y-49814761D02*
X91234285Y-50529047D01*
X91853333Y-50529047D01*
X86053333Y-48367142D02*
X86005714Y-48414761D01*
X85862857Y-48462380D01*
X85767619Y-48462380D01*
X85624761Y-48414761D01*
X85529523Y-48319523D01*
X85481904Y-48224285D01*
X85434285Y-48033809D01*
X85434285Y-47890952D01*
X85481904Y-47700476D01*
X85529523Y-47605238D01*
X85624761Y-47510000D01*
X85767619Y-47462380D01*
X85862857Y-47462380D01*
X86005714Y-47510000D01*
X86053333Y-47557619D01*
X86958095Y-47462380D02*
X86481904Y-47462380D01*
X86434285Y-47938571D01*
X86481904Y-47890952D01*
X86577142Y-47843333D01*
X86815238Y-47843333D01*
X86910476Y-47890952D01*
X86958095Y-47938571D01*
X87005714Y-48033809D01*
X87005714Y-48271904D01*
X86958095Y-48367142D01*
X86910476Y-48414761D01*
X86815238Y-48462380D01*
X86577142Y-48462380D01*
X86481904Y-48414761D01*
X86434285Y-48367142D01*
X66834141Y-92061667D02*
X66881760Y-92109286D01*
X66929379Y-92252143D01*
X66929379Y-92347381D01*
X66881760Y-92490239D01*
X66786522Y-92585477D01*
X66691284Y-92633096D01*
X66500808Y-92680715D01*
X66357951Y-92680715D01*
X66167475Y-92633096D01*
X66072237Y-92585477D01*
X65976999Y-92490239D01*
X65929379Y-92347381D01*
X65929379Y-92252143D01*
X65976999Y-92109286D01*
X66024618Y-92061667D01*
X65929379Y-91204524D02*
X65929379Y-91395001D01*
X65976999Y-91490239D01*
X66024618Y-91537858D01*
X66167475Y-91633096D01*
X66357951Y-91680715D01*
X66738903Y-91680715D01*
X66834141Y-91633096D01*
X66881760Y-91585477D01*
X66929379Y-91490239D01*
X66929379Y-91299762D01*
X66881760Y-91204524D01*
X66834141Y-91156905D01*
X66738903Y-91109286D01*
X66500808Y-91109286D01*
X66405570Y-91156905D01*
X66357951Y-91204524D01*
X66310332Y-91299762D01*
X66310332Y-91490239D01*
X66357951Y-91585477D01*
X66405570Y-91633096D01*
X66500808Y-91680715D01*
X74547142Y-92176666D02*
X74594761Y-92224285D01*
X74642380Y-92367142D01*
X74642380Y-92462380D01*
X74594761Y-92605238D01*
X74499523Y-92700476D01*
X74404285Y-92748095D01*
X74213809Y-92795714D01*
X74070952Y-92795714D01*
X73880476Y-92748095D01*
X73785238Y-92700476D01*
X73690000Y-92605238D01*
X73642380Y-92462380D01*
X73642380Y-92367142D01*
X73690000Y-92224285D01*
X73737619Y-92176666D01*
X73642380Y-91843333D02*
X73642380Y-91176666D01*
X74642380Y-91605238D01*
X100281904Y-57042380D02*
X100281904Y-56042380D01*
X100520000Y-56042380D01*
X100662857Y-56090000D01*
X100758095Y-56185238D01*
X100805714Y-56280476D01*
X100853333Y-56470952D01*
X100853333Y-56613809D01*
X100805714Y-56804285D01*
X100758095Y-56899523D01*
X100662857Y-56994761D01*
X100520000Y-57042380D01*
X100281904Y-57042380D01*
X101805714Y-57042380D02*
X101234285Y-57042380D01*
X101520000Y-57042380D02*
X101520000Y-56042380D01*
X101424761Y-56185238D01*
X101329523Y-56280476D01*
X101234285Y-56328095D01*
X107066780Y-69927695D02*
X106066780Y-69927695D01*
X106066780Y-69689600D01*
X106114400Y-69546742D01*
X106209638Y-69451504D01*
X106304876Y-69403885D01*
X106495352Y-69356266D01*
X106638209Y-69356266D01*
X106828685Y-69403885D01*
X106923923Y-69451504D01*
X107019161Y-69546742D01*
X107066780Y-69689600D01*
X107066780Y-69927695D01*
X106162019Y-68975314D02*
X106114400Y-68927695D01*
X106066780Y-68832457D01*
X106066780Y-68594361D01*
X106114400Y-68499123D01*
X106162019Y-68451504D01*
X106257257Y-68403885D01*
X106352495Y-68403885D01*
X106495352Y-68451504D01*
X107066780Y-69022933D01*
X107066780Y-68403885D01*
X31286666Y-71262380D02*
X31286666Y-71976666D01*
X31239047Y-72119523D01*
X31143809Y-72214761D01*
X31000952Y-72262380D01*
X30905714Y-72262380D01*
X32286666Y-72262380D02*
X31715238Y-72262380D01*
X32000952Y-72262380D02*
X32000952Y-71262380D01*
X31905714Y-71405238D01*
X31810476Y-71500476D01*
X31715238Y-71548095D01*
X45286666Y-71262380D02*
X45286666Y-71976666D01*
X45239047Y-72119523D01*
X45143809Y-72214761D01*
X45000952Y-72262380D01*
X44905714Y-72262380D01*
X45715238Y-71357619D02*
X45762857Y-71310000D01*
X45858095Y-71262380D01*
X46096190Y-71262380D01*
X46191428Y-71310000D01*
X46239047Y-71357619D01*
X46286666Y-71452857D01*
X46286666Y-71548095D01*
X46239047Y-71690952D01*
X45667619Y-72262380D01*
X46286666Y-72262380D01*
X52286666Y-74262380D02*
X52286666Y-74976666D01*
X52239047Y-75119523D01*
X52143809Y-75214761D01*
X52000952Y-75262380D01*
X51905714Y-75262380D01*
X52667619Y-74262380D02*
X53286666Y-74262380D01*
X52953333Y-74643333D01*
X53096190Y-74643333D01*
X53191428Y-74690952D01*
X53239047Y-74738571D01*
X53286666Y-74833809D01*
X53286666Y-75071904D01*
X53239047Y-75167142D01*
X53191428Y-75214761D01*
X53096190Y-75262380D01*
X52810476Y-75262380D01*
X52715238Y-75214761D01*
X52667619Y-75167142D01*
X49286666Y-92762380D02*
X49286666Y-93476666D01*
X49239047Y-93619523D01*
X49143809Y-93714761D01*
X49000952Y-93762380D01*
X48905714Y-93762380D01*
X50191428Y-93095714D02*
X50191428Y-93762380D01*
X49953333Y-92714761D02*
X49715238Y-93429047D01*
X50334285Y-93429047D01*
X29286666Y-94762380D02*
X29286666Y-95476666D01*
X29239047Y-95619523D01*
X29143809Y-95714761D01*
X29000952Y-95762380D01*
X28905714Y-95762380D01*
X30239047Y-94762380D02*
X29762857Y-94762380D01*
X29715238Y-95238571D01*
X29762857Y-95190952D01*
X29858095Y-95143333D01*
X30096190Y-95143333D01*
X30191428Y-95190952D01*
X30239047Y-95238571D01*
X30286666Y-95333809D01*
X30286666Y-95571904D01*
X30239047Y-95667142D01*
X30191428Y-95714761D01*
X30096190Y-95762380D01*
X29858095Y-95762380D01*
X29762857Y-95714761D01*
X29715238Y-95667142D01*
X41724761Y-63757619D02*
X41629523Y-63710000D01*
X41534285Y-63614761D01*
X41391428Y-63471904D01*
X41296190Y-63424285D01*
X41200952Y-63424285D01*
X41248571Y-63662380D02*
X41153333Y-63614761D01*
X41058095Y-63519523D01*
X41010476Y-63329047D01*
X41010476Y-62995714D01*
X41058095Y-62805238D01*
X41153333Y-62710000D01*
X41248571Y-62662380D01*
X41439047Y-62662380D01*
X41534285Y-62710000D01*
X41629523Y-62805238D01*
X41677142Y-62995714D01*
X41677142Y-63329047D01*
X41629523Y-63519523D01*
X41534285Y-63614761D01*
X41439047Y-63662380D01*
X41248571Y-63662380D01*
X42629523Y-63662380D02*
X42058095Y-63662380D01*
X42343809Y-63662380D02*
X42343809Y-62662380D01*
X42248571Y-62805238D01*
X42153333Y-62900476D01*
X42058095Y-62948095D01*
X50024761Y-63557619D02*
X49929523Y-63510000D01*
X49834285Y-63414761D01*
X49691428Y-63271904D01*
X49596190Y-63224285D01*
X49500952Y-63224285D01*
X49548571Y-63462380D02*
X49453333Y-63414761D01*
X49358095Y-63319523D01*
X49310476Y-63129047D01*
X49310476Y-62795714D01*
X49358095Y-62605238D01*
X49453333Y-62510000D01*
X49548571Y-62462380D01*
X49739047Y-62462380D01*
X49834285Y-62510000D01*
X49929523Y-62605238D01*
X49977142Y-62795714D01*
X49977142Y-63129047D01*
X49929523Y-63319523D01*
X49834285Y-63414761D01*
X49739047Y-63462380D01*
X49548571Y-63462380D01*
X50358095Y-62557619D02*
X50405714Y-62510000D01*
X50500952Y-62462380D01*
X50739047Y-62462380D01*
X50834285Y-62510000D01*
X50881904Y-62557619D01*
X50929523Y-62652857D01*
X50929523Y-62748095D01*
X50881904Y-62890952D01*
X50310476Y-63462380D01*
X50929523Y-63462380D01*
X108292380Y-57176666D02*
X107816190Y-57510000D01*
X108292380Y-57748095D02*
X107292380Y-57748095D01*
X107292380Y-57367142D01*
X107340000Y-57271904D01*
X107387619Y-57224285D01*
X107482857Y-57176666D01*
X107625714Y-57176666D01*
X107720952Y-57224285D01*
X107768571Y-57271904D01*
X107816190Y-57367142D01*
X107816190Y-57748095D01*
X108292380Y-56224285D02*
X108292380Y-56795714D01*
X108292380Y-56510000D02*
X107292380Y-56510000D01*
X107435238Y-56605238D01*
X107530476Y-56700476D01*
X107578095Y-56795714D01*
X80853333Y-64862380D02*
X80520000Y-64386190D01*
X80281904Y-64862380D02*
X80281904Y-63862380D01*
X80662857Y-63862380D01*
X80758095Y-63910000D01*
X80805714Y-63957619D01*
X80853333Y-64052857D01*
X80853333Y-64195714D01*
X80805714Y-64290952D01*
X80758095Y-64338571D01*
X80662857Y-64386190D01*
X80281904Y-64386190D01*
X81234285Y-63957619D02*
X81281904Y-63910000D01*
X81377142Y-63862380D01*
X81615238Y-63862380D01*
X81710476Y-63910000D01*
X81758095Y-63957619D01*
X81805714Y-64052857D01*
X81805714Y-64148095D01*
X81758095Y-64290952D01*
X81186666Y-64862380D01*
X81805714Y-64862380D01*
X31852380Y-67176666D02*
X31376190Y-67510000D01*
X31852380Y-67748095D02*
X30852380Y-67748095D01*
X30852380Y-67367142D01*
X30900000Y-67271904D01*
X30947619Y-67224285D01*
X31042857Y-67176666D01*
X31185714Y-67176666D01*
X31280952Y-67224285D01*
X31328571Y-67271904D01*
X31376190Y-67367142D01*
X31376190Y-67748095D01*
X30852380Y-66843333D02*
X30852380Y-66224285D01*
X31233333Y-66557619D01*
X31233333Y-66414761D01*
X31280952Y-66319523D01*
X31328571Y-66271904D01*
X31423809Y-66224285D01*
X31661904Y-66224285D01*
X31757142Y-66271904D01*
X31804761Y-66319523D01*
X31852380Y-66414761D01*
X31852380Y-66700476D01*
X31804761Y-66795714D01*
X31757142Y-66843333D01*
X28152380Y-67176666D02*
X27676190Y-67510000D01*
X28152380Y-67748095D02*
X27152380Y-67748095D01*
X27152380Y-67367142D01*
X27200000Y-67271904D01*
X27247619Y-67224285D01*
X27342857Y-67176666D01*
X27485714Y-67176666D01*
X27580952Y-67224285D01*
X27628571Y-67271904D01*
X27676190Y-67367142D01*
X27676190Y-67748095D01*
X27485714Y-66319523D02*
X28152380Y-66319523D01*
X27104761Y-66557619D02*
X27819047Y-66795714D01*
X27819047Y-66176666D01*
X57353333Y-64162380D02*
X57020000Y-63686190D01*
X56781904Y-64162380D02*
X56781904Y-63162380D01*
X57162857Y-63162380D01*
X57258095Y-63210000D01*
X57305714Y-63257619D01*
X57353333Y-63352857D01*
X57353333Y-63495714D01*
X57305714Y-63590952D01*
X57258095Y-63638571D01*
X57162857Y-63686190D01*
X56781904Y-63686190D01*
X58258095Y-63162380D02*
X57781904Y-63162380D01*
X57734285Y-63638571D01*
X57781904Y-63590952D01*
X57877142Y-63543333D01*
X58115238Y-63543333D01*
X58210476Y-63590952D01*
X58258095Y-63638571D01*
X58305714Y-63733809D01*
X58305714Y-63971904D01*
X58258095Y-64067142D01*
X58210476Y-64114761D01*
X58115238Y-64162380D01*
X57877142Y-64162380D01*
X57781904Y-64114761D01*
X57734285Y-64067142D01*
X93652380Y-56576666D02*
X93176190Y-56910000D01*
X93652380Y-57148095D02*
X92652380Y-57148095D01*
X92652380Y-56767142D01*
X92700000Y-56671904D01*
X92747619Y-56624285D01*
X92842857Y-56576666D01*
X92985714Y-56576666D01*
X93080952Y-56624285D01*
X93128571Y-56671904D01*
X93176190Y-56767142D01*
X93176190Y-57148095D01*
X92652380Y-55719523D02*
X92652380Y-55910000D01*
X92700000Y-56005238D01*
X92747619Y-56052857D01*
X92890476Y-56148095D01*
X93080952Y-56195714D01*
X93461904Y-56195714D01*
X93557142Y-56148095D01*
X93604761Y-56100476D01*
X93652380Y-56005238D01*
X93652380Y-55814761D01*
X93604761Y-55719523D01*
X93557142Y-55671904D01*
X93461904Y-55624285D01*
X93223809Y-55624285D01*
X93128571Y-55671904D01*
X93080952Y-55719523D01*
X93033333Y-55814761D01*
X93033333Y-56005238D01*
X93080952Y-56100476D01*
X93128571Y-56148095D01*
X93223809Y-56195714D01*
X46653333Y-49962380D02*
X46320000Y-49486190D01*
X46081904Y-49962380D02*
X46081904Y-48962380D01*
X46462857Y-48962380D01*
X46558095Y-49010000D01*
X46605714Y-49057619D01*
X46653333Y-49152857D01*
X46653333Y-49295714D01*
X46605714Y-49390952D01*
X46558095Y-49438571D01*
X46462857Y-49486190D01*
X46081904Y-49486190D01*
X46986666Y-48962380D02*
X47653333Y-48962380D01*
X47224761Y-49962380D01*
X67476666Y-54264761D02*
X67619523Y-54312380D01*
X67857619Y-54312380D01*
X67952857Y-54264761D01*
X68000476Y-54217142D01*
X68048095Y-54121904D01*
X68048095Y-54026666D01*
X68000476Y-53931428D01*
X67952857Y-53883809D01*
X67857619Y-53836190D01*
X67667142Y-53788571D01*
X67571904Y-53740952D01*
X67524285Y-53693333D01*
X67476666Y-53598095D01*
X67476666Y-53502857D01*
X67524285Y-53407619D01*
X67571904Y-53360000D01*
X67667142Y-53312380D01*
X67905238Y-53312380D01*
X68048095Y-53360000D01*
X68381428Y-53312380D02*
X68619523Y-54312380D01*
X68810000Y-53598095D01*
X69000476Y-54312380D01*
X69238571Y-53312380D01*
X70143333Y-54312380D02*
X69571904Y-54312380D01*
X69857619Y-54312380D02*
X69857619Y-53312380D01*
X69762380Y-53455238D01*
X69667142Y-53550476D01*
X69571904Y-53598095D01*
X33134761Y-86143333D02*
X33182380Y-86000476D01*
X33182380Y-85762380D01*
X33134761Y-85667142D01*
X33087142Y-85619523D01*
X32991904Y-85571904D01*
X32896666Y-85571904D01*
X32801428Y-85619523D01*
X32753809Y-85667142D01*
X32706190Y-85762380D01*
X32658571Y-85952857D01*
X32610952Y-86048095D01*
X32563333Y-86095714D01*
X32468095Y-86143333D01*
X32372857Y-86143333D01*
X32277619Y-86095714D01*
X32230000Y-86048095D01*
X32182380Y-85952857D01*
X32182380Y-85714761D01*
X32230000Y-85571904D01*
X32182380Y-85238571D02*
X33182380Y-85000476D01*
X32468095Y-84810000D01*
X33182380Y-84619523D01*
X32182380Y-84381428D01*
X32277619Y-84048095D02*
X32230000Y-84000476D01*
X32182380Y-83905238D01*
X32182380Y-83667142D01*
X32230000Y-83571904D01*
X32277619Y-83524285D01*
X32372857Y-83476666D01*
X32468095Y-83476666D01*
X32610952Y-83524285D01*
X33182380Y-84095714D01*
X33182380Y-83476666D01*
X34134761Y-51143333D02*
X34182380Y-51000476D01*
X34182380Y-50762380D01*
X34134761Y-50667142D01*
X34087142Y-50619523D01*
X33991904Y-50571904D01*
X33896666Y-50571904D01*
X33801428Y-50619523D01*
X33753809Y-50667142D01*
X33706190Y-50762380D01*
X33658571Y-50952857D01*
X33610952Y-51048095D01*
X33563333Y-51095714D01*
X33468095Y-51143333D01*
X33372857Y-51143333D01*
X33277619Y-51095714D01*
X33230000Y-51048095D01*
X33182380Y-50952857D01*
X33182380Y-50714761D01*
X33230000Y-50571904D01*
X33182380Y-50238571D02*
X34182380Y-50000476D01*
X33468095Y-49810000D01*
X34182380Y-49619523D01*
X33182380Y-49381428D01*
X33182380Y-49095714D02*
X33182380Y-48476666D01*
X33563333Y-48810000D01*
X33563333Y-48667142D01*
X33610952Y-48571904D01*
X33658571Y-48524285D01*
X33753809Y-48476666D01*
X33991904Y-48476666D01*
X34087142Y-48524285D01*
X34134761Y-48571904D01*
X34182380Y-48667142D01*
X34182380Y-48952857D01*
X34134761Y-49048095D01*
X34087142Y-49095714D01*
X26658095Y-26802380D02*
X27229523Y-26802380D01*
X26943809Y-27802380D02*
X26943809Y-26802380D01*
X27562857Y-27802380D02*
X27562857Y-26802380D01*
X27943809Y-26802380D01*
X28039047Y-26850000D01*
X28086666Y-26897619D01*
X28134285Y-26992857D01*
X28134285Y-27135714D01*
X28086666Y-27230952D01*
X28039047Y-27278571D01*
X27943809Y-27326190D01*
X27562857Y-27326190D01*
X29086666Y-27802380D02*
X28515238Y-27802380D01*
X28800952Y-27802380D02*
X28800952Y-26802380D01*
X28705714Y-26945238D01*
X28610476Y-27040476D01*
X28515238Y-27088095D01*
X118358095Y-26702380D02*
X118929523Y-26702380D01*
X118643809Y-27702380D02*
X118643809Y-26702380D01*
X119262857Y-27702380D02*
X119262857Y-26702380D01*
X119643809Y-26702380D01*
X119739047Y-26750000D01*
X119786666Y-26797619D01*
X119834285Y-26892857D01*
X119834285Y-27035714D01*
X119786666Y-27130952D01*
X119739047Y-27178571D01*
X119643809Y-27226190D01*
X119262857Y-27226190D01*
X120215238Y-26797619D02*
X120262857Y-26750000D01*
X120358095Y-26702380D01*
X120596190Y-26702380D01*
X120691428Y-26750000D01*
X120739047Y-26797619D01*
X120786666Y-26892857D01*
X120786666Y-26988095D01*
X120739047Y-27130952D01*
X120167619Y-27702380D01*
X120786666Y-27702380D01*
X63358095Y-93732380D02*
X63929523Y-93732380D01*
X63643809Y-94732380D02*
X63643809Y-93732380D01*
X64262857Y-94732380D02*
X64262857Y-93732380D01*
X64643809Y-93732380D01*
X64739047Y-93780000D01*
X64786666Y-93827619D01*
X64834285Y-93922857D01*
X64834285Y-94065714D01*
X64786666Y-94160952D01*
X64739047Y-94208571D01*
X64643809Y-94256190D01*
X64262857Y-94256190D01*
X65167619Y-93732380D02*
X65786666Y-93732380D01*
X65453333Y-94113333D01*
X65596190Y-94113333D01*
X65691428Y-94160952D01*
X65739047Y-94208571D01*
X65786666Y-94303809D01*
X65786666Y-94541904D01*
X65739047Y-94637142D01*
X65691428Y-94684761D01*
X65596190Y-94732380D01*
X65310476Y-94732380D01*
X65215238Y-94684761D01*
X65167619Y-94637142D01*
X86258095Y-52362380D02*
X86258095Y-53171904D01*
X86305714Y-53267142D01*
X86353333Y-53314761D01*
X86448571Y-53362380D01*
X86639047Y-53362380D01*
X86734285Y-53314761D01*
X86781904Y-53267142D01*
X86829523Y-53171904D01*
X86829523Y-52362380D01*
X87829523Y-53362380D02*
X87258095Y-53362380D01*
X87543809Y-53362380D02*
X87543809Y-52362380D01*
X87448571Y-52505238D01*
X87353333Y-52600476D01*
X87258095Y-52648095D01*
X69208095Y-83487380D02*
X69208095Y-84296904D01*
X69255714Y-84392142D01*
X69303333Y-84439761D01*
X69398571Y-84487380D01*
X69589047Y-84487380D01*
X69684285Y-84439761D01*
X69731904Y-84392142D01*
X69779523Y-84296904D01*
X69779523Y-83487380D01*
X70684285Y-83820714D02*
X70684285Y-84487380D01*
X70446190Y-83439761D02*
X70208095Y-84154047D01*
X70827142Y-84154047D01*
X41386666Y-48792380D02*
X41386666Y-49506666D01*
X41339047Y-49649523D01*
X41243809Y-49744761D01*
X41100952Y-49792380D01*
X41005714Y-49792380D01*
X42291428Y-48792380D02*
X42100952Y-48792380D01*
X42005714Y-48840000D01*
X41958095Y-48887619D01*
X41862857Y-49030476D01*
X41815238Y-49220952D01*
X41815238Y-49601904D01*
X41862857Y-49697142D01*
X41910476Y-49744761D01*
X42005714Y-49792380D01*
X42196190Y-49792380D01*
X42291428Y-49744761D01*
X42339047Y-49697142D01*
X42386666Y-49601904D01*
X42386666Y-49363809D01*
X42339047Y-49268571D01*
X42291428Y-49220952D01*
X42196190Y-49173333D01*
X42005714Y-49173333D01*
X41910476Y-49220952D01*
X41862857Y-49268571D01*
X41815238Y-49363809D01*
X85308095Y-83002380D02*
X85879523Y-83002380D01*
X85593809Y-84002380D02*
X85593809Y-83002380D01*
X86212857Y-84002380D02*
X86212857Y-83002380D01*
X86593809Y-83002380D01*
X86689047Y-83050000D01*
X86736666Y-83097619D01*
X86784285Y-83192857D01*
X86784285Y-83335714D01*
X86736666Y-83430952D01*
X86689047Y-83478571D01*
X86593809Y-83526190D01*
X86212857Y-83526190D01*
X87641428Y-83335714D02*
X87641428Y-84002380D01*
X87403333Y-82954761D02*
X87165238Y-83669047D01*
X87784285Y-83669047D01*
X38298095Y-80872380D02*
X38298095Y-81681904D01*
X38345714Y-81777142D01*
X38393333Y-81824761D01*
X38488571Y-81872380D01*
X38679047Y-81872380D01*
X38774285Y-81824761D01*
X38821904Y-81777142D01*
X38869523Y-81681904D01*
X38869523Y-80872380D01*
X39250476Y-80872380D02*
X39869523Y-80872380D01*
X39536190Y-81253333D01*
X39679047Y-81253333D01*
X39774285Y-81300952D01*
X39821904Y-81348571D01*
X39869523Y-81443809D01*
X39869523Y-81681904D01*
X39821904Y-81777142D01*
X39774285Y-81824761D01*
X39679047Y-81872380D01*
X39393333Y-81872380D01*
X39298095Y-81824761D01*
X39250476Y-81777142D01*
X67846666Y-55142380D02*
X67846666Y-55856666D01*
X67799047Y-55999523D01*
X67703809Y-56094761D01*
X67560952Y-56142380D01*
X67465714Y-56142380D01*
X68465714Y-55570952D02*
X68370476Y-55523333D01*
X68322857Y-55475714D01*
X68275238Y-55380476D01*
X68275238Y-55332857D01*
X68322857Y-55237619D01*
X68370476Y-55190000D01*
X68465714Y-55142380D01*
X68656190Y-55142380D01*
X68751428Y-55190000D01*
X68799047Y-55237619D01*
X68846666Y-55332857D01*
X68846666Y-55380476D01*
X68799047Y-55475714D01*
X68751428Y-55523333D01*
X68656190Y-55570952D01*
X68465714Y-55570952D01*
X68370476Y-55618571D01*
X68322857Y-55666190D01*
X68275238Y-55761428D01*
X68275238Y-55951904D01*
X68322857Y-56047142D01*
X68370476Y-56094761D01*
X68465714Y-56142380D01*
X68656190Y-56142380D01*
X68751428Y-56094761D01*
X68799047Y-56047142D01*
X68846666Y-55951904D01*
X68846666Y-55761428D01*
X68799047Y-55666190D01*
X68751428Y-55618571D01*
X68656190Y-55570952D01*
X78436666Y-71292380D02*
X78436666Y-72006666D01*
X78389047Y-72149523D01*
X78293809Y-72244761D01*
X78150952Y-72292380D01*
X78055714Y-72292380D01*
X78960476Y-72292380D02*
X79150952Y-72292380D01*
X79246190Y-72244761D01*
X79293809Y-72197142D01*
X79389047Y-72054285D01*
X79436666Y-71863809D01*
X79436666Y-71482857D01*
X79389047Y-71387619D01*
X79341428Y-71340000D01*
X79246190Y-71292380D01*
X79055714Y-71292380D01*
X78960476Y-71340000D01*
X78912857Y-71387619D01*
X78865238Y-71482857D01*
X78865238Y-71720952D01*
X78912857Y-71816190D01*
X78960476Y-71863809D01*
X79055714Y-71911428D01*
X79246190Y-71911428D01*
X79341428Y-71863809D01*
X79389047Y-71816190D01*
X79436666Y-71720952D01*
X74960476Y-90272380D02*
X74960476Y-90986666D01*
X74912857Y-91129523D01*
X74817619Y-91224761D01*
X74674761Y-91272380D01*
X74579523Y-91272380D01*
X75960476Y-91272380D02*
X75389047Y-91272380D01*
X75674761Y-91272380D02*
X75674761Y-90272380D01*
X75579523Y-90415238D01*
X75484285Y-90510476D01*
X75389047Y-90558095D01*
X76579523Y-90272380D02*
X76674761Y-90272380D01*
X76770000Y-90320000D01*
X76817619Y-90367619D01*
X76865238Y-90462857D01*
X76912857Y-90653333D01*
X76912857Y-90891428D01*
X76865238Y-91081904D01*
X76817619Y-91177142D01*
X76770000Y-91224761D01*
X76674761Y-91272380D01*
X76579523Y-91272380D01*
X76484285Y-91224761D01*
X76436666Y-91177142D01*
X76389047Y-91081904D01*
X76341428Y-90891428D01*
X76341428Y-90653333D01*
X76389047Y-90462857D01*
X76436666Y-90367619D01*
X76484285Y-90320000D01*
X76579523Y-90272380D01*
X119180076Y-57150380D02*
X119180076Y-57864666D01*
X119132457Y-58007523D01*
X119037219Y-58102761D01*
X118894361Y-58150380D01*
X118799123Y-58150380D01*
X120180076Y-58150380D02*
X119608647Y-58150380D01*
X119894361Y-58150380D02*
X119894361Y-57150380D01*
X119799123Y-57293238D01*
X119703885Y-57388476D01*
X119608647Y-57436095D01*
X121132457Y-58150380D02*
X120561028Y-58150380D01*
X120846742Y-58150380D02*
X120846742Y-57150380D01*
X120751504Y-57293238D01*
X120656266Y-57388476D01*
X120561028Y-57436095D01*
X94220476Y-57142380D02*
X94220476Y-57856666D01*
X94172857Y-57999523D01*
X94077619Y-58094761D01*
X93934761Y-58142380D01*
X93839523Y-58142380D01*
X95220476Y-58142380D02*
X94649047Y-58142380D01*
X94934761Y-58142380D02*
X94934761Y-57142380D01*
X94839523Y-57285238D01*
X94744285Y-57380476D01*
X94649047Y-57428095D01*
X95601428Y-57237619D02*
X95649047Y-57190000D01*
X95744285Y-57142380D01*
X95982380Y-57142380D01*
X96077619Y-57190000D01*
X96125238Y-57237619D01*
X96172857Y-57332857D01*
X96172857Y-57428095D01*
X96125238Y-57570952D01*
X95553809Y-58142380D01*
X96172857Y-58142380D01*
X101138095Y-47622380D02*
X101709523Y-47622380D01*
X101423809Y-48622380D02*
X101423809Y-47622380D01*
X102042857Y-48622380D02*
X102042857Y-47622380D01*
X102423809Y-47622380D01*
X102519047Y-47670000D01*
X102566666Y-47717619D01*
X102614285Y-47812857D01*
X102614285Y-47955714D01*
X102566666Y-48050952D01*
X102519047Y-48098571D01*
X102423809Y-48146190D01*
X102042857Y-48146190D01*
X103519047Y-47622380D02*
X103042857Y-47622380D01*
X102995238Y-48098571D01*
X103042857Y-48050952D01*
X103138095Y-48003333D01*
X103376190Y-48003333D01*
X103471428Y-48050952D01*
X103519047Y-48098571D01*
X103566666Y-48193809D01*
X103566666Y-48431904D01*
X103519047Y-48527142D01*
X103471428Y-48574761D01*
X103376190Y-48622380D01*
X103138095Y-48622380D01*
X103042857Y-48574761D01*
X102995238Y-48527142D01*
X104328095Y-47592380D02*
X104899523Y-47592380D01*
X104613809Y-48592380D02*
X104613809Y-47592380D01*
X105232857Y-48592380D02*
X105232857Y-47592380D01*
X105613809Y-47592380D01*
X105709047Y-47640000D01*
X105756666Y-47687619D01*
X105804285Y-47782857D01*
X105804285Y-47925714D01*
X105756666Y-48020952D01*
X105709047Y-48068571D01*
X105613809Y-48116190D01*
X105232857Y-48116190D01*
X106661428Y-47592380D02*
X106470952Y-47592380D01*
X106375714Y-47640000D01*
X106328095Y-47687619D01*
X106232857Y-47830476D01*
X106185238Y-48020952D01*
X106185238Y-48401904D01*
X106232857Y-48497142D01*
X106280476Y-48544761D01*
X106375714Y-48592380D01*
X106566190Y-48592380D01*
X106661428Y-48544761D01*
X106709047Y-48497142D01*
X106756666Y-48401904D01*
X106756666Y-48163809D01*
X106709047Y-48068571D01*
X106661428Y-48020952D01*
X106566190Y-47973333D01*
X106375714Y-47973333D01*
X106280476Y-48020952D01*
X106232857Y-48068571D01*
X106185238Y-48163809D01*
X75426666Y-58404761D02*
X75569523Y-58452380D01*
X75807619Y-58452380D01*
X75902857Y-58404761D01*
X75950476Y-58357142D01*
X75998095Y-58261904D01*
X75998095Y-58166666D01*
X75950476Y-58071428D01*
X75902857Y-58023809D01*
X75807619Y-57976190D01*
X75617142Y-57928571D01*
X75521904Y-57880952D01*
X75474285Y-57833333D01*
X75426666Y-57738095D01*
X75426666Y-57642857D01*
X75474285Y-57547619D01*
X75521904Y-57500000D01*
X75617142Y-57452380D01*
X75855238Y-57452380D01*
X75998095Y-57500000D01*
X76331428Y-57452380D02*
X76569523Y-58452380D01*
X76760000Y-57738095D01*
X76950476Y-58452380D01*
X77188571Y-57452380D01*
X77998095Y-57785714D02*
X77998095Y-58452380D01*
X77760000Y-57404761D02*
X77521904Y-58119047D01*
X78140952Y-58119047D01*
X89368095Y-61192380D02*
X89368095Y-62001904D01*
X89415714Y-62097142D01*
X89463333Y-62144761D01*
X89558571Y-62192380D01*
X89749047Y-62192380D01*
X89844285Y-62144761D01*
X89891904Y-62097142D01*
X89939523Y-62001904D01*
X89939523Y-61192380D01*
X90368095Y-61287619D02*
X90415714Y-61240000D01*
X90510952Y-61192380D01*
X90749047Y-61192380D01*
X90844285Y-61240000D01*
X90891904Y-61287619D01*
X90939523Y-61382857D01*
X90939523Y-61478095D01*
X90891904Y-61620952D01*
X90320476Y-62192380D01*
X90939523Y-62192380D01*
M02*
