G04 #@! TF.GenerationSoftware,KiCad,Pcbnew,(5.1.0)-1*
G04 #@! TF.CreationDate,2019-06-24T17:02:51-03:00*
G04 #@! TF.ProjectId,Main,4d61696e-2e6b-4696-9361-645f70636258,rev?*
G04 #@! TF.SameCoordinates,Original*
G04 #@! TF.FileFunction,Paste,Top*
G04 #@! TF.FilePolarity,Positive*
%FSLAX46Y46*%
G04 Gerber Fmt 4.6, Leading zero omitted, Abs format (unit mm)*
G04 Created by KiCad (PCBNEW (5.1.0)-1) date 2019-06-24 17:02:51*
%MOMM*%
%LPD*%
G04 APERTURE LIST*
%ADD10R,7.340000X6.350000*%
%ADD11C,0.100000*%
%ADD12C,1.250000*%
%ADD13R,3.300000X2.500000*%
%ADD14R,1.200000X1.550000*%
%ADD15R,1.600000X1.550000*%
%ADD16R,0.800000X0.700000*%
%ADD17R,1.450000X0.450000*%
%ADD18R,2.160000X1.120000*%
%ADD19R,1.120000X2.160000*%
%ADD20R,1.550000X0.600000*%
%ADD21R,0.500000X0.350000*%
%ADD22R,1.650000X2.400000*%
%ADD23R,2.000000X0.650000*%
G04 APERTURE END LIST*
D10*
X60970000Y-76900000D03*
X139630000Y-76900000D03*
D11*
G36*
X108649504Y-94576204D02*
G01*
X108673773Y-94579804D01*
X108697571Y-94585765D01*
X108720671Y-94594030D01*
X108742849Y-94604520D01*
X108763893Y-94617133D01*
X108783598Y-94631747D01*
X108801777Y-94648223D01*
X108818253Y-94666402D01*
X108832867Y-94686107D01*
X108845480Y-94707151D01*
X108855970Y-94729329D01*
X108864235Y-94752429D01*
X108870196Y-94776227D01*
X108873796Y-94800496D01*
X108875000Y-94825000D01*
X108875000Y-95575000D01*
X108873796Y-95599504D01*
X108870196Y-95623773D01*
X108864235Y-95647571D01*
X108855970Y-95670671D01*
X108845480Y-95692849D01*
X108832867Y-95713893D01*
X108818253Y-95733598D01*
X108801777Y-95751777D01*
X108783598Y-95768253D01*
X108763893Y-95782867D01*
X108742849Y-95795480D01*
X108720671Y-95805970D01*
X108697571Y-95814235D01*
X108673773Y-95820196D01*
X108649504Y-95823796D01*
X108625000Y-95825000D01*
X107375000Y-95825000D01*
X107350496Y-95823796D01*
X107326227Y-95820196D01*
X107302429Y-95814235D01*
X107279329Y-95805970D01*
X107257151Y-95795480D01*
X107236107Y-95782867D01*
X107216402Y-95768253D01*
X107198223Y-95751777D01*
X107181747Y-95733598D01*
X107167133Y-95713893D01*
X107154520Y-95692849D01*
X107144030Y-95670671D01*
X107135765Y-95647571D01*
X107129804Y-95623773D01*
X107126204Y-95599504D01*
X107125000Y-95575000D01*
X107125000Y-94825000D01*
X107126204Y-94800496D01*
X107129804Y-94776227D01*
X107135765Y-94752429D01*
X107144030Y-94729329D01*
X107154520Y-94707151D01*
X107167133Y-94686107D01*
X107181747Y-94666402D01*
X107198223Y-94648223D01*
X107216402Y-94631747D01*
X107236107Y-94617133D01*
X107257151Y-94604520D01*
X107279329Y-94594030D01*
X107302429Y-94585765D01*
X107326227Y-94579804D01*
X107350496Y-94576204D01*
X107375000Y-94575000D01*
X108625000Y-94575000D01*
X108649504Y-94576204D01*
X108649504Y-94576204D01*
G37*
D12*
X108000000Y-95200000D03*
D11*
G36*
X108649504Y-97376204D02*
G01*
X108673773Y-97379804D01*
X108697571Y-97385765D01*
X108720671Y-97394030D01*
X108742849Y-97404520D01*
X108763893Y-97417133D01*
X108783598Y-97431747D01*
X108801777Y-97448223D01*
X108818253Y-97466402D01*
X108832867Y-97486107D01*
X108845480Y-97507151D01*
X108855970Y-97529329D01*
X108864235Y-97552429D01*
X108870196Y-97576227D01*
X108873796Y-97600496D01*
X108875000Y-97625000D01*
X108875000Y-98375000D01*
X108873796Y-98399504D01*
X108870196Y-98423773D01*
X108864235Y-98447571D01*
X108855970Y-98470671D01*
X108845480Y-98492849D01*
X108832867Y-98513893D01*
X108818253Y-98533598D01*
X108801777Y-98551777D01*
X108783598Y-98568253D01*
X108763893Y-98582867D01*
X108742849Y-98595480D01*
X108720671Y-98605970D01*
X108697571Y-98614235D01*
X108673773Y-98620196D01*
X108649504Y-98623796D01*
X108625000Y-98625000D01*
X107375000Y-98625000D01*
X107350496Y-98623796D01*
X107326227Y-98620196D01*
X107302429Y-98614235D01*
X107279329Y-98605970D01*
X107257151Y-98595480D01*
X107236107Y-98582867D01*
X107216402Y-98568253D01*
X107198223Y-98551777D01*
X107181747Y-98533598D01*
X107167133Y-98513893D01*
X107154520Y-98492849D01*
X107144030Y-98470671D01*
X107135765Y-98447571D01*
X107129804Y-98423773D01*
X107126204Y-98399504D01*
X107125000Y-98375000D01*
X107125000Y-97625000D01*
X107126204Y-97600496D01*
X107129804Y-97576227D01*
X107135765Y-97552429D01*
X107144030Y-97529329D01*
X107154520Y-97507151D01*
X107167133Y-97486107D01*
X107181747Y-97466402D01*
X107198223Y-97448223D01*
X107216402Y-97431747D01*
X107236107Y-97417133D01*
X107257151Y-97404520D01*
X107279329Y-97394030D01*
X107302429Y-97385765D01*
X107326227Y-97379804D01*
X107350496Y-97376204D01*
X107375000Y-97375000D01*
X108625000Y-97375000D01*
X108649504Y-97376204D01*
X108649504Y-97376204D01*
G37*
D12*
X108000000Y-98000000D03*
D11*
G36*
X119899504Y-92226204D02*
G01*
X119923773Y-92229804D01*
X119947571Y-92235765D01*
X119970671Y-92244030D01*
X119992849Y-92254520D01*
X120013893Y-92267133D01*
X120033598Y-92281747D01*
X120051777Y-92298223D01*
X120068253Y-92316402D01*
X120082867Y-92336107D01*
X120095480Y-92357151D01*
X120105970Y-92379329D01*
X120114235Y-92402429D01*
X120120196Y-92426227D01*
X120123796Y-92450496D01*
X120125000Y-92475000D01*
X120125000Y-93725000D01*
X120123796Y-93749504D01*
X120120196Y-93773773D01*
X120114235Y-93797571D01*
X120105970Y-93820671D01*
X120095480Y-93842849D01*
X120082867Y-93863893D01*
X120068253Y-93883598D01*
X120051777Y-93901777D01*
X120033598Y-93918253D01*
X120013893Y-93932867D01*
X119992849Y-93945480D01*
X119970671Y-93955970D01*
X119947571Y-93964235D01*
X119923773Y-93970196D01*
X119899504Y-93973796D01*
X119875000Y-93975000D01*
X119125000Y-93975000D01*
X119100496Y-93973796D01*
X119076227Y-93970196D01*
X119052429Y-93964235D01*
X119029329Y-93955970D01*
X119007151Y-93945480D01*
X118986107Y-93932867D01*
X118966402Y-93918253D01*
X118948223Y-93901777D01*
X118931747Y-93883598D01*
X118917133Y-93863893D01*
X118904520Y-93842849D01*
X118894030Y-93820671D01*
X118885765Y-93797571D01*
X118879804Y-93773773D01*
X118876204Y-93749504D01*
X118875000Y-93725000D01*
X118875000Y-92475000D01*
X118876204Y-92450496D01*
X118879804Y-92426227D01*
X118885765Y-92402429D01*
X118894030Y-92379329D01*
X118904520Y-92357151D01*
X118917133Y-92336107D01*
X118931747Y-92316402D01*
X118948223Y-92298223D01*
X118966402Y-92281747D01*
X118986107Y-92267133D01*
X119007151Y-92254520D01*
X119029329Y-92244030D01*
X119052429Y-92235765D01*
X119076227Y-92229804D01*
X119100496Y-92226204D01*
X119125000Y-92225000D01*
X119875000Y-92225000D01*
X119899504Y-92226204D01*
X119899504Y-92226204D01*
G37*
D12*
X119500000Y-93100000D03*
D11*
G36*
X122699504Y-92226204D02*
G01*
X122723773Y-92229804D01*
X122747571Y-92235765D01*
X122770671Y-92244030D01*
X122792849Y-92254520D01*
X122813893Y-92267133D01*
X122833598Y-92281747D01*
X122851777Y-92298223D01*
X122868253Y-92316402D01*
X122882867Y-92336107D01*
X122895480Y-92357151D01*
X122905970Y-92379329D01*
X122914235Y-92402429D01*
X122920196Y-92426227D01*
X122923796Y-92450496D01*
X122925000Y-92475000D01*
X122925000Y-93725000D01*
X122923796Y-93749504D01*
X122920196Y-93773773D01*
X122914235Y-93797571D01*
X122905970Y-93820671D01*
X122895480Y-93842849D01*
X122882867Y-93863893D01*
X122868253Y-93883598D01*
X122851777Y-93901777D01*
X122833598Y-93918253D01*
X122813893Y-93932867D01*
X122792849Y-93945480D01*
X122770671Y-93955970D01*
X122747571Y-93964235D01*
X122723773Y-93970196D01*
X122699504Y-93973796D01*
X122675000Y-93975000D01*
X121925000Y-93975000D01*
X121900496Y-93973796D01*
X121876227Y-93970196D01*
X121852429Y-93964235D01*
X121829329Y-93955970D01*
X121807151Y-93945480D01*
X121786107Y-93932867D01*
X121766402Y-93918253D01*
X121748223Y-93901777D01*
X121731747Y-93883598D01*
X121717133Y-93863893D01*
X121704520Y-93842849D01*
X121694030Y-93820671D01*
X121685765Y-93797571D01*
X121679804Y-93773773D01*
X121676204Y-93749504D01*
X121675000Y-93725000D01*
X121675000Y-92475000D01*
X121676204Y-92450496D01*
X121679804Y-92426227D01*
X121685765Y-92402429D01*
X121694030Y-92379329D01*
X121704520Y-92357151D01*
X121717133Y-92336107D01*
X121731747Y-92316402D01*
X121748223Y-92298223D01*
X121766402Y-92281747D01*
X121786107Y-92267133D01*
X121807151Y-92254520D01*
X121829329Y-92244030D01*
X121852429Y-92235765D01*
X121876227Y-92229804D01*
X121900496Y-92226204D01*
X121925000Y-92225000D01*
X122675000Y-92225000D01*
X122699504Y-92226204D01*
X122699504Y-92226204D01*
G37*
D12*
X122300000Y-93100000D03*
D11*
G36*
X79449504Y-94076204D02*
G01*
X79473773Y-94079804D01*
X79497571Y-94085765D01*
X79520671Y-94094030D01*
X79542849Y-94104520D01*
X79563893Y-94117133D01*
X79583598Y-94131747D01*
X79601777Y-94148223D01*
X79618253Y-94166402D01*
X79632867Y-94186107D01*
X79645480Y-94207151D01*
X79655970Y-94229329D01*
X79664235Y-94252429D01*
X79670196Y-94276227D01*
X79673796Y-94300496D01*
X79675000Y-94325000D01*
X79675000Y-95075000D01*
X79673796Y-95099504D01*
X79670196Y-95123773D01*
X79664235Y-95147571D01*
X79655970Y-95170671D01*
X79645480Y-95192849D01*
X79632867Y-95213893D01*
X79618253Y-95233598D01*
X79601777Y-95251777D01*
X79583598Y-95268253D01*
X79563893Y-95282867D01*
X79542849Y-95295480D01*
X79520671Y-95305970D01*
X79497571Y-95314235D01*
X79473773Y-95320196D01*
X79449504Y-95323796D01*
X79425000Y-95325000D01*
X78175000Y-95325000D01*
X78150496Y-95323796D01*
X78126227Y-95320196D01*
X78102429Y-95314235D01*
X78079329Y-95305970D01*
X78057151Y-95295480D01*
X78036107Y-95282867D01*
X78016402Y-95268253D01*
X77998223Y-95251777D01*
X77981747Y-95233598D01*
X77967133Y-95213893D01*
X77954520Y-95192849D01*
X77944030Y-95170671D01*
X77935765Y-95147571D01*
X77929804Y-95123773D01*
X77926204Y-95099504D01*
X77925000Y-95075000D01*
X77925000Y-94325000D01*
X77926204Y-94300496D01*
X77929804Y-94276227D01*
X77935765Y-94252429D01*
X77944030Y-94229329D01*
X77954520Y-94207151D01*
X77967133Y-94186107D01*
X77981747Y-94166402D01*
X77998223Y-94148223D01*
X78016402Y-94131747D01*
X78036107Y-94117133D01*
X78057151Y-94104520D01*
X78079329Y-94094030D01*
X78102429Y-94085765D01*
X78126227Y-94079804D01*
X78150496Y-94076204D01*
X78175000Y-94075000D01*
X79425000Y-94075000D01*
X79449504Y-94076204D01*
X79449504Y-94076204D01*
G37*
D12*
X78800000Y-94700000D03*
D11*
G36*
X79449504Y-96876204D02*
G01*
X79473773Y-96879804D01*
X79497571Y-96885765D01*
X79520671Y-96894030D01*
X79542849Y-96904520D01*
X79563893Y-96917133D01*
X79583598Y-96931747D01*
X79601777Y-96948223D01*
X79618253Y-96966402D01*
X79632867Y-96986107D01*
X79645480Y-97007151D01*
X79655970Y-97029329D01*
X79664235Y-97052429D01*
X79670196Y-97076227D01*
X79673796Y-97100496D01*
X79675000Y-97125000D01*
X79675000Y-97875000D01*
X79673796Y-97899504D01*
X79670196Y-97923773D01*
X79664235Y-97947571D01*
X79655970Y-97970671D01*
X79645480Y-97992849D01*
X79632867Y-98013893D01*
X79618253Y-98033598D01*
X79601777Y-98051777D01*
X79583598Y-98068253D01*
X79563893Y-98082867D01*
X79542849Y-98095480D01*
X79520671Y-98105970D01*
X79497571Y-98114235D01*
X79473773Y-98120196D01*
X79449504Y-98123796D01*
X79425000Y-98125000D01*
X78175000Y-98125000D01*
X78150496Y-98123796D01*
X78126227Y-98120196D01*
X78102429Y-98114235D01*
X78079329Y-98105970D01*
X78057151Y-98095480D01*
X78036107Y-98082867D01*
X78016402Y-98068253D01*
X77998223Y-98051777D01*
X77981747Y-98033598D01*
X77967133Y-98013893D01*
X77954520Y-97992849D01*
X77944030Y-97970671D01*
X77935765Y-97947571D01*
X77929804Y-97923773D01*
X77926204Y-97899504D01*
X77925000Y-97875000D01*
X77925000Y-97125000D01*
X77926204Y-97100496D01*
X77929804Y-97076227D01*
X77935765Y-97052429D01*
X77944030Y-97029329D01*
X77954520Y-97007151D01*
X77967133Y-96986107D01*
X77981747Y-96966402D01*
X77998223Y-96948223D01*
X78016402Y-96931747D01*
X78036107Y-96917133D01*
X78057151Y-96904520D01*
X78079329Y-96894030D01*
X78102429Y-96885765D01*
X78126227Y-96879804D01*
X78150496Y-96876204D01*
X78175000Y-96875000D01*
X79425000Y-96875000D01*
X79449504Y-96876204D01*
X79449504Y-96876204D01*
G37*
D12*
X78800000Y-97500000D03*
D11*
G36*
X116754505Y-92399205D02*
G01*
X116778774Y-92402805D01*
X116802572Y-92408766D01*
X116825672Y-92417031D01*
X116847850Y-92427521D01*
X116868894Y-92440134D01*
X116888599Y-92454748D01*
X116906778Y-92471224D01*
X116923254Y-92489403D01*
X116937868Y-92509108D01*
X116950481Y-92530152D01*
X116960971Y-92552330D01*
X116969236Y-92575430D01*
X116975197Y-92599228D01*
X116978797Y-92623497D01*
X116980001Y-92648001D01*
X116980001Y-93398001D01*
X116978797Y-93422505D01*
X116975197Y-93446774D01*
X116969236Y-93470572D01*
X116960971Y-93493672D01*
X116950481Y-93515850D01*
X116937868Y-93536894D01*
X116923254Y-93556599D01*
X116906778Y-93574778D01*
X116888599Y-93591254D01*
X116868894Y-93605868D01*
X116847850Y-93618481D01*
X116825672Y-93628971D01*
X116802572Y-93637236D01*
X116778774Y-93643197D01*
X116754505Y-93646797D01*
X116730001Y-93648001D01*
X115480001Y-93648001D01*
X115455497Y-93646797D01*
X115431228Y-93643197D01*
X115407430Y-93637236D01*
X115384330Y-93628971D01*
X115362152Y-93618481D01*
X115341108Y-93605868D01*
X115321403Y-93591254D01*
X115303224Y-93574778D01*
X115286748Y-93556599D01*
X115272134Y-93536894D01*
X115259521Y-93515850D01*
X115249031Y-93493672D01*
X115240766Y-93470572D01*
X115234805Y-93446774D01*
X115231205Y-93422505D01*
X115230001Y-93398001D01*
X115230001Y-92648001D01*
X115231205Y-92623497D01*
X115234805Y-92599228D01*
X115240766Y-92575430D01*
X115249031Y-92552330D01*
X115259521Y-92530152D01*
X115272134Y-92509108D01*
X115286748Y-92489403D01*
X115303224Y-92471224D01*
X115321403Y-92454748D01*
X115341108Y-92440134D01*
X115362152Y-92427521D01*
X115384330Y-92417031D01*
X115407430Y-92408766D01*
X115431228Y-92402805D01*
X115455497Y-92399205D01*
X115480001Y-92398001D01*
X116730001Y-92398001D01*
X116754505Y-92399205D01*
X116754505Y-92399205D01*
G37*
D12*
X116105001Y-93023001D03*
D11*
G36*
X116754505Y-89599205D02*
G01*
X116778774Y-89602805D01*
X116802572Y-89608766D01*
X116825672Y-89617031D01*
X116847850Y-89627521D01*
X116868894Y-89640134D01*
X116888599Y-89654748D01*
X116906778Y-89671224D01*
X116923254Y-89689403D01*
X116937868Y-89709108D01*
X116950481Y-89730152D01*
X116960971Y-89752330D01*
X116969236Y-89775430D01*
X116975197Y-89799228D01*
X116978797Y-89823497D01*
X116980001Y-89848001D01*
X116980001Y-90598001D01*
X116978797Y-90622505D01*
X116975197Y-90646774D01*
X116969236Y-90670572D01*
X116960971Y-90693672D01*
X116950481Y-90715850D01*
X116937868Y-90736894D01*
X116923254Y-90756599D01*
X116906778Y-90774778D01*
X116888599Y-90791254D01*
X116868894Y-90805868D01*
X116847850Y-90818481D01*
X116825672Y-90828971D01*
X116802572Y-90837236D01*
X116778774Y-90843197D01*
X116754505Y-90846797D01*
X116730001Y-90848001D01*
X115480001Y-90848001D01*
X115455497Y-90846797D01*
X115431228Y-90843197D01*
X115407430Y-90837236D01*
X115384330Y-90828971D01*
X115362152Y-90818481D01*
X115341108Y-90805868D01*
X115321403Y-90791254D01*
X115303224Y-90774778D01*
X115286748Y-90756599D01*
X115272134Y-90736894D01*
X115259521Y-90715850D01*
X115249031Y-90693672D01*
X115240766Y-90670572D01*
X115234805Y-90646774D01*
X115231205Y-90622505D01*
X115230001Y-90598001D01*
X115230001Y-89848001D01*
X115231205Y-89823497D01*
X115234805Y-89799228D01*
X115240766Y-89775430D01*
X115249031Y-89752330D01*
X115259521Y-89730152D01*
X115272134Y-89709108D01*
X115286748Y-89689403D01*
X115303224Y-89671224D01*
X115321403Y-89654748D01*
X115341108Y-89640134D01*
X115362152Y-89627521D01*
X115384330Y-89617031D01*
X115407430Y-89608766D01*
X115431228Y-89602805D01*
X115455497Y-89599205D01*
X115480001Y-89598001D01*
X116730001Y-89598001D01*
X116754505Y-89599205D01*
X116754505Y-89599205D01*
G37*
D12*
X116105001Y-90223001D03*
D11*
G36*
X112649504Y-89599205D02*
G01*
X112673773Y-89602805D01*
X112697571Y-89608766D01*
X112720671Y-89617031D01*
X112742849Y-89627521D01*
X112763893Y-89640134D01*
X112783598Y-89654748D01*
X112801777Y-89671224D01*
X112818253Y-89689403D01*
X112832867Y-89709108D01*
X112845480Y-89730152D01*
X112855970Y-89752330D01*
X112864235Y-89775430D01*
X112870196Y-89799228D01*
X112873796Y-89823497D01*
X112875000Y-89848001D01*
X112875000Y-90598001D01*
X112873796Y-90622505D01*
X112870196Y-90646774D01*
X112864235Y-90670572D01*
X112855970Y-90693672D01*
X112845480Y-90715850D01*
X112832867Y-90736894D01*
X112818253Y-90756599D01*
X112801777Y-90774778D01*
X112783598Y-90791254D01*
X112763893Y-90805868D01*
X112742849Y-90818481D01*
X112720671Y-90828971D01*
X112697571Y-90837236D01*
X112673773Y-90843197D01*
X112649504Y-90846797D01*
X112625000Y-90848001D01*
X111375000Y-90848001D01*
X111350496Y-90846797D01*
X111326227Y-90843197D01*
X111302429Y-90837236D01*
X111279329Y-90828971D01*
X111257151Y-90818481D01*
X111236107Y-90805868D01*
X111216402Y-90791254D01*
X111198223Y-90774778D01*
X111181747Y-90756599D01*
X111167133Y-90736894D01*
X111154520Y-90715850D01*
X111144030Y-90693672D01*
X111135765Y-90670572D01*
X111129804Y-90646774D01*
X111126204Y-90622505D01*
X111125000Y-90598001D01*
X111125000Y-89848001D01*
X111126204Y-89823497D01*
X111129804Y-89799228D01*
X111135765Y-89775430D01*
X111144030Y-89752330D01*
X111154520Y-89730152D01*
X111167133Y-89709108D01*
X111181747Y-89689403D01*
X111198223Y-89671224D01*
X111216402Y-89654748D01*
X111236107Y-89640134D01*
X111257151Y-89627521D01*
X111279329Y-89617031D01*
X111302429Y-89608766D01*
X111326227Y-89602805D01*
X111350496Y-89599205D01*
X111375000Y-89598001D01*
X112625000Y-89598001D01*
X112649504Y-89599205D01*
X112649504Y-89599205D01*
G37*
D12*
X112000000Y-90223001D03*
D11*
G36*
X112649504Y-92399205D02*
G01*
X112673773Y-92402805D01*
X112697571Y-92408766D01*
X112720671Y-92417031D01*
X112742849Y-92427521D01*
X112763893Y-92440134D01*
X112783598Y-92454748D01*
X112801777Y-92471224D01*
X112818253Y-92489403D01*
X112832867Y-92509108D01*
X112845480Y-92530152D01*
X112855970Y-92552330D01*
X112864235Y-92575430D01*
X112870196Y-92599228D01*
X112873796Y-92623497D01*
X112875000Y-92648001D01*
X112875000Y-93398001D01*
X112873796Y-93422505D01*
X112870196Y-93446774D01*
X112864235Y-93470572D01*
X112855970Y-93493672D01*
X112845480Y-93515850D01*
X112832867Y-93536894D01*
X112818253Y-93556599D01*
X112801777Y-93574778D01*
X112783598Y-93591254D01*
X112763893Y-93605868D01*
X112742849Y-93618481D01*
X112720671Y-93628971D01*
X112697571Y-93637236D01*
X112673773Y-93643197D01*
X112649504Y-93646797D01*
X112625000Y-93648001D01*
X111375000Y-93648001D01*
X111350496Y-93646797D01*
X111326227Y-93643197D01*
X111302429Y-93637236D01*
X111279329Y-93628971D01*
X111257151Y-93618481D01*
X111236107Y-93605868D01*
X111216402Y-93591254D01*
X111198223Y-93574778D01*
X111181747Y-93556599D01*
X111167133Y-93536894D01*
X111154520Y-93515850D01*
X111144030Y-93493672D01*
X111135765Y-93470572D01*
X111129804Y-93446774D01*
X111126204Y-93422505D01*
X111125000Y-93398001D01*
X111125000Y-92648001D01*
X111126204Y-92623497D01*
X111129804Y-92599228D01*
X111135765Y-92575430D01*
X111144030Y-92552330D01*
X111154520Y-92530152D01*
X111167133Y-92509108D01*
X111181747Y-92489403D01*
X111198223Y-92471224D01*
X111216402Y-92454748D01*
X111236107Y-92440134D01*
X111257151Y-92427521D01*
X111279329Y-92417031D01*
X111302429Y-92408766D01*
X111326227Y-92402805D01*
X111350496Y-92399205D01*
X111375000Y-92398001D01*
X112625000Y-92398001D01*
X112649504Y-92399205D01*
X112649504Y-92399205D01*
G37*
D12*
X112000000Y-93023001D03*
D11*
G36*
X92286503Y-130461205D02*
G01*
X92310772Y-130464805D01*
X92334570Y-130470766D01*
X92357670Y-130479031D01*
X92379848Y-130489521D01*
X92400892Y-130502134D01*
X92420597Y-130516748D01*
X92438776Y-130533224D01*
X92455252Y-130551403D01*
X92469866Y-130571108D01*
X92482479Y-130592152D01*
X92492969Y-130614330D01*
X92501234Y-130637430D01*
X92507195Y-130661228D01*
X92510795Y-130685497D01*
X92511999Y-130710001D01*
X92511999Y-131460001D01*
X92510795Y-131484505D01*
X92507195Y-131508774D01*
X92501234Y-131532572D01*
X92492969Y-131555672D01*
X92482479Y-131577850D01*
X92469866Y-131598894D01*
X92455252Y-131618599D01*
X92438776Y-131636778D01*
X92420597Y-131653254D01*
X92400892Y-131667868D01*
X92379848Y-131680481D01*
X92357670Y-131690971D01*
X92334570Y-131699236D01*
X92310772Y-131705197D01*
X92286503Y-131708797D01*
X92261999Y-131710001D01*
X91011999Y-131710001D01*
X90987495Y-131708797D01*
X90963226Y-131705197D01*
X90939428Y-131699236D01*
X90916328Y-131690971D01*
X90894150Y-131680481D01*
X90873106Y-131667868D01*
X90853401Y-131653254D01*
X90835222Y-131636778D01*
X90818746Y-131618599D01*
X90804132Y-131598894D01*
X90791519Y-131577850D01*
X90781029Y-131555672D01*
X90772764Y-131532572D01*
X90766803Y-131508774D01*
X90763203Y-131484505D01*
X90761999Y-131460001D01*
X90761999Y-130710001D01*
X90763203Y-130685497D01*
X90766803Y-130661228D01*
X90772764Y-130637430D01*
X90781029Y-130614330D01*
X90791519Y-130592152D01*
X90804132Y-130571108D01*
X90818746Y-130551403D01*
X90835222Y-130533224D01*
X90853401Y-130516748D01*
X90873106Y-130502134D01*
X90894150Y-130489521D01*
X90916328Y-130479031D01*
X90939428Y-130470766D01*
X90963226Y-130464805D01*
X90987495Y-130461205D01*
X91011999Y-130460001D01*
X92261999Y-130460001D01*
X92286503Y-130461205D01*
X92286503Y-130461205D01*
G37*
D12*
X91636999Y-131085001D03*
D11*
G36*
X92286503Y-133261205D02*
G01*
X92310772Y-133264805D01*
X92334570Y-133270766D01*
X92357670Y-133279031D01*
X92379848Y-133289521D01*
X92400892Y-133302134D01*
X92420597Y-133316748D01*
X92438776Y-133333224D01*
X92455252Y-133351403D01*
X92469866Y-133371108D01*
X92482479Y-133392152D01*
X92492969Y-133414330D01*
X92501234Y-133437430D01*
X92507195Y-133461228D01*
X92510795Y-133485497D01*
X92511999Y-133510001D01*
X92511999Y-134260001D01*
X92510795Y-134284505D01*
X92507195Y-134308774D01*
X92501234Y-134332572D01*
X92492969Y-134355672D01*
X92482479Y-134377850D01*
X92469866Y-134398894D01*
X92455252Y-134418599D01*
X92438776Y-134436778D01*
X92420597Y-134453254D01*
X92400892Y-134467868D01*
X92379848Y-134480481D01*
X92357670Y-134490971D01*
X92334570Y-134499236D01*
X92310772Y-134505197D01*
X92286503Y-134508797D01*
X92261999Y-134510001D01*
X91011999Y-134510001D01*
X90987495Y-134508797D01*
X90963226Y-134505197D01*
X90939428Y-134499236D01*
X90916328Y-134490971D01*
X90894150Y-134480481D01*
X90873106Y-134467868D01*
X90853401Y-134453254D01*
X90835222Y-134436778D01*
X90818746Y-134418599D01*
X90804132Y-134398894D01*
X90791519Y-134377850D01*
X90781029Y-134355672D01*
X90772764Y-134332572D01*
X90766803Y-134308774D01*
X90763203Y-134284505D01*
X90761999Y-134260001D01*
X90761999Y-133510001D01*
X90763203Y-133485497D01*
X90766803Y-133461228D01*
X90772764Y-133437430D01*
X90781029Y-133414330D01*
X90791519Y-133392152D01*
X90804132Y-133371108D01*
X90818746Y-133351403D01*
X90835222Y-133333224D01*
X90853401Y-133316748D01*
X90873106Y-133302134D01*
X90894150Y-133289521D01*
X90916328Y-133279031D01*
X90939428Y-133270766D01*
X90963226Y-133264805D01*
X90987495Y-133261205D01*
X91011999Y-133260001D01*
X92261999Y-133260001D01*
X92286503Y-133261205D01*
X92286503Y-133261205D01*
G37*
D12*
X91636999Y-133885001D03*
D11*
G36*
X99999504Y-133376204D02*
G01*
X100023773Y-133379804D01*
X100047571Y-133385765D01*
X100070671Y-133394030D01*
X100092849Y-133404520D01*
X100113893Y-133417133D01*
X100133598Y-133431747D01*
X100151777Y-133448223D01*
X100168253Y-133466402D01*
X100182867Y-133486107D01*
X100195480Y-133507151D01*
X100205970Y-133529329D01*
X100214235Y-133552429D01*
X100220196Y-133576227D01*
X100223796Y-133600496D01*
X100225000Y-133625000D01*
X100225000Y-134375000D01*
X100223796Y-134399504D01*
X100220196Y-134423773D01*
X100214235Y-134447571D01*
X100205970Y-134470671D01*
X100195480Y-134492849D01*
X100182867Y-134513893D01*
X100168253Y-134533598D01*
X100151777Y-134551777D01*
X100133598Y-134568253D01*
X100113893Y-134582867D01*
X100092849Y-134595480D01*
X100070671Y-134605970D01*
X100047571Y-134614235D01*
X100023773Y-134620196D01*
X99999504Y-134623796D01*
X99975000Y-134625000D01*
X98725000Y-134625000D01*
X98700496Y-134623796D01*
X98676227Y-134620196D01*
X98652429Y-134614235D01*
X98629329Y-134605970D01*
X98607151Y-134595480D01*
X98586107Y-134582867D01*
X98566402Y-134568253D01*
X98548223Y-134551777D01*
X98531747Y-134533598D01*
X98517133Y-134513893D01*
X98504520Y-134492849D01*
X98494030Y-134470671D01*
X98485765Y-134447571D01*
X98479804Y-134423773D01*
X98476204Y-134399504D01*
X98475000Y-134375000D01*
X98475000Y-133625000D01*
X98476204Y-133600496D01*
X98479804Y-133576227D01*
X98485765Y-133552429D01*
X98494030Y-133529329D01*
X98504520Y-133507151D01*
X98517133Y-133486107D01*
X98531747Y-133466402D01*
X98548223Y-133448223D01*
X98566402Y-133431747D01*
X98586107Y-133417133D01*
X98607151Y-133404520D01*
X98629329Y-133394030D01*
X98652429Y-133385765D01*
X98676227Y-133379804D01*
X98700496Y-133376204D01*
X98725000Y-133375000D01*
X99975000Y-133375000D01*
X99999504Y-133376204D01*
X99999504Y-133376204D01*
G37*
D12*
X99350000Y-134000000D03*
D11*
G36*
X99999504Y-130576204D02*
G01*
X100023773Y-130579804D01*
X100047571Y-130585765D01*
X100070671Y-130594030D01*
X100092849Y-130604520D01*
X100113893Y-130617133D01*
X100133598Y-130631747D01*
X100151777Y-130648223D01*
X100168253Y-130666402D01*
X100182867Y-130686107D01*
X100195480Y-130707151D01*
X100205970Y-130729329D01*
X100214235Y-130752429D01*
X100220196Y-130776227D01*
X100223796Y-130800496D01*
X100225000Y-130825000D01*
X100225000Y-131575000D01*
X100223796Y-131599504D01*
X100220196Y-131623773D01*
X100214235Y-131647571D01*
X100205970Y-131670671D01*
X100195480Y-131692849D01*
X100182867Y-131713893D01*
X100168253Y-131733598D01*
X100151777Y-131751777D01*
X100133598Y-131768253D01*
X100113893Y-131782867D01*
X100092849Y-131795480D01*
X100070671Y-131805970D01*
X100047571Y-131814235D01*
X100023773Y-131820196D01*
X99999504Y-131823796D01*
X99975000Y-131825000D01*
X98725000Y-131825000D01*
X98700496Y-131823796D01*
X98676227Y-131820196D01*
X98652429Y-131814235D01*
X98629329Y-131805970D01*
X98607151Y-131795480D01*
X98586107Y-131782867D01*
X98566402Y-131768253D01*
X98548223Y-131751777D01*
X98531747Y-131733598D01*
X98517133Y-131713893D01*
X98504520Y-131692849D01*
X98494030Y-131670671D01*
X98485765Y-131647571D01*
X98479804Y-131623773D01*
X98476204Y-131599504D01*
X98475000Y-131575000D01*
X98475000Y-130825000D01*
X98476204Y-130800496D01*
X98479804Y-130776227D01*
X98485765Y-130752429D01*
X98494030Y-130729329D01*
X98504520Y-130707151D01*
X98517133Y-130686107D01*
X98531747Y-130666402D01*
X98548223Y-130648223D01*
X98566402Y-130631747D01*
X98586107Y-130617133D01*
X98607151Y-130604520D01*
X98629329Y-130594030D01*
X98652429Y-130585765D01*
X98676227Y-130579804D01*
X98700496Y-130576204D01*
X98725000Y-130575000D01*
X99975000Y-130575000D01*
X99999504Y-130576204D01*
X99999504Y-130576204D01*
G37*
D12*
X99350000Y-131200000D03*
D11*
G36*
X129799504Y-98126204D02*
G01*
X129823773Y-98129804D01*
X129847571Y-98135765D01*
X129870671Y-98144030D01*
X129892849Y-98154520D01*
X129913893Y-98167133D01*
X129933598Y-98181747D01*
X129951777Y-98198223D01*
X129968253Y-98216402D01*
X129982867Y-98236107D01*
X129995480Y-98257151D01*
X130005970Y-98279329D01*
X130014235Y-98302429D01*
X130020196Y-98326227D01*
X130023796Y-98350496D01*
X130025000Y-98375000D01*
X130025000Y-99625000D01*
X130023796Y-99649504D01*
X130020196Y-99673773D01*
X130014235Y-99697571D01*
X130005970Y-99720671D01*
X129995480Y-99742849D01*
X129982867Y-99763893D01*
X129968253Y-99783598D01*
X129951777Y-99801777D01*
X129933598Y-99818253D01*
X129913893Y-99832867D01*
X129892849Y-99845480D01*
X129870671Y-99855970D01*
X129847571Y-99864235D01*
X129823773Y-99870196D01*
X129799504Y-99873796D01*
X129775000Y-99875000D01*
X129025000Y-99875000D01*
X129000496Y-99873796D01*
X128976227Y-99870196D01*
X128952429Y-99864235D01*
X128929329Y-99855970D01*
X128907151Y-99845480D01*
X128886107Y-99832867D01*
X128866402Y-99818253D01*
X128848223Y-99801777D01*
X128831747Y-99783598D01*
X128817133Y-99763893D01*
X128804520Y-99742849D01*
X128794030Y-99720671D01*
X128785765Y-99697571D01*
X128779804Y-99673773D01*
X128776204Y-99649504D01*
X128775000Y-99625000D01*
X128775000Y-98375000D01*
X128776204Y-98350496D01*
X128779804Y-98326227D01*
X128785765Y-98302429D01*
X128794030Y-98279329D01*
X128804520Y-98257151D01*
X128817133Y-98236107D01*
X128831747Y-98216402D01*
X128848223Y-98198223D01*
X128866402Y-98181747D01*
X128886107Y-98167133D01*
X128907151Y-98154520D01*
X128929329Y-98144030D01*
X128952429Y-98135765D01*
X128976227Y-98129804D01*
X129000496Y-98126204D01*
X129025000Y-98125000D01*
X129775000Y-98125000D01*
X129799504Y-98126204D01*
X129799504Y-98126204D01*
G37*
D12*
X129400000Y-99000000D03*
D11*
G36*
X126999504Y-98126204D02*
G01*
X127023773Y-98129804D01*
X127047571Y-98135765D01*
X127070671Y-98144030D01*
X127092849Y-98154520D01*
X127113893Y-98167133D01*
X127133598Y-98181747D01*
X127151777Y-98198223D01*
X127168253Y-98216402D01*
X127182867Y-98236107D01*
X127195480Y-98257151D01*
X127205970Y-98279329D01*
X127214235Y-98302429D01*
X127220196Y-98326227D01*
X127223796Y-98350496D01*
X127225000Y-98375000D01*
X127225000Y-99625000D01*
X127223796Y-99649504D01*
X127220196Y-99673773D01*
X127214235Y-99697571D01*
X127205970Y-99720671D01*
X127195480Y-99742849D01*
X127182867Y-99763893D01*
X127168253Y-99783598D01*
X127151777Y-99801777D01*
X127133598Y-99818253D01*
X127113893Y-99832867D01*
X127092849Y-99845480D01*
X127070671Y-99855970D01*
X127047571Y-99864235D01*
X127023773Y-99870196D01*
X126999504Y-99873796D01*
X126975000Y-99875000D01*
X126225000Y-99875000D01*
X126200496Y-99873796D01*
X126176227Y-99870196D01*
X126152429Y-99864235D01*
X126129329Y-99855970D01*
X126107151Y-99845480D01*
X126086107Y-99832867D01*
X126066402Y-99818253D01*
X126048223Y-99801777D01*
X126031747Y-99783598D01*
X126017133Y-99763893D01*
X126004520Y-99742849D01*
X125994030Y-99720671D01*
X125985765Y-99697571D01*
X125979804Y-99673773D01*
X125976204Y-99649504D01*
X125975000Y-99625000D01*
X125975000Y-98375000D01*
X125976204Y-98350496D01*
X125979804Y-98326227D01*
X125985765Y-98302429D01*
X125994030Y-98279329D01*
X126004520Y-98257151D01*
X126017133Y-98236107D01*
X126031747Y-98216402D01*
X126048223Y-98198223D01*
X126066402Y-98181747D01*
X126086107Y-98167133D01*
X126107151Y-98154520D01*
X126129329Y-98144030D01*
X126152429Y-98135765D01*
X126176227Y-98129804D01*
X126200496Y-98126204D01*
X126225000Y-98125000D01*
X126975000Y-98125000D01*
X126999504Y-98126204D01*
X126999504Y-98126204D01*
G37*
D12*
X126600000Y-99000000D03*
D13*
X129000000Y-102600000D03*
X129000000Y-109400000D03*
D14*
X67350000Y-108690000D03*
X67350000Y-106510000D03*
D15*
X69350000Y-108690000D03*
X69350000Y-106510000D03*
D16*
X70850000Y-105690000D03*
X70850000Y-106960000D03*
X70850000Y-108240000D03*
X70850000Y-109510000D03*
X65350000Y-109510000D03*
X65350000Y-108240000D03*
X65350000Y-106960000D03*
X65350000Y-105690000D03*
X79850000Y-109510000D03*
X79850000Y-108240000D03*
X79850000Y-106960000D03*
X79850000Y-105690000D03*
X74350000Y-105690000D03*
X74350000Y-106960000D03*
X74350000Y-108240000D03*
X74350000Y-109510000D03*
D15*
X75850000Y-108690000D03*
X75850000Y-106510000D03*
D14*
X77850000Y-108690000D03*
X77850000Y-106510000D03*
D17*
X111840000Y-104555000D03*
X111840000Y-105205000D03*
X111840000Y-105855000D03*
X111840000Y-106505000D03*
X117740000Y-106505000D03*
X117740000Y-105855000D03*
X117740000Y-105205000D03*
X117740000Y-104555000D03*
D11*
G36*
X133649504Y-95576204D02*
G01*
X133673773Y-95579804D01*
X133697571Y-95585765D01*
X133720671Y-95594030D01*
X133742849Y-95604520D01*
X133763893Y-95617133D01*
X133783598Y-95631747D01*
X133801777Y-95648223D01*
X133818253Y-95666402D01*
X133832867Y-95686107D01*
X133845480Y-95707151D01*
X133855970Y-95729329D01*
X133864235Y-95752429D01*
X133870196Y-95776227D01*
X133873796Y-95800496D01*
X133875000Y-95825000D01*
X133875000Y-96575000D01*
X133873796Y-96599504D01*
X133870196Y-96623773D01*
X133864235Y-96647571D01*
X133855970Y-96670671D01*
X133845480Y-96692849D01*
X133832867Y-96713893D01*
X133818253Y-96733598D01*
X133801777Y-96751777D01*
X133783598Y-96768253D01*
X133763893Y-96782867D01*
X133742849Y-96795480D01*
X133720671Y-96805970D01*
X133697571Y-96814235D01*
X133673773Y-96820196D01*
X133649504Y-96823796D01*
X133625000Y-96825000D01*
X132375000Y-96825000D01*
X132350496Y-96823796D01*
X132326227Y-96820196D01*
X132302429Y-96814235D01*
X132279329Y-96805970D01*
X132257151Y-96795480D01*
X132236107Y-96782867D01*
X132216402Y-96768253D01*
X132198223Y-96751777D01*
X132181747Y-96733598D01*
X132167133Y-96713893D01*
X132154520Y-96692849D01*
X132144030Y-96670671D01*
X132135765Y-96647571D01*
X132129804Y-96623773D01*
X132126204Y-96599504D01*
X132125000Y-96575000D01*
X132125000Y-95825000D01*
X132126204Y-95800496D01*
X132129804Y-95776227D01*
X132135765Y-95752429D01*
X132144030Y-95729329D01*
X132154520Y-95707151D01*
X132167133Y-95686107D01*
X132181747Y-95666402D01*
X132198223Y-95648223D01*
X132216402Y-95631747D01*
X132236107Y-95617133D01*
X132257151Y-95604520D01*
X132279329Y-95594030D01*
X132302429Y-95585765D01*
X132326227Y-95579804D01*
X132350496Y-95576204D01*
X132375000Y-95575000D01*
X133625000Y-95575000D01*
X133649504Y-95576204D01*
X133649504Y-95576204D01*
G37*
D12*
X133000000Y-96200000D03*
D11*
G36*
X133649504Y-98376204D02*
G01*
X133673773Y-98379804D01*
X133697571Y-98385765D01*
X133720671Y-98394030D01*
X133742849Y-98404520D01*
X133763893Y-98417133D01*
X133783598Y-98431747D01*
X133801777Y-98448223D01*
X133818253Y-98466402D01*
X133832867Y-98486107D01*
X133845480Y-98507151D01*
X133855970Y-98529329D01*
X133864235Y-98552429D01*
X133870196Y-98576227D01*
X133873796Y-98600496D01*
X133875000Y-98625000D01*
X133875000Y-99375000D01*
X133873796Y-99399504D01*
X133870196Y-99423773D01*
X133864235Y-99447571D01*
X133855970Y-99470671D01*
X133845480Y-99492849D01*
X133832867Y-99513893D01*
X133818253Y-99533598D01*
X133801777Y-99551777D01*
X133783598Y-99568253D01*
X133763893Y-99582867D01*
X133742849Y-99595480D01*
X133720671Y-99605970D01*
X133697571Y-99614235D01*
X133673773Y-99620196D01*
X133649504Y-99623796D01*
X133625000Y-99625000D01*
X132375000Y-99625000D01*
X132350496Y-99623796D01*
X132326227Y-99620196D01*
X132302429Y-99614235D01*
X132279329Y-99605970D01*
X132257151Y-99595480D01*
X132236107Y-99582867D01*
X132216402Y-99568253D01*
X132198223Y-99551777D01*
X132181747Y-99533598D01*
X132167133Y-99513893D01*
X132154520Y-99492849D01*
X132144030Y-99470671D01*
X132135765Y-99447571D01*
X132129804Y-99423773D01*
X132126204Y-99399504D01*
X132125000Y-99375000D01*
X132125000Y-98625000D01*
X132126204Y-98600496D01*
X132129804Y-98576227D01*
X132135765Y-98552429D01*
X132144030Y-98529329D01*
X132154520Y-98507151D01*
X132167133Y-98486107D01*
X132181747Y-98466402D01*
X132198223Y-98448223D01*
X132216402Y-98431747D01*
X132236107Y-98417133D01*
X132257151Y-98404520D01*
X132279329Y-98394030D01*
X132302429Y-98385765D01*
X132326227Y-98379804D01*
X132350496Y-98376204D01*
X132375000Y-98375000D01*
X133625000Y-98375000D01*
X133649504Y-98376204D01*
X133649504Y-98376204D01*
G37*
D12*
X133000000Y-99000000D03*
D11*
G36*
X108649504Y-99976204D02*
G01*
X108673773Y-99979804D01*
X108697571Y-99985765D01*
X108720671Y-99994030D01*
X108742849Y-100004520D01*
X108763893Y-100017133D01*
X108783598Y-100031747D01*
X108801777Y-100048223D01*
X108818253Y-100066402D01*
X108832867Y-100086107D01*
X108845480Y-100107151D01*
X108855970Y-100129329D01*
X108864235Y-100152429D01*
X108870196Y-100176227D01*
X108873796Y-100200496D01*
X108875000Y-100225000D01*
X108875000Y-100975000D01*
X108873796Y-100999504D01*
X108870196Y-101023773D01*
X108864235Y-101047571D01*
X108855970Y-101070671D01*
X108845480Y-101092849D01*
X108832867Y-101113893D01*
X108818253Y-101133598D01*
X108801777Y-101151777D01*
X108783598Y-101168253D01*
X108763893Y-101182867D01*
X108742849Y-101195480D01*
X108720671Y-101205970D01*
X108697571Y-101214235D01*
X108673773Y-101220196D01*
X108649504Y-101223796D01*
X108625000Y-101225000D01*
X107375000Y-101225000D01*
X107350496Y-101223796D01*
X107326227Y-101220196D01*
X107302429Y-101214235D01*
X107279329Y-101205970D01*
X107257151Y-101195480D01*
X107236107Y-101182867D01*
X107216402Y-101168253D01*
X107198223Y-101151777D01*
X107181747Y-101133598D01*
X107167133Y-101113893D01*
X107154520Y-101092849D01*
X107144030Y-101070671D01*
X107135765Y-101047571D01*
X107129804Y-101023773D01*
X107126204Y-100999504D01*
X107125000Y-100975000D01*
X107125000Y-100225000D01*
X107126204Y-100200496D01*
X107129804Y-100176227D01*
X107135765Y-100152429D01*
X107144030Y-100129329D01*
X107154520Y-100107151D01*
X107167133Y-100086107D01*
X107181747Y-100066402D01*
X107198223Y-100048223D01*
X107216402Y-100031747D01*
X107236107Y-100017133D01*
X107257151Y-100004520D01*
X107279329Y-99994030D01*
X107302429Y-99985765D01*
X107326227Y-99979804D01*
X107350496Y-99976204D01*
X107375000Y-99975000D01*
X108625000Y-99975000D01*
X108649504Y-99976204D01*
X108649504Y-99976204D01*
G37*
D12*
X108000000Y-100600000D03*
D11*
G36*
X108649504Y-102776204D02*
G01*
X108673773Y-102779804D01*
X108697571Y-102785765D01*
X108720671Y-102794030D01*
X108742849Y-102804520D01*
X108763893Y-102817133D01*
X108783598Y-102831747D01*
X108801777Y-102848223D01*
X108818253Y-102866402D01*
X108832867Y-102886107D01*
X108845480Y-102907151D01*
X108855970Y-102929329D01*
X108864235Y-102952429D01*
X108870196Y-102976227D01*
X108873796Y-103000496D01*
X108875000Y-103025000D01*
X108875000Y-103775000D01*
X108873796Y-103799504D01*
X108870196Y-103823773D01*
X108864235Y-103847571D01*
X108855970Y-103870671D01*
X108845480Y-103892849D01*
X108832867Y-103913893D01*
X108818253Y-103933598D01*
X108801777Y-103951777D01*
X108783598Y-103968253D01*
X108763893Y-103982867D01*
X108742849Y-103995480D01*
X108720671Y-104005970D01*
X108697571Y-104014235D01*
X108673773Y-104020196D01*
X108649504Y-104023796D01*
X108625000Y-104025000D01*
X107375000Y-104025000D01*
X107350496Y-104023796D01*
X107326227Y-104020196D01*
X107302429Y-104014235D01*
X107279329Y-104005970D01*
X107257151Y-103995480D01*
X107236107Y-103982867D01*
X107216402Y-103968253D01*
X107198223Y-103951777D01*
X107181747Y-103933598D01*
X107167133Y-103913893D01*
X107154520Y-103892849D01*
X107144030Y-103870671D01*
X107135765Y-103847571D01*
X107129804Y-103823773D01*
X107126204Y-103799504D01*
X107125000Y-103775000D01*
X107125000Y-103025000D01*
X107126204Y-103000496D01*
X107129804Y-102976227D01*
X107135765Y-102952429D01*
X107144030Y-102929329D01*
X107154520Y-102907151D01*
X107167133Y-102886107D01*
X107181747Y-102866402D01*
X107198223Y-102848223D01*
X107216402Y-102831747D01*
X107236107Y-102817133D01*
X107257151Y-102804520D01*
X107279329Y-102794030D01*
X107302429Y-102785765D01*
X107326227Y-102779804D01*
X107350496Y-102776204D01*
X107375000Y-102775000D01*
X108625000Y-102775000D01*
X108649504Y-102776204D01*
X108649504Y-102776204D01*
G37*
D12*
X108000000Y-103400000D03*
D11*
G36*
X60849504Y-108376204D02*
G01*
X60873773Y-108379804D01*
X60897571Y-108385765D01*
X60920671Y-108394030D01*
X60942849Y-108404520D01*
X60963893Y-108417133D01*
X60983598Y-108431747D01*
X61001777Y-108448223D01*
X61018253Y-108466402D01*
X61032867Y-108486107D01*
X61045480Y-108507151D01*
X61055970Y-108529329D01*
X61064235Y-108552429D01*
X61070196Y-108576227D01*
X61073796Y-108600496D01*
X61075000Y-108625000D01*
X61075000Y-109375000D01*
X61073796Y-109399504D01*
X61070196Y-109423773D01*
X61064235Y-109447571D01*
X61055970Y-109470671D01*
X61045480Y-109492849D01*
X61032867Y-109513893D01*
X61018253Y-109533598D01*
X61001777Y-109551777D01*
X60983598Y-109568253D01*
X60963893Y-109582867D01*
X60942849Y-109595480D01*
X60920671Y-109605970D01*
X60897571Y-109614235D01*
X60873773Y-109620196D01*
X60849504Y-109623796D01*
X60825000Y-109625000D01*
X59575000Y-109625000D01*
X59550496Y-109623796D01*
X59526227Y-109620196D01*
X59502429Y-109614235D01*
X59479329Y-109605970D01*
X59457151Y-109595480D01*
X59436107Y-109582867D01*
X59416402Y-109568253D01*
X59398223Y-109551777D01*
X59381747Y-109533598D01*
X59367133Y-109513893D01*
X59354520Y-109492849D01*
X59344030Y-109470671D01*
X59335765Y-109447571D01*
X59329804Y-109423773D01*
X59326204Y-109399504D01*
X59325000Y-109375000D01*
X59325000Y-108625000D01*
X59326204Y-108600496D01*
X59329804Y-108576227D01*
X59335765Y-108552429D01*
X59344030Y-108529329D01*
X59354520Y-108507151D01*
X59367133Y-108486107D01*
X59381747Y-108466402D01*
X59398223Y-108448223D01*
X59416402Y-108431747D01*
X59436107Y-108417133D01*
X59457151Y-108404520D01*
X59479329Y-108394030D01*
X59502429Y-108385765D01*
X59526227Y-108379804D01*
X59550496Y-108376204D01*
X59575000Y-108375000D01*
X60825000Y-108375000D01*
X60849504Y-108376204D01*
X60849504Y-108376204D01*
G37*
D12*
X60200000Y-109000000D03*
D11*
G36*
X60849504Y-105576204D02*
G01*
X60873773Y-105579804D01*
X60897571Y-105585765D01*
X60920671Y-105594030D01*
X60942849Y-105604520D01*
X60963893Y-105617133D01*
X60983598Y-105631747D01*
X61001777Y-105648223D01*
X61018253Y-105666402D01*
X61032867Y-105686107D01*
X61045480Y-105707151D01*
X61055970Y-105729329D01*
X61064235Y-105752429D01*
X61070196Y-105776227D01*
X61073796Y-105800496D01*
X61075000Y-105825000D01*
X61075000Y-106575000D01*
X61073796Y-106599504D01*
X61070196Y-106623773D01*
X61064235Y-106647571D01*
X61055970Y-106670671D01*
X61045480Y-106692849D01*
X61032867Y-106713893D01*
X61018253Y-106733598D01*
X61001777Y-106751777D01*
X60983598Y-106768253D01*
X60963893Y-106782867D01*
X60942849Y-106795480D01*
X60920671Y-106805970D01*
X60897571Y-106814235D01*
X60873773Y-106820196D01*
X60849504Y-106823796D01*
X60825000Y-106825000D01*
X59575000Y-106825000D01*
X59550496Y-106823796D01*
X59526227Y-106820196D01*
X59502429Y-106814235D01*
X59479329Y-106805970D01*
X59457151Y-106795480D01*
X59436107Y-106782867D01*
X59416402Y-106768253D01*
X59398223Y-106751777D01*
X59381747Y-106733598D01*
X59367133Y-106713893D01*
X59354520Y-106692849D01*
X59344030Y-106670671D01*
X59335765Y-106647571D01*
X59329804Y-106623773D01*
X59326204Y-106599504D01*
X59325000Y-106575000D01*
X59325000Y-105825000D01*
X59326204Y-105800496D01*
X59329804Y-105776227D01*
X59335765Y-105752429D01*
X59344030Y-105729329D01*
X59354520Y-105707151D01*
X59367133Y-105686107D01*
X59381747Y-105666402D01*
X59398223Y-105648223D01*
X59416402Y-105631747D01*
X59436107Y-105617133D01*
X59457151Y-105604520D01*
X59479329Y-105594030D01*
X59502429Y-105585765D01*
X59526227Y-105579804D01*
X59550496Y-105576204D01*
X59575000Y-105575000D01*
X60825000Y-105575000D01*
X60849504Y-105576204D01*
X60849504Y-105576204D01*
G37*
D12*
X60200000Y-106200000D03*
D11*
G36*
X57149504Y-108376204D02*
G01*
X57173773Y-108379804D01*
X57197571Y-108385765D01*
X57220671Y-108394030D01*
X57242849Y-108404520D01*
X57263893Y-108417133D01*
X57283598Y-108431747D01*
X57301777Y-108448223D01*
X57318253Y-108466402D01*
X57332867Y-108486107D01*
X57345480Y-108507151D01*
X57355970Y-108529329D01*
X57364235Y-108552429D01*
X57370196Y-108576227D01*
X57373796Y-108600496D01*
X57375000Y-108625000D01*
X57375000Y-109375000D01*
X57373796Y-109399504D01*
X57370196Y-109423773D01*
X57364235Y-109447571D01*
X57355970Y-109470671D01*
X57345480Y-109492849D01*
X57332867Y-109513893D01*
X57318253Y-109533598D01*
X57301777Y-109551777D01*
X57283598Y-109568253D01*
X57263893Y-109582867D01*
X57242849Y-109595480D01*
X57220671Y-109605970D01*
X57197571Y-109614235D01*
X57173773Y-109620196D01*
X57149504Y-109623796D01*
X57125000Y-109625000D01*
X55875000Y-109625000D01*
X55850496Y-109623796D01*
X55826227Y-109620196D01*
X55802429Y-109614235D01*
X55779329Y-109605970D01*
X55757151Y-109595480D01*
X55736107Y-109582867D01*
X55716402Y-109568253D01*
X55698223Y-109551777D01*
X55681747Y-109533598D01*
X55667133Y-109513893D01*
X55654520Y-109492849D01*
X55644030Y-109470671D01*
X55635765Y-109447571D01*
X55629804Y-109423773D01*
X55626204Y-109399504D01*
X55625000Y-109375000D01*
X55625000Y-108625000D01*
X55626204Y-108600496D01*
X55629804Y-108576227D01*
X55635765Y-108552429D01*
X55644030Y-108529329D01*
X55654520Y-108507151D01*
X55667133Y-108486107D01*
X55681747Y-108466402D01*
X55698223Y-108448223D01*
X55716402Y-108431747D01*
X55736107Y-108417133D01*
X55757151Y-108404520D01*
X55779329Y-108394030D01*
X55802429Y-108385765D01*
X55826227Y-108379804D01*
X55850496Y-108376204D01*
X55875000Y-108375000D01*
X57125000Y-108375000D01*
X57149504Y-108376204D01*
X57149504Y-108376204D01*
G37*
D12*
X56500000Y-109000000D03*
D11*
G36*
X57149504Y-105576204D02*
G01*
X57173773Y-105579804D01*
X57197571Y-105585765D01*
X57220671Y-105594030D01*
X57242849Y-105604520D01*
X57263893Y-105617133D01*
X57283598Y-105631747D01*
X57301777Y-105648223D01*
X57318253Y-105666402D01*
X57332867Y-105686107D01*
X57345480Y-105707151D01*
X57355970Y-105729329D01*
X57364235Y-105752429D01*
X57370196Y-105776227D01*
X57373796Y-105800496D01*
X57375000Y-105825000D01*
X57375000Y-106575000D01*
X57373796Y-106599504D01*
X57370196Y-106623773D01*
X57364235Y-106647571D01*
X57355970Y-106670671D01*
X57345480Y-106692849D01*
X57332867Y-106713893D01*
X57318253Y-106733598D01*
X57301777Y-106751777D01*
X57283598Y-106768253D01*
X57263893Y-106782867D01*
X57242849Y-106795480D01*
X57220671Y-106805970D01*
X57197571Y-106814235D01*
X57173773Y-106820196D01*
X57149504Y-106823796D01*
X57125000Y-106825000D01*
X55875000Y-106825000D01*
X55850496Y-106823796D01*
X55826227Y-106820196D01*
X55802429Y-106814235D01*
X55779329Y-106805970D01*
X55757151Y-106795480D01*
X55736107Y-106782867D01*
X55716402Y-106768253D01*
X55698223Y-106751777D01*
X55681747Y-106733598D01*
X55667133Y-106713893D01*
X55654520Y-106692849D01*
X55644030Y-106670671D01*
X55635765Y-106647571D01*
X55629804Y-106623773D01*
X55626204Y-106599504D01*
X55625000Y-106575000D01*
X55625000Y-105825000D01*
X55626204Y-105800496D01*
X55629804Y-105776227D01*
X55635765Y-105752429D01*
X55644030Y-105729329D01*
X55654520Y-105707151D01*
X55667133Y-105686107D01*
X55681747Y-105666402D01*
X55698223Y-105648223D01*
X55716402Y-105631747D01*
X55736107Y-105617133D01*
X55757151Y-105604520D01*
X55779329Y-105594030D01*
X55802429Y-105585765D01*
X55826227Y-105579804D01*
X55850496Y-105576204D01*
X55875000Y-105575000D01*
X57125000Y-105575000D01*
X57149504Y-105576204D01*
X57149504Y-105576204D01*
G37*
D12*
X56500000Y-106200000D03*
D11*
G36*
X85249504Y-105576204D02*
G01*
X85273773Y-105579804D01*
X85297571Y-105585765D01*
X85320671Y-105594030D01*
X85342849Y-105604520D01*
X85363893Y-105617133D01*
X85383598Y-105631747D01*
X85401777Y-105648223D01*
X85418253Y-105666402D01*
X85432867Y-105686107D01*
X85445480Y-105707151D01*
X85455970Y-105729329D01*
X85464235Y-105752429D01*
X85470196Y-105776227D01*
X85473796Y-105800496D01*
X85475000Y-105825000D01*
X85475000Y-106575000D01*
X85473796Y-106599504D01*
X85470196Y-106623773D01*
X85464235Y-106647571D01*
X85455970Y-106670671D01*
X85445480Y-106692849D01*
X85432867Y-106713893D01*
X85418253Y-106733598D01*
X85401777Y-106751777D01*
X85383598Y-106768253D01*
X85363893Y-106782867D01*
X85342849Y-106795480D01*
X85320671Y-106805970D01*
X85297571Y-106814235D01*
X85273773Y-106820196D01*
X85249504Y-106823796D01*
X85225000Y-106825000D01*
X83975000Y-106825000D01*
X83950496Y-106823796D01*
X83926227Y-106820196D01*
X83902429Y-106814235D01*
X83879329Y-106805970D01*
X83857151Y-106795480D01*
X83836107Y-106782867D01*
X83816402Y-106768253D01*
X83798223Y-106751777D01*
X83781747Y-106733598D01*
X83767133Y-106713893D01*
X83754520Y-106692849D01*
X83744030Y-106670671D01*
X83735765Y-106647571D01*
X83729804Y-106623773D01*
X83726204Y-106599504D01*
X83725000Y-106575000D01*
X83725000Y-105825000D01*
X83726204Y-105800496D01*
X83729804Y-105776227D01*
X83735765Y-105752429D01*
X83744030Y-105729329D01*
X83754520Y-105707151D01*
X83767133Y-105686107D01*
X83781747Y-105666402D01*
X83798223Y-105648223D01*
X83816402Y-105631747D01*
X83836107Y-105617133D01*
X83857151Y-105604520D01*
X83879329Y-105594030D01*
X83902429Y-105585765D01*
X83926227Y-105579804D01*
X83950496Y-105576204D01*
X83975000Y-105575000D01*
X85225000Y-105575000D01*
X85249504Y-105576204D01*
X85249504Y-105576204D01*
G37*
D12*
X84600000Y-106200000D03*
D11*
G36*
X85249504Y-108376204D02*
G01*
X85273773Y-108379804D01*
X85297571Y-108385765D01*
X85320671Y-108394030D01*
X85342849Y-108404520D01*
X85363893Y-108417133D01*
X85383598Y-108431747D01*
X85401777Y-108448223D01*
X85418253Y-108466402D01*
X85432867Y-108486107D01*
X85445480Y-108507151D01*
X85455970Y-108529329D01*
X85464235Y-108552429D01*
X85470196Y-108576227D01*
X85473796Y-108600496D01*
X85475000Y-108625000D01*
X85475000Y-109375000D01*
X85473796Y-109399504D01*
X85470196Y-109423773D01*
X85464235Y-109447571D01*
X85455970Y-109470671D01*
X85445480Y-109492849D01*
X85432867Y-109513893D01*
X85418253Y-109533598D01*
X85401777Y-109551777D01*
X85383598Y-109568253D01*
X85363893Y-109582867D01*
X85342849Y-109595480D01*
X85320671Y-109605970D01*
X85297571Y-109614235D01*
X85273773Y-109620196D01*
X85249504Y-109623796D01*
X85225000Y-109625000D01*
X83975000Y-109625000D01*
X83950496Y-109623796D01*
X83926227Y-109620196D01*
X83902429Y-109614235D01*
X83879329Y-109605970D01*
X83857151Y-109595480D01*
X83836107Y-109582867D01*
X83816402Y-109568253D01*
X83798223Y-109551777D01*
X83781747Y-109533598D01*
X83767133Y-109513893D01*
X83754520Y-109492849D01*
X83744030Y-109470671D01*
X83735765Y-109447571D01*
X83729804Y-109423773D01*
X83726204Y-109399504D01*
X83725000Y-109375000D01*
X83725000Y-108625000D01*
X83726204Y-108600496D01*
X83729804Y-108576227D01*
X83735765Y-108552429D01*
X83744030Y-108529329D01*
X83754520Y-108507151D01*
X83767133Y-108486107D01*
X83781747Y-108466402D01*
X83798223Y-108448223D01*
X83816402Y-108431747D01*
X83836107Y-108417133D01*
X83857151Y-108404520D01*
X83879329Y-108394030D01*
X83902429Y-108385765D01*
X83926227Y-108379804D01*
X83950496Y-108376204D01*
X83975000Y-108375000D01*
X85225000Y-108375000D01*
X85249504Y-108376204D01*
X85249504Y-108376204D01*
G37*
D12*
X84600000Y-109000000D03*
D11*
G36*
X122649504Y-94976204D02*
G01*
X122673773Y-94979804D01*
X122697571Y-94985765D01*
X122720671Y-94994030D01*
X122742849Y-95004520D01*
X122763893Y-95017133D01*
X122783598Y-95031747D01*
X122801777Y-95048223D01*
X122818253Y-95066402D01*
X122832867Y-95086107D01*
X122845480Y-95107151D01*
X122855970Y-95129329D01*
X122864235Y-95152429D01*
X122870196Y-95176227D01*
X122873796Y-95200496D01*
X122875000Y-95225000D01*
X122875000Y-95975000D01*
X122873796Y-95999504D01*
X122870196Y-96023773D01*
X122864235Y-96047571D01*
X122855970Y-96070671D01*
X122845480Y-96092849D01*
X122832867Y-96113893D01*
X122818253Y-96133598D01*
X122801777Y-96151777D01*
X122783598Y-96168253D01*
X122763893Y-96182867D01*
X122742849Y-96195480D01*
X122720671Y-96205970D01*
X122697571Y-96214235D01*
X122673773Y-96220196D01*
X122649504Y-96223796D01*
X122625000Y-96225000D01*
X121375000Y-96225000D01*
X121350496Y-96223796D01*
X121326227Y-96220196D01*
X121302429Y-96214235D01*
X121279329Y-96205970D01*
X121257151Y-96195480D01*
X121236107Y-96182867D01*
X121216402Y-96168253D01*
X121198223Y-96151777D01*
X121181747Y-96133598D01*
X121167133Y-96113893D01*
X121154520Y-96092849D01*
X121144030Y-96070671D01*
X121135765Y-96047571D01*
X121129804Y-96023773D01*
X121126204Y-95999504D01*
X121125000Y-95975000D01*
X121125000Y-95225000D01*
X121126204Y-95200496D01*
X121129804Y-95176227D01*
X121135765Y-95152429D01*
X121144030Y-95129329D01*
X121154520Y-95107151D01*
X121167133Y-95086107D01*
X121181747Y-95066402D01*
X121198223Y-95048223D01*
X121216402Y-95031747D01*
X121236107Y-95017133D01*
X121257151Y-95004520D01*
X121279329Y-94994030D01*
X121302429Y-94985765D01*
X121326227Y-94979804D01*
X121350496Y-94976204D01*
X121375000Y-94975000D01*
X122625000Y-94975000D01*
X122649504Y-94976204D01*
X122649504Y-94976204D01*
G37*
D12*
X122000000Y-95600000D03*
D11*
G36*
X122649504Y-97776204D02*
G01*
X122673773Y-97779804D01*
X122697571Y-97785765D01*
X122720671Y-97794030D01*
X122742849Y-97804520D01*
X122763893Y-97817133D01*
X122783598Y-97831747D01*
X122801777Y-97848223D01*
X122818253Y-97866402D01*
X122832867Y-97886107D01*
X122845480Y-97907151D01*
X122855970Y-97929329D01*
X122864235Y-97952429D01*
X122870196Y-97976227D01*
X122873796Y-98000496D01*
X122875000Y-98025000D01*
X122875000Y-98775000D01*
X122873796Y-98799504D01*
X122870196Y-98823773D01*
X122864235Y-98847571D01*
X122855970Y-98870671D01*
X122845480Y-98892849D01*
X122832867Y-98913893D01*
X122818253Y-98933598D01*
X122801777Y-98951777D01*
X122783598Y-98968253D01*
X122763893Y-98982867D01*
X122742849Y-98995480D01*
X122720671Y-99005970D01*
X122697571Y-99014235D01*
X122673773Y-99020196D01*
X122649504Y-99023796D01*
X122625000Y-99025000D01*
X121375000Y-99025000D01*
X121350496Y-99023796D01*
X121326227Y-99020196D01*
X121302429Y-99014235D01*
X121279329Y-99005970D01*
X121257151Y-98995480D01*
X121236107Y-98982867D01*
X121216402Y-98968253D01*
X121198223Y-98951777D01*
X121181747Y-98933598D01*
X121167133Y-98913893D01*
X121154520Y-98892849D01*
X121144030Y-98870671D01*
X121135765Y-98847571D01*
X121129804Y-98823773D01*
X121126204Y-98799504D01*
X121125000Y-98775000D01*
X121125000Y-98025000D01*
X121126204Y-98000496D01*
X121129804Y-97976227D01*
X121135765Y-97952429D01*
X121144030Y-97929329D01*
X121154520Y-97907151D01*
X121167133Y-97886107D01*
X121181747Y-97866402D01*
X121198223Y-97848223D01*
X121216402Y-97831747D01*
X121236107Y-97817133D01*
X121257151Y-97804520D01*
X121279329Y-97794030D01*
X121302429Y-97785765D01*
X121326227Y-97779804D01*
X121350496Y-97776204D01*
X121375000Y-97775000D01*
X122625000Y-97775000D01*
X122649504Y-97776204D01*
X122649504Y-97776204D01*
G37*
D12*
X122000000Y-98400000D03*
D11*
G36*
X74449504Y-93876204D02*
G01*
X74473773Y-93879804D01*
X74497571Y-93885765D01*
X74520671Y-93894030D01*
X74542849Y-93904520D01*
X74563893Y-93917133D01*
X74583598Y-93931747D01*
X74601777Y-93948223D01*
X74618253Y-93966402D01*
X74632867Y-93986107D01*
X74645480Y-94007151D01*
X74655970Y-94029329D01*
X74664235Y-94052429D01*
X74670196Y-94076227D01*
X74673796Y-94100496D01*
X74675000Y-94125000D01*
X74675000Y-94875000D01*
X74673796Y-94899504D01*
X74670196Y-94923773D01*
X74664235Y-94947571D01*
X74655970Y-94970671D01*
X74645480Y-94992849D01*
X74632867Y-95013893D01*
X74618253Y-95033598D01*
X74601777Y-95051777D01*
X74583598Y-95068253D01*
X74563893Y-95082867D01*
X74542849Y-95095480D01*
X74520671Y-95105970D01*
X74497571Y-95114235D01*
X74473773Y-95120196D01*
X74449504Y-95123796D01*
X74425000Y-95125000D01*
X73175000Y-95125000D01*
X73150496Y-95123796D01*
X73126227Y-95120196D01*
X73102429Y-95114235D01*
X73079329Y-95105970D01*
X73057151Y-95095480D01*
X73036107Y-95082867D01*
X73016402Y-95068253D01*
X72998223Y-95051777D01*
X72981747Y-95033598D01*
X72967133Y-95013893D01*
X72954520Y-94992849D01*
X72944030Y-94970671D01*
X72935765Y-94947571D01*
X72929804Y-94923773D01*
X72926204Y-94899504D01*
X72925000Y-94875000D01*
X72925000Y-94125000D01*
X72926204Y-94100496D01*
X72929804Y-94076227D01*
X72935765Y-94052429D01*
X72944030Y-94029329D01*
X72954520Y-94007151D01*
X72967133Y-93986107D01*
X72981747Y-93966402D01*
X72998223Y-93948223D01*
X73016402Y-93931747D01*
X73036107Y-93917133D01*
X73057151Y-93904520D01*
X73079329Y-93894030D01*
X73102429Y-93885765D01*
X73126227Y-93879804D01*
X73150496Y-93876204D01*
X73175000Y-93875000D01*
X74425000Y-93875000D01*
X74449504Y-93876204D01*
X74449504Y-93876204D01*
G37*
D12*
X73800000Y-94500000D03*
D11*
G36*
X74449504Y-91076204D02*
G01*
X74473773Y-91079804D01*
X74497571Y-91085765D01*
X74520671Y-91094030D01*
X74542849Y-91104520D01*
X74563893Y-91117133D01*
X74583598Y-91131747D01*
X74601777Y-91148223D01*
X74618253Y-91166402D01*
X74632867Y-91186107D01*
X74645480Y-91207151D01*
X74655970Y-91229329D01*
X74664235Y-91252429D01*
X74670196Y-91276227D01*
X74673796Y-91300496D01*
X74675000Y-91325000D01*
X74675000Y-92075000D01*
X74673796Y-92099504D01*
X74670196Y-92123773D01*
X74664235Y-92147571D01*
X74655970Y-92170671D01*
X74645480Y-92192849D01*
X74632867Y-92213893D01*
X74618253Y-92233598D01*
X74601777Y-92251777D01*
X74583598Y-92268253D01*
X74563893Y-92282867D01*
X74542849Y-92295480D01*
X74520671Y-92305970D01*
X74497571Y-92314235D01*
X74473773Y-92320196D01*
X74449504Y-92323796D01*
X74425000Y-92325000D01*
X73175000Y-92325000D01*
X73150496Y-92323796D01*
X73126227Y-92320196D01*
X73102429Y-92314235D01*
X73079329Y-92305970D01*
X73057151Y-92295480D01*
X73036107Y-92282867D01*
X73016402Y-92268253D01*
X72998223Y-92251777D01*
X72981747Y-92233598D01*
X72967133Y-92213893D01*
X72954520Y-92192849D01*
X72944030Y-92170671D01*
X72935765Y-92147571D01*
X72929804Y-92123773D01*
X72926204Y-92099504D01*
X72925000Y-92075000D01*
X72925000Y-91325000D01*
X72926204Y-91300496D01*
X72929804Y-91276227D01*
X72935765Y-91252429D01*
X72944030Y-91229329D01*
X72954520Y-91207151D01*
X72967133Y-91186107D01*
X72981747Y-91166402D01*
X72998223Y-91148223D01*
X73016402Y-91131747D01*
X73036107Y-91117133D01*
X73057151Y-91104520D01*
X73079329Y-91094030D01*
X73102429Y-91085765D01*
X73126227Y-91079804D01*
X73150496Y-91076204D01*
X73175000Y-91075000D01*
X74425000Y-91075000D01*
X74449504Y-91076204D01*
X74449504Y-91076204D01*
G37*
D12*
X73800000Y-91700000D03*
D18*
X101300000Y-91400000D03*
X94570000Y-91400000D03*
D19*
X56600000Y-122035000D03*
X56600000Y-128765000D03*
X57600000Y-93765000D03*
X57600000Y-87035000D03*
D20*
X111300000Y-95095000D03*
X111300000Y-96365000D03*
X111300000Y-97635000D03*
X111300000Y-98905000D03*
X116700000Y-98905000D03*
X116700000Y-97635000D03*
X116700000Y-96365000D03*
X116700000Y-95095000D03*
D21*
X94950000Y-126625000D03*
X94950000Y-127275000D03*
X94950000Y-127925000D03*
X94950000Y-128575000D03*
X97750000Y-127275000D03*
X97750000Y-128575000D03*
X97750000Y-126625000D03*
X97750000Y-127925000D03*
D22*
X96350000Y-127600000D03*
D23*
X64330000Y-123510000D03*
X64330000Y-124460000D03*
X64330000Y-125410000D03*
X67750000Y-125410000D03*
X67750000Y-124460000D03*
X67750000Y-123510000D03*
D19*
X99850000Y-96135000D03*
X99850000Y-102865000D03*
M02*
