M48
; DRILL file {KiCad (5.1.0)-1} date 6/24/2019 9:32:09 AM
; FORMAT={-:-/ absolute / inch / decimal}
; #@! TF.CreationDate,2019-06-24T09:32:09-03:00
; #@! TF.GenerationSoftware,Kicad,Pcbnew,(5.1.0)-1
; #@! TF.FileFunction,Plated,1,2,PTH
FMAT,2
INCH
T1C0.0157
T2C0.0315
T3C0.0394
%
G90
G05
T1
X2.2677Y-3.7795
X2.2953Y-4.2913
X2.3071Y-5.4488
X2.3917Y-4.8602
X2.5728Y-4.0886
X2.7866Y-3.8496
X3.0472Y-4.4646
X3.1437Y-4.1161
X3.1772Y-3.8386
X3.1913Y-4.211
X3.7087Y-4.874
X4.252Y-4.189
X4.4952Y-3.6623
X4.5447Y-3.8439
X4.6533Y-3.8939
X4.9291Y-3.8976
T2
X3.0157Y-5.3701
X3.0157Y-5.4488
X5.7717Y-2.752
X2.189Y-4.4646
X4.4803Y-4.7638
X3.8425Y-5.2283
X2.9764Y-4.4646
X2.2283Y-5.4488
X3.0157Y-4.5827
X2.1614Y-2.7559
T3
X3.3047Y-3.6496
X3.3047Y-3.7496
X3.3047Y-3.8496
X2.7047Y-3.6496
X2.7047Y-3.7496
X2.7047Y-3.8496
T0
M30
