G04 #@! TF.GenerationSoftware,KiCad,Pcbnew,(5.1.0)-1*
G04 #@! TF.CreationDate,2019-06-24T17:02:51-03:00*
G04 #@! TF.ProjectId,Main,4d61696e-2e6b-4696-9361-645f70636258,rev?*
G04 #@! TF.SameCoordinates,Original*
G04 #@! TF.FileFunction,Soldermask,Bot*
G04 #@! TF.FilePolarity,Negative*
%FSLAX46Y46*%
G04 Gerber Fmt 4.6, Leading zero omitted, Abs format (unit mm)*
G04 Created by KiCad (PCBNEW (5.1.0)-1) date 2019-06-24 17:02:51*
%MOMM*%
%LPD*%
G04 APERTURE LIST*
%ADD10C,0.100000*%
G04 APERTURE END LIST*
D10*
G36*
X76671213Y-137677502D02*
G01*
X76742321Y-137684505D01*
X76879172Y-137726019D01*
X76879175Y-137726020D01*
X77005294Y-137793432D01*
X77115843Y-137884157D01*
X77206568Y-137994706D01*
X77273980Y-138120825D01*
X77273981Y-138120828D01*
X77315495Y-138257679D01*
X77329512Y-138400000D01*
X77315495Y-138542321D01*
X77273981Y-138679172D01*
X77273980Y-138679175D01*
X77206568Y-138805294D01*
X77115843Y-138915843D01*
X77005294Y-139006568D01*
X76879175Y-139073980D01*
X76879172Y-139073981D01*
X76742321Y-139115495D01*
X76671213Y-139122498D01*
X76635660Y-139126000D01*
X76564340Y-139126000D01*
X76528787Y-139122498D01*
X76457679Y-139115495D01*
X76320828Y-139073981D01*
X76320825Y-139073980D01*
X76194706Y-139006568D01*
X76084157Y-138915843D01*
X75993432Y-138805294D01*
X75926020Y-138679175D01*
X75926019Y-138679172D01*
X75884505Y-138542321D01*
X75870488Y-138400000D01*
X75884505Y-138257679D01*
X75926019Y-138120828D01*
X75926020Y-138120825D01*
X75993432Y-137994706D01*
X76084157Y-137884157D01*
X76194706Y-137793432D01*
X76320825Y-137726020D01*
X76320828Y-137726019D01*
X76457679Y-137684505D01*
X76528787Y-137677502D01*
X76564340Y-137674000D01*
X76635660Y-137674000D01*
X76671213Y-137677502D01*
X76671213Y-137677502D01*
G37*
G36*
X57326000Y-139126000D02*
G01*
X55874000Y-139126000D01*
X55874000Y-137674000D01*
X57326000Y-137674000D01*
X57326000Y-139126000D01*
X57326000Y-139126000D01*
G37*
G36*
X92326000Y-137656000D02*
G01*
X90874000Y-137656000D01*
X90874000Y-136204000D01*
X92326000Y-136204000D01*
X92326000Y-137656000D01*
X92326000Y-137656000D01*
G37*
G36*
X77326000Y-137126000D02*
G01*
X75874000Y-137126000D01*
X75874000Y-135674000D01*
X77326000Y-135674000D01*
X77326000Y-137126000D01*
X77326000Y-137126000D01*
G37*
G36*
X103476000Y-134636000D02*
G01*
X102024000Y-134636000D01*
X102024000Y-133184000D01*
X103476000Y-133184000D01*
X103476000Y-134636000D01*
X103476000Y-134636000D01*
G37*
G36*
X114276000Y-126926000D02*
G01*
X112824000Y-126926000D01*
X112824000Y-125474000D01*
X114276000Y-125474000D01*
X114276000Y-126926000D01*
X114276000Y-126926000D01*
G37*
G36*
X77326000Y-117126000D02*
G01*
X75874000Y-117126000D01*
X75874000Y-115674000D01*
X77326000Y-115674000D01*
X77326000Y-117126000D01*
X77326000Y-117126000D01*
G37*
G36*
X76326000Y-114126000D02*
G01*
X74874000Y-114126000D01*
X74874000Y-112674000D01*
X76326000Y-112674000D01*
X76326000Y-114126000D01*
X76326000Y-114126000D01*
G37*
G36*
X56326000Y-114126000D02*
G01*
X54874000Y-114126000D01*
X54874000Y-112674000D01*
X56326000Y-112674000D01*
X56326000Y-114126000D01*
X56326000Y-114126000D01*
G37*
G36*
X103476000Y-113926000D02*
G01*
X102024000Y-113926000D01*
X102024000Y-112474000D01*
X103476000Y-112474000D01*
X103476000Y-113926000D01*
X103476000Y-113926000D01*
G37*
G36*
X95231213Y-107617502D02*
G01*
X95302321Y-107624505D01*
X95439172Y-107666019D01*
X95439175Y-107666020D01*
X95565294Y-107733432D01*
X95675843Y-107824157D01*
X95766568Y-107934706D01*
X95833980Y-108060825D01*
X95833981Y-108060828D01*
X95875495Y-108197679D01*
X95889512Y-108340000D01*
X95875495Y-108482321D01*
X95833981Y-108619172D01*
X95833980Y-108619175D01*
X95766568Y-108745294D01*
X95675843Y-108855843D01*
X95565294Y-108946568D01*
X95439175Y-109013980D01*
X95439172Y-109013981D01*
X95302321Y-109055495D01*
X95231213Y-109062498D01*
X95195660Y-109066000D01*
X95124340Y-109066000D01*
X95088787Y-109062498D01*
X95017679Y-109055495D01*
X94880828Y-109013981D01*
X94880825Y-109013980D01*
X94754706Y-108946568D01*
X94644157Y-108855843D01*
X94553432Y-108745294D01*
X94486020Y-108619175D01*
X94486019Y-108619172D01*
X94444505Y-108482321D01*
X94430488Y-108340000D01*
X94444505Y-108197679D01*
X94486019Y-108060828D01*
X94486020Y-108060825D01*
X94553432Y-107934706D01*
X94644157Y-107824157D01*
X94754706Y-107733432D01*
X94880825Y-107666020D01*
X94880828Y-107666019D01*
X95017679Y-107624505D01*
X95088787Y-107617502D01*
X95124340Y-107614000D01*
X95195660Y-107614000D01*
X95231213Y-107617502D01*
X95231213Y-107617502D01*
G37*
G36*
X95231213Y-105617502D02*
G01*
X95302321Y-105624505D01*
X95439172Y-105666019D01*
X95439175Y-105666020D01*
X95565294Y-105733432D01*
X95675843Y-105824157D01*
X95766568Y-105934706D01*
X95833980Y-106060825D01*
X95833981Y-106060828D01*
X95875495Y-106197679D01*
X95889512Y-106340000D01*
X95875495Y-106482321D01*
X95833981Y-106619172D01*
X95833980Y-106619175D01*
X95766568Y-106745294D01*
X95675843Y-106855843D01*
X95565294Y-106946568D01*
X95439175Y-107013980D01*
X95439172Y-107013981D01*
X95302321Y-107055495D01*
X95231213Y-107062498D01*
X95195660Y-107066000D01*
X95124340Y-107066000D01*
X95088787Y-107062498D01*
X95017679Y-107055495D01*
X94880828Y-107013981D01*
X94880825Y-107013980D01*
X94754706Y-106946568D01*
X94644157Y-106855843D01*
X94553432Y-106745294D01*
X94486020Y-106619175D01*
X94486019Y-106619172D01*
X94444505Y-106482321D01*
X94430488Y-106340000D01*
X94444505Y-106197679D01*
X94486019Y-106060828D01*
X94486020Y-106060825D01*
X94553432Y-105934706D01*
X94644157Y-105824157D01*
X94754706Y-105733432D01*
X94880825Y-105666020D01*
X94880828Y-105666019D01*
X95017679Y-105624505D01*
X95088787Y-105617502D01*
X95124340Y-105614000D01*
X95195660Y-105614000D01*
X95231213Y-105617502D01*
X95231213Y-105617502D01*
G37*
G36*
X95231213Y-103617502D02*
G01*
X95302321Y-103624505D01*
X95439172Y-103666019D01*
X95439175Y-103666020D01*
X95565294Y-103733432D01*
X95675843Y-103824157D01*
X95766568Y-103934706D01*
X95833980Y-104060825D01*
X95833981Y-104060828D01*
X95875495Y-104197679D01*
X95889512Y-104340000D01*
X95875495Y-104482321D01*
X95833981Y-104619172D01*
X95833980Y-104619175D01*
X95766568Y-104745294D01*
X95675843Y-104855843D01*
X95565294Y-104946568D01*
X95439175Y-105013980D01*
X95439172Y-105013981D01*
X95302321Y-105055495D01*
X95231213Y-105062498D01*
X95195660Y-105066000D01*
X95124340Y-105066000D01*
X95088787Y-105062498D01*
X95017679Y-105055495D01*
X94880828Y-105013981D01*
X94880825Y-105013980D01*
X94754706Y-104946568D01*
X94644157Y-104855843D01*
X94553432Y-104745294D01*
X94486020Y-104619175D01*
X94486019Y-104619172D01*
X94444505Y-104482321D01*
X94430488Y-104340000D01*
X94444505Y-104197679D01*
X94486019Y-104060828D01*
X94486020Y-104060825D01*
X94553432Y-103934706D01*
X94644157Y-103824157D01*
X94754706Y-103733432D01*
X94880825Y-103666020D01*
X94880828Y-103666019D01*
X95017679Y-103624505D01*
X95088787Y-103617502D01*
X95124340Y-103614000D01*
X95195660Y-103614000D01*
X95231213Y-103617502D01*
X95231213Y-103617502D01*
G37*
G36*
X95231213Y-101617502D02*
G01*
X95302321Y-101624505D01*
X95439172Y-101666019D01*
X95439175Y-101666020D01*
X95565294Y-101733432D01*
X95675843Y-101824157D01*
X95766568Y-101934706D01*
X95833980Y-102060825D01*
X95833981Y-102060828D01*
X95875495Y-102197679D01*
X95889512Y-102340000D01*
X95875495Y-102482321D01*
X95833981Y-102619172D01*
X95833980Y-102619175D01*
X95766568Y-102745294D01*
X95675843Y-102855843D01*
X95565294Y-102946568D01*
X95439175Y-103013980D01*
X95439172Y-103013981D01*
X95302321Y-103055495D01*
X95231213Y-103062498D01*
X95195660Y-103066000D01*
X95124340Y-103066000D01*
X95088787Y-103062498D01*
X95017679Y-103055495D01*
X94880828Y-103013981D01*
X94880825Y-103013980D01*
X94754706Y-102946568D01*
X94644157Y-102855843D01*
X94553432Y-102745294D01*
X94486020Y-102619175D01*
X94486019Y-102619172D01*
X94444505Y-102482321D01*
X94430488Y-102340000D01*
X94444505Y-102197679D01*
X94486019Y-102060828D01*
X94486020Y-102060825D01*
X94553432Y-101934706D01*
X94644157Y-101824157D01*
X94754706Y-101733432D01*
X94880825Y-101666020D01*
X94880828Y-101666019D01*
X95017679Y-101624505D01*
X95088787Y-101617502D01*
X95124340Y-101614000D01*
X95195660Y-101614000D01*
X95231213Y-101617502D01*
X95231213Y-101617502D01*
G37*
G36*
X148756000Y-101546000D02*
G01*
X147304000Y-101546000D01*
X147304000Y-100094000D01*
X148756000Y-100094000D01*
X148756000Y-101546000D01*
X148756000Y-101546000D01*
G37*
G36*
X122736000Y-101506000D02*
G01*
X121284000Y-101506000D01*
X121284000Y-100054000D01*
X122736000Y-100054000D01*
X122736000Y-101506000D01*
X122736000Y-101506000D01*
G37*
G36*
X95231213Y-99617502D02*
G01*
X95302321Y-99624505D01*
X95439172Y-99666019D01*
X95439175Y-99666020D01*
X95565294Y-99733432D01*
X95675843Y-99824157D01*
X95766568Y-99934706D01*
X95833980Y-100060825D01*
X95833981Y-100060828D01*
X95875495Y-100197679D01*
X95889512Y-100340000D01*
X95875495Y-100482321D01*
X95833981Y-100619172D01*
X95833980Y-100619175D01*
X95766568Y-100745294D01*
X95675843Y-100855843D01*
X95565294Y-100946568D01*
X95439175Y-101013980D01*
X95439172Y-101013981D01*
X95302321Y-101055495D01*
X95231213Y-101062498D01*
X95195660Y-101066000D01*
X95124340Y-101066000D01*
X95088787Y-101062498D01*
X95017679Y-101055495D01*
X94880828Y-101013981D01*
X94880825Y-101013980D01*
X94754706Y-100946568D01*
X94644157Y-100855843D01*
X94553432Y-100745294D01*
X94486020Y-100619175D01*
X94486019Y-100619172D01*
X94444505Y-100482321D01*
X94430488Y-100340000D01*
X94444505Y-100197679D01*
X94486019Y-100060828D01*
X94486020Y-100060825D01*
X94553432Y-99934706D01*
X94644157Y-99824157D01*
X94754706Y-99733432D01*
X94880825Y-99666020D01*
X94880828Y-99666019D01*
X95017679Y-99624505D01*
X95088787Y-99617502D01*
X95124340Y-99614000D01*
X95195660Y-99614000D01*
X95231213Y-99617502D01*
X95231213Y-99617502D01*
G37*
G36*
X95886000Y-99066000D02*
G01*
X94434000Y-99066000D01*
X94434000Y-97614000D01*
X95886000Y-97614000D01*
X95886000Y-99066000D01*
X95886000Y-99066000D01*
G37*
G36*
X84050442Y-96885518D02*
G01*
X84116627Y-96892037D01*
X84286466Y-96943557D01*
X84442991Y-97027222D01*
X84478729Y-97056552D01*
X84580186Y-97139814D01*
X84663448Y-97241271D01*
X84692778Y-97277009D01*
X84776443Y-97433534D01*
X84827963Y-97603373D01*
X84845359Y-97780000D01*
X84827963Y-97956627D01*
X84776443Y-98126466D01*
X84692778Y-98282991D01*
X84663448Y-98318729D01*
X84580186Y-98420186D01*
X84478729Y-98503448D01*
X84442991Y-98532778D01*
X84286466Y-98616443D01*
X84116627Y-98667963D01*
X84050443Y-98674481D01*
X83984260Y-98681000D01*
X83895740Y-98681000D01*
X83829557Y-98674481D01*
X83763373Y-98667963D01*
X83593534Y-98616443D01*
X83437009Y-98532778D01*
X83401271Y-98503448D01*
X83299814Y-98420186D01*
X83216552Y-98318729D01*
X83187222Y-98282991D01*
X83103557Y-98126466D01*
X83052037Y-97956627D01*
X83034641Y-97780000D01*
X83052037Y-97603373D01*
X83103557Y-97433534D01*
X83187222Y-97277009D01*
X83216552Y-97241271D01*
X83299814Y-97139814D01*
X83401271Y-97056552D01*
X83437009Y-97027222D01*
X83593534Y-96943557D01*
X83763373Y-96892037D01*
X83829558Y-96885518D01*
X83895740Y-96879000D01*
X83984260Y-96879000D01*
X84050442Y-96885518D01*
X84050442Y-96885518D01*
G37*
G36*
X68810442Y-96885518D02*
G01*
X68876627Y-96892037D01*
X69046466Y-96943557D01*
X69202991Y-97027222D01*
X69238729Y-97056552D01*
X69340186Y-97139814D01*
X69423448Y-97241271D01*
X69452778Y-97277009D01*
X69536443Y-97433534D01*
X69587963Y-97603373D01*
X69605359Y-97780000D01*
X69587963Y-97956627D01*
X69536443Y-98126466D01*
X69452778Y-98282991D01*
X69423448Y-98318729D01*
X69340186Y-98420186D01*
X69238729Y-98503448D01*
X69202991Y-98532778D01*
X69046466Y-98616443D01*
X68876627Y-98667963D01*
X68810443Y-98674481D01*
X68744260Y-98681000D01*
X68655740Y-98681000D01*
X68589557Y-98674481D01*
X68523373Y-98667963D01*
X68353534Y-98616443D01*
X68197009Y-98532778D01*
X68161271Y-98503448D01*
X68059814Y-98420186D01*
X67976552Y-98318729D01*
X67947222Y-98282991D01*
X67863557Y-98126466D01*
X67812037Y-97956627D01*
X67794641Y-97780000D01*
X67812037Y-97603373D01*
X67863557Y-97433534D01*
X67947222Y-97277009D01*
X67976552Y-97241271D01*
X68059814Y-97139814D01*
X68161271Y-97056552D01*
X68197009Y-97027222D01*
X68353534Y-96943557D01*
X68523373Y-96892037D01*
X68589558Y-96885518D01*
X68655740Y-96879000D01*
X68744260Y-96879000D01*
X68810442Y-96885518D01*
X68810442Y-96885518D01*
G37*
G36*
X68810443Y-94345519D02*
G01*
X68876627Y-94352037D01*
X69046466Y-94403557D01*
X69202991Y-94487222D01*
X69238729Y-94516552D01*
X69340186Y-94599814D01*
X69423448Y-94701271D01*
X69452778Y-94737009D01*
X69536443Y-94893534D01*
X69587963Y-95063373D01*
X69605359Y-95240000D01*
X69587963Y-95416627D01*
X69536443Y-95586466D01*
X69452778Y-95742991D01*
X69423448Y-95778729D01*
X69340186Y-95880186D01*
X69238729Y-95963448D01*
X69202991Y-95992778D01*
X69046466Y-96076443D01*
X68876627Y-96127963D01*
X68810443Y-96134481D01*
X68744260Y-96141000D01*
X68655740Y-96141000D01*
X68589557Y-96134481D01*
X68523373Y-96127963D01*
X68353534Y-96076443D01*
X68197009Y-95992778D01*
X68161271Y-95963448D01*
X68059814Y-95880186D01*
X67976552Y-95778729D01*
X67947222Y-95742991D01*
X67863557Y-95586466D01*
X67812037Y-95416627D01*
X67794641Y-95240000D01*
X67812037Y-95063373D01*
X67863557Y-94893534D01*
X67947222Y-94737009D01*
X67976552Y-94701271D01*
X68059814Y-94599814D01*
X68161271Y-94516552D01*
X68197009Y-94487222D01*
X68353534Y-94403557D01*
X68523373Y-94352037D01*
X68589557Y-94345519D01*
X68655740Y-94339000D01*
X68744260Y-94339000D01*
X68810443Y-94345519D01*
X68810443Y-94345519D01*
G37*
G36*
X84050443Y-94345519D02*
G01*
X84116627Y-94352037D01*
X84286466Y-94403557D01*
X84442991Y-94487222D01*
X84478729Y-94516552D01*
X84580186Y-94599814D01*
X84663448Y-94701271D01*
X84692778Y-94737009D01*
X84776443Y-94893534D01*
X84827963Y-95063373D01*
X84845359Y-95240000D01*
X84827963Y-95416627D01*
X84776443Y-95586466D01*
X84692778Y-95742991D01*
X84663448Y-95778729D01*
X84580186Y-95880186D01*
X84478729Y-95963448D01*
X84442991Y-95992778D01*
X84286466Y-96076443D01*
X84116627Y-96127963D01*
X84050443Y-96134481D01*
X83984260Y-96141000D01*
X83895740Y-96141000D01*
X83829557Y-96134481D01*
X83763373Y-96127963D01*
X83593534Y-96076443D01*
X83437009Y-95992778D01*
X83401271Y-95963448D01*
X83299814Y-95880186D01*
X83216552Y-95778729D01*
X83187222Y-95742991D01*
X83103557Y-95586466D01*
X83052037Y-95416627D01*
X83034641Y-95240000D01*
X83052037Y-95063373D01*
X83103557Y-94893534D01*
X83187222Y-94737009D01*
X83216552Y-94701271D01*
X83299814Y-94599814D01*
X83401271Y-94516552D01*
X83437009Y-94487222D01*
X83593534Y-94403557D01*
X83763373Y-94352037D01*
X83829557Y-94345519D01*
X83895740Y-94339000D01*
X83984260Y-94339000D01*
X84050443Y-94345519D01*
X84050443Y-94345519D01*
G37*
G36*
X69601000Y-93601000D02*
G01*
X67799000Y-93601000D01*
X67799000Y-91799000D01*
X69601000Y-91799000D01*
X69601000Y-93601000D01*
X69601000Y-93601000D01*
G37*
G36*
X84841000Y-93601000D02*
G01*
X83039000Y-93601000D01*
X83039000Y-91799000D01*
X84841000Y-91799000D01*
X84841000Y-93601000D01*
X84841000Y-93601000D01*
G37*
G36*
X130106000Y-91546000D02*
G01*
X128654000Y-91546000D01*
X128654000Y-90094000D01*
X130106000Y-90094000D01*
X130106000Y-91546000D01*
X130106000Y-91546000D01*
G37*
G36*
X133296000Y-91516000D02*
G01*
X131844000Y-91516000D01*
X131844000Y-90064000D01*
X133296000Y-90064000D01*
X133296000Y-91516000D01*
X133296000Y-91516000D01*
G37*
G36*
X73218039Y-83192250D02*
G01*
X73407372Y-83270675D01*
X73541251Y-83326129D01*
X73832134Y-83520491D01*
X74079509Y-83767866D01*
X74273871Y-84058749D01*
X74273871Y-84058750D01*
X74407750Y-84381961D01*
X74476000Y-84725078D01*
X74476000Y-85074922D01*
X74407750Y-85418039D01*
X74329325Y-85607372D01*
X74273871Y-85741251D01*
X74079509Y-86032134D01*
X73832134Y-86279509D01*
X73541251Y-86473871D01*
X73407372Y-86529325D01*
X73218039Y-86607750D01*
X72874922Y-86676000D01*
X72525078Y-86676000D01*
X72181961Y-86607750D01*
X71992628Y-86529325D01*
X71858749Y-86473871D01*
X71567866Y-86279509D01*
X71320491Y-86032134D01*
X71126129Y-85741251D01*
X71070675Y-85607372D01*
X70992250Y-85418039D01*
X70924000Y-85074922D01*
X70924000Y-84725078D01*
X70992250Y-84381961D01*
X71126129Y-84058750D01*
X71126129Y-84058749D01*
X71320491Y-83767866D01*
X71567866Y-83520491D01*
X71858749Y-83326129D01*
X71992628Y-83270675D01*
X72181961Y-83192250D01*
X72525078Y-83124000D01*
X72874922Y-83124000D01*
X73218039Y-83192250D01*
X73218039Y-83192250D01*
G37*
G36*
X55626000Y-70726000D02*
G01*
X54174000Y-70726000D01*
X54174000Y-69274000D01*
X55626000Y-69274000D01*
X55626000Y-70726000D01*
X55626000Y-70726000D01*
G37*
G36*
X128418039Y-67192250D02*
G01*
X128607372Y-67270675D01*
X128741251Y-67326129D01*
X129032134Y-67520491D01*
X129279509Y-67767866D01*
X129473871Y-68058749D01*
X129473871Y-68058750D01*
X129607750Y-68381961D01*
X129676000Y-68725078D01*
X129676000Y-69074922D01*
X129607750Y-69418039D01*
X129577859Y-69490201D01*
X129473871Y-69741251D01*
X129279509Y-70032134D01*
X129032134Y-70279509D01*
X128741251Y-70473871D01*
X128607372Y-70529325D01*
X128418039Y-70607750D01*
X128074922Y-70676000D01*
X127725078Y-70676000D01*
X127381961Y-70607750D01*
X127192628Y-70529325D01*
X127058749Y-70473871D01*
X126767866Y-70279509D01*
X126520491Y-70032134D01*
X126326129Y-69741251D01*
X126222141Y-69490201D01*
X126192250Y-69418039D01*
X126124000Y-69074922D01*
X126124000Y-68725078D01*
X126192250Y-68381961D01*
X126326129Y-68058750D01*
X126326129Y-68058749D01*
X126520491Y-67767866D01*
X126767866Y-67520491D01*
X127058749Y-67326129D01*
X127192628Y-67270675D01*
X127381961Y-67192250D01*
X127725078Y-67124000D01*
X128074922Y-67124000D01*
X128418039Y-67192250D01*
X128418039Y-67192250D01*
G37*
G36*
X147326000Y-70626000D02*
G01*
X145874000Y-70626000D01*
X145874000Y-69174000D01*
X147326000Y-69174000D01*
X147326000Y-70626000D01*
X147326000Y-70626000D01*
G37*
G36*
X64733444Y-67701882D02*
G01*
X64960201Y-67795808D01*
X64960202Y-67795809D01*
X65164279Y-67932168D01*
X65337832Y-68105721D01*
X65428944Y-68242081D01*
X65474192Y-68309799D01*
X65568118Y-68536556D01*
X65616000Y-68777278D01*
X65616000Y-69022722D01*
X65568118Y-69263444D01*
X65474192Y-69490201D01*
X65474191Y-69490202D01*
X65337832Y-69694279D01*
X65164279Y-69867832D01*
X65027919Y-69958944D01*
X64960201Y-70004192D01*
X64733444Y-70098118D01*
X64492722Y-70146000D01*
X64247278Y-70146000D01*
X64006556Y-70098118D01*
X63779799Y-70004192D01*
X63712081Y-69958944D01*
X63575721Y-69867832D01*
X63402168Y-69694279D01*
X63265809Y-69490202D01*
X63265808Y-69490201D01*
X63171882Y-69263444D01*
X63124000Y-69022722D01*
X63124000Y-68777278D01*
X63171882Y-68536556D01*
X63265808Y-68309799D01*
X63311056Y-68242081D01*
X63402168Y-68105721D01*
X63575721Y-67932168D01*
X63779798Y-67795809D01*
X63779799Y-67795808D01*
X64006556Y-67701882D01*
X64247278Y-67654000D01*
X64492722Y-67654000D01*
X64733444Y-67701882D01*
X64733444Y-67701882D01*
G37*
M02*
