G04 #@! TF.GenerationSoftware,KiCad,Pcbnew,(5.1.0)-1*
G04 #@! TF.CreationDate,2019-06-24T17:02:51-03:00*
G04 #@! TF.ProjectId,Main,4d61696e-2e6b-4696-9361-645f70636258,rev?*
G04 #@! TF.SameCoordinates,Original*
G04 #@! TF.FileFunction,Copper,L2,Bot*
G04 #@! TF.FilePolarity,Positive*
%FSLAX46Y46*%
G04 Gerber Fmt 4.6, Leading zero omitted, Abs format (unit mm)*
G04 Created by KiCad (PCBNEW (5.1.0)-1) date 2019-06-24 17:02:51*
%MOMM*%
%LPD*%
G04 APERTURE LIST*
%ADD10R,1.700000X1.700000*%
%ADD11O,1.700000X1.700000*%
%ADD12R,1.350000X1.350000*%
%ADD13O,1.350000X1.350000*%
%ADD14C,0.800000*%
%ADD15C,0.250000*%
%ADD16C,0.254000*%
G04 APERTURE END LIST*
D10*
X83940000Y-92700000D03*
D11*
X83940000Y-95240000D03*
X83940000Y-97780000D03*
D12*
X55600000Y-113400000D03*
X75600000Y-113400000D03*
X76600000Y-116400000D03*
X76600000Y-136400000D03*
D13*
X76600000Y-138400000D03*
D12*
X56600000Y-138400000D03*
X54900000Y-70000000D03*
X146600000Y-69900000D03*
X91600000Y-136930000D03*
D11*
X68700000Y-97780000D03*
X68700000Y-95240000D03*
D10*
X68700000Y-92700000D03*
D12*
X113550000Y-126200000D03*
X95160000Y-98340000D03*
D13*
X95160000Y-100340000D03*
X95160000Y-102340000D03*
X95160000Y-104340000D03*
X95160000Y-106340000D03*
X95160000Y-108340000D03*
D12*
X102750000Y-113200000D03*
X102750000Y-133910000D03*
X148030000Y-100820000D03*
X122010000Y-100780000D03*
X129380000Y-90820000D03*
X132570000Y-90790000D03*
D14*
X57600000Y-96000000D03*
X65350000Y-103850000D03*
X114176999Y-93023001D03*
X58600000Y-138400000D03*
X60750000Y-123450000D03*
X108000000Y-106400000D03*
X58300000Y-109000000D03*
X115435000Y-97635000D03*
X118195000Y-98905000D03*
X125200000Y-99000000D03*
X77400000Y-113400000D03*
X93950000Y-129000000D03*
X80700000Y-97500000D03*
X81060000Y-106960000D03*
X79850000Y-104550000D03*
X70780000Y-97780000D03*
X97750000Y-129430000D03*
D15*
X118290000Y-99000000D02*
X118195000Y-98905000D01*
X125200000Y-99000000D02*
X118290000Y-99000000D01*
X77400000Y-113400000D02*
X83800000Y-113400000D01*
X83800000Y-118850000D02*
X93950000Y-129000000D01*
X83800000Y-113400000D02*
X83800000Y-118850000D01*
X81099999Y-97899999D02*
X80700000Y-97500000D01*
X81459999Y-98259999D02*
X81099999Y-97899999D01*
X81459999Y-106560001D02*
X81459999Y-98259999D01*
X81060000Y-106960000D02*
X81459999Y-106560001D01*
X95040000Y-106340000D02*
X95160000Y-106340000D01*
X83940000Y-95240000D02*
X95040000Y-106340000D01*
X73080000Y-97780000D02*
X79850000Y-104550000D01*
X70780000Y-97780000D02*
X73080000Y-97780000D01*
X94485001Y-99665001D02*
X95160000Y-100340000D01*
X88884999Y-94064999D02*
X94485001Y-99665001D01*
X69875001Y-94064999D02*
X88884999Y-94064999D01*
X68700000Y-95240000D02*
X69875001Y-94064999D01*
X94235000Y-98340000D02*
X95160000Y-98340000D01*
X87419999Y-91524999D02*
X94235000Y-98340000D01*
X70975001Y-91524999D02*
X87419999Y-91524999D01*
X69800000Y-92700000D02*
X70975001Y-91524999D01*
X68700000Y-92700000D02*
X69800000Y-92700000D01*
X94500000Y-108340000D02*
X95160000Y-108340000D01*
X83940000Y-97780000D02*
X94500000Y-108340000D01*
X102750000Y-124430000D02*
X102750000Y-113200000D01*
X97750000Y-129430000D02*
X102750000Y-124430000D01*
X132570000Y-91715000D02*
X132570000Y-90790000D01*
X132570000Y-92703002D02*
X132570000Y-91715000D01*
X124493002Y-100780000D02*
X132570000Y-92703002D01*
X122010000Y-100780000D02*
X124493002Y-100780000D01*
D16*
G36*
X149200000Y-99747204D02*
G01*
X149156185Y-99693815D01*
X149059494Y-99614463D01*
X148949180Y-99555498D01*
X148829482Y-99519188D01*
X148705000Y-99506928D01*
X147355000Y-99506928D01*
X147230518Y-99519188D01*
X147110820Y-99555498D01*
X147000506Y-99614463D01*
X146903815Y-99693815D01*
X146824463Y-99790506D01*
X146765498Y-99900820D01*
X146729188Y-100020518D01*
X146716928Y-100145000D01*
X146716928Y-101495000D01*
X146729188Y-101619482D01*
X146765498Y-101739180D01*
X146824463Y-101849494D01*
X146903815Y-101946185D01*
X147000506Y-102025537D01*
X147110820Y-102084502D01*
X147230518Y-102120812D01*
X147355000Y-102133072D01*
X148705000Y-102133072D01*
X148829482Y-102120812D01*
X148949180Y-102084502D01*
X149059494Y-102025537D01*
X149156185Y-101946185D01*
X149200000Y-101892796D01*
X149200001Y-141580000D01*
X51460000Y-141580000D01*
X51460000Y-137725000D01*
X55286928Y-137725000D01*
X55290000Y-138114250D01*
X55448748Y-138272998D01*
X55290000Y-138272998D01*
X55290000Y-138527002D01*
X55448748Y-138527002D01*
X55290000Y-138685750D01*
X55286928Y-139075000D01*
X55299188Y-139199482D01*
X55335498Y-139319180D01*
X55394463Y-139429494D01*
X55473815Y-139526185D01*
X55570506Y-139605537D01*
X55680820Y-139664502D01*
X55800518Y-139700812D01*
X55925000Y-139713072D01*
X56314250Y-139710000D01*
X56473000Y-139551250D01*
X56473000Y-138527000D01*
X56453000Y-138527000D01*
X56453000Y-138273000D01*
X56473000Y-138273000D01*
X56473000Y-137248750D01*
X56727000Y-137248750D01*
X56727000Y-138273000D01*
X56747000Y-138273000D01*
X56747000Y-138527000D01*
X56727000Y-138527000D01*
X56727000Y-139551250D01*
X56885750Y-139710000D01*
X57275000Y-139713072D01*
X57399482Y-139700812D01*
X57519180Y-139664502D01*
X57629494Y-139605537D01*
X57726185Y-139526185D01*
X57805537Y-139429494D01*
X57864502Y-139319180D01*
X57900812Y-139199482D01*
X57913072Y-139075000D01*
X57910000Y-138685750D01*
X57751252Y-138527002D01*
X57910000Y-138527002D01*
X57910000Y-138400000D01*
X75283662Y-138400000D01*
X75308955Y-138656805D01*
X75383862Y-138903741D01*
X75505505Y-139131318D01*
X75669208Y-139330792D01*
X75868682Y-139494495D01*
X76096259Y-139616138D01*
X76343195Y-139691045D01*
X76535649Y-139710000D01*
X76664351Y-139710000D01*
X76856805Y-139691045D01*
X77103741Y-139616138D01*
X77331318Y-139494495D01*
X77530792Y-139330792D01*
X77694495Y-139131318D01*
X77816138Y-138903741D01*
X77891045Y-138656805D01*
X77916338Y-138400000D01*
X77891045Y-138143195D01*
X77816138Y-137896259D01*
X77694495Y-137668682D01*
X77642233Y-137605000D01*
X90286928Y-137605000D01*
X90299188Y-137729482D01*
X90335498Y-137849180D01*
X90394463Y-137959494D01*
X90473815Y-138056185D01*
X90570506Y-138135537D01*
X90680820Y-138194502D01*
X90800518Y-138230812D01*
X90925000Y-138243072D01*
X91314250Y-138240000D01*
X91473000Y-138081250D01*
X91473000Y-137057000D01*
X91727000Y-137057000D01*
X91727000Y-138081250D01*
X91885750Y-138240000D01*
X92275000Y-138243072D01*
X92399482Y-138230812D01*
X92519180Y-138194502D01*
X92629494Y-138135537D01*
X92726185Y-138056185D01*
X92805537Y-137959494D01*
X92864502Y-137849180D01*
X92900812Y-137729482D01*
X92913072Y-137605000D01*
X92910000Y-137215750D01*
X92751250Y-137057000D01*
X91727000Y-137057000D01*
X91473000Y-137057000D01*
X90448750Y-137057000D01*
X90290000Y-137215750D01*
X90286928Y-137605000D01*
X77642233Y-137605000D01*
X77637369Y-137599074D01*
X77726185Y-137526185D01*
X77805537Y-137429494D01*
X77864502Y-137319180D01*
X77900812Y-137199482D01*
X77913072Y-137075000D01*
X77913072Y-136255000D01*
X90286928Y-136255000D01*
X90290000Y-136644250D01*
X90448750Y-136803000D01*
X91473000Y-136803000D01*
X91473000Y-135778750D01*
X91727000Y-135778750D01*
X91727000Y-136803000D01*
X92751250Y-136803000D01*
X92910000Y-136644250D01*
X92913072Y-136255000D01*
X92900812Y-136130518D01*
X92864502Y-136010820D01*
X92805537Y-135900506D01*
X92726185Y-135803815D01*
X92629494Y-135724463D01*
X92519180Y-135665498D01*
X92399482Y-135629188D01*
X92275000Y-135616928D01*
X91885750Y-135620000D01*
X91727000Y-135778750D01*
X91473000Y-135778750D01*
X91314250Y-135620000D01*
X90925000Y-135616928D01*
X90800518Y-135629188D01*
X90680820Y-135665498D01*
X90570506Y-135724463D01*
X90473815Y-135803815D01*
X90394463Y-135900506D01*
X90335498Y-136010820D01*
X90299188Y-136130518D01*
X90286928Y-136255000D01*
X77913072Y-136255000D01*
X77913072Y-135725000D01*
X77900812Y-135600518D01*
X77864502Y-135480820D01*
X77805537Y-135370506D01*
X77726185Y-135273815D01*
X77629494Y-135194463D01*
X77519180Y-135135498D01*
X77399482Y-135099188D01*
X77275000Y-135086928D01*
X75925000Y-135086928D01*
X75800518Y-135099188D01*
X75680820Y-135135498D01*
X75570506Y-135194463D01*
X75473815Y-135273815D01*
X75394463Y-135370506D01*
X75335498Y-135480820D01*
X75299188Y-135600518D01*
X75286928Y-135725000D01*
X75286928Y-137075000D01*
X75299188Y-137199482D01*
X75335498Y-137319180D01*
X75394463Y-137429494D01*
X75473815Y-137526185D01*
X75562631Y-137599074D01*
X75505505Y-137668682D01*
X75383862Y-137896259D01*
X75308955Y-138143195D01*
X75283662Y-138400000D01*
X57910000Y-138400000D01*
X57910000Y-138272998D01*
X57751252Y-138272998D01*
X57910000Y-138114250D01*
X57913072Y-137725000D01*
X57900812Y-137600518D01*
X57864502Y-137480820D01*
X57805537Y-137370506D01*
X57726185Y-137273815D01*
X57629494Y-137194463D01*
X57519180Y-137135498D01*
X57399482Y-137099188D01*
X57275000Y-137086928D01*
X56885750Y-137090000D01*
X56727000Y-137248750D01*
X56473000Y-137248750D01*
X56314250Y-137090000D01*
X55925000Y-137086928D01*
X55800518Y-137099188D01*
X55680820Y-137135498D01*
X55570506Y-137194463D01*
X55473815Y-137273815D01*
X55394463Y-137370506D01*
X55335498Y-137480820D01*
X55299188Y-137600518D01*
X55286928Y-137725000D01*
X51460000Y-137725000D01*
X51460000Y-134585000D01*
X101436928Y-134585000D01*
X101449188Y-134709482D01*
X101485498Y-134829180D01*
X101544463Y-134939494D01*
X101623815Y-135036185D01*
X101720506Y-135115537D01*
X101830820Y-135174502D01*
X101950518Y-135210812D01*
X102075000Y-135223072D01*
X102464250Y-135220000D01*
X102623000Y-135061250D01*
X102623000Y-134037000D01*
X102877000Y-134037000D01*
X102877000Y-135061250D01*
X103035750Y-135220000D01*
X103425000Y-135223072D01*
X103549482Y-135210812D01*
X103669180Y-135174502D01*
X103779494Y-135115537D01*
X103876185Y-135036185D01*
X103955537Y-134939494D01*
X104014502Y-134829180D01*
X104050812Y-134709482D01*
X104063072Y-134585000D01*
X104060000Y-134195750D01*
X103901250Y-134037000D01*
X102877000Y-134037000D01*
X102623000Y-134037000D01*
X101598750Y-134037000D01*
X101440000Y-134195750D01*
X101436928Y-134585000D01*
X51460000Y-134585000D01*
X51460000Y-133235000D01*
X101436928Y-133235000D01*
X101440000Y-133624250D01*
X101598750Y-133783000D01*
X102623000Y-133783000D01*
X102623000Y-132758750D01*
X102877000Y-132758750D01*
X102877000Y-133783000D01*
X103901250Y-133783000D01*
X104060000Y-133624250D01*
X104063072Y-133235000D01*
X104050812Y-133110518D01*
X104014502Y-132990820D01*
X103955537Y-132880506D01*
X103876185Y-132783815D01*
X103779494Y-132704463D01*
X103669180Y-132645498D01*
X103549482Y-132609188D01*
X103425000Y-132596928D01*
X103035750Y-132600000D01*
X102877000Y-132758750D01*
X102623000Y-132758750D01*
X102464250Y-132600000D01*
X102075000Y-132596928D01*
X101950518Y-132609188D01*
X101830820Y-132645498D01*
X101720506Y-132704463D01*
X101623815Y-132783815D01*
X101544463Y-132880506D01*
X101485498Y-132990820D01*
X101449188Y-133110518D01*
X101436928Y-133235000D01*
X51460000Y-133235000D01*
X51460000Y-115725000D01*
X75286928Y-115725000D01*
X75286928Y-117075000D01*
X75299188Y-117199482D01*
X75335498Y-117319180D01*
X75394463Y-117429494D01*
X75473815Y-117526185D01*
X75570506Y-117605537D01*
X75680820Y-117664502D01*
X75800518Y-117700812D01*
X75925000Y-117713072D01*
X77275000Y-117713072D01*
X77399482Y-117700812D01*
X77519180Y-117664502D01*
X77629494Y-117605537D01*
X77726185Y-117526185D01*
X77805537Y-117429494D01*
X77864502Y-117319180D01*
X77900812Y-117199482D01*
X77913072Y-117075000D01*
X77913072Y-115725000D01*
X77900812Y-115600518D01*
X77864502Y-115480820D01*
X77805537Y-115370506D01*
X77726185Y-115273815D01*
X77629494Y-115194463D01*
X77519180Y-115135498D01*
X77399482Y-115099188D01*
X77275000Y-115086928D01*
X75925000Y-115086928D01*
X75800518Y-115099188D01*
X75680820Y-115135498D01*
X75570506Y-115194463D01*
X75473815Y-115273815D01*
X75394463Y-115370506D01*
X75335498Y-115480820D01*
X75299188Y-115600518D01*
X75286928Y-115725000D01*
X51460000Y-115725000D01*
X51460000Y-112725000D01*
X54286928Y-112725000D01*
X54286928Y-114075000D01*
X54299188Y-114199482D01*
X54335498Y-114319180D01*
X54394463Y-114429494D01*
X54473815Y-114526185D01*
X54570506Y-114605537D01*
X54680820Y-114664502D01*
X54800518Y-114700812D01*
X54925000Y-114713072D01*
X56275000Y-114713072D01*
X56399482Y-114700812D01*
X56519180Y-114664502D01*
X56629494Y-114605537D01*
X56726185Y-114526185D01*
X56805537Y-114429494D01*
X56864502Y-114319180D01*
X56900812Y-114199482D01*
X56913072Y-114075000D01*
X56913072Y-112725000D01*
X74286928Y-112725000D01*
X74286928Y-114075000D01*
X74299188Y-114199482D01*
X74335498Y-114319180D01*
X74394463Y-114429494D01*
X74473815Y-114526185D01*
X74570506Y-114605537D01*
X74680820Y-114664502D01*
X74800518Y-114700812D01*
X74925000Y-114713072D01*
X76275000Y-114713072D01*
X76399482Y-114700812D01*
X76519180Y-114664502D01*
X76629494Y-114605537D01*
X76726185Y-114526185D01*
X76805537Y-114429494D01*
X76864502Y-114319180D01*
X76872625Y-114292403D01*
X76909744Y-114317205D01*
X77098102Y-114395226D01*
X77298061Y-114435000D01*
X77501939Y-114435000D01*
X77701898Y-114395226D01*
X77890256Y-114317205D01*
X78059774Y-114203937D01*
X78103711Y-114160000D01*
X83040000Y-114160000D01*
X83040001Y-118812668D01*
X83036324Y-118850000D01*
X83050998Y-118998985D01*
X83094454Y-119142246D01*
X83165026Y-119274276D01*
X83236201Y-119361002D01*
X83260000Y-119390001D01*
X83288998Y-119413799D01*
X92915000Y-129039802D01*
X92915000Y-129101939D01*
X92954774Y-129301898D01*
X93032795Y-129490256D01*
X93146063Y-129659774D01*
X93290226Y-129803937D01*
X93459744Y-129917205D01*
X93648102Y-129995226D01*
X93848061Y-130035000D01*
X94051939Y-130035000D01*
X94251898Y-129995226D01*
X94440256Y-129917205D01*
X94609774Y-129803937D01*
X94753937Y-129659774D01*
X94867205Y-129490256D01*
X94934388Y-129328061D01*
X96715000Y-129328061D01*
X96715000Y-129531939D01*
X96754774Y-129731898D01*
X96832795Y-129920256D01*
X96946063Y-130089774D01*
X97090226Y-130233937D01*
X97259744Y-130347205D01*
X97448102Y-130425226D01*
X97648061Y-130465000D01*
X97851939Y-130465000D01*
X98051898Y-130425226D01*
X98240256Y-130347205D01*
X98409774Y-130233937D01*
X98553937Y-130089774D01*
X98667205Y-129920256D01*
X98745226Y-129731898D01*
X98785000Y-129531939D01*
X98785000Y-129469801D01*
X102729801Y-125525000D01*
X112236928Y-125525000D01*
X112236928Y-126875000D01*
X112249188Y-126999482D01*
X112285498Y-127119180D01*
X112344463Y-127229494D01*
X112423815Y-127326185D01*
X112520506Y-127405537D01*
X112630820Y-127464502D01*
X112750518Y-127500812D01*
X112875000Y-127513072D01*
X114225000Y-127513072D01*
X114349482Y-127500812D01*
X114469180Y-127464502D01*
X114579494Y-127405537D01*
X114676185Y-127326185D01*
X114755537Y-127229494D01*
X114814502Y-127119180D01*
X114850812Y-126999482D01*
X114863072Y-126875000D01*
X114863072Y-125525000D01*
X114850812Y-125400518D01*
X114814502Y-125280820D01*
X114755537Y-125170506D01*
X114676185Y-125073815D01*
X114579494Y-124994463D01*
X114469180Y-124935498D01*
X114349482Y-124899188D01*
X114225000Y-124886928D01*
X112875000Y-124886928D01*
X112750518Y-124899188D01*
X112630820Y-124935498D01*
X112520506Y-124994463D01*
X112423815Y-125073815D01*
X112344463Y-125170506D01*
X112285498Y-125280820D01*
X112249188Y-125400518D01*
X112236928Y-125525000D01*
X102729801Y-125525000D01*
X103261004Y-124993798D01*
X103290001Y-124970001D01*
X103384974Y-124854276D01*
X103455546Y-124722247D01*
X103499003Y-124578986D01*
X103510000Y-124467333D01*
X103510000Y-124467323D01*
X103513676Y-124430000D01*
X103510000Y-124392677D01*
X103510000Y-114504701D01*
X103549482Y-114500812D01*
X103669180Y-114464502D01*
X103779494Y-114405537D01*
X103876185Y-114326185D01*
X103955537Y-114229494D01*
X104014502Y-114119180D01*
X104050812Y-113999482D01*
X104063072Y-113875000D01*
X104063072Y-112525000D01*
X104050812Y-112400518D01*
X104014502Y-112280820D01*
X103955537Y-112170506D01*
X103876185Y-112073815D01*
X103779494Y-111994463D01*
X103669180Y-111935498D01*
X103549482Y-111899188D01*
X103425000Y-111886928D01*
X102075000Y-111886928D01*
X101950518Y-111899188D01*
X101830820Y-111935498D01*
X101720506Y-111994463D01*
X101623815Y-112073815D01*
X101544463Y-112170506D01*
X101485498Y-112280820D01*
X101449188Y-112400518D01*
X101436928Y-112525000D01*
X101436928Y-113875000D01*
X101449188Y-113999482D01*
X101485498Y-114119180D01*
X101544463Y-114229494D01*
X101623815Y-114326185D01*
X101720506Y-114405537D01*
X101830820Y-114464502D01*
X101950518Y-114500812D01*
X101990001Y-114504701D01*
X101990000Y-124115198D01*
X97710199Y-128395000D01*
X97648061Y-128395000D01*
X97448102Y-128434774D01*
X97259744Y-128512795D01*
X97090226Y-128626063D01*
X96946063Y-128770226D01*
X96832795Y-128939744D01*
X96754774Y-129128102D01*
X96715000Y-129328061D01*
X94934388Y-129328061D01*
X94945226Y-129301898D01*
X94985000Y-129101939D01*
X94985000Y-128898061D01*
X94945226Y-128698102D01*
X94867205Y-128509744D01*
X94753937Y-128340226D01*
X94609774Y-128196063D01*
X94440256Y-128082795D01*
X94251898Y-128004774D01*
X94051939Y-127965000D01*
X93989802Y-127965000D01*
X84560000Y-118535199D01*
X84560000Y-113437333D01*
X84563677Y-113400000D01*
X84549003Y-113251014D01*
X84505546Y-113107753D01*
X84434974Y-112975724D01*
X84340001Y-112859999D01*
X84224276Y-112765026D01*
X84092247Y-112694454D01*
X83948986Y-112650997D01*
X83837333Y-112640000D01*
X83800000Y-112636323D01*
X83762667Y-112640000D01*
X78103711Y-112640000D01*
X78059774Y-112596063D01*
X77890256Y-112482795D01*
X77701898Y-112404774D01*
X77501939Y-112365000D01*
X77298061Y-112365000D01*
X77098102Y-112404774D01*
X76909744Y-112482795D01*
X76872625Y-112507597D01*
X76864502Y-112480820D01*
X76805537Y-112370506D01*
X76726185Y-112273815D01*
X76629494Y-112194463D01*
X76519180Y-112135498D01*
X76399482Y-112099188D01*
X76275000Y-112086928D01*
X74925000Y-112086928D01*
X74800518Y-112099188D01*
X74680820Y-112135498D01*
X74570506Y-112194463D01*
X74473815Y-112273815D01*
X74394463Y-112370506D01*
X74335498Y-112480820D01*
X74299188Y-112600518D01*
X74286928Y-112725000D01*
X56913072Y-112725000D01*
X56900812Y-112600518D01*
X56864502Y-112480820D01*
X56805537Y-112370506D01*
X56726185Y-112273815D01*
X56629494Y-112194463D01*
X56519180Y-112135498D01*
X56399482Y-112099188D01*
X56275000Y-112086928D01*
X54925000Y-112086928D01*
X54800518Y-112099188D01*
X54680820Y-112135498D01*
X54570506Y-112194463D01*
X54473815Y-112273815D01*
X54394463Y-112370506D01*
X54335498Y-112480820D01*
X54299188Y-112600518D01*
X54286928Y-112725000D01*
X51460000Y-112725000D01*
X51460000Y-95240000D01*
X67207815Y-95240000D01*
X67236487Y-95531111D01*
X67321401Y-95811034D01*
X67459294Y-96069014D01*
X67644866Y-96295134D01*
X67870986Y-96480706D01*
X67925791Y-96510000D01*
X67870986Y-96539294D01*
X67644866Y-96724866D01*
X67459294Y-96950986D01*
X67321401Y-97208966D01*
X67236487Y-97488889D01*
X67207815Y-97780000D01*
X67236487Y-98071111D01*
X67321401Y-98351034D01*
X67459294Y-98609014D01*
X67644866Y-98835134D01*
X67870986Y-99020706D01*
X68128966Y-99158599D01*
X68408889Y-99243513D01*
X68627050Y-99265000D01*
X68772950Y-99265000D01*
X68991111Y-99243513D01*
X69271034Y-99158599D01*
X69529014Y-99020706D01*
X69755134Y-98835134D01*
X69940706Y-98609014D01*
X70011973Y-98475684D01*
X70120226Y-98583937D01*
X70289744Y-98697205D01*
X70478102Y-98775226D01*
X70678061Y-98815000D01*
X70881939Y-98815000D01*
X71081898Y-98775226D01*
X71270256Y-98697205D01*
X71439774Y-98583937D01*
X71483711Y-98540000D01*
X72765199Y-98540000D01*
X78815000Y-104589802D01*
X78815000Y-104651939D01*
X78854774Y-104851898D01*
X78932795Y-105040256D01*
X79046063Y-105209774D01*
X79190226Y-105353937D01*
X79359744Y-105467205D01*
X79548102Y-105545226D01*
X79748061Y-105585000D01*
X79951939Y-105585000D01*
X80151898Y-105545226D01*
X80340256Y-105467205D01*
X80509774Y-105353937D01*
X80653937Y-105209774D01*
X80699999Y-105140837D01*
X80699999Y-105988841D01*
X80569744Y-106042795D01*
X80400226Y-106156063D01*
X80256063Y-106300226D01*
X80142795Y-106469744D01*
X80064774Y-106658102D01*
X80025000Y-106858061D01*
X80025000Y-107061939D01*
X80064774Y-107261898D01*
X80142795Y-107450256D01*
X80256063Y-107619774D01*
X80400226Y-107763937D01*
X80569744Y-107877205D01*
X80758102Y-107955226D01*
X80958061Y-107995000D01*
X81161939Y-107995000D01*
X81361898Y-107955226D01*
X81550256Y-107877205D01*
X81719774Y-107763937D01*
X81863937Y-107619774D01*
X81977205Y-107450256D01*
X82055226Y-107261898D01*
X82095000Y-107061939D01*
X82095000Y-106984226D01*
X82165545Y-106852248D01*
X82209002Y-106708987D01*
X82219999Y-106597334D01*
X82219999Y-106597324D01*
X82223675Y-106560002D01*
X82219999Y-106522679D01*
X82219999Y-98297322D01*
X82223675Y-98259999D01*
X82219999Y-98222676D01*
X82219999Y-98222666D01*
X82209002Y-98111013D01*
X82165545Y-97967752D01*
X82094973Y-97835723D01*
X82000000Y-97719998D01*
X81970996Y-97696195D01*
X81735000Y-97460199D01*
X81735000Y-97398061D01*
X81695226Y-97198102D01*
X81617205Y-97009744D01*
X81503937Y-96840226D01*
X81359774Y-96696063D01*
X81190256Y-96582795D01*
X81001898Y-96504774D01*
X80801939Y-96465000D01*
X80598061Y-96465000D01*
X80398102Y-96504774D01*
X80209744Y-96582795D01*
X80040226Y-96696063D01*
X79896063Y-96840226D01*
X79782795Y-97009744D01*
X79704774Y-97198102D01*
X79665000Y-97398061D01*
X79665000Y-97601939D01*
X79704774Y-97801898D01*
X79782795Y-97990256D01*
X79896063Y-98159774D01*
X80040226Y-98303937D01*
X80209744Y-98417205D01*
X80398102Y-98495226D01*
X80598061Y-98535000D01*
X80660199Y-98535000D01*
X80700000Y-98574801D01*
X80699999Y-103959163D01*
X80653937Y-103890226D01*
X80509774Y-103746063D01*
X80340256Y-103632795D01*
X80151898Y-103554774D01*
X79951939Y-103515000D01*
X79889802Y-103515000D01*
X73643804Y-97269003D01*
X73620001Y-97239999D01*
X73504276Y-97145026D01*
X73372247Y-97074454D01*
X73228986Y-97030997D01*
X73117333Y-97020000D01*
X73117322Y-97020000D01*
X73080000Y-97016324D01*
X73042678Y-97020000D01*
X71483711Y-97020000D01*
X71439774Y-96976063D01*
X71270256Y-96862795D01*
X71081898Y-96784774D01*
X70881939Y-96745000D01*
X70678061Y-96745000D01*
X70478102Y-96784774D01*
X70289744Y-96862795D01*
X70120226Y-96976063D01*
X70011973Y-97084316D01*
X69940706Y-96950986D01*
X69755134Y-96724866D01*
X69529014Y-96539294D01*
X69474209Y-96510000D01*
X69529014Y-96480706D01*
X69755134Y-96295134D01*
X69940706Y-96069014D01*
X70078599Y-95811034D01*
X70163513Y-95531111D01*
X70192185Y-95240000D01*
X70163513Y-94948889D01*
X70140797Y-94874005D01*
X70189803Y-94824999D01*
X82514069Y-94824999D01*
X82476487Y-94948889D01*
X82447815Y-95240000D01*
X82476487Y-95531111D01*
X82561401Y-95811034D01*
X82699294Y-96069014D01*
X82884866Y-96295134D01*
X83110986Y-96480706D01*
X83165791Y-96510000D01*
X83110986Y-96539294D01*
X82884866Y-96724866D01*
X82699294Y-96950986D01*
X82561401Y-97208966D01*
X82476487Y-97488889D01*
X82447815Y-97780000D01*
X82476487Y-98071111D01*
X82561401Y-98351034D01*
X82699294Y-98609014D01*
X82884866Y-98835134D01*
X83110986Y-99020706D01*
X83368966Y-99158599D01*
X83648889Y-99243513D01*
X83867050Y-99265000D01*
X84012950Y-99265000D01*
X84231111Y-99243513D01*
X84305996Y-99220797D01*
X93936201Y-108851003D01*
X93959999Y-108880001D01*
X93965779Y-108884744D01*
X94065505Y-109071318D01*
X94229208Y-109270792D01*
X94428682Y-109434495D01*
X94656259Y-109556138D01*
X94903195Y-109631045D01*
X95095649Y-109650000D01*
X95224351Y-109650000D01*
X95416805Y-109631045D01*
X95663741Y-109556138D01*
X95891318Y-109434495D01*
X96090792Y-109270792D01*
X96254495Y-109071318D01*
X96376138Y-108843741D01*
X96451045Y-108596805D01*
X96476338Y-108340000D01*
X96451045Y-108083195D01*
X96376138Y-107836259D01*
X96254495Y-107608682D01*
X96090792Y-107409208D01*
X96006461Y-107340000D01*
X96090792Y-107270792D01*
X96254495Y-107071318D01*
X96376138Y-106843741D01*
X96451045Y-106596805D01*
X96476338Y-106340000D01*
X96451045Y-106083195D01*
X96376138Y-105836259D01*
X96254495Y-105608682D01*
X96090792Y-105409208D01*
X96006461Y-105340000D01*
X96090792Y-105270792D01*
X96254495Y-105071318D01*
X96376138Y-104843741D01*
X96451045Y-104596805D01*
X96476338Y-104340000D01*
X96451045Y-104083195D01*
X96376138Y-103836259D01*
X96254495Y-103608682D01*
X96090792Y-103409208D01*
X96006461Y-103340000D01*
X96090792Y-103270792D01*
X96254495Y-103071318D01*
X96376138Y-102843741D01*
X96451045Y-102596805D01*
X96476338Y-102340000D01*
X96451045Y-102083195D01*
X96376138Y-101836259D01*
X96254495Y-101608682D01*
X96090792Y-101409208D01*
X96006461Y-101340000D01*
X96090792Y-101270792D01*
X96254495Y-101071318D01*
X96376138Y-100843741D01*
X96451045Y-100596805D01*
X96476338Y-100340000D01*
X96451045Y-100083195D01*
X96376138Y-99836259D01*
X96254495Y-99608682D01*
X96197369Y-99539074D01*
X96286185Y-99466185D01*
X96365537Y-99369494D01*
X96424502Y-99259180D01*
X96460812Y-99139482D01*
X96473072Y-99015000D01*
X96473072Y-98803061D01*
X117160000Y-98803061D01*
X117160000Y-99006939D01*
X117199774Y-99206898D01*
X117277795Y-99395256D01*
X117391063Y-99564774D01*
X117535226Y-99708937D01*
X117704744Y-99822205D01*
X117893102Y-99900226D01*
X118093061Y-99940000D01*
X118296939Y-99940000D01*
X118496898Y-99900226D01*
X118685256Y-99822205D01*
X118778353Y-99760000D01*
X120799388Y-99760000D01*
X120745498Y-99860820D01*
X120709188Y-99980518D01*
X120696928Y-100105000D01*
X120696928Y-101455000D01*
X120709188Y-101579482D01*
X120745498Y-101699180D01*
X120804463Y-101809494D01*
X120883815Y-101906185D01*
X120980506Y-101985537D01*
X121090820Y-102044502D01*
X121210518Y-102080812D01*
X121335000Y-102093072D01*
X122685000Y-102093072D01*
X122809482Y-102080812D01*
X122929180Y-102044502D01*
X123039494Y-101985537D01*
X123136185Y-101906185D01*
X123215537Y-101809494D01*
X123274502Y-101699180D01*
X123310812Y-101579482D01*
X123314701Y-101540000D01*
X124455680Y-101540000D01*
X124493002Y-101543676D01*
X124530324Y-101540000D01*
X124530335Y-101540000D01*
X124641988Y-101529003D01*
X124785249Y-101485546D01*
X124917278Y-101414974D01*
X125033003Y-101320001D01*
X125056806Y-101290997D01*
X133081004Y-93266800D01*
X133110001Y-93243003D01*
X133136332Y-93210919D01*
X133204974Y-93127279D01*
X133275546Y-92995249D01*
X133276457Y-92992246D01*
X133319003Y-92851988D01*
X133330000Y-92740335D01*
X133330000Y-92740326D01*
X133333676Y-92703003D01*
X133330000Y-92665680D01*
X133330000Y-92094701D01*
X133369482Y-92090812D01*
X133489180Y-92054502D01*
X133599494Y-91995537D01*
X133696185Y-91916185D01*
X133775537Y-91819494D01*
X133834502Y-91709180D01*
X133870812Y-91589482D01*
X133883072Y-91465000D01*
X133883072Y-90115000D01*
X133870812Y-89990518D01*
X133834502Y-89870820D01*
X133775537Y-89760506D01*
X133696185Y-89663815D01*
X133599494Y-89584463D01*
X133489180Y-89525498D01*
X133369482Y-89489188D01*
X133245000Y-89476928D01*
X131895000Y-89476928D01*
X131770518Y-89489188D01*
X131650820Y-89525498D01*
X131540506Y-89584463D01*
X131443815Y-89663815D01*
X131364463Y-89760506D01*
X131305498Y-89870820D01*
X131269188Y-89990518D01*
X131256928Y-90115000D01*
X131256928Y-91465000D01*
X131269188Y-91589482D01*
X131305498Y-91709180D01*
X131364463Y-91819494D01*
X131443815Y-91916185D01*
X131540506Y-91995537D01*
X131650820Y-92054502D01*
X131770518Y-92090812D01*
X131810001Y-92094701D01*
X131810000Y-92388200D01*
X125930956Y-98267245D01*
X125859774Y-98196063D01*
X125690256Y-98082795D01*
X125501898Y-98004774D01*
X125301939Y-97965000D01*
X125098061Y-97965000D01*
X124898102Y-98004774D01*
X124709744Y-98082795D01*
X124540226Y-98196063D01*
X124496289Y-98240000D01*
X118993711Y-98240000D01*
X118854774Y-98101063D01*
X118685256Y-97987795D01*
X118496898Y-97909774D01*
X118296939Y-97870000D01*
X118093061Y-97870000D01*
X117893102Y-97909774D01*
X117704744Y-97987795D01*
X117535226Y-98101063D01*
X117391063Y-98245226D01*
X117277795Y-98414744D01*
X117199774Y-98603102D01*
X117160000Y-98803061D01*
X96473072Y-98803061D01*
X96473072Y-97665000D01*
X96460812Y-97540518D01*
X96458550Y-97533061D01*
X114400000Y-97533061D01*
X114400000Y-97736939D01*
X114439774Y-97936898D01*
X114517795Y-98125256D01*
X114631063Y-98294774D01*
X114775226Y-98438937D01*
X114944744Y-98552205D01*
X115133102Y-98630226D01*
X115333061Y-98670000D01*
X115536939Y-98670000D01*
X115736898Y-98630226D01*
X115925256Y-98552205D01*
X116094774Y-98438937D01*
X116238937Y-98294774D01*
X116352205Y-98125256D01*
X116430226Y-97936898D01*
X116470000Y-97736939D01*
X116470000Y-97533061D01*
X116430226Y-97333102D01*
X116352205Y-97144744D01*
X116238937Y-96975226D01*
X116094774Y-96831063D01*
X115925256Y-96717795D01*
X115736898Y-96639774D01*
X115536939Y-96600000D01*
X115333061Y-96600000D01*
X115133102Y-96639774D01*
X114944744Y-96717795D01*
X114775226Y-96831063D01*
X114631063Y-96975226D01*
X114517795Y-97144744D01*
X114439774Y-97333102D01*
X114400000Y-97533061D01*
X96458550Y-97533061D01*
X96424502Y-97420820D01*
X96365537Y-97310506D01*
X96286185Y-97213815D01*
X96189494Y-97134463D01*
X96079180Y-97075498D01*
X95959482Y-97039188D01*
X95835000Y-97026928D01*
X94485000Y-97026928D01*
X94360518Y-97039188D01*
X94240820Y-97075498D01*
X94130506Y-97134463D01*
X94116093Y-97146291D01*
X87983803Y-91014002D01*
X87960000Y-90984998D01*
X87844275Y-90890025D01*
X87712246Y-90819453D01*
X87568985Y-90775996D01*
X87457332Y-90764999D01*
X87457321Y-90764999D01*
X87419999Y-90761323D01*
X87382677Y-90764999D01*
X71012323Y-90764999D01*
X70975000Y-90761323D01*
X70937677Y-90764999D01*
X70937668Y-90764999D01*
X70826015Y-90775996D01*
X70682754Y-90819453D01*
X70550725Y-90890025D01*
X70435000Y-90984998D01*
X70411202Y-91013996D01*
X70012543Y-91412655D01*
X70001185Y-91398815D01*
X69904494Y-91319463D01*
X69794180Y-91260498D01*
X69674482Y-91224188D01*
X69550000Y-91211928D01*
X67850000Y-91211928D01*
X67725518Y-91224188D01*
X67605820Y-91260498D01*
X67495506Y-91319463D01*
X67398815Y-91398815D01*
X67319463Y-91495506D01*
X67260498Y-91605820D01*
X67224188Y-91725518D01*
X67211928Y-91850000D01*
X67211928Y-93550000D01*
X67224188Y-93674482D01*
X67260498Y-93794180D01*
X67319463Y-93904494D01*
X67398815Y-94001185D01*
X67495506Y-94080537D01*
X67605820Y-94139502D01*
X67674687Y-94160393D01*
X67644866Y-94184866D01*
X67459294Y-94410986D01*
X67321401Y-94668966D01*
X67236487Y-94948889D01*
X67207815Y-95240000D01*
X51460000Y-95240000D01*
X51460000Y-90145000D01*
X128066928Y-90145000D01*
X128066928Y-91495000D01*
X128079188Y-91619482D01*
X128115498Y-91739180D01*
X128174463Y-91849494D01*
X128253815Y-91946185D01*
X128350506Y-92025537D01*
X128460820Y-92084502D01*
X128580518Y-92120812D01*
X128705000Y-92133072D01*
X130055000Y-92133072D01*
X130179482Y-92120812D01*
X130299180Y-92084502D01*
X130409494Y-92025537D01*
X130506185Y-91946185D01*
X130585537Y-91849494D01*
X130644502Y-91739180D01*
X130680812Y-91619482D01*
X130693072Y-91495000D01*
X130693072Y-90145000D01*
X130680812Y-90020518D01*
X130644502Y-89900820D01*
X130585537Y-89790506D01*
X130506185Y-89693815D01*
X130409494Y-89614463D01*
X130299180Y-89555498D01*
X130179482Y-89519188D01*
X130055000Y-89506928D01*
X128705000Y-89506928D01*
X128580518Y-89519188D01*
X128460820Y-89555498D01*
X128350506Y-89614463D01*
X128253815Y-89693815D01*
X128174463Y-89790506D01*
X128115498Y-89900820D01*
X128079188Y-90020518D01*
X128066928Y-90145000D01*
X51460000Y-90145000D01*
X51460000Y-84667560D01*
X70340000Y-84667560D01*
X70340000Y-85132440D01*
X70430694Y-85588387D01*
X70608595Y-86017879D01*
X70866868Y-86404412D01*
X71195588Y-86733132D01*
X71582121Y-86991405D01*
X72011613Y-87169306D01*
X72467560Y-87260000D01*
X72932440Y-87260000D01*
X73388387Y-87169306D01*
X73817879Y-86991405D01*
X74204412Y-86733132D01*
X74533132Y-86404412D01*
X74791405Y-86017879D01*
X74969306Y-85588387D01*
X75060000Y-85132440D01*
X75060000Y-84667560D01*
X74969306Y-84211613D01*
X74791405Y-83782121D01*
X74533132Y-83395588D01*
X74204412Y-83066868D01*
X73817879Y-82808595D01*
X73388387Y-82630694D01*
X72932440Y-82540000D01*
X72467560Y-82540000D01*
X72011613Y-82630694D01*
X71582121Y-82808595D01*
X71195588Y-83066868D01*
X70866868Y-83395588D01*
X70608595Y-83782121D01*
X70430694Y-84211613D01*
X70340000Y-84667560D01*
X51460000Y-84667560D01*
X51460000Y-69325000D01*
X53586928Y-69325000D01*
X53586928Y-70675000D01*
X53599188Y-70799482D01*
X53635498Y-70919180D01*
X53694463Y-71029494D01*
X53773815Y-71126185D01*
X53870506Y-71205537D01*
X53980820Y-71264502D01*
X54100518Y-71300812D01*
X54225000Y-71313072D01*
X55575000Y-71313072D01*
X55699482Y-71300812D01*
X55819180Y-71264502D01*
X55929494Y-71205537D01*
X56026185Y-71126185D01*
X56105537Y-71029494D01*
X56164502Y-70919180D01*
X56200812Y-70799482D01*
X56213072Y-70675000D01*
X56213072Y-69325000D01*
X56200812Y-69200518D01*
X56164502Y-69080820D01*
X56105537Y-68970506D01*
X56026185Y-68873815D01*
X55929494Y-68794463D01*
X55819180Y-68735498D01*
X55767303Y-68719761D01*
X62540000Y-68719761D01*
X62540000Y-69080239D01*
X62610325Y-69433791D01*
X62748275Y-69766830D01*
X62948546Y-70066557D01*
X63203443Y-70321454D01*
X63503170Y-70521725D01*
X63836209Y-70659675D01*
X64189761Y-70730000D01*
X64550239Y-70730000D01*
X64903791Y-70659675D01*
X65236830Y-70521725D01*
X65536557Y-70321454D01*
X65791454Y-70066557D01*
X65991725Y-69766830D01*
X66129675Y-69433791D01*
X66200000Y-69080239D01*
X66200000Y-68719761D01*
X66189617Y-68667560D01*
X125540000Y-68667560D01*
X125540000Y-69132440D01*
X125630694Y-69588387D01*
X125808595Y-70017879D01*
X126066868Y-70404412D01*
X126395588Y-70733132D01*
X126782121Y-70991405D01*
X127211613Y-71169306D01*
X127667560Y-71260000D01*
X128132440Y-71260000D01*
X128588387Y-71169306D01*
X129017879Y-70991405D01*
X129404412Y-70733132D01*
X129733132Y-70404412D01*
X129991405Y-70017879D01*
X130169306Y-69588387D01*
X130241588Y-69225000D01*
X145286928Y-69225000D01*
X145286928Y-70575000D01*
X145299188Y-70699482D01*
X145335498Y-70819180D01*
X145394463Y-70929494D01*
X145473815Y-71026185D01*
X145570506Y-71105537D01*
X145680820Y-71164502D01*
X145800518Y-71200812D01*
X145925000Y-71213072D01*
X147275000Y-71213072D01*
X147399482Y-71200812D01*
X147519180Y-71164502D01*
X147629494Y-71105537D01*
X147726185Y-71026185D01*
X147805537Y-70929494D01*
X147864502Y-70819180D01*
X147900812Y-70699482D01*
X147913072Y-70575000D01*
X147913072Y-69225000D01*
X147900812Y-69100518D01*
X147864502Y-68980820D01*
X147805537Y-68870506D01*
X147726185Y-68773815D01*
X147629494Y-68694463D01*
X147519180Y-68635498D01*
X147399482Y-68599188D01*
X147275000Y-68586928D01*
X145925000Y-68586928D01*
X145800518Y-68599188D01*
X145680820Y-68635498D01*
X145570506Y-68694463D01*
X145473815Y-68773815D01*
X145394463Y-68870506D01*
X145335498Y-68980820D01*
X145299188Y-69100518D01*
X145286928Y-69225000D01*
X130241588Y-69225000D01*
X130260000Y-69132440D01*
X130260000Y-68667560D01*
X130169306Y-68211613D01*
X129991405Y-67782121D01*
X129733132Y-67395588D01*
X129404412Y-67066868D01*
X129017879Y-66808595D01*
X128588387Y-66630694D01*
X128132440Y-66540000D01*
X127667560Y-66540000D01*
X127211613Y-66630694D01*
X126782121Y-66808595D01*
X126395588Y-67066868D01*
X126066868Y-67395588D01*
X125808595Y-67782121D01*
X125630694Y-68211613D01*
X125540000Y-68667560D01*
X66189617Y-68667560D01*
X66129675Y-68366209D01*
X65991725Y-68033170D01*
X65791454Y-67733443D01*
X65536557Y-67478546D01*
X65236830Y-67278275D01*
X64903791Y-67140325D01*
X64550239Y-67070000D01*
X64189761Y-67070000D01*
X63836209Y-67140325D01*
X63503170Y-67278275D01*
X63203443Y-67478546D01*
X62948546Y-67733443D01*
X62748275Y-68033170D01*
X62610325Y-68366209D01*
X62540000Y-68719761D01*
X55767303Y-68719761D01*
X55699482Y-68699188D01*
X55575000Y-68686928D01*
X54225000Y-68686928D01*
X54100518Y-68699188D01*
X53980820Y-68735498D01*
X53870506Y-68794463D01*
X53773815Y-68873815D01*
X53694463Y-68970506D01*
X53635498Y-69080820D01*
X53599188Y-69200518D01*
X53586928Y-69325000D01*
X51460000Y-69325000D01*
X51460000Y-64160000D01*
X149200000Y-64160000D01*
X149200000Y-99747204D01*
X149200000Y-99747204D01*
G37*
X149200000Y-99747204D02*
X149156185Y-99693815D01*
X149059494Y-99614463D01*
X148949180Y-99555498D01*
X148829482Y-99519188D01*
X148705000Y-99506928D01*
X147355000Y-99506928D01*
X147230518Y-99519188D01*
X147110820Y-99555498D01*
X147000506Y-99614463D01*
X146903815Y-99693815D01*
X146824463Y-99790506D01*
X146765498Y-99900820D01*
X146729188Y-100020518D01*
X146716928Y-100145000D01*
X146716928Y-101495000D01*
X146729188Y-101619482D01*
X146765498Y-101739180D01*
X146824463Y-101849494D01*
X146903815Y-101946185D01*
X147000506Y-102025537D01*
X147110820Y-102084502D01*
X147230518Y-102120812D01*
X147355000Y-102133072D01*
X148705000Y-102133072D01*
X148829482Y-102120812D01*
X148949180Y-102084502D01*
X149059494Y-102025537D01*
X149156185Y-101946185D01*
X149200000Y-101892796D01*
X149200001Y-141580000D01*
X51460000Y-141580000D01*
X51460000Y-137725000D01*
X55286928Y-137725000D01*
X55290000Y-138114250D01*
X55448748Y-138272998D01*
X55290000Y-138272998D01*
X55290000Y-138527002D01*
X55448748Y-138527002D01*
X55290000Y-138685750D01*
X55286928Y-139075000D01*
X55299188Y-139199482D01*
X55335498Y-139319180D01*
X55394463Y-139429494D01*
X55473815Y-139526185D01*
X55570506Y-139605537D01*
X55680820Y-139664502D01*
X55800518Y-139700812D01*
X55925000Y-139713072D01*
X56314250Y-139710000D01*
X56473000Y-139551250D01*
X56473000Y-138527000D01*
X56453000Y-138527000D01*
X56453000Y-138273000D01*
X56473000Y-138273000D01*
X56473000Y-137248750D01*
X56727000Y-137248750D01*
X56727000Y-138273000D01*
X56747000Y-138273000D01*
X56747000Y-138527000D01*
X56727000Y-138527000D01*
X56727000Y-139551250D01*
X56885750Y-139710000D01*
X57275000Y-139713072D01*
X57399482Y-139700812D01*
X57519180Y-139664502D01*
X57629494Y-139605537D01*
X57726185Y-139526185D01*
X57805537Y-139429494D01*
X57864502Y-139319180D01*
X57900812Y-139199482D01*
X57913072Y-139075000D01*
X57910000Y-138685750D01*
X57751252Y-138527002D01*
X57910000Y-138527002D01*
X57910000Y-138400000D01*
X75283662Y-138400000D01*
X75308955Y-138656805D01*
X75383862Y-138903741D01*
X75505505Y-139131318D01*
X75669208Y-139330792D01*
X75868682Y-139494495D01*
X76096259Y-139616138D01*
X76343195Y-139691045D01*
X76535649Y-139710000D01*
X76664351Y-139710000D01*
X76856805Y-139691045D01*
X77103741Y-139616138D01*
X77331318Y-139494495D01*
X77530792Y-139330792D01*
X77694495Y-139131318D01*
X77816138Y-138903741D01*
X77891045Y-138656805D01*
X77916338Y-138400000D01*
X77891045Y-138143195D01*
X77816138Y-137896259D01*
X77694495Y-137668682D01*
X77642233Y-137605000D01*
X90286928Y-137605000D01*
X90299188Y-137729482D01*
X90335498Y-137849180D01*
X90394463Y-137959494D01*
X90473815Y-138056185D01*
X90570506Y-138135537D01*
X90680820Y-138194502D01*
X90800518Y-138230812D01*
X90925000Y-138243072D01*
X91314250Y-138240000D01*
X91473000Y-138081250D01*
X91473000Y-137057000D01*
X91727000Y-137057000D01*
X91727000Y-138081250D01*
X91885750Y-138240000D01*
X92275000Y-138243072D01*
X92399482Y-138230812D01*
X92519180Y-138194502D01*
X92629494Y-138135537D01*
X92726185Y-138056185D01*
X92805537Y-137959494D01*
X92864502Y-137849180D01*
X92900812Y-137729482D01*
X92913072Y-137605000D01*
X92910000Y-137215750D01*
X92751250Y-137057000D01*
X91727000Y-137057000D01*
X91473000Y-137057000D01*
X90448750Y-137057000D01*
X90290000Y-137215750D01*
X90286928Y-137605000D01*
X77642233Y-137605000D01*
X77637369Y-137599074D01*
X77726185Y-137526185D01*
X77805537Y-137429494D01*
X77864502Y-137319180D01*
X77900812Y-137199482D01*
X77913072Y-137075000D01*
X77913072Y-136255000D01*
X90286928Y-136255000D01*
X90290000Y-136644250D01*
X90448750Y-136803000D01*
X91473000Y-136803000D01*
X91473000Y-135778750D01*
X91727000Y-135778750D01*
X91727000Y-136803000D01*
X92751250Y-136803000D01*
X92910000Y-136644250D01*
X92913072Y-136255000D01*
X92900812Y-136130518D01*
X92864502Y-136010820D01*
X92805537Y-135900506D01*
X92726185Y-135803815D01*
X92629494Y-135724463D01*
X92519180Y-135665498D01*
X92399482Y-135629188D01*
X92275000Y-135616928D01*
X91885750Y-135620000D01*
X91727000Y-135778750D01*
X91473000Y-135778750D01*
X91314250Y-135620000D01*
X90925000Y-135616928D01*
X90800518Y-135629188D01*
X90680820Y-135665498D01*
X90570506Y-135724463D01*
X90473815Y-135803815D01*
X90394463Y-135900506D01*
X90335498Y-136010820D01*
X90299188Y-136130518D01*
X90286928Y-136255000D01*
X77913072Y-136255000D01*
X77913072Y-135725000D01*
X77900812Y-135600518D01*
X77864502Y-135480820D01*
X77805537Y-135370506D01*
X77726185Y-135273815D01*
X77629494Y-135194463D01*
X77519180Y-135135498D01*
X77399482Y-135099188D01*
X77275000Y-135086928D01*
X75925000Y-135086928D01*
X75800518Y-135099188D01*
X75680820Y-135135498D01*
X75570506Y-135194463D01*
X75473815Y-135273815D01*
X75394463Y-135370506D01*
X75335498Y-135480820D01*
X75299188Y-135600518D01*
X75286928Y-135725000D01*
X75286928Y-137075000D01*
X75299188Y-137199482D01*
X75335498Y-137319180D01*
X75394463Y-137429494D01*
X75473815Y-137526185D01*
X75562631Y-137599074D01*
X75505505Y-137668682D01*
X75383862Y-137896259D01*
X75308955Y-138143195D01*
X75283662Y-138400000D01*
X57910000Y-138400000D01*
X57910000Y-138272998D01*
X57751252Y-138272998D01*
X57910000Y-138114250D01*
X57913072Y-137725000D01*
X57900812Y-137600518D01*
X57864502Y-137480820D01*
X57805537Y-137370506D01*
X57726185Y-137273815D01*
X57629494Y-137194463D01*
X57519180Y-137135498D01*
X57399482Y-137099188D01*
X57275000Y-137086928D01*
X56885750Y-137090000D01*
X56727000Y-137248750D01*
X56473000Y-137248750D01*
X56314250Y-137090000D01*
X55925000Y-137086928D01*
X55800518Y-137099188D01*
X55680820Y-137135498D01*
X55570506Y-137194463D01*
X55473815Y-137273815D01*
X55394463Y-137370506D01*
X55335498Y-137480820D01*
X55299188Y-137600518D01*
X55286928Y-137725000D01*
X51460000Y-137725000D01*
X51460000Y-134585000D01*
X101436928Y-134585000D01*
X101449188Y-134709482D01*
X101485498Y-134829180D01*
X101544463Y-134939494D01*
X101623815Y-135036185D01*
X101720506Y-135115537D01*
X101830820Y-135174502D01*
X101950518Y-135210812D01*
X102075000Y-135223072D01*
X102464250Y-135220000D01*
X102623000Y-135061250D01*
X102623000Y-134037000D01*
X102877000Y-134037000D01*
X102877000Y-135061250D01*
X103035750Y-135220000D01*
X103425000Y-135223072D01*
X103549482Y-135210812D01*
X103669180Y-135174502D01*
X103779494Y-135115537D01*
X103876185Y-135036185D01*
X103955537Y-134939494D01*
X104014502Y-134829180D01*
X104050812Y-134709482D01*
X104063072Y-134585000D01*
X104060000Y-134195750D01*
X103901250Y-134037000D01*
X102877000Y-134037000D01*
X102623000Y-134037000D01*
X101598750Y-134037000D01*
X101440000Y-134195750D01*
X101436928Y-134585000D01*
X51460000Y-134585000D01*
X51460000Y-133235000D01*
X101436928Y-133235000D01*
X101440000Y-133624250D01*
X101598750Y-133783000D01*
X102623000Y-133783000D01*
X102623000Y-132758750D01*
X102877000Y-132758750D01*
X102877000Y-133783000D01*
X103901250Y-133783000D01*
X104060000Y-133624250D01*
X104063072Y-133235000D01*
X104050812Y-133110518D01*
X104014502Y-132990820D01*
X103955537Y-132880506D01*
X103876185Y-132783815D01*
X103779494Y-132704463D01*
X103669180Y-132645498D01*
X103549482Y-132609188D01*
X103425000Y-132596928D01*
X103035750Y-132600000D01*
X102877000Y-132758750D01*
X102623000Y-132758750D01*
X102464250Y-132600000D01*
X102075000Y-132596928D01*
X101950518Y-132609188D01*
X101830820Y-132645498D01*
X101720506Y-132704463D01*
X101623815Y-132783815D01*
X101544463Y-132880506D01*
X101485498Y-132990820D01*
X101449188Y-133110518D01*
X101436928Y-133235000D01*
X51460000Y-133235000D01*
X51460000Y-115725000D01*
X75286928Y-115725000D01*
X75286928Y-117075000D01*
X75299188Y-117199482D01*
X75335498Y-117319180D01*
X75394463Y-117429494D01*
X75473815Y-117526185D01*
X75570506Y-117605537D01*
X75680820Y-117664502D01*
X75800518Y-117700812D01*
X75925000Y-117713072D01*
X77275000Y-117713072D01*
X77399482Y-117700812D01*
X77519180Y-117664502D01*
X77629494Y-117605537D01*
X77726185Y-117526185D01*
X77805537Y-117429494D01*
X77864502Y-117319180D01*
X77900812Y-117199482D01*
X77913072Y-117075000D01*
X77913072Y-115725000D01*
X77900812Y-115600518D01*
X77864502Y-115480820D01*
X77805537Y-115370506D01*
X77726185Y-115273815D01*
X77629494Y-115194463D01*
X77519180Y-115135498D01*
X77399482Y-115099188D01*
X77275000Y-115086928D01*
X75925000Y-115086928D01*
X75800518Y-115099188D01*
X75680820Y-115135498D01*
X75570506Y-115194463D01*
X75473815Y-115273815D01*
X75394463Y-115370506D01*
X75335498Y-115480820D01*
X75299188Y-115600518D01*
X75286928Y-115725000D01*
X51460000Y-115725000D01*
X51460000Y-112725000D01*
X54286928Y-112725000D01*
X54286928Y-114075000D01*
X54299188Y-114199482D01*
X54335498Y-114319180D01*
X54394463Y-114429494D01*
X54473815Y-114526185D01*
X54570506Y-114605537D01*
X54680820Y-114664502D01*
X54800518Y-114700812D01*
X54925000Y-114713072D01*
X56275000Y-114713072D01*
X56399482Y-114700812D01*
X56519180Y-114664502D01*
X56629494Y-114605537D01*
X56726185Y-114526185D01*
X56805537Y-114429494D01*
X56864502Y-114319180D01*
X56900812Y-114199482D01*
X56913072Y-114075000D01*
X56913072Y-112725000D01*
X74286928Y-112725000D01*
X74286928Y-114075000D01*
X74299188Y-114199482D01*
X74335498Y-114319180D01*
X74394463Y-114429494D01*
X74473815Y-114526185D01*
X74570506Y-114605537D01*
X74680820Y-114664502D01*
X74800518Y-114700812D01*
X74925000Y-114713072D01*
X76275000Y-114713072D01*
X76399482Y-114700812D01*
X76519180Y-114664502D01*
X76629494Y-114605537D01*
X76726185Y-114526185D01*
X76805537Y-114429494D01*
X76864502Y-114319180D01*
X76872625Y-114292403D01*
X76909744Y-114317205D01*
X77098102Y-114395226D01*
X77298061Y-114435000D01*
X77501939Y-114435000D01*
X77701898Y-114395226D01*
X77890256Y-114317205D01*
X78059774Y-114203937D01*
X78103711Y-114160000D01*
X83040000Y-114160000D01*
X83040001Y-118812668D01*
X83036324Y-118850000D01*
X83050998Y-118998985D01*
X83094454Y-119142246D01*
X83165026Y-119274276D01*
X83236201Y-119361002D01*
X83260000Y-119390001D01*
X83288998Y-119413799D01*
X92915000Y-129039802D01*
X92915000Y-129101939D01*
X92954774Y-129301898D01*
X93032795Y-129490256D01*
X93146063Y-129659774D01*
X93290226Y-129803937D01*
X93459744Y-129917205D01*
X93648102Y-129995226D01*
X93848061Y-130035000D01*
X94051939Y-130035000D01*
X94251898Y-129995226D01*
X94440256Y-129917205D01*
X94609774Y-129803937D01*
X94753937Y-129659774D01*
X94867205Y-129490256D01*
X94934388Y-129328061D01*
X96715000Y-129328061D01*
X96715000Y-129531939D01*
X96754774Y-129731898D01*
X96832795Y-129920256D01*
X96946063Y-130089774D01*
X97090226Y-130233937D01*
X97259744Y-130347205D01*
X97448102Y-130425226D01*
X97648061Y-130465000D01*
X97851939Y-130465000D01*
X98051898Y-130425226D01*
X98240256Y-130347205D01*
X98409774Y-130233937D01*
X98553937Y-130089774D01*
X98667205Y-129920256D01*
X98745226Y-129731898D01*
X98785000Y-129531939D01*
X98785000Y-129469801D01*
X102729801Y-125525000D01*
X112236928Y-125525000D01*
X112236928Y-126875000D01*
X112249188Y-126999482D01*
X112285498Y-127119180D01*
X112344463Y-127229494D01*
X112423815Y-127326185D01*
X112520506Y-127405537D01*
X112630820Y-127464502D01*
X112750518Y-127500812D01*
X112875000Y-127513072D01*
X114225000Y-127513072D01*
X114349482Y-127500812D01*
X114469180Y-127464502D01*
X114579494Y-127405537D01*
X114676185Y-127326185D01*
X114755537Y-127229494D01*
X114814502Y-127119180D01*
X114850812Y-126999482D01*
X114863072Y-126875000D01*
X114863072Y-125525000D01*
X114850812Y-125400518D01*
X114814502Y-125280820D01*
X114755537Y-125170506D01*
X114676185Y-125073815D01*
X114579494Y-124994463D01*
X114469180Y-124935498D01*
X114349482Y-124899188D01*
X114225000Y-124886928D01*
X112875000Y-124886928D01*
X112750518Y-124899188D01*
X112630820Y-124935498D01*
X112520506Y-124994463D01*
X112423815Y-125073815D01*
X112344463Y-125170506D01*
X112285498Y-125280820D01*
X112249188Y-125400518D01*
X112236928Y-125525000D01*
X102729801Y-125525000D01*
X103261004Y-124993798D01*
X103290001Y-124970001D01*
X103384974Y-124854276D01*
X103455546Y-124722247D01*
X103499003Y-124578986D01*
X103510000Y-124467333D01*
X103510000Y-124467323D01*
X103513676Y-124430000D01*
X103510000Y-124392677D01*
X103510000Y-114504701D01*
X103549482Y-114500812D01*
X103669180Y-114464502D01*
X103779494Y-114405537D01*
X103876185Y-114326185D01*
X103955537Y-114229494D01*
X104014502Y-114119180D01*
X104050812Y-113999482D01*
X104063072Y-113875000D01*
X104063072Y-112525000D01*
X104050812Y-112400518D01*
X104014502Y-112280820D01*
X103955537Y-112170506D01*
X103876185Y-112073815D01*
X103779494Y-111994463D01*
X103669180Y-111935498D01*
X103549482Y-111899188D01*
X103425000Y-111886928D01*
X102075000Y-111886928D01*
X101950518Y-111899188D01*
X101830820Y-111935498D01*
X101720506Y-111994463D01*
X101623815Y-112073815D01*
X101544463Y-112170506D01*
X101485498Y-112280820D01*
X101449188Y-112400518D01*
X101436928Y-112525000D01*
X101436928Y-113875000D01*
X101449188Y-113999482D01*
X101485498Y-114119180D01*
X101544463Y-114229494D01*
X101623815Y-114326185D01*
X101720506Y-114405537D01*
X101830820Y-114464502D01*
X101950518Y-114500812D01*
X101990001Y-114504701D01*
X101990000Y-124115198D01*
X97710199Y-128395000D01*
X97648061Y-128395000D01*
X97448102Y-128434774D01*
X97259744Y-128512795D01*
X97090226Y-128626063D01*
X96946063Y-128770226D01*
X96832795Y-128939744D01*
X96754774Y-129128102D01*
X96715000Y-129328061D01*
X94934388Y-129328061D01*
X94945226Y-129301898D01*
X94985000Y-129101939D01*
X94985000Y-128898061D01*
X94945226Y-128698102D01*
X94867205Y-128509744D01*
X94753937Y-128340226D01*
X94609774Y-128196063D01*
X94440256Y-128082795D01*
X94251898Y-128004774D01*
X94051939Y-127965000D01*
X93989802Y-127965000D01*
X84560000Y-118535199D01*
X84560000Y-113437333D01*
X84563677Y-113400000D01*
X84549003Y-113251014D01*
X84505546Y-113107753D01*
X84434974Y-112975724D01*
X84340001Y-112859999D01*
X84224276Y-112765026D01*
X84092247Y-112694454D01*
X83948986Y-112650997D01*
X83837333Y-112640000D01*
X83800000Y-112636323D01*
X83762667Y-112640000D01*
X78103711Y-112640000D01*
X78059774Y-112596063D01*
X77890256Y-112482795D01*
X77701898Y-112404774D01*
X77501939Y-112365000D01*
X77298061Y-112365000D01*
X77098102Y-112404774D01*
X76909744Y-112482795D01*
X76872625Y-112507597D01*
X76864502Y-112480820D01*
X76805537Y-112370506D01*
X76726185Y-112273815D01*
X76629494Y-112194463D01*
X76519180Y-112135498D01*
X76399482Y-112099188D01*
X76275000Y-112086928D01*
X74925000Y-112086928D01*
X74800518Y-112099188D01*
X74680820Y-112135498D01*
X74570506Y-112194463D01*
X74473815Y-112273815D01*
X74394463Y-112370506D01*
X74335498Y-112480820D01*
X74299188Y-112600518D01*
X74286928Y-112725000D01*
X56913072Y-112725000D01*
X56900812Y-112600518D01*
X56864502Y-112480820D01*
X56805537Y-112370506D01*
X56726185Y-112273815D01*
X56629494Y-112194463D01*
X56519180Y-112135498D01*
X56399482Y-112099188D01*
X56275000Y-112086928D01*
X54925000Y-112086928D01*
X54800518Y-112099188D01*
X54680820Y-112135498D01*
X54570506Y-112194463D01*
X54473815Y-112273815D01*
X54394463Y-112370506D01*
X54335498Y-112480820D01*
X54299188Y-112600518D01*
X54286928Y-112725000D01*
X51460000Y-112725000D01*
X51460000Y-95240000D01*
X67207815Y-95240000D01*
X67236487Y-95531111D01*
X67321401Y-95811034D01*
X67459294Y-96069014D01*
X67644866Y-96295134D01*
X67870986Y-96480706D01*
X67925791Y-96510000D01*
X67870986Y-96539294D01*
X67644866Y-96724866D01*
X67459294Y-96950986D01*
X67321401Y-97208966D01*
X67236487Y-97488889D01*
X67207815Y-97780000D01*
X67236487Y-98071111D01*
X67321401Y-98351034D01*
X67459294Y-98609014D01*
X67644866Y-98835134D01*
X67870986Y-99020706D01*
X68128966Y-99158599D01*
X68408889Y-99243513D01*
X68627050Y-99265000D01*
X68772950Y-99265000D01*
X68991111Y-99243513D01*
X69271034Y-99158599D01*
X69529014Y-99020706D01*
X69755134Y-98835134D01*
X69940706Y-98609014D01*
X70011973Y-98475684D01*
X70120226Y-98583937D01*
X70289744Y-98697205D01*
X70478102Y-98775226D01*
X70678061Y-98815000D01*
X70881939Y-98815000D01*
X71081898Y-98775226D01*
X71270256Y-98697205D01*
X71439774Y-98583937D01*
X71483711Y-98540000D01*
X72765199Y-98540000D01*
X78815000Y-104589802D01*
X78815000Y-104651939D01*
X78854774Y-104851898D01*
X78932795Y-105040256D01*
X79046063Y-105209774D01*
X79190226Y-105353937D01*
X79359744Y-105467205D01*
X79548102Y-105545226D01*
X79748061Y-105585000D01*
X79951939Y-105585000D01*
X80151898Y-105545226D01*
X80340256Y-105467205D01*
X80509774Y-105353937D01*
X80653937Y-105209774D01*
X80699999Y-105140837D01*
X80699999Y-105988841D01*
X80569744Y-106042795D01*
X80400226Y-106156063D01*
X80256063Y-106300226D01*
X80142795Y-106469744D01*
X80064774Y-106658102D01*
X80025000Y-106858061D01*
X80025000Y-107061939D01*
X80064774Y-107261898D01*
X80142795Y-107450256D01*
X80256063Y-107619774D01*
X80400226Y-107763937D01*
X80569744Y-107877205D01*
X80758102Y-107955226D01*
X80958061Y-107995000D01*
X81161939Y-107995000D01*
X81361898Y-107955226D01*
X81550256Y-107877205D01*
X81719774Y-107763937D01*
X81863937Y-107619774D01*
X81977205Y-107450256D01*
X82055226Y-107261898D01*
X82095000Y-107061939D01*
X82095000Y-106984226D01*
X82165545Y-106852248D01*
X82209002Y-106708987D01*
X82219999Y-106597334D01*
X82219999Y-106597324D01*
X82223675Y-106560002D01*
X82219999Y-106522679D01*
X82219999Y-98297322D01*
X82223675Y-98259999D01*
X82219999Y-98222676D01*
X82219999Y-98222666D01*
X82209002Y-98111013D01*
X82165545Y-97967752D01*
X82094973Y-97835723D01*
X82000000Y-97719998D01*
X81970996Y-97696195D01*
X81735000Y-97460199D01*
X81735000Y-97398061D01*
X81695226Y-97198102D01*
X81617205Y-97009744D01*
X81503937Y-96840226D01*
X81359774Y-96696063D01*
X81190256Y-96582795D01*
X81001898Y-96504774D01*
X80801939Y-96465000D01*
X80598061Y-96465000D01*
X80398102Y-96504774D01*
X80209744Y-96582795D01*
X80040226Y-96696063D01*
X79896063Y-96840226D01*
X79782795Y-97009744D01*
X79704774Y-97198102D01*
X79665000Y-97398061D01*
X79665000Y-97601939D01*
X79704774Y-97801898D01*
X79782795Y-97990256D01*
X79896063Y-98159774D01*
X80040226Y-98303937D01*
X80209744Y-98417205D01*
X80398102Y-98495226D01*
X80598061Y-98535000D01*
X80660199Y-98535000D01*
X80700000Y-98574801D01*
X80699999Y-103959163D01*
X80653937Y-103890226D01*
X80509774Y-103746063D01*
X80340256Y-103632795D01*
X80151898Y-103554774D01*
X79951939Y-103515000D01*
X79889802Y-103515000D01*
X73643804Y-97269003D01*
X73620001Y-97239999D01*
X73504276Y-97145026D01*
X73372247Y-97074454D01*
X73228986Y-97030997D01*
X73117333Y-97020000D01*
X73117322Y-97020000D01*
X73080000Y-97016324D01*
X73042678Y-97020000D01*
X71483711Y-97020000D01*
X71439774Y-96976063D01*
X71270256Y-96862795D01*
X71081898Y-96784774D01*
X70881939Y-96745000D01*
X70678061Y-96745000D01*
X70478102Y-96784774D01*
X70289744Y-96862795D01*
X70120226Y-96976063D01*
X70011973Y-97084316D01*
X69940706Y-96950986D01*
X69755134Y-96724866D01*
X69529014Y-96539294D01*
X69474209Y-96510000D01*
X69529014Y-96480706D01*
X69755134Y-96295134D01*
X69940706Y-96069014D01*
X70078599Y-95811034D01*
X70163513Y-95531111D01*
X70192185Y-95240000D01*
X70163513Y-94948889D01*
X70140797Y-94874005D01*
X70189803Y-94824999D01*
X82514069Y-94824999D01*
X82476487Y-94948889D01*
X82447815Y-95240000D01*
X82476487Y-95531111D01*
X82561401Y-95811034D01*
X82699294Y-96069014D01*
X82884866Y-96295134D01*
X83110986Y-96480706D01*
X83165791Y-96510000D01*
X83110986Y-96539294D01*
X82884866Y-96724866D01*
X82699294Y-96950986D01*
X82561401Y-97208966D01*
X82476487Y-97488889D01*
X82447815Y-97780000D01*
X82476487Y-98071111D01*
X82561401Y-98351034D01*
X82699294Y-98609014D01*
X82884866Y-98835134D01*
X83110986Y-99020706D01*
X83368966Y-99158599D01*
X83648889Y-99243513D01*
X83867050Y-99265000D01*
X84012950Y-99265000D01*
X84231111Y-99243513D01*
X84305996Y-99220797D01*
X93936201Y-108851003D01*
X93959999Y-108880001D01*
X93965779Y-108884744D01*
X94065505Y-109071318D01*
X94229208Y-109270792D01*
X94428682Y-109434495D01*
X94656259Y-109556138D01*
X94903195Y-109631045D01*
X95095649Y-109650000D01*
X95224351Y-109650000D01*
X95416805Y-109631045D01*
X95663741Y-109556138D01*
X95891318Y-109434495D01*
X96090792Y-109270792D01*
X96254495Y-109071318D01*
X96376138Y-108843741D01*
X96451045Y-108596805D01*
X96476338Y-108340000D01*
X96451045Y-108083195D01*
X96376138Y-107836259D01*
X96254495Y-107608682D01*
X96090792Y-107409208D01*
X96006461Y-107340000D01*
X96090792Y-107270792D01*
X96254495Y-107071318D01*
X96376138Y-106843741D01*
X96451045Y-106596805D01*
X96476338Y-106340000D01*
X96451045Y-106083195D01*
X96376138Y-105836259D01*
X96254495Y-105608682D01*
X96090792Y-105409208D01*
X96006461Y-105340000D01*
X96090792Y-105270792D01*
X96254495Y-105071318D01*
X96376138Y-104843741D01*
X96451045Y-104596805D01*
X96476338Y-104340000D01*
X96451045Y-104083195D01*
X96376138Y-103836259D01*
X96254495Y-103608682D01*
X96090792Y-103409208D01*
X96006461Y-103340000D01*
X96090792Y-103270792D01*
X96254495Y-103071318D01*
X96376138Y-102843741D01*
X96451045Y-102596805D01*
X96476338Y-102340000D01*
X96451045Y-102083195D01*
X96376138Y-101836259D01*
X96254495Y-101608682D01*
X96090792Y-101409208D01*
X96006461Y-101340000D01*
X96090792Y-101270792D01*
X96254495Y-101071318D01*
X96376138Y-100843741D01*
X96451045Y-100596805D01*
X96476338Y-100340000D01*
X96451045Y-100083195D01*
X96376138Y-99836259D01*
X96254495Y-99608682D01*
X96197369Y-99539074D01*
X96286185Y-99466185D01*
X96365537Y-99369494D01*
X96424502Y-99259180D01*
X96460812Y-99139482D01*
X96473072Y-99015000D01*
X96473072Y-98803061D01*
X117160000Y-98803061D01*
X117160000Y-99006939D01*
X117199774Y-99206898D01*
X117277795Y-99395256D01*
X117391063Y-99564774D01*
X117535226Y-99708937D01*
X117704744Y-99822205D01*
X117893102Y-99900226D01*
X118093061Y-99940000D01*
X118296939Y-99940000D01*
X118496898Y-99900226D01*
X118685256Y-99822205D01*
X118778353Y-99760000D01*
X120799388Y-99760000D01*
X120745498Y-99860820D01*
X120709188Y-99980518D01*
X120696928Y-100105000D01*
X120696928Y-101455000D01*
X120709188Y-101579482D01*
X120745498Y-101699180D01*
X120804463Y-101809494D01*
X120883815Y-101906185D01*
X120980506Y-101985537D01*
X121090820Y-102044502D01*
X121210518Y-102080812D01*
X121335000Y-102093072D01*
X122685000Y-102093072D01*
X122809482Y-102080812D01*
X122929180Y-102044502D01*
X123039494Y-101985537D01*
X123136185Y-101906185D01*
X123215537Y-101809494D01*
X123274502Y-101699180D01*
X123310812Y-101579482D01*
X123314701Y-101540000D01*
X124455680Y-101540000D01*
X124493002Y-101543676D01*
X124530324Y-101540000D01*
X124530335Y-101540000D01*
X124641988Y-101529003D01*
X124785249Y-101485546D01*
X124917278Y-101414974D01*
X125033003Y-101320001D01*
X125056806Y-101290997D01*
X133081004Y-93266800D01*
X133110001Y-93243003D01*
X133136332Y-93210919D01*
X133204974Y-93127279D01*
X133275546Y-92995249D01*
X133276457Y-92992246D01*
X133319003Y-92851988D01*
X133330000Y-92740335D01*
X133330000Y-92740326D01*
X133333676Y-92703003D01*
X133330000Y-92665680D01*
X133330000Y-92094701D01*
X133369482Y-92090812D01*
X133489180Y-92054502D01*
X133599494Y-91995537D01*
X133696185Y-91916185D01*
X133775537Y-91819494D01*
X133834502Y-91709180D01*
X133870812Y-91589482D01*
X133883072Y-91465000D01*
X133883072Y-90115000D01*
X133870812Y-89990518D01*
X133834502Y-89870820D01*
X133775537Y-89760506D01*
X133696185Y-89663815D01*
X133599494Y-89584463D01*
X133489180Y-89525498D01*
X133369482Y-89489188D01*
X133245000Y-89476928D01*
X131895000Y-89476928D01*
X131770518Y-89489188D01*
X131650820Y-89525498D01*
X131540506Y-89584463D01*
X131443815Y-89663815D01*
X131364463Y-89760506D01*
X131305498Y-89870820D01*
X131269188Y-89990518D01*
X131256928Y-90115000D01*
X131256928Y-91465000D01*
X131269188Y-91589482D01*
X131305498Y-91709180D01*
X131364463Y-91819494D01*
X131443815Y-91916185D01*
X131540506Y-91995537D01*
X131650820Y-92054502D01*
X131770518Y-92090812D01*
X131810001Y-92094701D01*
X131810000Y-92388200D01*
X125930956Y-98267245D01*
X125859774Y-98196063D01*
X125690256Y-98082795D01*
X125501898Y-98004774D01*
X125301939Y-97965000D01*
X125098061Y-97965000D01*
X124898102Y-98004774D01*
X124709744Y-98082795D01*
X124540226Y-98196063D01*
X124496289Y-98240000D01*
X118993711Y-98240000D01*
X118854774Y-98101063D01*
X118685256Y-97987795D01*
X118496898Y-97909774D01*
X118296939Y-97870000D01*
X118093061Y-97870000D01*
X117893102Y-97909774D01*
X117704744Y-97987795D01*
X117535226Y-98101063D01*
X117391063Y-98245226D01*
X117277795Y-98414744D01*
X117199774Y-98603102D01*
X117160000Y-98803061D01*
X96473072Y-98803061D01*
X96473072Y-97665000D01*
X96460812Y-97540518D01*
X96458550Y-97533061D01*
X114400000Y-97533061D01*
X114400000Y-97736939D01*
X114439774Y-97936898D01*
X114517795Y-98125256D01*
X114631063Y-98294774D01*
X114775226Y-98438937D01*
X114944744Y-98552205D01*
X115133102Y-98630226D01*
X115333061Y-98670000D01*
X115536939Y-98670000D01*
X115736898Y-98630226D01*
X115925256Y-98552205D01*
X116094774Y-98438937D01*
X116238937Y-98294774D01*
X116352205Y-98125256D01*
X116430226Y-97936898D01*
X116470000Y-97736939D01*
X116470000Y-97533061D01*
X116430226Y-97333102D01*
X116352205Y-97144744D01*
X116238937Y-96975226D01*
X116094774Y-96831063D01*
X115925256Y-96717795D01*
X115736898Y-96639774D01*
X115536939Y-96600000D01*
X115333061Y-96600000D01*
X115133102Y-96639774D01*
X114944744Y-96717795D01*
X114775226Y-96831063D01*
X114631063Y-96975226D01*
X114517795Y-97144744D01*
X114439774Y-97333102D01*
X114400000Y-97533061D01*
X96458550Y-97533061D01*
X96424502Y-97420820D01*
X96365537Y-97310506D01*
X96286185Y-97213815D01*
X96189494Y-97134463D01*
X96079180Y-97075498D01*
X95959482Y-97039188D01*
X95835000Y-97026928D01*
X94485000Y-97026928D01*
X94360518Y-97039188D01*
X94240820Y-97075498D01*
X94130506Y-97134463D01*
X94116093Y-97146291D01*
X87983803Y-91014002D01*
X87960000Y-90984998D01*
X87844275Y-90890025D01*
X87712246Y-90819453D01*
X87568985Y-90775996D01*
X87457332Y-90764999D01*
X87457321Y-90764999D01*
X87419999Y-90761323D01*
X87382677Y-90764999D01*
X71012323Y-90764999D01*
X70975000Y-90761323D01*
X70937677Y-90764999D01*
X70937668Y-90764999D01*
X70826015Y-90775996D01*
X70682754Y-90819453D01*
X70550725Y-90890025D01*
X70435000Y-90984998D01*
X70411202Y-91013996D01*
X70012543Y-91412655D01*
X70001185Y-91398815D01*
X69904494Y-91319463D01*
X69794180Y-91260498D01*
X69674482Y-91224188D01*
X69550000Y-91211928D01*
X67850000Y-91211928D01*
X67725518Y-91224188D01*
X67605820Y-91260498D01*
X67495506Y-91319463D01*
X67398815Y-91398815D01*
X67319463Y-91495506D01*
X67260498Y-91605820D01*
X67224188Y-91725518D01*
X67211928Y-91850000D01*
X67211928Y-93550000D01*
X67224188Y-93674482D01*
X67260498Y-93794180D01*
X67319463Y-93904494D01*
X67398815Y-94001185D01*
X67495506Y-94080537D01*
X67605820Y-94139502D01*
X67674687Y-94160393D01*
X67644866Y-94184866D01*
X67459294Y-94410986D01*
X67321401Y-94668966D01*
X67236487Y-94948889D01*
X67207815Y-95240000D01*
X51460000Y-95240000D01*
X51460000Y-90145000D01*
X128066928Y-90145000D01*
X128066928Y-91495000D01*
X128079188Y-91619482D01*
X128115498Y-91739180D01*
X128174463Y-91849494D01*
X128253815Y-91946185D01*
X128350506Y-92025537D01*
X128460820Y-92084502D01*
X128580518Y-92120812D01*
X128705000Y-92133072D01*
X130055000Y-92133072D01*
X130179482Y-92120812D01*
X130299180Y-92084502D01*
X130409494Y-92025537D01*
X130506185Y-91946185D01*
X130585537Y-91849494D01*
X130644502Y-91739180D01*
X130680812Y-91619482D01*
X130693072Y-91495000D01*
X130693072Y-90145000D01*
X130680812Y-90020518D01*
X130644502Y-89900820D01*
X130585537Y-89790506D01*
X130506185Y-89693815D01*
X130409494Y-89614463D01*
X130299180Y-89555498D01*
X130179482Y-89519188D01*
X130055000Y-89506928D01*
X128705000Y-89506928D01*
X128580518Y-89519188D01*
X128460820Y-89555498D01*
X128350506Y-89614463D01*
X128253815Y-89693815D01*
X128174463Y-89790506D01*
X128115498Y-89900820D01*
X128079188Y-90020518D01*
X128066928Y-90145000D01*
X51460000Y-90145000D01*
X51460000Y-84667560D01*
X70340000Y-84667560D01*
X70340000Y-85132440D01*
X70430694Y-85588387D01*
X70608595Y-86017879D01*
X70866868Y-86404412D01*
X71195588Y-86733132D01*
X71582121Y-86991405D01*
X72011613Y-87169306D01*
X72467560Y-87260000D01*
X72932440Y-87260000D01*
X73388387Y-87169306D01*
X73817879Y-86991405D01*
X74204412Y-86733132D01*
X74533132Y-86404412D01*
X74791405Y-86017879D01*
X74969306Y-85588387D01*
X75060000Y-85132440D01*
X75060000Y-84667560D01*
X74969306Y-84211613D01*
X74791405Y-83782121D01*
X74533132Y-83395588D01*
X74204412Y-83066868D01*
X73817879Y-82808595D01*
X73388387Y-82630694D01*
X72932440Y-82540000D01*
X72467560Y-82540000D01*
X72011613Y-82630694D01*
X71582121Y-82808595D01*
X71195588Y-83066868D01*
X70866868Y-83395588D01*
X70608595Y-83782121D01*
X70430694Y-84211613D01*
X70340000Y-84667560D01*
X51460000Y-84667560D01*
X51460000Y-69325000D01*
X53586928Y-69325000D01*
X53586928Y-70675000D01*
X53599188Y-70799482D01*
X53635498Y-70919180D01*
X53694463Y-71029494D01*
X53773815Y-71126185D01*
X53870506Y-71205537D01*
X53980820Y-71264502D01*
X54100518Y-71300812D01*
X54225000Y-71313072D01*
X55575000Y-71313072D01*
X55699482Y-71300812D01*
X55819180Y-71264502D01*
X55929494Y-71205537D01*
X56026185Y-71126185D01*
X56105537Y-71029494D01*
X56164502Y-70919180D01*
X56200812Y-70799482D01*
X56213072Y-70675000D01*
X56213072Y-69325000D01*
X56200812Y-69200518D01*
X56164502Y-69080820D01*
X56105537Y-68970506D01*
X56026185Y-68873815D01*
X55929494Y-68794463D01*
X55819180Y-68735498D01*
X55767303Y-68719761D01*
X62540000Y-68719761D01*
X62540000Y-69080239D01*
X62610325Y-69433791D01*
X62748275Y-69766830D01*
X62948546Y-70066557D01*
X63203443Y-70321454D01*
X63503170Y-70521725D01*
X63836209Y-70659675D01*
X64189761Y-70730000D01*
X64550239Y-70730000D01*
X64903791Y-70659675D01*
X65236830Y-70521725D01*
X65536557Y-70321454D01*
X65791454Y-70066557D01*
X65991725Y-69766830D01*
X66129675Y-69433791D01*
X66200000Y-69080239D01*
X66200000Y-68719761D01*
X66189617Y-68667560D01*
X125540000Y-68667560D01*
X125540000Y-69132440D01*
X125630694Y-69588387D01*
X125808595Y-70017879D01*
X126066868Y-70404412D01*
X126395588Y-70733132D01*
X126782121Y-70991405D01*
X127211613Y-71169306D01*
X127667560Y-71260000D01*
X128132440Y-71260000D01*
X128588387Y-71169306D01*
X129017879Y-70991405D01*
X129404412Y-70733132D01*
X129733132Y-70404412D01*
X129991405Y-70017879D01*
X130169306Y-69588387D01*
X130241588Y-69225000D01*
X145286928Y-69225000D01*
X145286928Y-70575000D01*
X145299188Y-70699482D01*
X145335498Y-70819180D01*
X145394463Y-70929494D01*
X145473815Y-71026185D01*
X145570506Y-71105537D01*
X145680820Y-71164502D01*
X145800518Y-71200812D01*
X145925000Y-71213072D01*
X147275000Y-71213072D01*
X147399482Y-71200812D01*
X147519180Y-71164502D01*
X147629494Y-71105537D01*
X147726185Y-71026185D01*
X147805537Y-70929494D01*
X147864502Y-70819180D01*
X147900812Y-70699482D01*
X147913072Y-70575000D01*
X147913072Y-69225000D01*
X147900812Y-69100518D01*
X147864502Y-68980820D01*
X147805537Y-68870506D01*
X147726185Y-68773815D01*
X147629494Y-68694463D01*
X147519180Y-68635498D01*
X147399482Y-68599188D01*
X147275000Y-68586928D01*
X145925000Y-68586928D01*
X145800518Y-68599188D01*
X145680820Y-68635498D01*
X145570506Y-68694463D01*
X145473815Y-68773815D01*
X145394463Y-68870506D01*
X145335498Y-68980820D01*
X145299188Y-69100518D01*
X145286928Y-69225000D01*
X130241588Y-69225000D01*
X130260000Y-69132440D01*
X130260000Y-68667560D01*
X130169306Y-68211613D01*
X129991405Y-67782121D01*
X129733132Y-67395588D01*
X129404412Y-67066868D01*
X129017879Y-66808595D01*
X128588387Y-66630694D01*
X128132440Y-66540000D01*
X127667560Y-66540000D01*
X127211613Y-66630694D01*
X126782121Y-66808595D01*
X126395588Y-67066868D01*
X126066868Y-67395588D01*
X125808595Y-67782121D01*
X125630694Y-68211613D01*
X125540000Y-68667560D01*
X66189617Y-68667560D01*
X66129675Y-68366209D01*
X65991725Y-68033170D01*
X65791454Y-67733443D01*
X65536557Y-67478546D01*
X65236830Y-67278275D01*
X64903791Y-67140325D01*
X64550239Y-67070000D01*
X64189761Y-67070000D01*
X63836209Y-67140325D01*
X63503170Y-67278275D01*
X63203443Y-67478546D01*
X62948546Y-67733443D01*
X62748275Y-68033170D01*
X62610325Y-68366209D01*
X62540000Y-68719761D01*
X55767303Y-68719761D01*
X55699482Y-68699188D01*
X55575000Y-68686928D01*
X54225000Y-68686928D01*
X54100518Y-68699188D01*
X53980820Y-68735498D01*
X53870506Y-68794463D01*
X53773815Y-68873815D01*
X53694463Y-68970506D01*
X53635498Y-69080820D01*
X53599188Y-69200518D01*
X53586928Y-69325000D01*
X51460000Y-69325000D01*
X51460000Y-64160000D01*
X149200000Y-64160000D01*
X149200000Y-99747204D01*
M02*
