M48
; DRILL file {KiCad (5.1.0)-1} date 7/1/2019 9:31:05 PM
; FORMAT={-:-/ absolute / inch / decimal}
; #@! TF.CreationDate,2019-07-01T21:31:05-03:00
; #@! TF.GenerationSoftware,Kicad,Pcbnew,(5.1.0)-1
; #@! TF.FileFunction,Plated,1,2,PTH
FMAT,2
INCH
T1C0.0157
T2C0.0315
T3C0.0394
%
G90
G05
T1
X1.2055Y-2.1815
X1.2331Y-2.6933
X1.2449Y-3.8508
X1.3295Y-3.2622
X1.5106Y-2.4906
X1.7244Y-2.2516
X1.985Y-2.8665
X2.0815Y-2.5181
X2.115Y-2.2406
X2.1291Y-2.613
X2.6366Y-3.4807
X2.7862Y-3.4976
X3.1898Y-2.5909
X3.433Y-2.0643
X3.4825Y-2.2459
X3.5911Y-2.2959
X3.8669Y-2.2996
T2
X2.9831Y-3.674
X1.0992Y-1.1579
X1.1661Y-3.8508
X1.1268Y-2.8665
X4.7094Y-1.1539
X3.7413Y-2.3697
X2.6843Y-2.2736
X2.6843Y-2.3524
X2.6843Y-2.4311
X2.6843Y-2.5098
X2.6843Y-2.5886
X2.6843Y-2.6673
X4.724Y-2.37
X4.1571Y-1.9764
X4.0315Y-1.9776
X1.9142Y-2.8665
X2.9831Y-2.8587
X1.9535Y-2.9846
X2.5441Y-3.7929
X1.9535Y-3.772
X1.9535Y-3.8508
X3.4083Y-3.3705
T3
X1.6425Y-2.0516
X1.6425Y-2.1516
X1.6425Y-2.2516
X2.2425Y-2.0516
X2.2425Y-2.1516
X2.2425Y-2.2516
T0
M30
