G04 #@! TF.GenerationSoftware,KiCad,Pcbnew,(5.1.0)-1*
G04 #@! TF.CreationDate,2019-06-21T16:46:35-03:00*
G04 #@! TF.ProjectId,Main,4d61696e-2e6b-4696-9361-645f70636258,rev?*
G04 #@! TF.SameCoordinates,Original*
G04 #@! TF.FileFunction,Soldermask,Top*
G04 #@! TF.FilePolarity,Negative*
%FSLAX46Y46*%
G04 Gerber Fmt 4.6, Leading zero omitted, Abs format (unit mm)*
G04 Created by KiCad (PCBNEW (5.1.0)-1) date 2019-06-21 16:46:35*
%MOMM*%
%LPD*%
G04 APERTURE LIST*
%ADD10C,0.100000*%
G04 APERTURE END LIST*
D10*
G36*
X76671213Y-137677502D02*
G01*
X76742321Y-137684505D01*
X76879172Y-137726019D01*
X76879175Y-137726020D01*
X77005294Y-137793432D01*
X77115843Y-137884157D01*
X77206568Y-137994706D01*
X77273980Y-138120825D01*
X77273981Y-138120828D01*
X77315495Y-138257679D01*
X77329512Y-138400000D01*
X77315495Y-138542321D01*
X77273981Y-138679172D01*
X77273980Y-138679175D01*
X77206568Y-138805294D01*
X77115843Y-138915843D01*
X77005294Y-139006568D01*
X76879175Y-139073980D01*
X76879172Y-139073981D01*
X76742321Y-139115495D01*
X76671213Y-139122498D01*
X76635660Y-139126000D01*
X76564340Y-139126000D01*
X76528787Y-139122498D01*
X76457679Y-139115495D01*
X76320828Y-139073981D01*
X76320825Y-139073980D01*
X76194706Y-139006568D01*
X76084157Y-138915843D01*
X75993432Y-138805294D01*
X75926020Y-138679175D01*
X75926019Y-138679172D01*
X75884505Y-138542321D01*
X75870488Y-138400000D01*
X75884505Y-138257679D01*
X75926019Y-138120828D01*
X75926020Y-138120825D01*
X75993432Y-137994706D01*
X76084157Y-137884157D01*
X76194706Y-137793432D01*
X76320825Y-137726020D01*
X76320828Y-137726019D01*
X76457679Y-137684505D01*
X76528787Y-137677502D01*
X76564340Y-137674000D01*
X76635660Y-137674000D01*
X76671213Y-137677502D01*
X76671213Y-137677502D01*
G37*
G36*
X57326000Y-139126000D02*
G01*
X55874000Y-139126000D01*
X55874000Y-137674000D01*
X57326000Y-137674000D01*
X57326000Y-139126000D01*
X57326000Y-139126000D01*
G37*
G36*
X77326000Y-137126000D02*
G01*
X75874000Y-137126000D01*
X75874000Y-135674000D01*
X77326000Y-135674000D01*
X77326000Y-137126000D01*
X77326000Y-137126000D01*
G37*
G36*
X98326000Y-133526000D02*
G01*
X96874000Y-133526000D01*
X96874000Y-132074000D01*
X98326000Y-132074000D01*
X98326000Y-133526000D01*
X98326000Y-133526000D01*
G37*
G36*
X57211000Y-129896000D02*
G01*
X55989000Y-129896000D01*
X55989000Y-127634000D01*
X57211000Y-127634000D01*
X57211000Y-129896000D01*
X57211000Y-129896000D01*
G37*
G36*
X96368604Y-128128347D02*
G01*
X96405144Y-128139432D01*
X96438821Y-128157433D01*
X96468341Y-128181659D01*
X96492567Y-128211179D01*
X96510568Y-128244856D01*
X96521653Y-128281396D01*
X96526000Y-128325538D01*
X96526000Y-129274462D01*
X96521653Y-129318604D01*
X96510568Y-129355144D01*
X96492567Y-129388821D01*
X96468341Y-129418341D01*
X96438821Y-129442567D01*
X96405144Y-129460568D01*
X96368604Y-129471653D01*
X96324462Y-129476000D01*
X94875538Y-129476000D01*
X94831396Y-129471653D01*
X94794856Y-129460568D01*
X94761179Y-129442567D01*
X94731659Y-129418341D01*
X94707433Y-129388821D01*
X94689432Y-129355144D01*
X94678347Y-129318604D01*
X94674000Y-129274462D01*
X94674000Y-128325538D01*
X94678347Y-128281396D01*
X94689432Y-128244856D01*
X94707433Y-128211179D01*
X94731659Y-128181659D01*
X94761179Y-128157433D01*
X94794856Y-128139432D01*
X94831396Y-128128347D01*
X94875538Y-128124000D01*
X96324462Y-128124000D01*
X96368604Y-128128347D01*
X96368604Y-128128347D01*
G37*
G36*
X100368604Y-128128347D02*
G01*
X100405144Y-128139432D01*
X100438821Y-128157433D01*
X100468341Y-128181659D01*
X100492567Y-128211179D01*
X100510568Y-128244856D01*
X100521653Y-128281396D01*
X100526000Y-128325538D01*
X100526000Y-129274462D01*
X100521653Y-129318604D01*
X100510568Y-129355144D01*
X100492567Y-129388821D01*
X100468341Y-129418341D01*
X100438821Y-129442567D01*
X100405144Y-129460568D01*
X100368604Y-129471653D01*
X100324462Y-129476000D01*
X98875538Y-129476000D01*
X98831396Y-129471653D01*
X98794856Y-129460568D01*
X98761179Y-129442567D01*
X98731659Y-129418341D01*
X98707433Y-129388821D01*
X98689432Y-129355144D01*
X98678347Y-129318604D01*
X98674000Y-129274462D01*
X98674000Y-128325538D01*
X98678347Y-128281396D01*
X98689432Y-128244856D01*
X98707433Y-128211179D01*
X98731659Y-128181659D01*
X98761179Y-128157433D01*
X98794856Y-128139432D01*
X98831396Y-128128347D01*
X98875538Y-128124000D01*
X100324462Y-128124000D01*
X100368604Y-128128347D01*
X100368604Y-128128347D01*
G37*
G36*
X104368604Y-128128347D02*
G01*
X104405144Y-128139432D01*
X104438821Y-128157433D01*
X104468341Y-128181659D01*
X104492567Y-128211179D01*
X104510568Y-128244856D01*
X104521653Y-128281396D01*
X104526000Y-128325538D01*
X104526000Y-129274462D01*
X104521653Y-129318604D01*
X104510568Y-129355144D01*
X104492567Y-129388821D01*
X104468341Y-129418341D01*
X104438821Y-129442567D01*
X104405144Y-129460568D01*
X104368604Y-129471653D01*
X104324462Y-129476000D01*
X102875538Y-129476000D01*
X102831396Y-129471653D01*
X102794856Y-129460568D01*
X102761179Y-129442567D01*
X102731659Y-129418341D01*
X102707433Y-129388821D01*
X102689432Y-129355144D01*
X102678347Y-129318604D01*
X102674000Y-129274462D01*
X102674000Y-128325538D01*
X102678347Y-128281396D01*
X102689432Y-128244856D01*
X102707433Y-128211179D01*
X102731659Y-128181659D01*
X102761179Y-128157433D01*
X102794856Y-128139432D01*
X102831396Y-128128347D01*
X102875538Y-128124000D01*
X104324462Y-128124000D01*
X104368604Y-128128347D01*
X104368604Y-128128347D01*
G37*
G36*
X92655603Y-128013348D02*
G01*
X92692143Y-128024433D01*
X92725820Y-128042434D01*
X92755340Y-128066660D01*
X92779566Y-128096180D01*
X92797567Y-128129857D01*
X92808652Y-128166397D01*
X92812999Y-128210539D01*
X92812999Y-129159463D01*
X92808652Y-129203605D01*
X92797567Y-129240145D01*
X92779566Y-129273822D01*
X92755340Y-129303342D01*
X92725820Y-129327568D01*
X92692143Y-129345569D01*
X92655603Y-129356654D01*
X92611461Y-129361001D01*
X91162537Y-129361001D01*
X91118395Y-129356654D01*
X91081855Y-129345569D01*
X91048178Y-129327568D01*
X91018658Y-129303342D01*
X90994432Y-129273822D01*
X90976431Y-129240145D01*
X90965346Y-129203605D01*
X90960999Y-129159463D01*
X90960999Y-128210539D01*
X90965346Y-128166397D01*
X90976431Y-128129857D01*
X90994432Y-128096180D01*
X91018658Y-128066660D01*
X91048178Y-128042434D01*
X91081855Y-128024433D01*
X91118395Y-128013348D01*
X91162537Y-128009001D01*
X92611461Y-128009001D01*
X92655603Y-128013348D01*
X92655603Y-128013348D01*
G37*
G36*
X104368604Y-125328347D02*
G01*
X104405144Y-125339432D01*
X104438821Y-125357433D01*
X104468341Y-125381659D01*
X104492567Y-125411179D01*
X104510568Y-125444856D01*
X104521653Y-125481396D01*
X104526000Y-125525538D01*
X104526000Y-126474462D01*
X104521653Y-126518604D01*
X104510568Y-126555144D01*
X104492567Y-126588821D01*
X104468341Y-126618341D01*
X104438821Y-126642567D01*
X104405144Y-126660568D01*
X104368604Y-126671653D01*
X104324462Y-126676000D01*
X102875538Y-126676000D01*
X102831396Y-126671653D01*
X102794856Y-126660568D01*
X102761179Y-126642567D01*
X102731659Y-126618341D01*
X102707433Y-126588821D01*
X102689432Y-126555144D01*
X102678347Y-126518604D01*
X102674000Y-126474462D01*
X102674000Y-125525538D01*
X102678347Y-125481396D01*
X102689432Y-125444856D01*
X102707433Y-125411179D01*
X102731659Y-125381659D01*
X102761179Y-125357433D01*
X102794856Y-125339432D01*
X102831396Y-125328347D01*
X102875538Y-125324000D01*
X104324462Y-125324000D01*
X104368604Y-125328347D01*
X104368604Y-125328347D01*
G37*
G36*
X96368604Y-125328347D02*
G01*
X96405144Y-125339432D01*
X96438821Y-125357433D01*
X96468341Y-125381659D01*
X96492567Y-125411179D01*
X96510568Y-125444856D01*
X96521653Y-125481396D01*
X96526000Y-125525538D01*
X96526000Y-126474462D01*
X96521653Y-126518604D01*
X96510568Y-126555144D01*
X96492567Y-126588821D01*
X96468341Y-126618341D01*
X96438821Y-126642567D01*
X96405144Y-126660568D01*
X96368604Y-126671653D01*
X96324462Y-126676000D01*
X94875538Y-126676000D01*
X94831396Y-126671653D01*
X94794856Y-126660568D01*
X94761179Y-126642567D01*
X94731659Y-126618341D01*
X94707433Y-126588821D01*
X94689432Y-126555144D01*
X94678347Y-126518604D01*
X94674000Y-126474462D01*
X94674000Y-125525538D01*
X94678347Y-125481396D01*
X94689432Y-125444856D01*
X94707433Y-125411179D01*
X94731659Y-125381659D01*
X94761179Y-125357433D01*
X94794856Y-125339432D01*
X94831396Y-125328347D01*
X94875538Y-125324000D01*
X96324462Y-125324000D01*
X96368604Y-125328347D01*
X96368604Y-125328347D01*
G37*
G36*
X100368604Y-125328347D02*
G01*
X100405144Y-125339432D01*
X100438821Y-125357433D01*
X100468341Y-125381659D01*
X100492567Y-125411179D01*
X100510568Y-125444856D01*
X100521653Y-125481396D01*
X100526000Y-125525538D01*
X100526000Y-126474462D01*
X100521653Y-126518604D01*
X100510568Y-126555144D01*
X100492567Y-126588821D01*
X100468341Y-126618341D01*
X100438821Y-126642567D01*
X100405144Y-126660568D01*
X100368604Y-126671653D01*
X100324462Y-126676000D01*
X98875538Y-126676000D01*
X98831396Y-126671653D01*
X98794856Y-126660568D01*
X98761179Y-126642567D01*
X98731659Y-126618341D01*
X98707433Y-126588821D01*
X98689432Y-126555144D01*
X98678347Y-126518604D01*
X98674000Y-126474462D01*
X98674000Y-125525538D01*
X98678347Y-125481396D01*
X98689432Y-125444856D01*
X98707433Y-125411179D01*
X98731659Y-125381659D01*
X98761179Y-125357433D01*
X98794856Y-125339432D01*
X98831396Y-125328347D01*
X98875538Y-125324000D01*
X100324462Y-125324000D01*
X100368604Y-125328347D01*
X100368604Y-125328347D01*
G37*
G36*
X92655603Y-125213348D02*
G01*
X92692143Y-125224433D01*
X92725820Y-125242434D01*
X92755340Y-125266660D01*
X92779566Y-125296180D01*
X92797567Y-125329857D01*
X92808652Y-125366397D01*
X92812999Y-125410539D01*
X92812999Y-126359463D01*
X92808652Y-126403605D01*
X92797567Y-126440145D01*
X92779566Y-126473822D01*
X92755340Y-126503342D01*
X92725820Y-126527568D01*
X92692143Y-126545569D01*
X92655603Y-126556654D01*
X92611461Y-126561001D01*
X91162537Y-126561001D01*
X91118395Y-126556654D01*
X91081855Y-126545569D01*
X91048178Y-126527568D01*
X91018658Y-126503342D01*
X90994432Y-126473822D01*
X90976431Y-126440145D01*
X90965346Y-126403605D01*
X90960999Y-126359463D01*
X90960999Y-125410539D01*
X90965346Y-125366397D01*
X90976431Y-125329857D01*
X90994432Y-125296180D01*
X91018658Y-125266660D01*
X91048178Y-125242434D01*
X91081855Y-125224433D01*
X91118395Y-125213348D01*
X91162537Y-125209001D01*
X92611461Y-125209001D01*
X92655603Y-125213348D01*
X92655603Y-125213348D01*
G37*
G36*
X62951000Y-125726000D02*
G01*
X61629000Y-125726000D01*
X61629000Y-123074000D01*
X62951000Y-123074000D01*
X62951000Y-125726000D01*
X62951000Y-125726000D01*
G37*
G36*
X65571000Y-125726000D02*
G01*
X64249000Y-125726000D01*
X64249000Y-123074000D01*
X65571000Y-123074000D01*
X65571000Y-125726000D01*
X65571000Y-125726000D01*
G37*
G36*
X104368604Y-123128347D02*
G01*
X104405144Y-123139432D01*
X104438821Y-123157433D01*
X104468341Y-123181659D01*
X104492567Y-123211179D01*
X104510568Y-123244856D01*
X104521653Y-123281396D01*
X104526000Y-123325538D01*
X104526000Y-124274462D01*
X104521653Y-124318604D01*
X104510568Y-124355144D01*
X104492567Y-124388821D01*
X104468341Y-124418341D01*
X104438821Y-124442567D01*
X104405144Y-124460568D01*
X104368604Y-124471653D01*
X104324462Y-124476000D01*
X102875538Y-124476000D01*
X102831396Y-124471653D01*
X102794856Y-124460568D01*
X102761179Y-124442567D01*
X102731659Y-124418341D01*
X102707433Y-124388821D01*
X102689432Y-124355144D01*
X102678347Y-124318604D01*
X102674000Y-124274462D01*
X102674000Y-123325538D01*
X102678347Y-123281396D01*
X102689432Y-123244856D01*
X102707433Y-123211179D01*
X102731659Y-123181659D01*
X102761179Y-123157433D01*
X102794856Y-123139432D01*
X102831396Y-123128347D01*
X102875538Y-123124000D01*
X104324462Y-123124000D01*
X104368604Y-123128347D01*
X104368604Y-123128347D01*
G37*
G36*
X97512611Y-121162389D02*
G01*
X97531553Y-121177934D01*
X97553164Y-121189485D01*
X97576613Y-121196598D01*
X97600999Y-121199000D01*
X98301000Y-121199000D01*
X98301000Y-123601000D01*
X97600999Y-123601000D01*
X97576613Y-123603402D01*
X97553164Y-123610515D01*
X97531553Y-123622066D01*
X97512611Y-123637611D01*
X97501623Y-123651000D01*
X95698377Y-123651000D01*
X95687389Y-123637611D01*
X95668447Y-123622066D01*
X95646836Y-123610515D01*
X95623387Y-123603402D01*
X95599001Y-123601000D01*
X94899000Y-123601000D01*
X94899000Y-121199000D01*
X95599001Y-121199000D01*
X95623387Y-121196598D01*
X95646836Y-121189485D01*
X95668447Y-121177934D01*
X95687389Y-121162389D01*
X95698377Y-121149000D01*
X97501623Y-121149000D01*
X97512611Y-121162389D01*
X97512611Y-121162389D01*
G37*
G36*
X57211000Y-123166000D02*
G01*
X55989000Y-123166000D01*
X55989000Y-120904000D01*
X57211000Y-120904000D01*
X57211000Y-123166000D01*
X57211000Y-123166000D01*
G37*
G36*
X114526000Y-121726000D02*
G01*
X113074000Y-121726000D01*
X113074000Y-120274000D01*
X114526000Y-120274000D01*
X114526000Y-121726000D01*
X114526000Y-121726000D01*
G37*
G36*
X104368604Y-120328347D02*
G01*
X104405144Y-120339432D01*
X104438821Y-120357433D01*
X104468341Y-120381659D01*
X104492567Y-120411179D01*
X104510568Y-120444856D01*
X104521653Y-120481396D01*
X104526000Y-120525538D01*
X104526000Y-121474462D01*
X104521653Y-121518604D01*
X104510568Y-121555144D01*
X104492567Y-121588821D01*
X104468341Y-121618341D01*
X104438821Y-121642567D01*
X104405144Y-121660568D01*
X104368604Y-121671653D01*
X104324462Y-121676000D01*
X102875538Y-121676000D01*
X102831396Y-121671653D01*
X102794856Y-121660568D01*
X102761179Y-121642567D01*
X102731659Y-121618341D01*
X102707433Y-121588821D01*
X102689432Y-121555144D01*
X102678347Y-121518604D01*
X102674000Y-121474462D01*
X102674000Y-120525538D01*
X102678347Y-120481396D01*
X102689432Y-120444856D01*
X102707433Y-120411179D01*
X102731659Y-120381659D01*
X102761179Y-120357433D01*
X102794856Y-120339432D01*
X102831396Y-120328347D01*
X102875538Y-120324000D01*
X104324462Y-120324000D01*
X104368604Y-120328347D01*
X104368604Y-120328347D01*
G37*
G36*
X77326000Y-117126000D02*
G01*
X75874000Y-117126000D01*
X75874000Y-115674000D01*
X77326000Y-115674000D01*
X77326000Y-117126000D01*
X77326000Y-117126000D01*
G37*
G36*
X76326000Y-114126000D02*
G01*
X74874000Y-114126000D01*
X74874000Y-112674000D01*
X76326000Y-112674000D01*
X76326000Y-114126000D01*
X76326000Y-114126000D01*
G37*
G36*
X56326000Y-114126000D02*
G01*
X54874000Y-114126000D01*
X54874000Y-112674000D01*
X56326000Y-112674000D01*
X56326000Y-114126000D01*
X56326000Y-114126000D01*
G37*
G36*
X130701000Y-110701000D02*
G01*
X127299000Y-110701000D01*
X127299000Y-108099000D01*
X130701000Y-108099000D01*
X130701000Y-110701000D01*
X130701000Y-110701000D01*
G37*
G36*
X65801000Y-109911000D02*
G01*
X64899000Y-109911000D01*
X64899000Y-109109000D01*
X65801000Y-109109000D01*
X65801000Y-109911000D01*
X65801000Y-109911000D01*
G37*
G36*
X80301000Y-109911000D02*
G01*
X79399000Y-109911000D01*
X79399000Y-109109000D01*
X80301000Y-109109000D01*
X80301000Y-109911000D01*
X80301000Y-109911000D01*
G37*
G36*
X71301000Y-106091000D02*
G01*
X70920999Y-106091000D01*
X70896613Y-106093402D01*
X70873164Y-106100515D01*
X70851553Y-106112066D01*
X70832611Y-106127611D01*
X70817066Y-106146553D01*
X70805515Y-106168164D01*
X70798402Y-106191613D01*
X70796000Y-106215999D01*
X70796000Y-106434001D01*
X70798402Y-106458387D01*
X70805515Y-106481836D01*
X70817066Y-106503447D01*
X70832611Y-106522389D01*
X70851553Y-106537934D01*
X70873164Y-106549485D01*
X70896613Y-106556598D01*
X70920999Y-106559000D01*
X71301000Y-106559000D01*
X71301000Y-107361000D01*
X70920999Y-107361000D01*
X70896613Y-107363402D01*
X70873164Y-107370515D01*
X70851553Y-107382066D01*
X70832611Y-107397611D01*
X70817066Y-107416553D01*
X70805515Y-107438164D01*
X70798402Y-107461613D01*
X70796000Y-107485999D01*
X70796000Y-107714001D01*
X70798402Y-107738387D01*
X70805515Y-107761836D01*
X70817066Y-107783447D01*
X70832611Y-107802389D01*
X70851553Y-107817934D01*
X70873164Y-107829485D01*
X70896613Y-107836598D01*
X70920999Y-107839000D01*
X71301000Y-107839000D01*
X71301000Y-108641000D01*
X70920999Y-108641000D01*
X70896613Y-108643402D01*
X70873164Y-108650515D01*
X70851553Y-108662066D01*
X70832611Y-108677611D01*
X70817066Y-108696553D01*
X70805515Y-108718164D01*
X70798402Y-108741613D01*
X70796000Y-108765999D01*
X70796000Y-108984001D01*
X70798402Y-109008387D01*
X70805515Y-109031836D01*
X70817066Y-109053447D01*
X70832611Y-109072389D01*
X70851553Y-109087934D01*
X70873164Y-109099485D01*
X70896613Y-109106598D01*
X70920999Y-109109000D01*
X71301000Y-109109000D01*
X71301000Y-109911000D01*
X70322743Y-109911000D01*
X70321836Y-109910515D01*
X70298387Y-109903402D01*
X70274001Y-109901000D01*
X66404000Y-109901000D01*
X66404000Y-105299000D01*
X70274001Y-105299000D01*
X70298387Y-105296598D01*
X70321836Y-105289485D01*
X70322743Y-105289000D01*
X71301000Y-105289000D01*
X71301000Y-106091000D01*
X71301000Y-106091000D01*
G37*
G36*
X74878164Y-105289485D02*
G01*
X74901613Y-105296598D01*
X74925999Y-105299000D01*
X78796000Y-105299000D01*
X78796000Y-109901000D01*
X74925999Y-109901000D01*
X74901613Y-109903402D01*
X74878164Y-109910515D01*
X74877257Y-109911000D01*
X73899000Y-109911000D01*
X73899000Y-109109000D01*
X74279001Y-109109000D01*
X74303387Y-109106598D01*
X74326836Y-109099485D01*
X74348447Y-109087934D01*
X74367389Y-109072389D01*
X74382934Y-109053447D01*
X74394485Y-109031836D01*
X74401598Y-109008387D01*
X74404000Y-108984001D01*
X74404000Y-108765999D01*
X74401598Y-108741613D01*
X74394485Y-108718164D01*
X74382934Y-108696553D01*
X74367389Y-108677611D01*
X74348447Y-108662066D01*
X74326836Y-108650515D01*
X74303387Y-108643402D01*
X74279001Y-108641000D01*
X73899000Y-108641000D01*
X73899000Y-107839000D01*
X74279001Y-107839000D01*
X74303387Y-107836598D01*
X74326836Y-107829485D01*
X74348447Y-107817934D01*
X74367389Y-107802389D01*
X74382934Y-107783447D01*
X74394485Y-107761836D01*
X74401598Y-107738387D01*
X74404000Y-107714001D01*
X74404000Y-107485999D01*
X74401598Y-107461613D01*
X74394485Y-107438164D01*
X74382934Y-107416553D01*
X74367389Y-107397611D01*
X74348447Y-107382066D01*
X74326836Y-107370515D01*
X74303387Y-107363402D01*
X74279001Y-107361000D01*
X73899000Y-107361000D01*
X73899000Y-106559000D01*
X74279001Y-106559000D01*
X74303387Y-106556598D01*
X74326836Y-106549485D01*
X74348447Y-106537934D01*
X74367389Y-106522389D01*
X74382934Y-106503447D01*
X74394485Y-106481836D01*
X74401598Y-106458387D01*
X74404000Y-106434001D01*
X74404000Y-106215999D01*
X74401598Y-106191613D01*
X74394485Y-106168164D01*
X74382934Y-106146553D01*
X74367389Y-106127611D01*
X74348447Y-106112066D01*
X74326836Y-106100515D01*
X74303387Y-106093402D01*
X74279001Y-106091000D01*
X73899000Y-106091000D01*
X73899000Y-105289000D01*
X74877257Y-105289000D01*
X74878164Y-105289485D01*
X74878164Y-105289485D01*
G37*
G36*
X85368604Y-108328347D02*
G01*
X85405144Y-108339432D01*
X85438821Y-108357433D01*
X85468341Y-108381659D01*
X85492567Y-108411179D01*
X85510568Y-108444856D01*
X85521653Y-108481396D01*
X85526000Y-108525538D01*
X85526000Y-109474462D01*
X85521653Y-109518604D01*
X85510568Y-109555144D01*
X85492567Y-109588821D01*
X85468341Y-109618341D01*
X85438821Y-109642567D01*
X85405144Y-109660568D01*
X85368604Y-109671653D01*
X85324462Y-109676000D01*
X83875538Y-109676000D01*
X83831396Y-109671653D01*
X83794856Y-109660568D01*
X83761179Y-109642567D01*
X83731659Y-109618341D01*
X83707433Y-109588821D01*
X83689432Y-109555144D01*
X83678347Y-109518604D01*
X83674000Y-109474462D01*
X83674000Y-108525538D01*
X83678347Y-108481396D01*
X83689432Y-108444856D01*
X83707433Y-108411179D01*
X83731659Y-108381659D01*
X83761179Y-108357433D01*
X83794856Y-108339432D01*
X83831396Y-108328347D01*
X83875538Y-108324000D01*
X85324462Y-108324000D01*
X85368604Y-108328347D01*
X85368604Y-108328347D01*
G37*
G36*
X60968604Y-108328347D02*
G01*
X61005144Y-108339432D01*
X61038821Y-108357433D01*
X61068341Y-108381659D01*
X61092567Y-108411179D01*
X61110568Y-108444856D01*
X61121653Y-108481396D01*
X61126000Y-108525538D01*
X61126000Y-109474462D01*
X61121653Y-109518604D01*
X61110568Y-109555144D01*
X61092567Y-109588821D01*
X61068341Y-109618341D01*
X61038821Y-109642567D01*
X61005144Y-109660568D01*
X60968604Y-109671653D01*
X60924462Y-109676000D01*
X59475538Y-109676000D01*
X59431396Y-109671653D01*
X59394856Y-109660568D01*
X59361179Y-109642567D01*
X59331659Y-109618341D01*
X59307433Y-109588821D01*
X59289432Y-109555144D01*
X59278347Y-109518604D01*
X59274000Y-109474462D01*
X59274000Y-108525538D01*
X59278347Y-108481396D01*
X59289432Y-108444856D01*
X59307433Y-108411179D01*
X59331659Y-108381659D01*
X59361179Y-108357433D01*
X59394856Y-108339432D01*
X59431396Y-108328347D01*
X59475538Y-108324000D01*
X60924462Y-108324000D01*
X60968604Y-108328347D01*
X60968604Y-108328347D01*
G37*
G36*
X57268604Y-108328347D02*
G01*
X57305144Y-108339432D01*
X57338821Y-108357433D01*
X57368341Y-108381659D01*
X57392567Y-108411179D01*
X57410568Y-108444856D01*
X57421653Y-108481396D01*
X57426000Y-108525538D01*
X57426000Y-109474462D01*
X57421653Y-109518604D01*
X57410568Y-109555144D01*
X57392567Y-109588821D01*
X57368341Y-109618341D01*
X57338821Y-109642567D01*
X57305144Y-109660568D01*
X57268604Y-109671653D01*
X57224462Y-109676000D01*
X55775538Y-109676000D01*
X55731396Y-109671653D01*
X55694856Y-109660568D01*
X55661179Y-109642567D01*
X55631659Y-109618341D01*
X55607433Y-109588821D01*
X55589432Y-109555144D01*
X55578347Y-109518604D01*
X55574000Y-109474462D01*
X55574000Y-108525538D01*
X55578347Y-108481396D01*
X55589432Y-108444856D01*
X55607433Y-108411179D01*
X55631659Y-108381659D01*
X55661179Y-108357433D01*
X55694856Y-108339432D01*
X55731396Y-108328347D01*
X55775538Y-108324000D01*
X57224462Y-108324000D01*
X57268604Y-108328347D01*
X57268604Y-108328347D01*
G37*
G36*
X65801000Y-108641000D02*
G01*
X64899000Y-108641000D01*
X64899000Y-107839000D01*
X65801000Y-107839000D01*
X65801000Y-108641000D01*
X65801000Y-108641000D01*
G37*
G36*
X80301000Y-108641000D02*
G01*
X79399000Y-108641000D01*
X79399000Y-107839000D01*
X80301000Y-107839000D01*
X80301000Y-108641000D01*
X80301000Y-108641000D01*
G37*
G36*
X80301000Y-107361000D02*
G01*
X79399000Y-107361000D01*
X79399000Y-106559000D01*
X80301000Y-106559000D01*
X80301000Y-107361000D01*
X80301000Y-107361000D01*
G37*
G36*
X65801000Y-107361000D02*
G01*
X64899000Y-107361000D01*
X64899000Y-106559000D01*
X65801000Y-106559000D01*
X65801000Y-107361000D01*
X65801000Y-107361000D01*
G37*
G36*
X57268604Y-105528347D02*
G01*
X57305144Y-105539432D01*
X57338821Y-105557433D01*
X57368341Y-105581659D01*
X57392567Y-105611179D01*
X57410568Y-105644856D01*
X57421653Y-105681396D01*
X57426000Y-105725538D01*
X57426000Y-106674462D01*
X57421653Y-106718604D01*
X57410568Y-106755144D01*
X57392567Y-106788821D01*
X57368341Y-106818341D01*
X57338821Y-106842567D01*
X57305144Y-106860568D01*
X57268604Y-106871653D01*
X57224462Y-106876000D01*
X55775538Y-106876000D01*
X55731396Y-106871653D01*
X55694856Y-106860568D01*
X55661179Y-106842567D01*
X55631659Y-106818341D01*
X55607433Y-106788821D01*
X55589432Y-106755144D01*
X55578347Y-106718604D01*
X55574000Y-106674462D01*
X55574000Y-105725538D01*
X55578347Y-105681396D01*
X55589432Y-105644856D01*
X55607433Y-105611179D01*
X55631659Y-105581659D01*
X55661179Y-105557433D01*
X55694856Y-105539432D01*
X55731396Y-105528347D01*
X55775538Y-105524000D01*
X57224462Y-105524000D01*
X57268604Y-105528347D01*
X57268604Y-105528347D01*
G37*
G36*
X85368604Y-105528347D02*
G01*
X85405144Y-105539432D01*
X85438821Y-105557433D01*
X85468341Y-105581659D01*
X85492567Y-105611179D01*
X85510568Y-105644856D01*
X85521653Y-105681396D01*
X85526000Y-105725538D01*
X85526000Y-106674462D01*
X85521653Y-106718604D01*
X85510568Y-106755144D01*
X85492567Y-106788821D01*
X85468341Y-106818341D01*
X85438821Y-106842567D01*
X85405144Y-106860568D01*
X85368604Y-106871653D01*
X85324462Y-106876000D01*
X83875538Y-106876000D01*
X83831396Y-106871653D01*
X83794856Y-106860568D01*
X83761179Y-106842567D01*
X83731659Y-106818341D01*
X83707433Y-106788821D01*
X83689432Y-106755144D01*
X83678347Y-106718604D01*
X83674000Y-106674462D01*
X83674000Y-105725538D01*
X83678347Y-105681396D01*
X83689432Y-105644856D01*
X83707433Y-105611179D01*
X83731659Y-105581659D01*
X83761179Y-105557433D01*
X83794856Y-105539432D01*
X83831396Y-105528347D01*
X83875538Y-105524000D01*
X85324462Y-105524000D01*
X85368604Y-105528347D01*
X85368604Y-105528347D01*
G37*
G36*
X60968604Y-105528347D02*
G01*
X61005144Y-105539432D01*
X61038821Y-105557433D01*
X61068341Y-105581659D01*
X61092567Y-105611179D01*
X61110568Y-105644856D01*
X61121653Y-105681396D01*
X61126000Y-105725538D01*
X61126000Y-106674462D01*
X61121653Y-106718604D01*
X61110568Y-106755144D01*
X61092567Y-106788821D01*
X61068341Y-106818341D01*
X61038821Y-106842567D01*
X61005144Y-106860568D01*
X60968604Y-106871653D01*
X60924462Y-106876000D01*
X59475538Y-106876000D01*
X59431396Y-106871653D01*
X59394856Y-106860568D01*
X59361179Y-106842567D01*
X59331659Y-106818341D01*
X59307433Y-106788821D01*
X59289432Y-106755144D01*
X59278347Y-106718604D01*
X59274000Y-106674462D01*
X59274000Y-105725538D01*
X59278347Y-105681396D01*
X59289432Y-105644856D01*
X59307433Y-105611179D01*
X59331659Y-105581659D01*
X59361179Y-105557433D01*
X59394856Y-105539432D01*
X59431396Y-105528347D01*
X59475538Y-105524000D01*
X60924462Y-105524000D01*
X60968604Y-105528347D01*
X60968604Y-105528347D01*
G37*
G36*
X111826000Y-106251000D02*
G01*
X110274000Y-106251000D01*
X110274000Y-103749000D01*
X111826000Y-103749000D01*
X111826000Y-106251000D01*
X111826000Y-106251000D01*
G37*
G36*
X117726000Y-106251000D02*
G01*
X116174000Y-106251000D01*
X116174000Y-103749000D01*
X117726000Y-103749000D01*
X117726000Y-106251000D01*
X117726000Y-106251000D01*
G37*
G36*
X80301000Y-106091000D02*
G01*
X79399000Y-106091000D01*
X79399000Y-105289000D01*
X80301000Y-105289000D01*
X80301000Y-106091000D01*
X80301000Y-106091000D01*
G37*
G36*
X65801000Y-106091000D02*
G01*
X64899000Y-106091000D01*
X64899000Y-105289000D01*
X65801000Y-105289000D01*
X65801000Y-106091000D01*
X65801000Y-106091000D01*
G37*
G36*
X108768604Y-102728347D02*
G01*
X108805144Y-102739432D01*
X108838821Y-102757433D01*
X108868341Y-102781659D01*
X108892567Y-102811179D01*
X108910568Y-102844856D01*
X108921653Y-102881396D01*
X108926000Y-102925538D01*
X108926000Y-103874462D01*
X108921653Y-103918604D01*
X108910568Y-103955144D01*
X108892567Y-103988821D01*
X108868341Y-104018341D01*
X108838821Y-104042567D01*
X108805144Y-104060568D01*
X108768604Y-104071653D01*
X108724462Y-104076000D01*
X107275538Y-104076000D01*
X107231396Y-104071653D01*
X107194856Y-104060568D01*
X107161179Y-104042567D01*
X107131659Y-104018341D01*
X107107433Y-103988821D01*
X107089432Y-103955144D01*
X107078347Y-103918604D01*
X107074000Y-103874462D01*
X107074000Y-102925538D01*
X107078347Y-102881396D01*
X107089432Y-102844856D01*
X107107433Y-102811179D01*
X107131659Y-102781659D01*
X107161179Y-102757433D01*
X107194856Y-102739432D01*
X107231396Y-102728347D01*
X107275538Y-102724000D01*
X108724462Y-102724000D01*
X108768604Y-102728347D01*
X108768604Y-102728347D01*
G37*
G36*
X122768604Y-102728347D02*
G01*
X122805144Y-102739432D01*
X122838821Y-102757433D01*
X122868341Y-102781659D01*
X122892567Y-102811179D01*
X122910568Y-102844856D01*
X122921653Y-102881396D01*
X122926000Y-102925538D01*
X122926000Y-103874462D01*
X122921653Y-103918604D01*
X122910568Y-103955144D01*
X122892567Y-103988821D01*
X122868341Y-104018341D01*
X122838821Y-104042567D01*
X122805144Y-104060568D01*
X122768604Y-104071653D01*
X122724462Y-104076000D01*
X121275538Y-104076000D01*
X121231396Y-104071653D01*
X121194856Y-104060568D01*
X121161179Y-104042567D01*
X121131659Y-104018341D01*
X121107433Y-103988821D01*
X121089432Y-103955144D01*
X121078347Y-103918604D01*
X121074000Y-103874462D01*
X121074000Y-102925538D01*
X121078347Y-102881396D01*
X121089432Y-102844856D01*
X121107433Y-102811179D01*
X121131659Y-102781659D01*
X121161179Y-102757433D01*
X121194856Y-102739432D01*
X121231396Y-102728347D01*
X121275538Y-102724000D01*
X122724462Y-102724000D01*
X122768604Y-102728347D01*
X122768604Y-102728347D01*
G37*
G36*
X130701000Y-103901000D02*
G01*
X127299000Y-103901000D01*
X127299000Y-101299000D01*
X130701000Y-101299000D01*
X130701000Y-103901000D01*
X130701000Y-103901000D01*
G37*
G36*
X108768604Y-99928347D02*
G01*
X108805144Y-99939432D01*
X108838821Y-99957433D01*
X108868341Y-99981659D01*
X108892567Y-100011179D01*
X108910568Y-100044856D01*
X108921653Y-100081396D01*
X108926000Y-100125538D01*
X108926000Y-101074462D01*
X108921653Y-101118604D01*
X108910568Y-101155144D01*
X108892567Y-101188821D01*
X108868341Y-101218341D01*
X108838821Y-101242567D01*
X108805144Y-101260568D01*
X108768604Y-101271653D01*
X108724462Y-101276000D01*
X107275538Y-101276000D01*
X107231396Y-101271653D01*
X107194856Y-101260568D01*
X107161179Y-101242567D01*
X107131659Y-101218341D01*
X107107433Y-101188821D01*
X107089432Y-101155144D01*
X107078347Y-101118604D01*
X107074000Y-101074462D01*
X107074000Y-100125538D01*
X107078347Y-100081396D01*
X107089432Y-100044856D01*
X107107433Y-100011179D01*
X107131659Y-99981659D01*
X107161179Y-99957433D01*
X107194856Y-99939432D01*
X107231396Y-99928347D01*
X107275538Y-99924000D01*
X108724462Y-99924000D01*
X108768604Y-99928347D01*
X108768604Y-99928347D01*
G37*
G36*
X122768604Y-99928347D02*
G01*
X122805144Y-99939432D01*
X122838821Y-99957433D01*
X122868341Y-99981659D01*
X122892567Y-100011179D01*
X122910568Y-100044856D01*
X122921653Y-100081396D01*
X122926000Y-100125538D01*
X122926000Y-101074462D01*
X122921653Y-101118604D01*
X122910568Y-101155144D01*
X122892567Y-101188821D01*
X122868341Y-101218341D01*
X122838821Y-101242567D01*
X122805144Y-101260568D01*
X122768604Y-101271653D01*
X122724462Y-101276000D01*
X121275538Y-101276000D01*
X121231396Y-101271653D01*
X121194856Y-101260568D01*
X121161179Y-101242567D01*
X121131659Y-101218341D01*
X121107433Y-101188821D01*
X121089432Y-101155144D01*
X121078347Y-101118604D01*
X121074000Y-101074462D01*
X121074000Y-100125538D01*
X121078347Y-100081396D01*
X121089432Y-100044856D01*
X121107433Y-100011179D01*
X121131659Y-99981659D01*
X121161179Y-99957433D01*
X121194856Y-99939432D01*
X121231396Y-99928347D01*
X121275538Y-99924000D01*
X122724462Y-99924000D01*
X122768604Y-99928347D01*
X122768604Y-99928347D01*
G37*
G36*
X129918604Y-98078347D02*
G01*
X129955144Y-98089432D01*
X129988821Y-98107433D01*
X130018341Y-98131659D01*
X130042567Y-98161179D01*
X130060568Y-98194856D01*
X130071653Y-98231396D01*
X130076000Y-98275538D01*
X130076000Y-99724462D01*
X130071653Y-99768604D01*
X130060568Y-99805144D01*
X130042567Y-99838821D01*
X130018341Y-99868341D01*
X129988821Y-99892567D01*
X129955144Y-99910568D01*
X129918604Y-99921653D01*
X129874462Y-99926000D01*
X128925538Y-99926000D01*
X128881396Y-99921653D01*
X128844856Y-99910568D01*
X128811179Y-99892567D01*
X128781659Y-99868341D01*
X128757433Y-99838821D01*
X128739432Y-99805144D01*
X128728347Y-99768604D01*
X128724000Y-99724462D01*
X128724000Y-98275538D01*
X128728347Y-98231396D01*
X128739432Y-98194856D01*
X128757433Y-98161179D01*
X128781659Y-98131659D01*
X128811179Y-98107433D01*
X128844856Y-98089432D01*
X128881396Y-98078347D01*
X128925538Y-98074000D01*
X129874462Y-98074000D01*
X129918604Y-98078347D01*
X129918604Y-98078347D01*
G37*
G36*
X127118604Y-98078347D02*
G01*
X127155144Y-98089432D01*
X127188821Y-98107433D01*
X127218341Y-98131659D01*
X127242567Y-98161179D01*
X127260568Y-98194856D01*
X127271653Y-98231396D01*
X127276000Y-98275538D01*
X127276000Y-99724462D01*
X127271653Y-99768604D01*
X127260568Y-99805144D01*
X127242567Y-99838821D01*
X127218341Y-99868341D01*
X127188821Y-99892567D01*
X127155144Y-99910568D01*
X127118604Y-99921653D01*
X127074462Y-99926000D01*
X126125538Y-99926000D01*
X126081396Y-99921653D01*
X126044856Y-99910568D01*
X126011179Y-99892567D01*
X125981659Y-99868341D01*
X125957433Y-99838821D01*
X125939432Y-99805144D01*
X125928347Y-99768604D01*
X125924000Y-99724462D01*
X125924000Y-98275538D01*
X125928347Y-98231396D01*
X125939432Y-98194856D01*
X125957433Y-98161179D01*
X125981659Y-98131659D01*
X126011179Y-98107433D01*
X126044856Y-98089432D01*
X126081396Y-98078347D01*
X126125538Y-98074000D01*
X127074462Y-98074000D01*
X127118604Y-98078347D01*
X127118604Y-98078347D01*
G37*
G36*
X133768604Y-98328347D02*
G01*
X133805144Y-98339432D01*
X133838821Y-98357433D01*
X133868341Y-98381659D01*
X133892567Y-98411179D01*
X133910568Y-98444856D01*
X133921653Y-98481396D01*
X133926000Y-98525538D01*
X133926000Y-99474462D01*
X133921653Y-99518604D01*
X133910568Y-99555144D01*
X133892567Y-99588821D01*
X133868341Y-99618341D01*
X133838821Y-99642567D01*
X133805144Y-99660568D01*
X133768604Y-99671653D01*
X133724462Y-99676000D01*
X132275538Y-99676000D01*
X132231396Y-99671653D01*
X132194856Y-99660568D01*
X132161179Y-99642567D01*
X132131659Y-99618341D01*
X132107433Y-99588821D01*
X132089432Y-99555144D01*
X132078347Y-99518604D01*
X132074000Y-99474462D01*
X132074000Y-98525538D01*
X132078347Y-98481396D01*
X132089432Y-98444856D01*
X132107433Y-98411179D01*
X132131659Y-98381659D01*
X132161179Y-98357433D01*
X132194856Y-98339432D01*
X132231396Y-98328347D01*
X132275538Y-98324000D01*
X133724462Y-98324000D01*
X133768604Y-98328347D01*
X133768604Y-98328347D01*
G37*
G36*
X112126000Y-99256000D02*
G01*
X110474000Y-99256000D01*
X110474000Y-98554000D01*
X112126000Y-98554000D01*
X112126000Y-99256000D01*
X112126000Y-99256000D01*
G37*
G36*
X117526000Y-99256000D02*
G01*
X115874000Y-99256000D01*
X115874000Y-98554000D01*
X117526000Y-98554000D01*
X117526000Y-99256000D01*
X117526000Y-99256000D01*
G37*
G36*
X122768604Y-97728347D02*
G01*
X122805144Y-97739432D01*
X122838821Y-97757433D01*
X122868341Y-97781659D01*
X122892567Y-97811179D01*
X122910568Y-97844856D01*
X122921653Y-97881396D01*
X122926000Y-97925538D01*
X122926000Y-98874462D01*
X122921653Y-98918604D01*
X122910568Y-98955144D01*
X122892567Y-98988821D01*
X122868341Y-99018341D01*
X122838821Y-99042567D01*
X122805144Y-99060568D01*
X122768604Y-99071653D01*
X122724462Y-99076000D01*
X121275538Y-99076000D01*
X121231396Y-99071653D01*
X121194856Y-99060568D01*
X121161179Y-99042567D01*
X121131659Y-99018341D01*
X121107433Y-98988821D01*
X121089432Y-98955144D01*
X121078347Y-98918604D01*
X121074000Y-98874462D01*
X121074000Y-97925538D01*
X121078347Y-97881396D01*
X121089432Y-97844856D01*
X121107433Y-97811179D01*
X121131659Y-97781659D01*
X121161179Y-97757433D01*
X121194856Y-97739432D01*
X121231396Y-97728347D01*
X121275538Y-97724000D01*
X122724462Y-97724000D01*
X122768604Y-97728347D01*
X122768604Y-97728347D01*
G37*
G36*
X68810442Y-96885518D02*
G01*
X68876627Y-96892037D01*
X69046466Y-96943557D01*
X69202991Y-97027222D01*
X69220569Y-97041648D01*
X69340186Y-97139814D01*
X69423448Y-97241271D01*
X69452778Y-97277009D01*
X69536443Y-97433534D01*
X69587963Y-97603373D01*
X69605359Y-97780000D01*
X69587963Y-97956627D01*
X69536443Y-98126466D01*
X69452778Y-98282991D01*
X69445673Y-98291648D01*
X69340186Y-98420186D01*
X69238729Y-98503448D01*
X69202991Y-98532778D01*
X69124728Y-98574611D01*
X69083212Y-98596802D01*
X69046466Y-98616443D01*
X68876627Y-98667963D01*
X68810443Y-98674481D01*
X68744260Y-98681000D01*
X68655740Y-98681000D01*
X68589557Y-98674481D01*
X68523373Y-98667963D01*
X68353534Y-98616443D01*
X68316789Y-98596802D01*
X68275272Y-98574611D01*
X68197009Y-98532778D01*
X68161271Y-98503448D01*
X68059814Y-98420186D01*
X67954327Y-98291648D01*
X67947222Y-98282991D01*
X67863557Y-98126466D01*
X67812037Y-97956627D01*
X67794641Y-97780000D01*
X67812037Y-97603373D01*
X67863557Y-97433534D01*
X67947222Y-97277009D01*
X67976552Y-97241271D01*
X68059814Y-97139814D01*
X68179431Y-97041648D01*
X68197009Y-97027222D01*
X68353534Y-96943557D01*
X68523373Y-96892037D01*
X68589558Y-96885518D01*
X68655740Y-96879000D01*
X68744260Y-96879000D01*
X68810442Y-96885518D01*
X68810442Y-96885518D01*
G37*
G36*
X84050442Y-96885518D02*
G01*
X84116627Y-96892037D01*
X84286466Y-96943557D01*
X84442991Y-97027222D01*
X84460569Y-97041648D01*
X84580186Y-97139814D01*
X84663448Y-97241271D01*
X84692778Y-97277009D01*
X84776443Y-97433534D01*
X84827963Y-97603373D01*
X84845359Y-97780000D01*
X84827963Y-97956627D01*
X84776443Y-98126466D01*
X84692778Y-98282991D01*
X84685673Y-98291648D01*
X84580186Y-98420186D01*
X84478729Y-98503448D01*
X84442991Y-98532778D01*
X84364728Y-98574611D01*
X84323212Y-98596802D01*
X84286466Y-98616443D01*
X84116627Y-98667963D01*
X84050443Y-98674481D01*
X83984260Y-98681000D01*
X83895740Y-98681000D01*
X83829557Y-98674481D01*
X83763373Y-98667963D01*
X83593534Y-98616443D01*
X83556789Y-98596802D01*
X83515272Y-98574611D01*
X83437009Y-98532778D01*
X83401271Y-98503448D01*
X83299814Y-98420186D01*
X83194327Y-98291648D01*
X83187222Y-98282991D01*
X83103557Y-98126466D01*
X83052037Y-97956627D01*
X83034641Y-97780000D01*
X83052037Y-97603373D01*
X83103557Y-97433534D01*
X83187222Y-97277009D01*
X83216552Y-97241271D01*
X83299814Y-97139814D01*
X83419431Y-97041648D01*
X83437009Y-97027222D01*
X83593534Y-96943557D01*
X83763373Y-96892037D01*
X83829558Y-96885518D01*
X83895740Y-96879000D01*
X83984260Y-96879000D01*
X84050442Y-96885518D01*
X84050442Y-96885518D01*
G37*
G36*
X108768604Y-97328347D02*
G01*
X108805144Y-97339432D01*
X108838821Y-97357433D01*
X108868341Y-97381659D01*
X108892567Y-97411179D01*
X108910568Y-97444856D01*
X108921653Y-97481396D01*
X108926000Y-97525538D01*
X108926000Y-98474462D01*
X108921653Y-98518604D01*
X108910568Y-98555144D01*
X108892567Y-98588821D01*
X108868341Y-98618341D01*
X108838821Y-98642567D01*
X108805144Y-98660568D01*
X108768604Y-98671653D01*
X108724462Y-98676000D01*
X107275538Y-98676000D01*
X107231396Y-98671653D01*
X107194856Y-98660568D01*
X107161179Y-98642567D01*
X107131659Y-98618341D01*
X107107433Y-98588821D01*
X107089432Y-98555144D01*
X107078347Y-98518604D01*
X107074000Y-98474462D01*
X107074000Y-97525538D01*
X107078347Y-97481396D01*
X107089432Y-97444856D01*
X107107433Y-97411179D01*
X107131659Y-97381659D01*
X107161179Y-97357433D01*
X107194856Y-97339432D01*
X107231396Y-97328347D01*
X107275538Y-97324000D01*
X108724462Y-97324000D01*
X108768604Y-97328347D01*
X108768604Y-97328347D01*
G37*
G36*
X79568604Y-96828347D02*
G01*
X79605144Y-96839432D01*
X79638821Y-96857433D01*
X79668341Y-96881659D01*
X79692567Y-96911179D01*
X79710568Y-96944856D01*
X79721653Y-96981396D01*
X79726000Y-97025538D01*
X79726000Y-97974462D01*
X79721653Y-98018604D01*
X79710568Y-98055144D01*
X79692567Y-98088821D01*
X79668341Y-98118341D01*
X79638821Y-98142567D01*
X79605144Y-98160568D01*
X79568604Y-98171653D01*
X79524462Y-98176000D01*
X78075538Y-98176000D01*
X78031396Y-98171653D01*
X77994856Y-98160568D01*
X77961179Y-98142567D01*
X77931659Y-98118341D01*
X77907433Y-98088821D01*
X77889432Y-98055144D01*
X77878347Y-98018604D01*
X77874000Y-97974462D01*
X77874000Y-97025538D01*
X77878347Y-96981396D01*
X77889432Y-96944856D01*
X77907433Y-96911179D01*
X77931659Y-96881659D01*
X77961179Y-96857433D01*
X77994856Y-96839432D01*
X78031396Y-96828347D01*
X78075538Y-96824000D01*
X79524462Y-96824000D01*
X79568604Y-96828347D01*
X79568604Y-96828347D01*
G37*
G36*
X117526000Y-97986000D02*
G01*
X115874000Y-97986000D01*
X115874000Y-97284000D01*
X117526000Y-97284000D01*
X117526000Y-97986000D01*
X117526000Y-97986000D01*
G37*
G36*
X112126000Y-97986000D02*
G01*
X110474000Y-97986000D01*
X110474000Y-97284000D01*
X112126000Y-97284000D01*
X112126000Y-97986000D01*
X112126000Y-97986000D01*
G37*
G36*
X133768604Y-95528347D02*
G01*
X133805144Y-95539432D01*
X133838821Y-95557433D01*
X133868341Y-95581659D01*
X133892567Y-95611179D01*
X133910568Y-95644856D01*
X133921653Y-95681396D01*
X133926000Y-95725538D01*
X133926000Y-96674462D01*
X133921653Y-96718604D01*
X133910568Y-96755144D01*
X133892567Y-96788821D01*
X133868341Y-96818341D01*
X133838821Y-96842567D01*
X133805144Y-96860568D01*
X133768604Y-96871653D01*
X133724462Y-96876000D01*
X132275538Y-96876000D01*
X132231396Y-96871653D01*
X132194856Y-96860568D01*
X132161179Y-96842567D01*
X132131659Y-96818341D01*
X132107433Y-96788821D01*
X132089432Y-96755144D01*
X132078347Y-96718604D01*
X132074000Y-96674462D01*
X132074000Y-95725538D01*
X132078347Y-95681396D01*
X132089432Y-95644856D01*
X132107433Y-95611179D01*
X132131659Y-95581659D01*
X132161179Y-95557433D01*
X132194856Y-95539432D01*
X132231396Y-95528347D01*
X132275538Y-95524000D01*
X133724462Y-95524000D01*
X133768604Y-95528347D01*
X133768604Y-95528347D01*
G37*
G36*
X112126000Y-96716000D02*
G01*
X110474000Y-96716000D01*
X110474000Y-96014000D01*
X112126000Y-96014000D01*
X112126000Y-96716000D01*
X112126000Y-96716000D01*
G37*
G36*
X117526000Y-96716000D02*
G01*
X115874000Y-96716000D01*
X115874000Y-96014000D01*
X117526000Y-96014000D01*
X117526000Y-96716000D01*
X117526000Y-96716000D01*
G37*
G36*
X122768604Y-94928347D02*
G01*
X122805144Y-94939432D01*
X122838821Y-94957433D01*
X122868341Y-94981659D01*
X122892567Y-95011179D01*
X122910568Y-95044856D01*
X122921653Y-95081396D01*
X122926000Y-95125538D01*
X122926000Y-96074462D01*
X122921653Y-96118604D01*
X122910568Y-96155144D01*
X122892567Y-96188821D01*
X122868341Y-96218341D01*
X122838821Y-96242567D01*
X122805144Y-96260568D01*
X122768604Y-96271653D01*
X122724462Y-96276000D01*
X121275538Y-96276000D01*
X121231396Y-96271653D01*
X121194856Y-96260568D01*
X121161179Y-96242567D01*
X121131659Y-96218341D01*
X121107433Y-96188821D01*
X121089432Y-96155144D01*
X121078347Y-96118604D01*
X121074000Y-96074462D01*
X121074000Y-95125538D01*
X121078347Y-95081396D01*
X121089432Y-95044856D01*
X121107433Y-95011179D01*
X121131659Y-94981659D01*
X121161179Y-94957433D01*
X121194856Y-94939432D01*
X121231396Y-94928347D01*
X121275538Y-94924000D01*
X122724462Y-94924000D01*
X122768604Y-94928347D01*
X122768604Y-94928347D01*
G37*
G36*
X84050443Y-94345519D02*
G01*
X84116627Y-94352037D01*
X84286466Y-94403557D01*
X84442991Y-94487222D01*
X84478729Y-94516552D01*
X84580186Y-94599814D01*
X84654955Y-94690922D01*
X84692778Y-94737009D01*
X84776443Y-94893534D01*
X84827963Y-95063373D01*
X84845359Y-95240000D01*
X84827963Y-95416627D01*
X84789148Y-95544583D01*
X84776442Y-95586468D01*
X84766216Y-95605600D01*
X84692778Y-95742991D01*
X84663448Y-95778729D01*
X84580186Y-95880186D01*
X84478729Y-95963448D01*
X84442991Y-95992778D01*
X84286466Y-96076443D01*
X84116627Y-96127963D01*
X84050443Y-96134481D01*
X83984260Y-96141000D01*
X83895740Y-96141000D01*
X83829557Y-96134481D01*
X83763373Y-96127963D01*
X83593534Y-96076443D01*
X83437009Y-95992778D01*
X83401271Y-95963448D01*
X83299814Y-95880186D01*
X83216552Y-95778729D01*
X83187222Y-95742991D01*
X83113784Y-95605600D01*
X83103558Y-95586468D01*
X83090852Y-95544583D01*
X83052037Y-95416627D01*
X83034641Y-95240000D01*
X83052037Y-95063373D01*
X83103557Y-94893534D01*
X83187222Y-94737009D01*
X83225045Y-94690922D01*
X83299814Y-94599814D01*
X83401271Y-94516552D01*
X83437009Y-94487222D01*
X83593534Y-94403557D01*
X83763373Y-94352037D01*
X83829557Y-94345519D01*
X83895740Y-94339000D01*
X83984260Y-94339000D01*
X84050443Y-94345519D01*
X84050443Y-94345519D01*
G37*
G36*
X68810443Y-94345519D02*
G01*
X68876627Y-94352037D01*
X69046466Y-94403557D01*
X69202991Y-94487222D01*
X69238729Y-94516552D01*
X69340186Y-94599814D01*
X69414955Y-94690922D01*
X69452778Y-94737009D01*
X69536443Y-94893534D01*
X69587963Y-95063373D01*
X69605359Y-95240000D01*
X69587963Y-95416627D01*
X69549148Y-95544583D01*
X69536442Y-95586468D01*
X69526216Y-95605600D01*
X69452778Y-95742991D01*
X69423448Y-95778729D01*
X69340186Y-95880186D01*
X69238729Y-95963448D01*
X69202991Y-95992778D01*
X69046466Y-96076443D01*
X68876627Y-96127963D01*
X68810443Y-96134481D01*
X68744260Y-96141000D01*
X68655740Y-96141000D01*
X68589557Y-96134481D01*
X68523373Y-96127963D01*
X68353534Y-96076443D01*
X68197009Y-95992778D01*
X68161271Y-95963448D01*
X68059814Y-95880186D01*
X67976552Y-95778729D01*
X67947222Y-95742991D01*
X67873784Y-95605600D01*
X67863558Y-95586468D01*
X67850852Y-95544583D01*
X67812037Y-95416627D01*
X67794641Y-95240000D01*
X67812037Y-95063373D01*
X67863557Y-94893534D01*
X67947222Y-94737009D01*
X67985045Y-94690922D01*
X68059814Y-94599814D01*
X68161271Y-94516552D01*
X68197009Y-94487222D01*
X68353534Y-94403557D01*
X68523373Y-94352037D01*
X68589557Y-94345519D01*
X68655740Y-94339000D01*
X68744260Y-94339000D01*
X68810443Y-94345519D01*
X68810443Y-94345519D01*
G37*
G36*
X108768604Y-94528347D02*
G01*
X108805144Y-94539432D01*
X108838821Y-94557433D01*
X108868341Y-94581659D01*
X108892567Y-94611179D01*
X108910568Y-94644856D01*
X108921653Y-94681396D01*
X108926000Y-94725538D01*
X108926000Y-95674462D01*
X108921653Y-95718604D01*
X108910568Y-95755144D01*
X108892567Y-95788821D01*
X108868341Y-95818341D01*
X108838821Y-95842567D01*
X108805144Y-95860568D01*
X108768604Y-95871653D01*
X108724462Y-95876000D01*
X107275538Y-95876000D01*
X107231396Y-95871653D01*
X107194856Y-95860568D01*
X107161179Y-95842567D01*
X107131659Y-95818341D01*
X107107433Y-95788821D01*
X107089432Y-95755144D01*
X107078347Y-95718604D01*
X107074000Y-95674462D01*
X107074000Y-94725538D01*
X107078347Y-94681396D01*
X107089432Y-94644856D01*
X107107433Y-94611179D01*
X107131659Y-94581659D01*
X107161179Y-94557433D01*
X107194856Y-94539432D01*
X107231396Y-94528347D01*
X107275538Y-94524000D01*
X108724462Y-94524000D01*
X108768604Y-94528347D01*
X108768604Y-94528347D01*
G37*
G36*
X112126000Y-95446000D02*
G01*
X110474000Y-95446000D01*
X110474000Y-94744000D01*
X112126000Y-94744000D01*
X112126000Y-95446000D01*
X112126000Y-95446000D01*
G37*
G36*
X117526000Y-95446000D02*
G01*
X115874000Y-95446000D01*
X115874000Y-94744000D01*
X117526000Y-94744000D01*
X117526000Y-95446000D01*
X117526000Y-95446000D01*
G37*
G36*
X79568604Y-94028347D02*
G01*
X79605144Y-94039432D01*
X79638821Y-94057433D01*
X79668341Y-94081659D01*
X79692567Y-94111179D01*
X79710568Y-94144856D01*
X79721653Y-94181396D01*
X79726000Y-94225538D01*
X79726000Y-95174462D01*
X79721653Y-95218604D01*
X79710568Y-95255144D01*
X79692567Y-95288821D01*
X79668341Y-95318341D01*
X79638821Y-95342567D01*
X79605144Y-95360568D01*
X79568604Y-95371653D01*
X79524462Y-95376000D01*
X78075538Y-95376000D01*
X78031396Y-95371653D01*
X77994856Y-95360568D01*
X77961179Y-95342567D01*
X77931659Y-95318341D01*
X77907433Y-95288821D01*
X77889432Y-95255144D01*
X77878347Y-95218604D01*
X77874000Y-95174462D01*
X77874000Y-94225538D01*
X77878347Y-94181396D01*
X77889432Y-94144856D01*
X77907433Y-94111179D01*
X77931659Y-94081659D01*
X77961179Y-94057433D01*
X77994856Y-94039432D01*
X78031396Y-94028347D01*
X78075538Y-94024000D01*
X79524462Y-94024000D01*
X79568604Y-94028347D01*
X79568604Y-94028347D01*
G37*
G36*
X74568604Y-93828347D02*
G01*
X74605144Y-93839432D01*
X74638821Y-93857433D01*
X74668341Y-93881659D01*
X74692567Y-93911179D01*
X74710568Y-93944856D01*
X74721653Y-93981396D01*
X74726000Y-94025538D01*
X74726000Y-94974462D01*
X74721653Y-95018604D01*
X74710568Y-95055144D01*
X74692567Y-95088821D01*
X74668341Y-95118341D01*
X74638821Y-95142567D01*
X74605144Y-95160568D01*
X74568604Y-95171653D01*
X74524462Y-95176000D01*
X73075538Y-95176000D01*
X73031396Y-95171653D01*
X72994856Y-95160568D01*
X72961179Y-95142567D01*
X72931659Y-95118341D01*
X72907433Y-95088821D01*
X72889432Y-95055144D01*
X72878347Y-95018604D01*
X72874000Y-94974462D01*
X72874000Y-94025538D01*
X72878347Y-93981396D01*
X72889432Y-93944856D01*
X72907433Y-93911179D01*
X72931659Y-93881659D01*
X72961179Y-93857433D01*
X72994856Y-93839432D01*
X73031396Y-93828347D01*
X73075538Y-93824000D01*
X74524462Y-93824000D01*
X74568604Y-93828347D01*
X74568604Y-93828347D01*
G37*
G36*
X58211000Y-94896000D02*
G01*
X56989000Y-94896000D01*
X56989000Y-92634000D01*
X58211000Y-92634000D01*
X58211000Y-94896000D01*
X58211000Y-94896000D01*
G37*
G36*
X120018604Y-92178347D02*
G01*
X120055144Y-92189432D01*
X120088821Y-92207433D01*
X120118341Y-92231659D01*
X120142567Y-92261179D01*
X120160568Y-92294856D01*
X120171653Y-92331396D01*
X120176000Y-92375538D01*
X120176000Y-93824462D01*
X120171653Y-93868604D01*
X120160568Y-93905144D01*
X120142567Y-93938821D01*
X120118341Y-93968341D01*
X120088821Y-93992567D01*
X120055144Y-94010568D01*
X120018604Y-94021653D01*
X119974462Y-94026000D01*
X119025538Y-94026000D01*
X118981396Y-94021653D01*
X118944856Y-94010568D01*
X118911179Y-93992567D01*
X118881659Y-93968341D01*
X118857433Y-93938821D01*
X118839432Y-93905144D01*
X118828347Y-93868604D01*
X118824000Y-93824462D01*
X118824000Y-92375538D01*
X118828347Y-92331396D01*
X118839432Y-92294856D01*
X118857433Y-92261179D01*
X118881659Y-92231659D01*
X118911179Y-92207433D01*
X118944856Y-92189432D01*
X118981396Y-92178347D01*
X119025538Y-92174000D01*
X119974462Y-92174000D01*
X120018604Y-92178347D01*
X120018604Y-92178347D01*
G37*
G36*
X122818604Y-92178347D02*
G01*
X122855144Y-92189432D01*
X122888821Y-92207433D01*
X122918341Y-92231659D01*
X122942567Y-92261179D01*
X122960568Y-92294856D01*
X122971653Y-92331396D01*
X122976000Y-92375538D01*
X122976000Y-93824462D01*
X122971653Y-93868604D01*
X122960568Y-93905144D01*
X122942567Y-93938821D01*
X122918341Y-93968341D01*
X122888821Y-93992567D01*
X122855144Y-94010568D01*
X122818604Y-94021653D01*
X122774462Y-94026000D01*
X121825538Y-94026000D01*
X121781396Y-94021653D01*
X121744856Y-94010568D01*
X121711179Y-93992567D01*
X121681659Y-93968341D01*
X121657433Y-93938821D01*
X121639432Y-93905144D01*
X121628347Y-93868604D01*
X121624000Y-93824462D01*
X121624000Y-92375538D01*
X121628347Y-92331396D01*
X121639432Y-92294856D01*
X121657433Y-92261179D01*
X121681659Y-92231659D01*
X121711179Y-92207433D01*
X121744856Y-92189432D01*
X121781396Y-92178347D01*
X121825538Y-92174000D01*
X122774462Y-92174000D01*
X122818604Y-92178347D01*
X122818604Y-92178347D01*
G37*
G36*
X112768604Y-92351348D02*
G01*
X112805144Y-92362433D01*
X112838821Y-92380434D01*
X112868341Y-92404660D01*
X112892567Y-92434180D01*
X112910568Y-92467857D01*
X112921653Y-92504397D01*
X112926000Y-92548539D01*
X112926000Y-93497463D01*
X112921653Y-93541605D01*
X112910568Y-93578145D01*
X112892567Y-93611822D01*
X112868341Y-93641342D01*
X112838821Y-93665568D01*
X112805144Y-93683569D01*
X112768604Y-93694654D01*
X112724462Y-93699001D01*
X111275538Y-93699001D01*
X111231396Y-93694654D01*
X111194856Y-93683569D01*
X111161179Y-93665568D01*
X111131659Y-93641342D01*
X111107433Y-93611822D01*
X111089432Y-93578145D01*
X111078347Y-93541605D01*
X111074000Y-93497463D01*
X111074000Y-92548539D01*
X111078347Y-92504397D01*
X111089432Y-92467857D01*
X111107433Y-92434180D01*
X111131659Y-92404660D01*
X111161179Y-92380434D01*
X111194856Y-92362433D01*
X111231396Y-92351348D01*
X111275538Y-92347001D01*
X112724462Y-92347001D01*
X112768604Y-92351348D01*
X112768604Y-92351348D01*
G37*
G36*
X116873605Y-92351348D02*
G01*
X116910145Y-92362433D01*
X116943822Y-92380434D01*
X116973342Y-92404660D01*
X116997568Y-92434180D01*
X117015569Y-92467857D01*
X117026654Y-92504397D01*
X117031001Y-92548539D01*
X117031001Y-93497463D01*
X117026654Y-93541605D01*
X117015569Y-93578145D01*
X116997568Y-93611822D01*
X116973342Y-93641342D01*
X116943822Y-93665568D01*
X116910145Y-93683569D01*
X116873605Y-93694654D01*
X116829463Y-93699001D01*
X115380539Y-93699001D01*
X115336397Y-93694654D01*
X115299857Y-93683569D01*
X115266180Y-93665568D01*
X115236660Y-93641342D01*
X115212434Y-93611822D01*
X115194433Y-93578145D01*
X115183348Y-93541605D01*
X115179001Y-93497463D01*
X115179001Y-92548539D01*
X115183348Y-92504397D01*
X115194433Y-92467857D01*
X115212434Y-92434180D01*
X115236660Y-92404660D01*
X115266180Y-92380434D01*
X115299857Y-92362433D01*
X115336397Y-92351348D01*
X115380539Y-92347001D01*
X116829463Y-92347001D01*
X116873605Y-92351348D01*
X116873605Y-92351348D01*
G37*
G36*
X69601000Y-93601000D02*
G01*
X67799000Y-93601000D01*
X67799000Y-91799000D01*
X69601000Y-91799000D01*
X69601000Y-93601000D01*
X69601000Y-93601000D01*
G37*
G36*
X84841000Y-93601000D02*
G01*
X83039000Y-93601000D01*
X83039000Y-91799000D01*
X84841000Y-91799000D01*
X84841000Y-93601000D01*
X84841000Y-93601000D01*
G37*
G36*
X74568604Y-91028347D02*
G01*
X74605144Y-91039432D01*
X74638821Y-91057433D01*
X74668341Y-91081659D01*
X74692567Y-91111179D01*
X74710568Y-91144856D01*
X74721653Y-91181396D01*
X74726000Y-91225538D01*
X74726000Y-92174462D01*
X74721653Y-92218604D01*
X74710568Y-92255144D01*
X74692567Y-92288821D01*
X74668341Y-92318341D01*
X74638821Y-92342567D01*
X74605144Y-92360568D01*
X74568604Y-92371653D01*
X74524462Y-92376000D01*
X73075538Y-92376000D01*
X73031396Y-92371653D01*
X72994856Y-92360568D01*
X72961179Y-92342567D01*
X72931659Y-92318341D01*
X72907433Y-92288821D01*
X72889432Y-92255144D01*
X72878347Y-92218604D01*
X72874000Y-92174462D01*
X72874000Y-91225538D01*
X72878347Y-91181396D01*
X72889432Y-91144856D01*
X72907433Y-91111179D01*
X72931659Y-91081659D01*
X72961179Y-91057433D01*
X72994856Y-91039432D01*
X73031396Y-91028347D01*
X73075538Y-91024000D01*
X74524462Y-91024000D01*
X74568604Y-91028347D01*
X74568604Y-91028347D01*
G37*
G36*
X102431000Y-92011000D02*
G01*
X100169000Y-92011000D01*
X100169000Y-90789000D01*
X102431000Y-90789000D01*
X102431000Y-92011000D01*
X102431000Y-92011000D01*
G37*
G36*
X95701000Y-92011000D02*
G01*
X93439000Y-92011000D01*
X93439000Y-90789000D01*
X95701000Y-90789000D01*
X95701000Y-92011000D01*
X95701000Y-92011000D01*
G37*
G36*
X116873605Y-89551348D02*
G01*
X116910145Y-89562433D01*
X116943822Y-89580434D01*
X116973342Y-89604660D01*
X116997568Y-89634180D01*
X117015569Y-89667857D01*
X117026654Y-89704397D01*
X117031001Y-89748539D01*
X117031001Y-90697463D01*
X117026654Y-90741605D01*
X117015569Y-90778145D01*
X116997568Y-90811822D01*
X116973342Y-90841342D01*
X116943822Y-90865568D01*
X116910145Y-90883569D01*
X116873605Y-90894654D01*
X116829463Y-90899001D01*
X115380539Y-90899001D01*
X115336397Y-90894654D01*
X115299857Y-90883569D01*
X115266180Y-90865568D01*
X115236660Y-90841342D01*
X115212434Y-90811822D01*
X115194433Y-90778145D01*
X115183348Y-90741605D01*
X115179001Y-90697463D01*
X115179001Y-89748539D01*
X115183348Y-89704397D01*
X115194433Y-89667857D01*
X115212434Y-89634180D01*
X115236660Y-89604660D01*
X115266180Y-89580434D01*
X115299857Y-89562433D01*
X115336397Y-89551348D01*
X115380539Y-89547001D01*
X116829463Y-89547001D01*
X116873605Y-89551348D01*
X116873605Y-89551348D01*
G37*
G36*
X112768604Y-89551348D02*
G01*
X112805144Y-89562433D01*
X112838821Y-89580434D01*
X112868341Y-89604660D01*
X112892567Y-89634180D01*
X112910568Y-89667857D01*
X112921653Y-89704397D01*
X112926000Y-89748539D01*
X112926000Y-90697463D01*
X112921653Y-90741605D01*
X112910568Y-90778145D01*
X112892567Y-90811822D01*
X112868341Y-90841342D01*
X112838821Y-90865568D01*
X112805144Y-90883569D01*
X112768604Y-90894654D01*
X112724462Y-90899001D01*
X111275538Y-90899001D01*
X111231396Y-90894654D01*
X111194856Y-90883569D01*
X111161179Y-90865568D01*
X111131659Y-90841342D01*
X111107433Y-90811822D01*
X111089432Y-90778145D01*
X111078347Y-90741605D01*
X111074000Y-90697463D01*
X111074000Y-89748539D01*
X111078347Y-89704397D01*
X111089432Y-89667857D01*
X111107433Y-89634180D01*
X111131659Y-89604660D01*
X111161179Y-89580434D01*
X111194856Y-89562433D01*
X111231396Y-89551348D01*
X111275538Y-89547001D01*
X112724462Y-89547001D01*
X112768604Y-89551348D01*
X112768604Y-89551348D01*
G37*
G36*
X58211000Y-88166000D02*
G01*
X56989000Y-88166000D01*
X56989000Y-85904000D01*
X58211000Y-85904000D01*
X58211000Y-88166000D01*
X58211000Y-88166000D01*
G37*
G36*
X73218039Y-83192250D02*
G01*
X73407372Y-83270675D01*
X73541251Y-83326129D01*
X73832134Y-83520491D01*
X74079509Y-83767866D01*
X74273871Y-84058749D01*
X74273871Y-84058750D01*
X74407750Y-84381961D01*
X74476000Y-84725078D01*
X74476000Y-85074922D01*
X74407750Y-85418039D01*
X74329325Y-85607372D01*
X74273871Y-85741251D01*
X74079509Y-86032134D01*
X73832134Y-86279509D01*
X73541251Y-86473871D01*
X73407372Y-86529325D01*
X73218039Y-86607750D01*
X72874922Y-86676000D01*
X72525078Y-86676000D01*
X72181961Y-86607750D01*
X71992628Y-86529325D01*
X71858749Y-86473871D01*
X71567866Y-86279509D01*
X71320491Y-86032134D01*
X71126129Y-85741251D01*
X71070675Y-85607372D01*
X70992250Y-85418039D01*
X70924000Y-85074922D01*
X70924000Y-84725078D01*
X70992250Y-84381961D01*
X71126129Y-84058750D01*
X71126129Y-84058749D01*
X71320491Y-83767866D01*
X71567866Y-83520491D01*
X71858749Y-83326129D01*
X71992628Y-83270675D01*
X72181961Y-83192250D01*
X72525078Y-83124000D01*
X72874922Y-83124000D01*
X73218039Y-83192250D01*
X73218039Y-83192250D01*
G37*
G36*
X64691000Y-80126000D02*
G01*
X57249000Y-80126000D01*
X57249000Y-73674000D01*
X64691000Y-73674000D01*
X64691000Y-80126000D01*
X64691000Y-80126000D01*
G37*
G36*
X143351000Y-80126000D02*
G01*
X135909000Y-80126000D01*
X135909000Y-73674000D01*
X143351000Y-73674000D01*
X143351000Y-80126000D01*
X143351000Y-80126000D01*
G37*
G36*
X55626000Y-70726000D02*
G01*
X54174000Y-70726000D01*
X54174000Y-69274000D01*
X55626000Y-69274000D01*
X55626000Y-70726000D01*
X55626000Y-70726000D01*
G37*
G36*
X128418039Y-67192250D02*
G01*
X128607372Y-67270675D01*
X128741251Y-67326129D01*
X129032134Y-67520491D01*
X129279509Y-67767866D01*
X129473871Y-68058749D01*
X129473871Y-68058750D01*
X129607750Y-68381961D01*
X129676000Y-68725078D01*
X129676000Y-69074922D01*
X129607750Y-69418039D01*
X129577859Y-69490201D01*
X129473871Y-69741251D01*
X129279509Y-70032134D01*
X129032134Y-70279509D01*
X128741251Y-70473871D01*
X128607372Y-70529325D01*
X128418039Y-70607750D01*
X128074922Y-70676000D01*
X127725078Y-70676000D01*
X127381961Y-70607750D01*
X127192628Y-70529325D01*
X127058749Y-70473871D01*
X126767866Y-70279509D01*
X126520491Y-70032134D01*
X126326129Y-69741251D01*
X126222141Y-69490201D01*
X126192250Y-69418039D01*
X126124000Y-69074922D01*
X126124000Y-68725078D01*
X126192250Y-68381961D01*
X126326129Y-68058750D01*
X126326129Y-68058749D01*
X126520491Y-67767866D01*
X126767866Y-67520491D01*
X127058749Y-67326129D01*
X127192628Y-67270675D01*
X127381961Y-67192250D01*
X127725078Y-67124000D01*
X128074922Y-67124000D01*
X128418039Y-67192250D01*
X128418039Y-67192250D01*
G37*
G36*
X147326000Y-70626000D02*
G01*
X145874000Y-70626000D01*
X145874000Y-69174000D01*
X147326000Y-69174000D01*
X147326000Y-70626000D01*
X147326000Y-70626000D01*
G37*
G36*
X64733444Y-67701882D02*
G01*
X64960201Y-67795808D01*
X64960202Y-67795809D01*
X65164279Y-67932168D01*
X65337832Y-68105721D01*
X65428944Y-68242081D01*
X65474192Y-68309799D01*
X65568118Y-68536556D01*
X65616000Y-68777278D01*
X65616000Y-69022722D01*
X65568118Y-69263444D01*
X65474192Y-69490201D01*
X65474191Y-69490202D01*
X65337832Y-69694279D01*
X65164279Y-69867832D01*
X65027919Y-69958944D01*
X64960201Y-70004192D01*
X64733444Y-70098118D01*
X64492722Y-70146000D01*
X64247278Y-70146000D01*
X64006556Y-70098118D01*
X63779799Y-70004192D01*
X63712081Y-69958944D01*
X63575721Y-69867832D01*
X63402168Y-69694279D01*
X63265809Y-69490202D01*
X63265808Y-69490201D01*
X63171882Y-69263444D01*
X63124000Y-69022722D01*
X63124000Y-68777278D01*
X63171882Y-68536556D01*
X63265808Y-68309799D01*
X63311056Y-68242081D01*
X63402168Y-68105721D01*
X63575721Y-67932168D01*
X63779798Y-67795809D01*
X63779799Y-67795808D01*
X64006556Y-67701882D01*
X64247278Y-67654000D01*
X64492722Y-67654000D01*
X64733444Y-67701882D01*
X64733444Y-67701882D01*
G37*
M02*
