G04 #@! TF.GenerationSoftware,KiCad,Pcbnew,(5.1.0)-1*
G04 #@! TF.CreationDate,2019-06-24T09:32:06-03:00*
G04 #@! TF.ProjectId,Main,4d61696e-2e6b-4696-9361-645f70636258,rev?*
G04 #@! TF.SameCoordinates,Original*
G04 #@! TF.FileFunction,Copper,L2,Bot*
G04 #@! TF.FilePolarity,Positive*
%FSLAX46Y46*%
G04 Gerber Fmt 4.6, Leading zero omitted, Abs format (unit mm)*
G04 Created by KiCad (PCBNEW (5.1.0)-1) date 2019-06-24 09:32:06*
%MOMM*%
%LPD*%
G04 APERTURE LIST*
%ADD10R,1.700000X1.700000*%
%ADD11O,1.700000X1.700000*%
%ADD12R,1.350000X1.350000*%
%ADD13O,1.350000X1.350000*%
%ADD14C,0.800000*%
%ADD15C,0.250000*%
%ADD16C,0.254000*%
G04 APERTURE END LIST*
D10*
X83940000Y-92700000D03*
D11*
X83940000Y-95240000D03*
X83940000Y-97780000D03*
D12*
X55600000Y-113400000D03*
X75600000Y-113400000D03*
X76600000Y-116400000D03*
X76600000Y-136400000D03*
D13*
X76600000Y-138400000D03*
D12*
X56600000Y-138400000D03*
X54900000Y-70000000D03*
X146600000Y-69900000D03*
X97600000Y-132800000D03*
D11*
X68700000Y-97780000D03*
X68700000Y-95240000D03*
D10*
X68700000Y-92700000D03*
D12*
X113800000Y-121000000D03*
D14*
X80700000Y-97500000D03*
X81060000Y-106960000D03*
X57600000Y-96000000D03*
X65350000Y-103850000D03*
X114176999Y-93023001D03*
X58600000Y-138400000D03*
X60750000Y-123450000D03*
X108000000Y-106400000D03*
X58300000Y-109000000D03*
X115435000Y-97635000D03*
X118195000Y-98905000D03*
X125200000Y-99000000D03*
X77400000Y-113400000D03*
X94200000Y-123800000D03*
X79850000Y-104550000D03*
X70780000Y-97780000D03*
D15*
X81099999Y-97899999D02*
X80700000Y-97500000D01*
X81459999Y-98259999D02*
X81099999Y-97899999D01*
X81459999Y-106560001D02*
X81459999Y-98259999D01*
X81060000Y-106960000D02*
X81459999Y-106560001D01*
X118290000Y-99000000D02*
X118195000Y-98905000D01*
X125200000Y-99000000D02*
X118290000Y-99000000D01*
X83800000Y-113400000D02*
X94200000Y-123800000D01*
X77400000Y-113400000D02*
X83800000Y-113400000D01*
X73080000Y-97780000D02*
X79850000Y-104550000D01*
X70780000Y-97780000D02*
X73080000Y-97780000D01*
D16*
G36*
X149200001Y-141580000D02*
G01*
X51460000Y-141580000D01*
X51460000Y-137725000D01*
X55286928Y-137725000D01*
X55290000Y-138114250D01*
X55448748Y-138272998D01*
X55290000Y-138272998D01*
X55290000Y-138527002D01*
X55448748Y-138527002D01*
X55290000Y-138685750D01*
X55286928Y-139075000D01*
X55299188Y-139199482D01*
X55335498Y-139319180D01*
X55394463Y-139429494D01*
X55473815Y-139526185D01*
X55570506Y-139605537D01*
X55680820Y-139664502D01*
X55800518Y-139700812D01*
X55925000Y-139713072D01*
X56314250Y-139710000D01*
X56473000Y-139551250D01*
X56473000Y-138527000D01*
X56453000Y-138527000D01*
X56453000Y-138273000D01*
X56473000Y-138273000D01*
X56473000Y-137248750D01*
X56727000Y-137248750D01*
X56727000Y-138273000D01*
X56747000Y-138273000D01*
X56747000Y-138527000D01*
X56727000Y-138527000D01*
X56727000Y-139551250D01*
X56885750Y-139710000D01*
X57275000Y-139713072D01*
X57399482Y-139700812D01*
X57519180Y-139664502D01*
X57629494Y-139605537D01*
X57726185Y-139526185D01*
X57805537Y-139429494D01*
X57864502Y-139319180D01*
X57900812Y-139199482D01*
X57913072Y-139075000D01*
X57910000Y-138685750D01*
X57751252Y-138527002D01*
X57910000Y-138527002D01*
X57910000Y-138400000D01*
X75283662Y-138400000D01*
X75308955Y-138656805D01*
X75383862Y-138903741D01*
X75505505Y-139131318D01*
X75669208Y-139330792D01*
X75868682Y-139494495D01*
X76096259Y-139616138D01*
X76343195Y-139691045D01*
X76535649Y-139710000D01*
X76664351Y-139710000D01*
X76856805Y-139691045D01*
X77103741Y-139616138D01*
X77331318Y-139494495D01*
X77530792Y-139330792D01*
X77694495Y-139131318D01*
X77816138Y-138903741D01*
X77891045Y-138656805D01*
X77916338Y-138400000D01*
X77891045Y-138143195D01*
X77816138Y-137896259D01*
X77694495Y-137668682D01*
X77637369Y-137599074D01*
X77726185Y-137526185D01*
X77805537Y-137429494D01*
X77864502Y-137319180D01*
X77900812Y-137199482D01*
X77913072Y-137075000D01*
X77913072Y-135725000D01*
X77900812Y-135600518D01*
X77864502Y-135480820D01*
X77805537Y-135370506D01*
X77726185Y-135273815D01*
X77629494Y-135194463D01*
X77519180Y-135135498D01*
X77399482Y-135099188D01*
X77275000Y-135086928D01*
X75925000Y-135086928D01*
X75800518Y-135099188D01*
X75680820Y-135135498D01*
X75570506Y-135194463D01*
X75473815Y-135273815D01*
X75394463Y-135370506D01*
X75335498Y-135480820D01*
X75299188Y-135600518D01*
X75286928Y-135725000D01*
X75286928Y-137075000D01*
X75299188Y-137199482D01*
X75335498Y-137319180D01*
X75394463Y-137429494D01*
X75473815Y-137526185D01*
X75562631Y-137599074D01*
X75505505Y-137668682D01*
X75383862Y-137896259D01*
X75308955Y-138143195D01*
X75283662Y-138400000D01*
X57910000Y-138400000D01*
X57910000Y-138272998D01*
X57751252Y-138272998D01*
X57910000Y-138114250D01*
X57913072Y-137725000D01*
X57900812Y-137600518D01*
X57864502Y-137480820D01*
X57805537Y-137370506D01*
X57726185Y-137273815D01*
X57629494Y-137194463D01*
X57519180Y-137135498D01*
X57399482Y-137099188D01*
X57275000Y-137086928D01*
X56885750Y-137090000D01*
X56727000Y-137248750D01*
X56473000Y-137248750D01*
X56314250Y-137090000D01*
X55925000Y-137086928D01*
X55800518Y-137099188D01*
X55680820Y-137135498D01*
X55570506Y-137194463D01*
X55473815Y-137273815D01*
X55394463Y-137370506D01*
X55335498Y-137480820D01*
X55299188Y-137600518D01*
X55286928Y-137725000D01*
X51460000Y-137725000D01*
X51460000Y-133475000D01*
X96286928Y-133475000D01*
X96299188Y-133599482D01*
X96335498Y-133719180D01*
X96394463Y-133829494D01*
X96473815Y-133926185D01*
X96570506Y-134005537D01*
X96680820Y-134064502D01*
X96800518Y-134100812D01*
X96925000Y-134113072D01*
X97314250Y-134110000D01*
X97473000Y-133951250D01*
X97473000Y-132927000D01*
X97727000Y-132927000D01*
X97727000Y-133951250D01*
X97885750Y-134110000D01*
X98275000Y-134113072D01*
X98399482Y-134100812D01*
X98519180Y-134064502D01*
X98629494Y-134005537D01*
X98726185Y-133926185D01*
X98805537Y-133829494D01*
X98864502Y-133719180D01*
X98900812Y-133599482D01*
X98913072Y-133475000D01*
X98910000Y-133085750D01*
X98751250Y-132927000D01*
X97727000Y-132927000D01*
X97473000Y-132927000D01*
X96448750Y-132927000D01*
X96290000Y-133085750D01*
X96286928Y-133475000D01*
X51460000Y-133475000D01*
X51460000Y-132125000D01*
X96286928Y-132125000D01*
X96290000Y-132514250D01*
X96448750Y-132673000D01*
X97473000Y-132673000D01*
X97473000Y-131648750D01*
X97727000Y-131648750D01*
X97727000Y-132673000D01*
X98751250Y-132673000D01*
X98910000Y-132514250D01*
X98913072Y-132125000D01*
X98900812Y-132000518D01*
X98864502Y-131880820D01*
X98805537Y-131770506D01*
X98726185Y-131673815D01*
X98629494Y-131594463D01*
X98519180Y-131535498D01*
X98399482Y-131499188D01*
X98275000Y-131486928D01*
X97885750Y-131490000D01*
X97727000Y-131648750D01*
X97473000Y-131648750D01*
X97314250Y-131490000D01*
X96925000Y-131486928D01*
X96800518Y-131499188D01*
X96680820Y-131535498D01*
X96570506Y-131594463D01*
X96473815Y-131673815D01*
X96394463Y-131770506D01*
X96335498Y-131880820D01*
X96299188Y-132000518D01*
X96286928Y-132125000D01*
X51460000Y-132125000D01*
X51460000Y-115725000D01*
X75286928Y-115725000D01*
X75286928Y-117075000D01*
X75299188Y-117199482D01*
X75335498Y-117319180D01*
X75394463Y-117429494D01*
X75473815Y-117526185D01*
X75570506Y-117605537D01*
X75680820Y-117664502D01*
X75800518Y-117700812D01*
X75925000Y-117713072D01*
X77275000Y-117713072D01*
X77399482Y-117700812D01*
X77519180Y-117664502D01*
X77629494Y-117605537D01*
X77726185Y-117526185D01*
X77805537Y-117429494D01*
X77864502Y-117319180D01*
X77900812Y-117199482D01*
X77913072Y-117075000D01*
X77913072Y-115725000D01*
X77900812Y-115600518D01*
X77864502Y-115480820D01*
X77805537Y-115370506D01*
X77726185Y-115273815D01*
X77629494Y-115194463D01*
X77519180Y-115135498D01*
X77399482Y-115099188D01*
X77275000Y-115086928D01*
X75925000Y-115086928D01*
X75800518Y-115099188D01*
X75680820Y-115135498D01*
X75570506Y-115194463D01*
X75473815Y-115273815D01*
X75394463Y-115370506D01*
X75335498Y-115480820D01*
X75299188Y-115600518D01*
X75286928Y-115725000D01*
X51460000Y-115725000D01*
X51460000Y-112725000D01*
X54286928Y-112725000D01*
X54286928Y-114075000D01*
X54299188Y-114199482D01*
X54335498Y-114319180D01*
X54394463Y-114429494D01*
X54473815Y-114526185D01*
X54570506Y-114605537D01*
X54680820Y-114664502D01*
X54800518Y-114700812D01*
X54925000Y-114713072D01*
X56275000Y-114713072D01*
X56399482Y-114700812D01*
X56519180Y-114664502D01*
X56629494Y-114605537D01*
X56726185Y-114526185D01*
X56805537Y-114429494D01*
X56864502Y-114319180D01*
X56900812Y-114199482D01*
X56913072Y-114075000D01*
X56913072Y-112725000D01*
X74286928Y-112725000D01*
X74286928Y-114075000D01*
X74299188Y-114199482D01*
X74335498Y-114319180D01*
X74394463Y-114429494D01*
X74473815Y-114526185D01*
X74570506Y-114605537D01*
X74680820Y-114664502D01*
X74800518Y-114700812D01*
X74925000Y-114713072D01*
X76275000Y-114713072D01*
X76399482Y-114700812D01*
X76519180Y-114664502D01*
X76629494Y-114605537D01*
X76726185Y-114526185D01*
X76805537Y-114429494D01*
X76864502Y-114319180D01*
X76872625Y-114292403D01*
X76909744Y-114317205D01*
X77098102Y-114395226D01*
X77298061Y-114435000D01*
X77501939Y-114435000D01*
X77701898Y-114395226D01*
X77890256Y-114317205D01*
X78059774Y-114203937D01*
X78103711Y-114160000D01*
X83485199Y-114160000D01*
X93165000Y-123839802D01*
X93165000Y-123901939D01*
X93204774Y-124101898D01*
X93282795Y-124290256D01*
X93396063Y-124459774D01*
X93540226Y-124603937D01*
X93709744Y-124717205D01*
X93898102Y-124795226D01*
X94098061Y-124835000D01*
X94301939Y-124835000D01*
X94501898Y-124795226D01*
X94690256Y-124717205D01*
X94859774Y-124603937D01*
X95003937Y-124459774D01*
X95117205Y-124290256D01*
X95195226Y-124101898D01*
X95235000Y-123901939D01*
X95235000Y-123698061D01*
X95195226Y-123498102D01*
X95117205Y-123309744D01*
X95003937Y-123140226D01*
X94859774Y-122996063D01*
X94690256Y-122882795D01*
X94501898Y-122804774D01*
X94301939Y-122765000D01*
X94239802Y-122765000D01*
X91799802Y-120325000D01*
X112486928Y-120325000D01*
X112486928Y-121675000D01*
X112499188Y-121799482D01*
X112535498Y-121919180D01*
X112594463Y-122029494D01*
X112673815Y-122126185D01*
X112770506Y-122205537D01*
X112880820Y-122264502D01*
X113000518Y-122300812D01*
X113125000Y-122313072D01*
X114475000Y-122313072D01*
X114599482Y-122300812D01*
X114719180Y-122264502D01*
X114829494Y-122205537D01*
X114926185Y-122126185D01*
X115005537Y-122029494D01*
X115064502Y-121919180D01*
X115100812Y-121799482D01*
X115113072Y-121675000D01*
X115113072Y-120325000D01*
X115100812Y-120200518D01*
X115064502Y-120080820D01*
X115005537Y-119970506D01*
X114926185Y-119873815D01*
X114829494Y-119794463D01*
X114719180Y-119735498D01*
X114599482Y-119699188D01*
X114475000Y-119686928D01*
X113125000Y-119686928D01*
X113000518Y-119699188D01*
X112880820Y-119735498D01*
X112770506Y-119794463D01*
X112673815Y-119873815D01*
X112594463Y-119970506D01*
X112535498Y-120080820D01*
X112499188Y-120200518D01*
X112486928Y-120325000D01*
X91799802Y-120325000D01*
X84363804Y-112889003D01*
X84340001Y-112859999D01*
X84224276Y-112765026D01*
X84092247Y-112694454D01*
X83948986Y-112650997D01*
X83837333Y-112640000D01*
X83837322Y-112640000D01*
X83800000Y-112636324D01*
X83762678Y-112640000D01*
X78103711Y-112640000D01*
X78059774Y-112596063D01*
X77890256Y-112482795D01*
X77701898Y-112404774D01*
X77501939Y-112365000D01*
X77298061Y-112365000D01*
X77098102Y-112404774D01*
X76909744Y-112482795D01*
X76872625Y-112507597D01*
X76864502Y-112480820D01*
X76805537Y-112370506D01*
X76726185Y-112273815D01*
X76629494Y-112194463D01*
X76519180Y-112135498D01*
X76399482Y-112099188D01*
X76275000Y-112086928D01*
X74925000Y-112086928D01*
X74800518Y-112099188D01*
X74680820Y-112135498D01*
X74570506Y-112194463D01*
X74473815Y-112273815D01*
X74394463Y-112370506D01*
X74335498Y-112480820D01*
X74299188Y-112600518D01*
X74286928Y-112725000D01*
X56913072Y-112725000D01*
X56900812Y-112600518D01*
X56864502Y-112480820D01*
X56805537Y-112370506D01*
X56726185Y-112273815D01*
X56629494Y-112194463D01*
X56519180Y-112135498D01*
X56399482Y-112099188D01*
X56275000Y-112086928D01*
X54925000Y-112086928D01*
X54800518Y-112099188D01*
X54680820Y-112135498D01*
X54570506Y-112194463D01*
X54473815Y-112273815D01*
X54394463Y-112370506D01*
X54335498Y-112480820D01*
X54299188Y-112600518D01*
X54286928Y-112725000D01*
X51460000Y-112725000D01*
X51460000Y-95240000D01*
X67207815Y-95240000D01*
X67236487Y-95531111D01*
X67321401Y-95811034D01*
X67459294Y-96069014D01*
X67644866Y-96295134D01*
X67870986Y-96480706D01*
X67925791Y-96510000D01*
X67870986Y-96539294D01*
X67644866Y-96724866D01*
X67459294Y-96950986D01*
X67321401Y-97208966D01*
X67236487Y-97488889D01*
X67207815Y-97780000D01*
X67236487Y-98071111D01*
X67321401Y-98351034D01*
X67459294Y-98609014D01*
X67644866Y-98835134D01*
X67870986Y-99020706D01*
X68128966Y-99158599D01*
X68408889Y-99243513D01*
X68627050Y-99265000D01*
X68772950Y-99265000D01*
X68991111Y-99243513D01*
X69271034Y-99158599D01*
X69529014Y-99020706D01*
X69755134Y-98835134D01*
X69940706Y-98609014D01*
X70011973Y-98475684D01*
X70120226Y-98583937D01*
X70289744Y-98697205D01*
X70478102Y-98775226D01*
X70678061Y-98815000D01*
X70881939Y-98815000D01*
X71081898Y-98775226D01*
X71270256Y-98697205D01*
X71439774Y-98583937D01*
X71483711Y-98540000D01*
X72765199Y-98540000D01*
X78815000Y-104589802D01*
X78815000Y-104651939D01*
X78854774Y-104851898D01*
X78932795Y-105040256D01*
X79046063Y-105209774D01*
X79190226Y-105353937D01*
X79359744Y-105467205D01*
X79548102Y-105545226D01*
X79748061Y-105585000D01*
X79951939Y-105585000D01*
X80151898Y-105545226D01*
X80340256Y-105467205D01*
X80509774Y-105353937D01*
X80653937Y-105209774D01*
X80699999Y-105140837D01*
X80699999Y-105988841D01*
X80569744Y-106042795D01*
X80400226Y-106156063D01*
X80256063Y-106300226D01*
X80142795Y-106469744D01*
X80064774Y-106658102D01*
X80025000Y-106858061D01*
X80025000Y-107061939D01*
X80064774Y-107261898D01*
X80142795Y-107450256D01*
X80256063Y-107619774D01*
X80400226Y-107763937D01*
X80569744Y-107877205D01*
X80758102Y-107955226D01*
X80958061Y-107995000D01*
X81161939Y-107995000D01*
X81361898Y-107955226D01*
X81550256Y-107877205D01*
X81719774Y-107763937D01*
X81863937Y-107619774D01*
X81977205Y-107450256D01*
X82055226Y-107261898D01*
X82095000Y-107061939D01*
X82095000Y-106984226D01*
X82165545Y-106852248D01*
X82209002Y-106708987D01*
X82219999Y-106597334D01*
X82219999Y-106597324D01*
X82223675Y-106560002D01*
X82219999Y-106522679D01*
X82219999Y-98297322D01*
X82223675Y-98259999D01*
X82219999Y-98222676D01*
X82219999Y-98222666D01*
X82209002Y-98111013D01*
X82165545Y-97967752D01*
X82094973Y-97835723D01*
X82000000Y-97719998D01*
X81970996Y-97696195D01*
X81735000Y-97460199D01*
X81735000Y-97398061D01*
X81695226Y-97198102D01*
X81617205Y-97009744D01*
X81503937Y-96840226D01*
X81359774Y-96696063D01*
X81190256Y-96582795D01*
X81001898Y-96504774D01*
X80801939Y-96465000D01*
X80598061Y-96465000D01*
X80398102Y-96504774D01*
X80209744Y-96582795D01*
X80040226Y-96696063D01*
X79896063Y-96840226D01*
X79782795Y-97009744D01*
X79704774Y-97198102D01*
X79665000Y-97398061D01*
X79665000Y-97601939D01*
X79704774Y-97801898D01*
X79782795Y-97990256D01*
X79896063Y-98159774D01*
X80040226Y-98303937D01*
X80209744Y-98417205D01*
X80398102Y-98495226D01*
X80598061Y-98535000D01*
X80660199Y-98535000D01*
X80700000Y-98574801D01*
X80699999Y-103959163D01*
X80653937Y-103890226D01*
X80509774Y-103746063D01*
X80340256Y-103632795D01*
X80151898Y-103554774D01*
X79951939Y-103515000D01*
X79889802Y-103515000D01*
X73643804Y-97269003D01*
X73620001Y-97239999D01*
X73504276Y-97145026D01*
X73372247Y-97074454D01*
X73228986Y-97030997D01*
X73117333Y-97020000D01*
X73117322Y-97020000D01*
X73080000Y-97016324D01*
X73042678Y-97020000D01*
X71483711Y-97020000D01*
X71439774Y-96976063D01*
X71270256Y-96862795D01*
X71081898Y-96784774D01*
X70881939Y-96745000D01*
X70678061Y-96745000D01*
X70478102Y-96784774D01*
X70289744Y-96862795D01*
X70120226Y-96976063D01*
X70011973Y-97084316D01*
X69940706Y-96950986D01*
X69755134Y-96724866D01*
X69529014Y-96539294D01*
X69474209Y-96510000D01*
X69529014Y-96480706D01*
X69755134Y-96295134D01*
X69940706Y-96069014D01*
X70078599Y-95811034D01*
X70163513Y-95531111D01*
X70192185Y-95240000D01*
X82447815Y-95240000D01*
X82476487Y-95531111D01*
X82561401Y-95811034D01*
X82699294Y-96069014D01*
X82884866Y-96295134D01*
X83110986Y-96480706D01*
X83165791Y-96510000D01*
X83110986Y-96539294D01*
X82884866Y-96724866D01*
X82699294Y-96950986D01*
X82561401Y-97208966D01*
X82476487Y-97488889D01*
X82447815Y-97780000D01*
X82476487Y-98071111D01*
X82561401Y-98351034D01*
X82699294Y-98609014D01*
X82884866Y-98835134D01*
X83110986Y-99020706D01*
X83368966Y-99158599D01*
X83648889Y-99243513D01*
X83867050Y-99265000D01*
X84012950Y-99265000D01*
X84231111Y-99243513D01*
X84511034Y-99158599D01*
X84769014Y-99020706D01*
X84995134Y-98835134D01*
X85021455Y-98803061D01*
X117160000Y-98803061D01*
X117160000Y-99006939D01*
X117199774Y-99206898D01*
X117277795Y-99395256D01*
X117391063Y-99564774D01*
X117535226Y-99708937D01*
X117704744Y-99822205D01*
X117893102Y-99900226D01*
X118093061Y-99940000D01*
X118296939Y-99940000D01*
X118496898Y-99900226D01*
X118685256Y-99822205D01*
X118778353Y-99760000D01*
X124496289Y-99760000D01*
X124540226Y-99803937D01*
X124709744Y-99917205D01*
X124898102Y-99995226D01*
X125098061Y-100035000D01*
X125301939Y-100035000D01*
X125501898Y-99995226D01*
X125690256Y-99917205D01*
X125859774Y-99803937D01*
X126003937Y-99659774D01*
X126117205Y-99490256D01*
X126195226Y-99301898D01*
X126235000Y-99101939D01*
X126235000Y-98898061D01*
X126195226Y-98698102D01*
X126117205Y-98509744D01*
X126003937Y-98340226D01*
X125859774Y-98196063D01*
X125690256Y-98082795D01*
X125501898Y-98004774D01*
X125301939Y-97965000D01*
X125098061Y-97965000D01*
X124898102Y-98004774D01*
X124709744Y-98082795D01*
X124540226Y-98196063D01*
X124496289Y-98240000D01*
X118993711Y-98240000D01*
X118854774Y-98101063D01*
X118685256Y-97987795D01*
X118496898Y-97909774D01*
X118296939Y-97870000D01*
X118093061Y-97870000D01*
X117893102Y-97909774D01*
X117704744Y-97987795D01*
X117535226Y-98101063D01*
X117391063Y-98245226D01*
X117277795Y-98414744D01*
X117199774Y-98603102D01*
X117160000Y-98803061D01*
X85021455Y-98803061D01*
X85180706Y-98609014D01*
X85318599Y-98351034D01*
X85403513Y-98071111D01*
X85432185Y-97780000D01*
X85407864Y-97533061D01*
X114400000Y-97533061D01*
X114400000Y-97736939D01*
X114439774Y-97936898D01*
X114517795Y-98125256D01*
X114631063Y-98294774D01*
X114775226Y-98438937D01*
X114944744Y-98552205D01*
X115133102Y-98630226D01*
X115333061Y-98670000D01*
X115536939Y-98670000D01*
X115736898Y-98630226D01*
X115925256Y-98552205D01*
X116094774Y-98438937D01*
X116238937Y-98294774D01*
X116352205Y-98125256D01*
X116430226Y-97936898D01*
X116470000Y-97736939D01*
X116470000Y-97533061D01*
X116430226Y-97333102D01*
X116352205Y-97144744D01*
X116238937Y-96975226D01*
X116094774Y-96831063D01*
X115925256Y-96717795D01*
X115736898Y-96639774D01*
X115536939Y-96600000D01*
X115333061Y-96600000D01*
X115133102Y-96639774D01*
X114944744Y-96717795D01*
X114775226Y-96831063D01*
X114631063Y-96975226D01*
X114517795Y-97144744D01*
X114439774Y-97333102D01*
X114400000Y-97533061D01*
X85407864Y-97533061D01*
X85403513Y-97488889D01*
X85318599Y-97208966D01*
X85180706Y-96950986D01*
X84995134Y-96724866D01*
X84769014Y-96539294D01*
X84714209Y-96510000D01*
X84769014Y-96480706D01*
X84995134Y-96295134D01*
X85180706Y-96069014D01*
X85318599Y-95811034D01*
X85403513Y-95531111D01*
X85432185Y-95240000D01*
X85403513Y-94948889D01*
X85318599Y-94668966D01*
X85180706Y-94410986D01*
X84995134Y-94184866D01*
X84965313Y-94160393D01*
X85034180Y-94139502D01*
X85144494Y-94080537D01*
X85241185Y-94001185D01*
X85320537Y-93904494D01*
X85379502Y-93794180D01*
X85415812Y-93674482D01*
X85428072Y-93550000D01*
X85428072Y-91850000D01*
X85415812Y-91725518D01*
X85379502Y-91605820D01*
X85320537Y-91495506D01*
X85241185Y-91398815D01*
X85144494Y-91319463D01*
X85034180Y-91260498D01*
X84914482Y-91224188D01*
X84790000Y-91211928D01*
X83090000Y-91211928D01*
X82965518Y-91224188D01*
X82845820Y-91260498D01*
X82735506Y-91319463D01*
X82638815Y-91398815D01*
X82559463Y-91495506D01*
X82500498Y-91605820D01*
X82464188Y-91725518D01*
X82451928Y-91850000D01*
X82451928Y-93550000D01*
X82464188Y-93674482D01*
X82500498Y-93794180D01*
X82559463Y-93904494D01*
X82638815Y-94001185D01*
X82735506Y-94080537D01*
X82845820Y-94139502D01*
X82914687Y-94160393D01*
X82884866Y-94184866D01*
X82699294Y-94410986D01*
X82561401Y-94668966D01*
X82476487Y-94948889D01*
X82447815Y-95240000D01*
X70192185Y-95240000D01*
X70163513Y-94948889D01*
X70078599Y-94668966D01*
X69940706Y-94410986D01*
X69755134Y-94184866D01*
X69725313Y-94160393D01*
X69794180Y-94139502D01*
X69904494Y-94080537D01*
X70001185Y-94001185D01*
X70080537Y-93904494D01*
X70139502Y-93794180D01*
X70175812Y-93674482D01*
X70188072Y-93550000D01*
X70188072Y-91850000D01*
X70175812Y-91725518D01*
X70139502Y-91605820D01*
X70080537Y-91495506D01*
X70001185Y-91398815D01*
X69904494Y-91319463D01*
X69794180Y-91260498D01*
X69674482Y-91224188D01*
X69550000Y-91211928D01*
X67850000Y-91211928D01*
X67725518Y-91224188D01*
X67605820Y-91260498D01*
X67495506Y-91319463D01*
X67398815Y-91398815D01*
X67319463Y-91495506D01*
X67260498Y-91605820D01*
X67224188Y-91725518D01*
X67211928Y-91850000D01*
X67211928Y-93550000D01*
X67224188Y-93674482D01*
X67260498Y-93794180D01*
X67319463Y-93904494D01*
X67398815Y-94001185D01*
X67495506Y-94080537D01*
X67605820Y-94139502D01*
X67674687Y-94160393D01*
X67644866Y-94184866D01*
X67459294Y-94410986D01*
X67321401Y-94668966D01*
X67236487Y-94948889D01*
X67207815Y-95240000D01*
X51460000Y-95240000D01*
X51460000Y-84667560D01*
X70340000Y-84667560D01*
X70340000Y-85132440D01*
X70430694Y-85588387D01*
X70608595Y-86017879D01*
X70866868Y-86404412D01*
X71195588Y-86733132D01*
X71582121Y-86991405D01*
X72011613Y-87169306D01*
X72467560Y-87260000D01*
X72932440Y-87260000D01*
X73388387Y-87169306D01*
X73817879Y-86991405D01*
X74204412Y-86733132D01*
X74533132Y-86404412D01*
X74791405Y-86017879D01*
X74969306Y-85588387D01*
X75060000Y-85132440D01*
X75060000Y-84667560D01*
X74969306Y-84211613D01*
X74791405Y-83782121D01*
X74533132Y-83395588D01*
X74204412Y-83066868D01*
X73817879Y-82808595D01*
X73388387Y-82630694D01*
X72932440Y-82540000D01*
X72467560Y-82540000D01*
X72011613Y-82630694D01*
X71582121Y-82808595D01*
X71195588Y-83066868D01*
X70866868Y-83395588D01*
X70608595Y-83782121D01*
X70430694Y-84211613D01*
X70340000Y-84667560D01*
X51460000Y-84667560D01*
X51460000Y-69325000D01*
X53586928Y-69325000D01*
X53586928Y-70675000D01*
X53599188Y-70799482D01*
X53635498Y-70919180D01*
X53694463Y-71029494D01*
X53773815Y-71126185D01*
X53870506Y-71205537D01*
X53980820Y-71264502D01*
X54100518Y-71300812D01*
X54225000Y-71313072D01*
X55575000Y-71313072D01*
X55699482Y-71300812D01*
X55819180Y-71264502D01*
X55929494Y-71205537D01*
X56026185Y-71126185D01*
X56105537Y-71029494D01*
X56164502Y-70919180D01*
X56200812Y-70799482D01*
X56213072Y-70675000D01*
X56213072Y-69325000D01*
X56200812Y-69200518D01*
X56164502Y-69080820D01*
X56105537Y-68970506D01*
X56026185Y-68873815D01*
X55929494Y-68794463D01*
X55819180Y-68735498D01*
X55767303Y-68719761D01*
X62540000Y-68719761D01*
X62540000Y-69080239D01*
X62610325Y-69433791D01*
X62748275Y-69766830D01*
X62948546Y-70066557D01*
X63203443Y-70321454D01*
X63503170Y-70521725D01*
X63836209Y-70659675D01*
X64189761Y-70730000D01*
X64550239Y-70730000D01*
X64903791Y-70659675D01*
X65236830Y-70521725D01*
X65536557Y-70321454D01*
X65791454Y-70066557D01*
X65991725Y-69766830D01*
X66129675Y-69433791D01*
X66200000Y-69080239D01*
X66200000Y-68719761D01*
X66189617Y-68667560D01*
X125540000Y-68667560D01*
X125540000Y-69132440D01*
X125630694Y-69588387D01*
X125808595Y-70017879D01*
X126066868Y-70404412D01*
X126395588Y-70733132D01*
X126782121Y-70991405D01*
X127211613Y-71169306D01*
X127667560Y-71260000D01*
X128132440Y-71260000D01*
X128588387Y-71169306D01*
X129017879Y-70991405D01*
X129404412Y-70733132D01*
X129733132Y-70404412D01*
X129991405Y-70017879D01*
X130169306Y-69588387D01*
X130241588Y-69225000D01*
X145286928Y-69225000D01*
X145286928Y-70575000D01*
X145299188Y-70699482D01*
X145335498Y-70819180D01*
X145394463Y-70929494D01*
X145473815Y-71026185D01*
X145570506Y-71105537D01*
X145680820Y-71164502D01*
X145800518Y-71200812D01*
X145925000Y-71213072D01*
X147275000Y-71213072D01*
X147399482Y-71200812D01*
X147519180Y-71164502D01*
X147629494Y-71105537D01*
X147726185Y-71026185D01*
X147805537Y-70929494D01*
X147864502Y-70819180D01*
X147900812Y-70699482D01*
X147913072Y-70575000D01*
X147913072Y-69225000D01*
X147900812Y-69100518D01*
X147864502Y-68980820D01*
X147805537Y-68870506D01*
X147726185Y-68773815D01*
X147629494Y-68694463D01*
X147519180Y-68635498D01*
X147399482Y-68599188D01*
X147275000Y-68586928D01*
X145925000Y-68586928D01*
X145800518Y-68599188D01*
X145680820Y-68635498D01*
X145570506Y-68694463D01*
X145473815Y-68773815D01*
X145394463Y-68870506D01*
X145335498Y-68980820D01*
X145299188Y-69100518D01*
X145286928Y-69225000D01*
X130241588Y-69225000D01*
X130260000Y-69132440D01*
X130260000Y-68667560D01*
X130169306Y-68211613D01*
X129991405Y-67782121D01*
X129733132Y-67395588D01*
X129404412Y-67066868D01*
X129017879Y-66808595D01*
X128588387Y-66630694D01*
X128132440Y-66540000D01*
X127667560Y-66540000D01*
X127211613Y-66630694D01*
X126782121Y-66808595D01*
X126395588Y-67066868D01*
X126066868Y-67395588D01*
X125808595Y-67782121D01*
X125630694Y-68211613D01*
X125540000Y-68667560D01*
X66189617Y-68667560D01*
X66129675Y-68366209D01*
X65991725Y-68033170D01*
X65791454Y-67733443D01*
X65536557Y-67478546D01*
X65236830Y-67278275D01*
X64903791Y-67140325D01*
X64550239Y-67070000D01*
X64189761Y-67070000D01*
X63836209Y-67140325D01*
X63503170Y-67278275D01*
X63203443Y-67478546D01*
X62948546Y-67733443D01*
X62748275Y-68033170D01*
X62610325Y-68366209D01*
X62540000Y-68719761D01*
X55767303Y-68719761D01*
X55699482Y-68699188D01*
X55575000Y-68686928D01*
X54225000Y-68686928D01*
X54100518Y-68699188D01*
X53980820Y-68735498D01*
X53870506Y-68794463D01*
X53773815Y-68873815D01*
X53694463Y-68970506D01*
X53635498Y-69080820D01*
X53599188Y-69200518D01*
X53586928Y-69325000D01*
X51460000Y-69325000D01*
X51460000Y-64160000D01*
X149200000Y-64160000D01*
X149200001Y-141580000D01*
X149200001Y-141580000D01*
G37*
X149200001Y-141580000D02*
X51460000Y-141580000D01*
X51460000Y-137725000D01*
X55286928Y-137725000D01*
X55290000Y-138114250D01*
X55448748Y-138272998D01*
X55290000Y-138272998D01*
X55290000Y-138527002D01*
X55448748Y-138527002D01*
X55290000Y-138685750D01*
X55286928Y-139075000D01*
X55299188Y-139199482D01*
X55335498Y-139319180D01*
X55394463Y-139429494D01*
X55473815Y-139526185D01*
X55570506Y-139605537D01*
X55680820Y-139664502D01*
X55800518Y-139700812D01*
X55925000Y-139713072D01*
X56314250Y-139710000D01*
X56473000Y-139551250D01*
X56473000Y-138527000D01*
X56453000Y-138527000D01*
X56453000Y-138273000D01*
X56473000Y-138273000D01*
X56473000Y-137248750D01*
X56727000Y-137248750D01*
X56727000Y-138273000D01*
X56747000Y-138273000D01*
X56747000Y-138527000D01*
X56727000Y-138527000D01*
X56727000Y-139551250D01*
X56885750Y-139710000D01*
X57275000Y-139713072D01*
X57399482Y-139700812D01*
X57519180Y-139664502D01*
X57629494Y-139605537D01*
X57726185Y-139526185D01*
X57805537Y-139429494D01*
X57864502Y-139319180D01*
X57900812Y-139199482D01*
X57913072Y-139075000D01*
X57910000Y-138685750D01*
X57751252Y-138527002D01*
X57910000Y-138527002D01*
X57910000Y-138400000D01*
X75283662Y-138400000D01*
X75308955Y-138656805D01*
X75383862Y-138903741D01*
X75505505Y-139131318D01*
X75669208Y-139330792D01*
X75868682Y-139494495D01*
X76096259Y-139616138D01*
X76343195Y-139691045D01*
X76535649Y-139710000D01*
X76664351Y-139710000D01*
X76856805Y-139691045D01*
X77103741Y-139616138D01*
X77331318Y-139494495D01*
X77530792Y-139330792D01*
X77694495Y-139131318D01*
X77816138Y-138903741D01*
X77891045Y-138656805D01*
X77916338Y-138400000D01*
X77891045Y-138143195D01*
X77816138Y-137896259D01*
X77694495Y-137668682D01*
X77637369Y-137599074D01*
X77726185Y-137526185D01*
X77805537Y-137429494D01*
X77864502Y-137319180D01*
X77900812Y-137199482D01*
X77913072Y-137075000D01*
X77913072Y-135725000D01*
X77900812Y-135600518D01*
X77864502Y-135480820D01*
X77805537Y-135370506D01*
X77726185Y-135273815D01*
X77629494Y-135194463D01*
X77519180Y-135135498D01*
X77399482Y-135099188D01*
X77275000Y-135086928D01*
X75925000Y-135086928D01*
X75800518Y-135099188D01*
X75680820Y-135135498D01*
X75570506Y-135194463D01*
X75473815Y-135273815D01*
X75394463Y-135370506D01*
X75335498Y-135480820D01*
X75299188Y-135600518D01*
X75286928Y-135725000D01*
X75286928Y-137075000D01*
X75299188Y-137199482D01*
X75335498Y-137319180D01*
X75394463Y-137429494D01*
X75473815Y-137526185D01*
X75562631Y-137599074D01*
X75505505Y-137668682D01*
X75383862Y-137896259D01*
X75308955Y-138143195D01*
X75283662Y-138400000D01*
X57910000Y-138400000D01*
X57910000Y-138272998D01*
X57751252Y-138272998D01*
X57910000Y-138114250D01*
X57913072Y-137725000D01*
X57900812Y-137600518D01*
X57864502Y-137480820D01*
X57805537Y-137370506D01*
X57726185Y-137273815D01*
X57629494Y-137194463D01*
X57519180Y-137135498D01*
X57399482Y-137099188D01*
X57275000Y-137086928D01*
X56885750Y-137090000D01*
X56727000Y-137248750D01*
X56473000Y-137248750D01*
X56314250Y-137090000D01*
X55925000Y-137086928D01*
X55800518Y-137099188D01*
X55680820Y-137135498D01*
X55570506Y-137194463D01*
X55473815Y-137273815D01*
X55394463Y-137370506D01*
X55335498Y-137480820D01*
X55299188Y-137600518D01*
X55286928Y-137725000D01*
X51460000Y-137725000D01*
X51460000Y-133475000D01*
X96286928Y-133475000D01*
X96299188Y-133599482D01*
X96335498Y-133719180D01*
X96394463Y-133829494D01*
X96473815Y-133926185D01*
X96570506Y-134005537D01*
X96680820Y-134064502D01*
X96800518Y-134100812D01*
X96925000Y-134113072D01*
X97314250Y-134110000D01*
X97473000Y-133951250D01*
X97473000Y-132927000D01*
X97727000Y-132927000D01*
X97727000Y-133951250D01*
X97885750Y-134110000D01*
X98275000Y-134113072D01*
X98399482Y-134100812D01*
X98519180Y-134064502D01*
X98629494Y-134005537D01*
X98726185Y-133926185D01*
X98805537Y-133829494D01*
X98864502Y-133719180D01*
X98900812Y-133599482D01*
X98913072Y-133475000D01*
X98910000Y-133085750D01*
X98751250Y-132927000D01*
X97727000Y-132927000D01*
X97473000Y-132927000D01*
X96448750Y-132927000D01*
X96290000Y-133085750D01*
X96286928Y-133475000D01*
X51460000Y-133475000D01*
X51460000Y-132125000D01*
X96286928Y-132125000D01*
X96290000Y-132514250D01*
X96448750Y-132673000D01*
X97473000Y-132673000D01*
X97473000Y-131648750D01*
X97727000Y-131648750D01*
X97727000Y-132673000D01*
X98751250Y-132673000D01*
X98910000Y-132514250D01*
X98913072Y-132125000D01*
X98900812Y-132000518D01*
X98864502Y-131880820D01*
X98805537Y-131770506D01*
X98726185Y-131673815D01*
X98629494Y-131594463D01*
X98519180Y-131535498D01*
X98399482Y-131499188D01*
X98275000Y-131486928D01*
X97885750Y-131490000D01*
X97727000Y-131648750D01*
X97473000Y-131648750D01*
X97314250Y-131490000D01*
X96925000Y-131486928D01*
X96800518Y-131499188D01*
X96680820Y-131535498D01*
X96570506Y-131594463D01*
X96473815Y-131673815D01*
X96394463Y-131770506D01*
X96335498Y-131880820D01*
X96299188Y-132000518D01*
X96286928Y-132125000D01*
X51460000Y-132125000D01*
X51460000Y-115725000D01*
X75286928Y-115725000D01*
X75286928Y-117075000D01*
X75299188Y-117199482D01*
X75335498Y-117319180D01*
X75394463Y-117429494D01*
X75473815Y-117526185D01*
X75570506Y-117605537D01*
X75680820Y-117664502D01*
X75800518Y-117700812D01*
X75925000Y-117713072D01*
X77275000Y-117713072D01*
X77399482Y-117700812D01*
X77519180Y-117664502D01*
X77629494Y-117605537D01*
X77726185Y-117526185D01*
X77805537Y-117429494D01*
X77864502Y-117319180D01*
X77900812Y-117199482D01*
X77913072Y-117075000D01*
X77913072Y-115725000D01*
X77900812Y-115600518D01*
X77864502Y-115480820D01*
X77805537Y-115370506D01*
X77726185Y-115273815D01*
X77629494Y-115194463D01*
X77519180Y-115135498D01*
X77399482Y-115099188D01*
X77275000Y-115086928D01*
X75925000Y-115086928D01*
X75800518Y-115099188D01*
X75680820Y-115135498D01*
X75570506Y-115194463D01*
X75473815Y-115273815D01*
X75394463Y-115370506D01*
X75335498Y-115480820D01*
X75299188Y-115600518D01*
X75286928Y-115725000D01*
X51460000Y-115725000D01*
X51460000Y-112725000D01*
X54286928Y-112725000D01*
X54286928Y-114075000D01*
X54299188Y-114199482D01*
X54335498Y-114319180D01*
X54394463Y-114429494D01*
X54473815Y-114526185D01*
X54570506Y-114605537D01*
X54680820Y-114664502D01*
X54800518Y-114700812D01*
X54925000Y-114713072D01*
X56275000Y-114713072D01*
X56399482Y-114700812D01*
X56519180Y-114664502D01*
X56629494Y-114605537D01*
X56726185Y-114526185D01*
X56805537Y-114429494D01*
X56864502Y-114319180D01*
X56900812Y-114199482D01*
X56913072Y-114075000D01*
X56913072Y-112725000D01*
X74286928Y-112725000D01*
X74286928Y-114075000D01*
X74299188Y-114199482D01*
X74335498Y-114319180D01*
X74394463Y-114429494D01*
X74473815Y-114526185D01*
X74570506Y-114605537D01*
X74680820Y-114664502D01*
X74800518Y-114700812D01*
X74925000Y-114713072D01*
X76275000Y-114713072D01*
X76399482Y-114700812D01*
X76519180Y-114664502D01*
X76629494Y-114605537D01*
X76726185Y-114526185D01*
X76805537Y-114429494D01*
X76864502Y-114319180D01*
X76872625Y-114292403D01*
X76909744Y-114317205D01*
X77098102Y-114395226D01*
X77298061Y-114435000D01*
X77501939Y-114435000D01*
X77701898Y-114395226D01*
X77890256Y-114317205D01*
X78059774Y-114203937D01*
X78103711Y-114160000D01*
X83485199Y-114160000D01*
X93165000Y-123839802D01*
X93165000Y-123901939D01*
X93204774Y-124101898D01*
X93282795Y-124290256D01*
X93396063Y-124459774D01*
X93540226Y-124603937D01*
X93709744Y-124717205D01*
X93898102Y-124795226D01*
X94098061Y-124835000D01*
X94301939Y-124835000D01*
X94501898Y-124795226D01*
X94690256Y-124717205D01*
X94859774Y-124603937D01*
X95003937Y-124459774D01*
X95117205Y-124290256D01*
X95195226Y-124101898D01*
X95235000Y-123901939D01*
X95235000Y-123698061D01*
X95195226Y-123498102D01*
X95117205Y-123309744D01*
X95003937Y-123140226D01*
X94859774Y-122996063D01*
X94690256Y-122882795D01*
X94501898Y-122804774D01*
X94301939Y-122765000D01*
X94239802Y-122765000D01*
X91799802Y-120325000D01*
X112486928Y-120325000D01*
X112486928Y-121675000D01*
X112499188Y-121799482D01*
X112535498Y-121919180D01*
X112594463Y-122029494D01*
X112673815Y-122126185D01*
X112770506Y-122205537D01*
X112880820Y-122264502D01*
X113000518Y-122300812D01*
X113125000Y-122313072D01*
X114475000Y-122313072D01*
X114599482Y-122300812D01*
X114719180Y-122264502D01*
X114829494Y-122205537D01*
X114926185Y-122126185D01*
X115005537Y-122029494D01*
X115064502Y-121919180D01*
X115100812Y-121799482D01*
X115113072Y-121675000D01*
X115113072Y-120325000D01*
X115100812Y-120200518D01*
X115064502Y-120080820D01*
X115005537Y-119970506D01*
X114926185Y-119873815D01*
X114829494Y-119794463D01*
X114719180Y-119735498D01*
X114599482Y-119699188D01*
X114475000Y-119686928D01*
X113125000Y-119686928D01*
X113000518Y-119699188D01*
X112880820Y-119735498D01*
X112770506Y-119794463D01*
X112673815Y-119873815D01*
X112594463Y-119970506D01*
X112535498Y-120080820D01*
X112499188Y-120200518D01*
X112486928Y-120325000D01*
X91799802Y-120325000D01*
X84363804Y-112889003D01*
X84340001Y-112859999D01*
X84224276Y-112765026D01*
X84092247Y-112694454D01*
X83948986Y-112650997D01*
X83837333Y-112640000D01*
X83837322Y-112640000D01*
X83800000Y-112636324D01*
X83762678Y-112640000D01*
X78103711Y-112640000D01*
X78059774Y-112596063D01*
X77890256Y-112482795D01*
X77701898Y-112404774D01*
X77501939Y-112365000D01*
X77298061Y-112365000D01*
X77098102Y-112404774D01*
X76909744Y-112482795D01*
X76872625Y-112507597D01*
X76864502Y-112480820D01*
X76805537Y-112370506D01*
X76726185Y-112273815D01*
X76629494Y-112194463D01*
X76519180Y-112135498D01*
X76399482Y-112099188D01*
X76275000Y-112086928D01*
X74925000Y-112086928D01*
X74800518Y-112099188D01*
X74680820Y-112135498D01*
X74570506Y-112194463D01*
X74473815Y-112273815D01*
X74394463Y-112370506D01*
X74335498Y-112480820D01*
X74299188Y-112600518D01*
X74286928Y-112725000D01*
X56913072Y-112725000D01*
X56900812Y-112600518D01*
X56864502Y-112480820D01*
X56805537Y-112370506D01*
X56726185Y-112273815D01*
X56629494Y-112194463D01*
X56519180Y-112135498D01*
X56399482Y-112099188D01*
X56275000Y-112086928D01*
X54925000Y-112086928D01*
X54800518Y-112099188D01*
X54680820Y-112135498D01*
X54570506Y-112194463D01*
X54473815Y-112273815D01*
X54394463Y-112370506D01*
X54335498Y-112480820D01*
X54299188Y-112600518D01*
X54286928Y-112725000D01*
X51460000Y-112725000D01*
X51460000Y-95240000D01*
X67207815Y-95240000D01*
X67236487Y-95531111D01*
X67321401Y-95811034D01*
X67459294Y-96069014D01*
X67644866Y-96295134D01*
X67870986Y-96480706D01*
X67925791Y-96510000D01*
X67870986Y-96539294D01*
X67644866Y-96724866D01*
X67459294Y-96950986D01*
X67321401Y-97208966D01*
X67236487Y-97488889D01*
X67207815Y-97780000D01*
X67236487Y-98071111D01*
X67321401Y-98351034D01*
X67459294Y-98609014D01*
X67644866Y-98835134D01*
X67870986Y-99020706D01*
X68128966Y-99158599D01*
X68408889Y-99243513D01*
X68627050Y-99265000D01*
X68772950Y-99265000D01*
X68991111Y-99243513D01*
X69271034Y-99158599D01*
X69529014Y-99020706D01*
X69755134Y-98835134D01*
X69940706Y-98609014D01*
X70011973Y-98475684D01*
X70120226Y-98583937D01*
X70289744Y-98697205D01*
X70478102Y-98775226D01*
X70678061Y-98815000D01*
X70881939Y-98815000D01*
X71081898Y-98775226D01*
X71270256Y-98697205D01*
X71439774Y-98583937D01*
X71483711Y-98540000D01*
X72765199Y-98540000D01*
X78815000Y-104589802D01*
X78815000Y-104651939D01*
X78854774Y-104851898D01*
X78932795Y-105040256D01*
X79046063Y-105209774D01*
X79190226Y-105353937D01*
X79359744Y-105467205D01*
X79548102Y-105545226D01*
X79748061Y-105585000D01*
X79951939Y-105585000D01*
X80151898Y-105545226D01*
X80340256Y-105467205D01*
X80509774Y-105353937D01*
X80653937Y-105209774D01*
X80699999Y-105140837D01*
X80699999Y-105988841D01*
X80569744Y-106042795D01*
X80400226Y-106156063D01*
X80256063Y-106300226D01*
X80142795Y-106469744D01*
X80064774Y-106658102D01*
X80025000Y-106858061D01*
X80025000Y-107061939D01*
X80064774Y-107261898D01*
X80142795Y-107450256D01*
X80256063Y-107619774D01*
X80400226Y-107763937D01*
X80569744Y-107877205D01*
X80758102Y-107955226D01*
X80958061Y-107995000D01*
X81161939Y-107995000D01*
X81361898Y-107955226D01*
X81550256Y-107877205D01*
X81719774Y-107763937D01*
X81863937Y-107619774D01*
X81977205Y-107450256D01*
X82055226Y-107261898D01*
X82095000Y-107061939D01*
X82095000Y-106984226D01*
X82165545Y-106852248D01*
X82209002Y-106708987D01*
X82219999Y-106597334D01*
X82219999Y-106597324D01*
X82223675Y-106560002D01*
X82219999Y-106522679D01*
X82219999Y-98297322D01*
X82223675Y-98259999D01*
X82219999Y-98222676D01*
X82219999Y-98222666D01*
X82209002Y-98111013D01*
X82165545Y-97967752D01*
X82094973Y-97835723D01*
X82000000Y-97719998D01*
X81970996Y-97696195D01*
X81735000Y-97460199D01*
X81735000Y-97398061D01*
X81695226Y-97198102D01*
X81617205Y-97009744D01*
X81503937Y-96840226D01*
X81359774Y-96696063D01*
X81190256Y-96582795D01*
X81001898Y-96504774D01*
X80801939Y-96465000D01*
X80598061Y-96465000D01*
X80398102Y-96504774D01*
X80209744Y-96582795D01*
X80040226Y-96696063D01*
X79896063Y-96840226D01*
X79782795Y-97009744D01*
X79704774Y-97198102D01*
X79665000Y-97398061D01*
X79665000Y-97601939D01*
X79704774Y-97801898D01*
X79782795Y-97990256D01*
X79896063Y-98159774D01*
X80040226Y-98303937D01*
X80209744Y-98417205D01*
X80398102Y-98495226D01*
X80598061Y-98535000D01*
X80660199Y-98535000D01*
X80700000Y-98574801D01*
X80699999Y-103959163D01*
X80653937Y-103890226D01*
X80509774Y-103746063D01*
X80340256Y-103632795D01*
X80151898Y-103554774D01*
X79951939Y-103515000D01*
X79889802Y-103515000D01*
X73643804Y-97269003D01*
X73620001Y-97239999D01*
X73504276Y-97145026D01*
X73372247Y-97074454D01*
X73228986Y-97030997D01*
X73117333Y-97020000D01*
X73117322Y-97020000D01*
X73080000Y-97016324D01*
X73042678Y-97020000D01*
X71483711Y-97020000D01*
X71439774Y-96976063D01*
X71270256Y-96862795D01*
X71081898Y-96784774D01*
X70881939Y-96745000D01*
X70678061Y-96745000D01*
X70478102Y-96784774D01*
X70289744Y-96862795D01*
X70120226Y-96976063D01*
X70011973Y-97084316D01*
X69940706Y-96950986D01*
X69755134Y-96724866D01*
X69529014Y-96539294D01*
X69474209Y-96510000D01*
X69529014Y-96480706D01*
X69755134Y-96295134D01*
X69940706Y-96069014D01*
X70078599Y-95811034D01*
X70163513Y-95531111D01*
X70192185Y-95240000D01*
X82447815Y-95240000D01*
X82476487Y-95531111D01*
X82561401Y-95811034D01*
X82699294Y-96069014D01*
X82884866Y-96295134D01*
X83110986Y-96480706D01*
X83165791Y-96510000D01*
X83110986Y-96539294D01*
X82884866Y-96724866D01*
X82699294Y-96950986D01*
X82561401Y-97208966D01*
X82476487Y-97488889D01*
X82447815Y-97780000D01*
X82476487Y-98071111D01*
X82561401Y-98351034D01*
X82699294Y-98609014D01*
X82884866Y-98835134D01*
X83110986Y-99020706D01*
X83368966Y-99158599D01*
X83648889Y-99243513D01*
X83867050Y-99265000D01*
X84012950Y-99265000D01*
X84231111Y-99243513D01*
X84511034Y-99158599D01*
X84769014Y-99020706D01*
X84995134Y-98835134D01*
X85021455Y-98803061D01*
X117160000Y-98803061D01*
X117160000Y-99006939D01*
X117199774Y-99206898D01*
X117277795Y-99395256D01*
X117391063Y-99564774D01*
X117535226Y-99708937D01*
X117704744Y-99822205D01*
X117893102Y-99900226D01*
X118093061Y-99940000D01*
X118296939Y-99940000D01*
X118496898Y-99900226D01*
X118685256Y-99822205D01*
X118778353Y-99760000D01*
X124496289Y-99760000D01*
X124540226Y-99803937D01*
X124709744Y-99917205D01*
X124898102Y-99995226D01*
X125098061Y-100035000D01*
X125301939Y-100035000D01*
X125501898Y-99995226D01*
X125690256Y-99917205D01*
X125859774Y-99803937D01*
X126003937Y-99659774D01*
X126117205Y-99490256D01*
X126195226Y-99301898D01*
X126235000Y-99101939D01*
X126235000Y-98898061D01*
X126195226Y-98698102D01*
X126117205Y-98509744D01*
X126003937Y-98340226D01*
X125859774Y-98196063D01*
X125690256Y-98082795D01*
X125501898Y-98004774D01*
X125301939Y-97965000D01*
X125098061Y-97965000D01*
X124898102Y-98004774D01*
X124709744Y-98082795D01*
X124540226Y-98196063D01*
X124496289Y-98240000D01*
X118993711Y-98240000D01*
X118854774Y-98101063D01*
X118685256Y-97987795D01*
X118496898Y-97909774D01*
X118296939Y-97870000D01*
X118093061Y-97870000D01*
X117893102Y-97909774D01*
X117704744Y-97987795D01*
X117535226Y-98101063D01*
X117391063Y-98245226D01*
X117277795Y-98414744D01*
X117199774Y-98603102D01*
X117160000Y-98803061D01*
X85021455Y-98803061D01*
X85180706Y-98609014D01*
X85318599Y-98351034D01*
X85403513Y-98071111D01*
X85432185Y-97780000D01*
X85407864Y-97533061D01*
X114400000Y-97533061D01*
X114400000Y-97736939D01*
X114439774Y-97936898D01*
X114517795Y-98125256D01*
X114631063Y-98294774D01*
X114775226Y-98438937D01*
X114944744Y-98552205D01*
X115133102Y-98630226D01*
X115333061Y-98670000D01*
X115536939Y-98670000D01*
X115736898Y-98630226D01*
X115925256Y-98552205D01*
X116094774Y-98438937D01*
X116238937Y-98294774D01*
X116352205Y-98125256D01*
X116430226Y-97936898D01*
X116470000Y-97736939D01*
X116470000Y-97533061D01*
X116430226Y-97333102D01*
X116352205Y-97144744D01*
X116238937Y-96975226D01*
X116094774Y-96831063D01*
X115925256Y-96717795D01*
X115736898Y-96639774D01*
X115536939Y-96600000D01*
X115333061Y-96600000D01*
X115133102Y-96639774D01*
X114944744Y-96717795D01*
X114775226Y-96831063D01*
X114631063Y-96975226D01*
X114517795Y-97144744D01*
X114439774Y-97333102D01*
X114400000Y-97533061D01*
X85407864Y-97533061D01*
X85403513Y-97488889D01*
X85318599Y-97208966D01*
X85180706Y-96950986D01*
X84995134Y-96724866D01*
X84769014Y-96539294D01*
X84714209Y-96510000D01*
X84769014Y-96480706D01*
X84995134Y-96295134D01*
X85180706Y-96069014D01*
X85318599Y-95811034D01*
X85403513Y-95531111D01*
X85432185Y-95240000D01*
X85403513Y-94948889D01*
X85318599Y-94668966D01*
X85180706Y-94410986D01*
X84995134Y-94184866D01*
X84965313Y-94160393D01*
X85034180Y-94139502D01*
X85144494Y-94080537D01*
X85241185Y-94001185D01*
X85320537Y-93904494D01*
X85379502Y-93794180D01*
X85415812Y-93674482D01*
X85428072Y-93550000D01*
X85428072Y-91850000D01*
X85415812Y-91725518D01*
X85379502Y-91605820D01*
X85320537Y-91495506D01*
X85241185Y-91398815D01*
X85144494Y-91319463D01*
X85034180Y-91260498D01*
X84914482Y-91224188D01*
X84790000Y-91211928D01*
X83090000Y-91211928D01*
X82965518Y-91224188D01*
X82845820Y-91260498D01*
X82735506Y-91319463D01*
X82638815Y-91398815D01*
X82559463Y-91495506D01*
X82500498Y-91605820D01*
X82464188Y-91725518D01*
X82451928Y-91850000D01*
X82451928Y-93550000D01*
X82464188Y-93674482D01*
X82500498Y-93794180D01*
X82559463Y-93904494D01*
X82638815Y-94001185D01*
X82735506Y-94080537D01*
X82845820Y-94139502D01*
X82914687Y-94160393D01*
X82884866Y-94184866D01*
X82699294Y-94410986D01*
X82561401Y-94668966D01*
X82476487Y-94948889D01*
X82447815Y-95240000D01*
X70192185Y-95240000D01*
X70163513Y-94948889D01*
X70078599Y-94668966D01*
X69940706Y-94410986D01*
X69755134Y-94184866D01*
X69725313Y-94160393D01*
X69794180Y-94139502D01*
X69904494Y-94080537D01*
X70001185Y-94001185D01*
X70080537Y-93904494D01*
X70139502Y-93794180D01*
X70175812Y-93674482D01*
X70188072Y-93550000D01*
X70188072Y-91850000D01*
X70175812Y-91725518D01*
X70139502Y-91605820D01*
X70080537Y-91495506D01*
X70001185Y-91398815D01*
X69904494Y-91319463D01*
X69794180Y-91260498D01*
X69674482Y-91224188D01*
X69550000Y-91211928D01*
X67850000Y-91211928D01*
X67725518Y-91224188D01*
X67605820Y-91260498D01*
X67495506Y-91319463D01*
X67398815Y-91398815D01*
X67319463Y-91495506D01*
X67260498Y-91605820D01*
X67224188Y-91725518D01*
X67211928Y-91850000D01*
X67211928Y-93550000D01*
X67224188Y-93674482D01*
X67260498Y-93794180D01*
X67319463Y-93904494D01*
X67398815Y-94001185D01*
X67495506Y-94080537D01*
X67605820Y-94139502D01*
X67674687Y-94160393D01*
X67644866Y-94184866D01*
X67459294Y-94410986D01*
X67321401Y-94668966D01*
X67236487Y-94948889D01*
X67207815Y-95240000D01*
X51460000Y-95240000D01*
X51460000Y-84667560D01*
X70340000Y-84667560D01*
X70340000Y-85132440D01*
X70430694Y-85588387D01*
X70608595Y-86017879D01*
X70866868Y-86404412D01*
X71195588Y-86733132D01*
X71582121Y-86991405D01*
X72011613Y-87169306D01*
X72467560Y-87260000D01*
X72932440Y-87260000D01*
X73388387Y-87169306D01*
X73817879Y-86991405D01*
X74204412Y-86733132D01*
X74533132Y-86404412D01*
X74791405Y-86017879D01*
X74969306Y-85588387D01*
X75060000Y-85132440D01*
X75060000Y-84667560D01*
X74969306Y-84211613D01*
X74791405Y-83782121D01*
X74533132Y-83395588D01*
X74204412Y-83066868D01*
X73817879Y-82808595D01*
X73388387Y-82630694D01*
X72932440Y-82540000D01*
X72467560Y-82540000D01*
X72011613Y-82630694D01*
X71582121Y-82808595D01*
X71195588Y-83066868D01*
X70866868Y-83395588D01*
X70608595Y-83782121D01*
X70430694Y-84211613D01*
X70340000Y-84667560D01*
X51460000Y-84667560D01*
X51460000Y-69325000D01*
X53586928Y-69325000D01*
X53586928Y-70675000D01*
X53599188Y-70799482D01*
X53635498Y-70919180D01*
X53694463Y-71029494D01*
X53773815Y-71126185D01*
X53870506Y-71205537D01*
X53980820Y-71264502D01*
X54100518Y-71300812D01*
X54225000Y-71313072D01*
X55575000Y-71313072D01*
X55699482Y-71300812D01*
X55819180Y-71264502D01*
X55929494Y-71205537D01*
X56026185Y-71126185D01*
X56105537Y-71029494D01*
X56164502Y-70919180D01*
X56200812Y-70799482D01*
X56213072Y-70675000D01*
X56213072Y-69325000D01*
X56200812Y-69200518D01*
X56164502Y-69080820D01*
X56105537Y-68970506D01*
X56026185Y-68873815D01*
X55929494Y-68794463D01*
X55819180Y-68735498D01*
X55767303Y-68719761D01*
X62540000Y-68719761D01*
X62540000Y-69080239D01*
X62610325Y-69433791D01*
X62748275Y-69766830D01*
X62948546Y-70066557D01*
X63203443Y-70321454D01*
X63503170Y-70521725D01*
X63836209Y-70659675D01*
X64189761Y-70730000D01*
X64550239Y-70730000D01*
X64903791Y-70659675D01*
X65236830Y-70521725D01*
X65536557Y-70321454D01*
X65791454Y-70066557D01*
X65991725Y-69766830D01*
X66129675Y-69433791D01*
X66200000Y-69080239D01*
X66200000Y-68719761D01*
X66189617Y-68667560D01*
X125540000Y-68667560D01*
X125540000Y-69132440D01*
X125630694Y-69588387D01*
X125808595Y-70017879D01*
X126066868Y-70404412D01*
X126395588Y-70733132D01*
X126782121Y-70991405D01*
X127211613Y-71169306D01*
X127667560Y-71260000D01*
X128132440Y-71260000D01*
X128588387Y-71169306D01*
X129017879Y-70991405D01*
X129404412Y-70733132D01*
X129733132Y-70404412D01*
X129991405Y-70017879D01*
X130169306Y-69588387D01*
X130241588Y-69225000D01*
X145286928Y-69225000D01*
X145286928Y-70575000D01*
X145299188Y-70699482D01*
X145335498Y-70819180D01*
X145394463Y-70929494D01*
X145473815Y-71026185D01*
X145570506Y-71105537D01*
X145680820Y-71164502D01*
X145800518Y-71200812D01*
X145925000Y-71213072D01*
X147275000Y-71213072D01*
X147399482Y-71200812D01*
X147519180Y-71164502D01*
X147629494Y-71105537D01*
X147726185Y-71026185D01*
X147805537Y-70929494D01*
X147864502Y-70819180D01*
X147900812Y-70699482D01*
X147913072Y-70575000D01*
X147913072Y-69225000D01*
X147900812Y-69100518D01*
X147864502Y-68980820D01*
X147805537Y-68870506D01*
X147726185Y-68773815D01*
X147629494Y-68694463D01*
X147519180Y-68635498D01*
X147399482Y-68599188D01*
X147275000Y-68586928D01*
X145925000Y-68586928D01*
X145800518Y-68599188D01*
X145680820Y-68635498D01*
X145570506Y-68694463D01*
X145473815Y-68773815D01*
X145394463Y-68870506D01*
X145335498Y-68980820D01*
X145299188Y-69100518D01*
X145286928Y-69225000D01*
X130241588Y-69225000D01*
X130260000Y-69132440D01*
X130260000Y-68667560D01*
X130169306Y-68211613D01*
X129991405Y-67782121D01*
X129733132Y-67395588D01*
X129404412Y-67066868D01*
X129017879Y-66808595D01*
X128588387Y-66630694D01*
X128132440Y-66540000D01*
X127667560Y-66540000D01*
X127211613Y-66630694D01*
X126782121Y-66808595D01*
X126395588Y-67066868D01*
X126066868Y-67395588D01*
X125808595Y-67782121D01*
X125630694Y-68211613D01*
X125540000Y-68667560D01*
X66189617Y-68667560D01*
X66129675Y-68366209D01*
X65991725Y-68033170D01*
X65791454Y-67733443D01*
X65536557Y-67478546D01*
X65236830Y-67278275D01*
X64903791Y-67140325D01*
X64550239Y-67070000D01*
X64189761Y-67070000D01*
X63836209Y-67140325D01*
X63503170Y-67278275D01*
X63203443Y-67478546D01*
X62948546Y-67733443D01*
X62748275Y-68033170D01*
X62610325Y-68366209D01*
X62540000Y-68719761D01*
X55767303Y-68719761D01*
X55699482Y-68699188D01*
X55575000Y-68686928D01*
X54225000Y-68686928D01*
X54100518Y-68699188D01*
X53980820Y-68735498D01*
X53870506Y-68794463D01*
X53773815Y-68873815D01*
X53694463Y-68970506D01*
X53635498Y-69080820D01*
X53599188Y-69200518D01*
X53586928Y-69325000D01*
X51460000Y-69325000D01*
X51460000Y-64160000D01*
X149200000Y-64160000D01*
X149200001Y-141580000D01*
M02*
