G04 #@! TF.GenerationSoftware,KiCad,Pcbnew,(5.1.0)-1*
G04 #@! TF.CreationDate,2019-07-01T21:30:59-03:00*
G04 #@! TF.ProjectId,Main,4d61696e-2e6b-4696-9361-645f70636258,1.0*
G04 #@! TF.SameCoordinates,Original*
G04 #@! TF.FileFunction,Soldermask,Top*
G04 #@! TF.FilePolarity,Negative*
%FSLAX46Y46*%
G04 Gerber Fmt 4.6, Leading zero omitted, Abs format (unit mm)*
G04 Created by KiCad (PCBNEW (5.1.0)-1) date 2019-07-01 21:30:59*
%MOMM*%
%LPD*%
G04 APERTURE LIST*
%ADD10C,0.100000*%
G04 APERTURE END LIST*
D10*
G36*
X49691213Y-97087502D02*
G01*
X49762321Y-97094505D01*
X49899172Y-97136019D01*
X49899175Y-97136020D01*
X50025294Y-97203432D01*
X50135843Y-97294157D01*
X50226568Y-97404706D01*
X50293980Y-97530825D01*
X50293981Y-97530828D01*
X50335495Y-97667679D01*
X50349512Y-97810000D01*
X50335495Y-97952321D01*
X50293981Y-98089172D01*
X50293980Y-98089175D01*
X50226568Y-98215294D01*
X50135843Y-98325843D01*
X50025294Y-98416568D01*
X49899175Y-98483980D01*
X49899172Y-98483981D01*
X49762321Y-98525495D01*
X49691213Y-98532498D01*
X49655660Y-98536000D01*
X49584340Y-98536000D01*
X49548787Y-98532498D01*
X49477679Y-98525495D01*
X49340828Y-98483981D01*
X49340825Y-98483980D01*
X49214706Y-98416568D01*
X49104157Y-98325843D01*
X49013432Y-98215294D01*
X48946020Y-98089175D01*
X48946019Y-98089172D01*
X48904505Y-97952321D01*
X48890488Y-97810000D01*
X48904505Y-97667679D01*
X48946019Y-97530828D01*
X48946020Y-97530825D01*
X49013432Y-97404706D01*
X49104157Y-97294157D01*
X49214706Y-97203432D01*
X49340825Y-97136020D01*
X49340828Y-97136019D01*
X49477679Y-97094505D01*
X49548787Y-97087502D01*
X49584340Y-97084000D01*
X49655660Y-97084000D01*
X49691213Y-97087502D01*
X49691213Y-97087502D01*
G37*
G36*
X30346000Y-98536000D02*
G01*
X28894000Y-98536000D01*
X28894000Y-97084000D01*
X30346000Y-97084000D01*
X30346000Y-98536000D01*
X30346000Y-98536000D01*
G37*
G36*
X65346000Y-97066000D02*
G01*
X63894000Y-97066000D01*
X63894000Y-95614000D01*
X65346000Y-95614000D01*
X65346000Y-97066000D01*
X65346000Y-97066000D01*
G37*
G36*
X50346000Y-96536000D02*
G01*
X48894000Y-96536000D01*
X48894000Y-95084000D01*
X50346000Y-95084000D01*
X50346000Y-96536000D01*
X50346000Y-96536000D01*
G37*
G36*
X73138604Y-92738347D02*
G01*
X73175144Y-92749432D01*
X73208821Y-92767433D01*
X73238341Y-92791659D01*
X73262567Y-92821179D01*
X73280568Y-92854856D01*
X73291653Y-92891396D01*
X73296000Y-92935538D01*
X73296000Y-93884462D01*
X73291653Y-93928604D01*
X73280568Y-93965144D01*
X73262567Y-93998821D01*
X73238341Y-94028341D01*
X73208821Y-94052567D01*
X73175144Y-94070568D01*
X73138604Y-94081653D01*
X73094462Y-94086000D01*
X71645538Y-94086000D01*
X71601396Y-94081653D01*
X71564856Y-94070568D01*
X71531179Y-94052567D01*
X71501659Y-94028341D01*
X71477433Y-93998821D01*
X71459432Y-93965144D01*
X71448347Y-93928604D01*
X71444000Y-93884462D01*
X71444000Y-92935538D01*
X71448347Y-92891396D01*
X71459432Y-92854856D01*
X71477433Y-92821179D01*
X71501659Y-92791659D01*
X71531179Y-92767433D01*
X71564856Y-92749432D01*
X71601396Y-92738347D01*
X71645538Y-92734000D01*
X73094462Y-92734000D01*
X73138604Y-92738347D01*
X73138604Y-92738347D01*
G37*
G36*
X76496000Y-94046000D02*
G01*
X75044000Y-94046000D01*
X75044000Y-92594000D01*
X76496000Y-92594000D01*
X76496000Y-94046000D01*
X76496000Y-94046000D01*
G37*
G36*
X65425603Y-92623348D02*
G01*
X65462143Y-92634433D01*
X65495820Y-92652434D01*
X65525340Y-92676660D01*
X65549566Y-92706180D01*
X65567567Y-92739857D01*
X65578652Y-92776397D01*
X65582999Y-92820539D01*
X65582999Y-93769463D01*
X65578652Y-93813605D01*
X65567567Y-93850145D01*
X65549566Y-93883822D01*
X65525340Y-93913342D01*
X65495820Y-93937568D01*
X65462143Y-93955569D01*
X65425603Y-93966654D01*
X65381461Y-93971001D01*
X63932537Y-93971001D01*
X63888395Y-93966654D01*
X63851855Y-93955569D01*
X63818178Y-93937568D01*
X63788658Y-93913342D01*
X63764432Y-93883822D01*
X63746431Y-93850145D01*
X63735346Y-93813605D01*
X63730999Y-93769463D01*
X63730999Y-92820539D01*
X63735346Y-92776397D01*
X63746431Y-92739857D01*
X63764432Y-92706180D01*
X63788658Y-92676660D01*
X63818178Y-92652434D01*
X63851855Y-92634433D01*
X63888395Y-92623348D01*
X63932537Y-92619001D01*
X65381461Y-92619001D01*
X65425603Y-92623348D01*
X65425603Y-92623348D01*
G37*
G36*
X73138604Y-89938347D02*
G01*
X73175144Y-89949432D01*
X73208821Y-89967433D01*
X73238341Y-89991659D01*
X73262567Y-90021179D01*
X73280568Y-90054856D01*
X73291653Y-90091396D01*
X73296000Y-90135538D01*
X73296000Y-91084462D01*
X73291653Y-91128604D01*
X73280568Y-91165144D01*
X73262567Y-91198821D01*
X73238341Y-91228341D01*
X73208821Y-91252567D01*
X73175144Y-91270568D01*
X73138604Y-91281653D01*
X73094462Y-91286000D01*
X71645538Y-91286000D01*
X71601396Y-91281653D01*
X71564856Y-91270568D01*
X71531179Y-91252567D01*
X71501659Y-91228341D01*
X71477433Y-91198821D01*
X71459432Y-91165144D01*
X71448347Y-91128604D01*
X71444000Y-91084462D01*
X71444000Y-90135538D01*
X71448347Y-90091396D01*
X71459432Y-90054856D01*
X71477433Y-90021179D01*
X71501659Y-89991659D01*
X71531179Y-89967433D01*
X71564856Y-89949432D01*
X71601396Y-89938347D01*
X71645538Y-89934000D01*
X73094462Y-89934000D01*
X73138604Y-89938347D01*
X73138604Y-89938347D01*
G37*
G36*
X65425603Y-89823348D02*
G01*
X65462143Y-89834433D01*
X65495820Y-89852434D01*
X65525340Y-89876660D01*
X65549566Y-89906180D01*
X65567567Y-89939857D01*
X65578652Y-89976397D01*
X65582999Y-90020539D01*
X65582999Y-90969463D01*
X65578652Y-91013605D01*
X65567567Y-91050145D01*
X65549566Y-91083822D01*
X65525340Y-91113342D01*
X65495820Y-91137568D01*
X65462143Y-91155569D01*
X65425603Y-91166654D01*
X65381461Y-91171001D01*
X63932537Y-91171001D01*
X63888395Y-91166654D01*
X63851855Y-91155569D01*
X63818178Y-91137568D01*
X63788658Y-91113342D01*
X63764432Y-91083822D01*
X63746431Y-91050145D01*
X63735346Y-91013605D01*
X63730999Y-90969463D01*
X63730999Y-90020539D01*
X63735346Y-89976397D01*
X63746431Y-89939857D01*
X63764432Y-89906180D01*
X63788658Y-89876660D01*
X63818178Y-89852434D01*
X63851855Y-89834433D01*
X63888395Y-89823348D01*
X63932537Y-89819001D01*
X65381461Y-89819001D01*
X65425603Y-89823348D01*
X65425603Y-89823348D01*
G37*
G36*
X30231000Y-89306000D02*
G01*
X29009000Y-89306000D01*
X29009000Y-87044000D01*
X30231000Y-87044000D01*
X30231000Y-89306000D01*
X30231000Y-89306000D01*
G37*
G36*
X70282611Y-85772389D02*
G01*
X70301553Y-85787934D01*
X70323164Y-85799485D01*
X70346613Y-85806598D01*
X70370999Y-85809000D01*
X71071000Y-85809000D01*
X71071000Y-88211000D01*
X70370999Y-88211000D01*
X70346613Y-88213402D01*
X70323164Y-88220515D01*
X70301553Y-88232066D01*
X70282611Y-88247611D01*
X70271623Y-88261000D01*
X68468377Y-88261000D01*
X68457389Y-88247611D01*
X68438447Y-88232066D01*
X68416836Y-88220515D01*
X68393387Y-88213402D01*
X68369001Y-88211000D01*
X67669000Y-88211000D01*
X67669000Y-85809000D01*
X68369001Y-85809000D01*
X68393387Y-85806598D01*
X68416836Y-85799485D01*
X68438447Y-85787934D01*
X68457389Y-85772389D01*
X68468377Y-85759000D01*
X70271623Y-85759000D01*
X70282611Y-85772389D01*
X70282611Y-85772389D01*
G37*
G36*
X87296000Y-86336000D02*
G01*
X85844000Y-86336000D01*
X85844000Y-84884000D01*
X87296000Y-84884000D01*
X87296000Y-86336000D01*
X87296000Y-86336000D01*
G37*
G36*
X38401000Y-85196000D02*
G01*
X36299000Y-85196000D01*
X36299000Y-82544000D01*
X38401000Y-82544000D01*
X38401000Y-85196000D01*
X38401000Y-85196000D01*
G37*
G36*
X41821000Y-85196000D02*
G01*
X39719000Y-85196000D01*
X39719000Y-82544000D01*
X41821000Y-82544000D01*
X41821000Y-85196000D01*
X41821000Y-85196000D01*
G37*
G36*
X30231000Y-82576000D02*
G01*
X29009000Y-82576000D01*
X29009000Y-80314000D01*
X30231000Y-80314000D01*
X30231000Y-82576000D01*
X30231000Y-82576000D01*
G37*
G36*
X50346000Y-76536000D02*
G01*
X48894000Y-76536000D01*
X48894000Y-75084000D01*
X50346000Y-75084000D01*
X50346000Y-76536000D01*
X50346000Y-76536000D01*
G37*
G36*
X104215400Y-73890600D02*
G01*
X100813400Y-73890600D01*
X100813400Y-71288600D01*
X104215400Y-71288600D01*
X104215400Y-73890600D01*
X104215400Y-73890600D01*
G37*
G36*
X49346000Y-73536000D02*
G01*
X47894000Y-73536000D01*
X47894000Y-72084000D01*
X49346000Y-72084000D01*
X49346000Y-73536000D01*
X49346000Y-73536000D01*
G37*
G36*
X29346000Y-73536000D02*
G01*
X27894000Y-73536000D01*
X27894000Y-72084000D01*
X29346000Y-72084000D01*
X29346000Y-73536000D01*
X29346000Y-73536000D01*
G37*
G36*
X76496000Y-73336000D02*
G01*
X75044000Y-73336000D01*
X75044000Y-71884000D01*
X76496000Y-71884000D01*
X76496000Y-73336000D01*
X76496000Y-73336000D01*
G37*
G36*
X53321000Y-69321000D02*
G01*
X52419000Y-69321000D01*
X52419000Y-68519000D01*
X53321000Y-68519000D01*
X53321000Y-69321000D01*
X53321000Y-69321000D01*
G37*
G36*
X47898164Y-64699485D02*
G01*
X47921613Y-64706598D01*
X47945999Y-64709000D01*
X51816000Y-64709000D01*
X51816000Y-69311000D01*
X47945999Y-69311000D01*
X47921613Y-69313402D01*
X47898164Y-69320515D01*
X47897257Y-69321000D01*
X46919000Y-69321000D01*
X46919000Y-68519000D01*
X47299001Y-68519000D01*
X47323387Y-68516598D01*
X47346836Y-68509485D01*
X47368447Y-68497934D01*
X47387389Y-68482389D01*
X47402934Y-68463447D01*
X47414485Y-68441836D01*
X47421598Y-68418387D01*
X47424000Y-68394001D01*
X47424000Y-68175999D01*
X47421598Y-68151613D01*
X47414485Y-68128164D01*
X47402934Y-68106553D01*
X47387389Y-68087611D01*
X47368447Y-68072066D01*
X47346836Y-68060515D01*
X47323387Y-68053402D01*
X47299001Y-68051000D01*
X46919000Y-68051000D01*
X46919000Y-67249000D01*
X47299001Y-67249000D01*
X47323387Y-67246598D01*
X47346836Y-67239485D01*
X47368447Y-67227934D01*
X47387389Y-67212389D01*
X47402934Y-67193447D01*
X47414485Y-67171836D01*
X47421598Y-67148387D01*
X47424000Y-67124001D01*
X47424000Y-66895999D01*
X47421598Y-66871613D01*
X47414485Y-66848164D01*
X47402934Y-66826553D01*
X47387389Y-66807611D01*
X47368447Y-66792066D01*
X47346836Y-66780515D01*
X47323387Y-66773402D01*
X47299001Y-66771000D01*
X46919000Y-66771000D01*
X46919000Y-65969000D01*
X47299001Y-65969000D01*
X47323387Y-65966598D01*
X47346836Y-65959485D01*
X47368447Y-65947934D01*
X47387389Y-65932389D01*
X47402934Y-65913447D01*
X47414485Y-65891836D01*
X47421598Y-65868387D01*
X47424000Y-65844001D01*
X47424000Y-65625999D01*
X47421598Y-65601613D01*
X47414485Y-65578164D01*
X47402934Y-65556553D01*
X47387389Y-65537611D01*
X47368447Y-65522066D01*
X47346836Y-65510515D01*
X47323387Y-65503402D01*
X47299001Y-65501000D01*
X46919000Y-65501000D01*
X46919000Y-64699000D01*
X47897257Y-64699000D01*
X47898164Y-64699485D01*
X47898164Y-64699485D01*
G37*
G36*
X44321000Y-65501000D02*
G01*
X43940999Y-65501000D01*
X43916613Y-65503402D01*
X43893164Y-65510515D01*
X43871553Y-65522066D01*
X43852611Y-65537611D01*
X43837066Y-65556553D01*
X43825515Y-65578164D01*
X43818402Y-65601613D01*
X43816000Y-65625999D01*
X43816000Y-65844001D01*
X43818402Y-65868387D01*
X43825515Y-65891836D01*
X43837066Y-65913447D01*
X43852611Y-65932389D01*
X43871553Y-65947934D01*
X43893164Y-65959485D01*
X43916613Y-65966598D01*
X43940999Y-65969000D01*
X44321000Y-65969000D01*
X44321000Y-66771000D01*
X43940999Y-66771000D01*
X43916613Y-66773402D01*
X43893164Y-66780515D01*
X43871553Y-66792066D01*
X43852611Y-66807611D01*
X43837066Y-66826553D01*
X43825515Y-66848164D01*
X43818402Y-66871613D01*
X43816000Y-66895999D01*
X43816000Y-67124001D01*
X43818402Y-67148387D01*
X43825515Y-67171836D01*
X43837066Y-67193447D01*
X43852611Y-67212389D01*
X43871553Y-67227934D01*
X43893164Y-67239485D01*
X43916613Y-67246598D01*
X43940999Y-67249000D01*
X44321000Y-67249000D01*
X44321000Y-68051000D01*
X43940999Y-68051000D01*
X43916613Y-68053402D01*
X43893164Y-68060515D01*
X43871553Y-68072066D01*
X43852611Y-68087611D01*
X43837066Y-68106553D01*
X43825515Y-68128164D01*
X43818402Y-68151613D01*
X43816000Y-68175999D01*
X43816000Y-68394001D01*
X43818402Y-68418387D01*
X43825515Y-68441836D01*
X43837066Y-68463447D01*
X43852611Y-68482389D01*
X43871553Y-68497934D01*
X43893164Y-68509485D01*
X43916613Y-68516598D01*
X43940999Y-68519000D01*
X44321000Y-68519000D01*
X44321000Y-69321000D01*
X43342743Y-69321000D01*
X43341836Y-69320515D01*
X43318387Y-69313402D01*
X43294001Y-69311000D01*
X39424000Y-69311000D01*
X39424000Y-64709000D01*
X43294001Y-64709000D01*
X43318387Y-64706598D01*
X43341836Y-64699485D01*
X43342743Y-64699000D01*
X44321000Y-64699000D01*
X44321000Y-65501000D01*
X44321000Y-65501000D01*
G37*
G36*
X38821000Y-69321000D02*
G01*
X37919000Y-69321000D01*
X37919000Y-68519000D01*
X38821000Y-68519000D01*
X38821000Y-69321000D01*
X38821000Y-69321000D01*
G37*
G36*
X58388604Y-67738347D02*
G01*
X58425144Y-67749432D01*
X58458821Y-67767433D01*
X58488341Y-67791659D01*
X58512567Y-67821179D01*
X58530568Y-67854856D01*
X58541653Y-67891396D01*
X58546000Y-67935538D01*
X58546000Y-68884462D01*
X58541653Y-68928604D01*
X58530568Y-68965144D01*
X58512567Y-68998821D01*
X58488341Y-69028341D01*
X58458821Y-69052567D01*
X58425144Y-69070568D01*
X58388604Y-69081653D01*
X58344462Y-69086000D01*
X56895538Y-69086000D01*
X56851396Y-69081653D01*
X56814856Y-69070568D01*
X56781179Y-69052567D01*
X56751659Y-69028341D01*
X56727433Y-68998821D01*
X56709432Y-68965144D01*
X56698347Y-68928604D01*
X56694000Y-68884462D01*
X56694000Y-67935538D01*
X56698347Y-67891396D01*
X56709432Y-67854856D01*
X56727433Y-67821179D01*
X56751659Y-67791659D01*
X56781179Y-67767433D01*
X56814856Y-67749432D01*
X56851396Y-67738347D01*
X56895538Y-67734000D01*
X58344462Y-67734000D01*
X58388604Y-67738347D01*
X58388604Y-67738347D01*
G37*
G36*
X33988604Y-67738347D02*
G01*
X34025144Y-67749432D01*
X34058821Y-67767433D01*
X34088341Y-67791659D01*
X34112567Y-67821179D01*
X34130568Y-67854856D01*
X34141653Y-67891396D01*
X34146000Y-67935538D01*
X34146000Y-68884462D01*
X34141653Y-68928604D01*
X34130568Y-68965144D01*
X34112567Y-68998821D01*
X34088341Y-69028341D01*
X34058821Y-69052567D01*
X34025144Y-69070568D01*
X33988604Y-69081653D01*
X33944462Y-69086000D01*
X32495538Y-69086000D01*
X32451396Y-69081653D01*
X32414856Y-69070568D01*
X32381179Y-69052567D01*
X32351659Y-69028341D01*
X32327433Y-68998821D01*
X32309432Y-68965144D01*
X32298347Y-68928604D01*
X32294000Y-68884462D01*
X32294000Y-67935538D01*
X32298347Y-67891396D01*
X32309432Y-67854856D01*
X32327433Y-67821179D01*
X32351659Y-67791659D01*
X32381179Y-67767433D01*
X32414856Y-67749432D01*
X32451396Y-67738347D01*
X32495538Y-67734000D01*
X33944462Y-67734000D01*
X33988604Y-67738347D01*
X33988604Y-67738347D01*
G37*
G36*
X30288604Y-67738347D02*
G01*
X30325144Y-67749432D01*
X30358821Y-67767433D01*
X30388341Y-67791659D01*
X30412567Y-67821179D01*
X30430568Y-67854856D01*
X30441653Y-67891396D01*
X30446000Y-67935538D01*
X30446000Y-68884462D01*
X30441653Y-68928604D01*
X30430568Y-68965144D01*
X30412567Y-68998821D01*
X30388341Y-69028341D01*
X30358821Y-69052567D01*
X30325144Y-69070568D01*
X30288604Y-69081653D01*
X30244462Y-69086000D01*
X28795538Y-69086000D01*
X28751396Y-69081653D01*
X28714856Y-69070568D01*
X28681179Y-69052567D01*
X28651659Y-69028341D01*
X28627433Y-68998821D01*
X28609432Y-68965144D01*
X28598347Y-68928604D01*
X28594000Y-68884462D01*
X28594000Y-67935538D01*
X28598347Y-67891396D01*
X28609432Y-67854856D01*
X28627433Y-67821179D01*
X28651659Y-67791659D01*
X28681179Y-67767433D01*
X28714856Y-67749432D01*
X28751396Y-67738347D01*
X28795538Y-67734000D01*
X30244462Y-67734000D01*
X30288604Y-67738347D01*
X30288604Y-67738347D01*
G37*
G36*
X68251213Y-67027502D02*
G01*
X68322321Y-67034505D01*
X68459172Y-67076019D01*
X68459175Y-67076020D01*
X68585294Y-67143432D01*
X68695843Y-67234157D01*
X68786568Y-67344706D01*
X68853980Y-67470825D01*
X68853981Y-67470828D01*
X68895495Y-67607679D01*
X68909512Y-67750000D01*
X68895495Y-67892321D01*
X68853981Y-68029172D01*
X68853980Y-68029175D01*
X68786568Y-68155294D01*
X68695843Y-68265843D01*
X68585294Y-68356568D01*
X68459175Y-68423980D01*
X68459172Y-68423981D01*
X68322321Y-68465495D01*
X68251213Y-68472498D01*
X68215660Y-68476000D01*
X68144340Y-68476000D01*
X68108787Y-68472498D01*
X68037679Y-68465495D01*
X67900828Y-68423981D01*
X67900825Y-68423980D01*
X67774706Y-68356568D01*
X67664157Y-68265843D01*
X67573432Y-68155294D01*
X67506020Y-68029175D01*
X67506019Y-68029172D01*
X67464505Y-67892321D01*
X67450488Y-67750000D01*
X67464505Y-67607679D01*
X67506019Y-67470828D01*
X67506020Y-67470825D01*
X67573432Y-67344706D01*
X67664157Y-67234157D01*
X67774706Y-67143432D01*
X67900825Y-67076020D01*
X67900828Y-67076019D01*
X68037679Y-67034505D01*
X68108787Y-67027502D01*
X68144340Y-67024000D01*
X68215660Y-67024000D01*
X68251213Y-67027502D01*
X68251213Y-67027502D01*
G37*
G36*
X53321000Y-68051000D02*
G01*
X52419000Y-68051000D01*
X52419000Y-67249000D01*
X53321000Y-67249000D01*
X53321000Y-68051000D01*
X53321000Y-68051000D01*
G37*
G36*
X38821000Y-68051000D02*
G01*
X37919000Y-68051000D01*
X37919000Y-67249000D01*
X38821000Y-67249000D01*
X38821000Y-68051000D01*
X38821000Y-68051000D01*
G37*
G36*
X104215400Y-67090600D02*
G01*
X100813400Y-67090600D01*
X100813400Y-64488600D01*
X104215400Y-64488600D01*
X104215400Y-67090600D01*
X104215400Y-67090600D01*
G37*
G36*
X53321000Y-66771000D02*
G01*
X52419000Y-66771000D01*
X52419000Y-65969000D01*
X53321000Y-65969000D01*
X53321000Y-66771000D01*
X53321000Y-66771000D01*
G37*
G36*
X38821000Y-66771000D02*
G01*
X37919000Y-66771000D01*
X37919000Y-65969000D01*
X38821000Y-65969000D01*
X38821000Y-66771000D01*
X38821000Y-66771000D01*
G37*
G36*
X68251213Y-65027502D02*
G01*
X68322321Y-65034505D01*
X68459172Y-65076019D01*
X68459175Y-65076020D01*
X68585294Y-65143432D01*
X68695843Y-65234157D01*
X68786568Y-65344706D01*
X68853980Y-65470825D01*
X68853981Y-65470828D01*
X68895495Y-65607679D01*
X68909512Y-65750000D01*
X68895495Y-65892321D01*
X68872963Y-65966598D01*
X68853980Y-66029175D01*
X68786568Y-66155294D01*
X68695843Y-66265843D01*
X68585294Y-66356568D01*
X68459175Y-66423980D01*
X68459172Y-66423981D01*
X68322321Y-66465495D01*
X68251213Y-66472498D01*
X68215660Y-66476000D01*
X68144340Y-66476000D01*
X68108787Y-66472498D01*
X68037679Y-66465495D01*
X67900828Y-66423981D01*
X67900825Y-66423980D01*
X67774706Y-66356568D01*
X67664157Y-66265843D01*
X67573432Y-66155294D01*
X67506020Y-66029175D01*
X67487037Y-65966598D01*
X67464505Y-65892321D01*
X67450488Y-65750000D01*
X67464505Y-65607679D01*
X67506019Y-65470828D01*
X67506020Y-65470825D01*
X67573432Y-65344706D01*
X67664157Y-65234157D01*
X67774706Y-65143432D01*
X67900825Y-65076020D01*
X67900828Y-65076019D01*
X68037679Y-65034505D01*
X68108787Y-65027502D01*
X68144340Y-65024000D01*
X68215660Y-65024000D01*
X68251213Y-65027502D01*
X68251213Y-65027502D01*
G37*
G36*
X33988604Y-64938347D02*
G01*
X34025144Y-64949432D01*
X34058821Y-64967433D01*
X34088341Y-64991659D01*
X34112567Y-65021179D01*
X34130568Y-65054856D01*
X34141653Y-65091396D01*
X34146000Y-65135538D01*
X34146000Y-66084462D01*
X34141653Y-66128604D01*
X34130568Y-66165144D01*
X34112567Y-66198821D01*
X34088341Y-66228341D01*
X34058821Y-66252567D01*
X34025144Y-66270568D01*
X33988604Y-66281653D01*
X33944462Y-66286000D01*
X32495538Y-66286000D01*
X32451396Y-66281653D01*
X32414856Y-66270568D01*
X32381179Y-66252567D01*
X32351659Y-66228341D01*
X32327433Y-66198821D01*
X32309432Y-66165144D01*
X32298347Y-66128604D01*
X32294000Y-66084462D01*
X32294000Y-65135538D01*
X32298347Y-65091396D01*
X32309432Y-65054856D01*
X32327433Y-65021179D01*
X32351659Y-64991659D01*
X32381179Y-64967433D01*
X32414856Y-64949432D01*
X32451396Y-64938347D01*
X32495538Y-64934000D01*
X33944462Y-64934000D01*
X33988604Y-64938347D01*
X33988604Y-64938347D01*
G37*
G36*
X30288604Y-64938347D02*
G01*
X30325144Y-64949432D01*
X30358821Y-64967433D01*
X30388341Y-64991659D01*
X30412567Y-65021179D01*
X30430568Y-65054856D01*
X30441653Y-65091396D01*
X30446000Y-65135538D01*
X30446000Y-66084462D01*
X30441653Y-66128604D01*
X30430568Y-66165144D01*
X30412567Y-66198821D01*
X30388341Y-66228341D01*
X30358821Y-66252567D01*
X30325144Y-66270568D01*
X30288604Y-66281653D01*
X30244462Y-66286000D01*
X28795538Y-66286000D01*
X28751396Y-66281653D01*
X28714856Y-66270568D01*
X28681179Y-66252567D01*
X28651659Y-66228341D01*
X28627433Y-66198821D01*
X28609432Y-66165144D01*
X28598347Y-66128604D01*
X28594000Y-66084462D01*
X28594000Y-65135538D01*
X28598347Y-65091396D01*
X28609432Y-65054856D01*
X28627433Y-65021179D01*
X28651659Y-64991659D01*
X28681179Y-64967433D01*
X28714856Y-64949432D01*
X28751396Y-64938347D01*
X28795538Y-64934000D01*
X30244462Y-64934000D01*
X30288604Y-64938347D01*
X30288604Y-64938347D01*
G37*
G36*
X58388604Y-64938347D02*
G01*
X58425144Y-64949432D01*
X58458821Y-64967433D01*
X58488341Y-64991659D01*
X58512567Y-65021179D01*
X58530568Y-65054856D01*
X58541653Y-65091396D01*
X58546000Y-65135538D01*
X58546000Y-66084462D01*
X58541653Y-66128604D01*
X58530568Y-66165144D01*
X58512567Y-66198821D01*
X58488341Y-66228341D01*
X58458821Y-66252567D01*
X58425144Y-66270568D01*
X58388604Y-66281653D01*
X58344462Y-66286000D01*
X56895538Y-66286000D01*
X56851396Y-66281653D01*
X56814856Y-66270568D01*
X56781179Y-66252567D01*
X56751659Y-66228341D01*
X56727433Y-66198821D01*
X56709432Y-66165144D01*
X56698347Y-66128604D01*
X56694000Y-66084462D01*
X56694000Y-65135538D01*
X56698347Y-65091396D01*
X56709432Y-65054856D01*
X56727433Y-65021179D01*
X56751659Y-64991659D01*
X56781179Y-64967433D01*
X56814856Y-64949432D01*
X56851396Y-64938347D01*
X56895538Y-64934000D01*
X58344462Y-64934000D01*
X58388604Y-64938347D01*
X58388604Y-64938347D01*
G37*
G36*
X93856000Y-65541000D02*
G01*
X92304000Y-65541000D01*
X92304000Y-63039000D01*
X93856000Y-63039000D01*
X93856000Y-65541000D01*
X93856000Y-65541000D01*
G37*
G36*
X87956000Y-65541000D02*
G01*
X86404000Y-65541000D01*
X86404000Y-63039000D01*
X87956000Y-63039000D01*
X87956000Y-65541000D01*
X87956000Y-65541000D01*
G37*
G36*
X38821000Y-65501000D02*
G01*
X37919000Y-65501000D01*
X37919000Y-64699000D01*
X38821000Y-64699000D01*
X38821000Y-65501000D01*
X38821000Y-65501000D01*
G37*
G36*
X53321000Y-65501000D02*
G01*
X52419000Y-65501000D01*
X52419000Y-64699000D01*
X53321000Y-64699000D01*
X53321000Y-65501000D01*
X53321000Y-65501000D01*
G37*
G36*
X68251213Y-63027502D02*
G01*
X68322321Y-63034505D01*
X68459172Y-63076019D01*
X68459175Y-63076020D01*
X68585294Y-63143432D01*
X68695843Y-63234157D01*
X68786568Y-63344706D01*
X68853980Y-63470825D01*
X68853981Y-63470828D01*
X68895495Y-63607679D01*
X68909512Y-63750000D01*
X68895495Y-63892321D01*
X68853981Y-64029172D01*
X68853980Y-64029175D01*
X68786568Y-64155294D01*
X68695843Y-64265843D01*
X68585294Y-64356568D01*
X68459175Y-64423980D01*
X68459172Y-64423981D01*
X68322321Y-64465495D01*
X68251213Y-64472498D01*
X68215660Y-64476000D01*
X68144340Y-64476000D01*
X68108787Y-64472498D01*
X68037679Y-64465495D01*
X67900828Y-64423981D01*
X67900825Y-64423980D01*
X67774706Y-64356568D01*
X67664157Y-64265843D01*
X67573432Y-64155294D01*
X67506020Y-64029175D01*
X67506019Y-64029172D01*
X67464505Y-63892321D01*
X67450488Y-63750000D01*
X67464505Y-63607679D01*
X67506019Y-63470828D01*
X67506020Y-63470825D01*
X67573432Y-63344706D01*
X67664157Y-63234157D01*
X67774706Y-63143432D01*
X67900825Y-63076020D01*
X67900828Y-63076019D01*
X68037679Y-63034505D01*
X68108787Y-63027502D01*
X68144340Y-63024000D01*
X68215660Y-63024000D01*
X68251213Y-63027502D01*
X68251213Y-63027502D01*
G37*
G36*
X81788604Y-62138347D02*
G01*
X81825144Y-62149432D01*
X81858821Y-62167433D01*
X81888341Y-62191659D01*
X81912567Y-62221179D01*
X81930568Y-62254856D01*
X81941653Y-62291396D01*
X81946000Y-62335538D01*
X81946000Y-63284462D01*
X81941653Y-63328604D01*
X81930568Y-63365144D01*
X81912567Y-63398821D01*
X81888341Y-63428341D01*
X81858821Y-63452567D01*
X81825144Y-63470568D01*
X81788604Y-63481653D01*
X81744462Y-63486000D01*
X80295538Y-63486000D01*
X80251396Y-63481653D01*
X80214856Y-63470568D01*
X80181179Y-63452567D01*
X80151659Y-63428341D01*
X80127433Y-63398821D01*
X80109432Y-63365144D01*
X80098347Y-63328604D01*
X80094000Y-63284462D01*
X80094000Y-62335538D01*
X80098347Y-62291396D01*
X80109432Y-62254856D01*
X80127433Y-62221179D01*
X80151659Y-62191659D01*
X80181179Y-62167433D01*
X80214856Y-62149432D01*
X80251396Y-62138347D01*
X80295538Y-62134000D01*
X81744462Y-62134000D01*
X81788604Y-62138347D01*
X81788604Y-62138347D01*
G37*
G36*
X73481000Y-63406000D02*
G01*
X72259000Y-63406000D01*
X72259000Y-61144000D01*
X73481000Y-61144000D01*
X73481000Y-63406000D01*
X73481000Y-63406000D01*
G37*
G36*
X68251213Y-61027502D02*
G01*
X68322321Y-61034505D01*
X68459172Y-61076019D01*
X68459175Y-61076020D01*
X68585294Y-61143432D01*
X68695843Y-61234157D01*
X68786568Y-61344706D01*
X68853980Y-61470825D01*
X68853981Y-61470828D01*
X68895495Y-61607679D01*
X68909512Y-61750000D01*
X68895495Y-61892321D01*
X68853981Y-62029172D01*
X68853980Y-62029175D01*
X68786568Y-62155294D01*
X68695843Y-62265843D01*
X68585294Y-62356568D01*
X68459175Y-62423980D01*
X68459172Y-62423981D01*
X68322321Y-62465495D01*
X68251213Y-62472498D01*
X68215660Y-62476000D01*
X68144340Y-62476000D01*
X68108787Y-62472498D01*
X68037679Y-62465495D01*
X67900828Y-62423981D01*
X67900825Y-62423980D01*
X67774706Y-62356568D01*
X67664157Y-62265843D01*
X67573432Y-62155294D01*
X67506020Y-62029175D01*
X67506019Y-62029172D01*
X67464505Y-61892321D01*
X67450488Y-61750000D01*
X67464505Y-61607679D01*
X67506019Y-61470828D01*
X67506020Y-61470825D01*
X67573432Y-61344706D01*
X67664157Y-61234157D01*
X67774706Y-61143432D01*
X67900825Y-61076020D01*
X67900828Y-61076019D01*
X68037679Y-61034505D01*
X68108787Y-61027502D01*
X68144340Y-61024000D01*
X68215660Y-61024000D01*
X68251213Y-61027502D01*
X68251213Y-61027502D01*
G37*
G36*
X120715600Y-60924000D02*
G01*
X119263600Y-60924000D01*
X119263600Y-59472000D01*
X120715600Y-59472000D01*
X120715600Y-60924000D01*
X120715600Y-60924000D01*
G37*
G36*
X95756000Y-60916000D02*
G01*
X94304000Y-60916000D01*
X94304000Y-59464000D01*
X95756000Y-59464000D01*
X95756000Y-60916000D01*
X95756000Y-60916000D01*
G37*
G36*
X81788604Y-59338347D02*
G01*
X81825144Y-59349432D01*
X81858821Y-59367433D01*
X81888341Y-59391659D01*
X81912567Y-59421179D01*
X81930568Y-59454856D01*
X81941653Y-59491396D01*
X81946000Y-59535538D01*
X81946000Y-60484462D01*
X81941653Y-60528604D01*
X81930568Y-60565144D01*
X81912567Y-60598821D01*
X81888341Y-60628341D01*
X81858821Y-60652567D01*
X81825144Y-60670568D01*
X81788604Y-60681653D01*
X81744462Y-60686000D01*
X80295538Y-60686000D01*
X80251396Y-60681653D01*
X80214856Y-60670568D01*
X80181179Y-60652567D01*
X80151659Y-60628341D01*
X80127433Y-60598821D01*
X80109432Y-60565144D01*
X80098347Y-60528604D01*
X80094000Y-60484462D01*
X80094000Y-59535538D01*
X80098347Y-59491396D01*
X80109432Y-59454856D01*
X80127433Y-59421179D01*
X80151659Y-59391659D01*
X80181179Y-59367433D01*
X80214856Y-59349432D01*
X80251396Y-59338347D01*
X80295538Y-59334000D01*
X81744462Y-59334000D01*
X81788604Y-59338347D01*
X81788604Y-59338347D01*
G37*
G36*
X68251213Y-59027502D02*
G01*
X68322321Y-59034505D01*
X68459172Y-59076019D01*
X68459175Y-59076020D01*
X68585294Y-59143432D01*
X68695843Y-59234157D01*
X68786568Y-59344706D01*
X68853980Y-59470825D01*
X68853981Y-59470828D01*
X68895495Y-59607679D01*
X68909512Y-59750000D01*
X68895495Y-59892321D01*
X68853981Y-60029172D01*
X68853980Y-60029175D01*
X68786568Y-60155294D01*
X68695843Y-60265843D01*
X68585294Y-60356568D01*
X68459175Y-60423980D01*
X68459172Y-60423981D01*
X68322321Y-60465495D01*
X68251213Y-60472498D01*
X68215660Y-60476000D01*
X68144340Y-60476000D01*
X68108787Y-60472498D01*
X68037679Y-60465495D01*
X67900828Y-60423981D01*
X67900825Y-60423980D01*
X67774706Y-60356568D01*
X67664157Y-60265843D01*
X67573432Y-60155294D01*
X67506020Y-60029175D01*
X67506019Y-60029172D01*
X67464505Y-59892321D01*
X67450488Y-59750000D01*
X67464505Y-59607679D01*
X67506019Y-59470828D01*
X67506020Y-59470825D01*
X67573432Y-59344706D01*
X67664157Y-59234157D01*
X67774706Y-59143432D01*
X67900825Y-59076020D01*
X67900828Y-59076019D01*
X68037679Y-59034505D01*
X68108787Y-59027502D01*
X68144340Y-59024000D01*
X68215660Y-59024000D01*
X68251213Y-59027502D01*
X68251213Y-59027502D01*
G37*
G36*
X102938604Y-57488347D02*
G01*
X102975144Y-57499432D01*
X103008821Y-57517433D01*
X103038341Y-57541659D01*
X103062567Y-57571179D01*
X103080568Y-57604856D01*
X103091653Y-57641396D01*
X103096000Y-57685538D01*
X103096000Y-59134462D01*
X103091653Y-59178604D01*
X103080568Y-59215144D01*
X103062567Y-59248821D01*
X103038341Y-59278341D01*
X103008821Y-59302567D01*
X102975144Y-59320568D01*
X102938604Y-59331653D01*
X102894462Y-59336000D01*
X101945538Y-59336000D01*
X101901396Y-59331653D01*
X101864856Y-59320568D01*
X101831179Y-59302567D01*
X101801659Y-59278341D01*
X101777433Y-59248821D01*
X101759432Y-59215144D01*
X101748347Y-59178604D01*
X101744000Y-59134462D01*
X101744000Y-57685538D01*
X101748347Y-57641396D01*
X101759432Y-57604856D01*
X101777433Y-57571179D01*
X101801659Y-57541659D01*
X101831179Y-57517433D01*
X101864856Y-57499432D01*
X101901396Y-57488347D01*
X101945538Y-57484000D01*
X102894462Y-57484000D01*
X102938604Y-57488347D01*
X102938604Y-57488347D01*
G37*
G36*
X100138604Y-57488347D02*
G01*
X100175144Y-57499432D01*
X100208821Y-57517433D01*
X100238341Y-57541659D01*
X100262567Y-57571179D01*
X100280568Y-57604856D01*
X100291653Y-57641396D01*
X100296000Y-57685538D01*
X100296000Y-59134462D01*
X100291653Y-59178604D01*
X100280568Y-59215144D01*
X100262567Y-59248821D01*
X100238341Y-59278341D01*
X100208821Y-59302567D01*
X100175144Y-59320568D01*
X100138604Y-59331653D01*
X100094462Y-59336000D01*
X99145538Y-59336000D01*
X99101396Y-59331653D01*
X99064856Y-59320568D01*
X99031179Y-59302567D01*
X99001659Y-59278341D01*
X98977433Y-59248821D01*
X98959432Y-59215144D01*
X98948347Y-59178604D01*
X98944000Y-59134462D01*
X98944000Y-57685538D01*
X98948347Y-57641396D01*
X98959432Y-57604856D01*
X98977433Y-57571179D01*
X99001659Y-57541659D01*
X99031179Y-57517433D01*
X99064856Y-57499432D01*
X99101396Y-57488347D01*
X99145538Y-57484000D01*
X100094462Y-57484000D01*
X100138604Y-57488347D01*
X100138604Y-57488347D01*
G37*
G36*
X106788604Y-57738347D02*
G01*
X106825144Y-57749432D01*
X106858821Y-57767433D01*
X106888341Y-57791659D01*
X106912567Y-57821179D01*
X106930568Y-57854856D01*
X106941653Y-57891396D01*
X106946000Y-57935538D01*
X106946000Y-58884462D01*
X106941653Y-58928604D01*
X106930568Y-58965144D01*
X106912567Y-58998821D01*
X106888341Y-59028341D01*
X106858821Y-59052567D01*
X106825144Y-59070568D01*
X106788604Y-59081653D01*
X106744462Y-59086000D01*
X105295538Y-59086000D01*
X105251396Y-59081653D01*
X105214856Y-59070568D01*
X105181179Y-59052567D01*
X105151659Y-59028341D01*
X105127433Y-58998821D01*
X105109432Y-58965144D01*
X105098347Y-58928604D01*
X105094000Y-58884462D01*
X105094000Y-57935538D01*
X105098347Y-57891396D01*
X105109432Y-57854856D01*
X105127433Y-57821179D01*
X105151659Y-57791659D01*
X105181179Y-57767433D01*
X105214856Y-57749432D01*
X105251396Y-57738347D01*
X105295538Y-57734000D01*
X106744462Y-57734000D01*
X106788604Y-57738347D01*
X106788604Y-57738347D01*
G37*
G36*
X90546000Y-58666000D02*
G01*
X88894000Y-58666000D01*
X88894000Y-57964000D01*
X90546000Y-57964000D01*
X90546000Y-58666000D01*
X90546000Y-58666000D01*
G37*
G36*
X85146000Y-58666000D02*
G01*
X83494000Y-58666000D01*
X83494000Y-57964000D01*
X85146000Y-57964000D01*
X85146000Y-58666000D01*
X85146000Y-58666000D01*
G37*
G36*
X95788604Y-57138347D02*
G01*
X95825144Y-57149432D01*
X95858821Y-57167433D01*
X95888341Y-57191659D01*
X95912567Y-57221179D01*
X95930568Y-57254856D01*
X95941653Y-57291396D01*
X95946000Y-57335538D01*
X95946000Y-58284462D01*
X95941653Y-58328604D01*
X95930568Y-58365144D01*
X95912567Y-58398821D01*
X95888341Y-58428341D01*
X95858821Y-58452567D01*
X95825144Y-58470568D01*
X95788604Y-58481653D01*
X95744462Y-58486000D01*
X94295538Y-58486000D01*
X94251396Y-58481653D01*
X94214856Y-58470568D01*
X94181179Y-58452567D01*
X94151659Y-58428341D01*
X94127433Y-58398821D01*
X94109432Y-58365144D01*
X94098347Y-58328604D01*
X94094000Y-58284462D01*
X94094000Y-57335538D01*
X94098347Y-57291396D01*
X94109432Y-57254856D01*
X94127433Y-57221179D01*
X94151659Y-57191659D01*
X94181179Y-57167433D01*
X94214856Y-57149432D01*
X94251396Y-57138347D01*
X94295538Y-57134000D01*
X95744462Y-57134000D01*
X95788604Y-57138347D01*
X95788604Y-57138347D01*
G37*
G36*
X68906000Y-58476000D02*
G01*
X67454000Y-58476000D01*
X67454000Y-57024000D01*
X68906000Y-57024000D01*
X68906000Y-58476000D01*
X68906000Y-58476000D01*
G37*
G36*
X57070442Y-56295518D02*
G01*
X57136627Y-56302037D01*
X57306466Y-56353557D01*
X57462991Y-56437222D01*
X57480569Y-56451648D01*
X57600186Y-56549814D01*
X57683448Y-56651271D01*
X57712778Y-56687009D01*
X57796443Y-56843534D01*
X57847963Y-57013373D01*
X57865359Y-57190000D01*
X57847963Y-57366627D01*
X57796443Y-57536466D01*
X57712778Y-57692991D01*
X57705673Y-57701648D01*
X57600186Y-57830186D01*
X57498729Y-57913448D01*
X57462991Y-57942778D01*
X57384728Y-57984611D01*
X57343212Y-58006802D01*
X57306466Y-58026443D01*
X57136627Y-58077963D01*
X57070442Y-58084482D01*
X57004260Y-58091000D01*
X56915740Y-58091000D01*
X56849558Y-58084482D01*
X56783373Y-58077963D01*
X56613534Y-58026443D01*
X56576789Y-58006802D01*
X56535272Y-57984611D01*
X56457009Y-57942778D01*
X56421271Y-57913448D01*
X56319814Y-57830186D01*
X56214327Y-57701648D01*
X56207222Y-57692991D01*
X56123557Y-57536466D01*
X56072037Y-57366627D01*
X56054641Y-57190000D01*
X56072037Y-57013373D01*
X56123557Y-56843534D01*
X56207222Y-56687009D01*
X56236552Y-56651271D01*
X56319814Y-56549814D01*
X56439431Y-56451648D01*
X56457009Y-56437222D01*
X56613534Y-56353557D01*
X56783373Y-56302037D01*
X56849558Y-56295518D01*
X56915740Y-56289000D01*
X57004260Y-56289000D01*
X57070442Y-56295518D01*
X57070442Y-56295518D01*
G37*
G36*
X41830442Y-56295518D02*
G01*
X41896627Y-56302037D01*
X42066466Y-56353557D01*
X42222991Y-56437222D01*
X42240569Y-56451648D01*
X42360186Y-56549814D01*
X42443448Y-56651271D01*
X42472778Y-56687009D01*
X42556443Y-56843534D01*
X42607963Y-57013373D01*
X42625359Y-57190000D01*
X42607963Y-57366627D01*
X42556443Y-57536466D01*
X42472778Y-57692991D01*
X42465673Y-57701648D01*
X42360186Y-57830186D01*
X42258729Y-57913448D01*
X42222991Y-57942778D01*
X42144728Y-57984611D01*
X42103212Y-58006802D01*
X42066466Y-58026443D01*
X41896627Y-58077963D01*
X41830442Y-58084482D01*
X41764260Y-58091000D01*
X41675740Y-58091000D01*
X41609558Y-58084482D01*
X41543373Y-58077963D01*
X41373534Y-58026443D01*
X41336789Y-58006802D01*
X41295272Y-57984611D01*
X41217009Y-57942778D01*
X41181271Y-57913448D01*
X41079814Y-57830186D01*
X40974327Y-57701648D01*
X40967222Y-57692991D01*
X40883557Y-57536466D01*
X40832037Y-57366627D01*
X40814641Y-57190000D01*
X40832037Y-57013373D01*
X40883557Y-56843534D01*
X40967222Y-56687009D01*
X40996552Y-56651271D01*
X41079814Y-56549814D01*
X41199431Y-56451648D01*
X41217009Y-56437222D01*
X41373534Y-56353557D01*
X41543373Y-56302037D01*
X41609558Y-56295518D01*
X41675740Y-56289000D01*
X41764260Y-56289000D01*
X41830442Y-56295518D01*
X41830442Y-56295518D01*
G37*
G36*
X81788604Y-56738347D02*
G01*
X81825144Y-56749432D01*
X81858821Y-56767433D01*
X81888341Y-56791659D01*
X81912567Y-56821179D01*
X81930568Y-56854856D01*
X81941653Y-56891396D01*
X81946000Y-56935538D01*
X81946000Y-57884462D01*
X81941653Y-57928604D01*
X81930568Y-57965144D01*
X81912567Y-57998821D01*
X81888341Y-58028341D01*
X81858821Y-58052567D01*
X81825144Y-58070568D01*
X81788604Y-58081653D01*
X81744462Y-58086000D01*
X80295538Y-58086000D01*
X80251396Y-58081653D01*
X80214856Y-58070568D01*
X80181179Y-58052567D01*
X80151659Y-58028341D01*
X80127433Y-57998821D01*
X80109432Y-57965144D01*
X80098347Y-57928604D01*
X80094000Y-57884462D01*
X80094000Y-56935538D01*
X80098347Y-56891396D01*
X80109432Y-56854856D01*
X80127433Y-56821179D01*
X80151659Y-56791659D01*
X80181179Y-56767433D01*
X80214856Y-56749432D01*
X80251396Y-56738347D01*
X80295538Y-56734000D01*
X81744462Y-56734000D01*
X81788604Y-56738347D01*
X81788604Y-56738347D01*
G37*
G36*
X52588604Y-56238347D02*
G01*
X52625144Y-56249432D01*
X52658821Y-56267433D01*
X52688341Y-56291659D01*
X52712567Y-56321179D01*
X52730568Y-56354856D01*
X52741653Y-56391396D01*
X52746000Y-56435538D01*
X52746000Y-57384462D01*
X52741653Y-57428604D01*
X52730568Y-57465144D01*
X52712567Y-57498821D01*
X52688341Y-57528341D01*
X52658821Y-57552567D01*
X52625144Y-57570568D01*
X52588604Y-57581653D01*
X52544462Y-57586000D01*
X51095538Y-57586000D01*
X51051396Y-57581653D01*
X51014856Y-57570568D01*
X50981179Y-57552567D01*
X50951659Y-57528341D01*
X50927433Y-57498821D01*
X50909432Y-57465144D01*
X50898347Y-57428604D01*
X50894000Y-57384462D01*
X50894000Y-56435538D01*
X50898347Y-56391396D01*
X50909432Y-56354856D01*
X50927433Y-56321179D01*
X50951659Y-56291659D01*
X50981179Y-56267433D01*
X51014856Y-56249432D01*
X51051396Y-56238347D01*
X51095538Y-56234000D01*
X52544462Y-56234000D01*
X52588604Y-56238347D01*
X52588604Y-56238347D01*
G37*
G36*
X90546000Y-57396000D02*
G01*
X88894000Y-57396000D01*
X88894000Y-56694000D01*
X90546000Y-56694000D01*
X90546000Y-57396000D01*
X90546000Y-57396000D01*
G37*
G36*
X85146000Y-57396000D02*
G01*
X83494000Y-57396000D01*
X83494000Y-56694000D01*
X85146000Y-56694000D01*
X85146000Y-57396000D01*
X85146000Y-57396000D01*
G37*
G36*
X73481000Y-56676000D02*
G01*
X72259000Y-56676000D01*
X72259000Y-54414000D01*
X73481000Y-54414000D01*
X73481000Y-56676000D01*
X73481000Y-56676000D01*
G37*
G36*
X106788604Y-54938347D02*
G01*
X106825144Y-54949432D01*
X106858821Y-54967433D01*
X106888341Y-54991659D01*
X106912567Y-55021179D01*
X106930568Y-55054856D01*
X106941653Y-55091396D01*
X106946000Y-55135538D01*
X106946000Y-56084462D01*
X106941653Y-56128604D01*
X106930568Y-56165144D01*
X106912567Y-56198821D01*
X106888341Y-56228341D01*
X106858821Y-56252567D01*
X106825144Y-56270568D01*
X106788604Y-56281653D01*
X106744462Y-56286000D01*
X105295538Y-56286000D01*
X105251396Y-56281653D01*
X105214856Y-56270568D01*
X105181179Y-56252567D01*
X105151659Y-56228341D01*
X105127433Y-56198821D01*
X105109432Y-56165144D01*
X105098347Y-56128604D01*
X105094000Y-56084462D01*
X105094000Y-55135538D01*
X105098347Y-55091396D01*
X105109432Y-55054856D01*
X105127433Y-55021179D01*
X105151659Y-54991659D01*
X105181179Y-54967433D01*
X105214856Y-54949432D01*
X105251396Y-54938347D01*
X105295538Y-54934000D01*
X106744462Y-54934000D01*
X106788604Y-54938347D01*
X106788604Y-54938347D01*
G37*
G36*
X90546000Y-56126000D02*
G01*
X88894000Y-56126000D01*
X88894000Y-55424000D01*
X90546000Y-55424000D01*
X90546000Y-56126000D01*
X90546000Y-56126000D01*
G37*
G36*
X85146000Y-56126000D02*
G01*
X83494000Y-56126000D01*
X83494000Y-55424000D01*
X85146000Y-55424000D01*
X85146000Y-56126000D01*
X85146000Y-56126000D01*
G37*
G36*
X95788604Y-54338347D02*
G01*
X95825144Y-54349432D01*
X95858821Y-54367433D01*
X95888341Y-54391659D01*
X95912567Y-54421179D01*
X95930568Y-54454856D01*
X95941653Y-54491396D01*
X95946000Y-54535538D01*
X95946000Y-55484462D01*
X95941653Y-55528604D01*
X95930568Y-55565144D01*
X95912567Y-55598821D01*
X95888341Y-55628341D01*
X95858821Y-55652567D01*
X95825144Y-55670568D01*
X95788604Y-55681653D01*
X95744462Y-55686000D01*
X94295538Y-55686000D01*
X94251396Y-55681653D01*
X94214856Y-55670568D01*
X94181179Y-55652567D01*
X94151659Y-55628341D01*
X94127433Y-55598821D01*
X94109432Y-55565144D01*
X94098347Y-55528604D01*
X94094000Y-55484462D01*
X94094000Y-54535538D01*
X94098347Y-54491396D01*
X94109432Y-54454856D01*
X94127433Y-54421179D01*
X94151659Y-54391659D01*
X94181179Y-54367433D01*
X94214856Y-54349432D01*
X94251396Y-54338347D01*
X94295538Y-54334000D01*
X95744462Y-54334000D01*
X95788604Y-54338347D01*
X95788604Y-54338347D01*
G37*
G36*
X41830442Y-53755518D02*
G01*
X41896627Y-53762037D01*
X42066466Y-53813557D01*
X42222991Y-53897222D01*
X42258729Y-53926552D01*
X42360186Y-54009814D01*
X42434955Y-54100922D01*
X42472778Y-54147009D01*
X42556443Y-54303534D01*
X42607963Y-54473373D01*
X42625359Y-54650000D01*
X42607963Y-54826627D01*
X42569148Y-54954583D01*
X42556442Y-54996468D01*
X42546216Y-55015600D01*
X42472778Y-55152991D01*
X42443448Y-55188729D01*
X42360186Y-55290186D01*
X42258729Y-55373448D01*
X42222991Y-55402778D01*
X42066466Y-55486443D01*
X41896627Y-55537963D01*
X41830443Y-55544481D01*
X41764260Y-55551000D01*
X41675740Y-55551000D01*
X41609557Y-55544481D01*
X41543373Y-55537963D01*
X41373534Y-55486443D01*
X41217009Y-55402778D01*
X41181271Y-55373448D01*
X41079814Y-55290186D01*
X40996552Y-55188729D01*
X40967222Y-55152991D01*
X40893784Y-55015600D01*
X40883558Y-54996468D01*
X40870852Y-54954583D01*
X40832037Y-54826627D01*
X40814641Y-54650000D01*
X40832037Y-54473373D01*
X40883557Y-54303534D01*
X40967222Y-54147009D01*
X41005045Y-54100922D01*
X41079814Y-54009814D01*
X41181271Y-53926552D01*
X41217009Y-53897222D01*
X41373534Y-53813557D01*
X41543373Y-53762037D01*
X41609558Y-53755518D01*
X41675740Y-53749000D01*
X41764260Y-53749000D01*
X41830442Y-53755518D01*
X41830442Y-53755518D01*
G37*
G36*
X57070442Y-53755518D02*
G01*
X57136627Y-53762037D01*
X57306466Y-53813557D01*
X57462991Y-53897222D01*
X57498729Y-53926552D01*
X57600186Y-54009814D01*
X57674955Y-54100922D01*
X57712778Y-54147009D01*
X57796443Y-54303534D01*
X57847963Y-54473373D01*
X57865359Y-54650000D01*
X57847963Y-54826627D01*
X57809148Y-54954583D01*
X57796442Y-54996468D01*
X57786216Y-55015600D01*
X57712778Y-55152991D01*
X57683448Y-55188729D01*
X57600186Y-55290186D01*
X57498729Y-55373448D01*
X57462991Y-55402778D01*
X57306466Y-55486443D01*
X57136627Y-55537963D01*
X57070443Y-55544481D01*
X57004260Y-55551000D01*
X56915740Y-55551000D01*
X56849557Y-55544481D01*
X56783373Y-55537963D01*
X56613534Y-55486443D01*
X56457009Y-55402778D01*
X56421271Y-55373448D01*
X56319814Y-55290186D01*
X56236552Y-55188729D01*
X56207222Y-55152991D01*
X56133784Y-55015600D01*
X56123558Y-54996468D01*
X56110852Y-54954583D01*
X56072037Y-54826627D01*
X56054641Y-54650000D01*
X56072037Y-54473373D01*
X56123557Y-54303534D01*
X56207222Y-54147009D01*
X56245045Y-54100922D01*
X56319814Y-54009814D01*
X56421271Y-53926552D01*
X56457009Y-53897222D01*
X56613534Y-53813557D01*
X56783373Y-53762037D01*
X56849558Y-53755518D01*
X56915740Y-53749000D01*
X57004260Y-53749000D01*
X57070442Y-53755518D01*
X57070442Y-53755518D01*
G37*
G36*
X81788604Y-53938347D02*
G01*
X81825144Y-53949432D01*
X81858821Y-53967433D01*
X81888341Y-53991659D01*
X81912567Y-54021179D01*
X81930568Y-54054856D01*
X81941653Y-54091396D01*
X81946000Y-54135538D01*
X81946000Y-55084462D01*
X81941653Y-55128604D01*
X81930568Y-55165144D01*
X81912567Y-55198821D01*
X81888341Y-55228341D01*
X81858821Y-55252567D01*
X81825144Y-55270568D01*
X81788604Y-55281653D01*
X81744462Y-55286000D01*
X80295538Y-55286000D01*
X80251396Y-55281653D01*
X80214856Y-55270568D01*
X80181179Y-55252567D01*
X80151659Y-55228341D01*
X80127433Y-55198821D01*
X80109432Y-55165144D01*
X80098347Y-55128604D01*
X80094000Y-55084462D01*
X80094000Y-54135538D01*
X80098347Y-54091396D01*
X80109432Y-54054856D01*
X80127433Y-54021179D01*
X80151659Y-53991659D01*
X80181179Y-53967433D01*
X80214856Y-53949432D01*
X80251396Y-53938347D01*
X80295538Y-53934000D01*
X81744462Y-53934000D01*
X81788604Y-53938347D01*
X81788604Y-53938347D01*
G37*
G36*
X90546000Y-54856000D02*
G01*
X88894000Y-54856000D01*
X88894000Y-54154000D01*
X90546000Y-54154000D01*
X90546000Y-54856000D01*
X90546000Y-54856000D01*
G37*
G36*
X85146000Y-54856000D02*
G01*
X83494000Y-54856000D01*
X83494000Y-54154000D01*
X85146000Y-54154000D01*
X85146000Y-54856000D01*
X85146000Y-54856000D01*
G37*
G36*
X52588604Y-53438347D02*
G01*
X52625144Y-53449432D01*
X52658821Y-53467433D01*
X52688341Y-53491659D01*
X52712567Y-53521179D01*
X52730568Y-53554856D01*
X52741653Y-53591396D01*
X52746000Y-53635538D01*
X52746000Y-54584462D01*
X52741653Y-54628604D01*
X52730568Y-54665144D01*
X52712567Y-54698821D01*
X52688341Y-54728341D01*
X52658821Y-54752567D01*
X52625144Y-54770568D01*
X52588604Y-54781653D01*
X52544462Y-54786000D01*
X51095538Y-54786000D01*
X51051396Y-54781653D01*
X51014856Y-54770568D01*
X50981179Y-54752567D01*
X50951659Y-54728341D01*
X50927433Y-54698821D01*
X50909432Y-54665144D01*
X50898347Y-54628604D01*
X50894000Y-54584462D01*
X50894000Y-53635538D01*
X50898347Y-53591396D01*
X50909432Y-53554856D01*
X50927433Y-53521179D01*
X50951659Y-53491659D01*
X50981179Y-53467433D01*
X51014856Y-53449432D01*
X51051396Y-53438347D01*
X51095538Y-53434000D01*
X52544462Y-53434000D01*
X52588604Y-53438347D01*
X52588604Y-53438347D01*
G37*
G36*
X47588604Y-53238347D02*
G01*
X47625144Y-53249432D01*
X47658821Y-53267433D01*
X47688341Y-53291659D01*
X47712567Y-53321179D01*
X47730568Y-53354856D01*
X47741653Y-53391396D01*
X47746000Y-53435538D01*
X47746000Y-54384462D01*
X47741653Y-54428604D01*
X47730568Y-54465144D01*
X47712567Y-54498821D01*
X47688341Y-54528341D01*
X47658821Y-54552567D01*
X47625144Y-54570568D01*
X47588604Y-54581653D01*
X47544462Y-54586000D01*
X46095538Y-54586000D01*
X46051396Y-54581653D01*
X46014856Y-54570568D01*
X45981179Y-54552567D01*
X45951659Y-54528341D01*
X45927433Y-54498821D01*
X45909432Y-54465144D01*
X45898347Y-54428604D01*
X45894000Y-54384462D01*
X45894000Y-53435538D01*
X45898347Y-53391396D01*
X45909432Y-53354856D01*
X45927433Y-53321179D01*
X45951659Y-53291659D01*
X45981179Y-53267433D01*
X46014856Y-53249432D01*
X46051396Y-53238347D01*
X46095538Y-53234000D01*
X47544462Y-53234000D01*
X47588604Y-53238347D01*
X47588604Y-53238347D01*
G37*
G36*
X31231000Y-54306000D02*
G01*
X30009000Y-54306000D01*
X30009000Y-52044000D01*
X31231000Y-52044000D01*
X31231000Y-54306000D01*
X31231000Y-54306000D01*
G37*
G36*
X93038604Y-51588347D02*
G01*
X93075144Y-51599432D01*
X93108821Y-51617433D01*
X93138341Y-51641659D01*
X93162567Y-51671179D01*
X93180568Y-51704856D01*
X93191653Y-51741396D01*
X93196000Y-51785538D01*
X93196000Y-53234462D01*
X93191653Y-53278604D01*
X93180568Y-53315144D01*
X93162567Y-53348821D01*
X93138341Y-53378341D01*
X93108821Y-53402567D01*
X93075144Y-53420568D01*
X93038604Y-53431653D01*
X92994462Y-53436000D01*
X92045538Y-53436000D01*
X92001396Y-53431653D01*
X91964856Y-53420568D01*
X91931179Y-53402567D01*
X91901659Y-53378341D01*
X91877433Y-53348821D01*
X91859432Y-53315144D01*
X91848347Y-53278604D01*
X91844000Y-53234462D01*
X91844000Y-51785538D01*
X91848347Y-51741396D01*
X91859432Y-51704856D01*
X91877433Y-51671179D01*
X91901659Y-51641659D01*
X91931179Y-51617433D01*
X91964856Y-51599432D01*
X92001396Y-51588347D01*
X92045538Y-51584000D01*
X92994462Y-51584000D01*
X93038604Y-51588347D01*
X93038604Y-51588347D01*
G37*
G36*
X95838604Y-51588347D02*
G01*
X95875144Y-51599432D01*
X95908821Y-51617433D01*
X95938341Y-51641659D01*
X95962567Y-51671179D01*
X95980568Y-51704856D01*
X95991653Y-51741396D01*
X95996000Y-51785538D01*
X95996000Y-53234462D01*
X95991653Y-53278604D01*
X95980568Y-53315144D01*
X95962567Y-53348821D01*
X95938341Y-53378341D01*
X95908821Y-53402567D01*
X95875144Y-53420568D01*
X95838604Y-53431653D01*
X95794462Y-53436000D01*
X94845538Y-53436000D01*
X94801396Y-53431653D01*
X94764856Y-53420568D01*
X94731179Y-53402567D01*
X94701659Y-53378341D01*
X94677433Y-53348821D01*
X94659432Y-53315144D01*
X94648347Y-53278604D01*
X94644000Y-53234462D01*
X94644000Y-51785538D01*
X94648347Y-51741396D01*
X94659432Y-51704856D01*
X94677433Y-51671179D01*
X94701659Y-51641659D01*
X94731179Y-51617433D01*
X94764856Y-51599432D01*
X94801396Y-51588347D01*
X94845538Y-51584000D01*
X95794462Y-51584000D01*
X95838604Y-51588347D01*
X95838604Y-51588347D01*
G37*
G36*
X89893605Y-51761348D02*
G01*
X89930145Y-51772433D01*
X89963822Y-51790434D01*
X89993342Y-51814660D01*
X90017568Y-51844180D01*
X90035569Y-51877857D01*
X90046654Y-51914397D01*
X90051001Y-51958539D01*
X90051001Y-52907463D01*
X90046654Y-52951605D01*
X90035569Y-52988145D01*
X90017568Y-53021822D01*
X89993342Y-53051342D01*
X89963822Y-53075568D01*
X89930145Y-53093569D01*
X89893605Y-53104654D01*
X89849463Y-53109001D01*
X88400539Y-53109001D01*
X88356397Y-53104654D01*
X88319857Y-53093569D01*
X88286180Y-53075568D01*
X88256660Y-53051342D01*
X88232434Y-53021822D01*
X88214433Y-52988145D01*
X88203348Y-52951605D01*
X88199001Y-52907463D01*
X88199001Y-51958539D01*
X88203348Y-51914397D01*
X88214433Y-51877857D01*
X88232434Y-51844180D01*
X88256660Y-51814660D01*
X88286180Y-51790434D01*
X88319857Y-51772433D01*
X88356397Y-51761348D01*
X88400539Y-51757001D01*
X89849463Y-51757001D01*
X89893605Y-51761348D01*
X89893605Y-51761348D01*
G37*
G36*
X85788604Y-51761348D02*
G01*
X85825144Y-51772433D01*
X85858821Y-51790434D01*
X85888341Y-51814660D01*
X85912567Y-51844180D01*
X85930568Y-51877857D01*
X85941653Y-51914397D01*
X85946000Y-51958539D01*
X85946000Y-52907463D01*
X85941653Y-52951605D01*
X85930568Y-52988145D01*
X85912567Y-53021822D01*
X85888341Y-53051342D01*
X85858821Y-53075568D01*
X85825144Y-53093569D01*
X85788604Y-53104654D01*
X85744462Y-53109001D01*
X84295538Y-53109001D01*
X84251396Y-53104654D01*
X84214856Y-53093569D01*
X84181179Y-53075568D01*
X84151659Y-53051342D01*
X84127433Y-53021822D01*
X84109432Y-52988145D01*
X84098347Y-52951605D01*
X84094000Y-52907463D01*
X84094000Y-51958539D01*
X84098347Y-51914397D01*
X84109432Y-51877857D01*
X84127433Y-51844180D01*
X84151659Y-51814660D01*
X84181179Y-51790434D01*
X84214856Y-51772433D01*
X84251396Y-51761348D01*
X84295538Y-51757001D01*
X85744462Y-51757001D01*
X85788604Y-51761348D01*
X85788604Y-51761348D01*
G37*
G36*
X42621000Y-53011000D02*
G01*
X40819000Y-53011000D01*
X40819000Y-51209000D01*
X42621000Y-51209000D01*
X42621000Y-53011000D01*
X42621000Y-53011000D01*
G37*
G36*
X57861000Y-53011000D02*
G01*
X56059000Y-53011000D01*
X56059000Y-51209000D01*
X57861000Y-51209000D01*
X57861000Y-53011000D01*
X57861000Y-53011000D01*
G37*
G36*
X47588604Y-50438347D02*
G01*
X47625144Y-50449432D01*
X47658821Y-50467433D01*
X47688341Y-50491659D01*
X47712567Y-50521179D01*
X47730568Y-50554856D01*
X47741653Y-50591396D01*
X47746000Y-50635538D01*
X47746000Y-51584462D01*
X47741653Y-51628604D01*
X47730568Y-51665144D01*
X47712567Y-51698821D01*
X47688341Y-51728341D01*
X47658821Y-51752567D01*
X47625144Y-51770568D01*
X47588604Y-51781653D01*
X47544462Y-51786000D01*
X46095538Y-51786000D01*
X46051396Y-51781653D01*
X46014856Y-51770568D01*
X45981179Y-51752567D01*
X45951659Y-51728341D01*
X45927433Y-51698821D01*
X45909432Y-51665144D01*
X45898347Y-51628604D01*
X45894000Y-51584462D01*
X45894000Y-50635538D01*
X45898347Y-50591396D01*
X45909432Y-50554856D01*
X45927433Y-50521179D01*
X45951659Y-50491659D01*
X45981179Y-50467433D01*
X46014856Y-50449432D01*
X46051396Y-50438347D01*
X46095538Y-50434000D01*
X47544462Y-50434000D01*
X47588604Y-50438347D01*
X47588604Y-50438347D01*
G37*
G36*
X75451000Y-51421000D02*
G01*
X73189000Y-51421000D01*
X73189000Y-50199000D01*
X75451000Y-50199000D01*
X75451000Y-51421000D01*
X75451000Y-51421000D01*
G37*
G36*
X68721000Y-51421000D02*
G01*
X66459000Y-51421000D01*
X66459000Y-50199000D01*
X68721000Y-50199000D01*
X68721000Y-51421000D01*
X68721000Y-51421000D01*
G37*
G36*
X103126000Y-50956000D02*
G01*
X101674000Y-50956000D01*
X101674000Y-49504000D01*
X103126000Y-49504000D01*
X103126000Y-50956000D01*
X103126000Y-50956000D01*
G37*
G36*
X106316000Y-50926000D02*
G01*
X104864000Y-50926000D01*
X104864000Y-49474000D01*
X106316000Y-49474000D01*
X106316000Y-50926000D01*
X106316000Y-50926000D01*
G37*
G36*
X85788604Y-48961348D02*
G01*
X85825144Y-48972433D01*
X85858821Y-48990434D01*
X85888341Y-49014660D01*
X85912567Y-49044180D01*
X85930568Y-49077857D01*
X85941653Y-49114397D01*
X85946000Y-49158539D01*
X85946000Y-50107463D01*
X85941653Y-50151605D01*
X85930568Y-50188145D01*
X85912567Y-50221822D01*
X85888341Y-50251342D01*
X85858821Y-50275568D01*
X85825144Y-50293569D01*
X85788604Y-50304654D01*
X85744462Y-50309001D01*
X84295538Y-50309001D01*
X84251396Y-50304654D01*
X84214856Y-50293569D01*
X84181179Y-50275568D01*
X84151659Y-50251342D01*
X84127433Y-50221822D01*
X84109432Y-50188145D01*
X84098347Y-50151605D01*
X84094000Y-50107463D01*
X84094000Y-49158539D01*
X84098347Y-49114397D01*
X84109432Y-49077857D01*
X84127433Y-49044180D01*
X84151659Y-49014660D01*
X84181179Y-48990434D01*
X84214856Y-48972433D01*
X84251396Y-48961348D01*
X84295538Y-48957001D01*
X85744462Y-48957001D01*
X85788604Y-48961348D01*
X85788604Y-48961348D01*
G37*
G36*
X89893605Y-48961348D02*
G01*
X89930145Y-48972433D01*
X89963822Y-48990434D01*
X89993342Y-49014660D01*
X90017568Y-49044180D01*
X90035569Y-49077857D01*
X90046654Y-49114397D01*
X90051001Y-49158539D01*
X90051001Y-50107463D01*
X90046654Y-50151605D01*
X90035569Y-50188145D01*
X90017568Y-50221822D01*
X89993342Y-50251342D01*
X89963822Y-50275568D01*
X89930145Y-50293569D01*
X89893605Y-50304654D01*
X89849463Y-50309001D01*
X88400539Y-50309001D01*
X88356397Y-50304654D01*
X88319857Y-50293569D01*
X88286180Y-50275568D01*
X88256660Y-50251342D01*
X88232434Y-50221822D01*
X88214433Y-50188145D01*
X88203348Y-50151605D01*
X88199001Y-50107463D01*
X88199001Y-49158539D01*
X88203348Y-49114397D01*
X88214433Y-49077857D01*
X88232434Y-49044180D01*
X88256660Y-49014660D01*
X88286180Y-48990434D01*
X88319857Y-48972433D01*
X88356397Y-48961348D01*
X88400539Y-48957001D01*
X89849463Y-48957001D01*
X89893605Y-48961348D01*
X89893605Y-48961348D01*
G37*
G36*
X31231000Y-47576000D02*
G01*
X30009000Y-47576000D01*
X30009000Y-45314000D01*
X31231000Y-45314000D01*
X31231000Y-47576000D01*
X31231000Y-47576000D01*
G37*
G36*
X46238039Y-42602250D02*
G01*
X46427372Y-42680675D01*
X46561251Y-42736129D01*
X46852134Y-42930491D01*
X47099509Y-43177866D01*
X47293871Y-43468749D01*
X47293871Y-43468750D01*
X47427750Y-43791961D01*
X47496000Y-44135078D01*
X47496000Y-44484922D01*
X47427750Y-44828039D01*
X47349325Y-45017372D01*
X47293871Y-45151251D01*
X47099509Y-45442134D01*
X46852134Y-45689509D01*
X46561251Y-45883871D01*
X46427372Y-45939325D01*
X46238039Y-46017750D01*
X45894922Y-46086000D01*
X45545078Y-46086000D01*
X45201961Y-46017750D01*
X45012628Y-45939325D01*
X44878749Y-45883871D01*
X44587866Y-45689509D01*
X44340491Y-45442134D01*
X44146129Y-45151251D01*
X44090675Y-45017372D01*
X44012250Y-44828039D01*
X43944000Y-44484922D01*
X43944000Y-44135078D01*
X44012250Y-43791961D01*
X44146129Y-43468750D01*
X44146129Y-43468749D01*
X44340491Y-43177866D01*
X44587866Y-42930491D01*
X44878749Y-42736129D01*
X45012628Y-42680675D01*
X45201961Y-42602250D01*
X45545078Y-42534000D01*
X45894922Y-42534000D01*
X46238039Y-42602250D01*
X46238039Y-42602250D01*
G37*
G36*
X37711000Y-39536000D02*
G01*
X30269000Y-39536000D01*
X30269000Y-33084000D01*
X37711000Y-33084000D01*
X37711000Y-39536000D01*
X37711000Y-39536000D01*
G37*
G36*
X116371000Y-39536000D02*
G01*
X108929000Y-39536000D01*
X108929000Y-33084000D01*
X116371000Y-33084000D01*
X116371000Y-39536000D01*
X116371000Y-39536000D01*
G37*
G36*
X28646000Y-30136000D02*
G01*
X27194000Y-30136000D01*
X27194000Y-28684000D01*
X28646000Y-28684000D01*
X28646000Y-30136000D01*
X28646000Y-30136000D01*
G37*
G36*
X101438039Y-26602250D02*
G01*
X101627372Y-26680675D01*
X101761251Y-26736129D01*
X102052134Y-26930491D01*
X102299509Y-27177866D01*
X102493871Y-27468749D01*
X102493871Y-27468750D01*
X102627750Y-27791961D01*
X102696000Y-28135078D01*
X102696000Y-28484922D01*
X102627750Y-28828039D01*
X102597859Y-28900201D01*
X102493871Y-29151251D01*
X102299509Y-29442134D01*
X102052134Y-29689509D01*
X101761251Y-29883871D01*
X101627372Y-29939325D01*
X101438039Y-30017750D01*
X101094922Y-30086000D01*
X100745078Y-30086000D01*
X100401961Y-30017750D01*
X100212628Y-29939325D01*
X100078749Y-29883871D01*
X99787866Y-29689509D01*
X99540491Y-29442134D01*
X99346129Y-29151251D01*
X99242141Y-28900201D01*
X99212250Y-28828039D01*
X99144000Y-28484922D01*
X99144000Y-28135078D01*
X99212250Y-27791961D01*
X99346129Y-27468750D01*
X99346129Y-27468749D01*
X99540491Y-27177866D01*
X99787866Y-26930491D01*
X100078749Y-26736129D01*
X100212628Y-26680675D01*
X100401961Y-26602250D01*
X100745078Y-26534000D01*
X101094922Y-26534000D01*
X101438039Y-26602250D01*
X101438039Y-26602250D01*
G37*
G36*
X120346000Y-30036000D02*
G01*
X118894000Y-30036000D01*
X118894000Y-28584000D01*
X120346000Y-28584000D01*
X120346000Y-30036000D01*
X120346000Y-30036000D01*
G37*
G36*
X37753444Y-27111882D02*
G01*
X37980201Y-27205808D01*
X37980202Y-27205809D01*
X38184279Y-27342168D01*
X38357832Y-27515721D01*
X38448944Y-27652081D01*
X38494192Y-27719799D01*
X38588118Y-27946556D01*
X38636000Y-28187278D01*
X38636000Y-28432722D01*
X38588118Y-28673444D01*
X38494192Y-28900201D01*
X38494191Y-28900202D01*
X38357832Y-29104279D01*
X38184279Y-29277832D01*
X38047919Y-29368944D01*
X37980201Y-29414192D01*
X37753444Y-29508118D01*
X37512722Y-29556000D01*
X37267278Y-29556000D01*
X37026556Y-29508118D01*
X36799799Y-29414192D01*
X36732081Y-29368944D01*
X36595721Y-29277832D01*
X36422168Y-29104279D01*
X36285809Y-28900202D01*
X36285808Y-28900201D01*
X36191882Y-28673444D01*
X36144000Y-28432722D01*
X36144000Y-28187278D01*
X36191882Y-27946556D01*
X36285808Y-27719799D01*
X36331056Y-27652081D01*
X36422168Y-27515721D01*
X36595721Y-27342168D01*
X36799798Y-27205809D01*
X36799799Y-27205808D01*
X37026556Y-27111882D01*
X37267278Y-27064000D01*
X37512722Y-27064000D01*
X37753444Y-27111882D01*
X37753444Y-27111882D01*
G37*
M02*
