G04 #@! TF.GenerationSoftware,KiCad,Pcbnew,(5.1.0)-1*
G04 #@! TF.CreationDate,2019-06-24T09:32:07-03:00*
G04 #@! TF.ProjectId,Main,4d61696e-2e6b-4696-9361-645f70636258,rev?*
G04 #@! TF.SameCoordinates,Original*
G04 #@! TF.FileFunction,Legend,Top*
G04 #@! TF.FilePolarity,Positive*
%FSLAX46Y46*%
G04 Gerber Fmt 4.6, Leading zero omitted, Abs format (unit mm)*
G04 Created by KiCad (PCBNEW (5.1.0)-1) date 2019-06-24 09:32:07*
%MOMM*%
%LPD*%
G04 APERTURE LIST*
%ADD10C,0.300000*%
%ADD11C,0.120000*%
%ADD12C,0.150000*%
G04 APERTURE END LIST*
D10*
X54207142Y-95657142D02*
X54278571Y-95442857D01*
X54278571Y-95085714D01*
X54207142Y-94942857D01*
X54135714Y-94871428D01*
X53992857Y-94800000D01*
X53850000Y-94800000D01*
X53707142Y-94871428D01*
X53635714Y-94942857D01*
X53564285Y-95085714D01*
X53492857Y-95371428D01*
X53421428Y-95514285D01*
X53350000Y-95585714D01*
X53207142Y-95657142D01*
X53064285Y-95657142D01*
X52921428Y-95585714D01*
X52850000Y-95514285D01*
X52778571Y-95371428D01*
X52778571Y-95014285D01*
X52850000Y-94800000D01*
X54278571Y-94157142D02*
X52778571Y-94157142D01*
X54278571Y-93514285D02*
X53492857Y-93514285D01*
X53350000Y-93585714D01*
X53278571Y-93728571D01*
X53278571Y-93942857D01*
X53350000Y-94085714D01*
X53421428Y-94157142D01*
X54278571Y-92585714D02*
X54207142Y-92728571D01*
X54135714Y-92800000D01*
X53992857Y-92871428D01*
X53564285Y-92871428D01*
X53421428Y-92800000D01*
X53350000Y-92728571D01*
X53278571Y-92585714D01*
X53278571Y-92371428D01*
X53350000Y-92228571D01*
X53421428Y-92157142D01*
X53564285Y-92085714D01*
X53992857Y-92085714D01*
X54135714Y-92157142D01*
X54207142Y-92228571D01*
X54278571Y-92371428D01*
X54278571Y-92585714D01*
X54278571Y-91442857D02*
X53278571Y-91442857D01*
X53564285Y-91442857D02*
X53421428Y-91371428D01*
X53350000Y-91300000D01*
X53278571Y-91157142D01*
X53278571Y-91014285D01*
X53278571Y-90728571D02*
X53278571Y-90157142D01*
X52778571Y-90514285D02*
X54064285Y-90514285D01*
X54207142Y-90442857D01*
X54278571Y-90300000D01*
X54278571Y-90157142D01*
X54207142Y-88585714D02*
X54278571Y-88371428D01*
X54278571Y-88014285D01*
X54207142Y-87871428D01*
X54135714Y-87800000D01*
X53992857Y-87728571D01*
X53850000Y-87728571D01*
X53707142Y-87800000D01*
X53635714Y-87871428D01*
X53564285Y-88014285D01*
X53492857Y-88300000D01*
X53421428Y-88442857D01*
X53350000Y-88514285D01*
X53207142Y-88585714D01*
X53064285Y-88585714D01*
X52921428Y-88514285D01*
X52850000Y-88442857D01*
X52778571Y-88300000D01*
X52778571Y-87942857D01*
X52850000Y-87728571D01*
X53278571Y-87228571D02*
X54278571Y-86942857D01*
X53564285Y-86657142D01*
X54278571Y-86371428D01*
X53278571Y-86085714D01*
X54278571Y-85514285D02*
X53278571Y-85514285D01*
X52778571Y-85514285D02*
X52850000Y-85585714D01*
X52921428Y-85514285D01*
X52850000Y-85442857D01*
X52778571Y-85514285D01*
X52921428Y-85514285D01*
X53278571Y-85014285D02*
X53278571Y-84442857D01*
X52778571Y-84800000D02*
X54064285Y-84800000D01*
X54207142Y-84728571D01*
X54278571Y-84585714D01*
X54278571Y-84442857D01*
X54207142Y-83300000D02*
X54278571Y-83442857D01*
X54278571Y-83728571D01*
X54207142Y-83871428D01*
X54135714Y-83942857D01*
X53992857Y-84014285D01*
X53564285Y-84014285D01*
X53421428Y-83942857D01*
X53350000Y-83871428D01*
X53278571Y-83728571D01*
X53278571Y-83442857D01*
X53350000Y-83300000D01*
X54278571Y-82657142D02*
X52778571Y-82657142D01*
X54278571Y-82014285D02*
X53492857Y-82014285D01*
X53350000Y-82085714D01*
X53278571Y-82228571D01*
X53278571Y-82442857D01*
X53350000Y-82585714D01*
X53421428Y-82657142D01*
D11*
X51000000Y-105000000D02*
X50100000Y-105000000D01*
X52600000Y-88400000D02*
X50000000Y-88400000D01*
X143100000Y-111400000D02*
X150000000Y-111400000D01*
D12*
X112447619Y-123852380D02*
X112447619Y-122852380D01*
X112828571Y-122852380D01*
X112923809Y-122900000D01*
X112971428Y-122947619D01*
X113019047Y-123042857D01*
X113019047Y-123185714D01*
X112971428Y-123280952D01*
X112923809Y-123328571D01*
X112828571Y-123376190D01*
X112447619Y-123376190D01*
X113590476Y-123852380D02*
X113495238Y-123804761D01*
X113447619Y-123757142D01*
X113400000Y-123661904D01*
X113400000Y-123376190D01*
X113447619Y-123280952D01*
X113495238Y-123233333D01*
X113590476Y-123185714D01*
X113733333Y-123185714D01*
X113828571Y-123233333D01*
X113876190Y-123280952D01*
X113923809Y-123376190D01*
X113923809Y-123661904D01*
X113876190Y-123757142D01*
X113828571Y-123804761D01*
X113733333Y-123852380D01*
X113590476Y-123852380D01*
X114780952Y-123185714D02*
X114780952Y-123852380D01*
X114352380Y-123185714D02*
X114352380Y-123709523D01*
X114400000Y-123804761D01*
X114495238Y-123852380D01*
X114638095Y-123852380D01*
X114733333Y-123804761D01*
X114780952Y-123757142D01*
X115114285Y-123185714D02*
X115495238Y-123185714D01*
X115257142Y-122852380D02*
X115257142Y-123709523D01*
X115304761Y-123804761D01*
X115400000Y-123852380D01*
X115495238Y-123852380D01*
D11*
X110800000Y-111400000D02*
X144700000Y-111400000D01*
X53700000Y-88400000D02*
X52600000Y-88400000D01*
X91700000Y-88500000D02*
X53700000Y-88400000D01*
X91700000Y-111400000D02*
X91700000Y-88500000D01*
X63800000Y-89000000D02*
X63800000Y-101700000D01*
X89200000Y-101700000D02*
X63800000Y-101700000D01*
X89200000Y-89000000D02*
X89200000Y-101700000D01*
X84000000Y-105000000D02*
X51000000Y-105000000D01*
X63800000Y-89000000D02*
X89200000Y-89000000D01*
X110800000Y-111400000D02*
X110800000Y-140000000D01*
X85600000Y-111400000D02*
X110800000Y-111400000D01*
D12*
X135866666Y-94357142D02*
X135819047Y-94404761D01*
X135676190Y-94452380D01*
X135580952Y-94452380D01*
X135438095Y-94404761D01*
X135342857Y-94309523D01*
X135295238Y-94214285D01*
X135247619Y-94023809D01*
X135247619Y-93880952D01*
X135295238Y-93690476D01*
X135342857Y-93595238D01*
X135438095Y-93500000D01*
X135580952Y-93452380D01*
X135676190Y-93452380D01*
X135819047Y-93500000D01*
X135866666Y-93547619D01*
X136295238Y-94452380D02*
X136295238Y-93452380D01*
X136723809Y-94452380D02*
X136723809Y-93928571D01*
X136676190Y-93833333D01*
X136580952Y-93785714D01*
X136438095Y-93785714D01*
X136342857Y-93833333D01*
X136295238Y-93880952D01*
X137628571Y-94452380D02*
X137628571Y-93928571D01*
X137580952Y-93833333D01*
X137485714Y-93785714D01*
X137295238Y-93785714D01*
X137200000Y-93833333D01*
X137628571Y-94404761D02*
X137533333Y-94452380D01*
X137295238Y-94452380D01*
X137200000Y-94404761D01*
X137152380Y-94309523D01*
X137152380Y-94214285D01*
X137200000Y-94119047D01*
X137295238Y-94071428D01*
X137533333Y-94071428D01*
X137628571Y-94023809D01*
X138104761Y-94452380D02*
X138104761Y-93785714D01*
X138104761Y-93976190D02*
X138152380Y-93880952D01*
X138200000Y-93833333D01*
X138295238Y-93785714D01*
X138390476Y-93785714D01*
X139152380Y-93785714D02*
X139152380Y-94595238D01*
X139104761Y-94690476D01*
X139057142Y-94738095D01*
X138961904Y-94785714D01*
X138819047Y-94785714D01*
X138723809Y-94738095D01*
X139152380Y-94404761D02*
X139057142Y-94452380D01*
X138866666Y-94452380D01*
X138771428Y-94404761D01*
X138723809Y-94357142D01*
X138676190Y-94261904D01*
X138676190Y-93976190D01*
X138723809Y-93880952D01*
X138771428Y-93833333D01*
X138866666Y-93785714D01*
X139057142Y-93785714D01*
X139152380Y-93833333D01*
X139628571Y-94452380D02*
X139628571Y-93785714D01*
X139628571Y-93452380D02*
X139580952Y-93500000D01*
X139628571Y-93547619D01*
X139676190Y-93500000D01*
X139628571Y-93452380D01*
X139628571Y-93547619D01*
X140104761Y-93785714D02*
X140104761Y-94452380D01*
X140104761Y-93880952D02*
X140152380Y-93833333D01*
X140247619Y-93785714D01*
X140390476Y-93785714D01*
X140485714Y-93833333D01*
X140533333Y-93928571D01*
X140533333Y-94452380D01*
X141438095Y-93785714D02*
X141438095Y-94595238D01*
X141390476Y-94690476D01*
X141342857Y-94738095D01*
X141247619Y-94785714D01*
X141104761Y-94785714D01*
X141009523Y-94738095D01*
X141438095Y-94404761D02*
X141342857Y-94452380D01*
X141152380Y-94452380D01*
X141057142Y-94404761D01*
X141009523Y-94357142D01*
X140961904Y-94261904D01*
X140961904Y-93976190D01*
X141009523Y-93880952D01*
X141057142Y-93833333D01*
X141152380Y-93785714D01*
X141342857Y-93785714D01*
X141438095Y-93833333D01*
X143247619Y-94357142D02*
X143200000Y-94404761D01*
X143057142Y-94452380D01*
X142961904Y-94452380D01*
X142819047Y-94404761D01*
X142723809Y-94309523D01*
X142676190Y-94214285D01*
X142628571Y-94023809D01*
X142628571Y-93880952D01*
X142676190Y-93690476D01*
X142723809Y-93595238D01*
X142819047Y-93500000D01*
X142961904Y-93452380D01*
X143057142Y-93452380D01*
X143200000Y-93500000D01*
X143247619Y-93547619D01*
X143676190Y-94452380D02*
X143676190Y-93785714D01*
X143676190Y-93452380D02*
X143628571Y-93500000D01*
X143676190Y-93547619D01*
X143723809Y-93500000D01*
X143676190Y-93452380D01*
X143676190Y-93547619D01*
X144152380Y-94452380D02*
X144152380Y-93785714D01*
X144152380Y-93976190D02*
X144200000Y-93880952D01*
X144247619Y-93833333D01*
X144342857Y-93785714D01*
X144438095Y-93785714D01*
X145200000Y-94404761D02*
X145104761Y-94452380D01*
X144914285Y-94452380D01*
X144819047Y-94404761D01*
X144771428Y-94357142D01*
X144723809Y-94261904D01*
X144723809Y-93976190D01*
X144771428Y-93880952D01*
X144819047Y-93833333D01*
X144914285Y-93785714D01*
X145104761Y-93785714D01*
X145200000Y-93833333D01*
X146057142Y-93785714D02*
X146057142Y-94452380D01*
X145628571Y-93785714D02*
X145628571Y-94309523D01*
X145676190Y-94404761D01*
X145771428Y-94452380D01*
X145914285Y-94452380D01*
X146009523Y-94404761D01*
X146057142Y-94357142D01*
X146533333Y-94452380D02*
X146533333Y-93785714D01*
X146533333Y-93452380D02*
X146485714Y-93500000D01*
X146533333Y-93547619D01*
X146580952Y-93500000D01*
X146533333Y-93452380D01*
X146533333Y-93547619D01*
X146866666Y-93785714D02*
X147247619Y-93785714D01*
X147009523Y-93452380D02*
X147009523Y-94309523D01*
X147057142Y-94404761D01*
X147152380Y-94452380D01*
X147247619Y-94452380D01*
X92866666Y-113652380D02*
X92390476Y-113652380D01*
X92390476Y-112652380D01*
X93342857Y-113652380D02*
X93247619Y-113604761D01*
X93200000Y-113557142D01*
X93152380Y-113461904D01*
X93152380Y-113176190D01*
X93200000Y-113080952D01*
X93247619Y-113033333D01*
X93342857Y-112985714D01*
X93485714Y-112985714D01*
X93580952Y-113033333D01*
X93628571Y-113080952D01*
X93676190Y-113176190D01*
X93676190Y-113461904D01*
X93628571Y-113557142D01*
X93580952Y-113604761D01*
X93485714Y-113652380D01*
X93342857Y-113652380D01*
X94533333Y-113652380D02*
X94533333Y-113128571D01*
X94485714Y-113033333D01*
X94390476Y-112985714D01*
X94200000Y-112985714D01*
X94104761Y-113033333D01*
X94533333Y-113604761D02*
X94438095Y-113652380D01*
X94200000Y-113652380D01*
X94104761Y-113604761D01*
X94057142Y-113509523D01*
X94057142Y-113414285D01*
X94104761Y-113319047D01*
X94200000Y-113271428D01*
X94438095Y-113271428D01*
X94533333Y-113223809D01*
X95438095Y-113652380D02*
X95438095Y-112652380D01*
X95438095Y-113604761D02*
X95342857Y-113652380D01*
X95152380Y-113652380D01*
X95057142Y-113604761D01*
X95009523Y-113557142D01*
X94961904Y-113461904D01*
X94961904Y-113176190D01*
X95009523Y-113080952D01*
X95057142Y-113033333D01*
X95152380Y-112985714D01*
X95342857Y-112985714D01*
X95438095Y-113033333D01*
X96628571Y-113604761D02*
X96771428Y-113652380D01*
X97009523Y-113652380D01*
X97104761Y-113604761D01*
X97152380Y-113557142D01*
X97200000Y-113461904D01*
X97200000Y-113366666D01*
X97152380Y-113271428D01*
X97104761Y-113223809D01*
X97009523Y-113176190D01*
X96819047Y-113128571D01*
X96723809Y-113080952D01*
X96676190Y-113033333D01*
X96628571Y-112938095D01*
X96628571Y-112842857D01*
X96676190Y-112747619D01*
X96723809Y-112700000D01*
X96819047Y-112652380D01*
X97057142Y-112652380D01*
X97200000Y-112700000D01*
X97533333Y-112985714D02*
X97723809Y-113652380D01*
X97914285Y-113176190D01*
X98104761Y-113652380D01*
X98295238Y-112985714D01*
X98676190Y-113652380D02*
X98676190Y-112985714D01*
X98676190Y-112652380D02*
X98628571Y-112700000D01*
X98676190Y-112747619D01*
X98723809Y-112700000D01*
X98676190Y-112652380D01*
X98676190Y-112747619D01*
X99009523Y-112985714D02*
X99390476Y-112985714D01*
X99152380Y-112652380D02*
X99152380Y-113509523D01*
X99200000Y-113604761D01*
X99295238Y-113652380D01*
X99390476Y-113652380D01*
X100152380Y-113604761D02*
X100057142Y-113652380D01*
X99866666Y-113652380D01*
X99771428Y-113604761D01*
X99723809Y-113557142D01*
X99676190Y-113461904D01*
X99676190Y-113176190D01*
X99723809Y-113080952D01*
X99771428Y-113033333D01*
X99866666Y-112985714D01*
X100057142Y-112985714D01*
X100152380Y-113033333D01*
X100580952Y-113652380D02*
X100580952Y-112652380D01*
X101009523Y-113652380D02*
X101009523Y-113128571D01*
X100961904Y-113033333D01*
X100866666Y-112985714D01*
X100723809Y-112985714D01*
X100628571Y-113033333D01*
X100580952Y-113080952D01*
X89828571Y-109619047D02*
X89876190Y-109476190D01*
X89923809Y-109428571D01*
X90019047Y-109380952D01*
X90161904Y-109380952D01*
X90257142Y-109428571D01*
X90304761Y-109476190D01*
X90352380Y-109571428D01*
X90352380Y-109952380D01*
X89352380Y-109952380D01*
X89352380Y-109619047D01*
X89400000Y-109523809D01*
X89447619Y-109476190D01*
X89542857Y-109428571D01*
X89638095Y-109428571D01*
X89733333Y-109476190D01*
X89780952Y-109523809D01*
X89828571Y-109619047D01*
X89828571Y-109952380D01*
X90352380Y-108523809D02*
X89828571Y-108523809D01*
X89733333Y-108571428D01*
X89685714Y-108666666D01*
X89685714Y-108857142D01*
X89733333Y-108952380D01*
X90304761Y-108523809D02*
X90352380Y-108619047D01*
X90352380Y-108857142D01*
X90304761Y-108952380D01*
X90209523Y-109000000D01*
X90114285Y-109000000D01*
X90019047Y-108952380D01*
X89971428Y-108857142D01*
X89971428Y-108619047D01*
X89923809Y-108523809D01*
X89685714Y-108190476D02*
X89685714Y-107809523D01*
X89352380Y-108047619D02*
X90209523Y-108047619D01*
X90304761Y-108000000D01*
X90352380Y-107904761D01*
X90352380Y-107809523D01*
X89685714Y-107619047D02*
X89685714Y-107238095D01*
X89352380Y-107476190D02*
X90209523Y-107476190D01*
X90304761Y-107428571D01*
X90352380Y-107333333D01*
X90352380Y-107238095D01*
X90304761Y-106523809D02*
X90352380Y-106619047D01*
X90352380Y-106809523D01*
X90304761Y-106904761D01*
X90209523Y-106952380D01*
X89828571Y-106952380D01*
X89733333Y-106904761D01*
X89685714Y-106809523D01*
X89685714Y-106619047D01*
X89733333Y-106523809D01*
X89828571Y-106476190D01*
X89923809Y-106476190D01*
X90019047Y-106952380D01*
X90352380Y-106047619D02*
X89685714Y-106047619D01*
X89876190Y-106047619D02*
X89780952Y-106000000D01*
X89733333Y-105952380D01*
X89685714Y-105857142D01*
X89685714Y-105761904D01*
X89685714Y-105523809D02*
X90352380Y-105285714D01*
X89685714Y-105047619D02*
X90352380Y-105285714D01*
X90590476Y-105380952D01*
X90638095Y-105428571D01*
X90685714Y-105523809D01*
X90352380Y-103904761D02*
X89352380Y-103904761D01*
X89352380Y-103523809D01*
X89400000Y-103428571D01*
X89447619Y-103380952D01*
X89542857Y-103333333D01*
X89685714Y-103333333D01*
X89780952Y-103380952D01*
X89828571Y-103428571D01*
X89876190Y-103523809D01*
X89876190Y-103904761D01*
X90352380Y-102904761D02*
X89685714Y-102904761D01*
X89876190Y-102904761D02*
X89780952Y-102857142D01*
X89733333Y-102809523D01*
X89685714Y-102714285D01*
X89685714Y-102619047D01*
X90352380Y-102142857D02*
X90304761Y-102238095D01*
X90257142Y-102285714D01*
X90161904Y-102333333D01*
X89876190Y-102333333D01*
X89780952Y-102285714D01*
X89733333Y-102238095D01*
X89685714Y-102142857D01*
X89685714Y-102000000D01*
X89733333Y-101904761D01*
X89780952Y-101857142D01*
X89876190Y-101809523D01*
X90161904Y-101809523D01*
X90257142Y-101857142D01*
X90304761Y-101904761D01*
X90352380Y-102000000D01*
X90352380Y-102142857D01*
X89685714Y-101523809D02*
X89685714Y-101142857D01*
X89352380Y-101380952D02*
X90209523Y-101380952D01*
X90304761Y-101333333D01*
X90352380Y-101238095D01*
X90352380Y-101142857D01*
X90304761Y-100428571D02*
X90352380Y-100523809D01*
X90352380Y-100714285D01*
X90304761Y-100809523D01*
X90209523Y-100857142D01*
X89828571Y-100857142D01*
X89733333Y-100809523D01*
X89685714Y-100714285D01*
X89685714Y-100523809D01*
X89733333Y-100428571D01*
X89828571Y-100380952D01*
X89923809Y-100380952D01*
X90019047Y-100857142D01*
X90304761Y-99523809D02*
X90352380Y-99619047D01*
X90352380Y-99809523D01*
X90304761Y-99904761D01*
X90257142Y-99952380D01*
X90161904Y-100000000D01*
X89876190Y-100000000D01*
X89780952Y-99952380D01*
X89733333Y-99904761D01*
X89685714Y-99809523D01*
X89685714Y-99619047D01*
X89733333Y-99523809D01*
X89685714Y-99238095D02*
X89685714Y-98857142D01*
X89352380Y-99095238D02*
X90209523Y-99095238D01*
X90304761Y-99047619D01*
X90352380Y-98952380D01*
X90352380Y-98857142D01*
X90352380Y-98523809D02*
X89685714Y-98523809D01*
X89352380Y-98523809D02*
X89400000Y-98571428D01*
X89447619Y-98523809D01*
X89400000Y-98476190D01*
X89352380Y-98523809D01*
X89447619Y-98523809D01*
X90352380Y-97904761D02*
X90304761Y-98000000D01*
X90257142Y-98047619D01*
X90161904Y-98095238D01*
X89876190Y-98095238D01*
X89780952Y-98047619D01*
X89733333Y-98000000D01*
X89685714Y-97904761D01*
X89685714Y-97761904D01*
X89733333Y-97666666D01*
X89780952Y-97619047D01*
X89876190Y-97571428D01*
X90161904Y-97571428D01*
X90257142Y-97619047D01*
X90304761Y-97666666D01*
X90352380Y-97761904D01*
X90352380Y-97904761D01*
X89685714Y-97142857D02*
X90352380Y-97142857D01*
X89780952Y-97142857D02*
X89733333Y-97095238D01*
X89685714Y-97000000D01*
X89685714Y-96857142D01*
X89733333Y-96761904D01*
X89828571Y-96714285D01*
X90352380Y-96714285D01*
X90257142Y-94904761D02*
X90304761Y-94952380D01*
X90352380Y-95095238D01*
X90352380Y-95190476D01*
X90304761Y-95333333D01*
X90209523Y-95428571D01*
X90114285Y-95476190D01*
X89923809Y-95523809D01*
X89780952Y-95523809D01*
X89590476Y-95476190D01*
X89495238Y-95428571D01*
X89400000Y-95333333D01*
X89352380Y-95190476D01*
X89352380Y-95095238D01*
X89400000Y-94952380D01*
X89447619Y-94904761D01*
X90352380Y-94476190D02*
X89685714Y-94476190D01*
X89352380Y-94476190D02*
X89400000Y-94523809D01*
X89447619Y-94476190D01*
X89400000Y-94428571D01*
X89352380Y-94476190D01*
X89447619Y-94476190D01*
X90352380Y-94000000D02*
X89685714Y-94000000D01*
X89876190Y-94000000D02*
X89780952Y-93952380D01*
X89733333Y-93904761D01*
X89685714Y-93809523D01*
X89685714Y-93714285D01*
X90304761Y-92952380D02*
X90352380Y-93047619D01*
X90352380Y-93238095D01*
X90304761Y-93333333D01*
X90257142Y-93380952D01*
X90161904Y-93428571D01*
X89876190Y-93428571D01*
X89780952Y-93380952D01*
X89733333Y-93333333D01*
X89685714Y-93238095D01*
X89685714Y-93047619D01*
X89733333Y-92952380D01*
X89685714Y-92095238D02*
X90352380Y-92095238D01*
X89685714Y-92523809D02*
X90209523Y-92523809D01*
X90304761Y-92476190D01*
X90352380Y-92380952D01*
X90352380Y-92238095D01*
X90304761Y-92142857D01*
X90257142Y-92095238D01*
X90352380Y-91619047D02*
X89685714Y-91619047D01*
X89352380Y-91619047D02*
X89400000Y-91666666D01*
X89447619Y-91619047D01*
X89400000Y-91571428D01*
X89352380Y-91619047D01*
X89447619Y-91619047D01*
X89685714Y-91285714D02*
X89685714Y-90904761D01*
X89352380Y-91142857D02*
X90209523Y-91142857D01*
X90304761Y-91095238D01*
X90352380Y-91000000D01*
X90352380Y-90904761D01*
X74238095Y-127852380D02*
X74809523Y-127852380D01*
X74523809Y-128852380D02*
X74523809Y-127852380D01*
X75142857Y-128852380D02*
X75142857Y-128185714D01*
X75142857Y-127852380D02*
X75095238Y-127900000D01*
X75142857Y-127947619D01*
X75190476Y-127900000D01*
X75142857Y-127852380D01*
X75142857Y-127947619D01*
X75619047Y-128852380D02*
X75619047Y-128185714D01*
X75619047Y-128280952D02*
X75666666Y-128233333D01*
X75761904Y-128185714D01*
X75904761Y-128185714D01*
X76000000Y-128233333D01*
X76047619Y-128328571D01*
X76047619Y-128852380D01*
X76047619Y-128328571D02*
X76095238Y-128233333D01*
X76190476Y-128185714D01*
X76333333Y-128185714D01*
X76428571Y-128233333D01*
X76476190Y-128328571D01*
X76476190Y-128852380D01*
X77333333Y-128804761D02*
X77238095Y-128852380D01*
X77047619Y-128852380D01*
X76952380Y-128804761D01*
X76904761Y-128709523D01*
X76904761Y-128328571D01*
X76952380Y-128233333D01*
X77047619Y-128185714D01*
X77238095Y-128185714D01*
X77333333Y-128233333D01*
X77380952Y-128328571D01*
X77380952Y-128423809D01*
X76904761Y-128519047D01*
X77809523Y-128852380D02*
X77809523Y-128185714D01*
X77809523Y-128376190D02*
X77857142Y-128280952D01*
X77904761Y-128233333D01*
X78000000Y-128185714D01*
X78095238Y-128185714D01*
X79761904Y-128757142D02*
X79714285Y-128804761D01*
X79571428Y-128852380D01*
X79476190Y-128852380D01*
X79333333Y-128804761D01*
X79238095Y-128709523D01*
X79190476Y-128614285D01*
X79142857Y-128423809D01*
X79142857Y-128280952D01*
X79190476Y-128090476D01*
X79238095Y-127995238D01*
X79333333Y-127900000D01*
X79476190Y-127852380D01*
X79571428Y-127852380D01*
X79714285Y-127900000D01*
X79761904Y-127947619D01*
X80190476Y-128852380D02*
X80190476Y-128185714D01*
X80190476Y-127852380D02*
X80142857Y-127900000D01*
X80190476Y-127947619D01*
X80238095Y-127900000D01*
X80190476Y-127852380D01*
X80190476Y-127947619D01*
X80666666Y-128852380D02*
X80666666Y-128185714D01*
X80666666Y-128376190D02*
X80714285Y-128280952D01*
X80761904Y-128233333D01*
X80857142Y-128185714D01*
X80952380Y-128185714D01*
X81714285Y-128804761D02*
X81619047Y-128852380D01*
X81428571Y-128852380D01*
X81333333Y-128804761D01*
X81285714Y-128757142D01*
X81238095Y-128661904D01*
X81238095Y-128376190D01*
X81285714Y-128280952D01*
X81333333Y-128233333D01*
X81428571Y-128185714D01*
X81619047Y-128185714D01*
X81714285Y-128233333D01*
X82571428Y-128185714D02*
X82571428Y-128852380D01*
X82142857Y-128185714D02*
X82142857Y-128709523D01*
X82190476Y-128804761D01*
X82285714Y-128852380D01*
X82428571Y-128852380D01*
X82523809Y-128804761D01*
X82571428Y-128757142D01*
X83047619Y-128852380D02*
X83047619Y-128185714D01*
X83047619Y-127852380D02*
X83000000Y-127900000D01*
X83047619Y-127947619D01*
X83095238Y-127900000D01*
X83047619Y-127852380D01*
X83047619Y-127947619D01*
X83380952Y-128185714D02*
X83761904Y-128185714D01*
X83523809Y-127852380D02*
X83523809Y-128709523D01*
X83571428Y-128804761D01*
X83666666Y-128852380D01*
X83761904Y-128852380D01*
X140414285Y-69728571D02*
X140557142Y-69776190D01*
X140604761Y-69823809D01*
X140652380Y-69919047D01*
X140652380Y-70061904D01*
X140604761Y-70157142D01*
X140557142Y-70204761D01*
X140461904Y-70252380D01*
X140080952Y-70252380D01*
X140080952Y-69252380D01*
X140414285Y-69252380D01*
X140509523Y-69300000D01*
X140557142Y-69347619D01*
X140604761Y-69442857D01*
X140604761Y-69538095D01*
X140557142Y-69633333D01*
X140509523Y-69680952D01*
X140414285Y-69728571D01*
X140080952Y-69728571D01*
X141509523Y-70252380D02*
X141509523Y-69728571D01*
X141461904Y-69633333D01*
X141366666Y-69585714D01*
X141176190Y-69585714D01*
X141080952Y-69633333D01*
X141509523Y-70204761D02*
X141414285Y-70252380D01*
X141176190Y-70252380D01*
X141080952Y-70204761D01*
X141033333Y-70109523D01*
X141033333Y-70014285D01*
X141080952Y-69919047D01*
X141176190Y-69871428D01*
X141414285Y-69871428D01*
X141509523Y-69823809D01*
X141842857Y-69585714D02*
X142223809Y-69585714D01*
X141985714Y-69252380D02*
X141985714Y-70109523D01*
X142033333Y-70204761D01*
X142128571Y-70252380D01*
X142223809Y-70252380D01*
X142557142Y-69871428D02*
X143319047Y-69871428D01*
X57314285Y-70328571D02*
X57457142Y-70376190D01*
X57504761Y-70423809D01*
X57552380Y-70519047D01*
X57552380Y-70661904D01*
X57504761Y-70757142D01*
X57457142Y-70804761D01*
X57361904Y-70852380D01*
X56980952Y-70852380D01*
X56980952Y-69852380D01*
X57314285Y-69852380D01*
X57409523Y-69900000D01*
X57457142Y-69947619D01*
X57504761Y-70042857D01*
X57504761Y-70138095D01*
X57457142Y-70233333D01*
X57409523Y-70280952D01*
X57314285Y-70328571D01*
X56980952Y-70328571D01*
X58409523Y-70852380D02*
X58409523Y-70328571D01*
X58361904Y-70233333D01*
X58266666Y-70185714D01*
X58076190Y-70185714D01*
X57980952Y-70233333D01*
X58409523Y-70804761D02*
X58314285Y-70852380D01*
X58076190Y-70852380D01*
X57980952Y-70804761D01*
X57933333Y-70709523D01*
X57933333Y-70614285D01*
X57980952Y-70519047D01*
X58076190Y-70471428D01*
X58314285Y-70471428D01*
X58409523Y-70423809D01*
X58742857Y-70185714D02*
X59123809Y-70185714D01*
X58885714Y-69852380D02*
X58885714Y-70709523D01*
X58933333Y-70804761D01*
X59028571Y-70852380D01*
X59123809Y-70852380D01*
X59457142Y-70471428D02*
X60219047Y-70471428D01*
X59838095Y-70852380D02*
X59838095Y-70090476D01*
X95742857Y-135300000D02*
X95647619Y-135252380D01*
X95504761Y-135252380D01*
X95361904Y-135300000D01*
X95266666Y-135395238D01*
X95219047Y-135490476D01*
X95171428Y-135680952D01*
X95171428Y-135823809D01*
X95219047Y-136014285D01*
X95266666Y-136109523D01*
X95361904Y-136204761D01*
X95504761Y-136252380D01*
X95600000Y-136252380D01*
X95742857Y-136204761D01*
X95790476Y-136157142D01*
X95790476Y-135823809D01*
X95600000Y-135823809D01*
X96219047Y-136252380D02*
X96219047Y-135585714D01*
X96219047Y-135776190D02*
X96266666Y-135680952D01*
X96314285Y-135633333D01*
X96409523Y-135585714D01*
X96504761Y-135585714D01*
X96980952Y-136252380D02*
X96885714Y-136204761D01*
X96838095Y-136157142D01*
X96790476Y-136061904D01*
X96790476Y-135776190D01*
X96838095Y-135680952D01*
X96885714Y-135633333D01*
X96980952Y-135585714D01*
X97123809Y-135585714D01*
X97219047Y-135633333D01*
X97266666Y-135680952D01*
X97314285Y-135776190D01*
X97314285Y-136061904D01*
X97266666Y-136157142D01*
X97219047Y-136204761D01*
X97123809Y-136252380D01*
X96980952Y-136252380D01*
X98171428Y-135585714D02*
X98171428Y-136252380D01*
X97742857Y-135585714D02*
X97742857Y-136109523D01*
X97790476Y-136204761D01*
X97885714Y-136252380D01*
X98028571Y-136252380D01*
X98123809Y-136204761D01*
X98171428Y-136157142D01*
X98647619Y-135585714D02*
X98647619Y-136252380D01*
X98647619Y-135680952D02*
X98695238Y-135633333D01*
X98790476Y-135585714D01*
X98933333Y-135585714D01*
X99028571Y-135633333D01*
X99076190Y-135728571D01*
X99076190Y-136252380D01*
X99980952Y-136252380D02*
X99980952Y-135252380D01*
X99980952Y-136204761D02*
X99885714Y-136252380D01*
X99695238Y-136252380D01*
X99600000Y-136204761D01*
X99552380Y-136157142D01*
X99504761Y-136061904D01*
X99504761Y-135776190D01*
X99552380Y-135680952D01*
X99600000Y-135633333D01*
X99695238Y-135585714D01*
X99885714Y-135585714D01*
X99980952Y-135633333D01*
D11*
X77800000Y-92100000D02*
X77800000Y-93100000D01*
X85600000Y-111400000D02*
X85600000Y-140000000D01*
X82610000Y-93970000D02*
X85270000Y-93970000D01*
X82610000Y-93970000D02*
X82610000Y-99110000D01*
X82610000Y-99110000D02*
X85270000Y-99110000D01*
X85270000Y-93970000D02*
X85270000Y-99110000D01*
X85270000Y-91370000D02*
X85270000Y-92700000D01*
X83940000Y-91370000D02*
X85270000Y-91370000D01*
X61660000Y-73460000D02*
X57300000Y-73460000D01*
X61660000Y-87340000D02*
X61660000Y-80340000D01*
X138940000Y-87340000D02*
X61660000Y-87340000D01*
X138940000Y-80340000D02*
X138940000Y-87340000D01*
X61660000Y-66460000D02*
X61660000Y-73460000D01*
X138940000Y-66460000D02*
X61660000Y-66460000D01*
X138940000Y-73460000D02*
X138940000Y-66480000D01*
X144050000Y-70900000D02*
X141550000Y-70900000D01*
X56550000Y-70900000D02*
X59050000Y-70900000D01*
X57800000Y-72150000D02*
X57800000Y-69650000D01*
X108910000Y-95997936D02*
X108910000Y-97202064D01*
X107090000Y-95997936D02*
X107090000Y-97202064D01*
X121502064Y-92190000D02*
X120297936Y-92190000D01*
X121502064Y-94010000D02*
X120297936Y-94010000D01*
X79710000Y-95497936D02*
X79710000Y-96702064D01*
X77890000Y-95497936D02*
X77890000Y-96702064D01*
X115195001Y-91020937D02*
X115195001Y-92225065D01*
X117015001Y-91020937D02*
X117015001Y-92225065D01*
X112910000Y-91020937D02*
X112910000Y-92225065D01*
X111090000Y-91020937D02*
X111090000Y-92225065D01*
X92796999Y-126682937D02*
X92796999Y-127887065D01*
X90976999Y-126682937D02*
X90976999Y-127887065D01*
X98690000Y-126797936D02*
X98690000Y-128002064D01*
X100510000Y-126797936D02*
X100510000Y-128002064D01*
X125715000Y-100135000D02*
X129600000Y-100135000D01*
X125715000Y-97865000D02*
X125715000Y-100135000D01*
X129600000Y-97865000D02*
X125715000Y-97865000D01*
X125750000Y-101200000D02*
X132250000Y-101200000D01*
X125750000Y-101200000D02*
X125750000Y-109600000D01*
X132250000Y-101200000D02*
X132250000Y-109600000D01*
X102465000Y-125800000D02*
X102465000Y-129685000D01*
X102465000Y-129685000D02*
X104735000Y-129685000D01*
X104735000Y-129685000D02*
X104735000Y-125800000D01*
X54540000Y-114460000D02*
X56660000Y-114460000D01*
X54540000Y-114340000D02*
X54540000Y-114460000D01*
X56660000Y-114340000D02*
X56660000Y-114460000D01*
X56660000Y-112340000D02*
X56660000Y-113400000D01*
X55600000Y-112340000D02*
X56660000Y-112340000D01*
X75600000Y-112340000D02*
X76660000Y-112340000D01*
X76660000Y-112340000D02*
X76660000Y-113400000D01*
X76660000Y-114340000D02*
X76660000Y-114460000D01*
X74540000Y-114340000D02*
X74540000Y-114460000D01*
X74540000Y-114460000D02*
X76660000Y-114460000D01*
X75540000Y-117460000D02*
X77660000Y-117460000D01*
X75540000Y-117340000D02*
X75540000Y-117460000D01*
X77660000Y-117340000D02*
X77660000Y-117460000D01*
X77660000Y-115340000D02*
X77660000Y-116400000D01*
X76600000Y-115340000D02*
X77660000Y-115340000D01*
X75540000Y-137400000D02*
X77660000Y-137400000D01*
X75540000Y-137400000D02*
X75540000Y-139460000D01*
X75540000Y-139460000D02*
X77660000Y-139460000D01*
X77660000Y-137400000D02*
X77660000Y-139460000D01*
X77660000Y-135340000D02*
X77660000Y-136400000D01*
X76600000Y-135340000D02*
X77660000Y-135340000D01*
X56600000Y-137340000D02*
X57660000Y-137340000D01*
X57660000Y-137340000D02*
X57660000Y-138400000D01*
X57660000Y-139340000D02*
X57660000Y-139460000D01*
X55540000Y-139340000D02*
X55540000Y-139460000D01*
X55540000Y-139460000D02*
X57660000Y-139460000D01*
X121090000Y-102602064D02*
X121090000Y-101397936D01*
X122910000Y-102602064D02*
X122910000Y-101397936D01*
X70700000Y-110400000D02*
X65500000Y-110400000D01*
X71100000Y-104800000D02*
X64500000Y-104800000D01*
X64500000Y-104800000D02*
X64500000Y-105200000D01*
X80700000Y-110400000D02*
X80700000Y-110000000D01*
X74100000Y-110400000D02*
X80700000Y-110400000D01*
X74500000Y-104800000D02*
X79700000Y-104800000D01*
D12*
X111675000Y-103375000D02*
X111675000Y-103475000D01*
X116325000Y-103375000D02*
X116325000Y-103575000D01*
X116325000Y-106625000D02*
X116325000Y-106425000D01*
X111675000Y-106625000D02*
X111675000Y-106425000D01*
X111675000Y-103375000D02*
X116325000Y-103375000D01*
X111675000Y-106625000D02*
X116325000Y-106625000D01*
X111675000Y-103475000D02*
X110325000Y-103475000D01*
D11*
X133910000Y-96997936D02*
X133910000Y-98202064D01*
X132090000Y-96997936D02*
X132090000Y-98202064D01*
X108910000Y-101397936D02*
X108910000Y-102602064D01*
X107090000Y-101397936D02*
X107090000Y-102602064D01*
X59290000Y-108202064D02*
X59290000Y-106997936D01*
X61110000Y-108202064D02*
X61110000Y-106997936D01*
X55590000Y-108202064D02*
X55590000Y-106997936D01*
X57410000Y-108202064D02*
X57410000Y-106997936D01*
X85510000Y-108202064D02*
X85510000Y-106997936D01*
X83690000Y-108202064D02*
X83690000Y-106997936D01*
X122910000Y-97602064D02*
X122910000Y-96397936D01*
X121090000Y-97602064D02*
X121090000Y-96397936D01*
X72890000Y-92497936D02*
X72890000Y-93702064D01*
X74710000Y-92497936D02*
X74710000Y-93702064D01*
X94690000Y-126797936D02*
X94690000Y-128002064D01*
X96510000Y-126797936D02*
X96510000Y-128002064D01*
X104510000Y-121797936D02*
X104510000Y-123002064D01*
X102690000Y-121797936D02*
X102690000Y-123002064D01*
X101345000Y-93510000D02*
X94525000Y-93510000D01*
X101345000Y-89290000D02*
X94525000Y-89290000D01*
X101345000Y-93510000D02*
X101345000Y-92200000D01*
X101345000Y-90600000D02*
X101345000Y-89290000D01*
X94525000Y-93510000D02*
X94525000Y-92200000D01*
X94525000Y-90600000D02*
X94525000Y-89290000D01*
X101585000Y-93750000D02*
X100202000Y-93750000D01*
X101585000Y-93750000D02*
X101585000Y-92367000D01*
X99745000Y-92035000D02*
X99745000Y-90765000D01*
X99745000Y-90765000D02*
X96125000Y-90765000D01*
X96125000Y-90765000D02*
X96125000Y-92035000D01*
X96125000Y-92035000D02*
X99745000Y-92035000D01*
X99745000Y-91915000D02*
X98538333Y-91915000D01*
X99745000Y-91795000D02*
X98538333Y-91795000D01*
X99745000Y-91675000D02*
X98538333Y-91675000D01*
X99745000Y-91555000D02*
X98538333Y-91555000D01*
X99745000Y-91435000D02*
X98538333Y-91435000D01*
X99745000Y-91315000D02*
X98538333Y-91315000D01*
X99745000Y-91195000D02*
X98538333Y-91195000D01*
X99745000Y-91075000D02*
X98538333Y-91075000D01*
X99745000Y-90955000D02*
X98538333Y-90955000D01*
X99745000Y-90835000D02*
X98538333Y-90835000D01*
X98538333Y-92035000D02*
X98538333Y-90765000D01*
X58710000Y-121990000D02*
X58710000Y-128810000D01*
X54490000Y-121990000D02*
X54490000Y-128810000D01*
X58710000Y-121990000D02*
X57400000Y-121990000D01*
X55800000Y-121990000D02*
X54490000Y-121990000D01*
X58710000Y-128810000D02*
X57400000Y-128810000D01*
X55800000Y-128810000D02*
X54490000Y-128810000D01*
X58950000Y-121750000D02*
X58950000Y-123133000D01*
X58950000Y-121750000D02*
X57567000Y-121750000D01*
X57235000Y-123590000D02*
X55965000Y-123590000D01*
X55965000Y-123590000D02*
X55965000Y-127210000D01*
X55965000Y-127210000D02*
X57235000Y-127210000D01*
X57235000Y-127210000D02*
X57235000Y-123590000D01*
X57115000Y-123590000D02*
X57115000Y-124796667D01*
X56995000Y-123590000D02*
X56995000Y-124796667D01*
X56875000Y-123590000D02*
X56875000Y-124796667D01*
X56755000Y-123590000D02*
X56755000Y-124796667D01*
X56635000Y-123590000D02*
X56635000Y-124796667D01*
X56515000Y-123590000D02*
X56515000Y-124796667D01*
X56395000Y-123590000D02*
X56395000Y-124796667D01*
X56275000Y-123590000D02*
X56275000Y-124796667D01*
X56155000Y-123590000D02*
X56155000Y-124796667D01*
X56035000Y-123590000D02*
X56035000Y-124796667D01*
X57235000Y-124796667D02*
X55965000Y-124796667D01*
X58235000Y-89796667D02*
X56965000Y-89796667D01*
X57035000Y-88590000D02*
X57035000Y-89796667D01*
X57155000Y-88590000D02*
X57155000Y-89796667D01*
X57275000Y-88590000D02*
X57275000Y-89796667D01*
X57395000Y-88590000D02*
X57395000Y-89796667D01*
X57515000Y-88590000D02*
X57515000Y-89796667D01*
X57635000Y-88590000D02*
X57635000Y-89796667D01*
X57755000Y-88590000D02*
X57755000Y-89796667D01*
X57875000Y-88590000D02*
X57875000Y-89796667D01*
X57995000Y-88590000D02*
X57995000Y-89796667D01*
X58115000Y-88590000D02*
X58115000Y-89796667D01*
X58235000Y-92210000D02*
X58235000Y-88590000D01*
X56965000Y-92210000D02*
X58235000Y-92210000D01*
X56965000Y-88590000D02*
X56965000Y-92210000D01*
X58235000Y-88590000D02*
X56965000Y-88590000D01*
X59950000Y-86750000D02*
X58567000Y-86750000D01*
X59950000Y-86750000D02*
X59950000Y-88133000D01*
X56800000Y-93810000D02*
X55490000Y-93810000D01*
X59710000Y-93810000D02*
X58400000Y-93810000D01*
X56800000Y-86990000D02*
X55490000Y-86990000D01*
X59710000Y-86990000D02*
X58400000Y-86990000D01*
X55490000Y-86990000D02*
X55490000Y-93810000D01*
X59710000Y-86990000D02*
X59710000Y-93810000D01*
X53840000Y-68940000D02*
X54900000Y-68940000D01*
X53840000Y-70000000D02*
X53840000Y-68940000D01*
X53840000Y-71000000D02*
X55960000Y-71000000D01*
X55960000Y-71000000D02*
X55960000Y-71060000D01*
X53840000Y-71000000D02*
X53840000Y-71060000D01*
X53840000Y-71060000D02*
X55960000Y-71060000D01*
X145540000Y-70960000D02*
X147660000Y-70960000D01*
X145540000Y-70900000D02*
X145540000Y-70960000D01*
X147660000Y-70900000D02*
X147660000Y-70960000D01*
X145540000Y-70900000D02*
X147660000Y-70900000D01*
X145540000Y-69900000D02*
X145540000Y-68840000D01*
X145540000Y-68840000D02*
X146600000Y-68840000D01*
X96540000Y-133860000D02*
X98660000Y-133860000D01*
X96540000Y-133800000D02*
X96540000Y-133860000D01*
X98660000Y-133800000D02*
X98660000Y-133860000D01*
X96540000Y-133800000D02*
X98660000Y-133800000D01*
X96540000Y-132800000D02*
X96540000Y-131740000D01*
X96540000Y-131740000D02*
X97600000Y-131740000D01*
D12*
X111925000Y-94425000D02*
X111925000Y-94475000D01*
X116075000Y-94425000D02*
X116075000Y-94570000D01*
X116075000Y-99575000D02*
X116075000Y-99430000D01*
X111925000Y-99575000D02*
X111925000Y-99430000D01*
X111925000Y-94425000D02*
X116075000Y-94425000D01*
X111925000Y-99575000D02*
X116075000Y-99575000D01*
X111925000Y-94475000D02*
X110525000Y-94475000D01*
D11*
X68700000Y-91370000D02*
X70030000Y-91370000D01*
X70030000Y-91370000D02*
X70030000Y-92700000D01*
X70030000Y-93970000D02*
X70030000Y-99110000D01*
X67370000Y-99110000D02*
X70030000Y-99110000D01*
X67370000Y-93970000D02*
X67370000Y-99110000D01*
X67370000Y-93970000D02*
X70030000Y-93970000D01*
X112740000Y-122060000D02*
X114860000Y-122060000D01*
X112740000Y-122000000D02*
X112740000Y-122060000D01*
X114860000Y-122000000D02*
X114860000Y-122060000D01*
X112740000Y-122000000D02*
X114860000Y-122000000D01*
X112740000Y-121000000D02*
X112740000Y-119940000D01*
X112740000Y-119940000D02*
X113800000Y-119940000D01*
X65160000Y-126020000D02*
X66920000Y-126020000D01*
X66920000Y-122950000D02*
X64490000Y-122950000D01*
D12*
X83606666Y-89382380D02*
X83606666Y-90096666D01*
X83559047Y-90239523D01*
X83463809Y-90334761D01*
X83320952Y-90382380D01*
X83225714Y-90382380D01*
X83987619Y-89382380D02*
X84654285Y-89382380D01*
X84225714Y-90382380D01*
X140414285Y-85828571D02*
X140557142Y-85876190D01*
X140604761Y-85923809D01*
X140652380Y-86019047D01*
X140652380Y-86161904D01*
X140604761Y-86257142D01*
X140557142Y-86304761D01*
X140461904Y-86352380D01*
X140080952Y-86352380D01*
X140080952Y-85352380D01*
X140414285Y-85352380D01*
X140509523Y-85400000D01*
X140557142Y-85447619D01*
X140604761Y-85542857D01*
X140604761Y-85638095D01*
X140557142Y-85733333D01*
X140509523Y-85780952D01*
X140414285Y-85828571D01*
X140080952Y-85828571D01*
X140938095Y-85352380D02*
X141509523Y-85352380D01*
X141223809Y-86352380D02*
X141223809Y-85352380D01*
X142366666Y-86352380D02*
X141795238Y-86352380D01*
X142080952Y-86352380D02*
X142080952Y-85352380D01*
X141985714Y-85495238D01*
X141890476Y-85590476D01*
X141795238Y-85638095D01*
X108433333Y-93757142D02*
X108385714Y-93804761D01*
X108242857Y-93852380D01*
X108147619Y-93852380D01*
X108004761Y-93804761D01*
X107909523Y-93709523D01*
X107861904Y-93614285D01*
X107814285Y-93423809D01*
X107814285Y-93280952D01*
X107861904Y-93090476D01*
X107909523Y-92995238D01*
X108004761Y-92900000D01*
X108147619Y-92852380D01*
X108242857Y-92852380D01*
X108385714Y-92900000D01*
X108433333Y-92947619D01*
X109385714Y-93852380D02*
X108814285Y-93852380D01*
X109100000Y-93852380D02*
X109100000Y-92852380D01*
X109004761Y-92995238D01*
X108909523Y-93090476D01*
X108814285Y-93138095D01*
X123733333Y-91457142D02*
X123685714Y-91504761D01*
X123542857Y-91552380D01*
X123447619Y-91552380D01*
X123304761Y-91504761D01*
X123209523Y-91409523D01*
X123161904Y-91314285D01*
X123114285Y-91123809D01*
X123114285Y-90980952D01*
X123161904Y-90790476D01*
X123209523Y-90695238D01*
X123304761Y-90600000D01*
X123447619Y-90552380D01*
X123542857Y-90552380D01*
X123685714Y-90600000D01*
X123733333Y-90647619D01*
X124114285Y-90647619D02*
X124161904Y-90600000D01*
X124257142Y-90552380D01*
X124495238Y-90552380D01*
X124590476Y-90600000D01*
X124638095Y-90647619D01*
X124685714Y-90742857D01*
X124685714Y-90838095D01*
X124638095Y-90980952D01*
X124066666Y-91552380D01*
X124685714Y-91552380D01*
X80977142Y-96266666D02*
X81024761Y-96314285D01*
X81072380Y-96457142D01*
X81072380Y-96552380D01*
X81024761Y-96695238D01*
X80929523Y-96790476D01*
X80834285Y-96838095D01*
X80643809Y-96885714D01*
X80500952Y-96885714D01*
X80310476Y-96838095D01*
X80215238Y-96790476D01*
X80120000Y-96695238D01*
X80072380Y-96552380D01*
X80072380Y-96457142D01*
X80120000Y-96314285D01*
X80167619Y-96266666D01*
X80072380Y-95933333D02*
X80072380Y-95314285D01*
X80453333Y-95647619D01*
X80453333Y-95504761D01*
X80500952Y-95409523D01*
X80548571Y-95361904D01*
X80643809Y-95314285D01*
X80881904Y-95314285D01*
X80977142Y-95361904D01*
X81024761Y-95409523D01*
X81072380Y-95504761D01*
X81072380Y-95790476D01*
X81024761Y-95885714D01*
X80977142Y-95933333D01*
X117833333Y-91357142D02*
X117785714Y-91404761D01*
X117642857Y-91452380D01*
X117547619Y-91452380D01*
X117404761Y-91404761D01*
X117309523Y-91309523D01*
X117261904Y-91214285D01*
X117214285Y-91023809D01*
X117214285Y-90880952D01*
X117261904Y-90690476D01*
X117309523Y-90595238D01*
X117404761Y-90500000D01*
X117547619Y-90452380D01*
X117642857Y-90452380D01*
X117785714Y-90500000D01*
X117833333Y-90547619D01*
X118690476Y-90785714D02*
X118690476Y-91452380D01*
X118452380Y-90404761D02*
X118214285Y-91119047D01*
X118833333Y-91119047D01*
X113033333Y-88957142D02*
X112985714Y-89004761D01*
X112842857Y-89052380D01*
X112747619Y-89052380D01*
X112604761Y-89004761D01*
X112509523Y-88909523D01*
X112461904Y-88814285D01*
X112414285Y-88623809D01*
X112414285Y-88480952D01*
X112461904Y-88290476D01*
X112509523Y-88195238D01*
X112604761Y-88100000D01*
X112747619Y-88052380D01*
X112842857Y-88052380D01*
X112985714Y-88100000D01*
X113033333Y-88147619D01*
X113938095Y-88052380D02*
X113461904Y-88052380D01*
X113414285Y-88528571D01*
X113461904Y-88480952D01*
X113557142Y-88433333D01*
X113795238Y-88433333D01*
X113890476Y-88480952D01*
X113938095Y-88528571D01*
X113985714Y-88623809D01*
X113985714Y-88861904D01*
X113938095Y-88957142D01*
X113890476Y-89004761D01*
X113795238Y-89052380D01*
X113557142Y-89052380D01*
X113461904Y-89004761D01*
X113414285Y-88957142D01*
X94064141Y-127451667D02*
X94111760Y-127499286D01*
X94159379Y-127642143D01*
X94159379Y-127737381D01*
X94111760Y-127880239D01*
X94016522Y-127975477D01*
X93921284Y-128023096D01*
X93730808Y-128070715D01*
X93587951Y-128070715D01*
X93397475Y-128023096D01*
X93302237Y-127975477D01*
X93206999Y-127880239D01*
X93159379Y-127737381D01*
X93159379Y-127642143D01*
X93206999Y-127499286D01*
X93254618Y-127451667D01*
X93159379Y-126594524D02*
X93159379Y-126785001D01*
X93206999Y-126880239D01*
X93254618Y-126927858D01*
X93397475Y-127023096D01*
X93587951Y-127070715D01*
X93968903Y-127070715D01*
X94064141Y-127023096D01*
X94111760Y-126975477D01*
X94159379Y-126880239D01*
X94159379Y-126689762D01*
X94111760Y-126594524D01*
X94064141Y-126546905D01*
X93968903Y-126499286D01*
X93730808Y-126499286D01*
X93635570Y-126546905D01*
X93587951Y-126594524D01*
X93540332Y-126689762D01*
X93540332Y-126880239D01*
X93587951Y-126975477D01*
X93635570Y-127023096D01*
X93730808Y-127070715D01*
X101777142Y-127566666D02*
X101824761Y-127614285D01*
X101872380Y-127757142D01*
X101872380Y-127852380D01*
X101824761Y-127995238D01*
X101729523Y-128090476D01*
X101634285Y-128138095D01*
X101443809Y-128185714D01*
X101300952Y-128185714D01*
X101110476Y-128138095D01*
X101015238Y-128090476D01*
X100920000Y-127995238D01*
X100872380Y-127852380D01*
X100872380Y-127757142D01*
X100920000Y-127614285D01*
X100967619Y-127566666D01*
X100872380Y-127233333D02*
X100872380Y-126566666D01*
X101872380Y-126995238D01*
X127261904Y-97632380D02*
X127261904Y-96632380D01*
X127500000Y-96632380D01*
X127642857Y-96680000D01*
X127738095Y-96775238D01*
X127785714Y-96870476D01*
X127833333Y-97060952D01*
X127833333Y-97203809D01*
X127785714Y-97394285D01*
X127738095Y-97489523D01*
X127642857Y-97584761D01*
X127500000Y-97632380D01*
X127261904Y-97632380D01*
X128785714Y-97632380D02*
X128214285Y-97632380D01*
X128500000Y-97632380D02*
X128500000Y-96632380D01*
X128404761Y-96775238D01*
X128309523Y-96870476D01*
X128214285Y-96918095D01*
X133552380Y-106738095D02*
X132552380Y-106738095D01*
X132552380Y-106500000D01*
X132600000Y-106357142D01*
X132695238Y-106261904D01*
X132790476Y-106214285D01*
X132980952Y-106166666D01*
X133123809Y-106166666D01*
X133314285Y-106214285D01*
X133409523Y-106261904D01*
X133504761Y-106357142D01*
X133552380Y-106500000D01*
X133552380Y-106738095D01*
X132647619Y-105785714D02*
X132600000Y-105738095D01*
X132552380Y-105642857D01*
X132552380Y-105404761D01*
X132600000Y-105309523D01*
X132647619Y-105261904D01*
X132742857Y-105214285D01*
X132838095Y-105214285D01*
X132980952Y-105261904D01*
X133552380Y-105833333D01*
X133552380Y-105214285D01*
X107052380Y-128138095D02*
X106052380Y-128138095D01*
X106052380Y-127900000D01*
X106100000Y-127757142D01*
X106195238Y-127661904D01*
X106290476Y-127614285D01*
X106480952Y-127566666D01*
X106623809Y-127566666D01*
X106814285Y-127614285D01*
X106909523Y-127661904D01*
X107004761Y-127757142D01*
X107052380Y-127900000D01*
X107052380Y-128138095D01*
X106052380Y-127233333D02*
X106052380Y-126614285D01*
X106433333Y-126947619D01*
X106433333Y-126804761D01*
X106480952Y-126709523D01*
X106528571Y-126661904D01*
X106623809Y-126614285D01*
X106861904Y-126614285D01*
X106957142Y-126661904D01*
X107004761Y-126709523D01*
X107052380Y-126804761D01*
X107052380Y-127090476D01*
X107004761Y-127185714D01*
X106957142Y-127233333D01*
X58266666Y-111852380D02*
X58266666Y-112566666D01*
X58219047Y-112709523D01*
X58123809Y-112804761D01*
X57980952Y-112852380D01*
X57885714Y-112852380D01*
X59266666Y-112852380D02*
X58695238Y-112852380D01*
X58980952Y-112852380D02*
X58980952Y-111852380D01*
X58885714Y-111995238D01*
X58790476Y-112090476D01*
X58695238Y-112138095D01*
X72266666Y-111852380D02*
X72266666Y-112566666D01*
X72219047Y-112709523D01*
X72123809Y-112804761D01*
X71980952Y-112852380D01*
X71885714Y-112852380D01*
X72695238Y-111947619D02*
X72742857Y-111900000D01*
X72838095Y-111852380D01*
X73076190Y-111852380D01*
X73171428Y-111900000D01*
X73219047Y-111947619D01*
X73266666Y-112042857D01*
X73266666Y-112138095D01*
X73219047Y-112280952D01*
X72647619Y-112852380D01*
X73266666Y-112852380D01*
X79266666Y-114852380D02*
X79266666Y-115566666D01*
X79219047Y-115709523D01*
X79123809Y-115804761D01*
X78980952Y-115852380D01*
X78885714Y-115852380D01*
X79647619Y-114852380D02*
X80266666Y-114852380D01*
X79933333Y-115233333D01*
X80076190Y-115233333D01*
X80171428Y-115280952D01*
X80219047Y-115328571D01*
X80266666Y-115423809D01*
X80266666Y-115661904D01*
X80219047Y-115757142D01*
X80171428Y-115804761D01*
X80076190Y-115852380D01*
X79790476Y-115852380D01*
X79695238Y-115804761D01*
X79647619Y-115757142D01*
X76266666Y-133352380D02*
X76266666Y-134066666D01*
X76219047Y-134209523D01*
X76123809Y-134304761D01*
X75980952Y-134352380D01*
X75885714Y-134352380D01*
X77171428Y-133685714D02*
X77171428Y-134352380D01*
X76933333Y-133304761D02*
X76695238Y-134019047D01*
X77314285Y-134019047D01*
X56266666Y-135352380D02*
X56266666Y-136066666D01*
X56219047Y-136209523D01*
X56123809Y-136304761D01*
X55980952Y-136352380D01*
X55885714Y-136352380D01*
X57219047Y-135352380D02*
X56742857Y-135352380D01*
X56695238Y-135828571D01*
X56742857Y-135780952D01*
X56838095Y-135733333D01*
X57076190Y-135733333D01*
X57171428Y-135780952D01*
X57219047Y-135828571D01*
X57266666Y-135923809D01*
X57266666Y-136161904D01*
X57219047Y-136257142D01*
X57171428Y-136304761D01*
X57076190Y-136352380D01*
X56838095Y-136352380D01*
X56742857Y-136304761D01*
X56695238Y-136257142D01*
X119833333Y-102452380D02*
X119357142Y-102452380D01*
X119357142Y-101452380D01*
X120690476Y-102452380D02*
X120119047Y-102452380D01*
X120404761Y-102452380D02*
X120404761Y-101452380D01*
X120309523Y-101595238D01*
X120214285Y-101690476D01*
X120119047Y-101738095D01*
X68704761Y-104347619D02*
X68609523Y-104300000D01*
X68514285Y-104204761D01*
X68371428Y-104061904D01*
X68276190Y-104014285D01*
X68180952Y-104014285D01*
X68228571Y-104252380D02*
X68133333Y-104204761D01*
X68038095Y-104109523D01*
X67990476Y-103919047D01*
X67990476Y-103585714D01*
X68038095Y-103395238D01*
X68133333Y-103300000D01*
X68228571Y-103252380D01*
X68419047Y-103252380D01*
X68514285Y-103300000D01*
X68609523Y-103395238D01*
X68657142Y-103585714D01*
X68657142Y-103919047D01*
X68609523Y-104109523D01*
X68514285Y-104204761D01*
X68419047Y-104252380D01*
X68228571Y-104252380D01*
X69609523Y-104252380D02*
X69038095Y-104252380D01*
X69323809Y-104252380D02*
X69323809Y-103252380D01*
X69228571Y-103395238D01*
X69133333Y-103490476D01*
X69038095Y-103538095D01*
X77004761Y-104147619D02*
X76909523Y-104100000D01*
X76814285Y-104004761D01*
X76671428Y-103861904D01*
X76576190Y-103814285D01*
X76480952Y-103814285D01*
X76528571Y-104052380D02*
X76433333Y-104004761D01*
X76338095Y-103909523D01*
X76290476Y-103719047D01*
X76290476Y-103385714D01*
X76338095Y-103195238D01*
X76433333Y-103100000D01*
X76528571Y-103052380D01*
X76719047Y-103052380D01*
X76814285Y-103100000D01*
X76909523Y-103195238D01*
X76957142Y-103385714D01*
X76957142Y-103719047D01*
X76909523Y-103909523D01*
X76814285Y-104004761D01*
X76719047Y-104052380D01*
X76528571Y-104052380D01*
X77338095Y-103147619D02*
X77385714Y-103100000D01*
X77480952Y-103052380D01*
X77719047Y-103052380D01*
X77814285Y-103100000D01*
X77861904Y-103147619D01*
X77909523Y-103242857D01*
X77909523Y-103338095D01*
X77861904Y-103480952D01*
X77290476Y-104052380D01*
X77909523Y-104052380D01*
X113904761Y-102997619D02*
X113809523Y-102950000D01*
X113714285Y-102854761D01*
X113571428Y-102711904D01*
X113476190Y-102664285D01*
X113380952Y-102664285D01*
X113428571Y-102902380D02*
X113333333Y-102854761D01*
X113238095Y-102759523D01*
X113190476Y-102569047D01*
X113190476Y-102235714D01*
X113238095Y-102045238D01*
X113333333Y-101950000D01*
X113428571Y-101902380D01*
X113619047Y-101902380D01*
X113714285Y-101950000D01*
X113809523Y-102045238D01*
X113857142Y-102235714D01*
X113857142Y-102569047D01*
X113809523Y-102759523D01*
X113714285Y-102854761D01*
X113619047Y-102902380D01*
X113428571Y-102902380D01*
X114190476Y-101902380D02*
X114809523Y-101902380D01*
X114476190Y-102283333D01*
X114619047Y-102283333D01*
X114714285Y-102330952D01*
X114761904Y-102378571D01*
X114809523Y-102473809D01*
X114809523Y-102711904D01*
X114761904Y-102807142D01*
X114714285Y-102854761D01*
X114619047Y-102902380D01*
X114333333Y-102902380D01*
X114238095Y-102854761D01*
X114190476Y-102807142D01*
X135272380Y-97766666D02*
X134796190Y-98100000D01*
X135272380Y-98338095D02*
X134272380Y-98338095D01*
X134272380Y-97957142D01*
X134320000Y-97861904D01*
X134367619Y-97814285D01*
X134462857Y-97766666D01*
X134605714Y-97766666D01*
X134700952Y-97814285D01*
X134748571Y-97861904D01*
X134796190Y-97957142D01*
X134796190Y-98338095D01*
X135272380Y-96814285D02*
X135272380Y-97385714D01*
X135272380Y-97100000D02*
X134272380Y-97100000D01*
X134415238Y-97195238D01*
X134510476Y-97290476D01*
X134558095Y-97385714D01*
X107833333Y-105452380D02*
X107500000Y-104976190D01*
X107261904Y-105452380D02*
X107261904Y-104452380D01*
X107642857Y-104452380D01*
X107738095Y-104500000D01*
X107785714Y-104547619D01*
X107833333Y-104642857D01*
X107833333Y-104785714D01*
X107785714Y-104880952D01*
X107738095Y-104928571D01*
X107642857Y-104976190D01*
X107261904Y-104976190D01*
X108214285Y-104547619D02*
X108261904Y-104500000D01*
X108357142Y-104452380D01*
X108595238Y-104452380D01*
X108690476Y-104500000D01*
X108738095Y-104547619D01*
X108785714Y-104642857D01*
X108785714Y-104738095D01*
X108738095Y-104880952D01*
X108166666Y-105452380D01*
X108785714Y-105452380D01*
X58832380Y-107766666D02*
X58356190Y-108100000D01*
X58832380Y-108338095D02*
X57832380Y-108338095D01*
X57832380Y-107957142D01*
X57880000Y-107861904D01*
X57927619Y-107814285D01*
X58022857Y-107766666D01*
X58165714Y-107766666D01*
X58260952Y-107814285D01*
X58308571Y-107861904D01*
X58356190Y-107957142D01*
X58356190Y-108338095D01*
X57832380Y-107433333D02*
X57832380Y-106814285D01*
X58213333Y-107147619D01*
X58213333Y-107004761D01*
X58260952Y-106909523D01*
X58308571Y-106861904D01*
X58403809Y-106814285D01*
X58641904Y-106814285D01*
X58737142Y-106861904D01*
X58784761Y-106909523D01*
X58832380Y-107004761D01*
X58832380Y-107290476D01*
X58784761Y-107385714D01*
X58737142Y-107433333D01*
X55132380Y-107766666D02*
X54656190Y-108100000D01*
X55132380Y-108338095D02*
X54132380Y-108338095D01*
X54132380Y-107957142D01*
X54180000Y-107861904D01*
X54227619Y-107814285D01*
X54322857Y-107766666D01*
X54465714Y-107766666D01*
X54560952Y-107814285D01*
X54608571Y-107861904D01*
X54656190Y-107957142D01*
X54656190Y-108338095D01*
X54465714Y-106909523D02*
X55132380Y-106909523D01*
X54084761Y-107147619D02*
X54799047Y-107385714D01*
X54799047Y-106766666D01*
X84333333Y-104752380D02*
X84000000Y-104276190D01*
X83761904Y-104752380D02*
X83761904Y-103752380D01*
X84142857Y-103752380D01*
X84238095Y-103800000D01*
X84285714Y-103847619D01*
X84333333Y-103942857D01*
X84333333Y-104085714D01*
X84285714Y-104180952D01*
X84238095Y-104228571D01*
X84142857Y-104276190D01*
X83761904Y-104276190D01*
X85238095Y-103752380D02*
X84761904Y-103752380D01*
X84714285Y-104228571D01*
X84761904Y-104180952D01*
X84857142Y-104133333D01*
X85095238Y-104133333D01*
X85190476Y-104180952D01*
X85238095Y-104228571D01*
X85285714Y-104323809D01*
X85285714Y-104561904D01*
X85238095Y-104657142D01*
X85190476Y-104704761D01*
X85095238Y-104752380D01*
X84857142Y-104752380D01*
X84761904Y-104704761D01*
X84714285Y-104657142D01*
X120632380Y-97166666D02*
X120156190Y-97500000D01*
X120632380Y-97738095D02*
X119632380Y-97738095D01*
X119632380Y-97357142D01*
X119680000Y-97261904D01*
X119727619Y-97214285D01*
X119822857Y-97166666D01*
X119965714Y-97166666D01*
X120060952Y-97214285D01*
X120108571Y-97261904D01*
X120156190Y-97357142D01*
X120156190Y-97738095D01*
X119632380Y-96309523D02*
X119632380Y-96500000D01*
X119680000Y-96595238D01*
X119727619Y-96642857D01*
X119870476Y-96738095D01*
X120060952Y-96785714D01*
X120441904Y-96785714D01*
X120537142Y-96738095D01*
X120584761Y-96690476D01*
X120632380Y-96595238D01*
X120632380Y-96404761D01*
X120584761Y-96309523D01*
X120537142Y-96261904D01*
X120441904Y-96214285D01*
X120203809Y-96214285D01*
X120108571Y-96261904D01*
X120060952Y-96309523D01*
X120013333Y-96404761D01*
X120013333Y-96595238D01*
X120060952Y-96690476D01*
X120108571Y-96738095D01*
X120203809Y-96785714D01*
X73633333Y-90552380D02*
X73300000Y-90076190D01*
X73061904Y-90552380D02*
X73061904Y-89552380D01*
X73442857Y-89552380D01*
X73538095Y-89600000D01*
X73585714Y-89647619D01*
X73633333Y-89742857D01*
X73633333Y-89885714D01*
X73585714Y-89980952D01*
X73538095Y-90028571D01*
X73442857Y-90076190D01*
X73061904Y-90076190D01*
X73966666Y-89552380D02*
X74633333Y-89552380D01*
X74204761Y-90552380D01*
X98052380Y-127242857D02*
X97576190Y-127576190D01*
X98052380Y-127814285D02*
X97052380Y-127814285D01*
X97052380Y-127433333D01*
X97100000Y-127338095D01*
X97147619Y-127290476D01*
X97242857Y-127242857D01*
X97385714Y-127242857D01*
X97480952Y-127290476D01*
X97528571Y-127338095D01*
X97576190Y-127433333D01*
X97576190Y-127814285D01*
X98052380Y-126290476D02*
X98052380Y-126861904D01*
X98052380Y-126576190D02*
X97052380Y-126576190D01*
X97195238Y-126671428D01*
X97290476Y-126766666D01*
X97338095Y-126861904D01*
X98052380Y-125338095D02*
X98052380Y-125909523D01*
X98052380Y-125623809D02*
X97052380Y-125623809D01*
X97195238Y-125719047D01*
X97290476Y-125814285D01*
X97338095Y-125909523D01*
X105872380Y-123042857D02*
X105396190Y-123376190D01*
X105872380Y-123614285D02*
X104872380Y-123614285D01*
X104872380Y-123233333D01*
X104920000Y-123138095D01*
X104967619Y-123090476D01*
X105062857Y-123042857D01*
X105205714Y-123042857D01*
X105300952Y-123090476D01*
X105348571Y-123138095D01*
X105396190Y-123233333D01*
X105396190Y-123614285D01*
X105872380Y-122090476D02*
X105872380Y-122661904D01*
X105872380Y-122376190D02*
X104872380Y-122376190D01*
X105015238Y-122471428D01*
X105110476Y-122566666D01*
X105158095Y-122661904D01*
X104967619Y-121709523D02*
X104920000Y-121661904D01*
X104872380Y-121566666D01*
X104872380Y-121328571D01*
X104920000Y-121233333D01*
X104967619Y-121185714D01*
X105062857Y-121138095D01*
X105158095Y-121138095D01*
X105300952Y-121185714D01*
X105872380Y-121757142D01*
X105872380Y-121138095D01*
X98966666Y-95804761D02*
X99109523Y-95852380D01*
X99347619Y-95852380D01*
X99442857Y-95804761D01*
X99490476Y-95757142D01*
X99538095Y-95661904D01*
X99538095Y-95566666D01*
X99490476Y-95471428D01*
X99442857Y-95423809D01*
X99347619Y-95376190D01*
X99157142Y-95328571D01*
X99061904Y-95280952D01*
X99014285Y-95233333D01*
X98966666Y-95138095D01*
X98966666Y-95042857D01*
X99014285Y-94947619D01*
X99061904Y-94900000D01*
X99157142Y-94852380D01*
X99395238Y-94852380D01*
X99538095Y-94900000D01*
X99871428Y-94852380D02*
X100109523Y-95852380D01*
X100300000Y-95138095D01*
X100490476Y-95852380D01*
X100728571Y-94852380D01*
X101633333Y-95852380D02*
X101061904Y-95852380D01*
X101347619Y-95852380D02*
X101347619Y-94852380D01*
X101252380Y-94995238D01*
X101157142Y-95090476D01*
X101061904Y-95138095D01*
X60114761Y-126733333D02*
X60162380Y-126590476D01*
X60162380Y-126352380D01*
X60114761Y-126257142D01*
X60067142Y-126209523D01*
X59971904Y-126161904D01*
X59876666Y-126161904D01*
X59781428Y-126209523D01*
X59733809Y-126257142D01*
X59686190Y-126352380D01*
X59638571Y-126542857D01*
X59590952Y-126638095D01*
X59543333Y-126685714D01*
X59448095Y-126733333D01*
X59352857Y-126733333D01*
X59257619Y-126685714D01*
X59210000Y-126638095D01*
X59162380Y-126542857D01*
X59162380Y-126304761D01*
X59210000Y-126161904D01*
X59162380Y-125828571D02*
X60162380Y-125590476D01*
X59448095Y-125400000D01*
X60162380Y-125209523D01*
X59162380Y-124971428D01*
X59257619Y-124638095D02*
X59210000Y-124590476D01*
X59162380Y-124495238D01*
X59162380Y-124257142D01*
X59210000Y-124161904D01*
X59257619Y-124114285D01*
X59352857Y-124066666D01*
X59448095Y-124066666D01*
X59590952Y-124114285D01*
X60162380Y-124685714D01*
X60162380Y-124066666D01*
X61114761Y-91733333D02*
X61162380Y-91590476D01*
X61162380Y-91352380D01*
X61114761Y-91257142D01*
X61067142Y-91209523D01*
X60971904Y-91161904D01*
X60876666Y-91161904D01*
X60781428Y-91209523D01*
X60733809Y-91257142D01*
X60686190Y-91352380D01*
X60638571Y-91542857D01*
X60590952Y-91638095D01*
X60543333Y-91685714D01*
X60448095Y-91733333D01*
X60352857Y-91733333D01*
X60257619Y-91685714D01*
X60210000Y-91638095D01*
X60162380Y-91542857D01*
X60162380Y-91304761D01*
X60210000Y-91161904D01*
X60162380Y-90828571D02*
X61162380Y-90590476D01*
X60448095Y-90400000D01*
X61162380Y-90209523D01*
X60162380Y-89971428D01*
X60162380Y-89685714D02*
X60162380Y-89066666D01*
X60543333Y-89400000D01*
X60543333Y-89257142D01*
X60590952Y-89161904D01*
X60638571Y-89114285D01*
X60733809Y-89066666D01*
X60971904Y-89066666D01*
X61067142Y-89114285D01*
X61114761Y-89161904D01*
X61162380Y-89257142D01*
X61162380Y-89542857D01*
X61114761Y-89638095D01*
X61067142Y-89685714D01*
X53638095Y-67392380D02*
X54209523Y-67392380D01*
X53923809Y-68392380D02*
X53923809Y-67392380D01*
X54542857Y-68392380D02*
X54542857Y-67392380D01*
X54923809Y-67392380D01*
X55019047Y-67440000D01*
X55066666Y-67487619D01*
X55114285Y-67582857D01*
X55114285Y-67725714D01*
X55066666Y-67820952D01*
X55019047Y-67868571D01*
X54923809Y-67916190D01*
X54542857Y-67916190D01*
X56066666Y-68392380D02*
X55495238Y-68392380D01*
X55780952Y-68392380D02*
X55780952Y-67392380D01*
X55685714Y-67535238D01*
X55590476Y-67630476D01*
X55495238Y-67678095D01*
X145338095Y-67292380D02*
X145909523Y-67292380D01*
X145623809Y-68292380D02*
X145623809Y-67292380D01*
X146242857Y-68292380D02*
X146242857Y-67292380D01*
X146623809Y-67292380D01*
X146719047Y-67340000D01*
X146766666Y-67387619D01*
X146814285Y-67482857D01*
X146814285Y-67625714D01*
X146766666Y-67720952D01*
X146719047Y-67768571D01*
X146623809Y-67816190D01*
X146242857Y-67816190D01*
X147195238Y-67387619D02*
X147242857Y-67340000D01*
X147338095Y-67292380D01*
X147576190Y-67292380D01*
X147671428Y-67340000D01*
X147719047Y-67387619D01*
X147766666Y-67482857D01*
X147766666Y-67578095D01*
X147719047Y-67720952D01*
X147147619Y-68292380D01*
X147766666Y-68292380D01*
X96338095Y-130192380D02*
X96909523Y-130192380D01*
X96623809Y-131192380D02*
X96623809Y-130192380D01*
X97242857Y-131192380D02*
X97242857Y-130192380D01*
X97623809Y-130192380D01*
X97719047Y-130240000D01*
X97766666Y-130287619D01*
X97814285Y-130382857D01*
X97814285Y-130525714D01*
X97766666Y-130620952D01*
X97719047Y-130668571D01*
X97623809Y-130716190D01*
X97242857Y-130716190D01*
X98147619Y-130192380D02*
X98766666Y-130192380D01*
X98433333Y-130573333D01*
X98576190Y-130573333D01*
X98671428Y-130620952D01*
X98719047Y-130668571D01*
X98766666Y-130763809D01*
X98766666Y-131001904D01*
X98719047Y-131097142D01*
X98671428Y-131144761D01*
X98576190Y-131192380D01*
X98290476Y-131192380D01*
X98195238Y-131144761D01*
X98147619Y-131097142D01*
X113238095Y-92952380D02*
X113238095Y-93761904D01*
X113285714Y-93857142D01*
X113333333Y-93904761D01*
X113428571Y-93952380D01*
X113619047Y-93952380D01*
X113714285Y-93904761D01*
X113761904Y-93857142D01*
X113809523Y-93761904D01*
X113809523Y-92952380D01*
X114809523Y-93952380D02*
X114238095Y-93952380D01*
X114523809Y-93952380D02*
X114523809Y-92952380D01*
X114428571Y-93095238D01*
X114333333Y-93190476D01*
X114238095Y-93238095D01*
X96438095Y-118877380D02*
X96438095Y-119686904D01*
X96485714Y-119782142D01*
X96533333Y-119829761D01*
X96628571Y-119877380D01*
X96819047Y-119877380D01*
X96914285Y-119829761D01*
X96961904Y-119782142D01*
X97009523Y-119686904D01*
X97009523Y-118877380D01*
X97914285Y-119210714D02*
X97914285Y-119877380D01*
X97676190Y-118829761D02*
X97438095Y-119544047D01*
X98057142Y-119544047D01*
X68366666Y-89382380D02*
X68366666Y-90096666D01*
X68319047Y-90239523D01*
X68223809Y-90334761D01*
X68080952Y-90382380D01*
X67985714Y-90382380D01*
X69271428Y-89382380D02*
X69080952Y-89382380D01*
X68985714Y-89430000D01*
X68938095Y-89477619D01*
X68842857Y-89620476D01*
X68795238Y-89810952D01*
X68795238Y-90191904D01*
X68842857Y-90287142D01*
X68890476Y-90334761D01*
X68985714Y-90382380D01*
X69176190Y-90382380D01*
X69271428Y-90334761D01*
X69319047Y-90287142D01*
X69366666Y-90191904D01*
X69366666Y-89953809D01*
X69319047Y-89858571D01*
X69271428Y-89810952D01*
X69176190Y-89763333D01*
X68985714Y-89763333D01*
X68890476Y-89810952D01*
X68842857Y-89858571D01*
X68795238Y-89953809D01*
X112538095Y-118392380D02*
X113109523Y-118392380D01*
X112823809Y-119392380D02*
X112823809Y-118392380D01*
X113442857Y-119392380D02*
X113442857Y-118392380D01*
X113823809Y-118392380D01*
X113919047Y-118440000D01*
X113966666Y-118487619D01*
X114014285Y-118582857D01*
X114014285Y-118725714D01*
X113966666Y-118820952D01*
X113919047Y-118868571D01*
X113823809Y-118916190D01*
X113442857Y-118916190D01*
X114871428Y-118725714D02*
X114871428Y-119392380D01*
X114633333Y-118344761D02*
X114395238Y-119059047D01*
X115014285Y-119059047D01*
X65278095Y-121462380D02*
X65278095Y-122271904D01*
X65325714Y-122367142D01*
X65373333Y-122414761D01*
X65468571Y-122462380D01*
X65659047Y-122462380D01*
X65754285Y-122414761D01*
X65801904Y-122367142D01*
X65849523Y-122271904D01*
X65849523Y-121462380D01*
X66230476Y-121462380D02*
X66849523Y-121462380D01*
X66516190Y-121843333D01*
X66659047Y-121843333D01*
X66754285Y-121890952D01*
X66801904Y-121938571D01*
X66849523Y-122033809D01*
X66849523Y-122271904D01*
X66801904Y-122367142D01*
X66754285Y-122414761D01*
X66659047Y-122462380D01*
X66373333Y-122462380D01*
X66278095Y-122414761D01*
X66230476Y-122367142D01*
M02*
