M48
; DRILL file {KiCad (5.1.0)-1} date 6/24/2019 5:02:54 PM
; FORMAT={-:-/ absolute / inch / decimal}
; #@! TF.CreationDate,2019-06-24T17:02:54-03:00
; #@! TF.GenerationSoftware,Kicad,Pcbnew,(5.1.0)-1
; #@! TF.FileFunction,Plated,1,2,PTH
FMAT,2
INCH
T1C0.0157
T2C0.0315
T3C0.0394
%
G90
G05
T1
X2.2677Y-3.7795
X2.2953Y-4.2913
X2.3071Y-5.4488
X2.3917Y-4.8602
X2.5728Y-4.0886
X2.7866Y-3.8496
X3.0472Y-4.4646
X3.1437Y-4.1161
X3.1772Y-3.8386
X3.1913Y-4.211
X3.6988Y-5.0787
X3.8484Y-5.0957
X4.252Y-4.189
X4.4952Y-3.6623
X4.5447Y-3.8439
X4.6533Y-3.8939
X4.9291Y-3.8976
T2
X2.9764Y-4.4646
X3.7465Y-3.8717
X3.7465Y-3.9504
X3.7465Y-4.0291
X3.7465Y-4.1079
X3.7465Y-4.1866
X3.7465Y-4.2654
X2.1614Y-2.7559
X4.8035Y-3.9677
X5.7717Y-2.752
X2.2283Y-5.4488
X5.2193Y-3.5744
X3.6063Y-5.3909
X4.4705Y-4.9685
X4.0453Y-4.4567
X3.0157Y-4.5827
X3.0157Y-5.3701
X3.0157Y-5.4488
X4.0453Y-5.272
X5.828Y-3.9693
X5.0937Y-3.5756
X2.189Y-4.4646
T3
X2.7047Y-3.6496
X2.7047Y-3.7496
X2.7047Y-3.8496
X3.3047Y-3.6496
X3.3047Y-3.7496
X3.3047Y-3.8496
T0
M30
