G04 #@! TF.GenerationSoftware,KiCad,Pcbnew,(5.1.0)-1*
G04 #@! TF.CreationDate,2019-07-01T21:30:59-03:00*
G04 #@! TF.ProjectId,Main,4d61696e-2e6b-4696-9361-645f70636258,1.0*
G04 #@! TF.SameCoordinates,Original*
G04 #@! TF.FileFunction,Copper,L2,Bot*
G04 #@! TF.FilePolarity,Positive*
%FSLAX46Y46*%
G04 Gerber Fmt 4.6, Leading zero omitted, Abs format (unit mm)*
G04 Created by KiCad (PCBNEW (5.1.0)-1) date 2019-07-01 21:30:59*
%MOMM*%
%LPD*%
G04 APERTURE LIST*
%ADD10R,1.700000X1.700000*%
%ADD11O,1.700000X1.700000*%
%ADD12R,1.350000X1.350000*%
%ADD13O,1.350000X1.350000*%
%ADD14C,0.800000*%
%ADD15C,0.250000*%
%ADD16C,0.254000*%
G04 APERTURE END LIST*
D10*
X56960000Y-52110000D03*
D11*
X56960000Y-54650000D03*
X56960000Y-57190000D03*
D12*
X28620000Y-72810000D03*
X48620000Y-72810000D03*
X49620000Y-75810000D03*
X49620000Y-95810000D03*
D13*
X49620000Y-97810000D03*
D12*
X29620000Y-97810000D03*
X27920000Y-29410000D03*
X119620000Y-29310000D03*
X64620000Y-96340000D03*
D11*
X41720000Y-57190000D03*
X41720000Y-54650000D03*
D10*
X41720000Y-52110000D03*
D12*
X86570000Y-85610000D03*
X68180000Y-57750000D03*
D13*
X68180000Y-59750000D03*
X68180000Y-61750000D03*
X68180000Y-63750000D03*
X68180000Y-65750000D03*
X68180000Y-67750000D03*
D12*
X75770000Y-72610000D03*
X75770000Y-93320000D03*
X119989600Y-60198000D03*
X95030000Y-60190000D03*
X102400000Y-50230000D03*
X105590000Y-50200000D03*
D14*
X30620000Y-55410000D03*
X38370000Y-63260000D03*
X87196999Y-52433001D03*
X31620000Y-97810000D03*
X33770000Y-82860000D03*
X81020000Y-65810000D03*
X31320000Y-68410000D03*
X88455000Y-57045000D03*
X91215000Y-58315000D03*
X98220000Y-58410000D03*
X50420000Y-72810000D03*
X66970000Y-88410000D03*
X53720000Y-56910000D03*
X54080000Y-66370000D03*
X52870000Y-63960000D03*
X43800000Y-57190000D03*
X70770000Y-88840000D03*
D15*
X91310000Y-58410000D02*
X91215000Y-58315000D01*
X98220000Y-58410000D02*
X91310000Y-58410000D01*
X50420000Y-72810000D02*
X56820000Y-72810000D01*
X56820000Y-78260000D02*
X66970000Y-88410000D01*
X56820000Y-72810000D02*
X56820000Y-78260000D01*
X54119999Y-57309999D02*
X53720000Y-56910000D01*
X54479999Y-57669999D02*
X54119999Y-57309999D01*
X54479999Y-65970001D02*
X54479999Y-57669999D01*
X54080000Y-66370000D02*
X54479999Y-65970001D01*
X68060000Y-65750000D02*
X68180000Y-65750000D01*
X56960000Y-54650000D02*
X68060000Y-65750000D01*
X46100000Y-57190000D02*
X52870000Y-63960000D01*
X43800000Y-57190000D02*
X46100000Y-57190000D01*
X67505001Y-59075001D02*
X68180000Y-59750000D01*
X61904999Y-53474999D02*
X67505001Y-59075001D01*
X42895001Y-53474999D02*
X61904999Y-53474999D01*
X41720000Y-54650000D02*
X42895001Y-53474999D01*
X67255000Y-57750000D02*
X68180000Y-57750000D01*
X60439999Y-50934999D02*
X67255000Y-57750000D01*
X43995001Y-50934999D02*
X60439999Y-50934999D01*
X42820000Y-52110000D02*
X43995001Y-50934999D01*
X41720000Y-52110000D02*
X42820000Y-52110000D01*
X67520000Y-67750000D02*
X68180000Y-67750000D01*
X56960000Y-57190000D02*
X67520000Y-67750000D01*
X75770000Y-83840000D02*
X75770000Y-72610000D01*
X70770000Y-88840000D02*
X75770000Y-83840000D01*
X105590000Y-51125000D02*
X105590000Y-50200000D01*
X105590000Y-52113002D02*
X105590000Y-51125000D01*
X97513002Y-60190000D02*
X105590000Y-52113002D01*
X95030000Y-60190000D02*
X97513002Y-60190000D01*
D16*
G36*
X122220001Y-100990000D02*
G01*
X24480000Y-100990000D01*
X24480000Y-97135000D01*
X28306928Y-97135000D01*
X28310000Y-97524250D01*
X28468748Y-97682998D01*
X28310000Y-97682998D01*
X28310000Y-97937002D01*
X28468748Y-97937002D01*
X28310000Y-98095750D01*
X28306928Y-98485000D01*
X28319188Y-98609482D01*
X28355498Y-98729180D01*
X28414463Y-98839494D01*
X28493815Y-98936185D01*
X28590506Y-99015537D01*
X28700820Y-99074502D01*
X28820518Y-99110812D01*
X28945000Y-99123072D01*
X29334250Y-99120000D01*
X29493000Y-98961250D01*
X29493000Y-97937000D01*
X29473000Y-97937000D01*
X29473000Y-97683000D01*
X29493000Y-97683000D01*
X29493000Y-96658750D01*
X29747000Y-96658750D01*
X29747000Y-97683000D01*
X29767000Y-97683000D01*
X29767000Y-97937000D01*
X29747000Y-97937000D01*
X29747000Y-98961250D01*
X29905750Y-99120000D01*
X30295000Y-99123072D01*
X30419482Y-99110812D01*
X30539180Y-99074502D01*
X30649494Y-99015537D01*
X30746185Y-98936185D01*
X30825537Y-98839494D01*
X30884502Y-98729180D01*
X30920812Y-98609482D01*
X30933072Y-98485000D01*
X30930000Y-98095750D01*
X30771252Y-97937002D01*
X30930000Y-97937002D01*
X30930000Y-97810000D01*
X48303662Y-97810000D01*
X48328955Y-98066805D01*
X48403862Y-98313741D01*
X48525505Y-98541318D01*
X48689208Y-98740792D01*
X48888682Y-98904495D01*
X49116259Y-99026138D01*
X49363195Y-99101045D01*
X49555649Y-99120000D01*
X49684351Y-99120000D01*
X49876805Y-99101045D01*
X50123741Y-99026138D01*
X50351318Y-98904495D01*
X50550792Y-98740792D01*
X50714495Y-98541318D01*
X50836138Y-98313741D01*
X50911045Y-98066805D01*
X50936338Y-97810000D01*
X50911045Y-97553195D01*
X50836138Y-97306259D01*
X50714495Y-97078682D01*
X50662233Y-97015000D01*
X63306928Y-97015000D01*
X63319188Y-97139482D01*
X63355498Y-97259180D01*
X63414463Y-97369494D01*
X63493815Y-97466185D01*
X63590506Y-97545537D01*
X63700820Y-97604502D01*
X63820518Y-97640812D01*
X63945000Y-97653072D01*
X64334250Y-97650000D01*
X64493000Y-97491250D01*
X64493000Y-96467000D01*
X64747000Y-96467000D01*
X64747000Y-97491250D01*
X64905750Y-97650000D01*
X65295000Y-97653072D01*
X65419482Y-97640812D01*
X65539180Y-97604502D01*
X65649494Y-97545537D01*
X65746185Y-97466185D01*
X65825537Y-97369494D01*
X65884502Y-97259180D01*
X65920812Y-97139482D01*
X65933072Y-97015000D01*
X65930000Y-96625750D01*
X65771250Y-96467000D01*
X64747000Y-96467000D01*
X64493000Y-96467000D01*
X63468750Y-96467000D01*
X63310000Y-96625750D01*
X63306928Y-97015000D01*
X50662233Y-97015000D01*
X50657369Y-97009074D01*
X50746185Y-96936185D01*
X50825537Y-96839494D01*
X50884502Y-96729180D01*
X50920812Y-96609482D01*
X50933072Y-96485000D01*
X50933072Y-95665000D01*
X63306928Y-95665000D01*
X63310000Y-96054250D01*
X63468750Y-96213000D01*
X64493000Y-96213000D01*
X64493000Y-95188750D01*
X64747000Y-95188750D01*
X64747000Y-96213000D01*
X65771250Y-96213000D01*
X65930000Y-96054250D01*
X65933072Y-95665000D01*
X65920812Y-95540518D01*
X65884502Y-95420820D01*
X65825537Y-95310506D01*
X65746185Y-95213815D01*
X65649494Y-95134463D01*
X65539180Y-95075498D01*
X65419482Y-95039188D01*
X65295000Y-95026928D01*
X64905750Y-95030000D01*
X64747000Y-95188750D01*
X64493000Y-95188750D01*
X64334250Y-95030000D01*
X63945000Y-95026928D01*
X63820518Y-95039188D01*
X63700820Y-95075498D01*
X63590506Y-95134463D01*
X63493815Y-95213815D01*
X63414463Y-95310506D01*
X63355498Y-95420820D01*
X63319188Y-95540518D01*
X63306928Y-95665000D01*
X50933072Y-95665000D01*
X50933072Y-95135000D01*
X50920812Y-95010518D01*
X50884502Y-94890820D01*
X50825537Y-94780506D01*
X50746185Y-94683815D01*
X50649494Y-94604463D01*
X50539180Y-94545498D01*
X50419482Y-94509188D01*
X50295000Y-94496928D01*
X48945000Y-94496928D01*
X48820518Y-94509188D01*
X48700820Y-94545498D01*
X48590506Y-94604463D01*
X48493815Y-94683815D01*
X48414463Y-94780506D01*
X48355498Y-94890820D01*
X48319188Y-95010518D01*
X48306928Y-95135000D01*
X48306928Y-96485000D01*
X48319188Y-96609482D01*
X48355498Y-96729180D01*
X48414463Y-96839494D01*
X48493815Y-96936185D01*
X48582631Y-97009074D01*
X48525505Y-97078682D01*
X48403862Y-97306259D01*
X48328955Y-97553195D01*
X48303662Y-97810000D01*
X30930000Y-97810000D01*
X30930000Y-97682998D01*
X30771252Y-97682998D01*
X30930000Y-97524250D01*
X30933072Y-97135000D01*
X30920812Y-97010518D01*
X30884502Y-96890820D01*
X30825537Y-96780506D01*
X30746185Y-96683815D01*
X30649494Y-96604463D01*
X30539180Y-96545498D01*
X30419482Y-96509188D01*
X30295000Y-96496928D01*
X29905750Y-96500000D01*
X29747000Y-96658750D01*
X29493000Y-96658750D01*
X29334250Y-96500000D01*
X28945000Y-96496928D01*
X28820518Y-96509188D01*
X28700820Y-96545498D01*
X28590506Y-96604463D01*
X28493815Y-96683815D01*
X28414463Y-96780506D01*
X28355498Y-96890820D01*
X28319188Y-97010518D01*
X28306928Y-97135000D01*
X24480000Y-97135000D01*
X24480000Y-93995000D01*
X74456928Y-93995000D01*
X74469188Y-94119482D01*
X74505498Y-94239180D01*
X74564463Y-94349494D01*
X74643815Y-94446185D01*
X74740506Y-94525537D01*
X74850820Y-94584502D01*
X74970518Y-94620812D01*
X75095000Y-94633072D01*
X75484250Y-94630000D01*
X75643000Y-94471250D01*
X75643000Y-93447000D01*
X75897000Y-93447000D01*
X75897000Y-94471250D01*
X76055750Y-94630000D01*
X76445000Y-94633072D01*
X76569482Y-94620812D01*
X76689180Y-94584502D01*
X76799494Y-94525537D01*
X76896185Y-94446185D01*
X76975537Y-94349494D01*
X77034502Y-94239180D01*
X77070812Y-94119482D01*
X77083072Y-93995000D01*
X77080000Y-93605750D01*
X76921250Y-93447000D01*
X75897000Y-93447000D01*
X75643000Y-93447000D01*
X74618750Y-93447000D01*
X74460000Y-93605750D01*
X74456928Y-93995000D01*
X24480000Y-93995000D01*
X24480000Y-92645000D01*
X74456928Y-92645000D01*
X74460000Y-93034250D01*
X74618750Y-93193000D01*
X75643000Y-93193000D01*
X75643000Y-92168750D01*
X75897000Y-92168750D01*
X75897000Y-93193000D01*
X76921250Y-93193000D01*
X77080000Y-93034250D01*
X77083072Y-92645000D01*
X77070812Y-92520518D01*
X77034502Y-92400820D01*
X76975537Y-92290506D01*
X76896185Y-92193815D01*
X76799494Y-92114463D01*
X76689180Y-92055498D01*
X76569482Y-92019188D01*
X76445000Y-92006928D01*
X76055750Y-92010000D01*
X75897000Y-92168750D01*
X75643000Y-92168750D01*
X75484250Y-92010000D01*
X75095000Y-92006928D01*
X74970518Y-92019188D01*
X74850820Y-92055498D01*
X74740506Y-92114463D01*
X74643815Y-92193815D01*
X74564463Y-92290506D01*
X74505498Y-92400820D01*
X74469188Y-92520518D01*
X74456928Y-92645000D01*
X24480000Y-92645000D01*
X24480000Y-75135000D01*
X48306928Y-75135000D01*
X48306928Y-76485000D01*
X48319188Y-76609482D01*
X48355498Y-76729180D01*
X48414463Y-76839494D01*
X48493815Y-76936185D01*
X48590506Y-77015537D01*
X48700820Y-77074502D01*
X48820518Y-77110812D01*
X48945000Y-77123072D01*
X50295000Y-77123072D01*
X50419482Y-77110812D01*
X50539180Y-77074502D01*
X50649494Y-77015537D01*
X50746185Y-76936185D01*
X50825537Y-76839494D01*
X50884502Y-76729180D01*
X50920812Y-76609482D01*
X50933072Y-76485000D01*
X50933072Y-75135000D01*
X50920812Y-75010518D01*
X50884502Y-74890820D01*
X50825537Y-74780506D01*
X50746185Y-74683815D01*
X50649494Y-74604463D01*
X50539180Y-74545498D01*
X50419482Y-74509188D01*
X50295000Y-74496928D01*
X48945000Y-74496928D01*
X48820518Y-74509188D01*
X48700820Y-74545498D01*
X48590506Y-74604463D01*
X48493815Y-74683815D01*
X48414463Y-74780506D01*
X48355498Y-74890820D01*
X48319188Y-75010518D01*
X48306928Y-75135000D01*
X24480000Y-75135000D01*
X24480000Y-72135000D01*
X27306928Y-72135000D01*
X27306928Y-73485000D01*
X27319188Y-73609482D01*
X27355498Y-73729180D01*
X27414463Y-73839494D01*
X27493815Y-73936185D01*
X27590506Y-74015537D01*
X27700820Y-74074502D01*
X27820518Y-74110812D01*
X27945000Y-74123072D01*
X29295000Y-74123072D01*
X29419482Y-74110812D01*
X29539180Y-74074502D01*
X29649494Y-74015537D01*
X29746185Y-73936185D01*
X29825537Y-73839494D01*
X29884502Y-73729180D01*
X29920812Y-73609482D01*
X29933072Y-73485000D01*
X29933072Y-72135000D01*
X47306928Y-72135000D01*
X47306928Y-73485000D01*
X47319188Y-73609482D01*
X47355498Y-73729180D01*
X47414463Y-73839494D01*
X47493815Y-73936185D01*
X47590506Y-74015537D01*
X47700820Y-74074502D01*
X47820518Y-74110812D01*
X47945000Y-74123072D01*
X49295000Y-74123072D01*
X49419482Y-74110812D01*
X49539180Y-74074502D01*
X49649494Y-74015537D01*
X49746185Y-73936185D01*
X49825537Y-73839494D01*
X49884502Y-73729180D01*
X49892625Y-73702403D01*
X49929744Y-73727205D01*
X50118102Y-73805226D01*
X50318061Y-73845000D01*
X50521939Y-73845000D01*
X50721898Y-73805226D01*
X50910256Y-73727205D01*
X51079774Y-73613937D01*
X51123711Y-73570000D01*
X56060000Y-73570000D01*
X56060001Y-78222668D01*
X56056324Y-78260000D01*
X56070998Y-78408985D01*
X56114454Y-78552246D01*
X56185026Y-78684276D01*
X56256201Y-78771002D01*
X56280000Y-78800001D01*
X56308998Y-78823799D01*
X65935000Y-88449802D01*
X65935000Y-88511939D01*
X65974774Y-88711898D01*
X66052795Y-88900256D01*
X66166063Y-89069774D01*
X66310226Y-89213937D01*
X66479744Y-89327205D01*
X66668102Y-89405226D01*
X66868061Y-89445000D01*
X67071939Y-89445000D01*
X67271898Y-89405226D01*
X67460256Y-89327205D01*
X67629774Y-89213937D01*
X67773937Y-89069774D01*
X67887205Y-88900256D01*
X67954388Y-88738061D01*
X69735000Y-88738061D01*
X69735000Y-88941939D01*
X69774774Y-89141898D01*
X69852795Y-89330256D01*
X69966063Y-89499774D01*
X70110226Y-89643937D01*
X70279744Y-89757205D01*
X70468102Y-89835226D01*
X70668061Y-89875000D01*
X70871939Y-89875000D01*
X71071898Y-89835226D01*
X71260256Y-89757205D01*
X71429774Y-89643937D01*
X71573937Y-89499774D01*
X71687205Y-89330256D01*
X71765226Y-89141898D01*
X71805000Y-88941939D01*
X71805000Y-88879801D01*
X75749801Y-84935000D01*
X85256928Y-84935000D01*
X85256928Y-86285000D01*
X85269188Y-86409482D01*
X85305498Y-86529180D01*
X85364463Y-86639494D01*
X85443815Y-86736185D01*
X85540506Y-86815537D01*
X85650820Y-86874502D01*
X85770518Y-86910812D01*
X85895000Y-86923072D01*
X87245000Y-86923072D01*
X87369482Y-86910812D01*
X87489180Y-86874502D01*
X87599494Y-86815537D01*
X87696185Y-86736185D01*
X87775537Y-86639494D01*
X87834502Y-86529180D01*
X87870812Y-86409482D01*
X87883072Y-86285000D01*
X87883072Y-84935000D01*
X87870812Y-84810518D01*
X87834502Y-84690820D01*
X87775537Y-84580506D01*
X87696185Y-84483815D01*
X87599494Y-84404463D01*
X87489180Y-84345498D01*
X87369482Y-84309188D01*
X87245000Y-84296928D01*
X85895000Y-84296928D01*
X85770518Y-84309188D01*
X85650820Y-84345498D01*
X85540506Y-84404463D01*
X85443815Y-84483815D01*
X85364463Y-84580506D01*
X85305498Y-84690820D01*
X85269188Y-84810518D01*
X85256928Y-84935000D01*
X75749801Y-84935000D01*
X76281004Y-84403798D01*
X76310001Y-84380001D01*
X76404974Y-84264276D01*
X76475546Y-84132247D01*
X76519003Y-83988986D01*
X76530000Y-83877333D01*
X76530000Y-83877323D01*
X76533676Y-83840000D01*
X76530000Y-83802677D01*
X76530000Y-73914701D01*
X76569482Y-73910812D01*
X76689180Y-73874502D01*
X76799494Y-73815537D01*
X76896185Y-73736185D01*
X76975537Y-73639494D01*
X77034502Y-73529180D01*
X77070812Y-73409482D01*
X77083072Y-73285000D01*
X77083072Y-71935000D01*
X77070812Y-71810518D01*
X77034502Y-71690820D01*
X76975537Y-71580506D01*
X76896185Y-71483815D01*
X76799494Y-71404463D01*
X76689180Y-71345498D01*
X76569482Y-71309188D01*
X76445000Y-71296928D01*
X75095000Y-71296928D01*
X74970518Y-71309188D01*
X74850820Y-71345498D01*
X74740506Y-71404463D01*
X74643815Y-71483815D01*
X74564463Y-71580506D01*
X74505498Y-71690820D01*
X74469188Y-71810518D01*
X74456928Y-71935000D01*
X74456928Y-73285000D01*
X74469188Y-73409482D01*
X74505498Y-73529180D01*
X74564463Y-73639494D01*
X74643815Y-73736185D01*
X74740506Y-73815537D01*
X74850820Y-73874502D01*
X74970518Y-73910812D01*
X75010001Y-73914701D01*
X75010000Y-83525198D01*
X70730199Y-87805000D01*
X70668061Y-87805000D01*
X70468102Y-87844774D01*
X70279744Y-87922795D01*
X70110226Y-88036063D01*
X69966063Y-88180226D01*
X69852795Y-88349744D01*
X69774774Y-88538102D01*
X69735000Y-88738061D01*
X67954388Y-88738061D01*
X67965226Y-88711898D01*
X68005000Y-88511939D01*
X68005000Y-88308061D01*
X67965226Y-88108102D01*
X67887205Y-87919744D01*
X67773937Y-87750226D01*
X67629774Y-87606063D01*
X67460256Y-87492795D01*
X67271898Y-87414774D01*
X67071939Y-87375000D01*
X67009802Y-87375000D01*
X57580000Y-77945199D01*
X57580000Y-72847333D01*
X57583677Y-72810000D01*
X57569003Y-72661014D01*
X57525546Y-72517753D01*
X57454974Y-72385724D01*
X57360001Y-72269999D01*
X57244276Y-72175026D01*
X57112247Y-72104454D01*
X56968986Y-72060997D01*
X56857333Y-72050000D01*
X56820000Y-72046323D01*
X56782667Y-72050000D01*
X51123711Y-72050000D01*
X51079774Y-72006063D01*
X50910256Y-71892795D01*
X50721898Y-71814774D01*
X50521939Y-71775000D01*
X50318061Y-71775000D01*
X50118102Y-71814774D01*
X49929744Y-71892795D01*
X49892625Y-71917597D01*
X49884502Y-71890820D01*
X49825537Y-71780506D01*
X49746185Y-71683815D01*
X49649494Y-71604463D01*
X49539180Y-71545498D01*
X49419482Y-71509188D01*
X49295000Y-71496928D01*
X47945000Y-71496928D01*
X47820518Y-71509188D01*
X47700820Y-71545498D01*
X47590506Y-71604463D01*
X47493815Y-71683815D01*
X47414463Y-71780506D01*
X47355498Y-71890820D01*
X47319188Y-72010518D01*
X47306928Y-72135000D01*
X29933072Y-72135000D01*
X29920812Y-72010518D01*
X29884502Y-71890820D01*
X29825537Y-71780506D01*
X29746185Y-71683815D01*
X29649494Y-71604463D01*
X29539180Y-71545498D01*
X29419482Y-71509188D01*
X29295000Y-71496928D01*
X27945000Y-71496928D01*
X27820518Y-71509188D01*
X27700820Y-71545498D01*
X27590506Y-71604463D01*
X27493815Y-71683815D01*
X27414463Y-71780506D01*
X27355498Y-71890820D01*
X27319188Y-72010518D01*
X27306928Y-72135000D01*
X24480000Y-72135000D01*
X24480000Y-54650000D01*
X40227815Y-54650000D01*
X40256487Y-54941111D01*
X40341401Y-55221034D01*
X40479294Y-55479014D01*
X40664866Y-55705134D01*
X40890986Y-55890706D01*
X40945791Y-55920000D01*
X40890986Y-55949294D01*
X40664866Y-56134866D01*
X40479294Y-56360986D01*
X40341401Y-56618966D01*
X40256487Y-56898889D01*
X40227815Y-57190000D01*
X40256487Y-57481111D01*
X40341401Y-57761034D01*
X40479294Y-58019014D01*
X40664866Y-58245134D01*
X40890986Y-58430706D01*
X41148966Y-58568599D01*
X41428889Y-58653513D01*
X41647050Y-58675000D01*
X41792950Y-58675000D01*
X42011111Y-58653513D01*
X42291034Y-58568599D01*
X42549014Y-58430706D01*
X42775134Y-58245134D01*
X42960706Y-58019014D01*
X43031973Y-57885684D01*
X43140226Y-57993937D01*
X43309744Y-58107205D01*
X43498102Y-58185226D01*
X43698061Y-58225000D01*
X43901939Y-58225000D01*
X44101898Y-58185226D01*
X44290256Y-58107205D01*
X44459774Y-57993937D01*
X44503711Y-57950000D01*
X45785199Y-57950000D01*
X51835000Y-63999802D01*
X51835000Y-64061939D01*
X51874774Y-64261898D01*
X51952795Y-64450256D01*
X52066063Y-64619774D01*
X52210226Y-64763937D01*
X52379744Y-64877205D01*
X52568102Y-64955226D01*
X52768061Y-64995000D01*
X52971939Y-64995000D01*
X53171898Y-64955226D01*
X53360256Y-64877205D01*
X53529774Y-64763937D01*
X53673937Y-64619774D01*
X53719999Y-64550837D01*
X53719999Y-65398841D01*
X53589744Y-65452795D01*
X53420226Y-65566063D01*
X53276063Y-65710226D01*
X53162795Y-65879744D01*
X53084774Y-66068102D01*
X53045000Y-66268061D01*
X53045000Y-66471939D01*
X53084774Y-66671898D01*
X53162795Y-66860256D01*
X53276063Y-67029774D01*
X53420226Y-67173937D01*
X53589744Y-67287205D01*
X53778102Y-67365226D01*
X53978061Y-67405000D01*
X54181939Y-67405000D01*
X54381898Y-67365226D01*
X54570256Y-67287205D01*
X54739774Y-67173937D01*
X54883937Y-67029774D01*
X54997205Y-66860256D01*
X55075226Y-66671898D01*
X55115000Y-66471939D01*
X55115000Y-66394226D01*
X55185545Y-66262248D01*
X55229002Y-66118987D01*
X55239999Y-66007334D01*
X55239999Y-66007324D01*
X55243675Y-65970002D01*
X55239999Y-65932679D01*
X55239999Y-57707322D01*
X55243675Y-57669999D01*
X55239999Y-57632676D01*
X55239999Y-57632666D01*
X55229002Y-57521013D01*
X55185545Y-57377752D01*
X55114973Y-57245723D01*
X55020000Y-57129998D01*
X54990996Y-57106195D01*
X54755000Y-56870199D01*
X54755000Y-56808061D01*
X54715226Y-56608102D01*
X54637205Y-56419744D01*
X54523937Y-56250226D01*
X54379774Y-56106063D01*
X54210256Y-55992795D01*
X54021898Y-55914774D01*
X53821939Y-55875000D01*
X53618061Y-55875000D01*
X53418102Y-55914774D01*
X53229744Y-55992795D01*
X53060226Y-56106063D01*
X52916063Y-56250226D01*
X52802795Y-56419744D01*
X52724774Y-56608102D01*
X52685000Y-56808061D01*
X52685000Y-57011939D01*
X52724774Y-57211898D01*
X52802795Y-57400256D01*
X52916063Y-57569774D01*
X53060226Y-57713937D01*
X53229744Y-57827205D01*
X53418102Y-57905226D01*
X53618061Y-57945000D01*
X53680199Y-57945000D01*
X53720000Y-57984801D01*
X53719999Y-63369163D01*
X53673937Y-63300226D01*
X53529774Y-63156063D01*
X53360256Y-63042795D01*
X53171898Y-62964774D01*
X52971939Y-62925000D01*
X52909802Y-62925000D01*
X46663804Y-56679003D01*
X46640001Y-56649999D01*
X46524276Y-56555026D01*
X46392247Y-56484454D01*
X46248986Y-56440997D01*
X46137333Y-56430000D01*
X46137322Y-56430000D01*
X46100000Y-56426324D01*
X46062678Y-56430000D01*
X44503711Y-56430000D01*
X44459774Y-56386063D01*
X44290256Y-56272795D01*
X44101898Y-56194774D01*
X43901939Y-56155000D01*
X43698061Y-56155000D01*
X43498102Y-56194774D01*
X43309744Y-56272795D01*
X43140226Y-56386063D01*
X43031973Y-56494316D01*
X42960706Y-56360986D01*
X42775134Y-56134866D01*
X42549014Y-55949294D01*
X42494209Y-55920000D01*
X42549014Y-55890706D01*
X42775134Y-55705134D01*
X42960706Y-55479014D01*
X43098599Y-55221034D01*
X43183513Y-54941111D01*
X43212185Y-54650000D01*
X43183513Y-54358889D01*
X43160797Y-54284005D01*
X43209803Y-54234999D01*
X55534069Y-54234999D01*
X55496487Y-54358889D01*
X55467815Y-54650000D01*
X55496487Y-54941111D01*
X55581401Y-55221034D01*
X55719294Y-55479014D01*
X55904866Y-55705134D01*
X56130986Y-55890706D01*
X56185791Y-55920000D01*
X56130986Y-55949294D01*
X55904866Y-56134866D01*
X55719294Y-56360986D01*
X55581401Y-56618966D01*
X55496487Y-56898889D01*
X55467815Y-57190000D01*
X55496487Y-57481111D01*
X55581401Y-57761034D01*
X55719294Y-58019014D01*
X55904866Y-58245134D01*
X56130986Y-58430706D01*
X56388966Y-58568599D01*
X56668889Y-58653513D01*
X56887050Y-58675000D01*
X57032950Y-58675000D01*
X57251111Y-58653513D01*
X57325996Y-58630797D01*
X66956201Y-68261003D01*
X66979999Y-68290001D01*
X66985779Y-68294744D01*
X67085505Y-68481318D01*
X67249208Y-68680792D01*
X67448682Y-68844495D01*
X67676259Y-68966138D01*
X67923195Y-69041045D01*
X68115649Y-69060000D01*
X68244351Y-69060000D01*
X68436805Y-69041045D01*
X68683741Y-68966138D01*
X68911318Y-68844495D01*
X69110792Y-68680792D01*
X69274495Y-68481318D01*
X69396138Y-68253741D01*
X69471045Y-68006805D01*
X69496338Y-67750000D01*
X69471045Y-67493195D01*
X69396138Y-67246259D01*
X69274495Y-67018682D01*
X69110792Y-66819208D01*
X69026461Y-66750000D01*
X69110792Y-66680792D01*
X69274495Y-66481318D01*
X69396138Y-66253741D01*
X69471045Y-66006805D01*
X69496338Y-65750000D01*
X69471045Y-65493195D01*
X69396138Y-65246259D01*
X69274495Y-65018682D01*
X69110792Y-64819208D01*
X69026461Y-64750000D01*
X69110792Y-64680792D01*
X69274495Y-64481318D01*
X69396138Y-64253741D01*
X69471045Y-64006805D01*
X69496338Y-63750000D01*
X69471045Y-63493195D01*
X69396138Y-63246259D01*
X69274495Y-63018682D01*
X69110792Y-62819208D01*
X69026461Y-62750000D01*
X69110792Y-62680792D01*
X69274495Y-62481318D01*
X69396138Y-62253741D01*
X69471045Y-62006805D01*
X69496338Y-61750000D01*
X69471045Y-61493195D01*
X69396138Y-61246259D01*
X69274495Y-61018682D01*
X69110792Y-60819208D01*
X69026461Y-60750000D01*
X69110792Y-60680792D01*
X69274495Y-60481318D01*
X69396138Y-60253741D01*
X69471045Y-60006805D01*
X69496338Y-59750000D01*
X69471045Y-59493195D01*
X69396138Y-59246259D01*
X69274495Y-59018682D01*
X69217369Y-58949074D01*
X69306185Y-58876185D01*
X69385537Y-58779494D01*
X69444502Y-58669180D01*
X69480812Y-58549482D01*
X69493072Y-58425000D01*
X69493072Y-58213061D01*
X90180000Y-58213061D01*
X90180000Y-58416939D01*
X90219774Y-58616898D01*
X90297795Y-58805256D01*
X90411063Y-58974774D01*
X90555226Y-59118937D01*
X90724744Y-59232205D01*
X90913102Y-59310226D01*
X91113061Y-59350000D01*
X91316939Y-59350000D01*
X91516898Y-59310226D01*
X91705256Y-59232205D01*
X91798353Y-59170000D01*
X93819388Y-59170000D01*
X93765498Y-59270820D01*
X93729188Y-59390518D01*
X93716928Y-59515000D01*
X93716928Y-60865000D01*
X93729188Y-60989482D01*
X93765498Y-61109180D01*
X93824463Y-61219494D01*
X93903815Y-61316185D01*
X94000506Y-61395537D01*
X94110820Y-61454502D01*
X94230518Y-61490812D01*
X94355000Y-61503072D01*
X95705000Y-61503072D01*
X95829482Y-61490812D01*
X95949180Y-61454502D01*
X96059494Y-61395537D01*
X96156185Y-61316185D01*
X96235537Y-61219494D01*
X96294502Y-61109180D01*
X96330812Y-60989482D01*
X96334701Y-60950000D01*
X97475680Y-60950000D01*
X97513002Y-60953676D01*
X97550324Y-60950000D01*
X97550335Y-60950000D01*
X97661988Y-60939003D01*
X97805249Y-60895546D01*
X97937278Y-60824974D01*
X98053003Y-60730001D01*
X98076806Y-60700997D01*
X99254803Y-59523000D01*
X118676528Y-59523000D01*
X118676528Y-60873000D01*
X118688788Y-60997482D01*
X118725098Y-61117180D01*
X118784063Y-61227494D01*
X118863415Y-61324185D01*
X118960106Y-61403537D01*
X119070420Y-61462502D01*
X119190118Y-61498812D01*
X119314600Y-61511072D01*
X120664600Y-61511072D01*
X120789082Y-61498812D01*
X120908780Y-61462502D01*
X121019094Y-61403537D01*
X121115785Y-61324185D01*
X121195137Y-61227494D01*
X121254102Y-61117180D01*
X121290412Y-60997482D01*
X121302672Y-60873000D01*
X121302672Y-59523000D01*
X121290412Y-59398518D01*
X121254102Y-59278820D01*
X121195137Y-59168506D01*
X121115785Y-59071815D01*
X121019094Y-58992463D01*
X120908780Y-58933498D01*
X120789082Y-58897188D01*
X120664600Y-58884928D01*
X119314600Y-58884928D01*
X119190118Y-58897188D01*
X119070420Y-58933498D01*
X118960106Y-58992463D01*
X118863415Y-59071815D01*
X118784063Y-59168506D01*
X118725098Y-59278820D01*
X118688788Y-59398518D01*
X118676528Y-59523000D01*
X99254803Y-59523000D01*
X106101004Y-52676800D01*
X106130001Y-52653003D01*
X106156332Y-52620919D01*
X106224974Y-52537279D01*
X106295546Y-52405249D01*
X106296457Y-52402246D01*
X106339003Y-52261988D01*
X106350000Y-52150335D01*
X106350000Y-52150326D01*
X106353676Y-52113003D01*
X106350000Y-52075680D01*
X106350000Y-51504701D01*
X106389482Y-51500812D01*
X106509180Y-51464502D01*
X106619494Y-51405537D01*
X106716185Y-51326185D01*
X106795537Y-51229494D01*
X106854502Y-51119180D01*
X106890812Y-50999482D01*
X106903072Y-50875000D01*
X106903072Y-49525000D01*
X106890812Y-49400518D01*
X106854502Y-49280820D01*
X106795537Y-49170506D01*
X106716185Y-49073815D01*
X106619494Y-48994463D01*
X106509180Y-48935498D01*
X106389482Y-48899188D01*
X106265000Y-48886928D01*
X104915000Y-48886928D01*
X104790518Y-48899188D01*
X104670820Y-48935498D01*
X104560506Y-48994463D01*
X104463815Y-49073815D01*
X104384463Y-49170506D01*
X104325498Y-49280820D01*
X104289188Y-49400518D01*
X104276928Y-49525000D01*
X104276928Y-50875000D01*
X104289188Y-50999482D01*
X104325498Y-51119180D01*
X104384463Y-51229494D01*
X104463815Y-51326185D01*
X104560506Y-51405537D01*
X104670820Y-51464502D01*
X104790518Y-51500812D01*
X104830001Y-51504701D01*
X104830000Y-51798200D01*
X98950956Y-57677245D01*
X98879774Y-57606063D01*
X98710256Y-57492795D01*
X98521898Y-57414774D01*
X98321939Y-57375000D01*
X98118061Y-57375000D01*
X97918102Y-57414774D01*
X97729744Y-57492795D01*
X97560226Y-57606063D01*
X97516289Y-57650000D01*
X92013711Y-57650000D01*
X91874774Y-57511063D01*
X91705256Y-57397795D01*
X91516898Y-57319774D01*
X91316939Y-57280000D01*
X91113061Y-57280000D01*
X90913102Y-57319774D01*
X90724744Y-57397795D01*
X90555226Y-57511063D01*
X90411063Y-57655226D01*
X90297795Y-57824744D01*
X90219774Y-58013102D01*
X90180000Y-58213061D01*
X69493072Y-58213061D01*
X69493072Y-57075000D01*
X69480812Y-56950518D01*
X69478550Y-56943061D01*
X87420000Y-56943061D01*
X87420000Y-57146939D01*
X87459774Y-57346898D01*
X87537795Y-57535256D01*
X87651063Y-57704774D01*
X87795226Y-57848937D01*
X87964744Y-57962205D01*
X88153102Y-58040226D01*
X88353061Y-58080000D01*
X88556939Y-58080000D01*
X88756898Y-58040226D01*
X88945256Y-57962205D01*
X89114774Y-57848937D01*
X89258937Y-57704774D01*
X89372205Y-57535256D01*
X89450226Y-57346898D01*
X89490000Y-57146939D01*
X89490000Y-56943061D01*
X89450226Y-56743102D01*
X89372205Y-56554744D01*
X89258937Y-56385226D01*
X89114774Y-56241063D01*
X88945256Y-56127795D01*
X88756898Y-56049774D01*
X88556939Y-56010000D01*
X88353061Y-56010000D01*
X88153102Y-56049774D01*
X87964744Y-56127795D01*
X87795226Y-56241063D01*
X87651063Y-56385226D01*
X87537795Y-56554744D01*
X87459774Y-56743102D01*
X87420000Y-56943061D01*
X69478550Y-56943061D01*
X69444502Y-56830820D01*
X69385537Y-56720506D01*
X69306185Y-56623815D01*
X69209494Y-56544463D01*
X69099180Y-56485498D01*
X68979482Y-56449188D01*
X68855000Y-56436928D01*
X67505000Y-56436928D01*
X67380518Y-56449188D01*
X67260820Y-56485498D01*
X67150506Y-56544463D01*
X67136093Y-56556291D01*
X61003803Y-50424002D01*
X60980000Y-50394998D01*
X60864275Y-50300025D01*
X60732246Y-50229453D01*
X60588985Y-50185996D01*
X60477332Y-50174999D01*
X60477321Y-50174999D01*
X60439999Y-50171323D01*
X60402677Y-50174999D01*
X44032323Y-50174999D01*
X43995000Y-50171323D01*
X43957677Y-50174999D01*
X43957668Y-50174999D01*
X43846015Y-50185996D01*
X43702754Y-50229453D01*
X43570725Y-50300025D01*
X43455000Y-50394998D01*
X43431202Y-50423996D01*
X43032543Y-50822655D01*
X43021185Y-50808815D01*
X42924494Y-50729463D01*
X42814180Y-50670498D01*
X42694482Y-50634188D01*
X42570000Y-50621928D01*
X40870000Y-50621928D01*
X40745518Y-50634188D01*
X40625820Y-50670498D01*
X40515506Y-50729463D01*
X40418815Y-50808815D01*
X40339463Y-50905506D01*
X40280498Y-51015820D01*
X40244188Y-51135518D01*
X40231928Y-51260000D01*
X40231928Y-52960000D01*
X40244188Y-53084482D01*
X40280498Y-53204180D01*
X40339463Y-53314494D01*
X40418815Y-53411185D01*
X40515506Y-53490537D01*
X40625820Y-53549502D01*
X40694687Y-53570393D01*
X40664866Y-53594866D01*
X40479294Y-53820986D01*
X40341401Y-54078966D01*
X40256487Y-54358889D01*
X40227815Y-54650000D01*
X24480000Y-54650000D01*
X24480000Y-49555000D01*
X101086928Y-49555000D01*
X101086928Y-50905000D01*
X101099188Y-51029482D01*
X101135498Y-51149180D01*
X101194463Y-51259494D01*
X101273815Y-51356185D01*
X101370506Y-51435537D01*
X101480820Y-51494502D01*
X101600518Y-51530812D01*
X101725000Y-51543072D01*
X103075000Y-51543072D01*
X103199482Y-51530812D01*
X103319180Y-51494502D01*
X103429494Y-51435537D01*
X103526185Y-51356185D01*
X103605537Y-51259494D01*
X103664502Y-51149180D01*
X103700812Y-51029482D01*
X103713072Y-50905000D01*
X103713072Y-49555000D01*
X103700812Y-49430518D01*
X103664502Y-49310820D01*
X103605537Y-49200506D01*
X103526185Y-49103815D01*
X103429494Y-49024463D01*
X103319180Y-48965498D01*
X103199482Y-48929188D01*
X103075000Y-48916928D01*
X101725000Y-48916928D01*
X101600518Y-48929188D01*
X101480820Y-48965498D01*
X101370506Y-49024463D01*
X101273815Y-49103815D01*
X101194463Y-49200506D01*
X101135498Y-49310820D01*
X101099188Y-49430518D01*
X101086928Y-49555000D01*
X24480000Y-49555000D01*
X24480000Y-44077560D01*
X43360000Y-44077560D01*
X43360000Y-44542440D01*
X43450694Y-44998387D01*
X43628595Y-45427879D01*
X43886868Y-45814412D01*
X44215588Y-46143132D01*
X44602121Y-46401405D01*
X45031613Y-46579306D01*
X45487560Y-46670000D01*
X45952440Y-46670000D01*
X46408387Y-46579306D01*
X46837879Y-46401405D01*
X47224412Y-46143132D01*
X47553132Y-45814412D01*
X47811405Y-45427879D01*
X47989306Y-44998387D01*
X48080000Y-44542440D01*
X48080000Y-44077560D01*
X47989306Y-43621613D01*
X47811405Y-43192121D01*
X47553132Y-42805588D01*
X47224412Y-42476868D01*
X46837879Y-42218595D01*
X46408387Y-42040694D01*
X45952440Y-41950000D01*
X45487560Y-41950000D01*
X45031613Y-42040694D01*
X44602121Y-42218595D01*
X44215588Y-42476868D01*
X43886868Y-42805588D01*
X43628595Y-43192121D01*
X43450694Y-43621613D01*
X43360000Y-44077560D01*
X24480000Y-44077560D01*
X24480000Y-28735000D01*
X26606928Y-28735000D01*
X26606928Y-30085000D01*
X26619188Y-30209482D01*
X26655498Y-30329180D01*
X26714463Y-30439494D01*
X26793815Y-30536185D01*
X26890506Y-30615537D01*
X27000820Y-30674502D01*
X27120518Y-30710812D01*
X27245000Y-30723072D01*
X28595000Y-30723072D01*
X28719482Y-30710812D01*
X28839180Y-30674502D01*
X28949494Y-30615537D01*
X29046185Y-30536185D01*
X29125537Y-30439494D01*
X29184502Y-30329180D01*
X29220812Y-30209482D01*
X29233072Y-30085000D01*
X29233072Y-28735000D01*
X29220812Y-28610518D01*
X29184502Y-28490820D01*
X29125537Y-28380506D01*
X29046185Y-28283815D01*
X28949494Y-28204463D01*
X28839180Y-28145498D01*
X28787303Y-28129761D01*
X35560000Y-28129761D01*
X35560000Y-28490239D01*
X35630325Y-28843791D01*
X35768275Y-29176830D01*
X35968546Y-29476557D01*
X36223443Y-29731454D01*
X36523170Y-29931725D01*
X36856209Y-30069675D01*
X37209761Y-30140000D01*
X37570239Y-30140000D01*
X37923791Y-30069675D01*
X38256830Y-29931725D01*
X38556557Y-29731454D01*
X38811454Y-29476557D01*
X39011725Y-29176830D01*
X39149675Y-28843791D01*
X39220000Y-28490239D01*
X39220000Y-28129761D01*
X39209617Y-28077560D01*
X98560000Y-28077560D01*
X98560000Y-28542440D01*
X98650694Y-28998387D01*
X98828595Y-29427879D01*
X99086868Y-29814412D01*
X99415588Y-30143132D01*
X99802121Y-30401405D01*
X100231613Y-30579306D01*
X100687560Y-30670000D01*
X101152440Y-30670000D01*
X101608387Y-30579306D01*
X102037879Y-30401405D01*
X102424412Y-30143132D01*
X102753132Y-29814412D01*
X103011405Y-29427879D01*
X103189306Y-28998387D01*
X103261588Y-28635000D01*
X118306928Y-28635000D01*
X118306928Y-29985000D01*
X118319188Y-30109482D01*
X118355498Y-30229180D01*
X118414463Y-30339494D01*
X118493815Y-30436185D01*
X118590506Y-30515537D01*
X118700820Y-30574502D01*
X118820518Y-30610812D01*
X118945000Y-30623072D01*
X120295000Y-30623072D01*
X120419482Y-30610812D01*
X120539180Y-30574502D01*
X120649494Y-30515537D01*
X120746185Y-30436185D01*
X120825537Y-30339494D01*
X120884502Y-30229180D01*
X120920812Y-30109482D01*
X120933072Y-29985000D01*
X120933072Y-28635000D01*
X120920812Y-28510518D01*
X120884502Y-28390820D01*
X120825537Y-28280506D01*
X120746185Y-28183815D01*
X120649494Y-28104463D01*
X120539180Y-28045498D01*
X120419482Y-28009188D01*
X120295000Y-27996928D01*
X118945000Y-27996928D01*
X118820518Y-28009188D01*
X118700820Y-28045498D01*
X118590506Y-28104463D01*
X118493815Y-28183815D01*
X118414463Y-28280506D01*
X118355498Y-28390820D01*
X118319188Y-28510518D01*
X118306928Y-28635000D01*
X103261588Y-28635000D01*
X103280000Y-28542440D01*
X103280000Y-28077560D01*
X103189306Y-27621613D01*
X103011405Y-27192121D01*
X102753132Y-26805588D01*
X102424412Y-26476868D01*
X102037879Y-26218595D01*
X101608387Y-26040694D01*
X101152440Y-25950000D01*
X100687560Y-25950000D01*
X100231613Y-26040694D01*
X99802121Y-26218595D01*
X99415588Y-26476868D01*
X99086868Y-26805588D01*
X98828595Y-27192121D01*
X98650694Y-27621613D01*
X98560000Y-28077560D01*
X39209617Y-28077560D01*
X39149675Y-27776209D01*
X39011725Y-27443170D01*
X38811454Y-27143443D01*
X38556557Y-26888546D01*
X38256830Y-26688275D01*
X37923791Y-26550325D01*
X37570239Y-26480000D01*
X37209761Y-26480000D01*
X36856209Y-26550325D01*
X36523170Y-26688275D01*
X36223443Y-26888546D01*
X35968546Y-27143443D01*
X35768275Y-27443170D01*
X35630325Y-27776209D01*
X35560000Y-28129761D01*
X28787303Y-28129761D01*
X28719482Y-28109188D01*
X28595000Y-28096928D01*
X27245000Y-28096928D01*
X27120518Y-28109188D01*
X27000820Y-28145498D01*
X26890506Y-28204463D01*
X26793815Y-28283815D01*
X26714463Y-28380506D01*
X26655498Y-28490820D01*
X26619188Y-28610518D01*
X26606928Y-28735000D01*
X24480000Y-28735000D01*
X24480000Y-23570000D01*
X122220000Y-23570000D01*
X122220001Y-100990000D01*
X122220001Y-100990000D01*
G37*
X122220001Y-100990000D02*
X24480000Y-100990000D01*
X24480000Y-97135000D01*
X28306928Y-97135000D01*
X28310000Y-97524250D01*
X28468748Y-97682998D01*
X28310000Y-97682998D01*
X28310000Y-97937002D01*
X28468748Y-97937002D01*
X28310000Y-98095750D01*
X28306928Y-98485000D01*
X28319188Y-98609482D01*
X28355498Y-98729180D01*
X28414463Y-98839494D01*
X28493815Y-98936185D01*
X28590506Y-99015537D01*
X28700820Y-99074502D01*
X28820518Y-99110812D01*
X28945000Y-99123072D01*
X29334250Y-99120000D01*
X29493000Y-98961250D01*
X29493000Y-97937000D01*
X29473000Y-97937000D01*
X29473000Y-97683000D01*
X29493000Y-97683000D01*
X29493000Y-96658750D01*
X29747000Y-96658750D01*
X29747000Y-97683000D01*
X29767000Y-97683000D01*
X29767000Y-97937000D01*
X29747000Y-97937000D01*
X29747000Y-98961250D01*
X29905750Y-99120000D01*
X30295000Y-99123072D01*
X30419482Y-99110812D01*
X30539180Y-99074502D01*
X30649494Y-99015537D01*
X30746185Y-98936185D01*
X30825537Y-98839494D01*
X30884502Y-98729180D01*
X30920812Y-98609482D01*
X30933072Y-98485000D01*
X30930000Y-98095750D01*
X30771252Y-97937002D01*
X30930000Y-97937002D01*
X30930000Y-97810000D01*
X48303662Y-97810000D01*
X48328955Y-98066805D01*
X48403862Y-98313741D01*
X48525505Y-98541318D01*
X48689208Y-98740792D01*
X48888682Y-98904495D01*
X49116259Y-99026138D01*
X49363195Y-99101045D01*
X49555649Y-99120000D01*
X49684351Y-99120000D01*
X49876805Y-99101045D01*
X50123741Y-99026138D01*
X50351318Y-98904495D01*
X50550792Y-98740792D01*
X50714495Y-98541318D01*
X50836138Y-98313741D01*
X50911045Y-98066805D01*
X50936338Y-97810000D01*
X50911045Y-97553195D01*
X50836138Y-97306259D01*
X50714495Y-97078682D01*
X50662233Y-97015000D01*
X63306928Y-97015000D01*
X63319188Y-97139482D01*
X63355498Y-97259180D01*
X63414463Y-97369494D01*
X63493815Y-97466185D01*
X63590506Y-97545537D01*
X63700820Y-97604502D01*
X63820518Y-97640812D01*
X63945000Y-97653072D01*
X64334250Y-97650000D01*
X64493000Y-97491250D01*
X64493000Y-96467000D01*
X64747000Y-96467000D01*
X64747000Y-97491250D01*
X64905750Y-97650000D01*
X65295000Y-97653072D01*
X65419482Y-97640812D01*
X65539180Y-97604502D01*
X65649494Y-97545537D01*
X65746185Y-97466185D01*
X65825537Y-97369494D01*
X65884502Y-97259180D01*
X65920812Y-97139482D01*
X65933072Y-97015000D01*
X65930000Y-96625750D01*
X65771250Y-96467000D01*
X64747000Y-96467000D01*
X64493000Y-96467000D01*
X63468750Y-96467000D01*
X63310000Y-96625750D01*
X63306928Y-97015000D01*
X50662233Y-97015000D01*
X50657369Y-97009074D01*
X50746185Y-96936185D01*
X50825537Y-96839494D01*
X50884502Y-96729180D01*
X50920812Y-96609482D01*
X50933072Y-96485000D01*
X50933072Y-95665000D01*
X63306928Y-95665000D01*
X63310000Y-96054250D01*
X63468750Y-96213000D01*
X64493000Y-96213000D01*
X64493000Y-95188750D01*
X64747000Y-95188750D01*
X64747000Y-96213000D01*
X65771250Y-96213000D01*
X65930000Y-96054250D01*
X65933072Y-95665000D01*
X65920812Y-95540518D01*
X65884502Y-95420820D01*
X65825537Y-95310506D01*
X65746185Y-95213815D01*
X65649494Y-95134463D01*
X65539180Y-95075498D01*
X65419482Y-95039188D01*
X65295000Y-95026928D01*
X64905750Y-95030000D01*
X64747000Y-95188750D01*
X64493000Y-95188750D01*
X64334250Y-95030000D01*
X63945000Y-95026928D01*
X63820518Y-95039188D01*
X63700820Y-95075498D01*
X63590506Y-95134463D01*
X63493815Y-95213815D01*
X63414463Y-95310506D01*
X63355498Y-95420820D01*
X63319188Y-95540518D01*
X63306928Y-95665000D01*
X50933072Y-95665000D01*
X50933072Y-95135000D01*
X50920812Y-95010518D01*
X50884502Y-94890820D01*
X50825537Y-94780506D01*
X50746185Y-94683815D01*
X50649494Y-94604463D01*
X50539180Y-94545498D01*
X50419482Y-94509188D01*
X50295000Y-94496928D01*
X48945000Y-94496928D01*
X48820518Y-94509188D01*
X48700820Y-94545498D01*
X48590506Y-94604463D01*
X48493815Y-94683815D01*
X48414463Y-94780506D01*
X48355498Y-94890820D01*
X48319188Y-95010518D01*
X48306928Y-95135000D01*
X48306928Y-96485000D01*
X48319188Y-96609482D01*
X48355498Y-96729180D01*
X48414463Y-96839494D01*
X48493815Y-96936185D01*
X48582631Y-97009074D01*
X48525505Y-97078682D01*
X48403862Y-97306259D01*
X48328955Y-97553195D01*
X48303662Y-97810000D01*
X30930000Y-97810000D01*
X30930000Y-97682998D01*
X30771252Y-97682998D01*
X30930000Y-97524250D01*
X30933072Y-97135000D01*
X30920812Y-97010518D01*
X30884502Y-96890820D01*
X30825537Y-96780506D01*
X30746185Y-96683815D01*
X30649494Y-96604463D01*
X30539180Y-96545498D01*
X30419482Y-96509188D01*
X30295000Y-96496928D01*
X29905750Y-96500000D01*
X29747000Y-96658750D01*
X29493000Y-96658750D01*
X29334250Y-96500000D01*
X28945000Y-96496928D01*
X28820518Y-96509188D01*
X28700820Y-96545498D01*
X28590506Y-96604463D01*
X28493815Y-96683815D01*
X28414463Y-96780506D01*
X28355498Y-96890820D01*
X28319188Y-97010518D01*
X28306928Y-97135000D01*
X24480000Y-97135000D01*
X24480000Y-93995000D01*
X74456928Y-93995000D01*
X74469188Y-94119482D01*
X74505498Y-94239180D01*
X74564463Y-94349494D01*
X74643815Y-94446185D01*
X74740506Y-94525537D01*
X74850820Y-94584502D01*
X74970518Y-94620812D01*
X75095000Y-94633072D01*
X75484250Y-94630000D01*
X75643000Y-94471250D01*
X75643000Y-93447000D01*
X75897000Y-93447000D01*
X75897000Y-94471250D01*
X76055750Y-94630000D01*
X76445000Y-94633072D01*
X76569482Y-94620812D01*
X76689180Y-94584502D01*
X76799494Y-94525537D01*
X76896185Y-94446185D01*
X76975537Y-94349494D01*
X77034502Y-94239180D01*
X77070812Y-94119482D01*
X77083072Y-93995000D01*
X77080000Y-93605750D01*
X76921250Y-93447000D01*
X75897000Y-93447000D01*
X75643000Y-93447000D01*
X74618750Y-93447000D01*
X74460000Y-93605750D01*
X74456928Y-93995000D01*
X24480000Y-93995000D01*
X24480000Y-92645000D01*
X74456928Y-92645000D01*
X74460000Y-93034250D01*
X74618750Y-93193000D01*
X75643000Y-93193000D01*
X75643000Y-92168750D01*
X75897000Y-92168750D01*
X75897000Y-93193000D01*
X76921250Y-93193000D01*
X77080000Y-93034250D01*
X77083072Y-92645000D01*
X77070812Y-92520518D01*
X77034502Y-92400820D01*
X76975537Y-92290506D01*
X76896185Y-92193815D01*
X76799494Y-92114463D01*
X76689180Y-92055498D01*
X76569482Y-92019188D01*
X76445000Y-92006928D01*
X76055750Y-92010000D01*
X75897000Y-92168750D01*
X75643000Y-92168750D01*
X75484250Y-92010000D01*
X75095000Y-92006928D01*
X74970518Y-92019188D01*
X74850820Y-92055498D01*
X74740506Y-92114463D01*
X74643815Y-92193815D01*
X74564463Y-92290506D01*
X74505498Y-92400820D01*
X74469188Y-92520518D01*
X74456928Y-92645000D01*
X24480000Y-92645000D01*
X24480000Y-75135000D01*
X48306928Y-75135000D01*
X48306928Y-76485000D01*
X48319188Y-76609482D01*
X48355498Y-76729180D01*
X48414463Y-76839494D01*
X48493815Y-76936185D01*
X48590506Y-77015537D01*
X48700820Y-77074502D01*
X48820518Y-77110812D01*
X48945000Y-77123072D01*
X50295000Y-77123072D01*
X50419482Y-77110812D01*
X50539180Y-77074502D01*
X50649494Y-77015537D01*
X50746185Y-76936185D01*
X50825537Y-76839494D01*
X50884502Y-76729180D01*
X50920812Y-76609482D01*
X50933072Y-76485000D01*
X50933072Y-75135000D01*
X50920812Y-75010518D01*
X50884502Y-74890820D01*
X50825537Y-74780506D01*
X50746185Y-74683815D01*
X50649494Y-74604463D01*
X50539180Y-74545498D01*
X50419482Y-74509188D01*
X50295000Y-74496928D01*
X48945000Y-74496928D01*
X48820518Y-74509188D01*
X48700820Y-74545498D01*
X48590506Y-74604463D01*
X48493815Y-74683815D01*
X48414463Y-74780506D01*
X48355498Y-74890820D01*
X48319188Y-75010518D01*
X48306928Y-75135000D01*
X24480000Y-75135000D01*
X24480000Y-72135000D01*
X27306928Y-72135000D01*
X27306928Y-73485000D01*
X27319188Y-73609482D01*
X27355498Y-73729180D01*
X27414463Y-73839494D01*
X27493815Y-73936185D01*
X27590506Y-74015537D01*
X27700820Y-74074502D01*
X27820518Y-74110812D01*
X27945000Y-74123072D01*
X29295000Y-74123072D01*
X29419482Y-74110812D01*
X29539180Y-74074502D01*
X29649494Y-74015537D01*
X29746185Y-73936185D01*
X29825537Y-73839494D01*
X29884502Y-73729180D01*
X29920812Y-73609482D01*
X29933072Y-73485000D01*
X29933072Y-72135000D01*
X47306928Y-72135000D01*
X47306928Y-73485000D01*
X47319188Y-73609482D01*
X47355498Y-73729180D01*
X47414463Y-73839494D01*
X47493815Y-73936185D01*
X47590506Y-74015537D01*
X47700820Y-74074502D01*
X47820518Y-74110812D01*
X47945000Y-74123072D01*
X49295000Y-74123072D01*
X49419482Y-74110812D01*
X49539180Y-74074502D01*
X49649494Y-74015537D01*
X49746185Y-73936185D01*
X49825537Y-73839494D01*
X49884502Y-73729180D01*
X49892625Y-73702403D01*
X49929744Y-73727205D01*
X50118102Y-73805226D01*
X50318061Y-73845000D01*
X50521939Y-73845000D01*
X50721898Y-73805226D01*
X50910256Y-73727205D01*
X51079774Y-73613937D01*
X51123711Y-73570000D01*
X56060000Y-73570000D01*
X56060001Y-78222668D01*
X56056324Y-78260000D01*
X56070998Y-78408985D01*
X56114454Y-78552246D01*
X56185026Y-78684276D01*
X56256201Y-78771002D01*
X56280000Y-78800001D01*
X56308998Y-78823799D01*
X65935000Y-88449802D01*
X65935000Y-88511939D01*
X65974774Y-88711898D01*
X66052795Y-88900256D01*
X66166063Y-89069774D01*
X66310226Y-89213937D01*
X66479744Y-89327205D01*
X66668102Y-89405226D01*
X66868061Y-89445000D01*
X67071939Y-89445000D01*
X67271898Y-89405226D01*
X67460256Y-89327205D01*
X67629774Y-89213937D01*
X67773937Y-89069774D01*
X67887205Y-88900256D01*
X67954388Y-88738061D01*
X69735000Y-88738061D01*
X69735000Y-88941939D01*
X69774774Y-89141898D01*
X69852795Y-89330256D01*
X69966063Y-89499774D01*
X70110226Y-89643937D01*
X70279744Y-89757205D01*
X70468102Y-89835226D01*
X70668061Y-89875000D01*
X70871939Y-89875000D01*
X71071898Y-89835226D01*
X71260256Y-89757205D01*
X71429774Y-89643937D01*
X71573937Y-89499774D01*
X71687205Y-89330256D01*
X71765226Y-89141898D01*
X71805000Y-88941939D01*
X71805000Y-88879801D01*
X75749801Y-84935000D01*
X85256928Y-84935000D01*
X85256928Y-86285000D01*
X85269188Y-86409482D01*
X85305498Y-86529180D01*
X85364463Y-86639494D01*
X85443815Y-86736185D01*
X85540506Y-86815537D01*
X85650820Y-86874502D01*
X85770518Y-86910812D01*
X85895000Y-86923072D01*
X87245000Y-86923072D01*
X87369482Y-86910812D01*
X87489180Y-86874502D01*
X87599494Y-86815537D01*
X87696185Y-86736185D01*
X87775537Y-86639494D01*
X87834502Y-86529180D01*
X87870812Y-86409482D01*
X87883072Y-86285000D01*
X87883072Y-84935000D01*
X87870812Y-84810518D01*
X87834502Y-84690820D01*
X87775537Y-84580506D01*
X87696185Y-84483815D01*
X87599494Y-84404463D01*
X87489180Y-84345498D01*
X87369482Y-84309188D01*
X87245000Y-84296928D01*
X85895000Y-84296928D01*
X85770518Y-84309188D01*
X85650820Y-84345498D01*
X85540506Y-84404463D01*
X85443815Y-84483815D01*
X85364463Y-84580506D01*
X85305498Y-84690820D01*
X85269188Y-84810518D01*
X85256928Y-84935000D01*
X75749801Y-84935000D01*
X76281004Y-84403798D01*
X76310001Y-84380001D01*
X76404974Y-84264276D01*
X76475546Y-84132247D01*
X76519003Y-83988986D01*
X76530000Y-83877333D01*
X76530000Y-83877323D01*
X76533676Y-83840000D01*
X76530000Y-83802677D01*
X76530000Y-73914701D01*
X76569482Y-73910812D01*
X76689180Y-73874502D01*
X76799494Y-73815537D01*
X76896185Y-73736185D01*
X76975537Y-73639494D01*
X77034502Y-73529180D01*
X77070812Y-73409482D01*
X77083072Y-73285000D01*
X77083072Y-71935000D01*
X77070812Y-71810518D01*
X77034502Y-71690820D01*
X76975537Y-71580506D01*
X76896185Y-71483815D01*
X76799494Y-71404463D01*
X76689180Y-71345498D01*
X76569482Y-71309188D01*
X76445000Y-71296928D01*
X75095000Y-71296928D01*
X74970518Y-71309188D01*
X74850820Y-71345498D01*
X74740506Y-71404463D01*
X74643815Y-71483815D01*
X74564463Y-71580506D01*
X74505498Y-71690820D01*
X74469188Y-71810518D01*
X74456928Y-71935000D01*
X74456928Y-73285000D01*
X74469188Y-73409482D01*
X74505498Y-73529180D01*
X74564463Y-73639494D01*
X74643815Y-73736185D01*
X74740506Y-73815537D01*
X74850820Y-73874502D01*
X74970518Y-73910812D01*
X75010001Y-73914701D01*
X75010000Y-83525198D01*
X70730199Y-87805000D01*
X70668061Y-87805000D01*
X70468102Y-87844774D01*
X70279744Y-87922795D01*
X70110226Y-88036063D01*
X69966063Y-88180226D01*
X69852795Y-88349744D01*
X69774774Y-88538102D01*
X69735000Y-88738061D01*
X67954388Y-88738061D01*
X67965226Y-88711898D01*
X68005000Y-88511939D01*
X68005000Y-88308061D01*
X67965226Y-88108102D01*
X67887205Y-87919744D01*
X67773937Y-87750226D01*
X67629774Y-87606063D01*
X67460256Y-87492795D01*
X67271898Y-87414774D01*
X67071939Y-87375000D01*
X67009802Y-87375000D01*
X57580000Y-77945199D01*
X57580000Y-72847333D01*
X57583677Y-72810000D01*
X57569003Y-72661014D01*
X57525546Y-72517753D01*
X57454974Y-72385724D01*
X57360001Y-72269999D01*
X57244276Y-72175026D01*
X57112247Y-72104454D01*
X56968986Y-72060997D01*
X56857333Y-72050000D01*
X56820000Y-72046323D01*
X56782667Y-72050000D01*
X51123711Y-72050000D01*
X51079774Y-72006063D01*
X50910256Y-71892795D01*
X50721898Y-71814774D01*
X50521939Y-71775000D01*
X50318061Y-71775000D01*
X50118102Y-71814774D01*
X49929744Y-71892795D01*
X49892625Y-71917597D01*
X49884502Y-71890820D01*
X49825537Y-71780506D01*
X49746185Y-71683815D01*
X49649494Y-71604463D01*
X49539180Y-71545498D01*
X49419482Y-71509188D01*
X49295000Y-71496928D01*
X47945000Y-71496928D01*
X47820518Y-71509188D01*
X47700820Y-71545498D01*
X47590506Y-71604463D01*
X47493815Y-71683815D01*
X47414463Y-71780506D01*
X47355498Y-71890820D01*
X47319188Y-72010518D01*
X47306928Y-72135000D01*
X29933072Y-72135000D01*
X29920812Y-72010518D01*
X29884502Y-71890820D01*
X29825537Y-71780506D01*
X29746185Y-71683815D01*
X29649494Y-71604463D01*
X29539180Y-71545498D01*
X29419482Y-71509188D01*
X29295000Y-71496928D01*
X27945000Y-71496928D01*
X27820518Y-71509188D01*
X27700820Y-71545498D01*
X27590506Y-71604463D01*
X27493815Y-71683815D01*
X27414463Y-71780506D01*
X27355498Y-71890820D01*
X27319188Y-72010518D01*
X27306928Y-72135000D01*
X24480000Y-72135000D01*
X24480000Y-54650000D01*
X40227815Y-54650000D01*
X40256487Y-54941111D01*
X40341401Y-55221034D01*
X40479294Y-55479014D01*
X40664866Y-55705134D01*
X40890986Y-55890706D01*
X40945791Y-55920000D01*
X40890986Y-55949294D01*
X40664866Y-56134866D01*
X40479294Y-56360986D01*
X40341401Y-56618966D01*
X40256487Y-56898889D01*
X40227815Y-57190000D01*
X40256487Y-57481111D01*
X40341401Y-57761034D01*
X40479294Y-58019014D01*
X40664866Y-58245134D01*
X40890986Y-58430706D01*
X41148966Y-58568599D01*
X41428889Y-58653513D01*
X41647050Y-58675000D01*
X41792950Y-58675000D01*
X42011111Y-58653513D01*
X42291034Y-58568599D01*
X42549014Y-58430706D01*
X42775134Y-58245134D01*
X42960706Y-58019014D01*
X43031973Y-57885684D01*
X43140226Y-57993937D01*
X43309744Y-58107205D01*
X43498102Y-58185226D01*
X43698061Y-58225000D01*
X43901939Y-58225000D01*
X44101898Y-58185226D01*
X44290256Y-58107205D01*
X44459774Y-57993937D01*
X44503711Y-57950000D01*
X45785199Y-57950000D01*
X51835000Y-63999802D01*
X51835000Y-64061939D01*
X51874774Y-64261898D01*
X51952795Y-64450256D01*
X52066063Y-64619774D01*
X52210226Y-64763937D01*
X52379744Y-64877205D01*
X52568102Y-64955226D01*
X52768061Y-64995000D01*
X52971939Y-64995000D01*
X53171898Y-64955226D01*
X53360256Y-64877205D01*
X53529774Y-64763937D01*
X53673937Y-64619774D01*
X53719999Y-64550837D01*
X53719999Y-65398841D01*
X53589744Y-65452795D01*
X53420226Y-65566063D01*
X53276063Y-65710226D01*
X53162795Y-65879744D01*
X53084774Y-66068102D01*
X53045000Y-66268061D01*
X53045000Y-66471939D01*
X53084774Y-66671898D01*
X53162795Y-66860256D01*
X53276063Y-67029774D01*
X53420226Y-67173937D01*
X53589744Y-67287205D01*
X53778102Y-67365226D01*
X53978061Y-67405000D01*
X54181939Y-67405000D01*
X54381898Y-67365226D01*
X54570256Y-67287205D01*
X54739774Y-67173937D01*
X54883937Y-67029774D01*
X54997205Y-66860256D01*
X55075226Y-66671898D01*
X55115000Y-66471939D01*
X55115000Y-66394226D01*
X55185545Y-66262248D01*
X55229002Y-66118987D01*
X55239999Y-66007334D01*
X55239999Y-66007324D01*
X55243675Y-65970002D01*
X55239999Y-65932679D01*
X55239999Y-57707322D01*
X55243675Y-57669999D01*
X55239999Y-57632676D01*
X55239999Y-57632666D01*
X55229002Y-57521013D01*
X55185545Y-57377752D01*
X55114973Y-57245723D01*
X55020000Y-57129998D01*
X54990996Y-57106195D01*
X54755000Y-56870199D01*
X54755000Y-56808061D01*
X54715226Y-56608102D01*
X54637205Y-56419744D01*
X54523937Y-56250226D01*
X54379774Y-56106063D01*
X54210256Y-55992795D01*
X54021898Y-55914774D01*
X53821939Y-55875000D01*
X53618061Y-55875000D01*
X53418102Y-55914774D01*
X53229744Y-55992795D01*
X53060226Y-56106063D01*
X52916063Y-56250226D01*
X52802795Y-56419744D01*
X52724774Y-56608102D01*
X52685000Y-56808061D01*
X52685000Y-57011939D01*
X52724774Y-57211898D01*
X52802795Y-57400256D01*
X52916063Y-57569774D01*
X53060226Y-57713937D01*
X53229744Y-57827205D01*
X53418102Y-57905226D01*
X53618061Y-57945000D01*
X53680199Y-57945000D01*
X53720000Y-57984801D01*
X53719999Y-63369163D01*
X53673937Y-63300226D01*
X53529774Y-63156063D01*
X53360256Y-63042795D01*
X53171898Y-62964774D01*
X52971939Y-62925000D01*
X52909802Y-62925000D01*
X46663804Y-56679003D01*
X46640001Y-56649999D01*
X46524276Y-56555026D01*
X46392247Y-56484454D01*
X46248986Y-56440997D01*
X46137333Y-56430000D01*
X46137322Y-56430000D01*
X46100000Y-56426324D01*
X46062678Y-56430000D01*
X44503711Y-56430000D01*
X44459774Y-56386063D01*
X44290256Y-56272795D01*
X44101898Y-56194774D01*
X43901939Y-56155000D01*
X43698061Y-56155000D01*
X43498102Y-56194774D01*
X43309744Y-56272795D01*
X43140226Y-56386063D01*
X43031973Y-56494316D01*
X42960706Y-56360986D01*
X42775134Y-56134866D01*
X42549014Y-55949294D01*
X42494209Y-55920000D01*
X42549014Y-55890706D01*
X42775134Y-55705134D01*
X42960706Y-55479014D01*
X43098599Y-55221034D01*
X43183513Y-54941111D01*
X43212185Y-54650000D01*
X43183513Y-54358889D01*
X43160797Y-54284005D01*
X43209803Y-54234999D01*
X55534069Y-54234999D01*
X55496487Y-54358889D01*
X55467815Y-54650000D01*
X55496487Y-54941111D01*
X55581401Y-55221034D01*
X55719294Y-55479014D01*
X55904866Y-55705134D01*
X56130986Y-55890706D01*
X56185791Y-55920000D01*
X56130986Y-55949294D01*
X55904866Y-56134866D01*
X55719294Y-56360986D01*
X55581401Y-56618966D01*
X55496487Y-56898889D01*
X55467815Y-57190000D01*
X55496487Y-57481111D01*
X55581401Y-57761034D01*
X55719294Y-58019014D01*
X55904866Y-58245134D01*
X56130986Y-58430706D01*
X56388966Y-58568599D01*
X56668889Y-58653513D01*
X56887050Y-58675000D01*
X57032950Y-58675000D01*
X57251111Y-58653513D01*
X57325996Y-58630797D01*
X66956201Y-68261003D01*
X66979999Y-68290001D01*
X66985779Y-68294744D01*
X67085505Y-68481318D01*
X67249208Y-68680792D01*
X67448682Y-68844495D01*
X67676259Y-68966138D01*
X67923195Y-69041045D01*
X68115649Y-69060000D01*
X68244351Y-69060000D01*
X68436805Y-69041045D01*
X68683741Y-68966138D01*
X68911318Y-68844495D01*
X69110792Y-68680792D01*
X69274495Y-68481318D01*
X69396138Y-68253741D01*
X69471045Y-68006805D01*
X69496338Y-67750000D01*
X69471045Y-67493195D01*
X69396138Y-67246259D01*
X69274495Y-67018682D01*
X69110792Y-66819208D01*
X69026461Y-66750000D01*
X69110792Y-66680792D01*
X69274495Y-66481318D01*
X69396138Y-66253741D01*
X69471045Y-66006805D01*
X69496338Y-65750000D01*
X69471045Y-65493195D01*
X69396138Y-65246259D01*
X69274495Y-65018682D01*
X69110792Y-64819208D01*
X69026461Y-64750000D01*
X69110792Y-64680792D01*
X69274495Y-64481318D01*
X69396138Y-64253741D01*
X69471045Y-64006805D01*
X69496338Y-63750000D01*
X69471045Y-63493195D01*
X69396138Y-63246259D01*
X69274495Y-63018682D01*
X69110792Y-62819208D01*
X69026461Y-62750000D01*
X69110792Y-62680792D01*
X69274495Y-62481318D01*
X69396138Y-62253741D01*
X69471045Y-62006805D01*
X69496338Y-61750000D01*
X69471045Y-61493195D01*
X69396138Y-61246259D01*
X69274495Y-61018682D01*
X69110792Y-60819208D01*
X69026461Y-60750000D01*
X69110792Y-60680792D01*
X69274495Y-60481318D01*
X69396138Y-60253741D01*
X69471045Y-60006805D01*
X69496338Y-59750000D01*
X69471045Y-59493195D01*
X69396138Y-59246259D01*
X69274495Y-59018682D01*
X69217369Y-58949074D01*
X69306185Y-58876185D01*
X69385537Y-58779494D01*
X69444502Y-58669180D01*
X69480812Y-58549482D01*
X69493072Y-58425000D01*
X69493072Y-58213061D01*
X90180000Y-58213061D01*
X90180000Y-58416939D01*
X90219774Y-58616898D01*
X90297795Y-58805256D01*
X90411063Y-58974774D01*
X90555226Y-59118937D01*
X90724744Y-59232205D01*
X90913102Y-59310226D01*
X91113061Y-59350000D01*
X91316939Y-59350000D01*
X91516898Y-59310226D01*
X91705256Y-59232205D01*
X91798353Y-59170000D01*
X93819388Y-59170000D01*
X93765498Y-59270820D01*
X93729188Y-59390518D01*
X93716928Y-59515000D01*
X93716928Y-60865000D01*
X93729188Y-60989482D01*
X93765498Y-61109180D01*
X93824463Y-61219494D01*
X93903815Y-61316185D01*
X94000506Y-61395537D01*
X94110820Y-61454502D01*
X94230518Y-61490812D01*
X94355000Y-61503072D01*
X95705000Y-61503072D01*
X95829482Y-61490812D01*
X95949180Y-61454502D01*
X96059494Y-61395537D01*
X96156185Y-61316185D01*
X96235537Y-61219494D01*
X96294502Y-61109180D01*
X96330812Y-60989482D01*
X96334701Y-60950000D01*
X97475680Y-60950000D01*
X97513002Y-60953676D01*
X97550324Y-60950000D01*
X97550335Y-60950000D01*
X97661988Y-60939003D01*
X97805249Y-60895546D01*
X97937278Y-60824974D01*
X98053003Y-60730001D01*
X98076806Y-60700997D01*
X99254803Y-59523000D01*
X118676528Y-59523000D01*
X118676528Y-60873000D01*
X118688788Y-60997482D01*
X118725098Y-61117180D01*
X118784063Y-61227494D01*
X118863415Y-61324185D01*
X118960106Y-61403537D01*
X119070420Y-61462502D01*
X119190118Y-61498812D01*
X119314600Y-61511072D01*
X120664600Y-61511072D01*
X120789082Y-61498812D01*
X120908780Y-61462502D01*
X121019094Y-61403537D01*
X121115785Y-61324185D01*
X121195137Y-61227494D01*
X121254102Y-61117180D01*
X121290412Y-60997482D01*
X121302672Y-60873000D01*
X121302672Y-59523000D01*
X121290412Y-59398518D01*
X121254102Y-59278820D01*
X121195137Y-59168506D01*
X121115785Y-59071815D01*
X121019094Y-58992463D01*
X120908780Y-58933498D01*
X120789082Y-58897188D01*
X120664600Y-58884928D01*
X119314600Y-58884928D01*
X119190118Y-58897188D01*
X119070420Y-58933498D01*
X118960106Y-58992463D01*
X118863415Y-59071815D01*
X118784063Y-59168506D01*
X118725098Y-59278820D01*
X118688788Y-59398518D01*
X118676528Y-59523000D01*
X99254803Y-59523000D01*
X106101004Y-52676800D01*
X106130001Y-52653003D01*
X106156332Y-52620919D01*
X106224974Y-52537279D01*
X106295546Y-52405249D01*
X106296457Y-52402246D01*
X106339003Y-52261988D01*
X106350000Y-52150335D01*
X106350000Y-52150326D01*
X106353676Y-52113003D01*
X106350000Y-52075680D01*
X106350000Y-51504701D01*
X106389482Y-51500812D01*
X106509180Y-51464502D01*
X106619494Y-51405537D01*
X106716185Y-51326185D01*
X106795537Y-51229494D01*
X106854502Y-51119180D01*
X106890812Y-50999482D01*
X106903072Y-50875000D01*
X106903072Y-49525000D01*
X106890812Y-49400518D01*
X106854502Y-49280820D01*
X106795537Y-49170506D01*
X106716185Y-49073815D01*
X106619494Y-48994463D01*
X106509180Y-48935498D01*
X106389482Y-48899188D01*
X106265000Y-48886928D01*
X104915000Y-48886928D01*
X104790518Y-48899188D01*
X104670820Y-48935498D01*
X104560506Y-48994463D01*
X104463815Y-49073815D01*
X104384463Y-49170506D01*
X104325498Y-49280820D01*
X104289188Y-49400518D01*
X104276928Y-49525000D01*
X104276928Y-50875000D01*
X104289188Y-50999482D01*
X104325498Y-51119180D01*
X104384463Y-51229494D01*
X104463815Y-51326185D01*
X104560506Y-51405537D01*
X104670820Y-51464502D01*
X104790518Y-51500812D01*
X104830001Y-51504701D01*
X104830000Y-51798200D01*
X98950956Y-57677245D01*
X98879774Y-57606063D01*
X98710256Y-57492795D01*
X98521898Y-57414774D01*
X98321939Y-57375000D01*
X98118061Y-57375000D01*
X97918102Y-57414774D01*
X97729744Y-57492795D01*
X97560226Y-57606063D01*
X97516289Y-57650000D01*
X92013711Y-57650000D01*
X91874774Y-57511063D01*
X91705256Y-57397795D01*
X91516898Y-57319774D01*
X91316939Y-57280000D01*
X91113061Y-57280000D01*
X90913102Y-57319774D01*
X90724744Y-57397795D01*
X90555226Y-57511063D01*
X90411063Y-57655226D01*
X90297795Y-57824744D01*
X90219774Y-58013102D01*
X90180000Y-58213061D01*
X69493072Y-58213061D01*
X69493072Y-57075000D01*
X69480812Y-56950518D01*
X69478550Y-56943061D01*
X87420000Y-56943061D01*
X87420000Y-57146939D01*
X87459774Y-57346898D01*
X87537795Y-57535256D01*
X87651063Y-57704774D01*
X87795226Y-57848937D01*
X87964744Y-57962205D01*
X88153102Y-58040226D01*
X88353061Y-58080000D01*
X88556939Y-58080000D01*
X88756898Y-58040226D01*
X88945256Y-57962205D01*
X89114774Y-57848937D01*
X89258937Y-57704774D01*
X89372205Y-57535256D01*
X89450226Y-57346898D01*
X89490000Y-57146939D01*
X89490000Y-56943061D01*
X89450226Y-56743102D01*
X89372205Y-56554744D01*
X89258937Y-56385226D01*
X89114774Y-56241063D01*
X88945256Y-56127795D01*
X88756898Y-56049774D01*
X88556939Y-56010000D01*
X88353061Y-56010000D01*
X88153102Y-56049774D01*
X87964744Y-56127795D01*
X87795226Y-56241063D01*
X87651063Y-56385226D01*
X87537795Y-56554744D01*
X87459774Y-56743102D01*
X87420000Y-56943061D01*
X69478550Y-56943061D01*
X69444502Y-56830820D01*
X69385537Y-56720506D01*
X69306185Y-56623815D01*
X69209494Y-56544463D01*
X69099180Y-56485498D01*
X68979482Y-56449188D01*
X68855000Y-56436928D01*
X67505000Y-56436928D01*
X67380518Y-56449188D01*
X67260820Y-56485498D01*
X67150506Y-56544463D01*
X67136093Y-56556291D01*
X61003803Y-50424002D01*
X60980000Y-50394998D01*
X60864275Y-50300025D01*
X60732246Y-50229453D01*
X60588985Y-50185996D01*
X60477332Y-50174999D01*
X60477321Y-50174999D01*
X60439999Y-50171323D01*
X60402677Y-50174999D01*
X44032323Y-50174999D01*
X43995000Y-50171323D01*
X43957677Y-50174999D01*
X43957668Y-50174999D01*
X43846015Y-50185996D01*
X43702754Y-50229453D01*
X43570725Y-50300025D01*
X43455000Y-50394998D01*
X43431202Y-50423996D01*
X43032543Y-50822655D01*
X43021185Y-50808815D01*
X42924494Y-50729463D01*
X42814180Y-50670498D01*
X42694482Y-50634188D01*
X42570000Y-50621928D01*
X40870000Y-50621928D01*
X40745518Y-50634188D01*
X40625820Y-50670498D01*
X40515506Y-50729463D01*
X40418815Y-50808815D01*
X40339463Y-50905506D01*
X40280498Y-51015820D01*
X40244188Y-51135518D01*
X40231928Y-51260000D01*
X40231928Y-52960000D01*
X40244188Y-53084482D01*
X40280498Y-53204180D01*
X40339463Y-53314494D01*
X40418815Y-53411185D01*
X40515506Y-53490537D01*
X40625820Y-53549502D01*
X40694687Y-53570393D01*
X40664866Y-53594866D01*
X40479294Y-53820986D01*
X40341401Y-54078966D01*
X40256487Y-54358889D01*
X40227815Y-54650000D01*
X24480000Y-54650000D01*
X24480000Y-49555000D01*
X101086928Y-49555000D01*
X101086928Y-50905000D01*
X101099188Y-51029482D01*
X101135498Y-51149180D01*
X101194463Y-51259494D01*
X101273815Y-51356185D01*
X101370506Y-51435537D01*
X101480820Y-51494502D01*
X101600518Y-51530812D01*
X101725000Y-51543072D01*
X103075000Y-51543072D01*
X103199482Y-51530812D01*
X103319180Y-51494502D01*
X103429494Y-51435537D01*
X103526185Y-51356185D01*
X103605537Y-51259494D01*
X103664502Y-51149180D01*
X103700812Y-51029482D01*
X103713072Y-50905000D01*
X103713072Y-49555000D01*
X103700812Y-49430518D01*
X103664502Y-49310820D01*
X103605537Y-49200506D01*
X103526185Y-49103815D01*
X103429494Y-49024463D01*
X103319180Y-48965498D01*
X103199482Y-48929188D01*
X103075000Y-48916928D01*
X101725000Y-48916928D01*
X101600518Y-48929188D01*
X101480820Y-48965498D01*
X101370506Y-49024463D01*
X101273815Y-49103815D01*
X101194463Y-49200506D01*
X101135498Y-49310820D01*
X101099188Y-49430518D01*
X101086928Y-49555000D01*
X24480000Y-49555000D01*
X24480000Y-44077560D01*
X43360000Y-44077560D01*
X43360000Y-44542440D01*
X43450694Y-44998387D01*
X43628595Y-45427879D01*
X43886868Y-45814412D01*
X44215588Y-46143132D01*
X44602121Y-46401405D01*
X45031613Y-46579306D01*
X45487560Y-46670000D01*
X45952440Y-46670000D01*
X46408387Y-46579306D01*
X46837879Y-46401405D01*
X47224412Y-46143132D01*
X47553132Y-45814412D01*
X47811405Y-45427879D01*
X47989306Y-44998387D01*
X48080000Y-44542440D01*
X48080000Y-44077560D01*
X47989306Y-43621613D01*
X47811405Y-43192121D01*
X47553132Y-42805588D01*
X47224412Y-42476868D01*
X46837879Y-42218595D01*
X46408387Y-42040694D01*
X45952440Y-41950000D01*
X45487560Y-41950000D01*
X45031613Y-42040694D01*
X44602121Y-42218595D01*
X44215588Y-42476868D01*
X43886868Y-42805588D01*
X43628595Y-43192121D01*
X43450694Y-43621613D01*
X43360000Y-44077560D01*
X24480000Y-44077560D01*
X24480000Y-28735000D01*
X26606928Y-28735000D01*
X26606928Y-30085000D01*
X26619188Y-30209482D01*
X26655498Y-30329180D01*
X26714463Y-30439494D01*
X26793815Y-30536185D01*
X26890506Y-30615537D01*
X27000820Y-30674502D01*
X27120518Y-30710812D01*
X27245000Y-30723072D01*
X28595000Y-30723072D01*
X28719482Y-30710812D01*
X28839180Y-30674502D01*
X28949494Y-30615537D01*
X29046185Y-30536185D01*
X29125537Y-30439494D01*
X29184502Y-30329180D01*
X29220812Y-30209482D01*
X29233072Y-30085000D01*
X29233072Y-28735000D01*
X29220812Y-28610518D01*
X29184502Y-28490820D01*
X29125537Y-28380506D01*
X29046185Y-28283815D01*
X28949494Y-28204463D01*
X28839180Y-28145498D01*
X28787303Y-28129761D01*
X35560000Y-28129761D01*
X35560000Y-28490239D01*
X35630325Y-28843791D01*
X35768275Y-29176830D01*
X35968546Y-29476557D01*
X36223443Y-29731454D01*
X36523170Y-29931725D01*
X36856209Y-30069675D01*
X37209761Y-30140000D01*
X37570239Y-30140000D01*
X37923791Y-30069675D01*
X38256830Y-29931725D01*
X38556557Y-29731454D01*
X38811454Y-29476557D01*
X39011725Y-29176830D01*
X39149675Y-28843791D01*
X39220000Y-28490239D01*
X39220000Y-28129761D01*
X39209617Y-28077560D01*
X98560000Y-28077560D01*
X98560000Y-28542440D01*
X98650694Y-28998387D01*
X98828595Y-29427879D01*
X99086868Y-29814412D01*
X99415588Y-30143132D01*
X99802121Y-30401405D01*
X100231613Y-30579306D01*
X100687560Y-30670000D01*
X101152440Y-30670000D01*
X101608387Y-30579306D01*
X102037879Y-30401405D01*
X102424412Y-30143132D01*
X102753132Y-29814412D01*
X103011405Y-29427879D01*
X103189306Y-28998387D01*
X103261588Y-28635000D01*
X118306928Y-28635000D01*
X118306928Y-29985000D01*
X118319188Y-30109482D01*
X118355498Y-30229180D01*
X118414463Y-30339494D01*
X118493815Y-30436185D01*
X118590506Y-30515537D01*
X118700820Y-30574502D01*
X118820518Y-30610812D01*
X118945000Y-30623072D01*
X120295000Y-30623072D01*
X120419482Y-30610812D01*
X120539180Y-30574502D01*
X120649494Y-30515537D01*
X120746185Y-30436185D01*
X120825537Y-30339494D01*
X120884502Y-30229180D01*
X120920812Y-30109482D01*
X120933072Y-29985000D01*
X120933072Y-28635000D01*
X120920812Y-28510518D01*
X120884502Y-28390820D01*
X120825537Y-28280506D01*
X120746185Y-28183815D01*
X120649494Y-28104463D01*
X120539180Y-28045498D01*
X120419482Y-28009188D01*
X120295000Y-27996928D01*
X118945000Y-27996928D01*
X118820518Y-28009188D01*
X118700820Y-28045498D01*
X118590506Y-28104463D01*
X118493815Y-28183815D01*
X118414463Y-28280506D01*
X118355498Y-28390820D01*
X118319188Y-28510518D01*
X118306928Y-28635000D01*
X103261588Y-28635000D01*
X103280000Y-28542440D01*
X103280000Y-28077560D01*
X103189306Y-27621613D01*
X103011405Y-27192121D01*
X102753132Y-26805588D01*
X102424412Y-26476868D01*
X102037879Y-26218595D01*
X101608387Y-26040694D01*
X101152440Y-25950000D01*
X100687560Y-25950000D01*
X100231613Y-26040694D01*
X99802121Y-26218595D01*
X99415588Y-26476868D01*
X99086868Y-26805588D01*
X98828595Y-27192121D01*
X98650694Y-27621613D01*
X98560000Y-28077560D01*
X39209617Y-28077560D01*
X39149675Y-27776209D01*
X39011725Y-27443170D01*
X38811454Y-27143443D01*
X38556557Y-26888546D01*
X38256830Y-26688275D01*
X37923791Y-26550325D01*
X37570239Y-26480000D01*
X37209761Y-26480000D01*
X36856209Y-26550325D01*
X36523170Y-26688275D01*
X36223443Y-26888546D01*
X35968546Y-27143443D01*
X35768275Y-27443170D01*
X35630325Y-27776209D01*
X35560000Y-28129761D01*
X28787303Y-28129761D01*
X28719482Y-28109188D01*
X28595000Y-28096928D01*
X27245000Y-28096928D01*
X27120518Y-28109188D01*
X27000820Y-28145498D01*
X26890506Y-28204463D01*
X26793815Y-28283815D01*
X26714463Y-28380506D01*
X26655498Y-28490820D01*
X26619188Y-28610518D01*
X26606928Y-28735000D01*
X24480000Y-28735000D01*
X24480000Y-23570000D01*
X122220000Y-23570000D01*
X122220001Y-100990000D01*
M02*
